{"asset":{"version":"2.0","generator":"Blockbench 4.12.5 glTF exporter"},"scenes":[{"nodes":[6],"name":"blockbench_export"}],"scene":0,"nodes":[{"rotation":[0,-0.3826834323650898,0,0.9238795325112867],"translation":[0,0.25,0],"name":"cube","mesh":0},{"rotation":[0,0.3826834323650898,0,0.9238795325112867],"translation":[0,0.25,0],"name":"cube","mesh":1},{"rotation":[0,0,-0.3826834323650898,0.9238795325112867],"translation":[0.1875,1.1875,0],"name":"cube","mesh":2},{"rotation":[0.1464466094067262,0.35355339059327395,0.3535533905932734,0.8535533905932737],"translation":[-0.1875,1.0625,0.0625],"name":"cube","mesh":3},{"rotation":[0.26374134786937387,-0.19382731092652275,-0.23029982741467644,0.9164242818999337],"translation":[-0.034498194926748646,1.0101378060120108,-0.13821515335781065],"name":"cube","mesh":4},{"name":"root","children":[0,1,2,3,4]},{"children":[5]}],"bufferViews":[{"buffer":0,"byteOffset":0,"byteLength":240,"target":34962,"byteStride":12},{"buffer":0,"byteOffset":240,"byteLength":240,"target":34962,"byteStride":12},{"buffer":0,"byteOffset":480,"byteLength":160,"target":34962,"byteStride":8},{"buffer":0,"byteOffset":640,"byteLength":60,"target":34963},{"buffer":0,"byteOffset":700,"byteLength":240,"target":34962,"byteStride":12},{"buffer":0,"byteOffset":940,"byteLength":240,"target":34962,"byteStride":12},{"buffer":0,"byteOffset":1180,"byteLength":160,"target":34962,"byteStride":8},{"buffer":0,"byteOffset":1340,"byteLength":60,"target":34963},{"buffer":0,"byteOffset":1400,"byteLength":288,"target":34962,"byteStride":12},{"buffer":0,"byteOffset":1688,"byteLength":288,"target":34962,"byteStride":12},{"buffer":0,"byteOffset":1976,"byteLength":192,"target":34962,"byteStride":8},{"buffer":0,"byteOffset":2168,"byteLength":72,"target":34963},{"buffer":0,"byteOffset":2240,"byteLength":288,"target":34962,"byteStride":12},{"buffer":0,"byteOffset":2528,"byteLength":288,"target":34962,"byteStride":12},{"buffer":0,"byteOffset":2816,"byteLength":192,"target":34962,"byteStride":8},{"buffer":0,"byteOffset":3008,"byteLength":72,"target":34963},{"buffer":0,"byteOffset":3080,"byteLength":288,"target":34962,"byteStride":12},{"buffer":0,"byteOffset":3368,"byteLength":288,"target":34962,"byteStride":12},{"buffer":0,"byteOffset":3656,"byteLength":192,"target":34962,"byteStride":8},{"buffer":0,"byteOffset":3848,"byteLength":72,"target":34963}],"buffers":[{"byteLength":3920,"uri":"data:application/octet-stream;base64,"}],"accessors":[{"bufferView":0,"componentType":5126,"count":20,"max":[0.28125,1.125,0],"min":[-0.28125,-0.25,0],"type":"VEC3"},{"bufferView":1,"componentType":5126,"count":20,"max":[1,0,0],"min":[0,0,-1],"type":"VEC3"},{"bufferView":2,"componentType":5126,"count":20,"max":[null,null],"min":[null,null],"type":"VEC2"},{"bufferView":3,"componentType":5123,"count":30,"max":[19],"min":[0],"type":"SCALAR"},{"bufferView":4,"componentType":5126,"count":20,"max":[0.28125,1.125,0],"min":[-0.28125,-0.25,0],"type":"VEC3"},{"bufferView":5,"componentType":5126,"count":20,"max":[1,0,1],"min":[0,0,0],"type":"VEC3"},{"bufferView":6,"componentType":5126,"count":20,"max":[null,null],"min":[null,null],"type":"VEC2"},{"bufferView":7,"componentType":5123,"count":30,"max":[19],"min":[0],"type":"SCALAR"},{"bufferView":8,"componentType":5126,"count":24,"max":[0.09375,0.1875,0.09375],"min":[-0.09375,-0.1875,-0.09375],"type":"VEC3"},{"bufferView":9,"componentType":5126,"count":24,"max":[1,1,1],"min":[-1,-1,-1],"type":"VEC3"},{"bufferView":10,"componentType":5126,"count":24,"max":[0.37451171875,0.28076171875],"min":[0.00048828125,0.00048828125],"type":"VEC2"},{"bufferView":11,"componentType":5123,"count":36,"max":[23],"min":[0],"type":"SCALAR"},{"bufferView":12,"componentType":5126,"count":24,"max":[0.09375,0.1875,0.15625],"min":[-0.09375,-0.1875,-0.03125],"type":"VEC3"},{"bufferView":13,"componentType":5126,"count":24,"max":[1,1,1],"min":[-1,-1,-1],"type":"VEC3"},{"bufferView":14,"componentType":5126,"count":24,"max":[0.37451171875,0.28076171875],"min":[0.00048828125,0.00048828125],"type":"VEC2"},{"bufferView":15,"componentType":5123,"count":36,"max":[23],"min":[0],"type":"SCALAR"},{"bufferView":16,"componentType":5126,"count":24,"max":[0.09375,0.1875,0.09375],"min":[-0.09375,-0.1875,-0.09375],"type":"VEC3"},{"bufferView":17,"componentType":5126,"count":24,"max":[1,1,1],"min":[-1,-1,-1],"type":"VEC3"},{"bufferView":18,"componentType":5126,"count":24,"max":[0.37450000643730164,0.9369999766349792],"min":[0.0005000000237487257,0.31300002336502075],"type":"VEC2"},{"bufferView":19,"componentType":5123,"count":36,"max":[23],"min":[0],"type":"SCALAR"}],"materials":[{"pbrMetallicRoughness":{"metallicFactor":0,"roughnessFactor":1,"baseColorTexture":{"index":0}},"alphaMode":"MASK","alphaCutoff":0.05,"doubleSided":true}],"textures":[{"sampler":0,"source":0,"name":"taller_with_corns"}],"samplers":[{"magFilter":9728,"minFilter":9728,"wrapS":33071,"wrapT":33071}],"images":[{"mimeType":"image/png","uri":"data:image/png;base64,"}],"meshes":[{"primitives":[{"mode":4,"attributes":{"POSITION":0,"NORMAL":1,"TEXCOORD_0":2},"indices":3,"material":0}]},{"primitives":[{"mode":4,"attributes":{"POSITION":4,"NORMAL":5,"TEXCOORD_0":6},"indices":7,"material":0}]},{"primitives":[{"mode":4,"attributes":{"POSITION":8,"NORMAL":9,"TEXCOORD_0":10},"indices":11,"material":0}]},{"primitives":[{"mode":4,"attributes":{"POSITION":12,"NORMAL":13,"TEXCOORD_0":14},"indices":15,"material":0}]},{"primitives":[{"mode":4,"attributes":{"POSITION":16,"NORMAL":17,"TEXCOORD_0":18},"indices":19,"material":0}]}]}