{"asset":{"version":"2.0","generator":"Blockbench 4.12.5 glTF exporter"},"scenes":[{"nodes":[23],"name":"blockbench_export"}],"scene":0,"nodes":[{"rotation":[-0.9762960071199334,0.21643961393810288,8.270900378003749e-18,6.455264590092837e-17],"translation":[-0.3924368705210729,0.13353206106622628,0],"name":"cube","mesh":0},{"translation":[-0.029936870521072856,-0.4133429389337737,0],"name":"cube","mesh":1},{"rotation":[0,0,-0.10886687485196457,0.9940563382223196],"translation":[-0.23306187052107286,-0.22584293893377372,0],"name":"cube","mesh":2},{"rotation":[0,0,-0.21643961393810288,0.9762960071199334],"translation":[-0.032563129478927144,0.4758429389337737,0],"name":"bone","children":[0,1,2]},{"rotation":[-0.9762960071199334,-0.21643961393810288,-8.270900378003749e-18,6.455264590092837e-17],"translation":[0.39375000000000004,0.140625,0],"name":"cube","mesh":3},{"rotation":[0,0,0.17364817766693033,0.984807753012208],"translation":[0.234375,-0.21875,0],"name":"cube","mesh":4},{"translation":[0.03125,-0.40625,0],"name":"cube","mesh":5},{"rotation":[0.0746578340503425,0.3753302775178652,0.18023995550173696,0.9061274463528879],"translation":[0.03125,0.46875,0],"name":"bone2","children":[4,5,6]},{"rotation":[-0.9762960071199334,-0.21643961393810288,-8.270900378003749e-18,6.455264590092837e-17],"translation":[0.39375000000000004,0.140625,0],"name":"cube","mesh":6},{"translation":[0.03125,-0.40625,0],"name":"cube","mesh":7},{"rotation":[-0.20412656515092784,0.8584097256426964,0.01228588984999851,0.47044037372690334],"translation":[0.015625,0.78125,-0.015625],"name":"bone3","children":[8,9]},{"rotation":[-0.9762960071199334,0.21643961393810288,8.270900378003749e-18,6.455264590092837e-17],"translation":[-0.39375000000000004,0.140625,0],"name":"cube","mesh":8},{"translation":[-0.03125,-0.40625,0],"name":"cube","mesh":9},{"rotation":[0.0039771361377482495,-0.8025109985101623,-0.1145447100672956,0.5855252249510376],"translation":[0.015625,0.90625,0],"name":"bone5","children":[11,12]},{"rotation":[0.9762960071199334,0.21643961393810288,-8.270900378003749e-18,6.455264590092837e-17],"translation":[0.39375000000000004,0.140625,0],"name":"cube","mesh":10},{"translation":[0.03125,-0.40625,0],"name":"cube","mesh":11},{"rotation":[-0.03348797099128123,-0.6236210197367272,0.10961233514137975,0.7732790670425944],"translation":[-0.015625,0.90625,0],"name":"bone6","children":[14,15]},{"rotation":[0.9762960071199334,0.21643961393810288,-8.270900378003749e-18,6.455264590092837e-17],"translation":[0.39375000000000004,0.140625,0],"name":"cube","mesh":12},{"translation":[0.03125,-0.40625,0],"name":"cube","mesh":13},{"rotation":[0.20412656515092784,-0.8584097256426964,0.01228588984999851,0.47044037372690334],"translation":[0.015625,0.65625,0.015625],"name":"bone4","children":[17,18]},{"name":"cube","mesh":14},{"translation":[0,0.5625,-0.009375],"name":"cube","mesh":15},{"name":"root","children":[3,7,10,13,16,19,20,21]},{"children":[22]}],"bufferViews":[{"buffer":0,"byteOffset":0,"byteLength":288,"target":34962,"byteStride":12},{"buffer":0,"byteOffset":288,"byteLength":288,"target":34962,"byteStride":12},{"buffer":0,"byteOffset":576,"byteLength":192,"target":34962,"byteStride":8},{"buffer":0,"byteOffset":768,"byteLength":72,"target":34963},{"buffer":0,"byteOffset":840,"byteLength":240,"target":34962,"byteStride":12},{"buffer":0,"byteOffset":1080,"byteLength":240,"target":34962,"byteStride":12},{"buffer":0,"byteOffset":1320,"byteLength":160,"target":34962,"byteStride":8},{"buffer":0,"byteOffset":1480,"byteLength":60,"target":34963},{"buffer":0,"byteOffset":1540,"byteLength":288,"target":34962,"byteStride":12},{"buffer":0,"byteOffset":1828,"byteLength":288,"target":34962,"byteStride":12},{"buffer":0,"byteOffset":2116,"byteLength":192,"target":34962,"byteStride":8},{"buffer":0,"byteOffset":2308,"byteLength":72,"target":34963},{"buffer":0,"byteOffset":2380,"byteLength":288,"target":34962,"byteStride":12},{"buffer":0,"byteOffset":2668,"byteLength":288,"target":34962,"byteStride":12},{"buffer":0,"byteOffset":2956,"byteLength":192,"target":34962,"byteStride":8},{"buffer":0,"byteOffset":3148,"byteLength":72,"target":34963},{"buffer":0,"byteOffset":3220,"byteLength":288,"target":34962,"byteStride":12},{"buffer":0,"byteOffset":3508,"byteLength":288,"target":34962,"byteStride":12},{"buffer":0,"byteOffset":3796,"byteLength":192,"target":34962,"byteStride":8},{"buffer":0,"byteOffset":3988,"byteLength":72,"target":34963},{"buffer":0,"byteOffset":4060,"byteLength":240,"target":34962,"byteStride":12},{"buffer":0,"byteOffset":4300,"byteLength":240,"target":34962,"byteStride":12},{"buffer":0,"byteOffset":4540,"byteLength":160,"target":34962,"byteStride":8},{"buffer":0,"byteOffset":4700,"byteLength":60,"target":34963},{"buffer":0,"byteOffset":4760,"byteLength":288,"target":34962,"byteStride":12},{"buffer":0,"byteOffset":5048,"byteLength":288,"target":34962,"byteStride":12},{"buffer":0,"byteOffset":5336,"byteLength":192,"target":34962,"byteStride":8},{"buffer":0,"byteOffset":5528,"byteLength":72,"target":34963},{"buffer":0,"byteOffset":5600,"byteLength":240,"target":34962,"byteStride":12},{"buffer":0,"byteOffset":5840,"byteLength":240,"target":34962,"byteStride":12},{"buffer":0,"byteOffset":6080,"byteLength":160,"target":34962,"byteStride":8},{"buffer":0,"byteOffset":6240,"byteLength":60,"target":34963},{"buffer":0,"byteOffset":6300,"byteLength":288,"target":34962,"byteStride":12},{"buffer":0,"byteOffset":6588,"byteLength":288,"target":34962,"byteStride":12},{"buffer":0,"byteOffset":6876,"byteLength":192,"target":34962,"byteStride":8},{"buffer":0,"byteOffset":7068,"byteLength":72,"target":34963},{"buffer":0,"byteOffset":7140,"byteLength":240,"target":34962,"byteStride":12},{"buffer":0,"byteOffset":7380,"byteLength":240,"target":34962,"byteStride":12},{"buffer":0,"byteOffset":7620,"byteLength":160,"target":34962,"byteStride":8},{"buffer":0,"byteOffset":7780,"byteLength":60,"target":34963},{"buffer":0,"byteOffset":7840,"byteLength":288,"target":34962,"byteStride":12},{"buffer":0,"byteOffset":8128,"byteLength":288,"target":34962,"byteStride":12},{"buffer":0,"byteOffset":8416,"byteLength":192,"target":34962,"byteStride":8},{"buffer":0,"byteOffset":8608,"byteLength":72,"target":34963},{"buffer":0,"byteOffset":8680,"byteLength":240,"target":34962,"byteStride":12},{"buffer":0,"byteOffset":8920,"byteLength":240,"target":34962,"byteStride":12},{"buffer":0,"byteOffset":9160,"byteLength":160,"target":34962,"byteStride":8},{"buffer":0,"byteOffset":9320,"byteLength":60,"target":34963},{"buffer":0,"byteOffset":9380,"byteLength":288,"target":34962,"byteStride":12},{"buffer":0,"byteOffset":9668,"byteLength":288,"target":34962,"byteStride":12},{"buffer":0,"byteOffset":9956,"byteLength":192,"target":34962,"byteStride":8},{"buffer":0,"byteOffset":10148,"byteLength":72,"target":34963},{"buffer":0,"byteOffset":10220,"byteLength":240,"target":34962,"byteStride":12},{"buffer":0,"byteOffset":10460,"byteLength":240,"target":34962,"byteStride":12},{"buffer":0,"byteOffset":10700,"byteLength":160,"target":34962,"byteStride":8},{"buffer":0,"byteOffset":10860,"byteLength":60,"target":34963},{"buffer":0,"byteOffset":10920,"byteLength":288,"target":34962,"byteStride":12},{"buffer":0,"byteOffset":11208,"byteLength":288,"target":34962,"byteStride":12},{"buffer":0,"byteOffset":11496,"byteLength":192,"target":34962,"byteStride":8},{"buffer":0,"byteOffset":11688,"byteLength":72,"target":34963},{"buffer":0,"byteOffset":11760,"byteLength":240,"target":34962,"byteStride":12},{"buffer":0,"byteOffset":12000,"byteLength":240,"target":34962,"byteStride":12},{"buffer":0,"byteOffset":12240,"byteLength":160,"target":34962,"byteStride":8},{"buffer":0,"byteOffset":12400,"byteLength":60,"target":34963}],"buffers":[{"byteLength":12460,"uri":"data:application/octet-stream;base64,"}],"accessors":[{"bufferView":0,"componentType":5126,"count":24,"max":[0.21875,0.03125,0.15625],"min":[-0.21875,-0.03125,-0.15625],"type":"VEC3"},{"bufferView":1,"componentType":5126,"count":24,"max":[1,1,1],"min":[-1,-1,-1],"type":"VEC3"},{"bufferView":2,"componentType":5126,"count":24,"max":[0.9990000128746033,0.9990000128746033],"min":[0.0010000000474974513,0.15724998712539673],"type":"VEC2"},{"bufferView":3,"componentType":5123,"count":36,"max":[23],"min":[0],"type":"SCALAR"},{"bufferView":4,"componentType":5126,"count":20,"max":[0.03125,0.625,0],"min":[-0.34375,0.1875,0],"type":"VEC3"},{"bufferView":5,"componentType":5126,"count":20,"max":[1,0,0],"min":[0,0,-1],"type":"VEC3"},{"bufferView":6,"componentType":5126,"count":20,"max":[0.5615000128746033,0.6554907560348511],"min":[0.1875,0.4375],"type":"VEC2"},{"bufferView":7,"componentType":5123,"count":30,"max":[19],"min":[0],"type":"SCALAR"},{"bufferView":8,"componentType":5126,"count":24,"max":[0.09375,0.09375,0.09375],"min":[-0.09375,-0.40625,-0.09375],"type":"VEC3"},{"bufferView":9,"componentType":5126,"count":24,"max":[1,1,1],"min":[-1,-1,-1],"type":"VEC3"},{"bufferView":10,"componentType":5126,"count":24,"max":[0.9990000128746033,0.7177500128746033],"min":[0.6259999871253967,0.37599998712539673],"type":"VEC2"},{"bufferView":11,"componentType":5123,"count":36,"max":[23],"min":[0],"type":"SCALAR"},{"bufferView":12,"componentType":5126,"count":24,"max":[0.21875,0.03125,0.15625],"min":[-0.21875,-0.03125,-0.15625],"type":"VEC3"},{"bufferView":13,"componentType":5126,"count":24,"max":[1,1,1],"min":[-1,-1,-1],"type":"VEC3"},{"bufferView":14,"componentType":5126,"count":24,"max":[0.9990000128746033,0.9990000128746033],"min":[0.0010000000474974513,0.15724998712539673],"type":"VEC2"},{"bufferView":15,"componentType":5123,"count":36,"max":[23],"min":[0],"type":"SCALAR"},{"bufferView":16,"componentType":5126,"count":24,"max":[0.09375,0.09375,0.09375],"min":[-0.09375,-0.40625,-0.09375],"type":"VEC3"},{"bufferView":17,"componentType":5126,"count":24,"max":[1,1,1],"min":[-1,-1,-1],"type":"VEC3"},{"bufferView":18,"componentType":5126,"count":24,"max":[0.9990000128746033,0.7177500128746033],"min":[0.6259999871253967,0.37599998712539673],"type":"VEC2"},{"bufferView":19,"componentType":5123,"count":36,"max":[23],"min":[0],"type":"SCALAR"},{"bufferView":20,"componentType":5126,"count":20,"max":[0.34375,0.625,0],"min":[-0.03125,0.1875,0],"type":"VEC3"},{"bufferView":21,"componentType":5126,"count":20,"max":[1,0,0],"min":[0,0,-1],"type":"VEC3"},{"bufferView":22,"componentType":5126,"count":20,"max":[0.5615000128746033,0.6554907560348511],"min":[0.1875,0.4375],"type":"VEC2"},{"bufferView":23,"componentType":5123,"count":30,"max":[19],"min":[0],"type":"SCALAR"},{"bufferView":24,"componentType":5126,"count":24,"max":[0.27061429619789124,0.032194022089242935,0.14211390912532806],"min":[-0.16688570380210876,-0.030305977910757065,-0.17038609087467194],"type":"VEC3"},{"bufferView":25,"componentType":5126,"count":24,"max":[1,1,1],"min":[-1,-1,-1],"type":"VEC3"},{"bufferView":26,"componentType":5126,"count":24,"max":[0.9990000128746033,0.9990000128746033],"min":[0.0010000000474974513,0.15724998712539673],"type":"VEC2"},{"bufferView":27,"componentType":5123,"count":36,"max":[23],"min":[0],"type":"SCALAR"},{"bufferView":28,"componentType":5126,"count":20,"max":[0.34375,0.625,0],"min":[-0.03125,0.1875,0],"type":"VEC3"},{"bufferView":29,"componentType":5126,"count":20,"max":[1,0,0],"min":[0,0,-1],"type":"VEC3"},{"bufferView":30,"componentType":5126,"count":20,"max":[0.5618492364883423,0.6554907560348511],"min":[0.1875,0.4375],"type":"VEC2"},{"bufferView":31,"componentType":5123,"count":30,"max":[19],"min":[0],"type":"SCALAR"},{"bufferView":32,"componentType":5126,"count":24,"max":[0.16688570380210876,0.032194022089242935,0.14211390912532806],"min":[-0.27061429619789124,-0.030305977910757065,-0.17038609087467194],"type":"VEC3"},{"bufferView":33,"componentType":5126,"count":24,"max":[1,1,1],"min":[-1,-1,-1],"type":"VEC3"},{"bufferView":34,"componentType":5126,"count":24,"max":[0.9990000128746033,0.9990000128746033],"min":[0.0010000000474974513,0.15724998712539673],"type":"VEC2"},{"bufferView":35,"componentType":5123,"count":36,"max":[23],"min":[0],"type":"SCALAR"},{"bufferView":36,"componentType":5126,"count":20,"max":[0.03125,0.625,0],"min":[-0.34375,0.1875,0],"type":"VEC3"},{"bufferView":37,"componentType":5126,"count":20,"max":[1,0,0],"min":[0,0,-1],"type":"VEC3"},{"bufferView":38,"componentType":5126,"count":20,"max":[0.5618492364883423,0.6554907560348511],"min":[0.1875,0.4375],"type":"VEC2"},{"bufferView":39,"componentType":5123,"count":30,"max":[19],"min":[0],"type":"SCALAR"},{"bufferView":40,"componentType":5126,"count":24,"max":[0.27061429619789124,0.032194022089242935,0.17038609087467194],"min":[-0.16688570380210876,-0.030305977910757065,-0.14211390912532806],"type":"VEC3"},{"bufferView":41,"componentType":5126,"count":24,"max":[1,1,1],"min":[-1,-1,-1],"type":"VEC3"},{"bufferView":42,"componentType":5126,"count":24,"max":[0.9990000128746033,0.9990000128746033],"min":[0.0010000000474974513,0.15724998712539673],"type":"VEC2"},{"bufferView":43,"componentType":5123,"count":36,"max":[23],"min":[0],"type":"SCALAR"},{"bufferView":44,"componentType":5126,"count":20,"max":[0.34375,0.625,0],"min":[-0.03125,0.1875,0],"type":"VEC3"},{"bufferView":45,"componentType":5126,"count":20,"max":[1,0,1],"min":[0,0,0],"type":"VEC3"},{"bufferView":46,"componentType":5126,"count":20,"max":[0.5618492364883423,0.6554907560348511],"min":[0.1875,0.4375],"type":"VEC2"},{"bufferView":47,"componentType":5123,"count":30,"max":[19],"min":[0],"type":"SCALAR"},{"bufferView":48,"componentType":5126,"count":24,"max":[0.21875,0.03125,0.15625],"min":[-0.21875,-0.03125,-0.15625],"type":"VEC3"},{"bufferView":49,"componentType":5126,"count":24,"max":[1,1,1],"min":[-1,-1,-1],"type":"VEC3"},{"bufferView":50,"componentType":5126,"count":24,"max":[0.9990000128746033,0.9990000128746033],"min":[0.0010000000474974513,0.15724998712539673],"type":"VEC2"},{"bufferView":51,"componentType":5123,"count":36,"max":[23],"min":[0],"type":"SCALAR"},{"bufferView":52,"componentType":5126,"count":20,"max":[0.34375,0.625,0],"min":[-0.03125,0.1875,0],"type":"VEC3"},{"bufferView":53,"componentType":5126,"count":20,"max":[1,0,1],"min":[0,0,0],"type":"VEC3"},{"bufferView":54,"componentType":5126,"count":20,"max":[0.5618492364883423,0.6554907560348511],"min":[0.1875,0.4375],"type":"VEC2"},{"bufferView":55,"componentType":5123,"count":30,"max":[19],"min":[0],"type":"SCALAR"},{"bufferView":56,"componentType":5126,"count":24,"max":[0.03125,1.25,0.03125],"min":[-0.03125,0,-0.03125],"type":"VEC3"},{"bufferView":57,"componentType":5126,"count":24,"max":[1,1,1],"min":[-1,-1,-1],"type":"VEC3"},{"bufferView":58,"componentType":5126,"count":24,"max":[0.12399999797344208,0.8740000128746033],"min":[0.0010000000474974513,0.21974998712539673],"type":"VEC2"},{"bufferView":59,"componentType":5123,"count":36,"max":[23],"min":[0],"type":"SCALAR"},{"bufferView":60,"componentType":5126,"count":20,"max":[0.21875,0.8125,-0.03125],"min":[-0.03125,0.5625,-0.03125],"type":"VEC3"},{"bufferView":61,"componentType":5126,"count":20,"max":[1,0,0],"min":[0,0,-1],"type":"VEC3"},{"bufferView":62,"componentType":5126,"count":20,"max":[null,null],"min":[null,null],"type":"VEC2"},{"bufferView":63,"componentType":5123,"count":30,"max":[19],"min":[0],"type":"SCALAR"}],"materials":[{"pbrMetallicRoughness":{"metallicFactor":0,"roughnessFactor":1,"baseColorTexture":{"index":0}},"alphaMode":"MASK","alphaCutoff":0.05,"doubleSided":true}],"textures":[{"sampler":0,"source":0,"name":"harvest"}],"samplers":[{"magFilter":9728,"minFilter":9728,"wrapS":33071,"wrapT":33071}],"images":[{"mimeType":"image/png","uri":"data:image/png;base64,"}],"meshes":[{"primitives":[{"mode":4,"attributes":{"POSITION":0,"NORMAL":1,"TEXCOORD_0":2},"indices":3,"material":0}]},{"primitives":[{"mode":4,"attributes":{"POSITION":4,"NORMAL":5,"TEXCOORD_0":6},"indices":7,"material":0}]},{"primitives":[{"mode":4,"attributes":{"POSITION":8,"NORMAL":9,"TEXCOORD_0":10},"indices":11,"material":0}]},{"primitives":[{"mode":4,"attributes":{"POSITION":12,"NORMAL":13,"TEXCOORD_0":14},"indices":15,"material":0}]},{"primitives":[{"mode":4,"attributes":{"POSITION":16,"NORMAL":17,"TEXCOORD_0":18},"indices":19,"material":0}]},{"primitives":[{"mode":4,"attributes":{"POSITION":20,"NORMAL":21,"TEXCOORD_0":22},"indices":23,"material":0}]},{"primitives":[{"mode":4,"attributes":{"POSITION":24,"NORMAL":25,"TEXCOORD_0":26},"indices":27,"material":0}]},{"primitives":[{"mode":4,"attributes":{"POSITION":28,"NORMAL":29,"TEXCOORD_0":30},"indices":31,"material":0}]},{"primitives":[{"mode":4,"attributes":{"POSITION":32,"NORMAL":33,"TEXCOORD_0":34},"indices":35,"material":0}]},{"primitives":[{"mode":4,"attributes":{"POSITION":36,"NORMAL":37,"TEXCOORD_0":38},"indices":39,"material":0}]},{"primitives":[{"mode":4,"attributes":{"POSITION":40,"NORMAL":41,"TEXCOORD_0":42},"indices":43,"material":0}]},{"primitives":[{"mode":4,"attributes":{"POSITION":44,"NORMAL":45,"TEXCOORD_0":46},"indices":47,"material":0}]},{"primitives":[{"mode":4,"attributes":{"POSITION":48,"NORMAL":49,"TEXCOORD_0":50},"indices":51,"material":0}]},{"primitives":[{"mode":4,"attributes":{"POSITION":52,"NORMAL":53,"TEXCOORD_0":54},"indices":55,"material":0}]},{"primitives":[{"mode":4,"attributes":{"POSITION":56,"NORMAL":57,"TEXCOORD_0":58},"indices":59,"material":0}]},{"primitives":[{"mode":4,"attributes":{"POSITION":60,"NORMAL":61,"TEXCOORD_0":62},"indices":63,"material":0}]}]}