{"asset":{"version":"2.0","generator":"Blockbench 4.12.5 glTF exporter"},"scenes":[{"nodes":[11],"name":"blockbench_export"}],"scene":0,"nodes":[{"translation":[0.0625,0,0.015625],"name":"root2"},{"rotation":[0,0.15212338618991683,0,0.9883615104677607],"translation":[0.4383382392675206,0.465851992427481,0.5977787599038558],"name":"cube","mesh":0},{"rotation":[0,-0.3826834323650898,0,0.9238795325112867],"translation":[0.2317279991813388,0.375,0.5350584355586352],"name":"cube","mesh":1},{"rotation":[0,-0.6259234721840595,0,0.7798844830928815],"translation":[0.4383382392675206,0.465851992427481,0.5977787599038558],"name":"cube","mesh":2},{"rotation":[0.7841199057448872,-0.14981229013430045,-0.6016763654895733,-0.026415948792402222],"translation":[-0.1260543039173858,0.4406691124690171,0.7213081138223495],"name":"cube","mesh":3},{"rotation":[0.630061060119834,-0.040768146676581046,-0.7747695863748764,0.03306216517003352],"translation":[0.4383382392675206,0.465851992427481,0.5977787599038558],"name":"cube","mesh":4},{"rotation":[0.5564708154700369,-0.08886898688157127,-0.8225781616446908,0.07620828489079146],"translation":[0.10049711522832766,1.0244377474636583,0.5752646133793857],"name":"cube","mesh":5},{"rotation":[-0.9768584753741135,-0.1503528997521363,0.15035289975213645,0.023141524625886572],"translation":[0.4383382392675206,0.465851992427481,0.5977787599038558],"name":"cube","mesh":6},{"name":"cube","mesh":7},{"name":"cube","mesh":8},{"translation":[0.1875,0,-0.109375],"name":"root","children":[1,2,3,4,5,6,7,8,9]},{"children":[0,10]}],"bufferViews":[{"buffer":0,"byteOffset":0,"byteLength":240,"target":34962,"byteStride":12},{"buffer":0,"byteOffset":240,"byteLength":240,"target":34962,"byteStride":12},{"buffer":0,"byteOffset":480,"byteLength":160,"target":34962,"byteStride":8},{"buffer":0,"byteOffset":640,"byteLength":60,"target":34963},{"buffer":0,"byteOffset":700,"byteLength":240,"target":34962,"byteStride":12},{"buffer":0,"byteOffset":940,"byteLength":240,"target":34962,"byteStride":12},{"buffer":0,"byteOffset":1180,"byteLength":160,"target":34962,"byteStride":8},{"buffer":0,"byteOffset":1340,"byteLength":60,"target":34963},{"buffer":0,"byteOffset":1400,"byteLength":240,"target":34962,"byteStride":12},{"buffer":0,"byteOffset":1640,"byteLength":240,"target":34962,"byteStride":12},{"buffer":0,"byteOffset":1880,"byteLength":160,"target":34962,"byteStride":8},{"buffer":0,"byteOffset":2040,"byteLength":60,"target":34963},{"buffer":0,"byteOffset":2100,"byteLength":288,"target":34962,"byteStride":12},{"buffer":0,"byteOffset":2388,"byteLength":288,"target":34962,"byteStride":12},{"buffer":0,"byteOffset":2676,"byteLength":192,"target":34962,"byteStride":8},{"buffer":0,"byteOffset":2868,"byteLength":72,"target":34963},{"buffer":0,"byteOffset":2940,"byteLength":288,"target":34962,"byteStride":12},{"buffer":0,"byteOffset":3228,"byteLength":288,"target":34962,"byteStride":12},{"buffer":0,"byteOffset":3516,"byteLength":192,"target":34962,"byteStride":8},{"buffer":0,"byteOffset":3708,"byteLength":72,"target":34963},{"buffer":0,"byteOffset":3780,"byteLength":288,"target":34962,"byteStride":12},{"buffer":0,"byteOffset":4068,"byteLength":288,"target":34962,"byteStride":12},{"buffer":0,"byteOffset":4356,"byteLength":192,"target":34962,"byteStride":8},{"buffer":0,"byteOffset":4548,"byteLength":72,"target":34963},{"buffer":0,"byteOffset":4620,"byteLength":288,"target":34962,"byteStride":12},{"buffer":0,"byteOffset":4908,"byteLength":288,"target":34962,"byteStride":12},{"buffer":0,"byteOffset":5196,"byteLength":192,"target":34962,"byteStride":8},{"buffer":0,"byteOffset":5388,"byteLength":72,"target":34963},{"buffer":0,"byteOffset":5460,"byteLength":288,"target":34962,"byteStride":12},{"buffer":0,"byteOffset":5748,"byteLength":288,"target":34962,"byteStride":12},{"buffer":0,"byteOffset":6036,"byteLength":192,"target":34962,"byteStride":8},{"buffer":0,"byteOffset":6228,"byteLength":72,"target":34963},{"buffer":0,"byteOffset":6300,"byteLength":288,"target":34962,"byteStride":12},{"buffer":0,"byteOffset":6588,"byteLength":288,"target":34962,"byteStride":12},{"buffer":0,"byteOffset":6876,"byteLength":192,"target":34962,"byteStride":8},{"buffer":0,"byteOffset":7068,"byteLength":72,"target":34963}],"buffers":[{"byteLength":7140,"uri":"data:application/octet-stream;base64,"}],"accessors":[{"bufferView":0,"componentType":5126,"count":20,"max":[0.22069549560546875,0.2841480076313019,-0.1510355919599533],"min":[-0.5293045043945312,-0.4658519923686981,-0.1510355919599533],"type":"VEC3"},{"bufferView":1,"componentType":5126,"count":20,"max":[1,0,0],"min":[0,0,-1],"type":"VEC3"},{"bufferView":2,"componentType":5126,"count":20,"max":[null,null],"min":[null,null],"type":"VEC2"},{"bufferView":3,"componentType":5123,"count":30,"max":[19],"min":[0],"type":"SCALAR"},{"bufferView":4,"componentType":5126,"count":20,"max":[0.0625,0.625,1.1102230246251565e-16],"min":[-0.6875,-0.125,1.1102230246251565e-16],"type":"VEC3"},{"bufferView":5,"componentType":5126,"count":20,"max":[1,0,0],"min":[0,0,-1],"type":"VEC3"},{"bufferView":6,"componentType":5126,"count":20,"max":[null,null],"min":[null,null],"type":"VEC2"},{"bufferView":7,"componentType":5123,"count":30,"max":[19],"min":[0],"type":"SCALAR"},{"bufferView":8,"componentType":5126,"count":20,"max":[0.23650799691677094,0.2841480076313019,0.07884106040000916],"min":[-0.5134919881820679,-0.4658519923686981,0.07884106040000916],"type":"VEC3"},{"bufferView":9,"componentType":5126,"count":20,"max":[1,0,0],"min":[0,0,-1],"type":"VEC3"},{"bufferView":10,"componentType":5126,"count":20,"max":[null,null],"min":[null,null],"type":"VEC2"},{"bufferView":11,"componentType":5123,"count":30,"max":[19],"min":[0],"type":"SCALAR"},{"bufferView":12,"componentType":5126,"count":24,"max":[0.21875,0.03125,0.1875],"min":[-0.21875,-0.03125,-0.1875],"type":"VEC3"},{"bufferView":13,"componentType":5126,"count":24,"max":[1,1,1],"min":[-1,-1,-1],"type":"VEC3"},{"bufferView":14,"componentType":5126,"count":24,"max":[0.5463749766349792,0.9369999766349792],"min":[0.0005000000237487257,0.000500023365020752],"type":"VEC2"},{"bufferView":15,"componentType":5123,"count":36,"max":[23],"min":[0],"type":"SCALAR"},{"bufferView":16,"componentType":5126,"count":24,"max":[0.0022291128989309072,-0.0890701562166214,0.275697261095047],"min":[-0.43527087569236755,-0.1515701562166214,-0.0993027463555336],"type":"VEC3"},{"bufferView":17,"componentType":5126,"count":24,"max":[1,1,1],"min":[-1,-1,-1],"type":"VEC3"},{"bufferView":18,"componentType":5126,"count":24,"max":[0.5463749766349792,0.9369999766349792],"min":[0.0005000000237487257,0.000500023365020752],"type":"VEC2"},{"bufferView":19,"componentType":5123,"count":36,"max":[23],"min":[0],"type":"SCALAR"},{"bufferView":20,"componentType":5126,"count":24,"max":[0.25,0.0625,0.140625],"min":[-0.1875,-4.440892098500626e-16,-0.234375],"type":"VEC3"},{"bufferView":21,"componentType":5126,"count":24,"max":[1,1,1],"min":[-1,-1,-1],"type":"VEC3"},{"bufferView":22,"componentType":5126,"count":24,"max":[0.5463749766349792,0.9369999766349792],"min":[0.0005000000237487257,0.000500023365020752],"type":"VEC2"},{"bufferView":23,"componentType":5123,"count":36,"max":[23],"min":[0],"type":"SCALAR"},{"bufferView":24,"componentType":5126,"count":24,"max":[0.47072234749794006,0.2681677043437958,0.3385356068611145],"min":[0.03322233259677887,0.20566768944263458,-0.036464400589466095],"type":"VEC3"},{"bufferView":25,"componentType":5126,"count":24,"max":[1,1,1],"min":[-1,-1,-1],"type":"VEC3"},{"bufferView":26,"componentType":5126,"count":24,"max":[0.5463749766349792,0.9369999766349792],"min":[0.0005000000237487257,0.000500023365020752],"type":"VEC2"},{"bufferView":27,"componentType":5123,"count":36,"max":[23],"min":[0],"type":"SCALAR"},{"bufferView":28,"componentType":5126,"count":24,"max":[0.1875,0.75,0.484375],"min":[-0.5625,0,-0.265625],"type":"VEC3"},{"bufferView":29,"componentType":5126,"count":24,"max":[1,1,1],"min":[-1,-1,-1],"type":"VEC3"},{"bufferView":30,"componentType":5126,"count":24,"max":[0.7651249766349792,0.593250036239624],"min":[0.016124999150633812,0.21925002336502075],"type":"VEC2"},{"bufferView":31,"componentType":5123,"count":36,"max":[23],"min":[0],"type":"SCALAR"},{"bufferView":32,"componentType":5126,"count":24,"max":[-0.125,0.9375,0.171875],"min":[-0.25,0.75,0.046875],"type":"VEC3"},{"bufferView":33,"componentType":5126,"count":24,"max":[1,1,1],"min":[-1,-1,-1],"type":"VEC3"},{"bufferView":34,"componentType":5126,"count":24,"max":[0.7182499766349792,0.35887497663497925],"min":[0.5942500233650208,0.28175002336502075],"type":"VEC2"},{"bufferView":35,"componentType":5123,"count":36,"max":[23],"min":[0],"type":"SCALAR"}],"materials":[{"pbrMetallicRoughness":{"metallicFactor":0,"roughnessFactor":1,"baseColorTexture":{"index":0}},"alphaMode":"MASK","alphaCutoff":0.05,"doubleSided":true}],"textures":[{"sampler":0,"source":0,"name":"flowering"}],"samplers":[{"magFilter":9728,"minFilter":9728,"wrapS":33071,"wrapT":33071}],"images":[{"mimeType":"image/png","uri":"data:image/png;base64,"}],"meshes":[{"primitives":[{"mode":4,"attributes":{"POSITION":0,"NORMAL":1,"TEXCOORD_0":2},"indices":3,"material":0}]},{"primitives":[{"mode":4,"attributes":{"POSITION":4,"NORMAL":5,"TEXCOORD_0":6},"indices":7,"material":0}]},{"primitives":[{"mode":4,"attributes":{"POSITION":8,"NORMAL":9,"TEXCOORD_0":10},"indices":11,"material":0}]},{"primitives":[{"mode":4,"attributes":{"POSITION":12,"NORMAL":13,"TEXCOORD_0":14},"indices":15,"material":0}]},{"primitives":[{"mode":4,"attributes":{"POSITION":16,"NORMAL":17,"TEXCOORD_0":18},"indices":19,"material":0}]},{"primitives":[{"mode":4,"attributes":{"POSITION":20,"NORMAL":21,"TEXCOORD_0":22},"indices":23,"material":0}]},{"primitives":[{"mode":4,"attributes":{"POSITION":24,"NORMAL":25,"TEXCOORD_0":26},"indices":27,"material":0}]},{"primitives":[{"mode":4,"attributes":{"POSITION":28,"NORMAL":29,"TEXCOORD_0":30},"indices":31,"material":0}]},{"primitives":[{"mode":4,"attributes":{"POSITION":32,"NORMAL":33,"TEXCOORD_0":34},"indices":35,"material":0}]}]}