{
  "asset": {
    "generator": "glTF-Transform v4.1.1",
    "version": "2.0"
  },
  "accessors": [
    {
      "type": "SCALAR",
      "componentType": 5123,
      "count": 36,
      "bufferView": 0,
      "byteOffset": 0
    },
    {
      "type": "SCALAR",
      "componentType": 5123,
      "count": 30,
      "bufferView": 0,
      "byteOffset": 72
    },
    {
      "type": "VEC3",
      "componentType": 5126,
      "count": 24,
      "max": [
        -0.0625,
        0,
        0.40625
      ],
      "min": [
        -0.5,
        -0.1875,
        -0.15625
      ],
      "bufferView": 1,
      "byteOffset": 0
    },
    {
      "type": "VEC3",
      "componentType": 5126,
      "count": 24,
      "bufferView": 1,
      "byteOffset": 12
    },
    {
      "type": "VEC2",
      "componentType": 5126,
      "count": 24,
      "bufferView": 1,
      "byteOffset": 24
    },
    {
      "type": "VEC3",
      "componentType": 5126,
      "count": 24,
      "max": [
        -0.12437500059604645,
        0.18812499940395355,
        0.5006250143051147
      ],
      "min": [
        -0.5006250143051147,
        -0.0006249999860301614,
        0.15562500059604645
      ],
      "bufferView": 2,
      "byteOffset": 0
    },
    {
      "type": "VEC2",
      "componentType": 5126,
      "count": 24,
      "bufferView": 2,
      "byteOffset": 12
    },
    {
      "type": "VEC3",
      "componentType": 5126,
      "count": 24,
      "max": [
        0.25,
        -0.1875,
        -0.0625
      ],
      "min": [
        -0.5,
        -0.375,
        -0.6875
      ],
      "bufferView": 3,
      "byteOffset": 0
    },
    {
      "type": "VEC2",
      "componentType": 5126,
      "count": 24,
      "bufferView": 3,
      "byteOffset": 12
    },
    {
      "type": "VEC3",
      "componentType": 5126,
      "count": 16,
      "max": [
        1.1875,
        -0.28125,
        -0.6875
      ],
      "min": [
        0.5,
        -0.28125,
        -0.875
      ],
      "bufferView": 4,
      "byteOffset": 0
    },
    {
      "type": "VEC3",
      "componentType": 5126,
      "count": 16,
      "bufferView": 4,
      "byteOffset": 12
    },
    {
      "type": "VEC2",
      "componentType": 5126,
      "count": 16,
      "bufferView": 4,
      "byteOffset": 24
    },
    {
      "type": "VEC3",
      "componentType": 5126,
      "count": 24,
      "max": [
        0.24375000596046448,
        -0.2831708490848541,
        0.1684698760509491
      ],
      "min": [
        -0.5062500238418579,
        -0.4706708490848541,
        -0.4565301239490509
      ],
      "bufferView": 5,
      "byteOffset": 0
    },
    {
      "type": "VEC2",
      "componentType": 5126,
      "count": 24,
      "bufferView": 5,
      "byteOffset": 12
    },
    {
      "type": "VEC3",
      "componentType": 5126,
      "count": 24,
      "max": [
        0.24375000596046448,
        -0.09567085653543472,
        0.6372199058532715
      ],
      "min": [
        -0.19374999403953552,
        -0.2831708490848541,
        0.0747198835015297
      ],
      "bufferView": 6,
      "byteOffset": 0
    },
    {
      "type": "VEC2",
      "componentType": 5126,
      "count": 24,
      "bufferView": 6,
      "byteOffset": 12
    },
    {
      "type": "VEC3",
      "componentType": 5126,
      "count": 24,
      "max": [
        0.24437500536441803,
        0.09245414286851883,
        0.7315948605537415
      ],
      "min": [
        -0.13187499344348907,
        -0.09629585593938828,
        0.38659489154815674
      ],
      "bufferView": 7,
      "byteOffset": 0
    },
    {
      "type": "VEC2",
      "componentType": 5126,
      "count": 24,
      "bufferView": 7,
      "byteOffset": 12
    },
    {
      "type": "VEC3",
      "componentType": 5126,
      "count": 16,
      "max": [
        1.1875,
        -0.375,
        -0.5
      ],
      "min": [
        0.5,
        -0.375,
        -0.6875
      ],
      "bufferView": 8,
      "byteOffset": 0
    },
    {
      "type": "VEC3",
      "componentType": 5126,
      "count": 24,
      "max": [
        -0.25,
        1,
        0.1875
      ],
      "min": [
        -0.4375,
        0,
        0
      ],
      "bufferView": 9,
      "byteOffset": 0
    },
    {
      "type": "VEC2",
      "componentType": 5126,
      "count": 24,
      "bufferView": 9,
      "byteOffset": 12
    },
    {
      "type": "VEC3",
      "componentType": 5126,
      "count": 24,
      "max": [
        0.375,
        0.125,
        0.1875
      ],
      "min": [
        -0.4375,
        0,
        0
      ],
      "bufferView": 10,
      "byteOffset": 0
    },
    {
      "type": "VEC2",
      "componentType": 5126,
      "count": 24,
      "bufferView": 10,
      "byteOffset": 12
    },
    {
      "type": "VEC3",
      "componentType": 5126,
      "count": 24,
      "max": [
        0.40625,
        0.0625,
        0.09375
      ],
      "min": [
        -0.40625,
        -0.0625,
        -0.09375
      ],
      "bufferView": 11,
      "byteOffset": 0
    },
    {
      "type": "VEC3",
      "componentType": 5126,
      "count": 24,
      "max": [
        0.15625,
        0.0625,
        0.21875
      ],
      "min": [
        -0.15625,
        -0.25,
        -0.34375
      ],
      "bufferView": 12,
      "byteOffset": 0
    },
    {
      "type": "VEC2",
      "componentType": 5126,
      "count": 24,
      "bufferView": 12,
      "byteOffset": 12
    },
    {
      "type": "VEC3",
      "componentType": 5126,
      "count": 24,
      "max": [
        0.15625,
        0,
        -0.15625
      ],
      "min": [
        -0.15625,
        -0.3125,
        -0.71875
      ],
      "bufferView": 13,
      "byteOffset": 0
    },
    {
      "type": "VEC3",
      "componentType": 5126,
      "count": 24,
      "max": [
        0.15625,
        -0.3125,
        -0.59375
      ],
      "min": [
        -0.15625,
        -0.625,
        -1.15625
      ],
      "bufferView": 14,
      "byteOffset": 0
    },
    {
      "type": "VEC3",
      "componentType": 5126,
      "count": 24,
      "max": [
        0.18906250596046448,
        0.12656250596046448,
        0.3765625059604645
      ],
      "min": [
        -0.6890624761581421,
        -0.0015625000232830644,
        -0.5015624761581421
      ],
      "bufferView": 15,
      "byteOffset": 0
    },
    {
      "type": "VEC2",
      "componentType": 5126,
      "count": 24,
      "bufferView": 15,
      "byteOffset": 12
    },
    {
      "type": "VEC3",
      "componentType": 5126,
      "count": 24,
      "max": [
        0.2640625238418579,
        0.15625,
        0.0625
      ],
      "min": [
        -0.2046874761581421,
        -0.15625,
        -0.0625
      ],
      "bufferView": 16,
      "byteOffset": 0
    },
    {
      "type": "VEC2",
      "componentType": 5126,
      "count": 24,
      "bufferView": 16,
      "byteOffset": 12
    },
    {
      "type": "VEC3",
      "componentType": 5126,
      "count": 24,
      "max": [
        0.0625,
        0.3125,
        0.03125
      ],
      "min": [
        -0.0625,
        0,
        -0.1875
      ],
      "bufferView": 17,
      "byteOffset": 0
    },
    {
      "type": "VEC2",
      "componentType": 5126,
      "count": 24,
      "bufferView": 17,
      "byteOffset": 12
    },
    {
      "type": "VEC3",
      "componentType": 5126,
      "count": 24,
      "max": [
        0.296875,
        0,
        0.0625
      ],
      "min": [
        -0.171875,
        -0.3125,
        -0.0625
      ],
      "bufferView": 18,
      "byteOffset": 0
    },
    {
      "type": "VEC3",
      "componentType": 5126,
      "count": 24,
      "max": [
        0.0625,
        0.3125,
        0.171875
      ],
      "min": [
        -0.0625,
        0,
        -0.046875
      ],
      "bufferView": 19,
      "byteOffset": 0
    }
  ],
  "bufferViews": [
    {
      "buffer": 0,
      "byteOffset": 0,
      "byteLength": 132,
      "target": 34963
    },
    {
      "buffer": 0,
      "byteOffset": 132,
      "byteLength": 768,
      "byteStride": 32,
      "target": 34962
    },
    {
      "buffer": 0,
      "byteOffset": 900,
      "byteLength": 480,
      "byteStride": 20,
      "target": 34962
    },
    {
      "buffer": 0,
      "byteOffset": 1380,
      "byteLength": 480,
      "byteStride": 20,
      "target": 34962
    },
    {
      "buffer": 0,
      "byteOffset": 1860,
      "byteLength": 512,
      "byteStride": 32,
      "target": 34962
    },
    {
      "buffer": 0,
      "byteOffset": 2372,
      "byteLength": 480,
      "byteStride": 20,
      "target": 34962
    },
    {
      "buffer": 0,
      "byteOffset": 2852,
      "byteLength": 480,
      "byteStride": 20,
      "target": 34962
    },
    {
      "buffer": 0,
      "byteOffset": 3332,
      "byteLength": 480,
      "byteStride": 20,
      "target": 34962
    },
    {
      "buffer": 0,
      "byteOffset": 3812,
      "byteLength": 192,
      "byteStride": 12,
      "target": 34962
    },
    {
      "buffer": 0,
      "byteOffset": 4004,
      "byteLength": 480,
      "byteStride": 20,
      "target": 34962
    },
    {
      "buffer": 0,
      "byteOffset": 4484,
      "byteLength": 480,
      "byteStride": 20,
      "target": 34962
    },
    {
      "buffer": 0,
      "byteOffset": 4964,
      "byteLength": 288,
      "byteStride": 12,
      "target": 34962
    },
    {
      "buffer": 0,
      "byteOffset": 5252,
      "byteLength": 480,
      "byteStride": 20,
      "target": 34962
    },
    {
      "buffer": 0,
      "byteOffset": 5732,
      "byteLength": 288,
      "byteStride": 12,
      "target": 34962
    },
    {
      "buffer": 0,
      "byteOffset": 6020,
      "byteLength": 288,
      "byteStride": 12,
      "target": 34962
    },
    {
      "buffer": 0,
      "byteOffset": 6308,
      "byteLength": 480,
      "byteStride": 20,
      "target": 34962
    },
    {
      "buffer": 0,
      "byteOffset": 6788,
      "byteLength": 480,
      "byteStride": 20,
      "target": 34962
    },
    {
      "buffer": 0,
      "byteOffset": 7268,
      "byteLength": 480,
      "byteStride": 20,
      "target": 34962
    },
    {
      "buffer": 0,
      "byteOffset": 7748,
      "byteLength": 288,
      "byteStride": 12,
      "target": 34962
    },
    {
      "buffer": 0,
      "byteOffset": 8036,
      "byteLength": 288,
      "byteStride": 12,
      "target": 34962
    }
  ],
  "samplers": [
    {
      "magFilter": 9728,
      "minFilter": 9728,
      "wrapS": 33071,
      "wrapT": 33071
    }
  ],
  "textures": [
    {
      "source": 0,
      "sampler": 0
    },
    {
      "source": 1,
      "sampler": 0
    },
    {
      "source": 2,
      "sampler": 0
    },
    {
      "source": 3,
      "sampler": 0
    },
    {
      "source": 4,
      "sampler": 0
    }
  ],
  "images": [
    {
      "mimeType": "image/png",
      "uri": "baseColor_1.png"
    },
    {
      "mimeType": "image/png",
      "uri": "baseColor_2.png"
    },
    {
      "mimeType": "image/png",
      "uri": "baseColor_3.png"
    },
    {
      "mimeType": "image/png",
      "uri": "baseColor_4.png"
    },
    {
      "mimeType": "image/png",
      "uri": "baseColor_5.png"
    }
  ],
  "buffers": [
    {
      "uri": "roof-outer-corner-down-thatch-named-nodes.bin",
      "byteLength": 8324
    }
  ],
  "materials": [
    {
      "alphaMode": "MASK",
      "alphaCutoff": 0.05,
      "doubleSided": true,
      "pbrMetallicRoughness": {
        "metallicFactor": 0,
        "baseColorTexture": {
          "index": 0
        }
      }
    },
    {
      "alphaMode": "MASK",
      "alphaCutoff": 0.05,
      "doubleSided": true,
      "pbrMetallicRoughness": {
        "metallicFactor": 0,
        "baseColorTexture": {
          "index": 1
        }
      }
    },
    {
      "alphaMode": "MASK",
      "alphaCutoff": 0.05,
      "doubleSided": true,
      "pbrMetallicRoughness": {
        "metallicFactor": 0,
        "baseColorTexture": {
          "index": 2
        }
      }
    },
    {
      "alphaMode": "MASK",
      "alphaCutoff": 0.05,
      "doubleSided": true,
      "pbrMetallicRoughness": {
        "metallicFactor": 0,
        "baseColorTexture": {
          "index": 3
        }
      }
    },
    {
      "alphaMode": "MASK",
      "alphaCutoff": 0.05,
      "doubleSided": true,
      "pbrMetallicRoughness": {
        "metallicFactor": 0,
        "baseColorTexture": {
          "index": 4
        }
      }
    }
  ],
  "meshes": [
    {
      "primitives": [
        {
          "attributes": {
            "POSITION": 2,
            "NORMAL": 3,
            "TEXCOORD_0": 4
          },
          "mode": 4,
          "material": 0,
          "indices": 0
        }
      ]
    },
    {
      "primitives": [
        {
          "attributes": {
            "POSITION": 5,
            "TEXCOORD_0": 6,
            "NORMAL": 3
          },
          "mode": 4,
          "material": 0,
          "indices": 0
        }
      ]
    },
    {
      "primitives": [
        {
          "attributes": {
            "POSITION": 7,
            "TEXCOORD_0": 8,
            "NORMAL": 3
          },
          "mode": 4,
          "material": 0,
          "indices": 0
        }
      ]
    },
    {
      "primitives": [
        {
          "attributes": {
            "POSITION": 9,
            "NORMAL": 10,
            "TEXCOORD_0": 11
          },
          "mode": 4,
          "material": 0,
          "indices": 1
        }
      ]
    },
    {
      "primitives": [
        {
          "attributes": {
            "POSITION": 12,
            "TEXCOORD_0": 13,
            "NORMAL": 3
          },
          "mode": 4,
          "material": 0,
          "indices": 0
        }
      ]
    },
    {
      "primitives": [
        {
          "attributes": {
            "POSITION": 14,
            "TEXCOORD_0": 15,
            "NORMAL": 3
          },
          "mode": 4,
          "material": 0,
          "indices": 0
        }
      ]
    },
    {
      "primitives": [
        {
          "attributes": {
            "POSITION": 16,
            "TEXCOORD_0": 17,
            "NORMAL": 3
          },
          "mode": 4,
          "material": 0,
          "indices": 0
        }
      ]
    },
    {
      "primitives": [
        {
          "attributes": {
            "POSITION": 18,
            "NORMAL": 10,
            "TEXCOORD_0": 11
          },
          "mode": 4,
          "material": 0,
          "indices": 1
        }
      ]
    },
    {
      "primitives": [
        {
          "attributes": {
            "POSITION": 19,
            "TEXCOORD_0": 20,
            "NORMAL": 3
          },
          "mode": 4,
          "material": 1,
          "indices": 0
        }
      ]
    },
    {
      "primitives": [
        {
          "attributes": {
            "POSITION": 21,
            "TEXCOORD_0": 22,
            "NORMAL": 3
          },
          "mode": 4,
          "material": 2,
          "indices": 0
        }
      ]
    },
    {
      "primitives": [
        {
          "attributes": {
            "POSITION": 23,
            "NORMAL": 3,
            "TEXCOORD_0": 22
          },
          "mode": 4,
          "material": 2,
          "indices": 0
        }
      ]
    },
    {
      "primitives": [
        {
          "attributes": {
            "POSITION": 24,
            "TEXCOORD_0": 25,
            "NORMAL": 3
          },
          "mode": 4,
          "material": 0,
          "indices": 0
        }
      ]
    },
    {
      "primitives": [
        {
          "attributes": {
            "POSITION": 26,
            "NORMAL": 3,
            "TEXCOORD_0": 25
          },
          "mode": 4,
          "material": 0,
          "indices": 0
        }
      ]
    },
    {
      "primitives": [
        {
          "attributes": {
            "POSITION": 27,
            "NORMAL": 3,
            "TEXCOORD_0": 25
          },
          "mode": 4,
          "material": 0,
          "indices": 0
        }
      ]
    },
    {
      "primitives": [
        {
          "attributes": {
            "POSITION": 28,
            "TEXCOORD_0": 29,
            "NORMAL": 3
          },
          "mode": 4,
          "material": 3,
          "indices": 0
        }
      ]
    },
    {
      "primitives": [
        {
          "attributes": {
            "POSITION": 30,
            "TEXCOORD_0": 31,
            "NORMAL": 3
          },
          "mode": 4,
          "material": 4,
          "indices": 0
        }
      ]
    },
    {
      "primitives": [
        {
          "attributes": {
            "POSITION": 32,
            "TEXCOORD_0": 33,
            "NORMAL": 3
          },
          "mode": 4,
          "material": 4,
          "indices": 0
        }
      ]
    },
    {
      "primitives": [
        {
          "attributes": {
            "POSITION": 34,
            "NORMAL": 3,
            "TEXCOORD_0": 31
          },
          "mode": 4,
          "material": 4,
          "indices": 0
        }
      ]
    },
    {
      "primitives": [
        {
          "attributes": {
            "POSITION": 35,
            "NORMAL": 3,
            "TEXCOORD_0": 33
          },
          "mode": 4,
          "material": 4,
          "indices": 0
        }
      ]
    },
    {
      "primitives": [
        {
          "attributes": {
            "POSITION": 30,
            "NORMAL": 3,
            "TEXCOORD_0": 31
          },
          "mode": 4,
          "material": 4,
          "indices": 0
        }
      ]
    },
    {
      "primitives": [
        {
          "attributes": {
            "POSITION": 32,
            "NORMAL": 3,
            "TEXCOORD_0": 33
          },
          "mode": 4,
          "material": 4,
          "indices": 0
        }
      ]
    }
  ],
  "nodes": [
    {
      "name": "cube",
      "translation": [
        0.0015625000000000005,
        0.5148615532157728,
        -0.20995370617293313
      ],
      "rotation": [
        -0.19509032201612825,
        0,
        0,
        0.9807852804032304
      ],
      "mesh": 0
    },
    {
      "name": "cube",
      "translation": [
        0.0028125286102294927,
        0.5626969822614091,
        -0.09446876460902229
      ],
      "rotation": [
        -0.19509032201612825,
        0,
        0,
        0.9807852804032304
      ],
      "mesh": 1
    },
    {
      "name": "cube",
      "translation": [
        0.0015625000000000005,
        0.550738125,
        -0.12334
      ],
      "rotation": [
        -0.19509032201612825,
        0,
        0,
        0.9807852804032304
      ],
      "mesh": 2
    },
    {
      "name": "cube",
      "translation": [
        -1,
        0.550738125,
        -0.12334
      ],
      "rotation": [
        -0.19509032201612825,
        0,
        0,
        0.9807852804032304
      ],
      "mesh": 3
    },
    {
      "name": "cube",
      "translation": [
        0.37749625,
        0.550738125,
        0.25415624999999986
      ],
      "rotation": [
        -0.13794968964147153,
        -0.6935199226610737,
        -0.13794968964147147,
        0.6935199226610738
      ],
      "mesh": 4
    },
    {
      "name": "cube",
      "translation": [
        0.4641099561729331,
        0.5148615532157728,
        0.25415624999999986
      ],
      "rotation": [
        -0.13794968964147153,
        -0.6935199226610737,
        -0.13794968964147147,
        0.6935199226610738
      ],
      "mesh": 5
    },
    {
      "name": "cube",
      "translation": [
        0.3486250146090223,
        0.5626969822614091,
        0.2529062213897704
      ],
      "rotation": [
        -0.13794968964147153,
        -0.6935199226610737,
        -0.13794968964147147,
        0.6935199226610738
      ],
      "mesh": 6
    },
    {
      "name": "cube",
      "translation": [
        0.33977562499999975,
        0.53995625,
        -0.6875000000000001
      ],
      "rotation": [
        -0.13794968964147153,
        -0.6935199226610737,
        -0.13794968964147147,
        0.6935199226610738
      ],
      "mesh": 7
    },
    {
      "name": "cube",
      "translation": [
        -0.0625,
        0,
        0.3125
      ],
      "mesh": 8
    },
    {
      "name": "cube",
      "translation": [
        0.125,
        0,
        0.3125
      ],
      "mesh": 9
    },
    {
      "name": "cube",
      "translation": [
        -0.40625,
        0.0625,
        -0.09375
      ],
      "rotation": [
        0,
        0.7071067811865475,
        0,
        0.7071067811865476
      ],
      "mesh": 10
    },
    {
      "name": "cube",
      "translation": [
        -0.21875,
        0.875,
        0.21875
      ],
      "rotation": [
        0,
        -0.3826834323650898,
        0,
        0.9238795325112867
      ],
      "mesh": 11
    },
    {
      "name": "cube",
      "translation": [
        -0.21875,
        0.625,
        0.21875
      ],
      "rotation": [
        0,
        -0.3826834323650898,
        0,
        0.9238795325112867
      ],
      "mesh": 12
    },
    {
      "name": "cube",
      "translation": [
        -0.21875,
        0.625,
        0.21875
      ],
      "rotation": [
        0,
        -0.3826834323650898,
        0,
        0.9238795325112867
      ],
      "mesh": 13
    },
    {
      "name": "cube",
      "translation": [
        0.3125,
        0,
        0
      ],
      "mesh": 14
    },
    {
      "name": "cube",
      "translation": [
        -0.31406247615814203,
        0.2828125059604645,
        0.11093750596046448
      ],
      "rotation": [
        0,
        0.7071067811865475,
        0,
        0.7071067811865476
      ],
      "mesh": 15
    },
    {
      "name": "cube",
      "translation": [
        -0.3140624761581421,
        0.4390625059604645,
        0.28437498211860657
      ],
      "mesh": 16
    },
    {
      "name": "cube",
      "translation": [
        -0.1421874761581421,
        0.4390625059604645,
        0.33124998211860657
      ],
      "mesh": 17
    },
    {
      "name": "cube",
      "translation": [
        -0.1421874761581421,
        0.4390625059604645,
        0.33124998211860657
      ],
      "rotation": [
        3.2958489565390013e-18,
        -0.707106773735967,
        3.295849025993826e-18,
        0.7071067886371281
      ],
      "mesh": 18
    },
    {
      "name": "cube",
      "translation": [
        -0.31406247615814203,
        0.2828125059604645,
        0.11093750596046448
      ],
      "rotation": [
        0,
        0.7071067811865475,
        0,
        0.7071067811865476
      ],
      "mesh": 19
    },
    {
      "name": "cube",
      "translation": [
        -0.3140624761581421,
        0.4390625059604645,
        0.28437498211860657
      ],
      "mesh": 20
    }
  ],
  "scenes": [
    {
      "name": "blockbench_export",
      "nodes": [
        0,
        1,
        2,
        3,
        4,
        5,
        6,
        7,
        8,
        9,
        10,
        11,
        12,
        13,
        14,
        15,
        16,
        17,
        18,
        19,
        20
      ]
    }
  ],
  "scene": 0
}