{
  "asset": {
    "generator": "glTF-Transform v4.2.1",
    "version": "2.0"
  },
  "accessors": [
    {
      "type": "SCALAR",
      "componentType": 5123,
      "count": 36,
      "bufferView": 0,
      "byteOffset": 0
    },
    {
      "type": "VEC3",
      "componentType": 5126,
      "count": 24,
      "max": [
        0.59375,
        0.4375,
        0.0000625000029685907
      ],
      "min": [
        -0.65625,
        -0.5,
        0
      ],
      "bufferView": 1,
      "byteOffset": 0
    },
    {
      "type": "VEC3",
      "componentType": 5126,
      "count": 24,
      "bufferView": 1,
      "byteOffset": 12
    },
    {
      "type": "VEC2",
      "componentType": 5126,
      "count": 24,
      "bufferView": 1,
      "byteOffset": 24
    },
    {
      "type": "VEC3",
      "componentType": 5126,
      "count": 24,
      "max": [
        0.625,
        0.375,
        0.0000625000029685907
      ],
      "min": [
        -0.625,
        -0.5625,
        0
      ],
      "bufferView": 2,
      "byteOffset": 0
    },
    {
      "type": "VEC2",
      "componentType": 5126,
      "count": 24,
      "bufferView": 2,
      "byteOffset": 12
    },
    {
      "type": "VEC3",
      "componentType": 5126,
      "count": 24,
      "max": [
        0.59375,
        0.9375,
        0.0000625000029685907
      ],
      "min": [
        -0.59375,
        0,
        0
      ],
      "bufferView": 3,
      "byteOffset": 0
    },
    {
      "type": "VEC2",
      "componentType": 5126,
      "count": 24,
      "bufferView": 3,
      "byteOffset": 12
    },
    {
      "type": "VEC3",
      "componentType": 5126,
      "count": 24,
      "max": [
        0.0625,
        0.125,
        0.0625
      ],
      "min": [
        -0.0625,
        0,
        -0.0625
      ],
      "bufferView": 4,
      "byteOffset": 0
    },
    {
      "type": "VEC2",
      "componentType": 5126,
      "count": 24,
      "bufferView": 4,
      "byteOffset": 12
    },
    {
      "type": "SCALAR",
      "componentType": 5126,
      "count": 38,
      "max": [
        6
      ],
      "min": [
        0
      ],
      "bufferView": 5,
      "byteOffset": 0
    },
    {
      "type": "VEC4",
      "componentType": 5126,
      "count": 38,
      "bufferView": 5,
      "byteOffset": 152
    },
    {
      "type": "VEC4",
      "componentType": 5126,
      "count": 38,
      "bufferView": 5,
      "byteOffset": 760
    }
  ],
  "bufferViews": [
    {
      "buffer": 0,
      "byteOffset": 0,
      "byteLength": 72,
      "target": 34963
    },
    {
      "buffer": 0,
      "byteOffset": 72,
      "byteLength": 768,
      "byteStride": 32,
      "target": 34962
    },
    {
      "buffer": 0,
      "byteOffset": 840,
      "byteLength": 480,
      "byteStride": 20,
      "target": 34962
    },
    {
      "buffer": 0,
      "byteOffset": 1320,
      "byteLength": 480,
      "byteStride": 20,
      "target": 34962
    },
    {
      "buffer": 0,
      "byteOffset": 1800,
      "byteLength": 480,
      "byteStride": 20,
      "target": 34962
    },
    {
      "buffer": 0,
      "byteOffset": 2280,
      "byteLength": 1368
    }
  ],
  "samplers": [
    {
      "magFilter": 9728,
      "minFilter": 9728,
      "wrapS": 33071,
      "wrapT": 33071
    }
  ],
  "textures": [
    {
      "source": 0,
      "sampler": 0
    }
  ],
  "images": [
    {
      "mimeType": "image/png",
      "uri": "baseColor.png"
    }
  ],
  "buffers": [
    {
      "uri": "bush-berry-named-nodes.bin",
      "byteLength": 3648
    }
  ],
  "materials": [
    {
      "alphaMode": "MASK",
      "alphaCutoff": 0.05,
      "doubleSided": true,
      "pbrMetallicRoughness": {
        "metallicFactor": 0,
        "baseColorTexture": {
          "index": 0
        }
      }
    }
  ],
  "meshes": [
    {
      "primitives": [
        {
          "attributes": {
            "POSITION": 1,
            "NORMAL": 2,
            "TEXCOORD_0": 3
          },
          "mode": 4,
          "material": 0,
          "indices": 0
        }
      ]
    },
    {
      "primitives": [
        {
          "attributes": {
            "POSITION": 4,
            "TEXCOORD_0": 5,
            "NORMAL": 2
          },
          "mode": 4,
          "material": 0,
          "indices": 0
        }
      ]
    },
    {
      "primitives": [
        {
          "attributes": {
            "POSITION": 6,
            "TEXCOORD_0": 7,
            "NORMAL": 2
          },
          "mode": 4,
          "material": 0,
          "indices": 0
        }
      ]
    },
    {
      "primitives": [
        {
          "attributes": {
            "POSITION": 8,
            "TEXCOORD_0": 9,
            "NORMAL": 2
          },
          "mode": 4,
          "material": 0,
          "indices": 0
        }
      ]
    },
    {
      "primitives": [
        {
          "attributes": {
            "POSITION": 8,
            "NORMAL": 2,
            "TEXCOORD_0": 9
          },
          "mode": 4,
          "material": 0,
          "indices": 0
        }
      ]
    },
    {
      "primitives": [
        {
          "attributes": {
            "POSITION": 6,
            "NORMAL": 2,
            "TEXCOORD_0": 7
          },
          "mode": 4,
          "material": 0,
          "indices": 0
        }
      ]
    }
  ],
  "nodes": [
    {
      "name": "berry-bush",
      "rotation": [
        0,
        -0.3826834323650898,
        0,
        0.9238795325112867
      ],
      "mesh": 0
    },
    {
      "name": "bone2",
      "translation": [
        0,
        0.5,
        0
      ],
      "children": [
        0
      ]
    },
    {
      "name": "berry-bush",
      "rotation": [
        0,
        0.3826834323650898,
        0,
        0.9238795325112867
      ],
      "mesh": 1
    },
    {
      "name": "bone",
      "translation": [
        0,
        0.5625,
        0
      ],
      "children": [
        2
      ]
    },
    {
      "name": "root",
      "children": [
        1,
        3
      ]
    },
    {
      "name": "berry-bush",
      "rotation": [
        -0.2798290140309921,
        0,
        0,
        0.9600498543859287
      ],
      "mesh": 2
    },
    {
      "name": "cube",
      "translation": [
        0,
        0.6875,
        -0.4375
      ],
      "rotation": [
        -0.15599812735659652,
        0.25707695757640237,
        -0.9156158196912274,
        0.2668776739925194
      ],
      "mesh": 3
    },
    {
      "name": "cube",
      "translation": [
        0.5,
        0.5,
        -0.4375
      ],
      "rotation": [
        0.10898722007286087,
        0.280260171476958,
        -0.3456633007071011,
        0.8888717031657426
      ],
      "mesh": 4
    },
    {
      "name": "bone3",
      "children": [
        5,
        6,
        7
      ]
    },
    {
      "name": "berry-bush",
      "rotation": [
        0.1830126991651176,
        -0.6830126917145368,
        0.18301270461932115,
        0.6830127120699017
      ],
      "mesh": 5
    },
    {
      "name": "cube",
      "translation": [
        -0.25,
        0.4375,
        0.5625
      ],
      "rotation": [
        0.45219128046182333,
        0.4353354694094763,
        0.7753221273996045,
        0.06986897532437986
      ],
      "mesh": 4
    },
    {
      "name": "cube",
      "translation": [
        -0.4375,
        0.5625,
        0
      ],
      "rotation": [
        0.00035054079230131124,
        -0.9569961488474895,
        -0.24307994061306404,
        0.15833632142934176
      ],
      "mesh": 4
    },
    {
      "name": "cube",
      "translation": [
        -0.24375000000000022,
        0.3625,
        -0.5187499999999999
      ],
      "rotation": [
        -0.4546454331307328,
        0.4327718280861649,
        -0.10362155174952978,
        0.7715365506321439
      ],
      "mesh": 4
    },
    {
      "name": "bone4",
      "children": [
        9,
        10,
        11,
        12
      ]
    },
    {
      "name": "berry-bush",
      "rotation": [
        -0.18301269828460265,
        -0.6830126884284109,
        -0.1830127054998358,
        0.6830127153560276
      ],
      "mesh": 5
    },
    {
      "name": "bone5",
      "children": [
        14
      ]
    },
    {
      "name": "berry-bush",
      "rotation": [
        0.2798290140309921,
        0,
        0,
        0.9600498543859287
      ],
      "mesh": 5
    },
    {
      "name": "cube",
      "translation": [
        0.625,
        0.375,
        0.26875000000000016
      ],
      "rotation": [
        0.00035054079230131124,
        -0.9569961488474895,
        -0.24307994061306404,
        0.15833632142934176
      ],
      "mesh": 4
    },
    {
      "name": "bone6",
      "children": [
        16,
        17
      ]
    },
    {
      "children": [
        4,
        8,
        13,
        15,
        18
      ]
    }
  ],
  "animations": [
    {
      "name": "idle",
      "samplers": [
        {
          "input": 10,
          "output": 11,
          "interpolation": "LINEAR"
        },
        {
          "input": 10,
          "output": 12,
          "interpolation": "LINEAR"
        },
        {
          "input": 10,
          "output": 11,
          "interpolation": "LINEAR"
        },
        {
          "input": 10,
          "output": 11,
          "interpolation": "LINEAR"
        },
        {
          "input": 10,
          "output": 11,
          "interpolation": "LINEAR"
        },
        {
          "input": 10,
          "output": 11,
          "interpolation": "LINEAR"
        }
      ],
      "channels": [
        {
          "sampler": 0,
          "target": {
            "node": 4,
            "path": "rotation"
          }
        },
        {
          "sampler": 1,
          "target": {
            "node": 1,
            "path": "rotation"
          }
        },
        {
          "sampler": 2,
          "target": {
            "node": 8,
            "path": "rotation"
          }
        },
        {
          "sampler": 3,
          "target": {
            "node": 13,
            "path": "rotation"
          }
        },
        {
          "sampler": 4,
          "target": {
            "node": 15,
            "path": "rotation"
          }
        },
        {
          "sampler": 5,
          "target": {
            "node": 18,
            "path": "rotation"
          }
        }
      ]
    }
  ],
  "scenes": [
    {
      "name": "blockbench_export",
      "nodes": [
        19
      ]
    }
  ],
  "scene": 0
}