{
  "asset": {
    "generator": "glTF-Transform v4.1.3",
    "version": "2.0"
  },
  "accessors": [
    {
      "type": "SCALAR",
      "componentType": 5126,
      "count": 12,
      "max": [
        0.8500000238418579
      ],
      "min": [
        0
      ],
      "bufferView": 0,
      "byteOffset": 0
    },
    {
      "type": "VEC3",
      "componentType": 5126,
      "count": 12,
      "bufferView": 0,
      "byteOffset": 48
    },
    {
      "type": "SCALAR",
      "componentType": 5126,
      "count": 3,
      "max": [
        0.550000011920929
      ],
      "min": [
        0.4000000059604645
      ],
      "bufferView": 0,
      "byteOffset": 192
    },
    {
      "type": "VEC3",
      "componentType": 5126,
      "count": 3,
      "bufferView": 0,
      "byteOffset": 204
    },
    {
      "type": "SCALAR",
      "componentType": 5126,
      "count": 3,
      "max": [
        0.44999998807907104
      ],
      "min": [
        0.30000001192092896
      ],
      "bufferView": 0,
      "byteOffset": 240
    },
    {
      "type": "SCALAR",
      "componentType": 5126,
      "count": 3,
      "max": [
        0.3499999940395355
      ],
      "min": [
        0.20000000298023224
      ],
      "bufferView": 0,
      "byteOffset": 252
    },
    {
      "type": "SCALAR",
      "componentType": 5126,
      "count": 3,
      "max": [
        0.800000011920929
      ],
      "min": [
        0.5
      ],
      "bufferView": 0,
      "byteOffset": 264
    },
    {
      "type": "SCALAR",
      "componentType": 5126,
      "count": 14,
      "max": [
        1.0833300352096558
      ],
      "min": [
        0
      ],
      "bufferView": 0,
      "byteOffset": 276
    },
    {
      "type": "VEC3",
      "componentType": 5126,
      "count": 14,
      "bufferView": 0,
      "byteOffset": 332
    },
    {
      "type": "SCALAR",
      "componentType": 5123,
      "count": 576,
      "bufferView": 1,
      "byteOffset": 0
    },
    {
      "type": "SCALAR",
      "componentType": 5123,
      "count": 36,
      "bufferView": 1,
      "byteOffset": 1152
    },
    {
      "type": "VEC3",
      "componentType": 5126,
      "count": 384,
      "max": [
        1.2568398714065552,
        0.0625,
        2.513756275177002
      ],
      "min": [
        -1.2567771673202515,
        -0.0625,
        -2.3309127072934643e-7
      ],
      "bufferView": 2,
      "byteOffset": 0
    },
    {
      "type": "VEC3",
      "componentType": 5126,
      "count": 384,
      "bufferView": 2,
      "byteOffset": 12
    },
    {
      "type": "VEC2",
      "componentType": 5126,
      "count": 384,
      "bufferView": 2,
      "byteOffset": 24
    },
    {
      "type": "VEC3",
      "componentType": 5126,
      "count": 24,
      "max": [
        1.5,
        0.0000625000029685907,
        1.5
      ],
      "min": [
        -1.5,
        0,
        -1.5
      ],
      "bufferView": 3,
      "byteOffset": 0
    },
    {
      "type": "VEC2",
      "componentType": 5126,
      "count": 24,
      "bufferView": 3,
      "byteOffset": 12
    },
    {
      "type": "VEC3",
      "componentType": 5126,
      "count": 24,
      "bufferView": 3,
      "byteOffset": 20
    },
    {
      "type": "VEC2",
      "componentType": 5126,
      "count": 24,
      "bufferView": 4,
      "byteOffset": 0
    },
    {
      "type": "VEC2",
      "componentType": 5126,
      "count": 24,
      "bufferView": 5,
      "byteOffset": 0
    },
    {
      "type": "VEC2",
      "componentType": 5126,
      "count": 24,
      "bufferView": 6,
      "byteOffset": 0
    },
    {
      "type": "VEC3",
      "componentType": 5126,
      "count": 24,
      "max": [
        0.0625,
        0.125,
        0.0625
      ],
      "min": [
        -0.0625,
        0,
        -0.0625
      ],
      "bufferView": 7,
      "byteOffset": 0
    }
  ],
  "bufferViews": [
    {
      "buffer": 0,
      "byteOffset": 0,
      "byteLength": 500
    },
    {
      "buffer": 0,
      "byteOffset": 500,
      "byteLength": 1224,
      "target": 34963
    },
    {
      "buffer": 0,
      "byteOffset": 1724,
      "byteLength": 12288,
      "byteStride": 32,
      "target": 34962
    },
    {
      "buffer": 0,
      "byteOffset": 14012,
      "byteLength": 768,
      "byteStride": 32,
      "target": 34962
    },
    {
      "buffer": 0,
      "byteOffset": 14780,
      "byteLength": 192,
      "byteStride": 8,
      "target": 34962
    },
    {
      "buffer": 0,
      "byteOffset": 14972,
      "byteLength": 192,
      "byteStride": 8,
      "target": 34962
    },
    {
      "buffer": 0,
      "byteOffset": 15164,
      "byteLength": 192,
      "byteStride": 8,
      "target": 34962
    },
    {
      "buffer": 0,
      "byteOffset": 15356,
      "byteLength": 288,
      "byteStride": 12,
      "target": 34962
    }
  ],
  "samplers": [
    {
      "magFilter": 9728,
      "minFilter": 9728,
      "wrapS": 33071,
      "wrapT": 33071
    }
  ],
  "textures": [
    {
      "source": 0,
      "sampler": 0
    }
  ],
  "images": [
    {
      "mimeType": "image/png",
      "uri": "baseColor.png"
    }
  ],
  "buffers": [
    {
      "uri": "ground-smash.bin",
      "byteLength": 15644
    }
  ],
  "materials": [
    {
      "alphaMode": "MASK",
      "alphaCutoff": 0.05,
      "doubleSided": true,
      "pbrMetallicRoughness": {
        "metallicFactor": 0,
        "baseColorTexture": {
          "index": 0
        }
      }
    },
    {
      "alphaMode": "MASK",
      "alphaCutoff": 0.05,
      "doubleSided": true,
      "pbrMetallicRoughness": {
        "metallicFactor": 0
      }
    }
  ],
  "meshes": [
    {
      "primitives": [
        {
          "attributes": {
            "POSITION": 11,
            "NORMAL": 12,
            "TEXCOORD_0": 13
          },
          "mode": 4,
          "material": 0,
          "indices": 9
        }
      ]
    },
    {
      "primitives": [
        {
          "attributes": {
            "POSITION": 14,
            "TEXCOORD_0": 15,
            "NORMAL": 16
          },
          "mode": 4,
          "material": 0,
          "indices": 10
        }
      ]
    },
    {
      "primitives": [
        {
          "attributes": {
            "TEXCOORD_0": 17,
            "POSITION": 14,
            "NORMAL": 16
          },
          "mode": 4,
          "material": 0,
          "indices": 10
        }
      ]
    },
    {
      "primitives": [
        {
          "attributes": {
            "TEXCOORD_0": 18,
            "POSITION": 14,
            "NORMAL": 16
          },
          "mode": 4,
          "material": 0,
          "indices": 10
        }
      ]
    },
    {
      "primitives": [
        {
          "attributes": {
            "TEXCOORD_0": 19,
            "POSITION": 14,
            "NORMAL": 16
          },
          "mode": 4,
          "material": 0,
          "indices": 10
        }
      ]
    },
    {
      "primitives": [
        {
          "attributes": {
            "POSITION": 20,
            "NORMAL": 16
          },
          "mode": 4,
          "material": 1,
          "indices": 10
        }
      ]
    }
  ],
  "nodes": [
    {
      "name": "cube",
      "translation": [
        -0.000001875,
        0,
        -1.256845625
      ],
      "mesh": 0
    },
    {
      "name": "wave",
      "translation": [
        0.000001875,
        2.3125,
        -0.00000125
      ],
      "children": [
        0
      ]
    },
    {
      "name": "cube",
      "mesh": 1
    },
    {
      "name": "f0",
      "translation": [
        0,
        2.25625,
        0
      ],
      "children": [
        2
      ]
    },
    {
      "name": "cube",
      "mesh": 2
    },
    {
      "name": "f1",
      "translation": [
        0,
        2.25625,
        0
      ],
      "children": [
        4
      ]
    },
    {
      "name": "cube",
      "mesh": 3
    },
    {
      "name": "f2",
      "translation": [
        0,
        2.25625,
        0
      ],
      "children": [
        6
      ]
    },
    {
      "name": "cube",
      "mesh": 4
    },
    {
      "name": "f3",
      "translation": [
        0,
        2.25625,
        0
      ],
      "children": [
        8
      ]
    },
    {
      "name": "root",
      "translation": [
        0,
        -2.25,
        0
      ],
      "children": [
        1,
        3,
        5,
        7,
        9
      ]
    },
    {
      "name": "cube",
      "mesh": 5
    },
    {
      "children": [
        10
      ]
    }
  ],
  "animations": [
    {
      "name": "spawn",
      "samplers": [
        {
          "input": 7,
          "output": 8,
          "interpolation": "LINEAR"
        },
        {
          "input": 0,
          "output": 1,
          "interpolation": "LINEAR"
        },
        {
          "input": 2,
          "output": 3,
          "interpolation": "STEP"
        },
        {
          "input": 4,
          "output": 3,
          "interpolation": "STEP"
        },
        {
          "input": 5,
          "output": 3,
          "interpolation": "STEP"
        },
        {
          "input": 6,
          "output": 3,
          "interpolation": "STEP"
        }
      ],
      "channels": [
        {
          "sampler": 0,
          "target": {
            "node": 10,
            "path": "translation"
          }
        },
        {
          "sampler": 1,
          "target": {
            "node": 1,
            "path": "scale"
          }
        },
        {
          "sampler": 2,
          "target": {
            "node": 5,
            "path": "scale"
          }
        },
        {
          "sampler": 3,
          "target": {
            "node": 7,
            "path": "scale"
          }
        },
        {
          "sampler": 4,
          "target": {
            "node": 9,
            "path": "scale"
          }
        },
        {
          "sampler": 5,
          "target": {
            "node": 3,
            "path": "scale"
          }
        }
      ]
    }
  ],
  "scenes": [
    {
      "name": "blockbench_export",
      "nodes": [
        12,
        11
      ]
    }
  ],
  "scene": 0
}