{
  "asset": {
    "generator": "glTF-Transform v4.1.3",
    "version": "2.0"
  },
  "accessors": [
    {
      "type": "SCALAR",
      "componentType": 5123,
      "count": 36,
      "bufferView": 0,
      "byteOffset": 0
    },
    {
      "type": "VEC3",
      "componentType": 5126,
      "count": 24,
      "max": [
        0.0625,
        2.3125,
        0.1875
      ],
      "min": [
        -0.0625,
        1.875,
        0.0625
      ],
      "bufferView": 1,
      "byteOffset": 0
    },
    {
      "type": "VEC3",
      "componentType": 5126,
      "count": 24,
      "bufferView": 1,
      "byteOffset": 12
    },
    {
      "type": "VEC2",
      "componentType": 5126,
      "count": 24,
      "bufferView": 1,
      "byteOffset": 24
    },
    {
      "type": "VEC3",
      "componentType": 5126,
      "count": 24,
      "max": [
        0.125,
        1.875,
        0.25
      ],
      "min": [
        -0.125,
        0,
        0
      ],
      "bufferView": 2,
      "byteOffset": 0
    },
    {
      "type": "VEC2",
      "componentType": 5126,
      "count": 24,
      "bufferView": 2,
      "byteOffset": 12
    },
    {
      "type": "VEC3",
      "componentType": 5126,
      "count": 24,
      "max": [
        0.0625,
        2.3125,
        -0.0625
      ],
      "min": [
        -0.0625,
        1.875,
        -0.1875
      ],
      "bufferView": 3,
      "byteOffset": 0
    },
    {
      "type": "VEC2",
      "componentType": 5126,
      "count": 24,
      "bufferView": 3,
      "byteOffset": 12
    },
    {
      "type": "VEC3",
      "componentType": 5126,
      "count": 24,
      "max": [
        0.125,
        1.875,
        0
      ],
      "min": [
        -0.125,
        0,
        -0.25
      ],
      "bufferView": 4,
      "byteOffset": 0
    },
    {
      "type": "VEC2",
      "componentType": 5126,
      "count": 24,
      "bufferView": 4,
      "byteOffset": 12
    },
    {
      "type": "VEC3",
      "componentType": 5126,
      "count": 24,
      "max": [
        0.140625,
        0.328125,
        0.015625
      ],
      "min": [
        -0.140625,
        0.109375,
        -0.265625
      ],
      "bufferView": 5,
      "byteOffset": 0
    },
    {
      "type": "VEC2",
      "componentType": 5126,
      "count": 24,
      "bufferView": 5,
      "byteOffset": 12
    },
    {
      "type": "VEC3",
      "componentType": 5126,
      "count": 24,
      "max": [
        0.140625,
        1.765625,
        0.015625
      ],
      "min": [
        -0.140625,
        1.546875,
        -0.265625
      ],
      "bufferView": 6,
      "byteOffset": 0
    },
    {
      "type": "VEC2",
      "componentType": 5126,
      "count": 24,
      "bufferView": 6,
      "byteOffset": 12
    },
    {
      "type": "VEC3",
      "componentType": 5126,
      "count": 24,
      "max": [
        0.140625,
        1.765625,
        0.265625
      ],
      "min": [
        -0.140625,
        1.546875,
        -0.015625
      ],
      "bufferView": 7,
      "byteOffset": 0
    },
    {
      "type": "VEC2",
      "componentType": 5126,
      "count": 24,
      "bufferView": 7,
      "byteOffset": 12
    },
    {
      "type": "VEC3",
      "componentType": 5126,
      "count": 24,
      "max": [
        0.140625,
        0.328125,
        0.265625
      ],
      "min": [
        -0.140625,
        0.109375,
        -0.015625
      ],
      "bufferView": 8,
      "byteOffset": 0
    },
    {
      "type": "VEC2",
      "componentType": 5126,
      "count": 24,
      "bufferView": 8,
      "byteOffset": 12
    },
    {
      "type": "VEC2",
      "componentType": 5126,
      "count": 24,
      "bufferView": 9,
      "byteOffset": 0
    },
    {
      "type": "VEC2",
      "componentType": 5126,
      "count": 24,
      "bufferView": 10,
      "byteOffset": 0
    },
    {
      "type": "VEC2",
      "componentType": 5126,
      "count": 24,
      "bufferView": 11,
      "byteOffset": 0
    },
    {
      "type": "VEC2",
      "componentType": 5126,
      "count": 24,
      "bufferView": 12,
      "byteOffset": 0
    },
    {
      "type": "VEC2",
      "componentType": 5126,
      "count": 24,
      "bufferView": 13,
      "byteOffset": 0
    },
    {
      "type": "VEC2",
      "componentType": 5126,
      "count": 24,
      "bufferView": 14,
      "byteOffset": 0
    },
    {
      "type": "VEC2",
      "componentType": 5126,
      "count": 24,
      "bufferView": 15,
      "byteOffset": 0
    },
    {
      "type": "VEC2",
      "componentType": 5126,
      "count": 24,
      "bufferView": 16,
      "byteOffset": 0
    },
    {
      "type": "VEC3",
      "componentType": 5126,
      "count": 24,
      "max": [
        1,
        0.125,
        0.125
      ],
      "min": [
        -1,
        -0.125,
        -0.125
      ],
      "bufferView": 17,
      "byteOffset": 0
    },
    {
      "type": "VEC2",
      "componentType": 5126,
      "count": 24,
      "bufferView": 17,
      "byteOffset": 12
    }
  ],
  "bufferViews": [
    {
      "buffer": 0,
      "byteOffset": 0,
      "byteLength": 72,
      "target": 34963
    },
    {
      "buffer": 0,
      "byteOffset": 72,
      "byteLength": 768,
      "byteStride": 32,
      "target": 34962
    },
    {
      "buffer": 0,
      "byteOffset": 840,
      "byteLength": 480,
      "byteStride": 20,
      "target": 34962
    },
    {
      "buffer": 0,
      "byteOffset": 1320,
      "byteLength": 480,
      "byteStride": 20,
      "target": 34962
    },
    {
      "buffer": 0,
      "byteOffset": 1800,
      "byteLength": 480,
      "byteStride": 20,
      "target": 34962
    },
    {
      "buffer": 0,
      "byteOffset": 2280,
      "byteLength": 480,
      "byteStride": 20,
      "target": 34962
    },
    {
      "buffer": 0,
      "byteOffset": 2760,
      "byteLength": 480,
      "byteStride": 20,
      "target": 34962
    },
    {
      "buffer": 0,
      "byteOffset": 3240,
      "byteLength": 480,
      "byteStride": 20,
      "target": 34962
    },
    {
      "buffer": 0,
      "byteOffset": 3720,
      "byteLength": 480,
      "byteStride": 20,
      "target": 34962
    },
    {
      "buffer": 0,
      "byteOffset": 4200,
      "byteLength": 192,
      "byteStride": 8,
      "target": 34962
    },
    {
      "buffer": 0,
      "byteOffset": 4392,
      "byteLength": 192,
      "byteStride": 8,
      "target": 34962
    },
    {
      "buffer": 0,
      "byteOffset": 4584,
      "byteLength": 192,
      "byteStride": 8,
      "target": 34962
    },
    {
      "buffer": 0,
      "byteOffset": 4776,
      "byteLength": 192,
      "byteStride": 8,
      "target": 34962
    },
    {
      "buffer": 0,
      "byteOffset": 4968,
      "byteLength": 192,
      "byteStride": 8,
      "target": 34962
    },
    {
      "buffer": 0,
      "byteOffset": 5160,
      "byteLength": 192,
      "byteStride": 8,
      "target": 34962
    },
    {
      "buffer": 0,
      "byteOffset": 5352,
      "byteLength": 192,
      "byteStride": 8,
      "target": 34962
    },
    {
      "buffer": 0,
      "byteOffset": 5544,
      "byteLength": 192,
      "byteStride": 8,
      "target": 34962
    },
    {
      "buffer": 0,
      "byteOffset": 5736,
      "byteLength": 480,
      "byteStride": 20,
      "target": 34962
    }
  ],
  "samplers": [
    {
      "magFilter": 9728,
      "minFilter": 9728,
      "wrapS": 33071,
      "wrapT": 33071
    }
  ],
  "textures": [
    {
      "source": 0,
      "sampler": 0
    }
  ],
  "images": [
    {
      "mimeType": "image/png",
      "uri": "baseColor.png"
    }
  ],
  "buffers": [
    {
      "uri": "wood-barricade-2-named-nodes.bin",
      "byteLength": 6216
    }
  ],
  "materials": [
    {
      "alphaMode": "MASK",
      "alphaCutoff": 0.05,
      "pbrMetallicRoughness": {
        "metallicFactor": 0,
        "baseColorTexture": {
          "index": 0
        }
      }
    }
  ],
  "meshes": [
    {
      "primitives": [
        {
          "attributes": {
            "POSITION": 1,
            "NORMAL": 2,
            "TEXCOORD_0": 3
          },
          "mode": 4,
          "material": 0,
          "indices": 0
        }
      ]
    },
    {
      "primitives": [
        {
          "attributes": {
            "POSITION": 4,
            "TEXCOORD_0": 5,
            "NORMAL": 2
          },
          "mode": 4,
          "material": 0,
          "indices": 0
        }
      ]
    },
    {
      "primitives": [
        {
          "attributes": {
            "POSITION": 6,
            "TEXCOORD_0": 7,
            "NORMAL": 2
          },
          "mode": 4,
          "material": 0,
          "indices": 0
        }
      ]
    },
    {
      "primitives": [
        {
          "attributes": {
            "POSITION": 8,
            "TEXCOORD_0": 9,
            "NORMAL": 2
          },
          "mode": 4,
          "material": 0,
          "indices": 0
        }
      ]
    },
    {
      "primitives": [
        {
          "attributes": {
            "POSITION": 10,
            "TEXCOORD_0": 11,
            "NORMAL": 2
          },
          "mode": 4,
          "material": 0,
          "indices": 0
        }
      ]
    },
    {
      "primitives": [
        {
          "attributes": {
            "POSITION": 12,
            "TEXCOORD_0": 13,
            "NORMAL": 2
          },
          "mode": 4,
          "material": 0,
          "indices": 0
        }
      ]
    },
    {
      "primitives": [
        {
          "attributes": {
            "POSITION": 14,
            "TEXCOORD_0": 15,
            "NORMAL": 2
          },
          "mode": 4,
          "material": 0,
          "indices": 0
        }
      ]
    },
    {
      "primitives": [
        {
          "attributes": {
            "POSITION": 16,
            "TEXCOORD_0": 17,
            "NORMAL": 2
          },
          "mode": 4,
          "material": 0,
          "indices": 0
        }
      ]
    },
    {
      "primitives": [
        {
          "attributes": {
            "TEXCOORD_0": 18,
            "POSITION": 1,
            "NORMAL": 2
          },
          "mode": 4,
          "material": 0,
          "indices": 0
        }
      ]
    },
    {
      "primitives": [
        {
          "attributes": {
            "TEXCOORD_0": 19,
            "POSITION": 4,
            "NORMAL": 2
          },
          "mode": 4,
          "material": 0,
          "indices": 0
        }
      ]
    },
    {
      "primitives": [
        {
          "attributes": {
            "TEXCOORD_0": 20,
            "POSITION": 6,
            "NORMAL": 2
          },
          "mode": 4,
          "material": 0,
          "indices": 0
        }
      ]
    },
    {
      "primitives": [
        {
          "attributes": {
            "TEXCOORD_0": 21,
            "POSITION": 8,
            "NORMAL": 2
          },
          "mode": 4,
          "material": 0,
          "indices": 0
        }
      ]
    },
    {
      "primitives": [
        {
          "attributes": {
            "TEXCOORD_0": 22,
            "POSITION": 10,
            "NORMAL": 2
          },
          "mode": 4,
          "material": 0,
          "indices": 0
        }
      ]
    },
    {
      "primitives": [
        {
          "attributes": {
            "TEXCOORD_0": 23,
            "POSITION": 12,
            "NORMAL": 2
          },
          "mode": 4,
          "material": 0,
          "indices": 0
        }
      ]
    },
    {
      "primitives": [
        {
          "attributes": {
            "TEXCOORD_0": 24,
            "POSITION": 14,
            "NORMAL": 2
          },
          "mode": 4,
          "material": 0,
          "indices": 0
        }
      ]
    },
    {
      "primitives": [
        {
          "attributes": {
            "TEXCOORD_0": 25,
            "POSITION": 16,
            "NORMAL": 2
          },
          "mode": 4,
          "material": 0,
          "indices": 0
        }
      ]
    },
    {
      "primitives": [
        {
          "attributes": {
            "POSITION": 1,
            "NORMAL": 2,
            "TEXCOORD_0": 18
          },
          "mode": 4,
          "material": 0,
          "indices": 0
        }
      ]
    },
    {
      "primitives": [
        {
          "attributes": {
            "POSITION": 4,
            "NORMAL": 2,
            "TEXCOORD_0": 19
          },
          "mode": 4,
          "material": 0,
          "indices": 0
        }
      ]
    },
    {
      "primitives": [
        {
          "attributes": {
            "POSITION": 6,
            "NORMAL": 2,
            "TEXCOORD_0": 20
          },
          "mode": 4,
          "material": 0,
          "indices": 0
        }
      ]
    },
    {
      "primitives": [
        {
          "attributes": {
            "POSITION": 8,
            "NORMAL": 2,
            "TEXCOORD_0": 21
          },
          "mode": 4,
          "material": 0,
          "indices": 0
        }
      ]
    },
    {
      "primitives": [
        {
          "attributes": {
            "POSITION": 10,
            "NORMAL": 2,
            "TEXCOORD_0": 22
          },
          "mode": 4,
          "material": 0,
          "indices": 0
        }
      ]
    },
    {
      "primitives": [
        {
          "attributes": {
            "POSITION": 12,
            "NORMAL": 2,
            "TEXCOORD_0": 23
          },
          "mode": 4,
          "material": 0,
          "indices": 0
        }
      ]
    },
    {
      "primitives": [
        {
          "attributes": {
            "POSITION": 14,
            "NORMAL": 2,
            "TEXCOORD_0": 24
          },
          "mode": 4,
          "material": 0,
          "indices": 0
        }
      ]
    },
    {
      "primitives": [
        {
          "attributes": {
            "POSITION": 16,
            "NORMAL": 2,
            "TEXCOORD_0": 25
          },
          "mode": 4,
          "material": 0,
          "indices": 0
        }
      ]
    },
    {
      "primitives": [
        {
          "attributes": {
            "POSITION": 26,
            "TEXCOORD_0": 27,
            "NORMAL": 2
          },
          "mode": 4,
          "material": 0,
          "indices": 0
        }
      ]
    }
  ],
  "nodes": [
    {
      "name": "cube",
      "translation": [
        0.5,
        -1,
        1.75
      ],
      "rotation": [
        -0.3826834323650898,
        0,
        0,
        0.9238795325112867
      ],
      "mesh": 0
    },
    {
      "name": "cube",
      "translation": [
        0.5,
        -1,
        1.75
      ],
      "rotation": [
        -0.3826834323650898,
        0,
        0,
        0.9238795325112867
      ],
      "mesh": 1
    },
    {
      "name": "cube",
      "translation": [
        0.75,
        -1,
        0.375
      ],
      "rotation": [
        0.3826834323650898,
        0,
        0,
        0.9238795325112867
      ],
      "mesh": 2
    },
    {
      "name": "cube",
      "translation": [
        0.75,
        -1,
        0.375
      ],
      "rotation": [
        0.3826834323650898,
        0,
        0,
        0.9238795325112867
      ],
      "mesh": 3
    },
    {
      "name": "cube",
      "translation": [
        0.75,
        -1,
        0.375
      ],
      "rotation": [
        0.3826834323650898,
        0,
        0,
        0.9238795325112867
      ],
      "mesh": 4
    },
    {
      "name": "cube",
      "translation": [
        0.75,
        -1,
        0.375
      ],
      "rotation": [
        0.3826834323650898,
        0,
        0,
        0.9238795325112867
      ],
      "mesh": 5
    },
    {
      "name": "cube",
      "translation": [
        0.5,
        -0.9875,
        1.73125
      ],
      "rotation": [
        -0.3826834323650898,
        0,
        0,
        0.9238795325112867
      ],
      "mesh": 6
    },
    {
      "name": "cube",
      "translation": [
        0.5,
        -0.9875,
        1.73125
      ],
      "rotation": [
        -0.3826834323650898,
        0,
        0,
        0.9238795325112867
      ],
      "mesh": 7
    },
    {
      "name": "cube",
      "translation": [
        -0.4375,
        -1,
        1.75
      ],
      "rotation": [
        -0.3826834323650898,
        0,
        0,
        0.9238795325112867
      ],
      "mesh": 8
    },
    {
      "name": "cube",
      "translation": [
        -0.4375,
        -1,
        1.75
      ],
      "rotation": [
        -0.3826834323650898,
        0,
        0,
        0.9238795325112867
      ],
      "mesh": 9
    },
    {
      "name": "cube",
      "translation": [
        -0.6875,
        -1,
        0.375
      ],
      "rotation": [
        0.3826834323650898,
        0,
        0,
        0.9238795325112867
      ],
      "mesh": 10
    },
    {
      "name": "cube",
      "translation": [
        -0.6875,
        -1,
        0.375
      ],
      "rotation": [
        0.3826834323650898,
        0,
        0,
        0.9238795325112867
      ],
      "mesh": 11
    },
    {
      "name": "cube",
      "translation": [
        -0.6875,
        -1,
        0.375
      ],
      "rotation": [
        0.3826834323650898,
        0,
        0,
        0.9238795325112867
      ],
      "mesh": 12
    },
    {
      "name": "cube",
      "translation": [
        -0.6875,
        -1,
        0.375
      ],
      "rotation": [
        0.3826834323650898,
        0,
        0,
        0.9238795325112867
      ],
      "mesh": 13
    },
    {
      "name": "cube",
      "translation": [
        -0.4375,
        -0.9875,
        1.73125
      ],
      "rotation": [
        -0.3826834323650898,
        0,
        0,
        0.9238795325112867
      ],
      "mesh": 14
    },
    {
      "name": "cube",
      "translation": [
        -0.4375,
        -0.9875,
        1.73125
      ],
      "rotation": [
        -0.3826834323650898,
        0,
        0,
        0.9238795325112867
      ],
      "mesh": 15
    },
    {
      "name": "cube",
      "translation": [
        0.125,
        -1,
        1.75
      ],
      "rotation": [
        -0.3826834323650898,
        0,
        0,
        0.9238795325112867
      ],
      "mesh": 16
    },
    {
      "name": "cube",
      "translation": [
        0.125,
        -1,
        1.75
      ],
      "rotation": [
        -0.3826834323650898,
        0,
        0,
        0.9238795325112867
      ],
      "mesh": 17
    },
    {
      "name": "cube",
      "translation": [
        -0.125,
        -1,
        0.375
      ],
      "rotation": [
        0.3826834323650898,
        0,
        0,
        0.9238795325112867
      ],
      "mesh": 18
    },
    {
      "name": "cube",
      "translation": [
        -0.125,
        -1,
        0.375
      ],
      "rotation": [
        0.3826834323650898,
        0,
        0,
        0.9238795325112867
      ],
      "mesh": 19
    },
    {
      "name": "cube",
      "translation": [
        -0.125,
        -1,
        0.375
      ],
      "rotation": [
        0.3826834323650898,
        0,
        0,
        0.9238795325112867
      ],
      "mesh": 20
    },
    {
      "name": "cube",
      "translation": [
        -0.125,
        -1,
        0.375
      ],
      "rotation": [
        0.3826834323650898,
        0,
        0,
        0.9238795325112867
      ],
      "mesh": 21
    },
    {
      "name": "cube",
      "translation": [
        0.125,
        -0.9875,
        1.73125
      ],
      "rotation": [
        -0.3826834323650898,
        0,
        0,
        0.9238795325112867
      ],
      "mesh": 22
    },
    {
      "name": "cube",
      "translation": [
        0.125,
        -0.9875,
        1.73125
      ],
      "rotation": [
        -0.3826834323650898,
        0,
        0,
        0.9238795325112867
      ],
      "mesh": 23
    },
    {
      "name": "cube",
      "translation": [
        0,
        0.21875,
        1.0625
      ],
      "rotation": [
        0.3826834323650898,
        0,
        0,
        0.9238795325112867
      ],
      "mesh": 24
    }
  ],
  "scenes": [
    {
      "name": "blockbench_export",
      "nodes": [
        0,
        1,
        2,
        3,
        4,
        5,
        6,
        7,
        8,
        9,
        10,
        11,
        12,
        13,
        14,
        15,
        16,
        17,
        18,
        19,
        20,
        21,
        22,
        23,
        24
      ]
    }
  ],
  "scene": 0
}