{
  "asset": {
    "generator": "glTF-Transform v4.1.3",
    "version": "2.0"
  },
  "accessors": [
    {
      "type": "SCALAR",
      "componentType": 5126,
      "count": 2,
      "max": [
        4
      ],
      "min": [
        0
      ],
      "bufferView": 0,
      "byteOffset": 0
    },
    {
      "type": "VEC3",
      "componentType": 5126,
      "count": 2,
      "bufferView": 0,
      "byteOffset": 8
    },
    {
      "type": "SCALAR",
      "componentType": 5126,
      "count": 33,
      "max": [
        3.9000000953674316
      ],
      "min": [
        0
      ],
      "bufferView": 0,
      "byteOffset": 32
    },
    {
      "type": "VEC3",
      "componentType": 5126,
      "count": 33,
      "bufferView": 0,
      "byteOffset": 164
    },
    {
      "type": "SCALAR",
      "componentType": 5126,
      "count": 15,
      "max": [
        4
      ],
      "min": [
        0
      ],
      "bufferView": 0,
      "byteOffset": 560
    },
    {
      "type": "VEC4",
      "componentType": 5126,
      "count": 15,
      "bufferView": 0,
      "byteOffset": 620
    },
    {
      "type": "SCALAR",
      "componentType": 5126,
      "count": 30,
      "max": [
        3.8499999046325684
      ],
      "min": [
        0
      ],
      "bufferView": 0,
      "byteOffset": 860
    },
    {
      "type": "VEC3",
      "componentType": 5126,
      "count": 30,
      "bufferView": 0,
      "byteOffset": 980
    },
    {
      "type": "SCALAR",
      "componentType": 5126,
      "count": 46,
      "max": [
        3.75
      ],
      "min": [
        0
      ],
      "bufferView": 0,
      "byteOffset": 1340
    },
    {
      "type": "VEC4",
      "componentType": 5126,
      "count": 46,
      "bufferView": 0,
      "byteOffset": 1524
    },
    {
      "type": "SCALAR",
      "componentType": 5126,
      "count": 1,
      "max": [
        1.75
      ],
      "min": [
        1.75
      ],
      "bufferView": 0,
      "byteOffset": 2260
    },
    {
      "type": "VEC4",
      "componentType": 5126,
      "count": 1,
      "bufferView": 0,
      "byteOffset": 2264
    },
    {
      "type": "SCALAR",
      "componentType": 5126,
      "count": 43,
      "max": [
        3.9000000953674316
      ],
      "min": [
        0
      ],
      "bufferView": 0,
      "byteOffset": 2280
    },
    {
      "type": "VEC3",
      "componentType": 5126,
      "count": 43,
      "bufferView": 0,
      "byteOffset": 2452
    },
    {
      "type": "SCALAR",
      "componentType": 5126,
      "count": 40,
      "max": [
        3.75
      ],
      "min": [
        0
      ],
      "bufferView": 0,
      "byteOffset": 2968
    },
    {
      "type": "VEC3",
      "componentType": 5126,
      "count": 40,
      "bufferView": 0,
      "byteOffset": 3128
    },
    {
      "type": "SCALAR",
      "componentType": 5126,
      "count": 60,
      "max": [
        3.75
      ],
      "min": [
        0
      ],
      "bufferView": 0,
      "byteOffset": 3608
    },
    {
      "type": "VEC3",
      "componentType": 5126,
      "count": 60,
      "bufferView": 0,
      "byteOffset": 3848
    },
    {
      "type": "SCALAR",
      "componentType": 5123,
      "count": 792,
      "bufferView": 1,
      "byteOffset": 0
    },
    {
      "type": "SCALAR",
      "componentType": 5123,
      "count": 36,
      "bufferView": 1,
      "byteOffset": 1584
    },
    {
      "type": "SCALAR",
      "componentType": 5123,
      "count": 72,
      "bufferView": 1,
      "byteOffset": 1656
    },
    {
      "type": "VEC3",
      "componentType": 5126,
      "count": 528,
      "max": [
        2.4987754821777344,
        1.1578750610351562,
        2.15625
      ],
      "min": [
        -2.4987754821777344,
        -3.5263943672180176,
        -1.7779991626739502
      ],
      "bufferView": 2,
      "byteOffset": 0
    },
    {
      "type": "VEC3",
      "componentType": 5126,
      "count": 528,
      "bufferView": 2,
      "byteOffset": 12
    },
    {
      "type": "VEC2",
      "componentType": 5126,
      "count": 528,
      "bufferView": 2,
      "byteOffset": 24
    },
    {
      "type": "VEC3",
      "componentType": 5126,
      "count": 24,
      "max": [
        0.5,
        2.5,
        -0.5
      ],
      "min": [
        -0.5,
        1.5,
        -1.5
      ],
      "bufferView": 3,
      "byteOffset": 0
    },
    {
      "type": "VEC2",
      "componentType": 5126,
      "count": 24,
      "bufferView": 3,
      "byteOffset": 12
    },
    {
      "type": "VEC3",
      "componentType": 5126,
      "count": 24,
      "bufferView": 3,
      "byteOffset": 20
    },
    {
      "type": "VEC3",
      "componentType": 5126,
      "count": 24,
      "max": [
        1,
        2,
        1
      ],
      "min": [
        -1,
        0,
        -1
      ],
      "bufferView": 4,
      "byteOffset": 0
    },
    {
      "type": "VEC2",
      "componentType": 5126,
      "count": 24,
      "bufferView": 4,
      "byteOffset": 12
    },
    {
      "type": "VEC3",
      "componentType": 5126,
      "count": 48,
      "max": [
        1.0625,
        2.0625,
        4.125
      ],
      "min": [
        -1.0625,
        -0.0625,
        -0.5
      ],
      "bufferView": 5,
      "byteOffset": 0
    },
    {
      "type": "VEC2",
      "componentType": 5126,
      "count": 48,
      "bufferView": 5,
      "byteOffset": 12
    },
    {
      "type": "VEC3",
      "componentType": 5126,
      "count": 48,
      "bufferView": 5,
      "byteOffset": 20
    },
    {
      "type": "VEC3",
      "componentType": 5126,
      "count": 24,
      "max": [
        1.375,
        2.375,
        0.5
      ],
      "min": [
        0.625,
        1.625,
        -1.25
      ],
      "bufferView": 6,
      "byteOffset": 0
    },
    {
      "type": "VEC2",
      "componentType": 5126,
      "count": 24,
      "bufferView": 6,
      "byteOffset": 12
    },
    {
      "type": "VEC3",
      "componentType": 5126,
      "count": 24,
      "max": [
        -0.625,
        2.375,
        0.5
      ],
      "min": [
        -1.375,
        1.625,
        -1.25
      ],
      "bufferView": 7,
      "byteOffset": 0
    },
    {
      "type": "VEC2",
      "componentType": 5126,
      "count": 24,
      "bufferView": 7,
      "byteOffset": 12
    },
    {
      "type": "VEC3",
      "componentType": 5126,
      "count": 24,
      "max": [
        -0.625,
        -1.25,
        0.5
      ],
      "min": [
        -1.375,
        -2,
        -1.25
      ],
      "bufferView": 8,
      "byteOffset": 0
    },
    {
      "type": "VEC2",
      "componentType": 5126,
      "count": 24,
      "bufferView": 8,
      "byteOffset": 12
    },
    {
      "type": "VEC3",
      "componentType": 5126,
      "count": 24,
      "max": [
        1.375,
        -1.25,
        0.5
      ],
      "min": [
        0.625,
        -2,
        -1.25
      ],
      "bufferView": 9,
      "byteOffset": 0
    },
    {
      "type": "VEC2",
      "componentType": 5126,
      "count": 24,
      "bufferView": 9,
      "byteOffset": 12
    }
  ],
  "bufferViews": [
    {
      "buffer": 0,
      "byteOffset": 0,
      "byteLength": 4568
    },
    {
      "buffer": 0,
      "byteOffset": 4568,
      "byteLength": 1800,
      "target": 34963
    },
    {
      "buffer": 0,
      "byteOffset": 6368,
      "byteLength": 16896,
      "byteStride": 32,
      "target": 34962
    },
    {
      "buffer": 0,
      "byteOffset": 23264,
      "byteLength": 768,
      "byteStride": 32,
      "target": 34962
    },
    {
      "buffer": 0,
      "byteOffset": 24032,
      "byteLength": 480,
      "byteStride": 20,
      "target": 34962
    },
    {
      "buffer": 0,
      "byteOffset": 24512,
      "byteLength": 1536,
      "byteStride": 32,
      "target": 34962
    },
    {
      "buffer": 0,
      "byteOffset": 26048,
      "byteLength": 480,
      "byteStride": 20,
      "target": 34962
    },
    {
      "buffer": 0,
      "byteOffset": 26528,
      "byteLength": 480,
      "byteStride": 20,
      "target": 34962
    },
    {
      "buffer": 0,
      "byteOffset": 27008,
      "byteLength": 480,
      "byteStride": 20,
      "target": 34962
    },
    {
      "buffer": 0,
      "byteOffset": 27488,
      "byteLength": 480,
      "byteStride": 20,
      "target": 34962
    }
  ],
  "samplers": [
    {
      "magFilter": 9728,
      "minFilter": 9728,
      "wrapS": 33071,
      "wrapT": 33071
    }
  ],
  "textures": [
    {
      "source": 0,
      "sampler": 0
    }
  ],
  "images": [
    {
      "mimeType": "image/png",
      "uri": "baseColor.png"
    }
  ],
  "buffers": [
    {
      "uri": "meteor.bin",
      "byteLength": 27968
    }
  ],
  "materials": [
    {
      "alphaMode": "MASK",
      "alphaCutoff": 0.05,
      "doubleSided": true,
      "pbrMetallicRoughness": {
        "metallicFactor": 0,
        "baseColorTexture": {
          "index": 0
        }
      }
    }
  ],
  "meshes": [
    {
      "primitives": [
        {
          "attributes": {
            "POSITION": 21,
            "NORMAL": 22,
            "TEXCOORD_0": 23
          },
          "mode": 4,
          "material": 0,
          "indices": 18
        }
      ]
    },
    {
      "primitives": [
        {
          "attributes": {
            "POSITION": 24,
            "TEXCOORD_0": 25,
            "NORMAL": 26
          },
          "mode": 4,
          "material": 0,
          "indices": 19
        }
      ]
    },
    {
      "primitives": [
        {
          "attributes": {
            "POSITION": 27,
            "TEXCOORD_0": 28,
            "NORMAL": 26
          },
          "mode": 4,
          "material": 0,
          "indices": 19
        }
      ]
    },
    {
      "primitives": [
        {
          "attributes": {
            "POSITION": 29,
            "TEXCOORD_0": 30,
            "NORMAL": 31
          },
          "mode": 4,
          "material": 0,
          "indices": 20
        }
      ]
    },
    {
      "primitives": [
        {
          "attributes": {
            "POSITION": 32,
            "TEXCOORD_0": 33,
            "NORMAL": 26
          },
          "mode": 4,
          "material": 0,
          "indices": 19
        }
      ]
    },
    {
      "primitives": [
        {
          "attributes": {
            "POSITION": 34,
            "TEXCOORD_0": 35,
            "NORMAL": 26
          },
          "mode": 4,
          "material": 0,
          "indices": 19
        }
      ]
    },
    {
      "primitives": [
        {
          "attributes": {
            "POSITION": 36,
            "TEXCOORD_0": 37,
            "NORMAL": 26
          },
          "mode": 4,
          "material": 0,
          "indices": 19
        }
      ]
    },
    {
      "primitives": [
        {
          "attributes": {
            "POSITION": 38,
            "TEXCOORD_0": 39,
            "NORMAL": 26
          },
          "mode": 4,
          "material": 0,
          "indices": 19
        }
      ]
    }
  ],
  "nodes": [
    {
      "name": "cube",
      "translation": [
        0,
        1,
        1
      ],
      "rotation": [
        -0.19509032201612825,
        0,
        0,
        0.9807852804032304
      ],
      "mesh": 0
    },
    {
      "name": "side_trails",
      "translation": [
        0,
        0,
        -2
      ],
      "children": [
        0
      ]
    },
    {
      "name": "cube",
      "translation": [
        0,
        -2,
        1
      ],
      "mesh": 1
    },
    {
      "name": "fire_particle1",
      "translation": [
        0,
        0,
        -1
      ],
      "children": [
        2
      ]
    },
    {
      "name": "fire_particles_rot1",
      "children": [
        3
      ]
    },
    {
      "name": "fire_particles_angle",
      "translation": [
        0,
        1,
        0
      ],
      "children": [
        4
      ]
    },
    {
      "name": "fire_particles_root",
      "translation": [
        0,
        -1,
        0
      ],
      "children": [
        5
      ]
    },
    {
      "name": "cube",
      "translation": [
        0,
        -1,
        0
      ],
      "mesh": 2
    },
    {
      "name": "cube",
      "translation": [
        0,
        -1,
        0.5
      ],
      "mesh": 3
    },
    {
      "name": "fire_trail",
      "translation": [
        0,
        0,
        -0.5
      ],
      "children": [
        8
      ]
    },
    {
      "name": "cube",
      "translation": [
        -1,
        -2,
        0.375
      ],
      "mesh": 4
    },
    {
      "name": "rock_top_right",
      "translation": [
        0.9375,
        0.8125,
        -0.4375
      ],
      "rotation": [
        -0.18023995550173696,
        0.0746578340503426,
        -0.37533027751786524,
        0.9061274463528878
      ],
      "children": [
        10
      ]
    },
    {
      "name": "cube",
      "translation": [
        1,
        -2,
        0.375
      ],
      "mesh": 5
    },
    {
      "name": "rock_top_left",
      "translation": [
        -0.9375,
        0.8125,
        -0.4375
      ],
      "rotation": [
        -0.18023995550173696,
        -0.0746578340503426,
        0.37533027751786524,
        0.9061274463528878
      ],
      "children": [
        12
      ]
    },
    {
      "name": "cube",
      "translation": [
        1,
        1.6250000000000002,
        0.375
      ],
      "mesh": 6
    },
    {
      "name": "rock_bottom_right",
      "translation": [
        0.9375,
        -0.8125,
        -0.4375
      ],
      "rotation": [
        0.18023995550173696,
        0.0746578340503426,
        0.37533027751786524,
        0.9061274463528878
      ],
      "children": [
        14
      ]
    },
    {
      "name": "cube",
      "translation": [
        -1,
        1.6250000000000002,
        0.375
      ],
      "mesh": 7
    },
    {
      "name": "rock_bottom_left",
      "translation": [
        -0.9375,
        -0.8125,
        -0.4375
      ],
      "rotation": [
        0.18023995550173696,
        -0.0746578340503426,
        -0.37533027751786524,
        0.9061274463528878
      ],
      "children": [
        16
      ]
    },
    {
      "name": "rock",
      "children": [
        7,
        9,
        11,
        13,
        15,
        17
      ]
    },
    {
      "name": "meteor_rot",
      "children": [
        1,
        6,
        18
      ]
    },
    {
      "name": "meteor_angle",
      "translation": [
        0,
        1,
        0
      ],
      "children": [
        19
      ]
    },
    {
      "name": "vfx",
      "children": [
        20
      ]
    },
    {
      "name": "fire_meteor",
      "children": [
        21
      ]
    }
  ],
  "animations": [
    {
      "name": "crash",
      "samplers": [
        {
          "input": 0,
          "output": 1,
          "interpolation": "LINEAR"
        },
        {
          "input": 2,
          "output": 3,
          "interpolation": "LINEAR"
        },
        {
          "input": 4,
          "output": 5,
          "interpolation": "LINEAR"
        },
        {
          "input": 12,
          "output": 13,
          "interpolation": "LINEAR"
        },
        {
          "input": 6,
          "output": 7,
          "interpolation": "LINEAR"
        },
        {
          "input": 8,
          "output": 9,
          "interpolation": "LINEAR"
        },
        {
          "input": 14,
          "output": 15,
          "interpolation": "LINEAR"
        },
        {
          "input": 16,
          "output": 17,
          "interpolation": "LINEAR"
        },
        {
          "input": 10,
          "output": 11,
          "interpolation": "LINEAR"
        }
      ],
      "channels": [
        {
          "sampler": 0,
          "target": {
            "node": 21,
            "path": "scale"
          }
        },
        {
          "sampler": 1,
          "target": {
            "node": 1,
            "path": "scale"
          }
        },
        {
          "sampler": 2,
          "target": {
            "node": 3,
            "path": "rotation"
          }
        },
        {
          "sampler": 3,
          "target": {
            "node": 3,
            "path": "scale"
          }
        },
        {
          "sampler": 4,
          "target": {
            "node": 9,
            "path": "scale"
          }
        },
        {
          "sampler": 5,
          "target": {
            "node": 19,
            "path": "rotation"
          }
        },
        {
          "sampler": 6,
          "target": {
            "node": 19,
            "path": "translation"
          }
        },
        {
          "sampler": 7,
          "target": {
            "node": 19,
            "path": "scale"
          }
        },
        {
          "sampler": 8,
          "target": {
            "node": 20,
            "path": "rotation"
          }
        }
      ]
    }
  ],
  "scenes": [
    {
      "name": "blockbench_export",
      "nodes": [
        22
      ]
    }
  ],
  "scene": 0
}