{"asset":{"version":"2.0","generator":"Blockbench 4.12.5 glTF exporter"},"scenes":[{"nodes":[11],"name":"blockbench_export"}],"scene":0,"nodes":[{"name":"cube","mesh":0},{"translation":[0,0.375,0],"name":"cap","children":[0]},{"translation":[0,0.4375,0],"name":"cube","mesh":1},{"translation":[0,-0.0625,0],"name":"torso","children":[1,2]},{"translation":[-0.15625,-0.3125,0],"name":"cube","mesh":2},{"translation":[0.15625,0,0],"name":"right_leg","children":[4]},{"translation":[0.15625,-0.3125,0],"name":"cube","mesh":3},{"translation":[-0.15625,0,0],"name":"left_leg","children":[6]},{"translation":[0,0.4375,0],"name":"body","children":[3,5,7]},{"name":"body_root","children":[8]},{"name":"black_shroomhead","children":[9]},{"children":[10]}],"bufferViews":[{"buffer":0,"byteOffset":0,"byteLength":288,"target":34962,"byteStride":12},{"buffer":0,"byteOffset":288,"byteLength":288,"target":34962,"byteStride":12},{"buffer":0,"byteOffset":576,"byteLength":192,"target":34962,"byteStride":8},{"buffer":0,"byteOffset":768,"byteLength":72,"target":34963},{"buffer":0,"byteOffset":840,"byteLength":288,"target":34962,"byteStride":12},{"buffer":0,"byteOffset":1128,"byteLength":288,"target":34962,"byteStride":12},{"buffer":0,"byteOffset":1416,"byteLength":192,"target":34962,"byteStride":8},{"buffer":0,"byteOffset":1608,"byteLength":72,"target":34963},{"buffer":0,"byteOffset":1680,"byteLength":288,"target":34962,"byteStride":12},{"buffer":0,"byteOffset":1968,"byteLength":288,"target":34962,"byteStride":12},{"buffer":0,"byteOffset":2256,"byteLength":192,"target":34962,"byteStride":8},{"buffer":0,"byteOffset":2448,"byteLength":72,"target":34963},{"buffer":0,"byteOffset":2520,"byteLength":288,"target":34962,"byteStride":12},{"buffer":0,"byteOffset":2808,"byteLength":288,"target":34962,"byteStride":12},{"buffer":0,"byteOffset":3096,"byteLength":192,"target":34962,"byteStride":8},{"buffer":0,"byteOffset":3288,"byteLength":72,"target":34963},{"buffer":0,"byteOffset":3360,"byteLength":104},{"buffer":0,"byteOffset":3464,"byteLength":416},{"buffer":0,"byteOffset":3880,"byteLength":108},{"buffer":0,"byteOffset":3988,"byteLength":324},{"buffer":0,"byteOffset":4312,"byteLength":108},{"buffer":0,"byteOffset":4420,"byteLength":324},{"buffer":0,"byteOffset":4744,"byteLength":104},{"buffer":0,"byteOffset":4848,"byteLength":416},{"buffer":0,"byteOffset":5264,"byteLength":108},{"buffer":0,"byteOffset":5372,"byteLength":324},{"buffer":0,"byteOffset":5696,"byteLength":40},{"buffer":0,"byteOffset":5736,"byteLength":160},{"buffer":0,"byteOffset":5896,"byteLength":40},{"buffer":0,"byteOffset":5936,"byteLength":120},{"buffer":0,"byteOffset":6056,"byteLength":44},{"buffer":0,"byteOffset":6100,"byteLength":176},{"buffer":0,"byteOffset":6276,"byteLength":44},{"buffer":0,"byteOffset":6320,"byteLength":132},{"buffer":0,"byteOffset":6452,"byteLength":52},{"buffer":0,"byteOffset":6504,"byteLength":156},{"buffer":0,"byteOffset":6660,"byteLength":44},{"buffer":0,"byteOffset":6704,"byteLength":176},{"buffer":0,"byteOffset":6880,"byteLength":36},{"buffer":0,"byteOffset":6916,"byteLength":108},{"buffer":0,"byteOffset":7024,"byteLength":48},{"buffer":0,"byteOffset":7072,"byteLength":144},{"buffer":0,"byteOffset":7216,"byteLength":48},{"buffer":0,"byteOffset":7264,"byteLength":192},{"buffer":0,"byteOffset":7456,"byteLength":40},{"buffer":0,"byteOffset":7496,"byteLength":120},{"buffer":0,"byteOffset":7616,"byteLength":84},{"buffer":0,"byteOffset":7700,"byteLength":252},{"buffer":0,"byteOffset":7952,"byteLength":60},{"buffer":0,"byteOffset":8012,"byteLength":180},{"buffer":0,"byteOffset":8192,"byteLength":72},{"buffer":0,"byteOffset":8264,"byteLength":288},{"buffer":0,"byteOffset":8552,"byteLength":64},{"buffer":0,"byteOffset":8616,"byteLength":192},{"buffer":0,"byteOffset":8808,"byteLength":64},{"buffer":0,"byteOffset":8872,"byteLength":192},{"buffer":0,"byteOffset":9064,"byteLength":72},{"buffer":0,"byteOffset":9136,"byteLength":288},{"buffer":0,"byteOffset":9424,"byteLength":60},{"buffer":0,"byteOffset":9484,"byteLength":240},{"buffer":0,"byteOffset":9724,"byteLength":60},{"buffer":0,"byteOffset":9784,"byteLength":180},{"buffer":0,"byteOffset":9964,"byteLength":64},{"buffer":0,"byteOffset":10028,"byteLength":256},{"buffer":0,"byteOffset":10284,"byteLength":64},{"buffer":0,"byteOffset":10348,"byteLength":192},{"buffer":0,"byteOffset":10540,"byteLength":144},{"buffer":0,"byteOffset":10684,"byteLength":576},{"buffer":0,"byteOffset":11260,"byteLength":152},{"buffer":0,"byteOffset":11412,"byteLength":456},{"buffer":0,"byteOffset":11868,"byteLength":100},{"buffer":0,"byteOffset":11968,"byteLength":300},{"buffer":0,"byteOffset":12268,"byteLength":124},{"buffer":0,"byteOffset":12392,"byteLength":372},{"buffer":0,"byteOffset":12764,"byteLength":24},{"buffer":0,"byteOffset":12788,"byteLength":96},{"buffer":0,"byteOffset":12884,"byteLength":28},{"buffer":0,"byteOffset":12912,"byteLength":84},{"buffer":0,"byteOffset":12996,"byteLength":24},{"buffer":0,"byteOffset":13020,"byteLength":96},{"buffer":0,"byteOffset":13116,"byteLength":28},{"buffer":0,"byteOffset":13144,"byteLength":84},{"buffer":0,"byteOffset":13228,"byteLength":24},{"buffer":0,"byteOffset":13252,"byteLength":96},{"buffer":0,"byteOffset":13348,"byteLength":28},{"buffer":0,"byteOffset":13376,"byteLength":84},{"buffer":0,"byteOffset":13460,"byteLength":48},{"buffer":0,"byteOffset":13508,"byteLength":144},{"buffer":0,"byteOffset":13652,"byteLength":28},{"buffer":0,"byteOffset":13680,"byteLength":112},{"buffer":0,"byteOffset":13792,"byteLength":60},{"buffer":0,"byteOffset":13852,"byteLength":240},{"buffer":0,"byteOffset":14092,"byteLength":28},{"buffer":0,"byteOffset":14120,"byteLength":112},{"buffer":0,"byteOffset":14232,"byteLength":28},{"buffer":0,"byteOffset":14260,"byteLength":112}],"buffers":[{"byteLength":14372,"uri":"data:application/octet-stream;base64,"}],"accessors":[{"bufferView":0,"componentType":5126,"count":24,"max":[0.4375,0.3125,0.4375],"min":[-0.4375,0,-0.4375],"type":"VEC3"},{"bufferView":1,"componentType":5126,"count":24,"max":[1,1,1],"min":[-1,-1,-1],"type":"VEC3"},{"bufferView":2,"componentType":5126,"count":24,"max":[0.65625,0.515625],"min":[0,0],"type":"VEC2"},{"bufferView":3,"componentType":5123,"count":36,"max":[23],"min":[0],"type":"SCALAR"},{"bufferView":4,"componentType":5126,"count":24,"max":[0.2562499940395355,0.13124999403953552,0.2562499940395355],"min":[-0.2562499940395355,-0.4437499940395355,-0.2562499940395355],"type":"VEC3"},{"bufferView":5,"componentType":5126,"count":24,"max":[1,1,1],"min":[-1,-1,-1],"type":"VEC3"},{"bufferView":6,"componentType":5126,"count":24,"max":[0.59375,0.546875],"min":[0.21875,0],"type":"VEC2"},{"bufferView":7,"componentType":5123,"count":36,"max":[23],"min":[0],"type":"SCALAR"},{"bufferView":8,"componentType":5126,"count":24,"max":[0.25,0.25,0.125],"min":[0.0625,-0.125,-0.125],"type":"VEC3"},{"bufferView":9,"componentType":5126,"count":24,"max":[1,1,1],"min":[-1,-1,-1],"type":"VEC3"},{"bufferView":10,"componentType":5126,"count":24,"max":[0.53125,0.609375],"min":[0.21875,0.140625],"type":"VEC2"},{"bufferView":11,"componentType":5123,"count":36,"max":[23],"min":[0],"type":"SCALAR"},{"bufferView":12,"componentType":5126,"count":24,"max":[-0.0625,0.25,0.125],"min":[-0.25,-0.125,-0.125],"type":"VEC3"},{"bufferView":13,"componentType":5126,"count":24,"max":[1,1,1],"min":[-1,-1,-1],"type":"VEC3"},{"bufferView":14,"componentType":5126,"count":24,"max":[0.53125,0.609375],"min":[0.21875,0.140625],"type":"VEC2"},{"bufferView":15,"componentType":5123,"count":36,"max":[23],"min":[0],"type":"SCALAR"},{"bufferView":16,"componentType":5126,"count":26,"max":[1.5],"min":[0],"type":"SCALAR"},{"bufferView":17,"componentType":5126,"count":26,"max":[0.016590775921940804,0,0,1],"min":[-0.012591894716024399,0,0,0.9998623728752136],"type":"VEC4"},{"bufferView":18,"componentType":5126,"count":27,"max":[1.5],"min":[0],"type":"SCALAR"},{"bufferView":19,"componentType":5126,"count":27,"max":[0,-0.0625,0],"min":[0,-0.09375,0],"type":"VEC3"},{"bufferView":20,"componentType":5126,"count":27,"max":[1.5],"min":[0],"type":"SCALAR"},{"bufferView":21,"componentType":5126,"count":27,"max":[1.100000023841858,1.0615277290344238,1.100000023841858],"min":[0.9967764019966125,1,0.9967764019966125],"type":"VEC3"},{"bufferView":22,"componentType":5126,"count":26,"max":[1.5],"min":[0],"type":"SCALAR"},{"bufferView":23,"componentType":5126,"count":26,"max":[0.028582964092493057,0,0,1],"min":[-0.019198855385184288,0,0,0.9995914101600647],"type":"VEC4"},{"bufferView":24,"componentType":5126,"count":27,"max":[1.5],"min":[0],"type":"SCALAR"},{"bufferView":25,"componentType":5126,"count":27,"max":[0,0.3754383623600006,0],"min":[0,0.34356170892715454,0],"type":"VEC3"},{"bufferView":26,"componentType":5126,"count":10,"max":[0.6000000238418579],"min":[0],"type":"SCALAR"},{"bufferView":27,"componentType":5126,"count":10,"max":[0.19509032368659973,0,0,0.9976535439491272],"min":[-0.19509032368659973,0,0,0.9807852506637573],"type":"VEC4"},{"bufferView":28,"componentType":5126,"count":10,"max":[0.6000000238418579],"min":[0],"type":"SCALAR"},{"bufferView":29,"componentType":5126,"count":10,"max":[0.15625,0.0625,0.0625],"min":[0.15625,-0.006620732136070728,-0.09226851910352707],"type":"VEC3"},{"bufferView":30,"componentType":5126,"count":11,"max":[0.6000000238418579],"min":[0],"type":"SCALAR"},{"bufferView":31,"componentType":5126,"count":11,"max":[0.19509032368659973,0,0,0.9999550580978394],"min":[-0.2416572868824005,0,0,0.9703616499900818],"type":"VEC4"},{"bufferView":32,"componentType":5126,"count":11,"max":[0.6000000238418579],"min":[0],"type":"SCALAR"},{"bufferView":33,"componentType":5126,"count":11,"max":[-0.15625,0.0625,0.0625],"min":[-0.15625,-0.006979260593652725,-0.09125000238418579],"type":"VEC3"},{"bufferView":34,"componentType":5126,"count":13,"max":[0.6000000238418579],"min":[0],"type":"SCALAR"},{"bufferView":35,"componentType":5126,"count":13,"max":[0,0.4749999940395355,0],"min":[0,0.4000000059604645,0],"type":"VEC3"},{"bufferView":36,"componentType":5126,"count":11,"max":[0.6000000238418579],"min":[0],"type":"SCALAR"},{"bufferView":37,"componentType":5126,"count":11,"max":[0.012217001058161259,0.10581596940755844,0.06950647383928299,0.9999253749847412],"min":[-0.052109722048044205,-0.10557270795106888,-0.06987541913986206,0.9905838966369629],"type":"VEC4"},{"bufferView":38,"componentType":5126,"count":9,"max":[0.6000000238418579],"min":[0],"type":"SCALAR"},{"bufferView":39,"componentType":5126,"count":9,"max":[0,-0.0625,0],"min":[0,-0.1328125,0],"type":"VEC3"},{"bufferView":40,"componentType":5126,"count":12,"max":[0.6000000238418579],"min":[0],"type":"SCALAR"},{"bufferView":41,"componentType":5126,"count":12,"max":[1.149999976158142,1,1.149999976158142],"min":[1,0.8999999761581421,1],"type":"VEC3"},{"bufferView":42,"componentType":5126,"count":12,"max":[0.6000000238418579],"min":[0],"type":"SCALAR"},{"bufferView":43,"componentType":5126,"count":12,"max":[0.08105513453483582,0.0029229887295514345,0.052286144345998764,0.9984989762306213],"min":[-0.05672098323702812,-0.0034380252473056316,-0.060990434139966965,0.9962952733039856],"type":"VEC4"},{"bufferView":44,"componentType":5126,"count":10,"max":[0.6000000238418579],"min":[0],"type":"SCALAR"},{"bufferView":45,"componentType":5126,"count":10,"max":[0,0.34375,0],"min":[0,0.33125001192092896,0],"type":"VEC3"},{"bufferView":46,"componentType":5126,"count":21,"max":[1],"min":[0],"type":"SCALAR"},{"bufferView":47,"componentType":5126,"count":21,"max":[0,0,0],"min":[0,0,-0.9103124737739563],"type":"VEC3"},{"bufferView":48,"componentType":5126,"count":15,"max":[1],"min":[0],"type":"SCALAR"},{"bufferView":49,"componentType":5126,"count":15,"max":[0,0.4390625059604645,0],"min":[0,0.375,0],"type":"VEC3"},{"bufferView":50,"componentType":5126,"count":18,"max":[1],"min":[0],"type":"SCALAR"},{"bufferView":51,"componentType":5126,"count":18,"max":[0.21277765929698944,0.08641011267900467,0.016319172456860542,1],"min":[-0.3261620104312897,-0.05173422396183014,-0.0007922792574390769,0.9443188905715942],"type":"VEC4"},{"bufferView":52,"componentType":5126,"count":16,"max":[1],"min":[0],"type":"SCALAR"},{"bufferView":53,"componentType":5126,"count":16,"max":[0,-0.0625,0.03125],"min":[0,-0.0625,-0.03682870417833328],"type":"VEC3"},{"bufferView":54,"componentType":5126,"count":16,"max":[1],"min":[0],"type":"SCALAR"},{"bufferView":55,"componentType":5126,"count":16,"max":[1.2000000476837158,1.100000023841858,1.2000000476837158],"min":[0.9856589436531067,0.9921436309814453,0.9856589436531067],"type":"VEC3"},{"bufferView":56,"componentType":5126,"count":18,"max":[1],"min":[0],"type":"SCALAR"},{"bufferView":57,"componentType":5126,"count":18,"max":[0.2970415949821472,0,0,1],"min":[-0.27144044637680054,0,0,0.9548645615577698],"type":"VEC4"},{"bufferView":58,"componentType":5126,"count":15,"max":[1],"min":[0],"type":"SCALAR"},{"bufferView":59,"componentType":5126,"count":15,"max":[0.13052618503570557,0,0,1],"min":[-0.3188731372356415,0,0,0.947797417640686],"type":"VEC4"},{"bufferView":60,"componentType":5126,"count":15,"max":[1],"min":[0],"type":"SCALAR"},{"bufferView":61,"componentType":5126,"count":15,"max":[0.15625,0.03125,0.0625],"min":[0.15625,0,-0.09482421725988388],"type":"VEC3"},{"bufferView":62,"componentType":5126,"count":16,"max":[1],"min":[0],"type":"SCALAR"},{"bufferView":63,"componentType":5126,"count":16,"max":[0.10466361790895462,0,0,1],"min":[-0.10886687785387039,0,0,0.9940563440322876],"type":"VEC4"},{"bufferView":64,"componentType":5126,"count":16,"max":[1],"min":[0],"type":"SCALAR"},{"bufferView":65,"componentType":5126,"count":16,"max":[-0.15625,0.0625,0.009209694340825081],"min":[-0.15625,-0.0046048471704125404,-0.2686080038547516],"type":"VEC3"},{"bufferView":66,"componentType":5126,"count":36,"max":[2],"min":[0],"type":"SCALAR"},{"bufferView":67,"componentType":5126,"count":36,"max":[0.03328590467572212,0,0,1],"min":[-0.06329286843538284,0,0,0.9979950189590454],"type":"VEC4"},{"bufferView":68,"componentType":5126,"count":38,"max":[2],"min":[0],"type":"SCALAR"},{"bufferView":69,"componentType":5126,"count":38,"max":[0,-0.056640625,0],"min":[0,-0.15625,0],"type":"VEC3"},{"bufferView":70,"componentType":5126,"count":25,"max":[1.5],"min":[0],"type":"SCALAR"},{"bufferView":71,"componentType":5126,"count":25,"max":[1.3158109188079834,1.184999942779541,1.3158109188079834],"min":[1,0.7484335899353027,1],"type":"VEC3"},{"bufferView":72,"componentType":5126,"count":31,"max":[1.75],"min":[0],"type":"SCALAR"},{"bufferView":73,"componentType":5126,"count":31,"max":[1.107278823852539,1.3000985383987427,1.107278823852539],"min":[1,1,1],"type":"VEC3"},{"bufferView":74,"componentType":5126,"count":6,"max":[0.4000000059604645],"min":[0],"type":"SCALAR"},{"bufferView":75,"componentType":5126,"count":6,"max":[0.1946726143360138,0.015115851536393166,0,1],"min":[0,0,-0.06414642930030823,0.9786853194236755],"type":"VEC4"},{"bufferView":76,"componentType":5126,"count":7,"max":[0.4000000059604645],"min":[0],"type":"SCALAR"},{"bufferView":77,"componentType":5126,"count":7,"max":[1.100000023841858,1.100000023841858,1.100000023841858],"min":[0.8999999761581421,0.8999999761581421,0.8999999761581421],"type":"VEC3"},{"bufferView":78,"componentType":5126,"count":6,"max":[0.4000000059604645],"min":[0],"type":"SCALAR"},{"bufferView":79,"componentType":5126,"count":6,"max":[0.1946726143360138,0,0.06414642930030823,1],"min":[0,-0.015115851536393166,0,0.9786853194236755],"type":"VEC4"},{"bufferView":80,"componentType":5126,"count":7,"max":[0.4000000059604645],"min":[0],"type":"SCALAR"},{"bufferView":81,"componentType":5126,"count":7,"max":[1.100000023841858,1.100000023841858,1.100000023841858],"min":[0.8999999761581421,0.8999999761581421,0.8999999761581421],"type":"VEC3"},{"bufferView":82,"componentType":5126,"count":6,"max":[0.25],"min":[0],"type":"SCALAR"},{"bufferView":83,"componentType":5126,"count":6,"max":[0.6427876353263855,0,0,1],"min":[0,0,0,0.7660444378852844],"type":"VEC4"},{"bufferView":84,"componentType":5126,"count":7,"max":[0.44999998807907104],"min":[0],"type":"SCALAR"},{"bufferView":85,"componentType":5126,"count":7,"max":[0,0.4375,1.524999976158142],"min":[0,0.12187500298023224,0],"type":"VEC3"},{"bufferView":86,"componentType":5126,"count":12,"max":[0.800000011920929],"min":[0],"type":"SCALAR"},{"bufferView":87,"componentType":5126,"count":12,"max":[1.2000000476837158,1,1.014735460281372],"min":[0.9852644801139832,1,0.800000011920929],"type":"VEC3"},{"bufferView":88,"componentType":5126,"count":7,"max":[0.4000000059604645],"min":[0],"type":"SCALAR"},{"bufferView":89,"componentType":5126,"count":7,"max":[0.10886687785387039,0,0,1],"min":[-0.3826834261417389,0,0,0.9238795042037964],"type":"VEC4"},{"bufferView":90,"componentType":5126,"count":15,"max":[1],"min":[0],"type":"SCALAR"},{"bufferView":91,"componentType":5126,"count":15,"max":[0.08715574443340302,0,0,1],"min":[-0.1971440464258194,0,0,0.9803745150566101],"type":"VEC4"},{"bufferView":92,"componentType":5126,"count":7,"max":[0.44999998807907104],"min":[0],"type":"SCALAR"},{"bufferView":93,"componentType":5126,"count":7,"max":[0.17476056516170502,0.014695185236632824,0.17298738658428192,1],"min":[-0.08715574443340302,-3.94681336224334e-12,0,0.980632483959198],"type":"VEC4"},{"bufferView":94,"componentType":5126,"count":7,"max":[0.44999998807907104],"min":[0],"type":"SCALAR"},{"bufferView":95,"componentType":5126,"count":7,"max":[0.17476056516170502,3.94681336224334e-12,0,1],"min":[-0.08715574443340302,-0.014695185236632824,-0.17298738658428192,0.980632483959198],"type":"VEC4"}],"materials":[{"pbrMetallicRoughness":{"metallicFactor":0,"roughnessFactor":1,"baseColorTexture":{"index":0}},"alphaMode":"MASK","alphaCutoff":0.05,"doubleSided":true}],"textures":[{"sampler":0,"source":0,"name":"black_shroomhead"}],"samplers":[{"magFilter":9728,"minFilter":9728,"wrapS":33071,"wrapT":33071}],"images":[{"mimeType":"image/png","uri":"data:image/png;base64,"}],"meshes":[{"primitives":[{"mode":4,"attributes":{"POSITION":0,"NORMAL":1,"TEXCOORD_0":2},"indices":3,"material":0}]},{"primitives":[{"mode":4,"attributes":{"POSITION":4,"NORMAL":5,"TEXCOORD_0":6},"indices":7,"material":0}]},{"primitives":[{"mode":4,"attributes":{"POSITION":8,"NORMAL":9,"TEXCOORD_0":10},"indices":11,"material":0}]},{"primitives":[{"mode":4,"attributes":{"POSITION":12,"NORMAL":13,"TEXCOORD_0":14},"indices":15,"material":0}]}],"animations":[{"name":"idle","samplers":[{"input":16,"output":17,"interpolation":"LINEAR"},{"input":18,"output":19,"interpolation":"LINEAR"},{"input":20,"output":21,"interpolation":"LINEAR"},{"input":22,"output":23,"interpolation":"LINEAR"},{"input":24,"output":25,"interpolation":"LINEAR"}],"channels":[{"sampler":0,"target":{"node":3,"path":"rotation"}},{"sampler":1,"target":{"node":3,"path":"translation"}},{"sampler":2,"target":{"node":3,"path":"scale"}},{"sampler":3,"target":{"node":1,"path":"rotation"}},{"sampler":4,"target":{"node":1,"path":"translation"}}]},{"name":"walk","samplers":[{"input":26,"output":27,"interpolation":"LINEAR"},{"input":28,"output":29,"interpolation":"LINEAR"},{"input":30,"output":31,"interpolation":"LINEAR"},{"input":32,"output":33,"interpolation":"LINEAR"},{"input":34,"output":35,"interpolation":"LINEAR"},{"input":36,"output":37,"interpolation":"LINEAR"},{"input":38,"output":39,"interpolation":"LINEAR"},{"input":40,"output":41,"interpolation":"LINEAR"},{"input":42,"output":43,"interpolation":"LINEAR"},{"input":44,"output":45,"interpolation":"LINEAR"}],"channels":[{"sampler":0,"target":{"node":5,"path":"rotation"}},{"sampler":1,"target":{"node":5,"path":"translation"}},{"sampler":2,"target":{"node":7,"path":"rotation"}},{"sampler":3,"target":{"node":7,"path":"translation"}},{"sampler":4,"target":{"node":8,"path":"translation"}},{"sampler":5,"target":{"node":3,"path":"rotation"}},{"sampler":6,"target":{"node":3,"path":"translation"}},{"sampler":7,"target":{"node":3,"path":"scale"}},{"sampler":8,"target":{"node":1,"path":"rotation"}},{"sampler":9,"target":{"node":1,"path":"translation"}}]},{"name":"capsmack","samplers":[{"input":46,"output":47,"interpolation":"LINEAR"},{"input":48,"output":49,"interpolation":"LINEAR"},{"input":50,"output":51,"interpolation":"LINEAR"},{"input":52,"output":53,"interpolation":"LINEAR"},{"input":54,"output":55,"interpolation":"LINEAR"},{"input":56,"output":57,"interpolation":"LINEAR"},{"input":58,"output":59,"interpolation":"LINEAR"},{"input":60,"output":61,"interpolation":"LINEAR"},{"input":62,"output":63,"interpolation":"LINEAR"},{"input":64,"output":65,"interpolation":"LINEAR"}],"channels":[{"sampler":0,"target":{"node":10,"path":"translation"}},{"sampler":1,"target":{"node":8,"path":"translation"}},{"sampler":2,"target":{"node":3,"path":"rotation"}},{"sampler":3,"target":{"node":3,"path":"translation"}},{"sampler":4,"target":{"node":3,"path":"scale"}},{"sampler":5,"target":{"node":1,"path":"rotation"}},{"sampler":6,"target":{"node":5,"path":"rotation"}},{"sampler":7,"target":{"node":5,"path":"translation"}},{"sampler":8,"target":{"node":7,"path":"rotation"}},{"sampler":9,"target":{"node":7,"path":"translation"}}]},{"name":"fart","samplers":[{"input":66,"output":67,"interpolation":"LINEAR"},{"input":68,"output":69,"interpolation":"LINEAR"},{"input":70,"output":71,"interpolation":"LINEAR"},{"input":72,"output":73,"interpolation":"LINEAR"}],"channels":[{"sampler":0,"target":{"node":3,"path":"rotation"}},{"sampler":1,"target":{"node":3,"path":"translation"}},{"sampler":2,"target":{"node":3,"path":"scale"}},{"sampler":3,"target":{"node":1,"path":"scale"}}]},{"name":"hurt","samplers":[{"input":74,"output":75,"interpolation":"LINEAR"},{"input":76,"output":77,"interpolation":"LINEAR"}],"channels":[{"sampler":0,"target":{"node":3,"path":"rotation"}},{"sampler":1,"target":{"node":3,"path":"scale"}}]},{"name":"hurt2","samplers":[{"input":78,"output":79,"interpolation":"LINEAR"},{"input":80,"output":81,"interpolation":"LINEAR"}],"channels":[{"sampler":0,"target":{"node":3,"path":"rotation"}},{"sampler":1,"target":{"node":3,"path":"scale"}}]},{"name":"death","samplers":[{"input":82,"output":83,"interpolation":"LINEAR"},{"input":84,"output":85,"interpolation":"LINEAR"},{"input":86,"output":87,"interpolation":"LINEAR"},{"input":88,"output":89,"interpolation":"LINEAR"},{"input":90,"output":91,"interpolation":"LINEAR"},{"input":92,"output":93,"interpolation":"LINEAR"},{"input":94,"output":95,"interpolation":"LINEAR"}],"channels":[{"sampler":0,"target":{"node":8,"path":"rotation"}},{"sampler":1,"target":{"node":8,"path":"translation"}},{"sampler":2,"target":{"node":8,"path":"scale"}},{"sampler":3,"target":{"node":3,"path":"rotation"}},{"sampler":4,"target":{"node":1,"path":"rotation"}},{"sampler":5,"target":{"node":5,"path":"rotation"}},{"sampler":6,"target":{"node":7,"path":"rotation"}}]}]}