{
  "asset": {
    "generator": "glTF-Transform v4.2.1",
    "version": "2.0"
  },
  "accessors": [
    {
      "type": "SCALAR",
      "componentType": 5123,
      "count": 36,
      "bufferView": 0,
      "byteOffset": 0
    },
    {
      "type": "VEC3",
      "componentType": 5126,
      "count": 24,
      "max": [
        0.25,
        0.75,
        0.0000625000029685907
      ],
      "min": [
        -0.25,
        0,
        0
      ],
      "bufferView": 1,
      "byteOffset": 0
    },
    {
      "type": "VEC3",
      "componentType": 5126,
      "count": 24,
      "bufferView": 1,
      "byteOffset": 12
    },
    {
      "type": "VEC2",
      "componentType": 5126,
      "count": 24,
      "bufferView": 1,
      "byteOffset": 24
    },
    {
      "type": "VEC3",
      "componentType": 5126,
      "count": 24,
      "max": [
        0.25,
        0.3251081109046936,
        0.16028624773025513
      ],
      "min": [
        -0.25,
        -0.4248918890953064,
        0.16022375226020813
      ],
      "bufferView": 2,
      "byteOffset": 0
    },
    {
      "type": "VEC2",
      "componentType": 5126,
      "count": 24,
      "bufferView": 2,
      "byteOffset": 12
    },
    {
      "type": "VEC3",
      "componentType": 5126,
      "count": 24,
      "max": [
        0.3125,
        0.375,
        0.0000625000029685907
      ],
      "min": [
        -0.1875,
        0,
        0
      ],
      "bufferView": 3,
      "byteOffset": 0
    },
    {
      "type": "VEC2",
      "componentType": 5126,
      "count": 24,
      "bufferView": 3,
      "byteOffset": 12
    },
    {
      "type": "VEC3",
      "componentType": 5126,
      "count": 24,
      "max": [
        0.25,
        0,
        0.0000625000029685907
      ],
      "min": [
        -0.25,
        -0.25,
        0
      ],
      "bufferView": 4,
      "byteOffset": 0
    },
    {
      "type": "VEC2",
      "componentType": 5126,
      "count": 24,
      "bufferView": 4,
      "byteOffset": 12
    },
    {
      "type": "VEC3",
      "componentType": 5126,
      "count": 24,
      "max": [
        0.25,
        0.05878687649965286,
        -0.10396812856197357
      ],
      "min": [
        -0.25,
        -0.31621313095092773,
        -0.10403062403202057
      ],
      "bufferView": 5,
      "byteOffset": 0
    },
    {
      "type": "VEC2",
      "componentType": 5126,
      "count": 24,
      "bufferView": 5,
      "byteOffset": 12
    },
    {
      "type": "VEC3",
      "componentType": 5126,
      "count": 24,
      "max": [
        0.25,
        0.32992374897003174,
        -0.08877687156200409
      ],
      "min": [
        -0.25,
        0.07992374897003174,
        -0.08883937448263168
      ],
      "bufferView": 6,
      "byteOffset": 0
    },
    {
      "type": "VEC2",
      "componentType": 5126,
      "count": 24,
      "bufferView": 6,
      "byteOffset": 12
    },
    {
      "type": "VEC3",
      "componentType": 5126,
      "count": 24,
      "max": [
        0.25,
        0.38085561990737915,
        0.004898750223219395
      ],
      "min": [
        -0.25,
        0.005855625029653311,
        0.0048362500965595245
      ],
      "bufferView": 7,
      "byteOffset": 0
    },
    {
      "type": "VEC3",
      "componentType": 5126,
      "count": 24,
      "max": [
        0.25,
        0.125,
        0.0000625000029685907
      ],
      "min": [
        -0.25,
        -0.125,
        0
      ],
      "bufferView": 8,
      "byteOffset": 0
    },
    {
      "type": "VEC3",
      "componentType": 5126,
      "count": 24,
      "max": [
        0.25,
        0.38085561990737915,
        -0.004773749969899654
      ],
      "min": [
        -0.25,
        0.005855625029653311,
        -0.0048362500965595245
      ],
      "bufferView": 9,
      "byteOffset": 0
    },
    {
      "type": "SCALAR",
      "componentType": 5126,
      "count": 38,
      "max": [
        6
      ],
      "min": [
        0
      ],
      "bufferView": 10,
      "byteOffset": 0
    },
    {
      "type": "VEC4",
      "componentType": 5126,
      "count": 38,
      "bufferView": 10,
      "byteOffset": 152
    },
    {
      "type": "VEC4",
      "componentType": 5126,
      "count": 38,
      "bufferView": 10,
      "byteOffset": 760
    }
  ],
  "bufferViews": [
    {
      "buffer": 0,
      "byteOffset": 0,
      "byteLength": 72,
      "target": 34963
    },
    {
      "buffer": 0,
      "byteOffset": 72,
      "byteLength": 768,
      "byteStride": 32,
      "target": 34962
    },
    {
      "buffer": 0,
      "byteOffset": 840,
      "byteLength": 480,
      "byteStride": 20,
      "target": 34962
    },
    {
      "buffer": 0,
      "byteOffset": 1320,
      "byteLength": 480,
      "byteStride": 20,
      "target": 34962
    },
    {
      "buffer": 0,
      "byteOffset": 1800,
      "byteLength": 480,
      "byteStride": 20,
      "target": 34962
    },
    {
      "buffer": 0,
      "byteOffset": 2280,
      "byteLength": 480,
      "byteStride": 20,
      "target": 34962
    },
    {
      "buffer": 0,
      "byteOffset": 2760,
      "byteLength": 480,
      "byteStride": 20,
      "target": 34962
    },
    {
      "buffer": 0,
      "byteOffset": 3240,
      "byteLength": 288,
      "byteStride": 12,
      "target": 34962
    },
    {
      "buffer": 0,
      "byteOffset": 3528,
      "byteLength": 288,
      "byteStride": 12,
      "target": 34962
    },
    {
      "buffer": 0,
      "byteOffset": 3816,
      "byteLength": 288,
      "byteStride": 12,
      "target": 34962
    },
    {
      "buffer": 0,
      "byteOffset": 4104,
      "byteLength": 1368
    }
  ],
  "samplers": [
    {
      "magFilter": 9728,
      "minFilter": 9728,
      "wrapS": 33071,
      "wrapT": 33071
    }
  ],
  "textures": [
    {
      "source": 0,
      "sampler": 0
    }
  ],
  "images": [
    {
      "mimeType": "image/png",
      "uri": "baseColor.png"
    }
  ],
  "buffers": [
    {
      "uri": "grass-wild-clump.bin",
      "byteLength": 5472
    }
  ],
  "materials": [
    {
      "alphaMode": "MASK",
      "alphaCutoff": 0.05,
      "doubleSided": true,
      "pbrMetallicRoughness": {
        "metallicFactor": 0,
        "baseColorTexture": {
          "index": 0
        }
      }
    }
  ],
  "meshes": [
    {
      "primitives": [
        {
          "attributes": {
            "POSITION": 1,
            "NORMAL": 2,
            "TEXCOORD_0": 3
          },
          "mode": 4,
          "material": 0,
          "indices": 0
        }
      ]
    },
    {
      "primitives": [
        {
          "attributes": {
            "POSITION": 4,
            "TEXCOORD_0": 5,
            "NORMAL": 2
          },
          "mode": 4,
          "material": 0,
          "indices": 0
        }
      ]
    },
    {
      "primitives": [
        {
          "attributes": {
            "POSITION": 4,
            "NORMAL": 2,
            "TEXCOORD_0": 5
          },
          "mode": 4,
          "material": 0,
          "indices": 0
        }
      ]
    },
    {
      "primitives": [
        {
          "attributes": {
            "POSITION": 6,
            "TEXCOORD_0": 7,
            "NORMAL": 2
          },
          "mode": 4,
          "material": 0,
          "indices": 0
        }
      ]
    },
    {
      "primitives": [
        {
          "attributes": {
            "POSITION": 8,
            "TEXCOORD_0": 9,
            "NORMAL": 2
          },
          "mode": 4,
          "material": 0,
          "indices": 0
        }
      ]
    },
    {
      "primitives": [
        {
          "attributes": {
            "POSITION": 10,
            "TEXCOORD_0": 11,
            "NORMAL": 2
          },
          "mode": 4,
          "material": 0,
          "indices": 0
        }
      ]
    },
    {
      "primitives": [
        {
          "attributes": {
            "POSITION": 12,
            "TEXCOORD_0": 13,
            "NORMAL": 2
          },
          "mode": 4,
          "material": 0,
          "indices": 0
        }
      ]
    },
    {
      "primitives": [
        {
          "attributes": {
            "POSITION": 14,
            "NORMAL": 2,
            "TEXCOORD_0": 7
          },
          "mode": 4,
          "material": 0,
          "indices": 0
        }
      ]
    },
    {
      "primitives": [
        {
          "attributes": {
            "POSITION": 15,
            "NORMAL": 2,
            "TEXCOORD_0": 9
          },
          "mode": 4,
          "material": 0,
          "indices": 0
        }
      ]
    },
    {
      "primitives": [
        {
          "attributes": {
            "POSITION": 16,
            "NORMAL": 2,
            "TEXCOORD_0": 11
          },
          "mode": 4,
          "material": 0,
          "indices": 0
        }
      ]
    },
    {
      "primitives": [
        {
          "attributes": {
            "POSITION": 15,
            "NORMAL": 2,
            "TEXCOORD_0": 13
          },
          "mode": 4,
          "material": 0,
          "indices": 0
        }
      ]
    }
  ],
  "nodes": [
    {
      "name": "wild-grass-clump",
      "translation": [
        0,
        0,
        -0.0625
      ],
      "rotation": [
        0.19509032201612825,
        0,
        0,
        0.9807852804032304
      ],
      "mesh": 0
    },
    {
      "name": "wild-grass-clump",
      "translation": [
        0,
        0.33123375,
        -0.24812625
      ],
      "rotation": [
        -0.19509032201612825,
        0,
        0,
        0.9807852804032304
      ],
      "mesh": 1
    },
    {
      "name": "bone2",
      "children": [
        1
      ]
    },
    {
      "name": "wild-grass-clump",
      "translation": [
        0,
        0.42498375,
        -0.16022375
      ],
      "mesh": 2
    },
    {
      "name": "bone3",
      "children": [
        3
      ]
    },
    {
      "name": "wild-grass-clump",
      "translation": [
        -0.0625,
        0,
        0
      ],
      "rotation": [
        0.10886687485196457,
        0,
        0,
        0.9940563382223196
      ],
      "mesh": 3
    },
    {
      "name": "wild-grass-clump",
      "translation": [
        0,
        0.592700625,
        0.40557375
      ],
      "rotation": [
        0.21643961393810288,
        0,
        0,
        0.9762960071199334
      ],
      "mesh": 4
    },
    {
      "name": "bone6",
      "translation": [
        0,
        0,
        -0.21875
      ],
      "children": [
        6
      ]
    },
    {
      "name": "bone5",
      "translation": [
        0,
        0,
        0.21875
      ],
      "children": [
        5,
        7
      ]
    },
    {
      "name": "wild-grass-clump",
      "translation": [
        0,
        0.33123375,
        0.03312375000000001
      ],
      "rotation": [
        -0.10886687485196457,
        0,
        0,
        0.9940563382223196
      ],
      "mesh": 5
    },
    {
      "name": "wild-grass-clump",
      "translation": [
        0,
        0.33123375,
        -0.18562625
      ],
      "rotation": [
        -0.21643961393810288,
        0,
        0,
        0.9762960071199334
      ],
      "mesh": 6
    },
    {
      "name": "bone8",
      "translation": [
        0,
        0,
        0.21875
      ],
      "children": [
        10
      ]
    },
    {
      "name": "bone7",
      "translation": [
        0,
        0,
        -0.21875
      ],
      "children": [
        9,
        11
      ]
    },
    {
      "name": "wild-grass-clump",
      "translation": [
        -0.015625,
        -0.00583937499999999,
        -0.0018737500000000074
      ],
      "rotation": [
        0.07698050545441136,
        -0.7029039776384703,
        0.07698050545441137,
        0.7029039776384705
      ],
      "mesh": 7
    },
    {
      "name": "wild-grass-clump",
      "translation": [
        -0.34310625,
        0.47821375,
        0
      ],
      "rotation": [
        0.15304591873303092,
        -0.6903455270798547,
        0.15304591873303094,
        0.6903455270798549
      ],
      "mesh": 8
    },
    {
      "name": "bone4",
      "translation": [
        0.1875,
        0.000016250000000009313,
        -0.0018737500000000074
      ],
      "children": [
        14
      ]
    },
    {
      "name": "bone9",
      "translation": [
        -0.1875,
        -0.000016250000000009313,
        0.0018737500000000074
      ],
      "children": [
        13,
        15
      ]
    },
    {
      "name": "bone",
      "children": [
        2,
        4,
        8,
        12,
        16
      ]
    },
    {
      "name": "wild-grass-clump",
      "translation": [
        0.003124999999999989,
        -0.005855625,
        0
      ],
      "rotation": [
        -0.07698050545441136,
        -0.7029039776384703,
        -0.07698050545441137,
        0.7029039776384705
      ],
      "mesh": 9
    },
    {
      "name": "wild-grass-clump",
      "translation": [
        0.34310625,
        0.47821375,
        0
      ],
      "rotation": [
        -0.15304591873303092,
        -0.6903455270798547,
        -0.15304591873303094,
        0.6903455270798549
      ],
      "mesh": 10
    },
    {
      "name": "bone11",
      "translation": [
        -0.2,
        0,
        0
      ],
      "children": [
        19
      ]
    },
    {
      "name": "bone10",
      "translation": [
        0.2,
        -0.337555,
        0
      ],
      "children": [
        18,
        20
      ]
    },
    {
      "name": "root",
      "translation": [
        0,
        0.337555,
        0
      ],
      "children": [
        21
      ]
    }
  ],
  "animations": [
    {
      "name": "idle",
      "samplers": [
        {
          "input": 17,
          "output": 18,
          "interpolation": "LINEAR"
        },
        {
          "input": 17,
          "output": 19,
          "interpolation": "LINEAR"
        },
        {
          "input": 17,
          "output": 18,
          "interpolation": "LINEAR"
        },
        {
          "input": 17,
          "output": 19,
          "interpolation": "LINEAR"
        },
        {
          "input": 17,
          "output": 18,
          "interpolation": "LINEAR"
        },
        {
          "input": 17,
          "output": 19,
          "interpolation": "LINEAR"
        }
      ],
      "channels": [
        {
          "sampler": 0,
          "target": {
            "node": 2,
            "path": "rotation"
          }
        },
        {
          "sampler": 1,
          "target": {
            "node": 4,
            "path": "rotation"
          }
        },
        {
          "sampler": 2,
          "target": {
            "node": 8,
            "path": "rotation"
          }
        },
        {
          "sampler": 3,
          "target": {
            "node": 12,
            "path": "rotation"
          }
        },
        {
          "sampler": 4,
          "target": {
            "node": 16,
            "path": "rotation"
          }
        },
        {
          "sampler": 5,
          "target": {
            "node": 21,
            "path": "rotation"
          }
        }
      ]
    }
  ],
  "scenes": [
    {
      "name": "blockbench_export",
      "nodes": [
        22,
        17,
        0
      ]
    }
  ],
  "scene": 0
}