{
  "asset": {
    "generator": "glTF-Transform v4.2.1",
    "version": "2.0"
  },
  "accessors": [
    {
      "type": "SCALAR",
      "componentType": 5123,
      "count": 36,
      "bufferView": 0,
      "byteOffset": 0
    },
    {
      "type": "SCALAR",
      "componentType": 5123,
      "count": 156,
      "bufferView": 0,
      "byteOffset": 72
    },
    {
      "type": "SCALAR",
      "componentType": 5123,
      "count": 30,
      "bufferView": 0,
      "byteOffset": 384
    },
    {
      "type": "SCALAR",
      "componentType": 5123,
      "count": 108,
      "bufferView": 0,
      "byteOffset": 444
    },
    {
      "type": "SCALAR",
      "componentType": 5123,
      "count": 144,
      "bufferView": 0,
      "byteOffset": 660
    },
    {
      "type": "SCALAR",
      "componentType": 5123,
      "count": 234,
      "bufferView": 0,
      "byteOffset": 948
    },
    {
      "type": "SCALAR",
      "componentType": 5123,
      "count": 30,
      "bufferView": 0,
      "byteOffset": 1416
    },
    {
      "type": "VEC3",
      "componentType": 5126,
      "count": 24,
      "max": [
        0.1875,
        1.375,
        0.1875
      ],
      "min": [
        -0.0625,
        0,
        -0.0625
      ],
      "bufferView": 1,
      "byteOffset": 0
    },
    {
      "type": "VEC3",
      "componentType": 5126,
      "count": 24,
      "bufferView": 1,
      "byteOffset": 12
    },
    {
      "type": "VEC2",
      "componentType": 5126,
      "count": 24,
      "bufferView": 1,
      "byteOffset": 24
    },
    {
      "type": "VEC3",
      "componentType": 5126,
      "count": 100,
      "max": [
        0.46529608964920044,
        1.5133154392242432,
        0.4249163866043091
      ],
      "min": [
        -1.4799017906188965,
        -1.4536489248275757,
        -0.28702813386917114
      ],
      "bufferView": 2,
      "byteOffset": 0
    },
    {
      "type": "VEC3",
      "componentType": 5126,
      "count": 100,
      "bufferView": 2,
      "byteOffset": 12
    },
    {
      "type": "VEC2",
      "componentType": 5126,
      "count": 100,
      "bufferView": 2,
      "byteOffset": 24
    },
    {
      "type": "VEC3",
      "componentType": 5126,
      "count": 19,
      "max": [
        0.716881513595581,
        0.26921162009239197,
        0.24647079408168793
      ],
      "min": [
        -0.14889666438102722,
        -0.578125,
        -0.45995381474494934
      ],
      "bufferView": 3,
      "byteOffset": 0
    },
    {
      "type": "VEC3",
      "componentType": 5126,
      "count": 19,
      "bufferView": 3,
      "byteOffset": 12
    },
    {
      "type": "VEC2",
      "componentType": 5126,
      "count": 19,
      "bufferView": 3,
      "byteOffset": 24
    },
    {
      "type": "VEC3",
      "componentType": 5126,
      "count": 72,
      "max": [
        0.28669577836990356,
        0.3125,
        0.09052614122629166
      ],
      "min": [
        -0.31903374195098877,
        -0.6530036926269531,
        -0.9778239727020264
      ],
      "bufferView": 4,
      "byteOffset": 0
    },
    {
      "type": "VEC3",
      "componentType": 5126,
      "count": 72,
      "bufferView": 4,
      "byteOffset": 12
    },
    {
      "type": "VEC2",
      "componentType": 5126,
      "count": 72,
      "bufferView": 4,
      "byteOffset": 24
    },
    {
      "type": "VEC3",
      "componentType": 5126,
      "count": 95,
      "max": [
        0.34375,
        0.8531345725059509,
        0.22563382983207703
      ],
      "min": [
        -1.0606857538223267,
        -0.4480196237564087,
        -0.4996923506259918
      ],
      "bufferView": 5,
      "byteOffset": 0
    },
    {
      "type": "VEC3",
      "componentType": 5126,
      "count": 95,
      "bufferView": 5,
      "byteOffset": 12
    },
    {
      "type": "VEC2",
      "componentType": 5126,
      "count": 95,
      "bufferView": 5,
      "byteOffset": 24
    },
    {
      "type": "VEC3",
      "componentType": 5126,
      "count": 156,
      "max": [
        1.1883759498596191,
        1.0130674839019775,
        0.2917083203792572
      ],
      "min": [
        -0.7818864583969116,
        -1.0706543922424316,
        -0.7745239734649658
      ],
      "bufferView": 6,
      "byteOffset": 0
    },
    {
      "type": "VEC3",
      "componentType": 5126,
      "count": 156,
      "bufferView": 6,
      "byteOffset": 12
    },
    {
      "type": "VEC2",
      "componentType": 5126,
      "count": 156,
      "bufferView": 6,
      "byteOffset": 24
    },
    {
      "type": "VEC3",
      "componentType": 5126,
      "count": 19,
      "max": [
        0.26839306950569153,
        0.21875,
        0.5768104791641235
      ],
      "min": [
        -0.5956856608390808,
        -0.629252016544342,
        -0.03663954511284828
      ],
      "bufferView": 7,
      "byteOffset": 0
    },
    {
      "type": "VEC3",
      "componentType": 5126,
      "count": 19,
      "bufferView": 7,
      "byteOffset": 12
    },
    {
      "type": "VEC2",
      "componentType": 5126,
      "count": 19,
      "bufferView": 7,
      "byteOffset": 24
    },
    {
      "type": "SCALAR",
      "componentType": 5126,
      "count": 23,
      "max": [
        8.041666984558105
      ],
      "min": [
        0
      ],
      "bufferView": 8,
      "byteOffset": 0
    },
    {
      "type": "VEC4",
      "componentType": 5126,
      "count": 23,
      "bufferView": 8,
      "byteOffset": 92
    },
    {
      "type": "SCALAR",
      "componentType": 5126,
      "count": 46,
      "max": [
        8.041666984558105
      ],
      "min": [
        0
      ],
      "bufferView": 8,
      "byteOffset": 460
    },
    {
      "type": "VEC4",
      "componentType": 5126,
      "count": 46,
      "bufferView": 8,
      "byteOffset": 644
    }
  ],
  "bufferViews": [
    {
      "buffer": 0,
      "byteOffset": 0,
      "byteLength": 1476,
      "target": 34963
    },
    {
      "buffer": 0,
      "byteOffset": 1476,
      "byteLength": 768,
      "byteStride": 32,
      "target": 34962
    },
    {
      "buffer": 0,
      "byteOffset": 2244,
      "byteLength": 3200,
      "byteStride": 32,
      "target": 34962
    },
    {
      "buffer": 0,
      "byteOffset": 5444,
      "byteLength": 608,
      "byteStride": 32,
      "target": 34962
    },
    {
      "buffer": 0,
      "byteOffset": 6052,
      "byteLength": 2304,
      "byteStride": 32,
      "target": 34962
    },
    {
      "buffer": 0,
      "byteOffset": 8356,
      "byteLength": 3040,
      "byteStride": 32,
      "target": 34962
    },
    {
      "buffer": 0,
      "byteOffset": 11396,
      "byteLength": 4992,
      "byteStride": 32,
      "target": 34962
    },
    {
      "buffer": 0,
      "byteOffset": 16388,
      "byteLength": 608,
      "byteStride": 32,
      "target": 34962
    },
    {
      "buffer": 0,
      "byteOffset": 16996,
      "byteLength": 1380
    }
  ],
  "samplers": [
    {
      "magFilter": 9728,
      "minFilter": 9728,
      "wrapS": 33071,
      "wrapT": 33071
    }
  ],
  "textures": [
    {
      "source": 0,
      "sampler": 0
    }
  ],
  "images": [
    {
      "mimeType": "image/png",
      "uri": "baseColor.png"
    }
  ],
  "buffers": [
    {
      "uri": "oak-tree-small.bin",
      "byteLength": 18376
    }
  ],
  "materials": [
    {
      "alphaMode": "MASK",
      "alphaCutoff": 0.05,
      "doubleSided": true,
      "pbrMetallicRoughness": {
        "metallicFactor": 0,
        "baseColorTexture": {
          "index": 0
        }
      }
    }
  ],
  "meshes": [
    {
      "primitives": [
        {
          "attributes": {
            "POSITION": 7,
            "NORMAL": 8,
            "TEXCOORD_0": 9
          },
          "mode": 4,
          "material": 0,
          "indices": 0
        }
      ]
    },
    {
      "primitives": [
        {
          "attributes": {
            "POSITION": 10,
            "NORMAL": 11,
            "TEXCOORD_0": 12
          },
          "mode": 4,
          "material": 0,
          "indices": 1
        }
      ]
    },
    {
      "primitives": [
        {
          "attributes": {
            "POSITION": 13,
            "NORMAL": 14,
            "TEXCOORD_0": 15
          },
          "mode": 4,
          "material": 0,
          "indices": 2
        }
      ]
    },
    {
      "primitives": [
        {
          "attributes": {
            "POSITION": 16,
            "NORMAL": 17,
            "TEXCOORD_0": 18
          },
          "mode": 4,
          "material": 0,
          "indices": 3
        }
      ]
    },
    {
      "primitives": [
        {
          "attributes": {
            "POSITION": 19,
            "NORMAL": 20,
            "TEXCOORD_0": 21
          },
          "mode": 4,
          "material": 0,
          "indices": 4
        }
      ]
    },
    {
      "primitives": [
        {
          "attributes": {
            "POSITION": 22,
            "NORMAL": 23,
            "TEXCOORD_0": 24
          },
          "mode": 4,
          "material": 0,
          "indices": 5
        }
      ]
    },
    {
      "primitives": [
        {
          "attributes": {
            "POSITION": 25,
            "NORMAL": 26,
            "TEXCOORD_0": 27
          },
          "mode": 4,
          "material": 0,
          "indices": 6
        }
      ]
    }
  ],
  "nodes": [
    {
      "name": "oak-tree-small",
      "translation": [
        -0.0625,
        0,
        -0.0625
      ],
      "mesh": 0
    },
    {
      "name": "oak-tree-small",
      "translation": [
        0.4405649789151479,
        1.3786634641061655,
        0.29592187894585825
      ],
      "rotation": [
        0.15730853118792457,
        -0.3746319674468375,
        -0.24267694100551437,
        0.8809158968293259
      ],
      "mesh": 1
    },
    {
      "name": "oak-tree-small",
      "translation": [
        -0.3230470670547919,
        0.5038770470521627,
        0.09474643614658142
      ],
      "rotation": [
        0.5209987784239105,
        -0.4681689126216043,
        0.6601800770905485,
        0.2711833474758638
      ],
      "mesh": 6
    },
    {
      "name": "bone4",
      "translation": [
        -0.03400752108485186,
        0.45886908910616553,
        0.00740937894585824
      ],
      "rotation": [
        -0.47341693560480685,
        0.040454771997769895,
        0.004666000456036663,
        0.8798966103724386
      ],
      "children": [
        2
      ]
    },
    {
      "name": "oak-tree-small",
      "translation": [
        -0.05614294761408889,
        -0.10543187500000029,
        0.47875422890977726
      ],
      "rotation": [
        0.5225812393361053,
        -0.46796233889267236,
        -0.24980589201096332,
        0.6674706839919238
      ],
      "mesh": 2
    },
    {
      "name": "bone3",
      "translation": [
        -0.09097939608485205,
        1.4755615891061655,
        -0.23162999605414125
      ],
      "rotation": [
        0,
        -0.5555702330196022,
        0,
        0.8314696123025452
      ],
      "children": [
        4
      ]
    },
    {
      "name": "oak-tree-small",
      "translation": [
        0.3006650000000016,
        0.4886243750000001,
        0.41967437499999977
      ],
      "rotation": [
        -0.36636264418895725,
        -0.47786986322504993,
        -0.7721899138905763,
        0.20283378330498053
      ],
      "mesh": 3
    },
    {
      "name": "bone",
      "translation": [
        0.35554122891514794,
        0.8564247141061654,
        -0.14277374605414106
      ],
      "rotation": [
        0,
        0.6087614290087207,
        0,
        0.7933533402912352
      ],
      "children": [
        6
      ]
    },
    {
      "name": "oak-tree-small",
      "translation": [
        -0.3398156250000002,
        0.12024999999999997,
        -0.022891739155692287
      ],
      "rotation": [
        -0.001968685077694564,
        -0.4063141756038736,
        -0.11290766021617399,
        0.9067286116842892
      ],
      "mesh": 4
    },
    {
      "name": "bone2",
      "translation": [
        0.056724353915148185,
        0.9088572141061655,
        0.08385062894585837
      ],
      "rotation": [
        0,
        0.9659258262890683,
        0,
        0.25881904510252074
      ],
      "children": [
        8
      ]
    },
    {
      "name": "oak-tree-small",
      "translation": [
        -0.29543187500000034,
        0.629450625,
        -0.045374375000000286
      ],
      "rotation": [
        -0.016782307875994135,
        -0.3582627586328687,
        0.2443641600463487,
        0.9009174807960851
      ],
      "mesh": 5
    },
    {
      "name": "bone6",
      "translation": [
        -0.003163146084851784,
        1.6928184641061654,
        0.07591562894585893
      ],
      "children": [
        10
      ]
    },
    {
      "name": "bone5",
      "translation": [
        -0.08886196636205236,
        -1.8144806197242462,
        0.031746607817149684
      ],
      "children": [
        1,
        3,
        5,
        7,
        9,
        11
      ]
    },
    {
      "name": "root",
      "translation": [
        0.078858125,
        3.17973,
        -0.09397625
      ],
      "children": [
        12
      ]
    }
  ],
  "animations": [
    {
      "name": "idle",
      "samplers": [
        {
          "input": 28,
          "output": 29,
          "interpolation": "LINEAR"
        },
        {
          "input": 30,
          "output": 31,
          "interpolation": "LINEAR"
        }
      ],
      "channels": [
        {
          "sampler": 0,
          "target": {
            "node": 12,
            "path": "rotation"
          }
        },
        {
          "sampler": 1,
          "target": {
            "node": 9,
            "path": "rotation"
          }
        }
      ]
    }
  ],
  "scenes": [
    {
      "name": "blockbench_export",
      "nodes": [
        13,
        0
      ]
    }
  ],
  "scene": 0
}