{
  "asset": {
    "generator": "glTF-Transform v4.1.3",
    "version": "2.0"
  },
  "accessors": [
    {
      "type": "SCALAR",
      "componentType": 5126,
      "count": 4,
      "max": [
        2.4000000953674316
      ],
      "min": [
        0
      ],
      "bufferView": 0,
      "byteOffset": 0
    },
    {
      "type": "VEC3",
      "componentType": 5126,
      "count": 4,
      "bufferView": 0,
      "byteOffset": 16
    },
    {
      "type": "VEC4",
      "componentType": 5126,
      "count": 1,
      "bufferView": 0,
      "byteOffset": 64
    },
    {
      "type": "VEC4",
      "componentType": 5126,
      "count": 1,
      "bufferView": 0,
      "byteOffset": 80
    },
    {
      "type": "SCALAR",
      "componentType": 5126,
      "count": 27,
      "max": [
        4.559999942779541
      ],
      "min": [
        0
      ],
      "bufferView": 0,
      "byteOffset": 96
    },
    {
      "type": "VEC4",
      "componentType": 5126,
      "count": 27,
      "bufferView": 0,
      "byteOffset": 204
    },
    {
      "type": "SCALAR",
      "componentType": 5126,
      "count": 22,
      "max": [
        4.559999942779541
      ],
      "min": [
        0
      ],
      "bufferView": 0,
      "byteOffset": 636
    },
    {
      "type": "VEC3",
      "componentType": 5126,
      "count": 22,
      "bufferView": 0,
      "byteOffset": 724
    },
    {
      "type": "SCALAR",
      "componentType": 5126,
      "count": 59,
      "max": [
        4.559999942779541
      ],
      "min": [
        0
      ],
      "bufferView": 0,
      "byteOffset": 988
    },
    {
      "type": "VEC4",
      "componentType": 5126,
      "count": 59,
      "bufferView": 0,
      "byteOffset": 1224
    },
    {
      "type": "SCALAR",
      "componentType": 5126,
      "count": 12,
      "max": [
        4.559999942779541
      ],
      "min": [
        0
      ],
      "bufferView": 0,
      "byteOffset": 2168
    },
    {
      "type": "VEC3",
      "componentType": 5126,
      "count": 12,
      "bufferView": 0,
      "byteOffset": 2216
    },
    {
      "type": "VEC4",
      "componentType": 5126,
      "count": 59,
      "bufferView": 0,
      "byteOffset": 2360
    },
    {
      "type": "VEC3",
      "componentType": 5126,
      "count": 12,
      "bufferView": 0,
      "byteOffset": 3304
    },
    {
      "type": "SCALAR",
      "componentType": 5126,
      "count": 47,
      "max": [
        4.559999942779541
      ],
      "min": [
        0
      ],
      "bufferView": 0,
      "byteOffset": 3448
    },
    {
      "type": "VEC4",
      "componentType": 5126,
      "count": 47,
      "bufferView": 0,
      "byteOffset": 3636
    },
    {
      "type": "SCALAR",
      "componentType": 5126,
      "count": 1,
      "max": [
        0
      ],
      "min": [
        0
      ]
    },
    {
      "type": "SCALAR",
      "componentType": 5123,
      "count": 72,
      "bufferView": 1,
      "byteOffset": 0
    },
    {
      "type": "SCALAR",
      "componentType": 5123,
      "count": 6,
      "bufferView": 1,
      "byteOffset": 144
    },
    {
      "type": "SCALAR",
      "componentType": 5123,
      "count": 228,
      "bufferView": 1,
      "byteOffset": 156
    },
    {
      "type": "SCALAR",
      "componentType": 5123,
      "count": 288,
      "bufferView": 1,
      "byteOffset": 612
    },
    {
      "type": "SCALAR",
      "componentType": 5123,
      "count": 366,
      "bufferView": 1,
      "byteOffset": 1188
    },
    {
      "type": "SCALAR",
      "componentType": 5123,
      "count": 66,
      "bufferView": 1,
      "byteOffset": 1920
    },
    {
      "type": "VEC3",
      "componentType": 5126,
      "count": 48,
      "max": [
        -0.24015888571739197,
        1.5625001192092896,
        0.12562501430511475
      ],
      "min": [
        -0.7391772270202637,
        0.8125,
        -0.12562499940395355
      ],
      "bufferView": 2,
      "byteOffset": 0
    },
    {
      "type": "VEC3",
      "componentType": 5126,
      "count": 48,
      "bufferView": 2,
      "byteOffset": 12
    },
    {
      "type": "VEC2",
      "componentType": 5126,
      "count": 48,
      "bufferView": 2,
      "byteOffset": 24
    },
    {
      "type": "VEC3",
      "componentType": 5126,
      "count": 48,
      "max": [
        -0.0156248789280653,
        0.07175319641828537,
        0.12562501430511475
      ],
      "min": [
        -0.475864976644516,
        -0.6929095983505249,
        -0.12562499940395355
      ],
      "bufferView": 3,
      "byteOffset": 0
    },
    {
      "type": "VEC2",
      "componentType": 5126,
      "count": 48,
      "bufferView": 3,
      "byteOffset": 12
    },
    {
      "type": "VEC3",
      "componentType": 5126,
      "count": 48,
      "bufferView": 3,
      "byteOffset": 20
    },
    {
      "type": "VEC3",
      "componentType": 5126,
      "count": 4,
      "max": [
        0.0625,
        0.0625,
        -0.0625
      ],
      "min": [
        -0.0625,
        -0.0625,
        -0.0625
      ],
      "bufferView": 4,
      "byteOffset": 0
    },
    {
      "type": "VEC2",
      "componentType": 5126,
      "count": 4,
      "bufferView": 4,
      "byteOffset": 12
    },
    {
      "type": "VEC3",
      "componentType": 5126,
      "count": 4,
      "bufferView": 4,
      "byteOffset": 20
    },
    {
      "type": "VEC3",
      "componentType": 5126,
      "count": 4,
      "max": [
        0.125,
        0.09375,
        -0.0625
      ],
      "min": [
        -0.125,
        -0.09375,
        -0.0625
      ],
      "bufferView": 5,
      "byteOffset": 0
    },
    {
      "type": "VEC2",
      "componentType": 5126,
      "count": 4,
      "bufferView": 5,
      "byteOffset": 12
    },
    {
      "type": "VEC2",
      "componentType": 5126,
      "count": 4,
      "bufferView": 6,
      "byteOffset": 0
    },
    {
      "type": "VEC2",
      "componentType": 5126,
      "count": 4,
      "bufferView": 7,
      "byteOffset": 0
    },
    {
      "type": "VEC3",
      "componentType": 5126,
      "count": 152,
      "max": [
        0.6806897521018982,
        1.3363045454025269,
        0.5637500286102295
      ],
      "min": [
        -0.6806897521018982,
        -0.01547362469136715,
        -0.6262500286102295
      ],
      "bufferView": 8,
      "byteOffset": 0
    },
    {
      "type": "VEC2",
      "componentType": 5126,
      "count": 152,
      "bufferView": 8,
      "byteOffset": 12
    },
    {
      "type": "VEC3",
      "componentType": 5126,
      "count": 152,
      "bufferView": 8,
      "byteOffset": 20
    },
    {
      "type": "VEC3",
      "componentType": 5126,
      "count": 192,
      "max": [
        0.47259172797203064,
        0.40625,
        0.7225916981697083
      ],
      "min": [
        -0.47259172797203064,
        -0.15625,
        -0.10300314426422119
      ],
      "bufferView": 9,
      "byteOffset": 0
    },
    {
      "type": "VEC2",
      "componentType": 5126,
      "count": 192,
      "bufferView": 9,
      "byteOffset": 12
    },
    {
      "type": "VEC3",
      "componentType": 5126,
      "count": 192,
      "bufferView": 9,
      "byteOffset": 20
    },
    {
      "type": "VEC3",
      "componentType": 5126,
      "count": 244,
      "max": [
        0.47340837121009827,
        0.27432820200920105,
        0.3723260462284088
      ],
      "min": [
        -0.4734083116054535,
        -0.9672520160675049,
        -0.34187498688697815
      ],
      "bufferView": 10,
      "byteOffset": 0
    },
    {
      "type": "VEC2",
      "componentType": 5126,
      "count": 244,
      "bufferView": 10,
      "byteOffset": 12
    },
    {
      "type": "VEC3",
      "componentType": 5126,
      "count": 244,
      "bufferView": 10,
      "byteOffset": 20
    },
    {
      "type": "VEC3",
      "componentType": 5126,
      "count": 44,
      "max": [
        0,
        -0.3800194561481476,
        0.5631250143051147
      ],
      "min": [
        -0.3125,
        -0.625,
        0.014897587709128857
      ],
      "bufferView": 11,
      "byteOffset": 0
    },
    {
      "type": "VEC2",
      "componentType": 5126,
      "count": 44,
      "bufferView": 11,
      "byteOffset": 12
    },
    {
      "type": "VEC3",
      "componentType": 5126,
      "count": 44,
      "bufferView": 11,
      "byteOffset": 20
    },
    {
      "type": "VEC3",
      "componentType": 5126,
      "count": 48,
      "max": [
        0.009645126760005951,
        0.1875,
        0.21875
      ],
      "min": [
        -0.38464513421058655,
        -0.5,
        -0.15625
      ],
      "bufferView": 12,
      "byteOffset": 0
    },
    {
      "type": "VEC2",
      "componentType": 5126,
      "count": 48,
      "bufferView": 12,
      "byteOffset": 12
    },
    {
      "type": "VEC3",
      "componentType": 5126,
      "count": 48,
      "bufferView": 12,
      "byteOffset": 20
    },
    {
      "type": "VEC3",
      "componentType": 5126,
      "count": 44,
      "max": [
        0.3125,
        -0.3800194561481476,
        0.5631250143051147
      ],
      "min": [
        0,
        -0.625,
        0.014897587709128857
      ],
      "bufferView": 13,
      "byteOffset": 0
    },
    {
      "type": "VEC2",
      "componentType": 5126,
      "count": 44,
      "bufferView": 13,
      "byteOffset": 12
    },
    {
      "type": "VEC2",
      "componentType": 5126,
      "count": 48,
      "bufferView": 14,
      "byteOffset": 0
    },
    {
      "type": "VEC3",
      "componentType": 5126,
      "count": 48,
      "max": [
        0.2589912414550781,
        0.3365477919578552,
        0.1875
      ],
      "min": [
        -0.2350735068321228,
        -0.3942902684211731,
        -0.1875
      ],
      "bufferView": 14,
      "byteOffset": 8
    },
    {
      "type": "VEC3",
      "componentType": 5126,
      "count": 24,
      "max": [
        0.4375,
        2.125,
        0.3125
      ],
      "min": [
        -0.4375,
        0,
        -0.4375
      ],
      "bufferView": 15,
      "byteOffset": 0
    },
    {
      "type": "VEC2",
      "componentType": 5126,
      "count": 24,
      "bufferView": 15,
      "byteOffset": 12
    },
    {
      "type": "VEC3",
      "componentType": 5126,
      "count": 24,
      "bufferView": 15,
      "byteOffset": 20
    }
  ],
  "bufferViews": [
    {
      "buffer": 0,
      "byteOffset": 0,
      "byteLength": 4388
    },
    {
      "buffer": 0,
      "byteOffset": 4388,
      "byteLength": 2052,
      "target": 34963
    },
    {
      "buffer": 0,
      "byteOffset": 6440,
      "byteLength": 1536,
      "byteStride": 32,
      "target": 34962
    },
    {
      "buffer": 0,
      "byteOffset": 7976,
      "byteLength": 1536,
      "byteStride": 32,
      "target": 34962
    },
    {
      "buffer": 0,
      "byteOffset": 9512,
      "byteLength": 128,
      "byteStride": 32,
      "target": 34962
    },
    {
      "buffer": 0,
      "byteOffset": 9640,
      "byteLength": 80,
      "byteStride": 20,
      "target": 34962
    },
    {
      "buffer": 0,
      "byteOffset": 9720,
      "byteLength": 32,
      "byteStride": 8,
      "target": 34962
    },
    {
      "buffer": 0,
      "byteOffset": 9752,
      "byteLength": 32,
      "byteStride": 8,
      "target": 34962
    },
    {
      "buffer": 0,
      "byteOffset": 9784,
      "byteLength": 4864,
      "byteStride": 32,
      "target": 34962
    },
    {
      "buffer": 0,
      "byteOffset": 14648,
      "byteLength": 6144,
      "byteStride": 32,
      "target": 34962
    },
    {
      "buffer": 0,
      "byteOffset": 20792,
      "byteLength": 7808,
      "byteStride": 32,
      "target": 34962
    },
    {
      "buffer": 0,
      "byteOffset": 28600,
      "byteLength": 1408,
      "byteStride": 32,
      "target": 34962
    },
    {
      "buffer": 0,
      "byteOffset": 30008,
      "byteLength": 1536,
      "byteStride": 32,
      "target": 34962
    },
    {
      "buffer": 0,
      "byteOffset": 31544,
      "byteLength": 880,
      "byteStride": 20,
      "target": 34962
    },
    {
      "buffer": 0,
      "byteOffset": 32424,
      "byteLength": 960,
      "byteStride": 20,
      "target": 34962
    },
    {
      "buffer": 0,
      "byteOffset": 33384,
      "byteLength": 768,
      "byteStride": 32,
      "target": 34962
    }
  ],
  "samplers": [
    {
      "magFilter": 9728,
      "minFilter": 9728,
      "wrapS": 33071,
      "wrapT": 33071
    }
  ],
  "textures": [
    {
      "source": 0,
      "sampler": 0
    }
  ],
  "images": [
    {
      "mimeType": "image/png",
      "uri": "baseColor.png"
    }
  ],
  "buffers": [
    {
      "uri": "witch.bin",
      "byteLength": 34152
    }
  ],
  "materials": [
    {
      "alphaMode": "MASK",
      "alphaCutoff": 0.05,
      "doubleSided": true,
      "pbrMetallicRoughness": {
        "metallicFactor": 0,
        "baseColorTexture": {
          "index": 0
        }
      }
    },
    {
      "alphaMode": "MASK",
      "alphaCutoff": 0.2,
      "pbrMetallicRoughness": {
        "baseColorFactor": [
          0.00030352698352941176,
          0,
          0.00030352698352941176,
          0
        ],
        "metallicFactor": 0
      }
    }
  ],
  "meshes": [
    {
      "primitives": [
        {
          "attributes": {
            "POSITION": 23,
            "NORMAL": 24,
            "TEXCOORD_0": 25
          },
          "mode": 4,
          "material": 0,
          "indices": 17
        }
      ]
    },
    {
      "primitives": [
        {
          "attributes": {
            "POSITION": 26,
            "TEXCOORD_0": 27,
            "NORMAL": 28
          },
          "mode": 4,
          "material": 0,
          "indices": 17
        }
      ]
    },
    {
      "primitives": [
        {
          "attributes": {
            "POSITION": 29,
            "TEXCOORD_0": 30,
            "NORMAL": 31
          },
          "mode": 4,
          "material": 0,
          "indices": 18
        }
      ]
    },
    {
      "primitives": [
        {
          "attributes": {
            "POSITION": 32,
            "TEXCOORD_0": 33,
            "NORMAL": 31
          },
          "mode": 4,
          "material": 0,
          "indices": 18
        }
      ]
    },
    {
      "primitives": [
        {
          "attributes": {
            "TEXCOORD_0": 34,
            "POSITION": 29,
            "NORMAL": 31
          },
          "mode": 4,
          "material": 0,
          "indices": 18
        }
      ]
    },
    {
      "primitives": [
        {
          "attributes": {
            "TEXCOORD_0": 35,
            "POSITION": 32,
            "NORMAL": 31
          },
          "mode": 4,
          "material": 0,
          "indices": 18
        }
      ]
    },
    {
      "primitives": [
        {
          "attributes": {
            "POSITION": 36,
            "TEXCOORD_0": 37,
            "NORMAL": 38
          },
          "mode": 4,
          "material": 0,
          "indices": 19
        }
      ]
    },
    {
      "primitives": [
        {
          "attributes": {
            "POSITION": 39,
            "TEXCOORD_0": 40,
            "NORMAL": 41
          },
          "mode": 4,
          "material": 0,
          "indices": 20
        }
      ]
    },
    {
      "primitives": [
        {
          "attributes": {
            "POSITION": 42,
            "TEXCOORD_0": 43,
            "NORMAL": 44
          },
          "mode": 4,
          "material": 0,
          "indices": 21
        }
      ]
    },
    {
      "primitives": [
        {
          "attributes": {
            "POSITION": 45,
            "TEXCOORD_0": 46,
            "NORMAL": 47
          },
          "mode": 4,
          "material": 0,
          "indices": 22
        }
      ]
    },
    {
      "primitives": [
        {
          "attributes": {
            "POSITION": 48,
            "TEXCOORD_0": 49,
            "NORMAL": 50
          },
          "mode": 4,
          "material": 0,
          "indices": 17
        }
      ]
    },
    {
      "primitives": [
        {
          "attributes": {
            "POSITION": 51,
            "TEXCOORD_0": 52,
            "NORMAL": 47
          },
          "mode": 4,
          "material": 0,
          "indices": 22
        }
      ]
    },
    {
      "primitives": [
        {
          "attributes": {
            "TEXCOORD_0": 53,
            "POSITION": 54,
            "NORMAL": 50
          },
          "mode": 4,
          "material": 0,
          "indices": 17
        }
      ]
    },
    {
      "primitives": [
        {
          "attributes": {
            "POSITION": 55,
            "TEXCOORD_0": 56,
            "NORMAL": 57
          },
          "mode": 4,
          "material": 1
        }
      ]
    }
  ],
  "nodes": [
    {
      "name": "cube",
      "translation": [
        0.34375,
        -1.46875,
        0
      ],
      "mesh": 0
    },
    {
      "name": "l_leftArm",
      "translation": [
        -0.3125,
        0.53125,
        0
      ],
      "children": [
        0
      ]
    },
    {
      "name": "cube",
      "translation": [
        0.170685625,
        0.0997293749999999,
        0
      ],
      "rotation": [
        0,
        0,
        0.19509032201612825,
        0.9807852804032304
      ],
      "mesh": 1
    },
    {
      "name": "r_rightArm",
      "translation": [
        0.3125,
        0.53125,
        0
      ],
      "children": [
        2
      ]
    },
    {
      "name": "cube",
      "translation": [
        0,
        0,
        0.0625
      ],
      "mesh": 2
    },
    {
      "name": "h_leftPupil",
      "translation": [
        0.015625,
        -0.015625,
        -0.00031249999999999334
      ],
      "children": [
        4
      ]
    },
    {
      "name": "cube",
      "translation": [
        -0.015625,
        0.015625,
        0.0628125
      ],
      "mesh": 3
    },
    {
      "name": "h_leftEye",
      "translation": [
        -0.203125,
        0.203125,
        -0.2840625
      ],
      "children": [
        5,
        6
      ]
    },
    {
      "name": "cube",
      "translation": [
        0,
        0,
        0.0625
      ],
      "mesh": 4
    },
    {
      "name": "h_rightPupil",
      "translation": [
        -0.015625,
        -0.015625,
        -0.00031249999999999334
      ],
      "children": [
        8
      ]
    },
    {
      "name": "cube",
      "translation": [
        0.015625,
        0.015625,
        0.0628125
      ],
      "mesh": 5
    },
    {
      "name": "h_rightEye",
      "translation": [
        0.203125,
        0.203125,
        -0.2840625
      ],
      "children": [
        9,
        10
      ]
    },
    {
      "name": "cube",
      "translation": [
        0,
        -0.25,
        0.03125
      ],
      "mesh": 6
    },
    {
      "name": "h_hat",
      "translation": [
        0,
        0.4375,
        0
      ],
      "children": [
        12
      ]
    },
    {
      "name": "cube",
      "translation": [
        0,
        0.15625,
        -0.25
      ],
      "mesh": 7
    },
    {
      "name": "h_head",
      "translation": [
        0,
        0.625,
        0
      ],
      "children": [
        7,
        11,
        13,
        14
      ]
    },
    {
      "name": "cube",
      "translation": [
        0,
        0.5,
        0
      ],
      "mesh": 8
    },
    {
      "name": "body",
      "translation": [
        0,
        0.875,
        0
      ],
      "children": [
        1,
        3,
        15,
        16
      ]
    },
    {
      "name": "cube",
      "translation": [
        0.15625,
        0.4375,
        -0.4375
      ],
      "mesh": 9
    },
    {
      "name": "l_leftLeg2",
      "translation": [
        0,
        -0.5625,
        -0.000625
      ],
      "children": [
        18
      ]
    },
    {
      "name": "cube",
      "translation": [
        0.1875,
        -0.125,
        -0.031875
      ],
      "mesh": 10
    },
    {
      "name": "l_leftLeg",
      "translation": [
        -0.15625,
        0.75,
        0.000625
      ],
      "children": [
        19,
        20
      ]
    },
    {
      "name": "cube",
      "translation": [
        -0.15625,
        0.4375,
        -0.4375
      ],
      "mesh": 11
    },
    {
      "name": "r_rightLeg2",
      "translation": [
        0,
        -0.5625,
        -0.000625
      ],
      "children": [
        22
      ]
    },
    {
      "name": "cube",
      "translation": [
        0,
        -0.25,
        -0.000625
      ],
      "rotation": [
        0,
        0,
        -0.19509032201612825,
        0.9807852804032304
      ],
      "mesh": 12
    },
    {
      "name": "r_rightLeg",
      "translation": [
        0.15625,
        0.75,
        0.000625
      ],
      "children": [
        23,
        24
      ]
    },
    {
      "name": "witch",
      "children": [
        17,
        21,
        25
      ]
    },
    {
      "name": "cube",
      "mesh": 13
    }
  ],
  "animations": [
    {
      "name": "idle",
      "samplers": [
        {
          "input": 4,
          "output": 5,
          "interpolation": "LINEAR"
        },
        {
          "input": 6,
          "output": 7,
          "interpolation": "LINEAR"
        },
        {
          "input": 8,
          "output": 9,
          "interpolation": "LINEAR"
        },
        {
          "input": 10,
          "output": 11,
          "interpolation": "LINEAR"
        },
        {
          "input": 8,
          "output": 12,
          "interpolation": "LINEAR"
        },
        {
          "input": 10,
          "output": 13,
          "interpolation": "LINEAR"
        },
        {
          "input": 14,
          "output": 15,
          "interpolation": "LINEAR"
        },
        {
          "input": 0,
          "output": 1,
          "interpolation": "LINEAR"
        },
        {
          "input": 0,
          "output": 1,
          "interpolation": "LINEAR"
        },
        {
          "input": 16,
          "output": 2,
          "interpolation": "LINEAR"
        },
        {
          "input": 16,
          "output": 3,
          "interpolation": "LINEAR"
        }
      ],
      "channels": [
        {
          "sampler": 0,
          "target": {
            "node": 17,
            "path": "rotation"
          }
        },
        {
          "sampler": 1,
          "target": {
            "node": 17,
            "path": "translation"
          }
        },
        {
          "sampler": 2,
          "target": {
            "node": 1,
            "path": "rotation"
          }
        },
        {
          "sampler": 3,
          "target": {
            "node": 1,
            "path": "translation"
          }
        },
        {
          "sampler": 4,
          "target": {
            "node": 3,
            "path": "rotation"
          }
        },
        {
          "sampler": 5,
          "target": {
            "node": 3,
            "path": "translation"
          }
        },
        {
          "sampler": 6,
          "target": {
            "node": 15,
            "path": "rotation"
          }
        },
        {
          "sampler": 7,
          "target": {
            "node": 7,
            "path": "scale"
          }
        },
        {
          "sampler": 8,
          "target": {
            "node": 11,
            "path": "scale"
          }
        },
        {
          "sampler": 9,
          "target": {
            "node": 21,
            "path": "rotation"
          }
        },
        {
          "sampler": 10,
          "target": {
            "node": 25,
            "path": "rotation"
          }
        }
      ]
    }
  ],
  "scenes": [
    {
      "name": "blockbench_export",
      "nodes": [
        26,
        27
      ]
    }
  ],
  "scene": 0
}