{
  "asset": {
    "generator": "glTF-Transform v4.1.3",
    "version": "2.0"
  },
  "accessors": [
    {
      "type": "SCALAR",
      "componentType": 5126,
      "count": 4,
      "max": [
        10
      ],
      "min": [
        0
      ],
      "bufferView": 0,
      "byteOffset": 0
    },
    {
      "type": "VEC4",
      "componentType": 5126,
      "count": 4,
      "bufferView": 0,
      "byteOffset": 16
    },
    {
      "type": "SCALAR",
      "componentType": 5126,
      "count": 159,
      "max": [
        10
      ],
      "min": [
        0
      ],
      "bufferView": 0,
      "byteOffset": 80
    },
    {
      "type": "VEC3",
      "componentType": 5126,
      "count": 159,
      "bufferView": 0,
      "byteOffset": 716
    },
    {
      "type": "SCALAR",
      "componentType": 5123,
      "count": 36,
      "bufferView": 1,
      "byteOffset": 0
    },
    {
      "type": "SCALAR",
      "componentType": 5123,
      "count": 36,
      "bufferView": 1,
      "byteOffset": 72
    },
    {
      "type": "VEC3",
      "componentType": 5126,
      "count": 24,
      "max": [
        0.1875,
        0.25,
        0.1875
      ],
      "min": [
        -0.4375,
        0,
        -0.0625
      ],
      "bufferView": 2,
      "byteOffset": 0
    },
    {
      "type": "VEC3",
      "componentType": 5126,
      "count": 24,
      "bufferView": 2,
      "byteOffset": 12
    },
    {
      "type": "VEC2",
      "componentType": 5126,
      "count": 24,
      "bufferView": 2,
      "byteOffset": 24
    },
    {
      "type": "VEC3",
      "componentType": 5126,
      "count": 24,
      "max": [
        0.5625,
        0.25,
        0.1875
      ],
      "min": [
        -0.0625,
        0,
        -0.0625
      ],
      "bufferView": 3,
      "byteOffset": 0
    },
    {
      "type": "VEC2",
      "componentType": 5126,
      "count": 24,
      "bufferView": 3,
      "byteOffset": 12
    },
    {
      "type": "VEC2",
      "componentType": 5126,
      "count": 24,
      "bufferView": 4,
      "byteOffset": 0
    },
    {
      "type": "VEC3",
      "componentType": 5126,
      "count": 24,
      "max": [
        0.5,
        0.3125,
        0.1875
      ],
      "min": [
        -0.0625,
        0,
        -0.0625
      ],
      "bufferView": 5,
      "byteOffset": 0
    },
    {
      "type": "VEC2",
      "componentType": 5126,
      "count": 24,
      "bufferView": 5,
      "byteOffset": 12
    },
    {
      "type": "VEC3",
      "componentType": 5126,
      "count": 24,
      "max": [
        0.1875,
        0.3125,
        0.1875
      ],
      "min": [
        -0.375,
        0,
        -0.0625
      ],
      "bufferView": 6,
      "byteOffset": 0
    },
    {
      "type": "VEC2",
      "componentType": 5126,
      "count": 24,
      "bufferView": 6,
      "byteOffset": 12
    },
    {
      "type": "VEC3",
      "componentType": 5126,
      "count": 24,
      "max": [
        1.375,
        0.3125,
        0.1875
      ],
      "min": [
        -0.25,
        0,
        -0.0625
      ],
      "bufferView": 7,
      "byteOffset": 0
    },
    {
      "type": "VEC2",
      "componentType": 5126,
      "count": 24,
      "bufferView": 7,
      "byteOffset": 12
    },
    {
      "type": "VEC2",
      "componentType": 5126,
      "count": 24,
      "bufferView": 8,
      "byteOffset": 0
    },
    {
      "type": "VEC3",
      "componentType": 5126,
      "count": 24,
      "max": [
        0.125,
        0.5,
        0.1875
      ],
      "min": [
        -0.5,
        0,
        -0.0625
      ],
      "bufferView": 9,
      "byteOffset": 0
    },
    {
      "type": "VEC2",
      "componentType": 5126,
      "count": 24,
      "bufferView": 9,
      "byteOffset": 12
    },
    {
      "type": "VEC3",
      "componentType": 5126,
      "count": 24,
      "max": [
        0.625,
        0.5,
        0.1875
      ],
      "min": [
        0,
        0,
        -0.0625
      ],
      "bufferView": 10,
      "byteOffset": 0
    },
    {
      "type": "VEC2",
      "componentType": 5126,
      "count": 24,
      "bufferView": 10,
      "byteOffset": 12
    },
    {
      "type": "VEC2",
      "componentType": 5126,
      "count": 24,
      "bufferView": 11,
      "byteOffset": 0
    },
    {
      "type": "VEC3",
      "componentType": 5126,
      "count": 24,
      "max": [
        0.625,
        0.5,
        0.1875
      ],
      "min": [
        0.0625,
        0,
        -0.0625
      ],
      "bufferView": 12,
      "byteOffset": 0
    },
    {
      "type": "VEC2",
      "componentType": 5126,
      "count": 24,
      "bufferView": 12,
      "byteOffset": 12
    },
    {
      "type": "VEC3",
      "componentType": 5126,
      "count": 24,
      "max": [
        0.0625,
        0.5,
        0.1875
      ],
      "min": [
        -0.5,
        0,
        -0.0625
      ],
      "bufferView": 13,
      "byteOffset": 0
    },
    {
      "type": "VEC2",
      "componentType": 5126,
      "count": 24,
      "bufferView": 13,
      "byteOffset": 12
    },
    {
      "type": "VEC2",
      "componentType": 5126,
      "count": 24,
      "bufferView": 14,
      "byteOffset": 0
    },
    {
      "type": "VEC2",
      "componentType": 5126,
      "count": 24,
      "bufferView": 15,
      "byteOffset": 0
    },
    {
      "type": "VEC2",
      "componentType": 5126,
      "count": 24,
      "bufferView": 16,
      "byteOffset": 0
    },
    {
      "type": "VEC3",
      "componentType": 5126,
      "count": 19,
      "max": [
        1.412500023841858,
        -9.860761315262648e-32,
        1.412500023841858
      ],
      "min": [
        -1.412500023841858,
        -9.860761315262648e-32,
        -1.412500023841858
      ],
      "bufferView": 17,
      "byteOffset": 0
    },
    {
      "type": "VEC3",
      "componentType": 5126,
      "count": 19,
      "bufferView": 17,
      "byteOffset": 12
    },
    {
      "type": "VEC2",
      "componentType": 5126,
      "count": 19,
      "bufferView": 17,
      "byteOffset": 24
    },
    {
      "type": "VEC2",
      "componentType": 5126,
      "count": 19,
      "bufferView": 18,
      "byteOffset": 0
    }
  ],
  "bufferViews": [
    {
      "buffer": 0,
      "byteOffset": 0,
      "byteLength": 2624
    },
    {
      "buffer": 0,
      "byteOffset": 2624,
      "byteLength": 144,
      "target": 34963
    },
    {
      "buffer": 0,
      "byteOffset": 2768,
      "byteLength": 768,
      "byteStride": 32,
      "target": 34962
    },
    {
      "buffer": 0,
      "byteOffset": 3536,
      "byteLength": 480,
      "byteStride": 20,
      "target": 34962
    },
    {
      "buffer": 0,
      "byteOffset": 4016,
      "byteLength": 192,
      "byteStride": 8,
      "target": 34962
    },
    {
      "buffer": 0,
      "byteOffset": 4208,
      "byteLength": 480,
      "byteStride": 20,
      "target": 34962
    },
    {
      "buffer": 0,
      "byteOffset": 4688,
      "byteLength": 480,
      "byteStride": 20,
      "target": 34962
    },
    {
      "buffer": 0,
      "byteOffset": 5168,
      "byteLength": 480,
      "byteStride": 20,
      "target": 34962
    },
    {
      "buffer": 0,
      "byteOffset": 5648,
      "byteLength": 192,
      "byteStride": 8,
      "target": 34962
    },
    {
      "buffer": 0,
      "byteOffset": 5840,
      "byteLength": 480,
      "byteStride": 20,
      "target": 34962
    },
    {
      "buffer": 0,
      "byteOffset": 6320,
      "byteLength": 480,
      "byteStride": 20,
      "target": 34962
    },
    {
      "buffer": 0,
      "byteOffset": 6800,
      "byteLength": 192,
      "byteStride": 8,
      "target": 34962
    },
    {
      "buffer": 0,
      "byteOffset": 6992,
      "byteLength": 480,
      "byteStride": 20,
      "target": 34962
    },
    {
      "buffer": 0,
      "byteOffset": 7472,
      "byteLength": 480,
      "byteStride": 20,
      "target": 34962
    },
    {
      "buffer": 0,
      "byteOffset": 7952,
      "byteLength": 192,
      "byteStride": 8,
      "target": 34962
    },
    {
      "buffer": 0,
      "byteOffset": 8144,
      "byteLength": 192,
      "byteStride": 8,
      "target": 34962
    },
    {
      "buffer": 0,
      "byteOffset": 8336,
      "byteLength": 192,
      "byteStride": 8,
      "target": 34962
    },
    {
      "buffer": 0,
      "byteOffset": 8528,
      "byteLength": 608,
      "byteStride": 32,
      "target": 34962
    },
    {
      "buffer": 0,
      "byteOffset": 9136,
      "byteLength": 152,
      "byteStride": 8,
      "target": 34962
    }
  ],
  "samplers": [
    {
      "magFilter": 9728,
      "minFilter": 9728,
      "wrapS": 33071,
      "wrapT": 33071
    }
  ],
  "textures": [
    {
      "source": 0,
      "sampler": 0
    },
    {
      "source": 1,
      "sampler": 0
    },
    {
      "source": 2,
      "sampler": 0
    }
  ],
  "images": [
    {
      "mimeType": "image/png",
      "uri": "baseColor_1.png"
    },
    {
      "mimeType": "image/png",
      "uri": "baseColor_2.png"
    },
    {
      "mimeType": "image/png",
      "uri": "baseColor_3.png"
    }
  ],
  "buffers": [
    {
      "uri": "portal-named-nodes.bin",
      "byteLength": 9288
    }
  ],
  "materials": [
    {
      "alphaMode": "MASK",
      "alphaCutoff": 0.05,
      "doubleSided": true,
      "pbrMetallicRoughness": {
        "metallicFactor": 0,
        "baseColorTexture": {
          "index": 0
        }
      }
    },
    {
      "alphaMode": "MASK",
      "alphaCutoff": 0.05,
      "doubleSided": true,
      "pbrMetallicRoughness": {
        "metallicFactor": 0,
        "baseColorTexture": {
          "index": 1
        }
      }
    },
    {
      "alphaMode": "MASK",
      "alphaCutoff": 0.05,
      "doubleSided": true,
      "pbrMetallicRoughness": {
        "metallicFactor": 0,
        "baseColorTexture": {
          "index": 2
        }
      }
    }
  ],
  "meshes": [
    {
      "primitives": [
        {
          "attributes": {
            "POSITION": 6,
            "NORMAL": 7,
            "TEXCOORD_0": 8
          },
          "mode": 4,
          "material": 0,
          "indices": 4
        }
      ]
    },
    {
      "primitives": [
        {
          "attributes": {
            "POSITION": 9,
            "TEXCOORD_0": 10,
            "NORMAL": 7
          },
          "mode": 4,
          "material": 0,
          "indices": 4
        }
      ]
    },
    {
      "primitives": [
        {
          "attributes": {
            "TEXCOORD_0": 11,
            "POSITION": 6,
            "NORMAL": 7
          },
          "mode": 4,
          "material": 0,
          "indices": 4
        }
      ]
    },
    {
      "primitives": [
        {
          "attributes": {
            "POSITION": 12,
            "TEXCOORD_0": 13,
            "NORMAL": 7
          },
          "mode": 4,
          "material": 0,
          "indices": 4
        }
      ]
    },
    {
      "primitives": [
        {
          "attributes": {
            "POSITION": 14,
            "TEXCOORD_0": 15,
            "NORMAL": 7
          },
          "mode": 4,
          "material": 0,
          "indices": 4
        }
      ]
    },
    {
      "primitives": [
        {
          "attributes": {
            "POSITION": 16,
            "TEXCOORD_0": 17,
            "NORMAL": 7
          },
          "mode": 4,
          "material": 0,
          "indices": 4
        }
      ]
    },
    {
      "primitives": [
        {
          "attributes": {
            "TEXCOORD_0": 18,
            "POSITION": 9,
            "NORMAL": 7
          },
          "mode": 4,
          "material": 0,
          "indices": 4
        }
      ]
    },
    {
      "primitives": [
        {
          "attributes": {
            "POSITION": 19,
            "TEXCOORD_0": 20,
            "NORMAL": 7
          },
          "mode": 4,
          "material": 0,
          "indices": 4
        }
      ]
    },
    {
      "primitives": [
        {
          "attributes": {
            "POSITION": 21,
            "TEXCOORD_0": 22,
            "NORMAL": 7
          },
          "mode": 4,
          "material": 0,
          "indices": 4
        }
      ]
    },
    {
      "primitives": [
        {
          "attributes": {
            "TEXCOORD_0": 23,
            "POSITION": 19,
            "NORMAL": 7
          },
          "mode": 4,
          "material": 0,
          "indices": 4
        }
      ]
    },
    {
      "primitives": [
        {
          "attributes": {
            "POSITION": 24,
            "TEXCOORD_0": 25,
            "NORMAL": 7
          },
          "mode": 4,
          "material": 0,
          "indices": 4
        }
      ]
    },
    {
      "primitives": [
        {
          "attributes": {
            "POSITION": 26,
            "TEXCOORD_0": 27,
            "NORMAL": 7
          },
          "mode": 4,
          "material": 0,
          "indices": 4
        }
      ]
    },
    {
      "primitives": [
        {
          "attributes": {
            "TEXCOORD_0": 28,
            "POSITION": 21,
            "NORMAL": 7
          },
          "mode": 4,
          "material": 0,
          "indices": 4
        }
      ]
    },
    {
      "primitives": [
        {
          "attributes": {
            "TEXCOORD_0": 29,
            "POSITION": 6,
            "NORMAL": 7
          },
          "mode": 4,
          "material": 0,
          "indices": 4
        }
      ]
    },
    {
      "primitives": [
        {
          "attributes": {
            "TEXCOORD_0": 30,
            "POSITION": 9,
            "NORMAL": 7
          },
          "mode": 4,
          "material": 0,
          "indices": 4
        }
      ]
    },
    {
      "primitives": [
        {
          "attributes": {
            "POSITION": 31,
            "NORMAL": 32,
            "TEXCOORD_0": 33
          },
          "mode": 4,
          "material": 1,
          "indices": 5
        }
      ]
    },
    {
      "primitives": [
        {
          "attributes": {
            "TEXCOORD_0": 34,
            "POSITION": 31,
            "NORMAL": 32
          },
          "mode": 4,
          "material": 2,
          "indices": 5
        }
      ]
    }
  ],
  "nodes": [
    {
      "name": "cube",
      "translation": [
        -0.8125,
        2,
        -0.0625
      ],
      "mesh": 0
    },
    {
      "name": "cube",
      "translation": [
        0.75,
        0,
        -0.0625
      ],
      "mesh": 1
    },
    {
      "name": "cube",
      "translation": [
        -0.875,
        0,
        -0.0625
      ],
      "mesh": 2
    },
    {
      "name": "cube",
      "translation": [
        0.5625,
        2.25,
        -0.0625
      ],
      "mesh": 3
    },
    {
      "name": "cube",
      "translation": [
        -0.6875,
        2.25,
        -0.0625
      ],
      "mesh": 4
    },
    {
      "name": "cube",
      "translation": [
        -0.5625,
        2.5625,
        -0.0625
      ],
      "mesh": 5
    },
    {
      "name": "cube",
      "translation": [
        0.8125,
        0.25,
        -0.0625
      ],
      "mesh": 6
    },
    {
      "name": "cube",
      "translation": [
        -0.9375,
        0.5,
        -0.0625
      ],
      "mesh": 7
    },
    {
      "name": "cube",
      "translation": [
        0.8125,
        1.5,
        -0.0625
      ],
      "mesh": 8
    },
    {
      "name": "cube",
      "translation": [
        -0.9375,
        1.5,
        -0.0625
      ],
      "mesh": 9
    },
    {
      "name": "cube",
      "translation": [
        0.875,
        1,
        -0.0625
      ],
      "mesh": 10
    },
    {
      "name": "cube",
      "translation": [
        -1,
        1,
        -0.0625
      ],
      "mesh": 11
    },
    {
      "name": "cube",
      "translation": [
        0.8125,
        0.5,
        -0.0625
      ],
      "mesh": 12
    },
    {
      "name": "cube",
      "translation": [
        -0.9375,
        0.25,
        -0.0625
      ],
      "mesh": 13
    },
    {
      "name": "cube",
      "translation": [
        0.6875,
        2,
        -0.0625
      ],
      "mesh": 14
    },
    {
      "name": "haze",
      "translation": [
        -0.012499999999999994,
        -0.062499999999999556,
        0
      ],
      "rotation": [
        0,
        0,
        0.7071067811865475,
        0.7071067811865476
      ],
      "mesh": 15
    },
    {
      "name": "haze-area",
      "translation": [
        0,
        1.5625,
        0
      ],
      "children": [
        15
      ]
    },
    {
      "name": "circle",
      "rotation": [
        0,
        0,
        0.7071067811865475,
        0.7071067811865476
      ],
      "mesh": 16
    },
    {
      "name": "portal-swirly",
      "translation": [
        0.0625,
        1.5000000000000004,
        0
      ],
      "children": [
        17
      ]
    },
    {
      "name": "portal-root",
      "translation": [
        0,
        -0.25,
        0
      ],
      "rotation": [
        0,
        0.7071067811865475,
        0,
        0.7071067811865476
      ],
      "children": [
        16,
        18
      ]
    }
  ],
  "animations": [
    {
      "name": "idle",
      "samplers": [
        {
          "input": 2,
          "output": 3,
          "interpolation": "LINEAR"
        },
        {
          "input": 0,
          "output": 1,
          "interpolation": "LINEAR"
        }
      ],
      "channels": [
        {
          "sampler": 0,
          "target": {
            "node": 16,
            "path": "scale"
          }
        },
        {
          "sampler": 1,
          "target": {
            "node": 18,
            "path": "rotation"
          }
        }
      ]
    }
  ],
  "scenes": [
    {
      "name": "blockbench_export",
      "nodes": [
        0,
        1,
        2,
        3,
        4,
        5,
        6,
        7,
        8,
        9,
        10,
        11,
        12,
        13,
        14,
        19
      ]
    }
  ],
  "scene": 0
}