{
  "asset": {
    "generator": "glTF-Transform v4.1.3",
    "version": "2.0"
  },
  "accessors": [
    {
      "type": "SCALAR",
      "componentType": 5126,
      "count": 12,
      "max": [
        2
      ],
      "min": [
        0
      ],
      "bufferView": 0,
      "byteOffset": 0
    },
    {
      "type": "VEC4",
      "componentType": 5126,
      "count": 12,
      "bufferView": 0,
      "byteOffset": 48
    },
    {
      "type": "SCALAR",
      "componentType": 5126,
      "count": 10,
      "max": [
        2
      ],
      "min": [
        0
      ],
      "bufferView": 0,
      "byteOffset": 240
    },
    {
      "type": "VEC4",
      "componentType": 5126,
      "count": 10,
      "bufferView": 0,
      "byteOffset": 280
    },
    {
      "type": "SCALAR",
      "componentType": 5126,
      "count": 29,
      "max": [
        2
      ],
      "min": [
        0
      ],
      "bufferView": 0,
      "byteOffset": 440
    },
    {
      "type": "VEC3",
      "componentType": 5126,
      "count": 29,
      "bufferView": 0,
      "byteOffset": 556
    },
    {
      "type": "SCALAR",
      "componentType": 5126,
      "count": 29,
      "max": [
        2
      ],
      "min": [
        0
      ],
      "bufferView": 0,
      "byteOffset": 904
    },
    {
      "type": "VEC3",
      "componentType": 5126,
      "count": 29,
      "bufferView": 0,
      "byteOffset": 1020
    },
    {
      "type": "SCALAR",
      "componentType": 5126,
      "count": 8,
      "max": [
        2
      ],
      "min": [
        0
      ],
      "bufferView": 0,
      "byteOffset": 1368
    },
    {
      "type": "VEC4",
      "componentType": 5126,
      "count": 8,
      "bufferView": 0,
      "byteOffset": 1400
    },
    {
      "type": "SCALAR",
      "componentType": 5126,
      "count": 28,
      "max": [
        2
      ],
      "min": [
        0
      ],
      "bufferView": 0,
      "byteOffset": 1528
    },
    {
      "type": "VEC3",
      "componentType": 5126,
      "count": 28,
      "bufferView": 0,
      "byteOffset": 1640
    },
    {
      "type": "SCALAR",
      "componentType": 5126,
      "count": 30,
      "max": [
        2
      ],
      "min": [
        0
      ],
      "bufferView": 0,
      "byteOffset": 1976
    },
    {
      "type": "VEC3",
      "componentType": 5126,
      "count": 30,
      "bufferView": 0,
      "byteOffset": 2096
    },
    {
      "type": "SCALAR",
      "componentType": 5126,
      "count": 28,
      "max": [
        2
      ],
      "min": [
        0
      ],
      "bufferView": 0,
      "byteOffset": 2456
    },
    {
      "type": "VEC3",
      "componentType": 5126,
      "count": 28,
      "bufferView": 0,
      "byteOffset": 2568
    },
    {
      "type": "SCALAR",
      "componentType": 5126,
      "count": 31,
      "max": [
        2
      ],
      "min": [
        0
      ],
      "bufferView": 0,
      "byteOffset": 2904
    },
    {
      "type": "VEC3",
      "componentType": 5126,
      "count": 31,
      "bufferView": 0,
      "byteOffset": 3028
    },
    {
      "type": "SCALAR",
      "componentType": 5123,
      "count": 36,
      "bufferView": 1,
      "byteOffset": 0
    },
    {
      "type": "VEC3",
      "componentType": 5126,
      "count": 24,
      "max": [
        0.09375,
        0.09375,
        0.15625
      ],
      "min": [
        -0.09375,
        -0.09375,
        -0.15625
      ],
      "bufferView": 2,
      "byteOffset": 0
    },
    {
      "type": "VEC3",
      "componentType": 5126,
      "count": 24,
      "bufferView": 2,
      "byteOffset": 12
    },
    {
      "type": "VEC2",
      "componentType": 5126,
      "count": 24,
      "bufferView": 2,
      "byteOffset": 24
    },
    {
      "type": "VEC3",
      "componentType": 5126,
      "count": 24,
      "max": [
        0.125,
        0.125,
        0
      ],
      "min": [
        -0.125,
        -0.125,
        -0.25
      ],
      "bufferView": 3,
      "byteOffset": 0
    },
    {
      "type": "VEC2",
      "componentType": 5126,
      "count": 24,
      "bufferView": 3,
      "byteOffset": 12
    }
  ],
  "bufferViews": [
    {
      "buffer": 0,
      "byteOffset": 0,
      "byteLength": 3400
    },
    {
      "buffer": 0,
      "byteOffset": 3400,
      "byteLength": 72,
      "target": 34963
    },
    {
      "buffer": 0,
      "byteOffset": 3472,
      "byteLength": 768,
      "byteStride": 32,
      "target": 34962
    },
    {
      "buffer": 0,
      "byteOffset": 4240,
      "byteLength": 480,
      "byteStride": 20,
      "target": 34962
    }
  ],
  "samplers": [
    {
      "magFilter": 9728,
      "minFilter": 9728,
      "wrapS": 33071,
      "wrapT": 33071
    }
  ],
  "textures": [
    {
      "source": 0,
      "sampler": 0
    }
  ],
  "images": [
    {
      "mimeType": "image/png",
      "uri": "baseColor.png"
    }
  ],
  "buffers": [
    {
      "uri": "small-spinning-fireball.bin",
      "byteLength": 4720
    }
  ],
  "materials": [
    {
      "alphaMode": "MASK",
      "alphaCutoff": 0.05,
      "doubleSided": true,
      "pbrMetallicRoughness": {
        "metallicFactor": 0,
        "baseColorTexture": {
          "index": 0
        }
      }
    }
  ],
  "meshes": [
    {
      "primitives": [
        {
          "attributes": {
            "POSITION": 19,
            "NORMAL": 20,
            "TEXCOORD_0": 21
          },
          "mode": 4,
          "material": 0,
          "indices": 18
        }
      ]
    },
    {
      "primitives": [
        {
          "attributes": {
            "POSITION": 22,
            "TEXCOORD_0": 23,
            "NORMAL": 20
          },
          "mode": 4,
          "material": 0,
          "indices": 18
        }
      ]
    },
    {
      "primitives": [
        {
          "attributes": {
            "POSITION": 22,
            "NORMAL": 20,
            "TEXCOORD_0": 23
          },
          "mode": 4,
          "material": 0,
          "indices": 18
        }
      ]
    }
  ],
  "nodes": [
    {
      "name": "cube",
      "mesh": 0
    },
    {
      "name": "bullet",
      "children": [
        0
      ]
    },
    {
      "name": "cube",
      "translation": [
        0,
        0,
        0.125
      ],
      "mesh": 1
    },
    {
      "name": "flame1",
      "translation": [
        0,
        0,
        -0.125
      ],
      "children": [
        2
      ]
    },
    {
      "name": "cube",
      "translation": [
        0,
        0,
        0.125
      ],
      "mesh": 2
    },
    {
      "name": "flame2",
      "translation": [
        0,
        0,
        -0.125
      ],
      "children": [
        4
      ]
    },
    {
      "name": "cube",
      "translation": [
        0,
        0,
        0.125
      ],
      "mesh": 2
    },
    {
      "name": "flame3",
      "translation": [
        0,
        0,
        -0.125
      ],
      "children": [
        6
      ]
    },
    {
      "name": "vfx",
      "children": [
        1,
        3,
        5,
        7
      ]
    }
  ],
  "animations": [
    {
      "name": "idle",
      "samplers": [
        {
          "input": 0,
          "output": 1,
          "interpolation": "LINEAR"
        },
        {
          "input": 2,
          "output": 3,
          "interpolation": "LINEAR"
        },
        {
          "input": 4,
          "output": 5,
          "interpolation": "LINEAR"
        },
        {
          "input": 6,
          "output": 7,
          "interpolation": "LINEAR"
        },
        {
          "input": 8,
          "output": 9,
          "interpolation": "LINEAR"
        },
        {
          "input": 10,
          "output": 11,
          "interpolation": "LINEAR"
        },
        {
          "input": 14,
          "output": 15,
          "interpolation": "LINEAR"
        },
        {
          "input": 12,
          "output": 13,
          "interpolation": "LINEAR"
        },
        {
          "input": 16,
          "output": 17,
          "interpolation": "LINEAR"
        }
      ],
      "channels": [
        {
          "sampler": 0,
          "target": {
            "node": 1,
            "path": "rotation"
          }
        },
        {
          "sampler": 1,
          "target": {
            "node": 3,
            "path": "rotation"
          }
        },
        {
          "sampler": 2,
          "target": {
            "node": 3,
            "path": "translation"
          }
        },
        {
          "sampler": 3,
          "target": {
            "node": 3,
            "path": "scale"
          }
        },
        {
          "sampler": 4,
          "target": {
            "node": 7,
            "path": "rotation"
          }
        },
        {
          "sampler": 5,
          "target": {
            "node": 7,
            "path": "translation"
          }
        },
        {
          "sampler": 6,
          "target": {
            "node": 7,
            "path": "scale"
          }
        },
        {
          "sampler": 7,
          "target": {
            "node": 5,
            "path": "translation"
          }
        },
        {
          "sampler": 8,
          "target": {
            "node": 5,
            "path": "scale"
          }
        }
      ]
    }
  ],
  "scenes": [
    {
      "name": "blockbench_export",
      "nodes": [
        8
      ]
    }
  ],
  "scene": 0
}