{
  "asset": {
    "generator": "glTF-Transform v4.2.1",
    "version": "2.0"
  },
  "accessors": [
    {
      "type": "SCALAR",
      "componentType": 5123,
      "count": 216,
      "bufferView": 0,
      "byteOffset": 0
    },
    {
      "type": "SCALAR",
      "componentType": 5123,
      "count": 18,
      "bufferView": 0,
      "byteOffset": 432
    },
    {
      "type": "SCALAR",
      "componentType": 5123,
      "count": 18,
      "bufferView": 0,
      "byteOffset": 468
    },
    {
      "type": "VEC3",
      "componentType": 5126,
      "count": 144,
      "max": [
        0.21875,
        0.5,
        0.21875
      ],
      "min": [
        -0.15625,
        0,
        -0.15625
      ],
      "bufferView": 1,
      "byteOffset": 0
    },
    {
      "type": "VEC3",
      "componentType": 5126,
      "count": 144,
      "bufferView": 1,
      "byteOffset": 12
    },
    {
      "type": "VEC2",
      "componentType": 5126,
      "count": 144,
      "bufferView": 1,
      "byteOffset": 24
    },
    {
      "type": "VEC3",
      "componentType": 5126,
      "count": 10,
      "max": [
        0.25,
        0.875,
        0.03125
      ],
      "min": [
        -0.1875,
        0.5,
        0.03125
      ],
      "bufferView": 2,
      "byteOffset": 0
    },
    {
      "type": "VEC3",
      "componentType": 5126,
      "count": 10,
      "bufferView": 2,
      "byteOffset": 12
    },
    {
      "type": "VEC2",
      "componentType": 5126,
      "count": 10,
      "bufferView": 2,
      "byteOffset": 24
    },
    {
      "type": "VEC3",
      "componentType": 5126,
      "count": 10,
      "max": [
        0.25,
        1.25,
        0.03125
      ],
      "min": [
        -0.1875,
        0.875,
        0.03125
      ],
      "bufferView": 3,
      "byteOffset": 0
    },
    {
      "type": "VEC2",
      "componentType": 5126,
      "count": 10,
      "bufferView": 3,
      "byteOffset": 12
    },
    {
      "type": "VEC3",
      "componentType": 5126,
      "count": 10,
      "max": [
        0.25,
        0.875,
        -0.03125
      ],
      "min": [
        -0.1875,
        0.5,
        -0.03125
      ],
      "bufferView": 4,
      "byteOffset": 0
    },
    {
      "type": "VEC3",
      "componentType": 5126,
      "count": 10,
      "bufferView": 4,
      "byteOffset": 12
    },
    {
      "type": "VEC2",
      "componentType": 5126,
      "count": 10,
      "bufferView": 4,
      "byteOffset": 24
    },
    {
      "type": "VEC3",
      "componentType": 5126,
      "count": 10,
      "max": [
        0.25,
        1.25,
        -0.03125
      ],
      "min": [
        -0.1875,
        0.875,
        -0.03125
      ],
      "bufferView": 5,
      "byteOffset": 0
    },
    {
      "type": "VEC2",
      "componentType": 5126,
      "count": 10,
      "bufferView": 5,
      "byteOffset": 12
    },
    {
      "type": "VEC3",
      "componentType": 5126,
      "count": 10,
      "max": [
        0.1875,
        0.875,
        -0.03125
      ],
      "min": [
        -0.25,
        0.5,
        -0.03125
      ],
      "bufferView": 6,
      "byteOffset": 0
    },
    {
      "type": "VEC3",
      "componentType": 5126,
      "count": 10,
      "max": [
        0.1875,
        1.25,
        -0.03125
      ],
      "min": [
        -0.25,
        0.875,
        -0.03125
      ],
      "bufferView": 7,
      "byteOffset": 0
    },
    {
      "type": "SCALAR",
      "componentType": 5126,
      "count": 21,
      "max": [
        6
      ],
      "min": [
        0
      ],
      "bufferView": 8,
      "byteOffset": 0
    },
    {
      "type": "VEC4",
      "componentType": 5126,
      "count": 21,
      "bufferView": 8,
      "byteOffset": 84
    },
    {
      "type": "SCALAR",
      "componentType": 5126,
      "count": 22,
      "max": [
        6
      ],
      "min": [
        0
      ],
      "bufferView": 8,
      "byteOffset": 420
    },
    {
      "type": "VEC4",
      "componentType": 5126,
      "count": 22,
      "bufferView": 8,
      "byteOffset": 508
    },
    {
      "type": "SCALAR",
      "componentType": 5126,
      "count": 19,
      "max": [
        6
      ],
      "min": [
        0
      ],
      "bufferView": 8,
      "byteOffset": 860
    },
    {
      "type": "VEC4",
      "componentType": 5126,
      "count": 19,
      "bufferView": 8,
      "byteOffset": 936
    },
    {
      "type": "SCALAR",
      "componentType": 5126,
      "count": 20,
      "max": [
        6
      ],
      "min": [
        0
      ],
      "bufferView": 8,
      "byteOffset": 1240
    },
    {
      "type": "VEC4",
      "componentType": 5126,
      "count": 20,
      "bufferView": 8,
      "byteOffset": 1320
    },
    {
      "type": "SCALAR",
      "componentType": 5126,
      "count": 21,
      "max": [
        6
      ],
      "min": [
        0
      ],
      "bufferView": 8,
      "byteOffset": 1640
    },
    {
      "type": "VEC4",
      "componentType": 5126,
      "count": 21,
      "bufferView": 8,
      "byteOffset": 1724
    },
    {
      "type": "SCALAR",
      "componentType": 5126,
      "count": 21,
      "max": [
        6
      ],
      "min": [
        0
      ],
      "bufferView": 8,
      "byteOffset": 2060
    },
    {
      "type": "VEC4",
      "componentType": 5126,
      "count": 21,
      "bufferView": 8,
      "byteOffset": 2144
    }
  ],
  "bufferViews": [
    {
      "buffer": 0,
      "byteOffset": 0,
      "byteLength": 504,
      "target": 34963
    },
    {
      "buffer": 0,
      "byteOffset": 504,
      "byteLength": 4608,
      "byteStride": 32,
      "target": 34962
    },
    {
      "buffer": 0,
      "byteOffset": 5112,
      "byteLength": 320,
      "byteStride": 32,
      "target": 34962
    },
    {
      "buffer": 0,
      "byteOffset": 5432,
      "byteLength": 200,
      "byteStride": 20,
      "target": 34962
    },
    {
      "buffer": 0,
      "byteOffset": 5632,
      "byteLength": 320,
      "byteStride": 32,
      "target": 34962
    },
    {
      "buffer": 0,
      "byteOffset": 5952,
      "byteLength": 200,
      "byteStride": 20,
      "target": 34962
    },
    {
      "buffer": 0,
      "byteOffset": 6152,
      "byteLength": 120,
      "byteStride": 12,
      "target": 34962
    },
    {
      "buffer": 0,
      "byteOffset": 6272,
      "byteLength": 120,
      "byteStride": 12,
      "target": 34962
    },
    {
      "buffer": 0,
      "byteOffset": 6392,
      "byteLength": 2480
    }
  ],
  "samplers": [
    {
      "magFilter": 9728,
      "minFilter": 9728,
      "wrapS": 33071,
      "wrapT": 33071
    }
  ],
  "textures": [
    {
      "source": 0,
      "sampler": 0
    }
  ],
  "images": [
    {
      "mimeType": "image/png",
      "uri": "baseColor.png"
    }
  ],
  "buffers": [
    {
      "uri": "pot-plant.bin",
      "byteLength": 8872
    }
  ],
  "materials": [
    {
      "alphaMode": "MASK",
      "alphaCutoff": 0.05,
      "doubleSided": true,
      "pbrMetallicRoughness": {
        "metallicFactor": 0,
        "baseColorTexture": {
          "index": 0
        }
      }
    }
  ],
  "meshes": [
    {
      "primitives": [
        {
          "attributes": {
            "POSITION": 3,
            "NORMAL": 4,
            "TEXCOORD_0": 5
          },
          "mode": 4,
          "material": 0,
          "indices": 0
        }
      ]
    },
    {
      "primitives": [
        {
          "attributes": {
            "POSITION": 6,
            "NORMAL": 7,
            "TEXCOORD_0": 8
          },
          "mode": 4,
          "material": 0,
          "indices": 1
        }
      ]
    },
    {
      "primitives": [
        {
          "attributes": {
            "POSITION": 9,
            "TEXCOORD_0": 10,
            "NORMAL": 7
          },
          "mode": 4,
          "material": 0,
          "indices": 1
        }
      ]
    },
    {
      "primitives": [
        {
          "attributes": {
            "POSITION": 11,
            "NORMAL": 12,
            "TEXCOORD_0": 13
          },
          "mode": 4,
          "material": 0,
          "indices": 2
        }
      ]
    },
    {
      "primitives": [
        {
          "attributes": {
            "POSITION": 14,
            "TEXCOORD_0": 15,
            "NORMAL": 12
          },
          "mode": 4,
          "material": 0,
          "indices": 2
        }
      ]
    },
    {
      "primitives": [
        {
          "attributes": {
            "POSITION": 9,
            "NORMAL": 7,
            "TEXCOORD_0": 10
          },
          "mode": 4,
          "material": 0,
          "indices": 1
        }
      ]
    },
    {
      "primitives": [
        {
          "attributes": {
            "POSITION": 16,
            "NORMAL": 12,
            "TEXCOORD_0": 8
          },
          "mode": 4,
          "material": 0,
          "indices": 1
        }
      ]
    },
    {
      "primitives": [
        {
          "attributes": {
            "POSITION": 17,
            "NORMAL": 12,
            "TEXCOORD_0": 10
          },
          "mode": 4,
          "material": 0,
          "indices": 1
        }
      ]
    },
    {
      "primitives": [
        {
          "attributes": {
            "POSITION": 14,
            "NORMAL": 12,
            "TEXCOORD_0": 15
          },
          "mode": 4,
          "material": 0,
          "indices": 2
        }
      ]
    }
  ],
  "nodes": [
    {
      "name": "cube",
      "translation": [
        -0.03125,
        0,
        -0.03125
      ],
      "mesh": 0
    },
    {
      "name": "cube",
      "translation": [
        -0.03125,
        -0.5,
        -0.03125
      ],
      "mesh": 1
    },
    {
      "name": "cube",
      "translation": [
        -0.03125,
        -0.875,
        -0.03125
      ],
      "mesh": 2
    },
    {
      "name": "bone2",
      "translation": [
        0,
        0.375,
        0
      ],
      "rotation": [
        0.13052619222005157,
        0,
        0,
        0.9914448613738104
      ],
      "children": [
        2
      ]
    },
    {
      "name": "bone",
      "translation": [
        0,
        0.5,
        0.03125
      ],
      "rotation": [
        0.30135621517544414,
        -0.5177958291135473,
        0.2013597853844435,
        0.7749362217354898
      ],
      "children": [
        1,
        3
      ]
    },
    {
      "name": "cube",
      "translation": [
        -0.03125,
        -0.5,
        0.03125
      ],
      "mesh": 3
    },
    {
      "name": "cube",
      "translation": [
        -0.03125,
        -0.875,
        0.03125
      ],
      "mesh": 4
    },
    {
      "name": "bone10",
      "translation": [
        0,
        0.375,
        0
      ],
      "rotation": [
        -0.13052619222005157,
        0,
        0,
        0.9914448613738104
      ],
      "children": [
        6
      ]
    },
    {
      "name": "bone9",
      "translation": [
        0,
        0.5,
        -0.03125
      ],
      "rotation": [
        -0.21959313108683287,
        -0.37171651727674976,
        -0.09095845310013911,
        0.8974030573676215
      ],
      "children": [
        5,
        7
      ]
    },
    {
      "name": "cube",
      "translation": [
        -0.03125,
        -0.5,
        -0.03125
      ],
      "mesh": 1
    },
    {
      "name": "cube",
      "translation": [
        -0.03125,
        -0.875,
        -0.03125
      ],
      "mesh": 5
    },
    {
      "name": "bone4",
      "translation": [
        0,
        0.375,
        0
      ],
      "rotation": [
        0.5187732581605214,
        0,
        0,
        0.8549118706729466
      ],
      "children": [
        10
      ]
    },
    {
      "name": "bone3",
      "translation": [
        0,
        0.4375,
        0.0625
      ],
      "rotation": [
        0.6087614290087209,
        0,
        0,
        0.793353340291235
      ],
      "children": [
        9,
        11
      ]
    },
    {
      "name": "cube",
      "translation": [
        0.03125,
        -0.5,
        0.03125
      ],
      "mesh": 6
    },
    {
      "name": "cube",
      "translation": [
        0.03125,
        -0.875,
        0.03125
      ],
      "mesh": 7
    },
    {
      "name": "bone6",
      "translation": [
        0,
        0.375,
        0
      ],
      "rotation": [
        -0.5187732581605214,
        0,
        0,
        0.8549118706729466
      ],
      "children": [
        14
      ]
    },
    {
      "name": "bone5",
      "translation": [
        0.0625,
        0.4375,
        -0.09375
      ],
      "rotation": [
        -0.5572063240168406,
        -0.31952043169066735,
        -0.24517665044693723,
        0.7261654193663244
      ],
      "children": [
        13,
        15
      ]
    },
    {
      "name": "cube",
      "translation": [
        0.03125,
        -0.5,
        0.03125
      ],
      "mesh": 6
    },
    {
      "name": "cube",
      "translation": [
        0.03125,
        -0.875,
        0.03125
      ],
      "mesh": 7
    },
    {
      "name": "bone12",
      "translation": [
        0,
        0.375,
        0
      ],
      "rotation": [
        -0.5187732581605214,
        0,
        0,
        0.8549118706729466
      ],
      "children": [
        18
      ]
    },
    {
      "name": "bone11",
      "translation": [
        0.09375,
        0.4375,
        0
      ],
      "rotation": [
        -0.188218818131597,
        -0.7437890511511998,
        -0.23451578700941955,
        0.5969538252931256
      ],
      "children": [
        17,
        19
      ]
    },
    {
      "name": "cube",
      "translation": [
        0.12472838808900603,
        -0.4325311752572151,
        0.06030623211854322
      ],
      "mesh": 3
    },
    {
      "name": "cube",
      "translation": [
        0.12472838808900603,
        -0.8696195563989104,
        0.10451225333522567
      ],
      "mesh": 8
    },
    {
      "name": "bone8",
      "translation": [
        0,
        0.375,
        0
      ],
      "rotation": [
        -0.5187732581605214,
        0,
        0,
        0.8549118706729466
      ],
      "children": [
        22
      ]
    },
    {
      "name": "bone7",
      "translation": [
        -0.18917316392793615,
        0.4375,
        0.013239500651898328
      ],
      "rotation": [
        -0.4226438061615123,
        0.35724067693136957,
        0.1859677255272725,
        0.8118911977113311
      ],
      "children": [
        21,
        23
      ]
    },
    {
      "name": "root",
      "children": [
        4,
        8,
        12,
        16,
        20,
        24
      ]
    }
  ],
  "animations": [
    {
      "name": "idle",
      "samplers": [
        {
          "input": 18,
          "output": 19,
          "interpolation": "LINEAR"
        },
        {
          "input": 20,
          "output": 21,
          "interpolation": "LINEAR"
        },
        {
          "input": 22,
          "output": 23,
          "interpolation": "LINEAR"
        },
        {
          "input": 24,
          "output": 25,
          "interpolation": "LINEAR"
        },
        {
          "input": 26,
          "output": 27,
          "interpolation": "LINEAR"
        },
        {
          "input": 28,
          "output": 29,
          "interpolation": "LINEAR"
        }
      ],
      "channels": [
        {
          "sampler": 0,
          "target": {
            "node": 4,
            "path": "rotation"
          }
        },
        {
          "sampler": 1,
          "target": {
            "node": 8,
            "path": "rotation"
          }
        },
        {
          "sampler": 2,
          "target": {
            "node": 12,
            "path": "rotation"
          }
        },
        {
          "sampler": 3,
          "target": {
            "node": 16,
            "path": "rotation"
          }
        },
        {
          "sampler": 4,
          "target": {
            "node": 20,
            "path": "rotation"
          }
        },
        {
          "sampler": 5,
          "target": {
            "node": 24,
            "path": "rotation"
          }
        }
      ]
    }
  ],
  "scenes": [
    {
      "name": "blockbench_export",
      "nodes": [
        25,
        0
      ]
    }
  ],
  "scene": 0
}