{
  "asset": {
    "generator": "glTF-Transform v4.1.3",
    "version": "2.0"
  },
  "accessors": [
    {
      "type": "SCALAR",
      "componentType": 5126,
      "count": 2,
      "max": [
        1.5
      ],
      "min": [
        0
      ],
      "bufferView": 0,
      "byteOffset": 0
    },
    {
      "type": "VEC4",
      "componentType": 5126,
      "count": 2,
      "bufferView": 0,
      "byteOffset": 8
    },
    {
      "type": "SCALAR",
      "componentType": 5126,
      "count": 25,
      "max": [
        1.5
      ],
      "min": [
        0
      ],
      "bufferView": 0,
      "byteOffset": 40
    },
    {
      "type": "VEC3",
      "componentType": 5126,
      "count": 25,
      "bufferView": 0,
      "byteOffset": 140
    },
    {
      "type": "SCALAR",
      "componentType": 5126,
      "count": 6,
      "max": [
        1.5
      ],
      "min": [
        0
      ],
      "bufferView": 0,
      "byteOffset": 440
    },
    {
      "type": "VEC4",
      "componentType": 5126,
      "count": 6,
      "bufferView": 0,
      "byteOffset": 464
    },
    {
      "type": "SCALAR",
      "componentType": 5126,
      "count": 25,
      "max": [
        1.5
      ],
      "min": [
        0
      ],
      "bufferView": 0,
      "byteOffset": 560
    },
    {
      "type": "VEC3",
      "componentType": 5126,
      "count": 25,
      "bufferView": 0,
      "byteOffset": 660
    },
    {
      "type": "VEC4",
      "componentType": 5126,
      "count": 6,
      "bufferView": 0,
      "byteOffset": 960
    },
    {
      "type": "SCALAR",
      "componentType": 5126,
      "count": 25,
      "max": [
        1.5
      ],
      "min": [
        0
      ],
      "bufferView": 0,
      "byteOffset": 1056
    },
    {
      "type": "VEC3",
      "componentType": 5126,
      "count": 25,
      "bufferView": 0,
      "byteOffset": 1156
    },
    {
      "type": "VEC4",
      "componentType": 5126,
      "count": 6,
      "bufferView": 0,
      "byteOffset": 1456
    },
    {
      "type": "SCALAR",
      "componentType": 5126,
      "count": 25,
      "max": [
        1.5
      ],
      "min": [
        0
      ],
      "bufferView": 0,
      "byteOffset": 1552
    },
    {
      "type": "VEC3",
      "componentType": 5126,
      "count": 25,
      "bufferView": 0,
      "byteOffset": 1652
    },
    {
      "type": "SCALAR",
      "componentType": 5126,
      "count": 26,
      "max": [
        1.5
      ],
      "min": [
        0
      ],
      "bufferView": 0,
      "byteOffset": 1952
    },
    {
      "type": "VEC3",
      "componentType": 5126,
      "count": 26,
      "bufferView": 0,
      "byteOffset": 2056
    },
    {
      "type": "VEC4",
      "componentType": 5126,
      "count": 1,
      "bufferView": 0,
      "byteOffset": 2368
    },
    {
      "type": "SCALAR",
      "componentType": 5126,
      "count": 25,
      "max": [
        1.5
      ],
      "min": [
        0
      ],
      "bufferView": 0,
      "byteOffset": 2384
    },
    {
      "type": "VEC3",
      "componentType": 5126,
      "count": 25,
      "bufferView": 0,
      "byteOffset": 2484
    },
    {
      "type": "SCALAR",
      "componentType": 5126,
      "count": 6,
      "max": [
        0.25
      ],
      "min": [
        0
      ],
      "bufferView": 0,
      "byteOffset": 2784
    },
    {
      "type": "VEC3",
      "componentType": 5126,
      "count": 6,
      "bufferView": 0,
      "byteOffset": 2808
    },
    {
      "type": "VEC3",
      "componentType": 5126,
      "count": 25,
      "bufferView": 0,
      "byteOffset": 2880
    },
    {
      "type": "SCALAR",
      "componentType": 5126,
      "count": 2,
      "max": [
        0.20000000298023224
      ],
      "min": [
        0
      ],
      "bufferView": 0,
      "byteOffset": 3180
    },
    {
      "type": "VEC3",
      "componentType": 5126,
      "count": 2,
      "bufferView": 0,
      "byteOffset": 3188
    },
    {
      "type": "SCALAR",
      "componentType": 5126,
      "count": 25,
      "max": [
        1.5
      ],
      "min": [
        0
      ],
      "bufferView": 0,
      "byteOffset": 3212
    },
    {
      "type": "VEC3",
      "componentType": 5126,
      "count": 25,
      "bufferView": 0,
      "byteOffset": 3312
    },
    {
      "type": "SCALAR",
      "componentType": 5126,
      "count": 7,
      "max": [
        0.3499999940395355
      ],
      "min": [
        0
      ],
      "bufferView": 0,
      "byteOffset": 3612
    },
    {
      "type": "VEC3",
      "componentType": 5126,
      "count": 7,
      "bufferView": 0,
      "byteOffset": 3640
    },
    {
      "type": "SCALAR",
      "componentType": 5126,
      "count": 25,
      "max": [
        1.5
      ],
      "min": [
        0
      ],
      "bufferView": 0,
      "byteOffset": 3724
    },
    {
      "type": "VEC3",
      "componentType": 5126,
      "count": 25,
      "bufferView": 0,
      "byteOffset": 3824
    },
    {
      "type": "SCALAR",
      "componentType": 5126,
      "count": 9,
      "max": [
        0.44999998807907104
      ],
      "min": [
        0
      ],
      "bufferView": 0,
      "byteOffset": 4124
    },
    {
      "type": "VEC3",
      "componentType": 5126,
      "count": 9,
      "bufferView": 0,
      "byteOffset": 4160
    },
    {
      "type": "SCALAR",
      "componentType": 5126,
      "count": 23,
      "max": [
        1.5
      ],
      "min": [
        0
      ],
      "bufferView": 0,
      "byteOffset": 4268
    },
    {
      "type": "VEC3",
      "componentType": 5126,
      "count": 23,
      "bufferView": 0,
      "byteOffset": 4360
    },
    {
      "type": "SCALAR",
      "componentType": 5126,
      "count": 22,
      "max": [
        1.5
      ],
      "min": [
        0
      ],
      "bufferView": 0,
      "byteOffset": 4636
    },
    {
      "type": "VEC3",
      "componentType": 5126,
      "count": 22,
      "bufferView": 0,
      "byteOffset": 4724
    },
    {
      "type": "SCALAR",
      "componentType": 5126,
      "count": 22,
      "max": [
        1.5
      ],
      "min": [
        0
      ],
      "bufferView": 0,
      "byteOffset": 4988
    },
    {
      "type": "VEC3",
      "componentType": 5126,
      "count": 22,
      "bufferView": 0,
      "byteOffset": 5076
    },
    {
      "type": "SCALAR",
      "componentType": 5126,
      "count": 1,
      "max": [
        0
      ],
      "min": [
        0
      ]
    },
    {
      "type": "SCALAR",
      "componentType": 5123,
      "count": 36,
      "bufferView": 1,
      "byteOffset": 0
    },
    {
      "type": "VEC3",
      "componentType": 5126,
      "count": 24,
      "max": [
        0.140625,
        0.296875,
        0.140625
      ],
      "min": [
        -0.140625,
        0.015625,
        -0.140625
      ],
      "bufferView": 2,
      "byteOffset": 0
    },
    {
      "type": "VEC3",
      "componentType": 5126,
      "count": 24,
      "bufferView": 2,
      "byteOffset": 12
    },
    {
      "type": "VEC2",
      "componentType": 5126,
      "count": 24,
      "bufferView": 2,
      "byteOffset": 24
    },
    {
      "type": "VEC3",
      "componentType": 5126,
      "count": 24,
      "max": [
        0.15625,
        0.3125,
        0.15625
      ],
      "min": [
        -0.15625,
        0,
        -0.15625
      ],
      "bufferView": 3,
      "byteOffset": 0
    },
    {
      "type": "VEC2",
      "componentType": 5126,
      "count": 24,
      "bufferView": 3,
      "byteOffset": 12
    }
  ],
  "bufferViews": [
    {
      "buffer": 0,
      "byteOffset": 0,
      "byteLength": 5340
    },
    {
      "buffer": 0,
      "byteOffset": 5340,
      "byteLength": 72,
      "target": 34963
    },
    {
      "buffer": 0,
      "byteOffset": 5412,
      "byteLength": 768,
      "byteStride": 32,
      "target": 34962
    },
    {
      "buffer": 0,
      "byteOffset": 6180,
      "byteLength": 480,
      "byteStride": 20,
      "target": 34962
    }
  ],
  "samplers": [
    {
      "magFilter": 9728,
      "minFilter": 9728,
      "wrapS": 33071,
      "wrapT": 33071
    }
  ],
  "textures": [
    {
      "source": 0,
      "sampler": 0
    }
  ],
  "images": [
    {
      "mimeType": "image/png",
      "uri": "baseColor.png"
    }
  ],
  "buffers": [
    {
      "uri": "fire-particle-named-nodes.bin",
      "byteLength": 6660
    }
  ],
  "materials": [
    {
      "alphaMode": "MASK",
      "alphaCutoff": 0.05,
      "doubleSided": true,
      "pbrMetallicRoughness": {
        "metallicFactor": 0,
        "baseColorTexture": {
          "index": 0
        }
      }
    }
  ],
  "meshes": [
    {
      "primitives": [
        {
          "attributes": {
            "POSITION": 40,
            "NORMAL": 41,
            "TEXCOORD_0": 42
          },
          "mode": 4,
          "material": 0,
          "indices": 39
        }
      ]
    },
    {
      "primitives": [
        {
          "attributes": {
            "POSITION": 43,
            "TEXCOORD_0": 44,
            "NORMAL": 41
          },
          "mode": 4,
          "material": 0,
          "indices": 39
        }
      ]
    },
    {
      "primitives": [
        {
          "attributes": {
            "POSITION": 43,
            "NORMAL": 41,
            "TEXCOORD_0": 44
          },
          "mode": 4,
          "material": 0,
          "indices": 39
        }
      ]
    }
  ],
  "nodes": [
    {
      "name": "cube",
      "translation": [
        0,
        -0.15625,
        0
      ],
      "mesh": 0
    },
    {
      "name": "cube",
      "translation": [
        0,
        -0.15625,
        0
      ],
      "mesh": 1
    },
    {
      "name": "fire_particle1",
      "translation": [
        0,
        0.15625,
        0
      ],
      "children": [
        0,
        1
      ]
    },
    {
      "name": "cube",
      "translation": [
        0,
        -0.15625,
        0
      ],
      "mesh": 2
    },
    {
      "name": "cube",
      "translation": [
        0,
        -0.15625,
        0
      ],
      "mesh": 0
    },
    {
      "name": "fire_particle2",
      "translation": [
        0,
        0.15625,
        0
      ],
      "children": [
        3,
        4
      ]
    },
    {
      "name": "cube",
      "translation": [
        0,
        -0.15625,
        0
      ],
      "mesh": 2
    },
    {
      "name": "cube",
      "translation": [
        0,
        -0.15625,
        0
      ],
      "mesh": 0
    },
    {
      "name": "fire_particle3",
      "translation": [
        0,
        0.15625,
        0
      ],
      "children": [
        6,
        7
      ]
    },
    {
      "name": "cube",
      "translation": [
        0,
        -0.15625,
        0
      ],
      "mesh": 2
    },
    {
      "name": "cube",
      "translation": [
        0,
        -0.15625,
        0
      ],
      "mesh": 0
    },
    {
      "name": "fire_particle4",
      "translation": [
        0,
        0.15625,
        0
      ],
      "children": [
        9,
        10
      ]
    },
    {
      "name": "vfx",
      "children": [
        2,
        5,
        8,
        11
      ]
    }
  ],
  "animations": [
    {
      "name": "idle",
      "samplers": [
        {
          "input": 0,
          "output": 1,
          "interpolation": "LINEAR"
        },
        {
          "input": 2,
          "output": 3,
          "interpolation": "LINEAR"
        },
        {
          "input": 32,
          "output": 33,
          "interpolation": "LINEAR"
        },
        {
          "input": 4,
          "output": 5,
          "interpolation": "LINEAR"
        },
        {
          "input": 6,
          "output": 7,
          "interpolation": "LINEAR"
        },
        {
          "input": 34,
          "output": 35,
          "interpolation": "LINEAR"
        },
        {
          "input": 4,
          "output": 8,
          "interpolation": "LINEAR"
        },
        {
          "input": 9,
          "output": 10,
          "interpolation": "LINEAR"
        },
        {
          "input": 36,
          "output": 37,
          "interpolation": "LINEAR"
        },
        {
          "input": 4,
          "output": 11,
          "interpolation": "LINEAR"
        },
        {
          "input": 12,
          "output": 13,
          "interpolation": "LINEAR"
        },
        {
          "input": 14,
          "output": 15,
          "interpolation": "LINEAR"
        }
      ],
      "channels": [
        {
          "sampler": 0,
          "target": {
            "node": 2,
            "path": "rotation"
          }
        },
        {
          "sampler": 1,
          "target": {
            "node": 2,
            "path": "translation"
          }
        },
        {
          "sampler": 2,
          "target": {
            "node": 2,
            "path": "scale"
          }
        },
        {
          "sampler": 3,
          "target": {
            "node": 5,
            "path": "rotation"
          }
        },
        {
          "sampler": 4,
          "target": {
            "node": 5,
            "path": "translation"
          }
        },
        {
          "sampler": 5,
          "target": {
            "node": 5,
            "path": "scale"
          }
        },
        {
          "sampler": 6,
          "target": {
            "node": 8,
            "path": "rotation"
          }
        },
        {
          "sampler": 7,
          "target": {
            "node": 8,
            "path": "translation"
          }
        },
        {
          "sampler": 8,
          "target": {
            "node": 8,
            "path": "scale"
          }
        },
        {
          "sampler": 9,
          "target": {
            "node": 11,
            "path": "rotation"
          }
        },
        {
          "sampler": 10,
          "target": {
            "node": 11,
            "path": "translation"
          }
        },
        {
          "sampler": 11,
          "target": {
            "node": 11,
            "path": "scale"
          }
        }
      ]
    },
    {
      "name": "death",
      "samplers": [
        {
          "input": 38,
          "output": 16,
          "interpolation": "LINEAR"
        },
        {
          "input": 17,
          "output": 18,
          "interpolation": "LINEAR"
        },
        {
          "input": 19,
          "output": 20,
          "interpolation": "LINEAR"
        },
        {
          "input": 4,
          "output": 5,
          "interpolation": "LINEAR"
        },
        {
          "input": 6,
          "output": 21,
          "interpolation": "LINEAR"
        },
        {
          "input": 22,
          "output": 23,
          "interpolation": "LINEAR"
        },
        {
          "input": 4,
          "output": 8,
          "interpolation": "LINEAR"
        },
        {
          "input": 24,
          "output": 25,
          "interpolation": "LINEAR"
        },
        {
          "input": 26,
          "output": 27,
          "interpolation": "LINEAR"
        },
        {
          "input": 4,
          "output": 11,
          "interpolation": "LINEAR"
        },
        {
          "input": 28,
          "output": 29,
          "interpolation": "LINEAR"
        },
        {
          "input": 30,
          "output": 31,
          "interpolation": "LINEAR"
        }
      ],
      "channels": [
        {
          "sampler": 0,
          "target": {
            "node": 2,
            "path": "rotation"
          }
        },
        {
          "sampler": 1,
          "target": {
            "node": 2,
            "path": "translation"
          }
        },
        {
          "sampler": 2,
          "target": {
            "node": 2,
            "path": "scale"
          }
        },
        {
          "sampler": 3,
          "target": {
            "node": 5,
            "path": "rotation"
          }
        },
        {
          "sampler": 4,
          "target": {
            "node": 5,
            "path": "translation"
          }
        },
        {
          "sampler": 5,
          "target": {
            "node": 5,
            "path": "scale"
          }
        },
        {
          "sampler": 6,
          "target": {
            "node": 8,
            "path": "rotation"
          }
        },
        {
          "sampler": 7,
          "target": {
            "node": 8,
            "path": "translation"
          }
        },
        {
          "sampler": 8,
          "target": {
            "node": 8,
            "path": "scale"
          }
        },
        {
          "sampler": 9,
          "target": {
            "node": 11,
            "path": "rotation"
          }
        },
        {
          "sampler": 10,
          "target": {
            "node": 11,
            "path": "translation"
          }
        },
        {
          "sampler": 11,
          "target": {
            "node": 11,
            "path": "scale"
          }
        }
      ]
    }
  ],
  "scenes": [
    {
      "name": "blockbench_export",
      "nodes": [
        12
      ]
    }
  ],
  "scene": 0
}