{
  "asset": {
    "generator": "glTF-Transform v4.2.1",
    "version": "2.0"
  },
  "accessors": [
    {
      "type": "SCALAR",
      "componentType": 5123,
      "count": 30,
      "bufferView": 0,
      "byteOffset": 0
    },
    {
      "type": "SCALAR",
      "componentType": 5123,
      "count": 30,
      "bufferView": 0,
      "byteOffset": 60
    },
    {
      "type": "SCALAR",
      "componentType": 5123,
      "count": 30,
      "bufferView": 0,
      "byteOffset": 120
    },
    {
      "type": "SCALAR",
      "componentType": 5123,
      "count": 30,
      "bufferView": 0,
      "byteOffset": 180
    },
    {
      "type": "VEC3",
      "componentType": 5126,
      "count": 14,
      "max": [
        0.625,
        0.5625,
        0
      ],
      "min": [
        -0.6875,
        -0.5625,
        0
      ],
      "bufferView": 1,
      "byteOffset": 0
    },
    {
      "type": "VEC3",
      "componentType": 5126,
      "count": 14,
      "bufferView": 1,
      "byteOffset": 12
    },
    {
      "type": "VEC2",
      "componentType": 5126,
      "count": 14,
      "bufferView": 1,
      "byteOffset": 24
    },
    {
      "type": "VEC3",
      "componentType": 5126,
      "count": 16,
      "max": [
        0.15625,
        0.09375,
        0.0062500000931322575
      ],
      "min": [
        -0.15625,
        -0.21875,
        0.0062500000931322575
      ],
      "bufferView": 2,
      "byteOffset": 0
    },
    {
      "type": "VEC2",
      "componentType": 5126,
      "count": 16,
      "bufferView": 2,
      "byteOffset": 12
    },
    {
      "type": "VEC3",
      "componentType": 5126,
      "count": 16,
      "bufferView": 2,
      "byteOffset": 20
    },
    {
      "type": "VEC3",
      "componentType": 5126,
      "count": 16,
      "max": [
        0.15625,
        0.09375,
        -0.0062500000931322575
      ],
      "min": [
        -0.15625,
        -0.21875,
        -0.0062500000931322575
      ],
      "bufferView": 3,
      "byteOffset": 0
    },
    {
      "type": "VEC3",
      "componentType": 5126,
      "count": 16,
      "bufferView": 3,
      "byteOffset": 12
    },
    {
      "type": "VEC3",
      "componentType": 5126,
      "count": 14,
      "max": [
        0.65625,
        1.125,
        0
      ],
      "min": [
        -0.65625,
        0,
        0
      ],
      "bufferView": 4,
      "byteOffset": 0
    },
    {
      "type": "VEC2",
      "componentType": 5126,
      "count": 14,
      "bufferView": 4,
      "byteOffset": 12
    },
    {
      "type": "VEC3",
      "componentType": 5126,
      "count": 16,
      "max": [
        0.15625,
        0.09375,
        -0.0062500000931322575
      ],
      "min": [
        -0.15625,
        -0.21875,
        -0.0062500000931322575
      ],
      "bufferView": 5,
      "byteOffset": 0
    },
    {
      "type": "VEC2",
      "componentType": 5126,
      "count": 16,
      "bufferView": 5,
      "byteOffset": 12
    },
    {
      "type": "VEC3",
      "componentType": 5126,
      "count": 16,
      "max": [
        0.15625,
        0.09375,
        0.0062500000931322575
      ],
      "min": [
        -0.15625,
        -0.21875,
        0.0062500000931322575
      ],
      "bufferView": 6,
      "byteOffset": 0
    },
    {
      "type": "VEC3",
      "componentType": 5126,
      "count": 16,
      "max": [
        0.15625,
        0.15625,
        0
      ],
      "min": [
        -0.15625,
        -0.15625,
        0
      ],
      "bufferView": 7,
      "byteOffset": 0
    },
    {
      "type": "VEC2",
      "componentType": 5126,
      "count": 16,
      "bufferView": 7,
      "byteOffset": 12
    },
    {
      "type": "VEC3",
      "componentType": 5126,
      "count": 16,
      "max": [
        0.15625,
        0.15625,
        0
      ],
      "min": [
        -0.15625,
        -0.15625,
        0
      ],
      "bufferView": 8,
      "byteOffset": 0
    },
    {
      "type": "VEC3",
      "componentType": 5126,
      "count": 14,
      "max": [
        0.65625,
        1.125,
        0
      ],
      "min": [
        -0.65625,
        0,
        0
      ],
      "bufferView": 9,
      "byteOffset": 0
    },
    {
      "type": "VEC2",
      "componentType": 5126,
      "count": 14,
      "bufferView": 9,
      "byteOffset": 12
    },
    {
      "type": "VEC3",
      "componentType": 5126,
      "count": 14,
      "bufferView": 9,
      "byteOffset": 20
    },
    {
      "type": "SCALAR",
      "componentType": 5126,
      "count": 38,
      "max": [
        6
      ],
      "min": [
        0
      ],
      "bufferView": 10,
      "byteOffset": 0
    },
    {
      "type": "VEC4",
      "componentType": 5126,
      "count": 38,
      "bufferView": 10,
      "byteOffset": 152
    }
  ],
  "bufferViews": [
    {
      "buffer": 0,
      "byteOffset": 0,
      "byteLength": 240,
      "target": 34963
    },
    {
      "buffer": 0,
      "byteOffset": 240,
      "byteLength": 448,
      "byteStride": 32,
      "target": 34962
    },
    {
      "buffer": 0,
      "byteOffset": 688,
      "byteLength": 512,
      "byteStride": 32,
      "target": 34962
    },
    {
      "buffer": 0,
      "byteOffset": 1200,
      "byteLength": 384,
      "byteStride": 24,
      "target": 34962
    },
    {
      "buffer": 0,
      "byteOffset": 1584,
      "byteLength": 280,
      "byteStride": 20,
      "target": 34962
    },
    {
      "buffer": 0,
      "byteOffset": 1864,
      "byteLength": 320,
      "byteStride": 20,
      "target": 34962
    },
    {
      "buffer": 0,
      "byteOffset": 2184,
      "byteLength": 192,
      "byteStride": 12,
      "target": 34962
    },
    {
      "buffer": 0,
      "byteOffset": 2376,
      "byteLength": 320,
      "byteStride": 20,
      "target": 34962
    },
    {
      "buffer": 0,
      "byteOffset": 2696,
      "byteLength": 192,
      "byteStride": 12,
      "target": 34962
    },
    {
      "buffer": 0,
      "byteOffset": 2888,
      "byteLength": 448,
      "byteStride": 32,
      "target": 34962
    },
    {
      "buffer": 0,
      "byteOffset": 3336,
      "byteLength": 760
    }
  ],
  "samplers": [
    {
      "magFilter": 9728,
      "minFilter": 9728,
      "wrapS": 33071,
      "wrapT": 33071
    }
  ],
  "textures": [
    {
      "source": 0,
      "sampler": 0
    }
  ],
  "images": [
    {
      "mimeType": "image/png",
      "uri": "baseColor.png"
    }
  ],
  "buffers": [
    {
      "uri": "bush-frosted-named-nodes.bin",
      "byteLength": 4096
    }
  ],
  "materials": [
    {
      "alphaMode": "MASK",
      "alphaCutoff": 0.05,
      "doubleSided": true,
      "pbrMetallicRoughness": {
        "metallicFactor": 0,
        "baseColorTexture": {
          "index": 0
        }
      }
    }
  ],
  "meshes": [
    {
      "primitives": [
        {
          "attributes": {
            "POSITION": 4,
            "NORMAL": 5,
            "TEXCOORD_0": 6
          },
          "mode": 4,
          "material": 0,
          "indices": 0
        }
      ]
    },
    {
      "primitives": [
        {
          "attributes": {
            "POSITION": 7,
            "TEXCOORD_0": 8,
            "NORMAL": 9
          },
          "mode": 4,
          "material": 0,
          "indices": 1
        }
      ]
    },
    {
      "primitives": [
        {
          "attributes": {
            "POSITION": 10,
            "NORMAL": 11,
            "TEXCOORD_0": 8
          },
          "mode": 4,
          "material": 0,
          "indices": 1
        }
      ]
    },
    {
      "primitives": [
        {
          "attributes": {
            "POSITION": 12,
            "TEXCOORD_0": 13,
            "NORMAL": 5
          },
          "mode": 4,
          "material": 0,
          "indices": 0
        }
      ]
    },
    {
      "primitives": [
        {
          "attributes": {
            "POSITION": 14,
            "TEXCOORD_0": 15,
            "NORMAL": 11
          },
          "mode": 4,
          "material": 0,
          "indices": 2
        }
      ]
    },
    {
      "primitives": [
        {
          "attributes": {
            "POSITION": 16,
            "NORMAL": 9,
            "TEXCOORD_0": 15
          },
          "mode": 4,
          "material": 0,
          "indices": 2
        }
      ]
    },
    {
      "primitives": [
        {
          "attributes": {
            "POSITION": 17,
            "TEXCOORD_0": 18,
            "NORMAL": 11
          },
          "mode": 4,
          "material": 0,
          "indices": 2
        }
      ]
    },
    {
      "primitives": [
        {
          "attributes": {
            "POSITION": 19,
            "NORMAL": 9,
            "TEXCOORD_0": 18
          },
          "mode": 4,
          "material": 0,
          "indices": 2
        }
      ]
    },
    {
      "primitives": [
        {
          "attributes": {
            "POSITION": 12,
            "NORMAL": 5,
            "TEXCOORD_0": 13
          },
          "mode": 4,
          "material": 0,
          "indices": 0
        }
      ]
    },
    {
      "primitives": [
        {
          "attributes": {
            "POSITION": 20,
            "TEXCOORD_0": 21,
            "NORMAL": 22
          },
          "mode": 4,
          "material": 0,
          "indices": 3
        }
      ]
    }
  ],
  "nodes": [
    {
      "name": "cube",
      "translation": [
        0.007582521472477649,
        0.625,
        0.029029130879203835
      ],
      "rotation": [
        0,
        0.3826834323650898,
        0,
        0.9238795325112867
      ],
      "mesh": 0
    },
    {
      "name": "cube",
      "translation": [
        0.1401650429449553,
        0.8125,
        -0.19194173824159233
      ],
      "rotation": [
        -0.2853201330982129,
        0.33527034435052533,
        -0.01828304624274775,
        0.8976925687940074
      ],
      "mesh": 1
    },
    {
      "name": "cube",
      "translation": [
        -0.125,
        0.8125,
        0.25
      ],
      "rotation": [
        0.2853201330982129,
        0.33527034435052533,
        0.01828304624274775,
        0.8976925687940074
      ],
      "mesh": 2
    },
    {
      "name": "bone",
      "translation": [
        -0.007582521472477649,
        -0.0625,
        -0.029029130879203835
      ],
      "children": [
        0,
        1,
        2
      ]
    },
    {
      "name": "cube",
      "translation": [
        0.13258252147247765,
        0,
        0.033470869120796165
      ],
      "rotation": [
        0,
        -0.3826834323650898,
        0,
        0.9238795325112867
      ],
      "mesh": 3
    },
    {
      "name": "cube",
      "translation": [
        0.2651650429449553,
        0.5625,
        0.25444173824159233
      ],
      "rotation": [
        0.2853201330982129,
        -0.33527034435052533,
        -0.01828304624274775,
        0.8976925687940074
      ],
      "mesh": 4
    },
    {
      "name": "cube",
      "translation": [
        0,
        0.5625,
        -0.1875
      ],
      "rotation": [
        -0.2853201330982129,
        -0.33527034435052533,
        0.01828304624274775,
        0.8976925687940074
      ],
      "mesh": 5
    },
    {
      "name": "cube",
      "translation": [
        0.2788982237339219,
        0.2008427310163871,
        0.2584569697160979
      ],
      "rotation": [
        -0.07945379631789856,
        -0.29867745007410734,
        -0.2797509505076472,
        0.9089655003122896
      ],
      "mesh": 6
    },
    {
      "name": "bone2",
      "translation": [
        -0.13258252147247765,
        0,
        -0.033470869120796165
      ],
      "children": [
        4,
        5,
        6,
        7
      ]
    },
    {
      "name": "cube",
      "translation": [
        -0.1463157022614443,
        0.2008427310163871,
        -0.22498610059530172
      ],
      "rotation": [
        0.07945379631789856,
        -0.29867745007410734,
        0.2797509505076472,
        0.9089655003122896
      ],
      "mesh": 7
    },
    {
      "name": "cube",
      "rotation": [
        -0.25881904510252074,
        0,
        0,
        0.9659258262890683
      ],
      "mesh": 8
    },
    {
      "name": "bone3",
      "children": [
        9,
        10
      ]
    },
    {
      "name": "cube",
      "rotation": [
        0.25881904510252074,
        0,
        0,
        0.9659258262890683
      ],
      "mesh": 8
    },
    {
      "name": "bone4",
      "children": [
        12
      ]
    },
    {
      "name": "cube",
      "rotation": [
        0.18301269872377196,
        0.6830126918431776,
        -0.1830127050606726,
        0.6830127119412595
      ],
      "mesh": 9
    },
    {
      "name": "bone5",
      "children": [
        14
      ]
    },
    {
      "name": "cube",
      "rotation": [
        0.18301269991719482,
        -0.6830126929834595,
        0.1830127038672438,
        0.6830127108009791
      ],
      "mesh": 8
    },
    {
      "name": "bone6",
      "children": [
        16
      ]
    },
    {
      "name": "root",
      "children": [
        3,
        8,
        11,
        13,
        15,
        17
      ]
    }
  ],
  "animations": [
    {
      "name": "idle",
      "samplers": [
        {
          "input": 23,
          "output": 24,
          "interpolation": "LINEAR"
        },
        {
          "input": 23,
          "output": 24,
          "interpolation": "LINEAR"
        },
        {
          "input": 23,
          "output": 24,
          "interpolation": "LINEAR"
        },
        {
          "input": 23,
          "output": 24,
          "interpolation": "LINEAR"
        },
        {
          "input": 23,
          "output": 24,
          "interpolation": "LINEAR"
        },
        {
          "input": 23,
          "output": 24,
          "interpolation": "LINEAR"
        }
      ],
      "channels": [
        {
          "sampler": 0,
          "target": {
            "node": 3,
            "path": "rotation"
          }
        },
        {
          "sampler": 1,
          "target": {
            "node": 8,
            "path": "rotation"
          }
        },
        {
          "sampler": 2,
          "target": {
            "node": 11,
            "path": "rotation"
          }
        },
        {
          "sampler": 3,
          "target": {
            "node": 13,
            "path": "rotation"
          }
        },
        {
          "sampler": 4,
          "target": {
            "node": 15,
            "path": "rotation"
          }
        },
        {
          "sampler": 5,
          "target": {
            "node": 17,
            "path": "rotation"
          }
        }
      ]
    }
  ],
  "scenes": [
    {
      "name": "blockbench_export",
      "nodes": [
        18
      ]
    }
  ],
  "scene": 0
}