{"asset":{"version":"2.0","generator":"Blockbench 4.12.5 glTF exporter"},"scenes":[{"nodes":[14],"name":"blockbench_export"}],"scene":0,"nodes":[{"translation":[0,-0.15625,0],"name":"cube","mesh":0},{"translation":[0,-0.15625,0],"name":"cube","mesh":1},{"translation":[0,0.15625,0],"name":"fire_particle1","children":[0,1]},{"translation":[0,-0.15625,0],"name":"cube","mesh":2},{"translation":[0,-0.15625,0],"name":"cube","mesh":3},{"translation":[0,0.15625,0],"name":"fire_particle2","children":[3,4]},{"translation":[0,-0.15625,0],"name":"cube","mesh":4},{"translation":[0,-0.15625,0],"name":"cube","mesh":5},{"translation":[0,0.15625,0],"name":"fire_particle3","children":[6,7]},{"translation":[0,-0.15625,0],"name":"cube","mesh":6},{"translation":[0,-0.15625,0],"name":"cube","mesh":7},{"translation":[0,0.15625,0],"name":"fire_particle4","children":[9,10]},{"name":"vfx","children":[2,5,8,11]},{"name":"fire_particle","children":[12]},{"children":[13]}],"bufferViews":[{"buffer":0,"byteOffset":0,"byteLength":288,"target":34962,"byteStride":12},{"buffer":0,"byteOffset":288,"byteLength":288,"target":34962,"byteStride":12},{"buffer":0,"byteOffset":576,"byteLength":192,"target":34962,"byteStride":8},{"buffer":0,"byteOffset":768,"byteLength":72,"target":34963},{"buffer":0,"byteOffset":840,"byteLength":288,"target":34962,"byteStride":12},{"buffer":0,"byteOffset":1128,"byteLength":288,"target":34962,"byteStride":12},{"buffer":0,"byteOffset":1416,"byteLength":192,"target":34962,"byteStride":8},{"buffer":0,"byteOffset":1608,"byteLength":72,"target":34963},{"buffer":0,"byteOffset":1680,"byteLength":288,"target":34962,"byteStride":12},{"buffer":0,"byteOffset":1968,"byteLength":288,"target":34962,"byteStride":12},{"buffer":0,"byteOffset":2256,"byteLength":192,"target":34962,"byteStride":8},{"buffer":0,"byteOffset":2448,"byteLength":72,"target":34963},{"buffer":0,"byteOffset":2520,"byteLength":288,"target":34962,"byteStride":12},{"buffer":0,"byteOffset":2808,"byteLength":288,"target":34962,"byteStride":12},{"buffer":0,"byteOffset":3096,"byteLength":192,"target":34962,"byteStride":8},{"buffer":0,"byteOffset":3288,"byteLength":72,"target":34963},{"buffer":0,"byteOffset":3360,"byteLength":288,"target":34962,"byteStride":12},{"buffer":0,"byteOffset":3648,"byteLength":288,"target":34962,"byteStride":12},{"buffer":0,"byteOffset":3936,"byteLength":192,"target":34962,"byteStride":8},{"buffer":0,"byteOffset":4128,"byteLength":72,"target":34963},{"buffer":0,"byteOffset":4200,"byteLength":288,"target":34962,"byteStride":12},{"buffer":0,"byteOffset":4488,"byteLength":288,"target":34962,"byteStride":12},{"buffer":0,"byteOffset":4776,"byteLength":192,"target":34962,"byteStride":8},{"buffer":0,"byteOffset":4968,"byteLength":72,"target":34963},{"buffer":0,"byteOffset":5040,"byteLength":288,"target":34962,"byteStride":12},{"buffer":0,"byteOffset":5328,"byteLength":288,"target":34962,"byteStride":12},{"buffer":0,"byteOffset":5616,"byteLength":192,"target":34962,"byteStride":8},{"buffer":0,"byteOffset":5808,"byteLength":72,"target":34963},{"buffer":0,"byteOffset":5880,"byteLength":288,"target":34962,"byteStride":12},{"buffer":0,"byteOffset":6168,"byteLength":288,"target":34962,"byteStride":12},{"buffer":0,"byteOffset":6456,"byteLength":192,"target":34962,"byteStride":8},{"buffer":0,"byteOffset":6648,"byteLength":72,"target":34963},{"buffer":0,"byteOffset":6720,"byteLength":8},{"buffer":0,"byteOffset":6728,"byteLength":32},{"buffer":0,"byteOffset":6760,"byteLength":100},{"buffer":0,"byteOffset":6860,"byteLength":300},{"buffer":0,"byteOffset":7160,"byteLength":96},{"buffer":0,"byteOffset":7256,"byteLength":288},{"buffer":0,"byteOffset":7544,"byteLength":24},{"buffer":0,"byteOffset":7568,"byteLength":96},{"buffer":0,"byteOffset":7664,"byteLength":100},{"buffer":0,"byteOffset":7764,"byteLength":300},{"buffer":0,"byteOffset":8064,"byteLength":100},{"buffer":0,"byteOffset":8164,"byteLength":300},{"buffer":0,"byteOffset":8464,"byteLength":24},{"buffer":0,"byteOffset":8488,"byteLength":96},{"buffer":0,"byteOffset":8584,"byteLength":100},{"buffer":0,"byteOffset":8684,"byteLength":300},{"buffer":0,"byteOffset":8984,"byteLength":92},{"buffer":0,"byteOffset":9076,"byteLength":276},{"buffer":0,"byteOffset":9352,"byteLength":24},{"buffer":0,"byteOffset":9376,"byteLength":96},{"buffer":0,"byteOffset":9472,"byteLength":100},{"buffer":0,"byteOffset":9572,"byteLength":300},{"buffer":0,"byteOffset":9872,"byteLength":104},{"buffer":0,"byteOffset":9976,"byteLength":312},{"buffer":0,"byteOffset":10288,"byteLength":4},{"buffer":0,"byteOffset":10292,"byteLength":16},{"buffer":0,"byteOffset":10308,"byteLength":100},{"buffer":0,"byteOffset":10408,"byteLength":300},{"buffer":0,"byteOffset":10708,"byteLength":24},{"buffer":0,"byteOffset":10732,"byteLength":72},{"buffer":0,"byteOffset":10804,"byteLength":24},{"buffer":0,"byteOffset":10828,"byteLength":96},{"buffer":0,"byteOffset":10924,"byteLength":100},{"buffer":0,"byteOffset":11024,"byteLength":300},{"buffer":0,"byteOffset":11324,"byteLength":8},{"buffer":0,"byteOffset":11332,"byteLength":24},{"buffer":0,"byteOffset":11356,"byteLength":24},{"buffer":0,"byteOffset":11380,"byteLength":96},{"buffer":0,"byteOffset":11476,"byteLength":100},{"buffer":0,"byteOffset":11576,"byteLength":300},{"buffer":0,"byteOffset":11876,"byteLength":28},{"buffer":0,"byteOffset":11904,"byteLength":84},{"buffer":0,"byteOffset":11988,"byteLength":24},{"buffer":0,"byteOffset":12012,"byteLength":96},{"buffer":0,"byteOffset":12108,"byteLength":100},{"buffer":0,"byteOffset":12208,"byteLength":300},{"buffer":0,"byteOffset":12508,"byteLength":36},{"buffer":0,"byteOffset":12544,"byteLength":108}],"buffers":[{"byteLength":12652,"uri":"data:application/octet-stream;base64,"}],"accessors":[{"bufferView":0,"componentType":5126,"count":24,"max":[0.140625,0.296875,0.140625],"min":[-0.140625,0.015625,-0.140625],"type":"VEC3"},{"bufferView":1,"componentType":5126,"count":24,"max":[1,1,1],"min":[-1,-1,-1],"type":"VEC3"},{"bufferView":2,"componentType":5126,"count":24,"max":[0.9375,0.9375],"min":[0.625,0.625],"type":"VEC2"},{"bufferView":3,"componentType":5123,"count":36,"max":[23],"min":[0],"type":"SCALAR"},{"bufferView":4,"componentType":5126,"count":24,"max":[0.15625,0.3125,0.15625],"min":[-0.15625,0,-0.15625],"type":"VEC3"},{"bufferView":5,"componentType":5126,"count":24,"max":[1,1,1],"min":[-1,-1,-1],"type":"VEC3"},{"bufferView":6,"componentType":5126,"count":24,"max":[0.9375,0.9375],"min":[0,0],"type":"VEC2"},{"bufferView":7,"componentType":5123,"count":36,"max":[23],"min":[0],"type":"SCALAR"},{"bufferView":8,"componentType":5126,"count":24,"max":[0.15625,0.3125,0.15625],"min":[-0.15625,0,-0.15625],"type":"VEC3"},{"bufferView":9,"componentType":5126,"count":24,"max":[1,1,1],"min":[-1,-1,-1],"type":"VEC3"},{"bufferView":10,"componentType":5126,"count":24,"max":[0.9375,0.9375],"min":[0,0],"type":"VEC2"},{"bufferView":11,"componentType":5123,"count":36,"max":[23],"min":[0],"type":"SCALAR"},{"bufferView":12,"componentType":5126,"count":24,"max":[0.140625,0.296875,0.140625],"min":[-0.140625,0.015625,-0.140625],"type":"VEC3"},{"bufferView":13,"componentType":5126,"count":24,"max":[1,1,1],"min":[-1,-1,-1],"type":"VEC3"},{"bufferView":14,"componentType":5126,"count":24,"max":[0.9375,0.9375],"min":[0.625,0.625],"type":"VEC2"},{"bufferView":15,"componentType":5123,"count":36,"max":[23],"min":[0],"type":"SCALAR"},{"bufferView":16,"componentType":5126,"count":24,"max":[0.15625,0.3125,0.15625],"min":[-0.15625,0,-0.15625],"type":"VEC3"},{"bufferView":17,"componentType":5126,"count":24,"max":[1,1,1],"min":[-1,-1,-1],"type":"VEC3"},{"bufferView":18,"componentType":5126,"count":24,"max":[0.9375,0.9375],"min":[0,0],"type":"VEC2"},{"bufferView":19,"componentType":5123,"count":36,"max":[23],"min":[0],"type":"SCALAR"},{"bufferView":20,"componentType":5126,"count":24,"max":[0.140625,0.296875,0.140625],"min":[-0.140625,0.015625,-0.140625],"type":"VEC3"},{"bufferView":21,"componentType":5126,"count":24,"max":[1,1,1],"min":[-1,-1,-1],"type":"VEC3"},{"bufferView":22,"componentType":5126,"count":24,"max":[0.9375,0.9375],"min":[0.625,0.625],"type":"VEC2"},{"bufferView":23,"componentType":5123,"count":36,"max":[23],"min":[0],"type":"SCALAR"},{"bufferView":24,"componentType":5126,"count":24,"max":[0.15625,0.3125,0.15625],"min":[-0.15625,0,-0.15625],"type":"VEC3"},{"bufferView":25,"componentType":5126,"count":24,"max":[1,1,1],"min":[-1,-1,-1],"type":"VEC3"},{"bufferView":26,"componentType":5126,"count":24,"max":[0.9375,0.9375],"min":[0,0],"type":"VEC2"},{"bufferView":27,"componentType":5123,"count":36,"max":[23],"min":[0],"type":"SCALAR"},{"bufferView":28,"componentType":5126,"count":24,"max":[0.140625,0.296875,0.140625],"min":[-0.140625,0.015625,-0.140625],"type":"VEC3"},{"bufferView":29,"componentType":5126,"count":24,"max":[1,1,1],"min":[-1,-1,-1],"type":"VEC3"},{"bufferView":30,"componentType":5126,"count":24,"max":[0.9375,0.9375],"min":[0.625,0.625],"type":"VEC2"},{"bufferView":31,"componentType":5123,"count":36,"max":[23],"min":[0],"type":"SCALAR"},{"bufferView":32,"componentType":5126,"count":2,"max":[1.5],"min":[0],"type":"SCALAR"},{"bufferView":33,"componentType":5126,"count":2,"max":[-1.4997597572211942e-32,1.2246468525851679e-16,1.2246468525851679e-16,1],"min":[-1.4997597572211942e-32,1.2246468525851679e-16,1.2246468525851679e-16,1],"type":"VEC4"},{"bufferView":34,"componentType":5126,"count":25,"max":[1.5],"min":[0],"type":"SCALAR"},{"bufferView":35,"componentType":5126,"count":25,"max":[0.12569895386695862,0.9136513471603394,0.08865740895271301],"min":[-0.0625,0.0902349129319191,-0.23125000298023224],"type":"VEC3"},{"bufferView":36,"componentType":5126,"count":24,"max":[1.5],"min":[0],"type":"SCALAR"},{"bufferView":37,"componentType":5126,"count":24,"max":[1.051297903060913,1.051297903060913,1.051297903060913],"min":[0,0,0],"type":"VEC3"},{"bufferView":38,"componentType":5126,"count":6,"max":[1.5],"min":[0],"type":"SCALAR"},{"bufferView":39,"componentType":5126,"count":6,"max":[0.55901700258255,0.18163563311100006,0,1],"min":[-0.55901700258255,-0.769420862197876,-0.769420862197876,-1],"type":"VEC4"},{"bufferView":40,"componentType":5126,"count":25,"max":[1.5],"min":[0],"type":"SCALAR"},{"bufferView":41,"componentType":5126,"count":25,"max":[0.125,0.96875,0.14374999701976776],"min":[-0.1875,0.0859917551279068,-0.0625],"type":"VEC3"},{"bufferView":42,"componentType":5126,"count":25,"max":[1.5],"min":[0],"type":"SCALAR"},{"bufferView":43,"componentType":5126,"count":25,"max":[1,1,1],"min":[0,0,0],"type":"VEC3"},{"bufferView":44,"componentType":5126,"count":6,"max":[1.5],"min":[0],"type":"SCALAR"},{"bufferView":45,"componentType":5126,"count":6,"max":[0.55901700258255,0.769420862197876,0,1],"min":[-0.55901700258255,-0.18163563311100006,-0.769420862197876,-1],"type":"VEC4"},{"bufferView":46,"componentType":5126,"count":25,"max":[1.5],"min":[0],"type":"SCALAR"},{"bufferView":47,"componentType":5126,"count":25,"max":[0.12618055939674377,0.96875,0.01875000074505806],"min":[-0.008861400187015533,0.08575439453125,-0.0625],"type":"VEC3"},{"bufferView":48,"componentType":5126,"count":23,"max":[1.5],"min":[0],"type":"SCALAR"},{"bufferView":49,"componentType":5126,"count":23,"max":[1,1,1],"min":[0,0,0],"type":"VEC3"},{"bufferView":50,"componentType":5126,"count":6,"max":[1.5],"min":[0],"type":"SCALAR"},{"bufferView":51,"componentType":5126,"count":6,"max":[0.55901700258255,0.18163563311100006,0.769420862197876,1],"min":[-0.55901700258255,-0.769420862197876,0,-1],"type":"VEC4"},{"bufferView":52,"componentType":5126,"count":25,"max":[1.5],"min":[0],"type":"SCALAR"},{"bufferView":53,"componentType":5126,"count":25,"max":[0.125,0.96875,0.01875000074505806],"min":[-0.012973022647202015,0.10912001132965088,-0.0625],"type":"VEC3"},{"bufferView":54,"componentType":5126,"count":26,"max":[1.5],"min":[0],"type":"SCALAR"},{"bufferView":55,"componentType":5126,"count":26,"max":[1,1,1],"min":[0,0,0],"type":"VEC3"},{"bufferView":56,"componentType":5126,"count":1,"max":[0],"min":[0],"type":"SCALAR"},{"bufferView":57,"componentType":5126,"count":1,"max":[-1.4997597572211942e-32,1.2246468525851679e-16,1.2246468525851679e-16,1],"min":[-1.4997597572211942e-32,1.2246468525851679e-16,1.2246468525851679e-16,1],"type":"VEC4"},{"bufferView":58,"componentType":5126,"count":25,"max":[1.5],"min":[0],"type":"SCALAR"},{"bufferView":59,"componentType":5126,"count":25,"max":[0.12569895386695862,0.9136513471603394,0.768750011920929],"min":[-0.014853395521640778,0.0902349129319191,-0.23125000298023224],"type":"VEC3"},{"bufferView":60,"componentType":5126,"count":6,"max":[0.25],"min":[0],"type":"SCALAR"},{"bufferView":61,"componentType":5126,"count":6,"max":[0.8309000134468079,0.8309000134468079,0.8309000134468079],"min":[0,0,0],"type":"VEC3"},{"bufferView":62,"componentType":5126,"count":6,"max":[1.5],"min":[0],"type":"SCALAR"},{"bufferView":63,"componentType":5126,"count":6,"max":[0.55901700258255,0.18163563311100006,0,1],"min":[-0.55901700258255,-0.769420862197876,-0.769420862197876,-1],"type":"VEC4"},{"bufferView":64,"componentType":5126,"count":25,"max":[1.5],"min":[0],"type":"SCALAR"},{"bufferView":65,"componentType":5126,"count":25,"max":[0.125,1.3562500476837158,0.14374999701976776],"min":[-0.1875,0.0616861991584301,-0.40062499046325684],"type":"VEC3"},{"bufferView":66,"componentType":5126,"count":2,"max":[0.20000000298023224],"min":[0],"type":"SCALAR"},{"bufferView":67,"componentType":5126,"count":2,"max":[0.4636000096797943,0.4636000096797943,0.4636000096797943],"min":[0,0,0],"type":"VEC3"},{"bufferView":68,"componentType":5126,"count":6,"max":[1.5],"min":[0],"type":"SCALAR"},{"bufferView":69,"componentType":5126,"count":6,"max":[0.55901700258255,0.769420862197876,0,1],"min":[-0.55901700258255,-0.18163563311100006,-0.769420862197876,-1],"type":"VEC4"},{"bufferView":70,"componentType":5126,"count":25,"max":[1.5],"min":[0],"type":"SCALAR"},{"bufferView":71,"componentType":5126,"count":25,"max":[0.125,0.96875,0.01875000074505806],"min":[-0.9375,-0.09375,-0.0694444477558136],"type":"VEC3"},{"bufferView":72,"componentType":5126,"count":7,"max":[0.3499999940395355],"min":[0],"type":"SCALAR"},{"bufferView":73,"componentType":5126,"count":7,"max":[1,1,1],"min":[0,0,0],"type":"VEC3"},{"bufferView":74,"componentType":5126,"count":6,"max":[1.5],"min":[0],"type":"SCALAR"},{"bufferView":75,"componentType":5126,"count":6,"max":[0.55901700258255,0.18163563311100006,0.769420862197876,1],"min":[-0.55901700258255,-0.769420862197876,0,-1],"type":"VEC4"},{"bufferView":76,"componentType":5126,"count":25,"max":[1.5],"min":[0],"type":"SCALAR"},{"bufferView":77,"componentType":5126,"count":25,"max":[1.7743749618530273,0.96875,0.03141021355986595],"min":[-0.1288490742444992,-0.09375,-1.0437500476837158],"type":"VEC3"},{"bufferView":78,"componentType":5126,"count":9,"max":[0.44999998807907104],"min":[0],"type":"SCALAR"},{"bufferView":79,"componentType":5126,"count":9,"max":[1,1,1],"min":[0,0,0],"type":"VEC3"}],"materials":[{"pbrMetallicRoughness":{"metallicFactor":0,"roughnessFactor":1,"baseColorTexture":{"index":0}},"alphaMode":"MASK","alphaCutoff":0.05,"doubleSided":true}],"textures":[{"sampler":0,"source":0,"name":"fire_particle"}],"samplers":[{"magFilter":9728,"minFilter":9728,"wrapS":33071,"wrapT":33071}],"images":[{"mimeType":"image/png","uri":"data:image/png;base64,"}],"meshes":[{"primitives":[{"mode":4,"attributes":{"POSITION":0,"NORMAL":1,"TEXCOORD_0":2},"indices":3,"material":0}]},{"primitives":[{"mode":4,"attributes":{"POSITION":4,"NORMAL":5,"TEXCOORD_0":6},"indices":7,"material":0}]},{"primitives":[{"mode":4,"attributes":{"POSITION":8,"NORMAL":9,"TEXCOORD_0":10},"indices":11,"material":0}]},{"primitives":[{"mode":4,"attributes":{"POSITION":12,"NORMAL":13,"TEXCOORD_0":14},"indices":15,"material":0}]},{"primitives":[{"mode":4,"attributes":{"POSITION":16,"NORMAL":17,"TEXCOORD_0":18},"indices":19,"material":0}]},{"primitives":[{"mode":4,"attributes":{"POSITION":20,"NORMAL":21,"TEXCOORD_0":22},"indices":23,"material":0}]},{"primitives":[{"mode":4,"attributes":{"POSITION":24,"NORMAL":25,"TEXCOORD_0":26},"indices":27,"material":0}]},{"primitives":[{"mode":4,"attributes":{"POSITION":28,"NORMAL":29,"TEXCOORD_0":30},"indices":31,"material":0}]}],"animations":[{"name":"idle","samplers":[{"input":32,"output":33,"interpolation":"LINEAR"},{"input":34,"output":35,"interpolation":"LINEAR"},{"input":36,"output":37,"interpolation":"LINEAR"},{"input":38,"output":39,"interpolation":"LINEAR"},{"input":40,"output":41,"interpolation":"LINEAR"},{"input":42,"output":43,"interpolation":"LINEAR"},{"input":44,"output":45,"interpolation":"LINEAR"},{"input":46,"output":47,"interpolation":"LINEAR"},{"input":48,"output":49,"interpolation":"LINEAR"},{"input":50,"output":51,"interpolation":"LINEAR"},{"input":52,"output":53,"interpolation":"LINEAR"},{"input":54,"output":55,"interpolation":"LINEAR"}],"channels":[{"sampler":0,"target":{"node":2,"path":"rotation"}},{"sampler":1,"target":{"node":2,"path":"translation"}},{"sampler":2,"target":{"node":2,"path":"scale"}},{"sampler":3,"target":{"node":5,"path":"rotation"}},{"sampler":4,"target":{"node":5,"path":"translation"}},{"sampler":5,"target":{"node":5,"path":"scale"}},{"sampler":6,"target":{"node":8,"path":"rotation"}},{"sampler":7,"target":{"node":8,"path":"translation"}},{"sampler":8,"target":{"node":8,"path":"scale"}},{"sampler":9,"target":{"node":11,"path":"rotation"}},{"sampler":10,"target":{"node":11,"path":"translation"}},{"sampler":11,"target":{"node":11,"path":"scale"}}]},{"name":"death","samplers":[{"input":56,"output":57,"interpolation":"LINEAR"},{"input":58,"output":59,"interpolation":"LINEAR"},{"input":60,"output":61,"interpolation":"LINEAR"},{"input":62,"output":63,"interpolation":"LINEAR"},{"input":64,"output":65,"interpolation":"LINEAR"},{"input":66,"output":67,"interpolation":"LINEAR"},{"input":68,"output":69,"interpolation":"LINEAR"},{"input":70,"output":71,"interpolation":"LINEAR"},{"input":72,"output":73,"interpolation":"LINEAR"},{"input":74,"output":75,"interpolation":"LINEAR"},{"input":76,"output":77,"interpolation":"LINEAR"},{"input":78,"output":79,"interpolation":"LINEAR"}],"channels":[{"sampler":0,"target":{"node":2,"path":"rotation"}},{"sampler":1,"target":{"node":2,"path":"translation"}},{"sampler":2,"target":{"node":2,"path":"scale"}},{"sampler":3,"target":{"node":5,"path":"rotation"}},{"sampler":4,"target":{"node":5,"path":"translation"}},{"sampler":5,"target":{"node":5,"path":"scale"}},{"sampler":6,"target":{"node":8,"path":"rotation"}},{"sampler":7,"target":{"node":8,"path":"translation"}},{"sampler":8,"target":{"node":8,"path":"scale"}},{"sampler":9,"target":{"node":11,"path":"rotation"}},{"sampler":10,"target":{"node":11,"path":"translation"}},{"sampler":11,"target":{"node":11,"path":"scale"}}]}]}