{"asset":{"version":"2.0","generator":"Blockbench 4.12.5 glTF exporter"},"scenes":[{"nodes":[23],"name":"blockbench_export"}],"scene":0,"nodes":[{"name":"cube","mesh":0},{"translation":[-0.84375,-0.17578125,0],"name":"cube","mesh":1},{"translation":[-0.84375,0.17578125,0],"name":"web4","children":[1]},{"translation":[0.84375,-0.17578125,0],"name":"cube","mesh":2},{"translation":[0.84375,0.17578125,0],"name":"web5","children":[3]},{"translation":[0,-0.17578125,-0.84375],"name":"cube","mesh":3},{"translation":[0,-0.01171875,0],"name":"web2","children":[5]},{"translation":[0,-0.17578125,-0.84375],"name":"cube","mesh":4},{"translation":[1.6875,-0.01171875,0],"name":"web12","children":[7]},{"translation":[0,-0.17578125,-0.84375],"name":"cube","mesh":5},{"translation":[-1.6875,-0.01171875,0],"name":"web13","children":[9]},{"rotation":[-0.06540312923014306,0,0,0.9978589232386035],"translation":[0,0.1875,-0.84375],"name":"bone","children":[6,8,10]},{"translation":[0,-0.17578125,0.84375],"name":"cube","mesh":6},{"translation":[0,-0.01171875,0],"name":"web3","children":[12]},{"translation":[0,-0.17578125,0.84375],"name":"cube","mesh":7},{"translation":[-1.6875,-0.01171875,0],"name":"web10","children":[14]},{"translation":[0,-0.17578125,0.84375],"name":"cube","mesh":8},{"translation":[1.6875,-0.01171875,0],"name":"web11","children":[16]},{"rotation":[0.06540312923014306,0,0,0.9978589232386035],"translation":[0,0.1875,0.84375],"name":"bone2","children":[13,15,17]},{"translation":[0,0.0625,0],"name":"web","children":[0,2,4,11,18]},{"name":"root","children":[19]},{"translation":[0,-0.125,0],"name":"cube","mesh":9},{"translation":[0,0.125,0],"name":"hitbox","children":[21]},{"children":[20,22]}],"bufferViews":[{"buffer":0,"byteOffset":0,"byteLength":288,"target":34962,"byteStride":12},{"buffer":0,"byteOffset":288,"byteLength":288,"target":34962,"byteStride":12},{"buffer":0,"byteOffset":576,"byteLength":192,"target":34962,"byteStride":8},{"buffer":0,"byteOffset":768,"byteLength":72,"target":34963},{"buffer":0,"byteOffset":840,"byteLength":288,"target":34962,"byteStride":12},{"buffer":0,"byteOffset":1128,"byteLength":288,"target":34962,"byteStride":12},{"buffer":0,"byteOffset":1416,"byteLength":192,"target":34962,"byteStride":8},{"buffer":0,"byteOffset":1608,"byteLength":72,"target":34963},{"buffer":0,"byteOffset":1680,"byteLength":288,"target":34962,"byteStride":12},{"buffer":0,"byteOffset":1968,"byteLength":288,"target":34962,"byteStride":12},{"buffer":0,"byteOffset":2256,"byteLength":192,"target":34962,"byteStride":8},{"buffer":0,"byteOffset":2448,"byteLength":72,"target":34963},{"buffer":0,"byteOffset":2520,"byteLength":288,"target":34962,"byteStride":12},{"buffer":0,"byteOffset":2808,"byteLength":288,"target":34962,"byteStride":12},{"buffer":0,"byteOffset":3096,"byteLength":192,"target":34962,"byteStride":8},{"buffer":0,"byteOffset":3288,"byteLength":72,"target":34963},{"buffer":0,"byteOffset":3360,"byteLength":288,"target":34962,"byteStride":12},{"buffer":0,"byteOffset":3648,"byteLength":288,"target":34962,"byteStride":12},{"buffer":0,"byteOffset":3936,"byteLength":192,"target":34962,"byteStride":8},{"buffer":0,"byteOffset":4128,"byteLength":72,"target":34963},{"buffer":0,"byteOffset":4200,"byteLength":288,"target":34962,"byteStride":12},{"buffer":0,"byteOffset":4488,"byteLength":288,"target":34962,"byteStride":12},{"buffer":0,"byteOffset":4776,"byteLength":192,"target":34962,"byteStride":8},{"buffer":0,"byteOffset":4968,"byteLength":72,"target":34963},{"buffer":0,"byteOffset":5040,"byteLength":288,"target":34962,"byteStride":12},{"buffer":0,"byteOffset":5328,"byteLength":288,"target":34962,"byteStride":12},{"buffer":0,"byteOffset":5616,"byteLength":192,"target":34962,"byteStride":8},{"buffer":0,"byteOffset":5808,"byteLength":72,"target":34963},{"buffer":0,"byteOffset":5880,"byteLength":288,"target":34962,"byteStride":12},{"buffer":0,"byteOffset":6168,"byteLength":288,"target":34962,"byteStride":12},{"buffer":0,"byteOffset":6456,"byteLength":192,"target":34962,"byteStride":8},{"buffer":0,"byteOffset":6648,"byteLength":72,"target":34963},{"buffer":0,"byteOffset":6720,"byteLength":288,"target":34962,"byteStride":12},{"buffer":0,"byteOffset":7008,"byteLength":288,"target":34962,"byteStride":12},{"buffer":0,"byteOffset":7296,"byteLength":192,"target":34962,"byteStride":8},{"buffer":0,"byteOffset":7488,"byteLength":72,"target":34963},{"buffer":0,"byteOffset":7560,"byteLength":288,"target":34962,"byteStride":12},{"buffer":0,"byteOffset":7848,"byteLength":288,"target":34962,"byteStride":12},{"buffer":0,"byteOffset":8136,"byteLength":192,"target":34962,"byteStride":8},{"buffer":0,"byteOffset":8328,"byteLength":72,"target":34963},{"buffer":0,"byteOffset":8400,"byteLength":64},{"buffer":0,"byteOffset":8464,"byteLength":192},{"buffer":0,"byteOffset":8656,"byteLength":64},{"buffer":0,"byteOffset":8720,"byteLength":256},{"buffer":0,"byteOffset":8976,"byteLength":64},{"buffer":0,"byteOffset":9040,"byteLength":256},{"buffer":0,"byteOffset":9296,"byteLength":48},{"buffer":0,"byteOffset":9344,"byteLength":144},{"buffer":0,"byteOffset":9488,"byteLength":48},{"buffer":0,"byteOffset":9536,"byteLength":144},{"buffer":0,"byteOffset":9680,"byteLength":48},{"buffer":0,"byteOffset":9728,"byteLength":192},{"buffer":0,"byteOffset":9920,"byteLength":48},{"buffer":0,"byteOffset":9968,"byteLength":192},{"buffer":0,"byteOffset":10160,"byteLength":48},{"buffer":0,"byteOffset":10208,"byteLength":144},{"buffer":0,"byteOffset":10352,"byteLength":48},{"buffer":0,"byteOffset":10400,"byteLength":192},{"buffer":0,"byteOffset":10592,"byteLength":48},{"buffer":0,"byteOffset":10640,"byteLength":192}],"buffers":[{"byteLength":10832,"uri":"data:application/octet-stream;base64,"}],"accessors":[{"bufferView":0,"componentType":5126,"count":24,"max":[0.84375,0.175843745470047,0.84375],"min":[-0.84375,0.17578125,-0.84375],"type":"VEC3"},{"bufferView":1,"componentType":5126,"count":24,"max":[1,1,1],"min":[-1,-1,-1],"type":"VEC3"},{"bufferView":2,"componentType":5126,"count":24,"max":[0.328125,0.5625],"min":[0,0],"type":"VEC2"},{"bufferView":3,"componentType":5123,"count":36,"max":[23],"min":[0],"type":"SCALAR"},{"bufferView":4,"componentType":5126,"count":24,"max":[0.84375,0.175843745470047,0.84375],"min":[-1.0546875,0.17578125,-0.84375],"type":"VEC3"},{"bufferView":5,"componentType":5126,"count":24,"max":[1,1,1],"min":[-1,-1,-1],"type":"VEC3"},{"bufferView":6,"componentType":5126,"count":24,"max":[0.3515625,0.4453125],"min":[0,0],"type":"VEC2"},{"bufferView":7,"componentType":5123,"count":36,"max":[23],"min":[0],"type":"SCALAR"},{"bufferView":8,"componentType":5126,"count":24,"max":[1.0546875,0.175843745470047,0.84375],"min":[-0.84375,0.17578125,-0.84375],"type":"VEC3"},{"bufferView":9,"componentType":5126,"count":24,"max":[1,1,1],"min":[-1,-1,-1],"type":"VEC3"},{"bufferView":10,"componentType":5126,"count":24,"max":[0.46875,0.45703125],"min":[0,0],"type":"VEC2"},{"bufferView":11,"componentType":5123,"count":36,"max":[23],"min":[0],"type":"SCALAR"},{"bufferView":12,"componentType":5126,"count":24,"max":[0.84375,0.175843745470047,0.84375],"min":[-0.84375,0.17578125,-1.0546875],"type":"VEC3"},{"bufferView":13,"componentType":5126,"count":24,"max":[1,1,1],"min":[-1,-1,-1],"type":"VEC3"},{"bufferView":14,"componentType":5126,"count":24,"max":[0.45703125,0.46875],"min":[0,0],"type":"VEC2"},{"bufferView":15,"componentType":5123,"count":36,"max":[23],"min":[0],"type":"SCALAR"},{"bufferView":16,"componentType":5126,"count":24,"max":[1.0546875,0.175843745470047,0.84375],"min":[-0.84375,0.17578125,-1.0546875],"type":"VEC3"},{"bufferView":17,"componentType":5126,"count":24,"max":[1,1,1],"min":[-1,-1,-1],"type":"VEC3"},{"bufferView":18,"componentType":5126,"count":24,"max":[0.1171875,0.2343750149011612],"min":[0,0],"type":"VEC2"},{"bufferView":19,"componentType":5123,"count":36,"max":[23],"min":[0],"type":"SCALAR"},{"bufferView":20,"componentType":5126,"count":24,"max":[0.84375,0.175843745470047,0.84375],"min":[-1.0546875,0.17578125,-1.0546875],"type":"VEC3"},{"bufferView":21,"componentType":5126,"count":24,"max":[1,1,1],"min":[-1,-1,-1],"type":"VEC3"},{"bufferView":22,"componentType":5126,"count":24,"max":[0.234375,0.2343750149011612],"min":[0,0],"type":"VEC2"},{"bufferView":23,"componentType":5123,"count":36,"max":[23],"min":[0],"type":"SCALAR"},{"bufferView":24,"componentType":5126,"count":24,"max":[0.84375,0.175843745470047,1.0546875],"min":[-0.84375,0.17578125,-0.84375],"type":"VEC3"},{"bufferView":25,"componentType":5126,"count":24,"max":[1,1,1],"min":[-1,-1,-1],"type":"VEC3"},{"bufferView":26,"componentType":5126,"count":24,"max":[0.45703125,0.45703125],"min":[0,0],"type":"VEC2"},{"bufferView":27,"componentType":5123,"count":36,"max":[23],"min":[0],"type":"SCALAR"},{"bufferView":28,"componentType":5126,"count":24,"max":[0.84375,0.175843745470047,1.0546875],"min":[-1.0546875,0.17578125,-0.84375],"type":"VEC3"},{"bufferView":29,"componentType":5126,"count":24,"max":[1,1,1],"min":[-1,-1,-1],"type":"VEC3"},{"bufferView":30,"componentType":5126,"count":24,"max":[0.3515625,0.3515625],"min":[0,0],"type":"VEC2"},{"bufferView":31,"componentType":5123,"count":36,"max":[23],"min":[0],"type":"SCALAR"},{"bufferView":32,"componentType":5126,"count":24,"max":[1.0546875,0.175843745470047,1.0546875],"min":[-0.84375,0.17578125,-0.84375],"type":"VEC3"},{"bufferView":33,"componentType":5126,"count":24,"max":[1,1,1],"min":[-1,-1,-1],"type":"VEC3"},{"bufferView":34,"componentType":5126,"count":24,"max":[0.3515625,0.3515625],"min":[0,0],"type":"VEC2"},{"bufferView":35,"componentType":5123,"count":36,"max":[23],"min":[0],"type":"SCALAR"},{"bufferView":36,"componentType":5126,"count":24,"max":[0.5,0.25,0.5],"min":[-0.5,0,-0.5],"type":"VEC3"},{"bufferView":37,"componentType":5126,"count":24,"max":[1,1,1],"min":[-1,-1,-1],"type":"VEC3"},{"bufferView":38,"componentType":5126,"count":24,"max":[0.5625,0.5625],"min":[0.48828125,0.51953125],"type":"VEC2"},{"bufferView":39,"componentType":5123,"count":36,"max":[23],"min":[0],"type":"SCALAR"},{"bufferView":40,"componentType":5126,"count":16,"max":[1],"min":[0],"type":"SCALAR"},{"bufferView":41,"componentType":5126,"count":16,"max":[1.0499999523162842,1.0499999523162842,1.0499999523162842],"min":[1,1,1],"type":"VEC3"},{"bufferView":42,"componentType":5126,"count":16,"max":[1],"min":[0],"type":"SCALAR"},{"bufferView":43,"componentType":5126,"count":16,"max":[-0.04361938685178757,0,0,0.9990482330322266],"min":[-0.06540312618017197,0,0,0.9978589415550232],"type":"VEC4"},{"bufferView":44,"componentType":5126,"count":16,"max":[1],"min":[0],"type":"SCALAR"},{"bufferView":45,"componentType":5126,"count":16,"max":[0.06540312618017197,0,0,0.9990482330322266],"min":[0.04361938685178757,0,0,0.9978589415550232],"type":"VEC4"},{"bufferView":46,"componentType":5126,"count":12,"max":[0.699999988079071],"min":[0],"type":"SCALAR"},{"bufferView":47,"componentType":5126,"count":12,"max":[0,0.0652804747223854,0],"min":[0,-0.125,0],"type":"VEC3"},{"bufferView":48,"componentType":5126,"count":12,"max":[0.699999988079071],"min":[0],"type":"SCALAR"},{"bufferView":49,"componentType":5126,"count":12,"max":[1,1,1],"min":[0,0.800000011920929,0],"type":"VEC3"},{"bufferView":50,"componentType":5126,"count":12,"max":[0.699999988079071],"min":[0],"type":"SCALAR"},{"bufferView":51,"componentType":5126,"count":12,"max":[0.022973624989390373,0,0,0.9999998211860657],"min":[-0.19509032368659973,0,0,0.9807852506637573],"type":"VEC4"},{"bufferView":52,"componentType":5126,"count":12,"max":[0.699999988079071],"min":[0],"type":"SCALAR"},{"bufferView":53,"componentType":5126,"count":12,"max":[0.19509032368659973,0,0,0.9999998211860657],"min":[-0.022973624989390373,0,0,0.9807852506637573],"type":"VEC4"},{"bufferView":54,"componentType":5126,"count":12,"max":[0.699999988079071],"min":[0],"type":"SCALAR"},{"bufferView":55,"componentType":5126,"count":12,"max":[1.1516203880310059,1.100000023841858,1.1516203880310059],"min":[0,1,0],"type":"VEC3"},{"bufferView":56,"componentType":5126,"count":12,"max":[0.699999988079071],"min":[0],"type":"SCALAR"},{"bufferView":57,"componentType":5126,"count":12,"max":[0.02181488461792469,0,0,0.9999884963035583],"min":[-0.06540312618017197,0,0,0.9978589415550232],"type":"VEC4"},{"bufferView":58,"componentType":5126,"count":12,"max":[0.699999988079071],"min":[0],"type":"SCALAR"},{"bufferView":59,"componentType":5126,"count":12,"max":[0.06540312618017197,0,0,0.9999884963035583],"min":[-0.02181488461792469,0,0,0.9978589415550232],"type":"VEC4"}],"materials":[{"pbrMetallicRoughness":{"metallicFactor":0,"roughnessFactor":1,"baseColorTexture":{"index":0}},"alphaMode":"MASK","alphaCutoff":0.05,"doubleSided":true}],"textures":[{"sampler":0,"source":0,"name":"bl_strangler_spider_web"}],"samplers":[{"magFilter":9728,"minFilter":9728,"wrapS":33071,"wrapT":33071}],"images":[{"mimeType":"image/png","uri":"data:image/png;base64,"}],"meshes":[{"primitives":[{"mode":4,"attributes":{"POSITION":0,"NORMAL":1,"TEXCOORD_0":2},"indices":3,"material":0}]},{"primitives":[{"mode":4,"attributes":{"POSITION":4,"NORMAL":5,"TEXCOORD_0":6},"indices":7,"material":0}]},{"primitives":[{"mode":4,"attributes":{"POSITION":8,"NORMAL":9,"TEXCOORD_0":10},"indices":11,"material":0}]},{"primitives":[{"mode":4,"attributes":{"POSITION":12,"NORMAL":13,"TEXCOORD_0":14},"indices":15,"material":0}]},{"primitives":[{"mode":4,"attributes":{"POSITION":16,"NORMAL":17,"TEXCOORD_0":18},"indices":19,"material":0}]},{"primitives":[{"mode":4,"attributes":{"POSITION":20,"NORMAL":21,"TEXCOORD_0":22},"indices":23,"material":0}]},{"primitives":[{"mode":4,"attributes":{"POSITION":24,"NORMAL":25,"TEXCOORD_0":26},"indices":27,"material":0}]},{"primitives":[{"mode":4,"attributes":{"POSITION":28,"NORMAL":29,"TEXCOORD_0":30},"indices":31,"material":0}]},{"primitives":[{"mode":4,"attributes":{"POSITION":32,"NORMAL":33,"TEXCOORD_0":34},"indices":35,"material":0}]},{"primitives":[{"mode":4,"attributes":{"POSITION":36,"NORMAL":37,"TEXCOORD_0":38},"indices":39,"material":0}]}],"animations":[{"name":"idle","samplers":[{"input":40,"output":41,"interpolation":"LINEAR"},{"input":42,"output":43,"interpolation":"LINEAR"},{"input":44,"output":45,"interpolation":"LINEAR"}],"channels":[{"sampler":0,"target":{"node":20,"path":"scale"}},{"sampler":1,"target":{"node":11,"path":"rotation"}},{"sampler":2,"target":{"node":18,"path":"rotation"}}]},{"name":"spawn","samplers":[{"input":46,"output":47,"interpolation":"LINEAR"},{"input":48,"output":49,"interpolation":"LINEAR"},{"input":50,"output":51,"interpolation":"LINEAR"},{"input":52,"output":53,"interpolation":"LINEAR"}],"channels":[{"sampler":0,"target":{"node":20,"path":"translation"}},{"sampler":1,"target":{"node":20,"path":"scale"}},{"sampler":2,"target":{"node":11,"path":"rotation"}},{"sampler":3,"target":{"node":18,"path":"rotation"}}]},{"name":"despawn","samplers":[{"input":54,"output":55,"interpolation":"LINEAR"},{"input":56,"output":57,"interpolation":"LINEAR"},{"input":58,"output":59,"interpolation":"LINEAR"}],"channels":[{"sampler":0,"target":{"node":20,"path":"scale"}},{"sampler":1,"target":{"node":11,"path":"rotation"}},{"sampler":2,"target":{"node":18,"path":"rotation"}}]}]}