{"asset":{"version":"2.0","generator":"Blockbench 4.12.5 glTF exporter"},"scenes":[{"nodes":[11],"name":"blockbench_export"}],"scene":0,"nodes":[{"translation":[-0.02156250000000004,-0.16771057423396318,-0.06386085713098627],"name":"cube","mesh":0},{"rotation":[-0.1802399555017368,0.37533027751786535,-0.0746578340503426,0.9061274463528878],"translation":[0.30989380368119424,0.2722545308379172,-0.31113914286901373],"name":"bone","children":[0]},{"translation":[-0.02156250000000004,-0.16771057423396318,0.06386085713098627],"name":"cube","mesh":1},{"rotation":[0.1802399555017368,-0.37533027751786535,-0.0746578340503426,0.9061274463528878],"translation":[0.30989380368119424,0.2722545308379172,0.31113914286901373],"name":"bone3","children":[2]},{"translation":[-0.02156250000000004,-0.16771057423396318,-0.06386085713098621],"name":"cube","mesh":2},{"rotation":[0.18023995494549347,-0.9061274435564594,-0.0746578353932352,-0.3753302842690405],"translation":[-0.33406250000000004,0.2722545308379172,-0.3314562987421105],"name":"bone2","children":[4]},{"translation":[0.02156250000000004,-0.16771057423396318,-0.06386085713098621],"name":"cube","mesh":3},{"rotation":[0.18023995494549347,0.9061274435564594,0.0746578353932352,-0.3753302842690405],"translation":[0.29093749999999996,0.2722545308379172,-0.3314562987421105],"name":"bone4","children":[6]},{"name":"root","children":[1,3,5,7]},{"translation":[0,-0.125,0],"name":"cube","mesh":4},{"translation":[0,0.125,0],"name":"hitbox","children":[9]},{"children":[8,10]}],"bufferViews":[{"buffer":0,"byteOffset":0,"byteLength":288,"target":34962,"byteStride":12},{"buffer":0,"byteOffset":288,"byteLength":288,"target":34962,"byteStride":12},{"buffer":0,"byteOffset":576,"byteLength":192,"target":34962,"byteStride":8},{"buffer":0,"byteOffset":768,"byteLength":72,"target":34963},{"buffer":0,"byteOffset":840,"byteLength":288,"target":34962,"byteStride":12},{"buffer":0,"byteOffset":1128,"byteLength":288,"target":34962,"byteStride":12},{"buffer":0,"byteOffset":1416,"byteLength":192,"target":34962,"byteStride":8},{"buffer":0,"byteOffset":1608,"byteLength":72,"target":34963},{"buffer":0,"byteOffset":1680,"byteLength":288,"target":34962,"byteStride":12},{"buffer":0,"byteOffset":1968,"byteLength":288,"target":34962,"byteStride":12},{"buffer":0,"byteOffset":2256,"byteLength":192,"target":34962,"byteStride":8},{"buffer":0,"byteOffset":2448,"byteLength":72,"target":34963},{"buffer":0,"byteOffset":2520,"byteLength":288,"target":34962,"byteStride":12},{"buffer":0,"byteOffset":2808,"byteLength":288,"target":34962,"byteStride":12},{"buffer":0,"byteOffset":3096,"byteLength":192,"target":34962,"byteStride":8},{"buffer":0,"byteOffset":3288,"byteLength":72,"target":34963},{"buffer":0,"byteOffset":3360,"byteLength":288,"target":34962,"byteStride":12},{"buffer":0,"byteOffset":3648,"byteLength":288,"target":34962,"byteStride":12},{"buffer":0,"byteOffset":3936,"byteLength":192,"target":34962,"byteStride":8},{"buffer":0,"byteOffset":4128,"byteLength":72,"target":34963},{"buffer":0,"byteOffset":4200,"byteLength":52},{"buffer":0,"byteOffset":4252,"byteLength":156},{"buffer":0,"byteOffset":4408,"byteLength":32},{"buffer":0,"byteOffset":4440,"byteLength":96},{"buffer":0,"byteOffset":4536,"byteLength":32},{"buffer":0,"byteOffset":4568,"byteLength":96},{"buffer":0,"byteOffset":4664,"byteLength":32},{"buffer":0,"byteOffset":4696,"byteLength":96},{"buffer":0,"byteOffset":4792,"byteLength":32},{"buffer":0,"byteOffset":4824,"byteLength":96}],"buffers":[{"byteLength":4920,"uri":"data:application/octet-stream;base64,"}],"accessors":[{"bufferView":0,"componentType":5126,"count":24,"max":[0.4959374964237213,0.1677730679512024,0.0694858580827713],"min":[-0.4528124928474426,0.1677105724811554,-0.8792641162872314],"type":"VEC3"},{"bufferView":1,"componentType":5126,"count":24,"max":[1,1,1],"min":[-1,-1,-1],"type":"VEC3"},{"bufferView":2,"componentType":5126,"count":24,"max":[0.234375,0.46875],"min":[0,0],"type":"VEC2"},{"bufferView":3,"componentType":5123,"count":36,"max":[23],"min":[0],"type":"SCALAR"},{"bufferView":4,"componentType":5126,"count":24,"max":[0.4959374964237213,0.1677730679512024,0.8792641162872314],"min":[-0.4528124928474426,0.1677105724811554,-0.0694858580827713],"type":"VEC3"},{"bufferView":5,"componentType":5126,"count":24,"max":[1,1,1],"min":[-1,-1,-1],"type":"VEC3"},{"bufferView":6,"componentType":5126,"count":24,"max":[0.46875,0.46875],"min":[0,0],"type":"VEC2"},{"bufferView":7,"componentType":5123,"count":36,"max":[23],"min":[0],"type":"SCALAR"},{"bufferView":8,"componentType":5126,"count":24,"max":[0.4959374964237213,0.1677730679512024,0.0694858580827713],"min":[-0.4528124928474426,0.1677105724811554,-0.8792641162872314],"type":"VEC3"},{"bufferView":9,"componentType":5126,"count":24,"max":[1,1,1],"min":[-1,-1,-1],"type":"VEC3"},{"bufferView":10,"componentType":5126,"count":24,"max":[0.703125,0.703125],"min":[0,0],"type":"VEC2"},{"bufferView":11,"componentType":5123,"count":36,"max":[23],"min":[0],"type":"SCALAR"},{"bufferView":12,"componentType":5126,"count":24,"max":[0.4528124928474426,0.1677730679512024,0.0694858580827713],"min":[-0.4959374964237213,0.1677105724811554,-0.8792641162872314],"type":"VEC3"},{"bufferView":13,"componentType":5126,"count":24,"max":[1,1,1],"min":[-1,-1,-1],"type":"VEC3"},{"bufferView":14,"componentType":5126,"count":24,"max":[0.703125,0.703125],"min":[0,0],"type":"VEC2"},{"bufferView":15,"componentType":5123,"count":36,"max":[23],"min":[0],"type":"SCALAR"},{"bufferView":16,"componentType":5126,"count":24,"max":[0.5,0.25,0.5],"min":[-0.5,0,-0.5],"type":"VEC3"},{"bufferView":17,"componentType":5126,"count":24,"max":[1,1,1],"min":[-1,-1,-1],"type":"VEC3"},{"bufferView":18,"componentType":5126,"count":24,"max":[0.75,0.75],"min":[0.6328125,0.640625],"type":"VEC2"},{"bufferView":19,"componentType":5123,"count":36,"max":[23],"min":[0],"type":"SCALAR"},{"bufferView":20,"componentType":5126,"count":13,"max":[0.699999988079071],"min":[0],"type":"SCALAR"},{"bufferView":21,"componentType":5126,"count":13,"max":[1.0499999523162842,1.0499999523162842,1.0499999523162842],"min":[1,1,1],"type":"VEC3"},{"bufferView":22,"componentType":5126,"count":8,"max":[0.4000000059604645],"min":[0],"type":"SCALAR"},{"bufferView":23,"componentType":5126,"count":8,"max":[0,0.25,0],"min":[0,0,0],"type":"VEC3"},{"bufferView":24,"componentType":5126,"count":8,"max":[0.4000000059604645],"min":[0],"type":"SCALAR"},{"bufferView":25,"componentType":5126,"count":8,"max":[1,1,1],"min":[0,1,0],"type":"VEC3"},{"bufferView":26,"componentType":5126,"count":8,"max":[0.4000000059604645],"min":[0],"type":"SCALAR"},{"bufferView":27,"componentType":5126,"count":8,"max":[0,0.0625,0],"min":[0,0,0],"type":"VEC3"},{"bufferView":28,"componentType":5126,"count":8,"max":[0.4000000059604645],"min":[0],"type":"SCALAR"},{"bufferView":29,"componentType":5126,"count":8,"max":[1.14599609375,1.100000023841858,1.14599609375],"min":[0,1,0],"type":"VEC3"}],"materials":[{"pbrMetallicRoughness":{"metallicFactor":0,"roughnessFactor":1,"baseColorTexture":{"index":0}},"alphaMode":"MASK","alphaCutoff":0.05,"doubleSided":true}],"textures":[{"sampler":0,"source":0,"name":"bl_hunter_spider_web"}],"samplers":[{"magFilter":9728,"minFilter":9728,"wrapS":33071,"wrapT":33071}],"images":[{"mimeType":"image/png","uri":"data:image/png;base64,"}],"meshes":[{"primitives":[{"mode":4,"attributes":{"POSITION":0,"NORMAL":1,"TEXCOORD_0":2},"indices":3,"material":0}]},{"primitives":[{"mode":4,"attributes":{"POSITION":4,"NORMAL":5,"TEXCOORD_0":6},"indices":7,"material":0}]},{"primitives":[{"mode":4,"attributes":{"POSITION":8,"NORMAL":9,"TEXCOORD_0":10},"indices":11,"material":0}]},{"primitives":[{"mode":4,"attributes":{"POSITION":12,"NORMAL":13,"TEXCOORD_0":14},"indices":15,"material":0}]},{"primitives":[{"mode":4,"attributes":{"POSITION":16,"NORMAL":17,"TEXCOORD_0":18},"indices":19,"material":0}]}],"animations":[{"name":"idle","samplers":[{"input":20,"output":21,"interpolation":"LINEAR"}],"channels":[{"sampler":0,"target":{"node":8,"path":"scale"}}]},{"name":"spawn","samplers":[{"input":22,"output":23,"interpolation":"LINEAR"},{"input":24,"output":25,"interpolation":"LINEAR"}],"channels":[{"sampler":0,"target":{"node":8,"path":"translation"}},{"sampler":1,"target":{"node":8,"path":"scale"}}]},{"name":"despawn","samplers":[{"input":26,"output":27,"interpolation":"LINEAR"},{"input":28,"output":29,"interpolation":"LINEAR"}],"channels":[{"sampler":0,"target":{"node":8,"path":"translation"}},{"sampler":1,"target":{"node":8,"path":"scale"}}]}]}