{
  "asset": {
    "generator": "glTF-Transform v4.1.3",
    "version": "2.0"
  },
  "accessors": [
    {
      "type": "SCALAR",
      "componentType": 5123,
      "count": 36,
      "bufferView": 0,
      "byteOffset": 0
    },
    {
      "type": "VEC3",
      "componentType": 5126,
      "count": 24,
      "max": [
        0.25,
        0.25,
        0.25
      ],
      "min": [
        -0.25,
        -0.25,
        -0.25
      ],
      "bufferView": 1,
      "byteOffset": 0
    },
    {
      "type": "VEC3",
      "componentType": 5126,
      "count": 24,
      "bufferView": 1,
      "byteOffset": 12
    },
    {
      "type": "VEC2",
      "componentType": 5126,
      "count": 24,
      "bufferView": 1,
      "byteOffset": 24
    },
    {
      "type": "VEC2",
      "componentType": 5126,
      "count": 24,
      "bufferView": 2,
      "byteOffset": 0
    },
    {
      "type": "VEC3",
      "componentType": 5126,
      "count": 24,
      "max": [
        0.625,
        0.625,
        0.3125
      ],
      "min": [
        -0.5625,
        0,
        -0.1875
      ],
      "bufferView": 3,
      "byteOffset": 0
    },
    {
      "type": "VEC2",
      "componentType": 5126,
      "count": 24,
      "bufferView": 3,
      "byteOffset": 12
    },
    {
      "type": "VEC3",
      "componentType": 5126,
      "count": 24,
      "max": [
        0.84375,
        0.375,
        0.78125
      ],
      "min": [
        0.65625,
        0,
        0.59375
      ],
      "bufferView": 4,
      "byteOffset": 0
    },
    {
      "type": "VEC2",
      "componentType": 5126,
      "count": 24,
      "bufferView": 4,
      "byteOffset": 12
    },
    {
      "type": "VEC3",
      "componentType": 5126,
      "count": 24,
      "max": [
        -0.5,
        0.9375,
        -0.3125
      ],
      "min": [
        -0.75,
        0.375,
        -0.5625
      ],
      "bufferView": 5,
      "byteOffset": 0
    },
    {
      "type": "VEC2",
      "componentType": 5126,
      "count": 24,
      "bufferView": 5,
      "byteOffset": 12
    },
    {
      "type": "VEC3",
      "componentType": 5126,
      "count": 24,
      "max": [
        -0.5,
        0.9375,
        0.5625
      ],
      "min": [
        -0.75,
        0.375,
        0.3125
      ],
      "bufferView": 6,
      "byteOffset": 0
    },
    {
      "type": "VEC3",
      "componentType": 5126,
      "count": 24,
      "max": [
        1.1875,
        0.5625,
        0.8125
      ],
      "min": [
        0.9375,
        0,
        0.5625
      ],
      "bufferView": 7,
      "byteOffset": 0
    },
    {
      "type": "VEC3",
      "componentType": 5126,
      "count": 24,
      "max": [
        -0.8125,
        0.6875,
        0.53125
      ],
      "min": [
        -2.1875,
        2.211772431870429e-17,
        -0.40625
      ],
      "bufferView": 8,
      "byteOffset": 0
    },
    {
      "type": "VEC2",
      "componentType": 5126,
      "count": 24,
      "bufferView": 8,
      "byteOffset": 12
    },
    {
      "type": "VEC3",
      "componentType": 5126,
      "count": 24,
      "max": [
        -0.5625,
        0.0625,
        -0.90625
      ],
      "min": [
        -0.875,
        0,
        -0.96875
      ],
      "bufferView": 9,
      "byteOffset": 0
    },
    {
      "type": "VEC2",
      "componentType": 5126,
      "count": 24,
      "bufferView": 9,
      "byteOffset": 12
    },
    {
      "type": "VEC3",
      "componentType": 5126,
      "count": 24,
      "max": [
        -0.8125,
        0.0625,
        -0.96875
      ],
      "min": [
        -0.9375,
        0,
        -1.03125
      ],
      "bufferView": 10,
      "byteOffset": 0
    },
    {
      "type": "VEC2",
      "componentType": 5126,
      "count": 24,
      "bufferView": 10,
      "byteOffset": 12
    },
    {
      "type": "VEC3",
      "componentType": 5126,
      "count": 24,
      "max": [
        -0.8125,
        0.0625,
        -0.84375
      ],
      "min": [
        -0.9375,
        0,
        -0.90625
      ],
      "bufferView": 11,
      "byteOffset": 0
    },
    {
      "type": "VEC2",
      "componentType": 5126,
      "count": 24,
      "bufferView": 11,
      "byteOffset": 12
    },
    {
      "type": "VEC3",
      "componentType": 5126,
      "count": 24,
      "max": [
        -0.5,
        0.0625,
        -0.84375
      ],
      "min": [
        -0.625,
        0,
        -0.90625
      ],
      "bufferView": 12,
      "byteOffset": 0
    },
    {
      "type": "VEC2",
      "componentType": 5126,
      "count": 24,
      "bufferView": 12,
      "byteOffset": 12
    },
    {
      "type": "VEC3",
      "componentType": 5126,
      "count": 24,
      "max": [
        -0.5,
        0.0625,
        -0.96875
      ],
      "min": [
        -0.625,
        0,
        -1.03125
      ],
      "bufferView": 13,
      "byteOffset": 0
    },
    {
      "type": "VEC2",
      "componentType": 5126,
      "count": 24,
      "bufferView": 13,
      "byteOffset": 12
    }
  ],
  "bufferViews": [
    {
      "buffer": 0,
      "byteOffset": 0,
      "byteLength": 72,
      "target": 34963
    },
    {
      "buffer": 0,
      "byteOffset": 72,
      "byteLength": 768,
      "byteStride": 32,
      "target": 34962
    },
    {
      "buffer": 0,
      "byteOffset": 840,
      "byteLength": 192,
      "byteStride": 8,
      "target": 34962
    },
    {
      "buffer": 0,
      "byteOffset": 1032,
      "byteLength": 480,
      "byteStride": 20,
      "target": 34962
    },
    {
      "buffer": 0,
      "byteOffset": 1512,
      "byteLength": 480,
      "byteStride": 20,
      "target": 34962
    },
    {
      "buffer": 0,
      "byteOffset": 1992,
      "byteLength": 480,
      "byteStride": 20,
      "target": 34962
    },
    {
      "buffer": 0,
      "byteOffset": 2472,
      "byteLength": 288,
      "byteStride": 12,
      "target": 34962
    },
    {
      "buffer": 0,
      "byteOffset": 2760,
      "byteLength": 288,
      "byteStride": 12,
      "target": 34962
    },
    {
      "buffer": 0,
      "byteOffset": 3048,
      "byteLength": 480,
      "byteStride": 20,
      "target": 34962
    },
    {
      "buffer": 0,
      "byteOffset": 3528,
      "byteLength": 480,
      "byteStride": 20,
      "target": 34962
    },
    {
      "buffer": 0,
      "byteOffset": 4008,
      "byteLength": 480,
      "byteStride": 20,
      "target": 34962
    },
    {
      "buffer": 0,
      "byteOffset": 4488,
      "byteLength": 480,
      "byteStride": 20,
      "target": 34962
    },
    {
      "buffer": 0,
      "byteOffset": 4968,
      "byteLength": 480,
      "byteStride": 20,
      "target": 34962
    },
    {
      "buffer": 0,
      "byteOffset": 5448,
      "byteLength": 480,
      "byteStride": 20,
      "target": 34962
    }
  ],
  "samplers": [
    {
      "magFilter": 9728,
      "minFilter": 9728,
      "wrapS": 33071,
      "wrapT": 33071
    }
  ],
  "textures": [
    {
      "source": 0,
      "sampler": 0
    }
  ],
  "images": [
    {
      "mimeType": "image/png",
      "uri": "baseColor.png"
    }
  ],
  "buffers": [
    {
      "uri": "bone-cluster-named-nodes.bin",
      "byteLength": 5928
    }
  ],
  "materials": [
    {
      "alphaMode": "MASK",
      "alphaCutoff": 0.05,
      "doubleSided": true,
      "pbrMetallicRoughness": {
        "metallicFactor": 0,
        "baseColorTexture": {
          "index": 0
        }
      }
    }
  ],
  "meshes": [
    {
      "primitives": [
        {
          "attributes": {
            "POSITION": 1,
            "NORMAL": 2,
            "TEXCOORD_0": 3
          },
          "mode": 4,
          "material": 0,
          "indices": 0
        }
      ]
    },
    {
      "primitives": [
        {
          "attributes": {
            "TEXCOORD_0": 4,
            "POSITION": 1,
            "NORMAL": 2
          },
          "mode": 4,
          "material": 0,
          "indices": 0
        }
      ]
    },
    {
      "primitives": [
        {
          "attributes": {
            "POSITION": 5,
            "TEXCOORD_0": 6,
            "NORMAL": 2
          },
          "mode": 4,
          "material": 0,
          "indices": 0
        }
      ]
    },
    {
      "primitives": [
        {
          "attributes": {
            "POSITION": 7,
            "TEXCOORD_0": 8,
            "NORMAL": 2
          },
          "mode": 4,
          "material": 0,
          "indices": 0
        }
      ]
    },
    {
      "primitives": [
        {
          "attributes": {
            "POSITION": 9,
            "TEXCOORD_0": 10,
            "NORMAL": 2
          },
          "mode": 4,
          "material": 0,
          "indices": 0
        }
      ]
    },
    {
      "primitives": [
        {
          "attributes": {
            "POSITION": 11,
            "NORMAL": 2,
            "TEXCOORD_0": 10
          },
          "mode": 4,
          "material": 0,
          "indices": 0
        }
      ]
    },
    {
      "primitives": [
        {
          "attributes": {
            "POSITION": 12,
            "NORMAL": 2,
            "TEXCOORD_0": 10
          },
          "mode": 4,
          "material": 0,
          "indices": 0
        }
      ]
    },
    {
      "primitives": [
        {
          "attributes": {
            "POSITION": 13,
            "TEXCOORD_0": 14,
            "NORMAL": 2
          },
          "mode": 4,
          "material": 0,
          "indices": 0
        }
      ]
    },
    {
      "primitives": [
        {
          "attributes": {
            "POSITION": 15,
            "TEXCOORD_0": 16,
            "NORMAL": 2
          },
          "mode": 4,
          "material": 0,
          "indices": 0
        }
      ]
    },
    {
      "primitives": [
        {
          "attributes": {
            "POSITION": 17,
            "TEXCOORD_0": 18,
            "NORMAL": 2
          },
          "mode": 4,
          "material": 0,
          "indices": 0
        }
      ]
    },
    {
      "primitives": [
        {
          "attributes": {
            "POSITION": 19,
            "TEXCOORD_0": 20,
            "NORMAL": 2
          },
          "mode": 4,
          "material": 0,
          "indices": 0
        }
      ]
    },
    {
      "primitives": [
        {
          "attributes": {
            "POSITION": 21,
            "TEXCOORD_0": 22,
            "NORMAL": 2
          },
          "mode": 4,
          "material": 0,
          "indices": 0
        }
      ]
    },
    {
      "primitives": [
        {
          "attributes": {
            "POSITION": 23,
            "TEXCOORD_0": 24,
            "NORMAL": 2
          },
          "mode": 4,
          "material": 0,
          "indices": 0
        }
      ]
    },
    {
      "primitives": [
        {
          "attributes": {
            "POSITION": 15,
            "NORMAL": 2,
            "TEXCOORD_0": 16
          },
          "mode": 4,
          "material": 0,
          "indices": 0
        }
      ]
    },
    {
      "primitives": [
        {
          "attributes": {
            "POSITION": 17,
            "NORMAL": 2,
            "TEXCOORD_0": 18
          },
          "mode": 4,
          "material": 0,
          "indices": 0
        }
      ]
    },
    {
      "primitives": [
        {
          "attributes": {
            "POSITION": 19,
            "NORMAL": 2,
            "TEXCOORD_0": 20
          },
          "mode": 4,
          "material": 0,
          "indices": 0
        }
      ]
    },
    {
      "primitives": [
        {
          "attributes": {
            "POSITION": 21,
            "NORMAL": 2,
            "TEXCOORD_0": 22
          },
          "mode": 4,
          "material": 0,
          "indices": 0
        }
      ]
    },
    {
      "primitives": [
        {
          "attributes": {
            "POSITION": 23,
            "NORMAL": 2,
            "TEXCOORD_0": 24
          },
          "mode": 4,
          "material": 0,
          "indices": 0
        }
      ]
    }
  ],
  "nodes": [
    {
      "name": "cube",
      "translation": [
        1.5,
        0.25,
        -0.5625
      ],
      "rotation": [
        0,
        0.3826834323650898,
        0,
        0.9238795325112867
      ],
      "mesh": 0
    },
    {
      "name": "cube",
      "translation": [
        0.5341076915518626,
        0.24999999999999994,
        1.0026002523551116
      ],
      "rotation": [
        1.5797150136503144e-18,
        0.6087614290087228,
        2.154459431812455e-18,
        0.7933533402912334
      ],
      "mesh": 1
    },
    {
      "name": "cube",
      "translation": [
        0.4375,
        0,
        -0.0625
      ],
      "mesh": 2
    },
    {
      "name": "cube",
      "translation": [
        0.4375,
        0,
        -0.0625
      ],
      "mesh": 3
    },
    {
      "name": "cube",
      "translation": [
        0.4375,
        0,
        0.0625
      ],
      "mesh": 4
    },
    {
      "name": "cube",
      "translation": [
        0.4375,
        0,
        -0.0625
      ],
      "mesh": 5
    },
    {
      "name": "cube",
      "translation": [
        0.4375,
        0,
        -0.0625
      ],
      "mesh": 6
    },
    {
      "name": "cube",
      "translation": [
        0.4375,
        0.0015625,
        -0.0625
      ],
      "mesh": 7
    },
    {
      "name": "cube",
      "translation": [
        0.4375,
        0,
        -0.0625
      ],
      "mesh": 8
    },
    {
      "name": "cube",
      "translation": [
        0.4375,
        0,
        -0.0625
      ],
      "mesh": 9
    },
    {
      "name": "cube",
      "translation": [
        0.4375,
        0,
        -0.0625
      ],
      "mesh": 10
    },
    {
      "name": "cube",
      "translation": [
        0.4375,
        0,
        -0.0625
      ],
      "mesh": 11
    },
    {
      "name": "cube",
      "translation": [
        0.4375,
        0,
        -0.0625
      ],
      "mesh": 12
    },
    {
      "name": "cube",
      "translation": [
        0.6096865530300009,
        0,
        -0.881278520576985
      ],
      "rotation": [
        0,
        0.3214394653031616,
        0,
        0.9469301294951057
      ],
      "mesh": 13
    },
    {
      "name": "cube",
      "translation": [
        0.6096865530300009,
        0,
        -0.881278520576985
      ],
      "rotation": [
        0,
        0.3214394653031616,
        0,
        0.9469301294951057
      ],
      "mesh": 14
    },
    {
      "name": "cube",
      "translation": [
        0.6096865530300009,
        0,
        -0.881278520576985
      ],
      "rotation": [
        0,
        0.3214394653031616,
        0,
        0.9469301294951057
      ],
      "mesh": 15
    },
    {
      "name": "cube",
      "translation": [
        0.6096865530300009,
        0,
        -0.881278520576985
      ],
      "rotation": [
        0,
        0.3214394653031616,
        0,
        0.9469301294951057
      ],
      "mesh": 16
    },
    {
      "name": "cube",
      "translation": [
        0.6096865530300009,
        0,
        -0.881278520576985
      ],
      "rotation": [
        0,
        0.3214394653031616,
        0,
        0.9469301294951057
      ],
      "mesh": 17
    },
    {
      "name": "cube",
      "translation": [
        0.053875604569453006,
        0,
        0.4718003095492852
      ],
      "rotation": [
        0,
        -0.23768589232617315,
        0,
        0.9713420698132614
      ],
      "mesh": 13
    },
    {
      "name": "cube",
      "translation": [
        0.053875604569453006,
        0,
        0.4718003095492852
      ],
      "rotation": [
        0,
        -0.23768589232617315,
        0,
        0.9713420698132614
      ],
      "mesh": 14
    },
    {
      "name": "cube",
      "translation": [
        0.053875604569453006,
        0,
        0.4718003095492852
      ],
      "rotation": [
        0,
        -0.23768589232617315,
        0,
        0.9713420698132614
      ],
      "mesh": 15
    },
    {
      "name": "cube",
      "translation": [
        0.053875604569453006,
        0,
        0.4718003095492852
      ],
      "rotation": [
        0,
        -0.23768589232617315,
        0,
        0.9713420698132614
      ],
      "mesh": 16
    },
    {
      "name": "cube",
      "translation": [
        0.053875604569453006,
        0,
        0.4718003095492852
      ],
      "rotation": [
        0,
        -0.23768589232617315,
        0,
        0.9713420698132614
      ],
      "mesh": 17
    }
  ],
  "scenes": [
    {
      "name": "blockbench_export",
      "nodes": [
        0,
        1,
        2,
        3,
        4,
        5,
        6,
        7,
        8,
        9,
        10,
        11,
        12,
        13,
        14,
        15,
        16,
        17,
        18,
        19,
        20,
        21,
        22
      ]
    }
  ],
  "scene": 0
}