{"asset":{"version":"2.0","generator":"Blockbench 4.12.5 glTF exporter"},"scenes":[{"nodes":[17],"name":"blockbench_export"}],"scene":0,"nodes":[{"rotation":[0,-0.3826834323650898,0,0.9238795325112867],"translation":[-0.25,0.28125,-0.25],"name":"cube","mesh":0},{"rotation":[0,0.3826834323650898,0,0.9238795325112867],"translation":[-0.25,0.28125,-0.25],"name":"cube","mesh":1},{"translation":[-0.25,0,-0.25],"name":"cube","mesh":2},{"translation":[-0.25,-0.1875,-0.25],"name":"cube","mesh":3},{"translation":[-0.25,0,0.25],"name":"cube","mesh":4},{"rotation":[0,0.3826834323650898,0,0.9238795325112867],"translation":[-0.25,0.28125,0.25],"name":"cube","mesh":5},{"translation":[-0.25,-0.1875,0.25],"name":"cube","mesh":6},{"rotation":[0,-0.3826834323650898,0,0.9238795325112867],"translation":[-0.25,0.28125,0.25],"name":"cube","mesh":7},{"translation":[0.25,0,-0.25],"name":"cube","mesh":8},{"rotation":[0,0.3826834323650898,0,0.9238795325112867],"translation":[0.25,0.28125,-0.25],"name":"cube","mesh":9},{"translation":[0.25,-0.1875,-0.25],"name":"cube","mesh":10},{"rotation":[0,-0.3826834323650898,0,0.9238795325112867],"translation":[0.25,0.28125,-0.25],"name":"cube","mesh":11},{"translation":[0.25,0,0.25],"name":"cube","mesh":12},{"rotation":[0,-0.3826834323650898,0,0.9238795325112867],"translation":[0.25,0.28125,0.25],"name":"cube","mesh":13},{"translation":[0.25,-0.1875,0.25],"name":"cube","mesh":14},{"rotation":[0,0.3826834323650898,0,0.9238795325112867],"translation":[0.25,0.28125,0.25],"name":"cube","mesh":15},{"translation":[0,-0.0625,0],"name":"root","children":[0,1,2,3,4,5,6,7,8,9,10,11,12,13,14,15]},{"children":[16]}],"bufferViews":[{"buffer":0,"byteOffset":0,"byteLength":240,"target":34962,"byteStride":12},{"buffer":0,"byteOffset":240,"byteLength":240,"target":34962,"byteStride":12},{"buffer":0,"byteOffset":480,"byteLength":160,"target":34962,"byteStride":8},{"buffer":0,"byteOffset":640,"byteLength":60,"target":34963},{"buffer":0,"byteOffset":700,"byteLength":240,"target":34962,"byteStride":12},{"buffer":0,"byteOffset":940,"byteLength":240,"target":34962,"byteStride":12},{"buffer":0,"byteOffset":1180,"byteLength":160,"target":34962,"byteStride":8},{"buffer":0,"byteOffset":1340,"byteLength":60,"target":34963},{"buffer":0,"byteOffset":1400,"byteLength":288,"target":34962,"byteStride":12},{"buffer":0,"byteOffset":1688,"byteLength":288,"target":34962,"byteStride":12},{"buffer":0,"byteOffset":1976,"byteLength":192,"target":34962,"byteStride":8},{"buffer":0,"byteOffset":2168,"byteLength":72,"target":34963},{"buffer":0,"byteOffset":2240,"byteLength":288,"target":34962,"byteStride":12},{"buffer":0,"byteOffset":2528,"byteLength":288,"target":34962,"byteStride":12},{"buffer":0,"byteOffset":2816,"byteLength":192,"target":34962,"byteStride":8},{"buffer":0,"byteOffset":3008,"byteLength":72,"target":34963},{"buffer":0,"byteOffset":3080,"byteLength":288,"target":34962,"byteStride":12},{"buffer":0,"byteOffset":3368,"byteLength":288,"target":34962,"byteStride":12},{"buffer":0,"byteOffset":3656,"byteLength":192,"target":34962,"byteStride":8},{"buffer":0,"byteOffset":3848,"byteLength":72,"target":34963},{"buffer":0,"byteOffset":3920,"byteLength":240,"target":34962,"byteStride":12},{"buffer":0,"byteOffset":4160,"byteLength":240,"target":34962,"byteStride":12},{"buffer":0,"byteOffset":4400,"byteLength":160,"target":34962,"byteStride":8},{"buffer":0,"byteOffset":4560,"byteLength":60,"target":34963},{"buffer":0,"byteOffset":4620,"byteLength":288,"target":34962,"byteStride":12},{"buffer":0,"byteOffset":4908,"byteLength":288,"target":34962,"byteStride":12},{"buffer":0,"byteOffset":5196,"byteLength":192,"target":34962,"byteStride":8},{"buffer":0,"byteOffset":5388,"byteLength":72,"target":34963},{"buffer":0,"byteOffset":5460,"byteLength":240,"target":34962,"byteStride":12},{"buffer":0,"byteOffset":5700,"byteLength":240,"target":34962,"byteStride":12},{"buffer":0,"byteOffset":5940,"byteLength":160,"target":34962,"byteStride":8},{"buffer":0,"byteOffset":6100,"byteLength":60,"target":34963},{"buffer":0,"byteOffset":6160,"byteLength":288,"target":34962,"byteStride":12},{"buffer":0,"byteOffset":6448,"byteLength":288,"target":34962,"byteStride":12},{"buffer":0,"byteOffset":6736,"byteLength":192,"target":34962,"byteStride":8},{"buffer":0,"byteOffset":6928,"byteLength":72,"target":34963},{"buffer":0,"byteOffset":7000,"byteLength":240,"target":34962,"byteStride":12},{"buffer":0,"byteOffset":7240,"byteLength":240,"target":34962,"byteStride":12},{"buffer":0,"byteOffset":7480,"byteLength":160,"target":34962,"byteStride":8},{"buffer":0,"byteOffset":7640,"byteLength":60,"target":34963},{"buffer":0,"byteOffset":7700,"byteLength":288,"target":34962,"byteStride":12},{"buffer":0,"byteOffset":7988,"byteLength":288,"target":34962,"byteStride":12},{"buffer":0,"byteOffset":8276,"byteLength":192,"target":34962,"byteStride":8},{"buffer":0,"byteOffset":8468,"byteLength":72,"target":34963},{"buffer":0,"byteOffset":8540,"byteLength":240,"target":34962,"byteStride":12},{"buffer":0,"byteOffset":8780,"byteLength":240,"target":34962,"byteStride":12},{"buffer":0,"byteOffset":9020,"byteLength":160,"target":34962,"byteStride":8},{"buffer":0,"byteOffset":9180,"byteLength":60,"target":34963},{"buffer":0,"byteOffset":9240,"byteLength":288,"target":34962,"byteStride":12},{"buffer":0,"byteOffset":9528,"byteLength":288,"target":34962,"byteStride":12},{"buffer":0,"byteOffset":9816,"byteLength":192,"target":34962,"byteStride":8},{"buffer":0,"byteOffset":10008,"byteLength":72,"target":34963},{"buffer":0,"byteOffset":10080,"byteLength":240,"target":34962,"byteStride":12},{"buffer":0,"byteOffset":10320,"byteLength":240,"target":34962,"byteStride":12},{"buffer":0,"byteOffset":10560,"byteLength":160,"target":34962,"byteStride":8},{"buffer":0,"byteOffset":10720,"byteLength":60,"target":34963},{"buffer":0,"byteOffset":10780,"byteLength":288,"target":34962,"byteStride":12},{"buffer":0,"byteOffset":11068,"byteLength":288,"target":34962,"byteStride":12},{"buffer":0,"byteOffset":11356,"byteLength":192,"target":34962,"byteStride":8},{"buffer":0,"byteOffset":11548,"byteLength":72,"target":34963},{"buffer":0,"byteOffset":11620,"byteLength":240,"target":34962,"byteStride":12},{"buffer":0,"byteOffset":11860,"byteLength":240,"target":34962,"byteStride":12},{"buffer":0,"byteOffset":12100,"byteLength":160,"target":34962,"byteStride":8},{"buffer":0,"byteOffset":12260,"byteLength":60,"target":34963}],"buffers":[{"byteLength":12320,"uri":"data:application/octet-stream;base64,"}],"accessors":[{"bufferView":0,"componentType":5126,"count":20,"max":[0.34375,0.53125,0],"min":[-0.34375,-0.15625,0],"type":"VEC3"},{"bufferView":1,"componentType":5126,"count":20,"max":[1,0,1],"min":[0,0,0],"type":"VEC3"},{"bufferView":2,"componentType":5126,"count":20,"max":[0.625,0.59375],"min":[0,0],"type":"VEC2"},{"bufferView":3,"componentType":5123,"count":30,"max":[19],"min":[0],"type":"SCALAR"},{"bufferView":4,"componentType":5126,"count":20,"max":[0.34375,0.53125,0],"min":[-0.34375,-0.15625,0],"type":"VEC3"},{"bufferView":5,"componentType":5126,"count":20,"max":[1,0,0],"min":[0,0,-1],"type":"VEC3"},{"bufferView":6,"componentType":5126,"count":20,"max":[0.625,0.59375],"min":[0,0],"type":"VEC2"},{"bufferView":7,"componentType":5123,"count":30,"max":[19],"min":[0],"type":"SCALAR"},{"bufferView":8,"componentType":5126,"count":24,"max":[0.09375,0.125,0.09375],"min":[-0.09375,-0.125,-0.09375],"type":"VEC3"},{"bufferView":9,"componentType":5126,"count":24,"max":[1,1,1],"min":[-1,-1,-1],"type":"VEC3"},{"bufferView":10,"componentType":5126,"count":24,"max":[0.37451171875,0.21826171875],"min":[0.00048828125,0.00048828125],"type":"VEC2"},{"bufferView":11,"componentType":5123,"count":36,"max":[23],"min":[0],"type":"SCALAR"},{"bufferView":12,"componentType":5126,"count":24,"max":[0.0625,0.0625,0.0625],"min":[-0.0625,-0.25,-0.0625],"type":"VEC3"},{"bufferView":13,"componentType":5126,"count":24,"max":[1,1,1],"min":[-1,-1,-1],"type":"VEC3"},{"bufferView":14,"componentType":5126,"count":24,"max":[0.24951171875,0.46826171875],"min":[0.00048828125,0.25048828125],"type":"VEC2"},{"bufferView":15,"componentType":5123,"count":36,"max":[23],"min":[0],"type":"SCALAR"},{"bufferView":16,"componentType":5126,"count":24,"max":[0.09375,0.125,0.09375],"min":[-0.09375,-0.125,-0.09375],"type":"VEC3"},{"bufferView":17,"componentType":5126,"count":24,"max":[1,1,1],"min":[-1,-1,-1],"type":"VEC3"},{"bufferView":18,"componentType":5126,"count":24,"max":[0.37451171875,0.21826171875],"min":[0.00048828125,0.00048828125],"type":"VEC2"},{"bufferView":19,"componentType":5123,"count":36,"max":[23],"min":[0],"type":"SCALAR"},{"bufferView":20,"componentType":5126,"count":20,"max":[0.34375,0.53125,0],"min":[-0.34375,-0.15625,0],"type":"VEC3"},{"bufferView":21,"componentType":5126,"count":20,"max":[1,0,0],"min":[0,0,-1],"type":"VEC3"},{"bufferView":22,"componentType":5126,"count":20,"max":[0.625,0.59375],"min":[0,0],"type":"VEC2"},{"bufferView":23,"componentType":5123,"count":30,"max":[19],"min":[0],"type":"SCALAR"},{"bufferView":24,"componentType":5126,"count":24,"max":[0.0625,0.0625,0.0625],"min":[-0.0625,-0.25,-0.0625],"type":"VEC3"},{"bufferView":25,"componentType":5126,"count":24,"max":[1,1,1],"min":[-1,-1,-1],"type":"VEC3"},{"bufferView":26,"componentType":5126,"count":24,"max":[0.24951171875,0.46826171875],"min":[0.00048828125,0.25048828125],"type":"VEC2"},{"bufferView":27,"componentType":5123,"count":36,"max":[23],"min":[0],"type":"SCALAR"},{"bufferView":28,"componentType":5126,"count":20,"max":[0.34375,0.53125,0],"min":[-0.34375,-0.15625,0],"type":"VEC3"},{"bufferView":29,"componentType":5126,"count":20,"max":[1,0,1],"min":[0,0,0],"type":"VEC3"},{"bufferView":30,"componentType":5126,"count":20,"max":[0.625,0.59375],"min":[0,0],"type":"VEC2"},{"bufferView":31,"componentType":5123,"count":30,"max":[19],"min":[0],"type":"SCALAR"},{"bufferView":32,"componentType":5126,"count":24,"max":[0.09375,0.125,0.09375],"min":[-0.09375,-0.125,-0.09375],"type":"VEC3"},{"bufferView":33,"componentType":5126,"count":24,"max":[1,1,1],"min":[-1,-1,-1],"type":"VEC3"},{"bufferView":34,"componentType":5126,"count":24,"max":[0.37451171875,0.21826171875],"min":[0.00048828125,0.00048828125],"type":"VEC2"},{"bufferView":35,"componentType":5123,"count":36,"max":[23],"min":[0],"type":"SCALAR"},{"bufferView":36,"componentType":5126,"count":20,"max":[0.34375,0.53125,0],"min":[-0.34375,-0.15625,0],"type":"VEC3"},{"bufferView":37,"componentType":5126,"count":20,"max":[1,0,1],"min":[0,0,0],"type":"VEC3"},{"bufferView":38,"componentType":5126,"count":20,"max":[0.625,0.59375],"min":[0,0],"type":"VEC2"},{"bufferView":39,"componentType":5123,"count":30,"max":[19],"min":[0],"type":"SCALAR"},{"bufferView":40,"componentType":5126,"count":24,"max":[0.0625,0.0625,0.0625],"min":[-0.0625,-0.25,-0.0625],"type":"VEC3"},{"bufferView":41,"componentType":5126,"count":24,"max":[1,1,1],"min":[-1,-1,-1],"type":"VEC3"},{"bufferView":42,"componentType":5126,"count":24,"max":[0.24951171875,0.46826171875],"min":[0.00048828125,0.25048828125],"type":"VEC2"},{"bufferView":43,"componentType":5123,"count":36,"max":[23],"min":[0],"type":"SCALAR"},{"bufferView":44,"componentType":5126,"count":20,"max":[0.34375,0.53125,0],"min":[-0.34375,-0.15625,0],"type":"VEC3"},{"bufferView":45,"componentType":5126,"count":20,"max":[1,0,0],"min":[0,0,-1],"type":"VEC3"},{"bufferView":46,"componentType":5126,"count":20,"max":[0.625,0.59375],"min":[0,0],"type":"VEC2"},{"bufferView":47,"componentType":5123,"count":30,"max":[19],"min":[0],"type":"SCALAR"},{"bufferView":48,"componentType":5126,"count":24,"max":[0.09375,0.125,0.09375],"min":[-0.09375,-0.125,-0.09375],"type":"VEC3"},{"bufferView":49,"componentType":5126,"count":24,"max":[1,1,1],"min":[-1,-1,-1],"type":"VEC3"},{"bufferView":50,"componentType":5126,"count":24,"max":[0.37451171875,0.21826171875],"min":[0.00048828125,0.00048828125],"type":"VEC2"},{"bufferView":51,"componentType":5123,"count":36,"max":[23],"min":[0],"type":"SCALAR"},{"bufferView":52,"componentType":5126,"count":20,"max":[0.34375,0.53125,0],"min":[-0.34375,-0.15625,0],"type":"VEC3"},{"bufferView":53,"componentType":5126,"count":20,"max":[1,0,0],"min":[0,0,-1],"type":"VEC3"},{"bufferView":54,"componentType":5126,"count":20,"max":[0.625,0.59375],"min":[0,0],"type":"VEC2"},{"bufferView":55,"componentType":5123,"count":30,"max":[19],"min":[0],"type":"SCALAR"},{"bufferView":56,"componentType":5126,"count":24,"max":[0.0625,0.0625,0.0625],"min":[-0.0625,-0.25,-0.0625],"type":"VEC3"},{"bufferView":57,"componentType":5126,"count":24,"max":[1,1,1],"min":[-1,-1,-1],"type":"VEC3"},{"bufferView":58,"componentType":5126,"count":24,"max":[0.24951171875,0.46826171875],"min":[0.00048828125,0.25048828125],"type":"VEC2"},{"bufferView":59,"componentType":5123,"count":36,"max":[23],"min":[0],"type":"SCALAR"},{"bufferView":60,"componentType":5126,"count":20,"max":[0.34375,0.53125,0],"min":[-0.34375,-0.15625,0],"type":"VEC3"},{"bufferView":61,"componentType":5126,"count":20,"max":[1,0,1],"min":[0,0,0],"type":"VEC3"},{"bufferView":62,"componentType":5126,"count":20,"max":[0.625,0.59375],"min":[0,0],"type":"VEC2"},{"bufferView":63,"componentType":5123,"count":30,"max":[19],"min":[0],"type":"SCALAR"}],"materials":[{"pbrMetallicRoughness":{"metallicFactor":0,"roughnessFactor":1,"baseColorTexture":{"index":0}},"alphaMode":"MASK","alphaCutoff":0.05,"doubleSided":true}],"textures":[{"sampler":0,"source":0,"name":"root_forming"}],"samplers":[{"magFilter":9728,"minFilter":9728,"wrapS":33071,"wrapT":33071}],"images":[{"mimeType":"image/png","uri":"data:image/png;base64,"}],"meshes":[{"primitives":[{"mode":4,"attributes":{"POSITION":0,"NORMAL":1,"TEXCOORD_0":2},"indices":3,"material":0}]},{"primitives":[{"mode":4,"attributes":{"POSITION":4,"NORMAL":5,"TEXCOORD_0":6},"indices":7,"material":0}]},{"primitives":[{"mode":4,"attributes":{"POSITION":8,"NORMAL":9,"TEXCOORD_0":10},"indices":11,"material":0}]},{"primitives":[{"mode":4,"attributes":{"POSITION":12,"NORMAL":13,"TEXCOORD_0":14},"indices":15,"material":0}]},{"primitives":[{"mode":4,"attributes":{"POSITION":16,"NORMAL":17,"TEXCOORD_0":18},"indices":19,"material":0}]},{"primitives":[{"mode":4,"attributes":{"POSITION":20,"NORMAL":21,"TEXCOORD_0":22},"indices":23,"material":0}]},{"primitives":[{"mode":4,"attributes":{"POSITION":24,"NORMAL":25,"TEXCOORD_0":26},"indices":27,"material":0}]},{"primitives":[{"mode":4,"attributes":{"POSITION":28,"NORMAL":29,"TEXCOORD_0":30},"indices":31,"material":0}]},{"primitives":[{"mode":4,"attributes":{"POSITION":32,"NORMAL":33,"TEXCOORD_0":34},"indices":35,"material":0}]},{"primitives":[{"mode":4,"attributes":{"POSITION":36,"NORMAL":37,"TEXCOORD_0":38},"indices":39,"material":0}]},{"primitives":[{"mode":4,"attributes":{"POSITION":40,"NORMAL":41,"TEXCOORD_0":42},"indices":43,"material":0}]},{"primitives":[{"mode":4,"attributes":{"POSITION":44,"NORMAL":45,"TEXCOORD_0":46},"indices":47,"material":0}]},{"primitives":[{"mode":4,"attributes":{"POSITION":48,"NORMAL":49,"TEXCOORD_0":50},"indices":51,"material":0}]},{"primitives":[{"mode":4,"attributes":{"POSITION":52,"NORMAL":53,"TEXCOORD_0":54},"indices":55,"material":0}]},{"primitives":[{"mode":4,"attributes":{"POSITION":56,"NORMAL":57,"TEXCOORD_0":58},"indices":59,"material":0}]},{"primitives":[{"mode":4,"attributes":{"POSITION":60,"NORMAL":61,"TEXCOORD_0":62},"indices":63,"material":0}]}]}