{"asset":{"version":"2.0","generator":"Blockbench 4.12.5 glTF exporter"},"scenes":[{"nodes":[3],"name":"blockbench_export"}],"scene":0,"nodes":[{"rotation":[0,-0.3826834323650898,0,0.9238795325112867],"translation":[0.011048543456039804,0.21875,0.011048543456039808],"name":"cube","mesh":0},{"rotation":[0,0.3826834323650898,0,0.9238795325112867],"translation":[0.011048543456039804,0.21875,-0.011048543456039808],"name":"cube","mesh":1},{"name":"root","children":[0,1]},{"children":[2]}],"bufferViews":[{"buffer":0,"byteOffset":0,"byteLength":240,"target":34962,"byteStride":12},{"buffer":0,"byteOffset":240,"byteLength":240,"target":34962,"byteStride":12},{"buffer":0,"byteOffset":480,"byteLength":160,"target":34962,"byteStride":8},{"buffer":0,"byteOffset":640,"byteLength":60,"target":34963},{"buffer":0,"byteOffset":700,"byteLength":240,"target":34962,"byteStride":12},{"buffer":0,"byteOffset":940,"byteLength":240,"target":34962,"byteStride":12},{"buffer":0,"byteOffset":1180,"byteLength":160,"target":34962,"byteStride":8},{"buffer":0,"byteOffset":1340,"byteLength":60,"target":34963}],"buffers":[{"byteLength":1400,"uri":"data:application/octet-stream;base64,"}],"accessors":[{"bufferView":0,"componentType":5126,"count":20,"max":[0.203125,0.53125,0],"min":[-0.234375,-0.21875,0],"type":"VEC3"},{"bufferView":1,"componentType":5126,"count":20,"max":[1,0,0],"min":[0,0,-1],"type":"VEC3"},{"bufferView":2,"componentType":5126,"count":20,"max":[0.4375,0.75],"min":[0,0],"type":"VEC2"},{"bufferView":3,"componentType":5123,"count":30,"max":[19],"min":[0],"type":"SCALAR"},{"bufferView":4,"componentType":5126,"count":20,"max":[0.203125,0.53125,0],"min":[-0.234375,-0.21875,0],"type":"VEC3"},{"bufferView":5,"componentType":5126,"count":20,"max":[1,0,1],"min":[0,0,0],"type":"VEC3"},{"bufferView":6,"componentType":5126,"count":20,"max":[0.4375,0.75],"min":[0,0],"type":"VEC2"},{"bufferView":7,"componentType":5123,"count":30,"max":[19],"min":[0],"type":"SCALAR"}],"materials":[{"pbrMetallicRoughness":{"metallicFactor":0,"roughnessFactor":1,"baseColorTexture":{"index":0}},"alphaMode":"MASK","alphaCutoff":0.05,"doubleSided":true}],"textures":[{"sampler":0,"source":0,"name":"plant"}],"samplers":[{"magFilter":9728,"minFilter":9728,"wrapS":33071,"wrapT":33071}],"images":[{"mimeType":"image/png","uri":"data:image/png;base64,"}],"meshes":[{"primitives":[{"mode":4,"attributes":{"POSITION":0,"NORMAL":1,"TEXCOORD_0":2},"indices":3,"material":0}]},{"primitives":[{"mode":4,"attributes":{"POSITION":4,"NORMAL":5,"TEXCOORD_0":6},"indices":7,"material":0}]}]}