{"asset":{"version":"2.0","generator":"Blockbench 4.12.6 glTF exporter"},"scenes":[{"nodes":[11],"name":"blockbench_export"}],"scene":0,"nodes":[{"translation":[-0.375,0,-0.0625],"name":"cube","mesh":0},{"translation":[-0.5,0,-0.0625],"name":"cube","mesh":1},{"translation":[-0.5,0,-0.0625],"name":"cube","mesh":2},{"translation":[-0.5,0,-0.0625],"name":"cube","mesh":3},{"translation":[-0.5,0,-0.0625],"name":"cube","mesh":4},{"translation":[-0.5,0,0.1875],"name":"cube","mesh":5},{"translation":[0.25,-1.125,0.0625],"name":"cube","mesh":6},{"translation":[-0.75,1.125,-0.125],"name":"bone","children":[6]},{"name":"cube","mesh":7},{"translation":[-0.75,1.125,0.125],"name":"bone2","children":[8]},{"translation":[0.4375,0,0],"name":"root","children":[0,1,2,3,4,5,7,9]},{"children":[10]}],"bufferViews":[{"buffer":0,"byteOffset":0,"byteLength":240,"target":34962,"byteStride":12},{"buffer":0,"byteOffset":240,"byteLength":240,"target":34962,"byteStride":12},{"buffer":0,"byteOffset":480,"byteLength":160,"target":34962,"byteStride":8},{"buffer":0,"byteOffset":640,"byteLength":60,"target":34963},{"buffer":0,"byteOffset":700,"byteLength":288,"target":34962,"byteStride":12},{"buffer":0,"byteOffset":988,"byteLength":288,"target":34962,"byteStride":12},{"buffer":0,"byteOffset":1276,"byteLength":192,"target":34962,"byteStride":8},{"buffer":0,"byteOffset":1468,"byteLength":72,"target":34963},{"buffer":0,"byteOffset":1540,"byteLength":288,"target":34962,"byteStride":12},{"buffer":0,"byteOffset":1828,"byteLength":288,"target":34962,"byteStride":12},{"buffer":0,"byteOffset":2116,"byteLength":192,"target":34962,"byteStride":8},{"buffer":0,"byteOffset":2308,"byteLength":72,"target":34963},{"buffer":0,"byteOffset":2380,"byteLength":288,"target":34962,"byteStride":12},{"buffer":0,"byteOffset":2668,"byteLength":288,"target":34962,"byteStride":12},{"buffer":0,"byteOffset":2956,"byteLength":192,"target":34962,"byteStride":8},{"buffer":0,"byteOffset":3148,"byteLength":72,"target":34963},{"buffer":0,"byteOffset":3220,"byteLength":1152,"target":34962,"byteStride":12},{"buffer":0,"byteOffset":4372,"byteLength":1152,"target":34962,"byteStride":12},{"buffer":0,"byteOffset":5524,"byteLength":768,"target":34962,"byteStride":8},{"buffer":0,"byteOffset":6292,"byteLength":288,"target":34963},{"buffer":0,"byteOffset":6580,"byteLength":288,"target":34962,"byteStride":12},{"buffer":0,"byteOffset":6868,"byteLength":288,"target":34962,"byteStride":12},{"buffer":0,"byteOffset":7156,"byteLength":192,"target":34962,"byteStride":8},{"buffer":0,"byteOffset":7348,"byteLength":72,"target":34963},{"buffer":0,"byteOffset":7420,"byteLength":240,"target":34962,"byteStride":12},{"buffer":0,"byteOffset":7660,"byteLength":240,"target":34962,"byteStride":12},{"buffer":0,"byteOffset":7900,"byteLength":160,"target":34962,"byteStride":8},{"buffer":0,"byteOffset":8060,"byteLength":60,"target":34963},{"buffer":0,"byteOffset":8120,"byteLength":240,"target":34962,"byteStride":12},{"buffer":0,"byteOffset":8360,"byteLength":240,"target":34962,"byteStride":12},{"buffer":0,"byteOffset":8600,"byteLength":160,"target":34962,"byteStride":8},{"buffer":0,"byteOffset":8760,"byteLength":60,"target":34963},{"buffer":0,"byteOffset":8820,"byteLength":4},{"buffer":0,"byteOffset":8824,"byteLength":16},{"buffer":0,"byteOffset":8840,"byteLength":4},{"buffer":0,"byteOffset":8844,"byteLength":16},{"buffer":0,"byteOffset":8860,"byteLength":4},{"buffer":0,"byteOffset":8864,"byteLength":16},{"buffer":0,"byteOffset":8880,"byteLength":4},{"buffer":0,"byteOffset":8884,"byteLength":16},{"buffer":0,"byteOffset":8900,"byteLength":4},{"buffer":0,"byteOffset":8904,"byteLength":16},{"buffer":0,"byteOffset":8920,"byteLength":4},{"buffer":0,"byteOffset":8924,"byteLength":16},{"buffer":0,"byteOffset":8940,"byteLength":16},{"buffer":0,"byteOffset":8956,"byteLength":64},{"buffer":0,"byteOffset":9020,"byteLength":12},{"buffer":0,"byteOffset":9032,"byteLength":48},{"buffer":0,"byteOffset":9080,"byteLength":16},{"buffer":0,"byteOffset":9096,"byteLength":64},{"buffer":0,"byteOffset":9160,"byteLength":12},{"buffer":0,"byteOffset":9172,"byteLength":48},{"buffer":0,"byteOffset":9220,"byteLength":16},{"buffer":0,"byteOffset":9236,"byteLength":64},{"buffer":0,"byteOffset":9300,"byteLength":12},{"buffer":0,"byteOffset":9312,"byteLength":48},{"buffer":0,"byteOffset":9360,"byteLength":12},{"buffer":0,"byteOffset":9372,"byteLength":48},{"buffer":0,"byteOffset":9420,"byteLength":12},{"buffer":0,"byteOffset":9432,"byteLength":48},{"buffer":0,"byteOffset":9480,"byteLength":16},{"buffer":0,"byteOffset":9496,"byteLength":64},{"buffer":0,"byteOffset":9560,"byteLength":12},{"buffer":0,"byteOffset":9572,"byteLength":48},{"buffer":0,"byteOffset":9620,"byteLength":16},{"buffer":0,"byteOffset":9636,"byteLength":64},{"buffer":0,"byteOffset":9700,"byteLength":12},{"buffer":0,"byteOffset":9712,"byteLength":48},{"buffer":0,"byteOffset":9760,"byteLength":16},{"buffer":0,"byteOffset":9776,"byteLength":64},{"buffer":0,"byteOffset":9840,"byteLength":12},{"buffer":0,"byteOffset":9852,"byteLength":48},{"buffer":0,"byteOffset":9900,"byteLength":12},{"buffer":0,"byteOffset":9912,"byteLength":48},{"buffer":0,"byteOffset":9960,"byteLength":12},{"buffer":0,"byteOffset":9972,"byteLength":48}],"buffers":[{"byteLength":10020,"uri":"data:application/octet-stream;base64,"}],"accessors":[{"bufferView":0,"componentType":5126,"count":20,"max":[0.1875,1.75,0.0625],"min":[-0.3125,1.25,0.0625],"type":"VEC3"},{"bufferView":1,"componentType":5126,"count":20,"max":[1,0,0],"min":[0,0,-1],"type":"VEC3"},{"bufferView":2,"componentType":5126,"count":20,"max":[0.7027714252471924,0.4215214252471924],"min":[0,0],"type":"VEC2"},{"bufferView":3,"componentType":5123,"count":30,"max":[19],"min":[0],"type":"SCALAR"},{"bufferView":4,"componentType":5126,"count":24,"max":[0.59375,1.125,0.171875],"min":[0.375,0.125,-0.046875],"type":"VEC3"},{"bufferView":5,"componentType":5126,"count":24,"max":[1,1,1],"min":[-1,-1,-1],"type":"VEC3"},{"bufferView":6,"componentType":5126,"count":24,"max":[0.1875,0.828125],"min":[0,0.53125],"type":"VEC2"},{"bufferView":7,"componentType":5123,"count":36,"max":[23],"min":[0],"type":"SCALAR"},{"bufferView":8,"componentType":5126,"count":24,"max":[0.59375,2.046875,0.15625],"min":[0.375,1.828125,-0.03125],"type":"VEC3"},{"bufferView":9,"componentType":5126,"count":24,"max":[1,1,1],"min":[-1,-1,-1],"type":"VEC3"},{"bufferView":10,"componentType":5126,"count":24,"max":[0.765625,0.203125],"min":[0.578125,0.109375],"type":"VEC2"},{"bufferView":11,"componentType":5123,"count":36,"max":[23],"min":[0],"type":"SCALAR"},{"bufferView":12,"componentType":5126,"count":24,"max":[-0.1875,1.1875,0],"min":[-0.3125,1.0625,-0.125],"type":"VEC3"},{"bufferView":13,"componentType":5126,"count":24,"max":[1,1,1],"min":[-1,-1,-1],"type":"VEC3"},{"bufferView":14,"componentType":5126,"count":24,"max":[0.703125,0.28125],"min":[0.578125,0.21875],"type":"VEC2"},{"bufferView":15,"componentType":5123,"count":36,"max":[23],"min":[0],"type":"SCALAR"},{"bufferView":16,"componentType":5126,"count":96,"max":[0.5625,2.25,0.125],"min":[-0.4375,0,0],"type":"VEC3"},{"bufferView":17,"componentType":5126,"count":96,"max":[1,1,1],"min":[-1,-1,-1],"type":"VEC3"},{"bufferView":18,"componentType":5126,"count":96,"max":[0.5935264229774475,0.687052845954895],"min":[0.00004968749999534339,0.00006204843521118164],"type":"VEC2"},{"bufferView":19,"componentType":5123,"count":144,"max":[95],"min":[0],"type":"SCALAR"},{"bufferView":20,"componentType":5126,"count":24,"max":[-0.1875,1.1875,0],"min":[-0.3125,1.0625,-0.125],"type":"VEC3"},{"bufferView":21,"componentType":5126,"count":24,"max":[1,1,1],"min":[-1,-1,-1],"type":"VEC3"},{"bufferView":22,"componentType":5126,"count":24,"max":[0.703125,0.28125],"min":[0.578125,0.21875],"type":"VEC2"},{"bufferView":23,"componentType":5123,"count":36,"max":[23],"min":[0],"type":"SCALAR"},{"bufferView":24,"componentType":5126,"count":20,"max":[-0.0625,1.1875,-0.0625],"min":[-0.4375,0.8125,-0.0625],"type":"VEC3"},{"bufferView":25,"componentType":5126,"count":20,"max":[1,0,0],"min":[0,0,-1],"type":"VEC3"},{"bufferView":26,"componentType":5126,"count":20,"max":[0.7651249766349792,0.09339642524719238],"min":[0.578125,0],"type":"VEC2"},{"bufferView":27,"componentType":5123,"count":30,"max":[19],"min":[0],"type":"SCALAR"},{"bufferView":28,"componentType":5126,"count":20,"max":[0.1875,0.0625,0],"min":[-0.1875,-0.3125,0],"type":"VEC3"},{"bufferView":29,"componentType":5126,"count":20,"max":[1,0,0],"min":[0,0,-1],"type":"VEC3"},{"bufferView":30,"componentType":5126,"count":20,"max":[0.7651249766349792,0.09339642524719238],"min":[0.578125,0],"type":"VEC2"},{"bufferView":31,"componentType":5123,"count":30,"max":[19],"min":[0],"type":"SCALAR"},{"bufferView":32,"componentType":5126,"count":1,"max":[0],"min":[0],"type":"SCALAR"},{"bufferView":33,"componentType":5126,"count":1,"max":[0,0,0,1],"min":[0,0,0,1],"type":"VEC4"},{"bufferView":34,"componentType":5126,"count":1,"max":[0],"min":[0],"type":"SCALAR"},{"bufferView":35,"componentType":5126,"count":1,"max":[0,0,0,1],"min":[0,0,0,1],"type":"VEC4"},{"bufferView":36,"componentType":5126,"count":1,"max":[0],"min":[0],"type":"SCALAR"},{"bufferView":37,"componentType":5126,"count":1,"max":[0,0,0,1],"min":[0,0,0,1],"type":"VEC4"},{"bufferView":38,"componentType":5126,"count":1,"max":[0],"min":[0],"type":"SCALAR"},{"bufferView":39,"componentType":5126,"count":1,"max":[0,0.7071067690849304,0,0.7071067690849304],"min":[0,0.7071067690849304,0,0.7071067690849304],"type":"VEC4"},{"bufferView":40,"componentType":5126,"count":1,"max":[0],"min":[0],"type":"SCALAR"},{"bufferView":41,"componentType":5126,"count":1,"max":[0,0.7071067690849304,0,0.7071067690849304],"min":[0,0.7071067690849304,0,0.7071067690849304],"type":"VEC4"},{"bufferView":42,"componentType":5126,"count":1,"max":[0],"min":[0],"type":"SCALAR"},{"bufferView":43,"componentType":5126,"count":1,"max":[0,0.7071067690849304,0,0.7071067690849304],"min":[0,0.7071067690849304,0,0.7071067690849304],"type":"VEC4"},{"bufferView":44,"componentType":5126,"count":4,"max":[0.16666999459266663],"min":[0],"type":"SCALAR"},{"bufferView":45,"componentType":5126,"count":4,"max":[0,0.7071067690849304,0,1],"min":[0,0,0,0.7071067690849304],"type":"VEC4"},{"bufferView":46,"componentType":5126,"count":3,"max":[0.25],"min":[0],"type":"SCALAR"},{"bufferView":47,"componentType":5126,"count":3,"max":[0,0,0,1],"min":[0,0,-0.2164396196603775,0.9762960076332092],"type":"VEC4"},{"bufferView":48,"componentType":5126,"count":4,"max":[0.16666999459266663],"min":[0],"type":"SCALAR"},{"bufferView":49,"componentType":5126,"count":4,"max":[0,0.7071067690849304,0,1],"min":[0,0,0,0.7071067690849304],"type":"VEC4"},{"bufferView":50,"componentType":5126,"count":3,"max":[0.25],"min":[0],"type":"SCALAR"},{"bufferView":51,"componentType":5126,"count":3,"max":[0,0,0,1],"min":[0,0,-0.2164396196603775,0.9762960076332092],"type":"VEC4"},{"bufferView":52,"componentType":5126,"count":4,"max":[0.16666999459266663],"min":[0],"type":"SCALAR"},{"bufferView":53,"componentType":5126,"count":4,"max":[0,0.7071067690849304,0,1],"min":[0,0,0,0.7071067690849304],"type":"VEC4"},{"bufferView":54,"componentType":5126,"count":3,"max":[0.25],"min":[0],"type":"SCALAR"},{"bufferView":55,"componentType":5126,"count":3,"max":[0.4617486000061035,0,0,1],"min":[0,0,0,0.8870108127593994],"type":"VEC4"},{"bufferView":56,"componentType":5126,"count":3,"max":[0.25],"min":[0],"type":"SCALAR"},{"bufferView":57,"componentType":5126,"count":3,"max":[0,0,0,1],"min":[0,0,-0.2164396196603775,0.9762960076332092],"type":"VEC4"},{"bufferView":58,"componentType":5126,"count":3,"max":[0.25],"min":[0],"type":"SCALAR"},{"bufferView":59,"componentType":5126,"count":3,"max":[0,0,0,1],"min":[0,0,-0.2164396196603775,0.9762960076332092],"type":"VEC4"},{"bufferView":60,"componentType":5126,"count":4,"max":[0.16666999459266663],"min":[0],"type":"SCALAR"},{"bufferView":61,"componentType":5126,"count":4,"max":[0,0.7071067690849304,0,1],"min":[0,0,0,0.7071067690849304],"type":"VEC4"},{"bufferView":62,"componentType":5126,"count":3,"max":[0.25],"min":[0],"type":"SCALAR"},{"bufferView":63,"componentType":5126,"count":3,"max":[0,0,0,1],"min":[0,0,-0.2164396196603775,0.9762960076332092],"type":"VEC4"},{"bufferView":64,"componentType":5126,"count":4,"max":[0.16666999459266663],"min":[0],"type":"SCALAR"},{"bufferView":65,"componentType":5126,"count":4,"max":[0,0.7071067690849304,0,1],"min":[0,0,0,0.7071067690849304],"type":"VEC4"},{"bufferView":66,"componentType":5126,"count":3,"max":[0.25],"min":[0],"type":"SCALAR"},{"bufferView":67,"componentType":5126,"count":3,"max":[0,0,0,1],"min":[0,0,-0.2164396196603775,0.9762960076332092],"type":"VEC4"},{"bufferView":68,"componentType":5126,"count":4,"max":[0.16666999459266663],"min":[0],"type":"SCALAR"},{"bufferView":69,"componentType":5126,"count":4,"max":[0,0.7071067690849304,0,1],"min":[0,0,0,0.7071067690849304],"type":"VEC4"},{"bufferView":70,"componentType":5126,"count":3,"max":[0.25],"min":[0],"type":"SCALAR"},{"bufferView":71,"componentType":5126,"count":3,"max":[0.4617486000061035,0,0,1],"min":[0,0,0,0.8870108127593994],"type":"VEC4"},{"bufferView":72,"componentType":5126,"count":3,"max":[0.25],"min":[0],"type":"SCALAR"},{"bufferView":73,"componentType":5126,"count":3,"max":[0,0,0,1],"min":[0,0,-0.2164396196603775,0.9762960076332092],"type":"VEC4"},{"bufferView":74,"componentType":5126,"count":3,"max":[0.25],"min":[0],"type":"SCALAR"},{"bufferView":75,"componentType":5126,"count":3,"max":[0,0,0,1],"min":[0,0,-0.2164396196603775,0.9762960076332092],"type":"VEC4"}],"materials":[{"pbrMetallicRoughness":{"metallicFactor":0,"roughnessFactor":1,"baseColorTexture":{"index":0}},"alphaMode":"MASK","alphaCutoff":0.05,"doubleSided":true}],"textures":[{"sampler":0,"source":0,"name":"oak_door"}],"samplers":[{"magFilter":9728,"minFilter":9728,"wrapS":33071,"wrapT":33071}],"images":[{"mimeType":"image/png","uri":"data:image/png;base64,"}],"meshes":[{"primitives":[{"mode":4,"attributes":{"POSITION":0,"NORMAL":1,"TEXCOORD_0":2},"indices":3,"material":0}]},{"primitives":[{"mode":4,"attributes":{"POSITION":4,"NORMAL":5,"TEXCOORD_0":6},"indices":7,"material":0}]},{"primitives":[{"mode":4,"attributes":{"POSITION":8,"NORMAL":9,"TEXCOORD_0":10},"indices":11,"material":0}]},{"primitives":[{"mode":4,"attributes":{"POSITION":12,"NORMAL":13,"TEXCOORD_0":14},"indices":15,"material":0}]},{"primitives":[{"mode":4,"attributes":{"POSITION":16,"NORMAL":17,"TEXCOORD_0":18},"indices":19,"material":0}]},{"primitives":[{"mode":4,"attributes":{"POSITION":20,"NORMAL":21,"TEXCOORD_0":22},"indices":23,"material":0}]},{"primitives":[{"mode":4,"attributes":{"POSITION":24,"NORMAL":25,"TEXCOORD_0":26},"indices":27,"material":0}]},{"primitives":[{"mode":4,"attributes":{"POSITION":28,"NORMAL":29,"TEXCOORD_0":30},"indices":31,"material":0}]}],"animations":[{"name":"idle","samplers":[{"input":32,"output":33,"interpolation":"LINEAR"},{"input":34,"output":35,"interpolation":"LINEAR"},{"input":36,"output":37,"interpolation":"LINEAR"}],"channels":[{"sampler":0,"target":{"node":10,"path":"rotation"}},{"sampler":1,"target":{"path":"rotation"}},{"sampler":2,"target":{"path":"rotation"}}]},{"name":"idle2","samplers":[{"input":38,"output":39,"interpolation":"LINEAR"},{"input":40,"output":41,"interpolation":"LINEAR"},{"input":42,"output":43,"interpolation":"LINEAR"}],"channels":[{"sampler":0,"target":{"node":10,"path":"rotation"}},{"sampler":1,"target":{"path":"rotation"}},{"sampler":2,"target":{"path":"rotation"}}]},{"name":"interact","samplers":[{"input":44,"output":45,"interpolation":"LINEAR"},{"input":46,"output":47,"interpolation":"LINEAR"},{"input":48,"output":49,"interpolation":"LINEAR"},{"input":50,"output":51,"interpolation":"LINEAR"},{"input":52,"output":53,"interpolation":"LINEAR"},{"input":54,"output":55,"interpolation":"LINEAR"},{"input":56,"output":57,"interpolation":"LINEAR"},{"input":58,"output":59,"interpolation":"LINEAR"}],"channels":[{"sampler":0,"target":{"node":10,"path":"rotation"}},{"sampler":1,"target":{"node":7,"path":"rotation"}},{"sampler":2,"target":{"path":"rotation"}},{"sampler":3,"target":{"path":"rotation"}},{"sampler":4,"target":{"path":"rotation"}},{"sampler":5,"target":{"path":"rotation"}},{"sampler":6,"target":{"node":9,"path":"rotation"}},{"sampler":7,"target":{"path":"rotation"}}]},{"name":"interact2","samplers":[{"input":60,"output":61,"interpolation":"LINEAR"},{"input":62,"output":63,"interpolation":"LINEAR"},{"input":64,"output":65,"interpolation":"LINEAR"},{"input":66,"output":67,"interpolation":"LINEAR"},{"input":68,"output":69,"interpolation":"LINEAR"},{"input":70,"output":71,"interpolation":"LINEAR"},{"input":72,"output":73,"interpolation":"LINEAR"},{"input":74,"output":75,"interpolation":"LINEAR"}],"channels":[{"sampler":0,"target":{"node":10,"path":"rotation"}},{"sampler":1,"target":{"node":9,"path":"rotation"}},{"sampler":2,"target":{"path":"rotation"}},{"sampler":3,"target":{"path":"rotation"}},{"sampler":4,"target":{"path":"rotation"}},{"sampler":5,"target":{"path":"rotation"}},{"sampler":6,"target":{"node":7,"path":"rotation"}},{"sampler":7,"target":{"path":"rotation"}}]}]}