{"asset":{"version":"2.0","generator":"Blockbench 4.12.4 glTF exporter"},"scenes":[{"nodes":[21],"name":"blockbench_export"}],"scene":0,"nodes":[{"translation":[0.25,0.56083,0.49761625],"name":"cube","mesh":0},{"rotation":[0,-0.3826834323650898,0,0.9238795325112867],"translation":[0.242595625,0.5607675,0.50305875],"name":"cube","mesh":1},{"translation":[0.25,0.56083,0.49761625],"name":"cube inverted","mesh":2},{"rotation":[0,-0.3826834323650898,0,0.9238795325112867],"translation":[0.242595625,0.5607675,0.50305875],"name":"cube inverted","mesh":3},{"translation":[0.84375,0.37683125,0.1875],"name":"cube","mesh":4},{"translation":[0.3125,0.37683125,0.1875],"name":"cube","mesh":5},{"rotation":[0,-0.3826834323650898,0,0.9238795325112867],"translation":[0.268305625,0.56083,0.515921875],"name":"cube","mesh":6},{"rotation":[0,0.3826834323650898,0,0.9238795325112867],"translation":[0.24620875,0.56083,0.5004875],"name":"cube","mesh":7},{"translation":[0.25,0.56083,0.43511625],"name":"cube","mesh":8},{"translation":[1.1046075,0.56083,1.02886625],"name":"cube","mesh":9},{"translation":[0.734375,0.56083,0.49761625],"name":"cube","mesh":10},{"rotation":[0,0,-0.3826834323650898,0.9238795325112867],"translation":[0.25,0.56083,0.49761625],"name":"cube","mesh":11},{"translation":[0.78125,0.56083,0.43511625],"name":"cube","mesh":12},{"translation":[0.25,0.56083,0.43511625],"name":"cube","mesh":13},{"translation":[0.25,0.56083,1.02886625],"name":"cube","mesh":14},{"translation":[0.78125,0.56083,1.02886625],"name":"cube","mesh":15},{"name":"group"},{"name":"group"},{"translation":[-0.5,-0.5,-0.5],"name":"group"},{"name":"group"},{"translation":[0.5,0.5,0.5],"name":"group","children":[16,17,18,19]},{"children":[0,1,2,3,4,5,6,7,8,9,10,11,12,13,14,15,20]}],"bufferViews":[{"buffer":0,"byteOffset":0,"byteLength":288,"target":34962,"byteStride":12},{"buffer":0,"byteOffset":288,"byteLength":288,"target":34962,"byteStride":12},{"buffer":0,"byteOffset":576,"byteLength":192,"target":34962,"byteStride":8},{"buffer":0,"byteOffset":768,"byteLength":48,"target":34963},{"buffer":0,"byteOffset":816,"byteLength":288,"target":34962,"byteStride":12},{"buffer":0,"byteOffset":1104,"byteLength":288,"target":34962,"byteStride":12},{"buffer":0,"byteOffset":1392,"byteLength":192,"target":34962,"byteStride":8},{"buffer":0,"byteOffset":1584,"byteLength":36,"target":34963},{"buffer":0,"byteOffset":1620,"byteLength":288,"target":34962,"byteStride":12},{"buffer":0,"byteOffset":1908,"byteLength":288,"target":34962,"byteStride":12},{"buffer":0,"byteOffset":2196,"byteLength":192,"target":34962,"byteStride":8},{"buffer":0,"byteOffset":2388,"byteLength":48,"target":34963},{"buffer":0,"byteOffset":2436,"byteLength":288,"target":34962,"byteStride":12},{"buffer":0,"byteOffset":2724,"byteLength":288,"target":34962,"byteStride":12},{"buffer":0,"byteOffset":3012,"byteLength":192,"target":34962,"byteStride":8},{"buffer":0,"byteOffset":3204,"byteLength":36,"target":34963},{"buffer":0,"byteOffset":3240,"byteLength":288,"target":34962,"byteStride":12},{"buffer":0,"byteOffset":3528,"byteLength":288,"target":34962,"byteStride":12},{"buffer":0,"byteOffset":3816,"byteLength":192,"target":34962,"byteStride":8},{"buffer":0,"byteOffset":4008,"byteLength":48,"target":34963},{"buffer":0,"byteOffset":4056,"byteLength":288,"target":34962,"byteStride":12},{"buffer":0,"byteOffset":4344,"byteLength":288,"target":34962,"byteStride":12},{"buffer":0,"byteOffset":4632,"byteLength":192,"target":34962,"byteStride":8},{"buffer":0,"byteOffset":4824,"byteLength":48,"target":34963},{"buffer":0,"byteOffset":4872,"byteLength":288,"target":34962,"byteStride":12},{"buffer":0,"byteOffset":5160,"byteLength":288,"target":34962,"byteStride":12},{"buffer":0,"byteOffset":5448,"byteLength":192,"target":34962,"byteStride":8},{"buffer":0,"byteOffset":5640,"byteLength":72,"target":34963},{"buffer":0,"byteOffset":5712,"byteLength":288,"target":34962,"byteStride":12},{"buffer":0,"byteOffset":6000,"byteLength":288,"target":34962,"byteStride":12},{"buffer":0,"byteOffset":6288,"byteLength":192,"target":34962,"byteStride":8},{"buffer":0,"byteOffset":6480,"byteLength":60,"target":34963},{"buffer":0,"byteOffset":6540,"byteLength":288,"target":34962,"byteStride":12},{"buffer":0,"byteOffset":6828,"byteLength":288,"target":34962,"byteStride":12},{"buffer":0,"byteOffset":7116,"byteLength":192,"target":34962,"byteStride":8},{"buffer":0,"byteOffset":7308,"byteLength":72,"target":34963},{"buffer":0,"byteOffset":7380,"byteLength":288,"target":34962,"byteStride":12},{"buffer":0,"byteOffset":7668,"byteLength":288,"target":34962,"byteStride":12},{"buffer":0,"byteOffset":7956,"byteLength":192,"target":34962,"byteStride":8},{"buffer":0,"byteOffset":8148,"byteLength":72,"target":34963},{"buffer":0,"byteOffset":8220,"byteLength":288,"target":34962,"byteStride":12},{"buffer":0,"byteOffset":8508,"byteLength":288,"target":34962,"byteStride":12},{"buffer":0,"byteOffset":8796,"byteLength":192,"target":34962,"byteStride":8},{"buffer":0,"byteOffset":8988,"byteLength":72,"target":34963},{"buffer":0,"byteOffset":9060,"byteLength":288,"target":34962,"byteStride":12},{"buffer":0,"byteOffset":9348,"byteLength":288,"target":34962,"byteStride":12},{"buffer":0,"byteOffset":9636,"byteLength":192,"target":34962,"byteStride":8},{"buffer":0,"byteOffset":9828,"byteLength":60,"target":34963},{"buffer":0,"byteOffset":9888,"byteLength":288,"target":34962,"byteStride":12},{"buffer":0,"byteOffset":10176,"byteLength":288,"target":34962,"byteStride":12},{"buffer":0,"byteOffset":10464,"byteLength":192,"target":34962,"byteStride":8},{"buffer":0,"byteOffset":10656,"byteLength":60,"target":34963},{"buffer":0,"byteOffset":10716,"byteLength":288,"target":34962,"byteStride":12},{"buffer":0,"byteOffset":11004,"byteLength":288,"target":34962,"byteStride":12},{"buffer":0,"byteOffset":11292,"byteLength":192,"target":34962,"byteStride":8},{"buffer":0,"byteOffset":11484,"byteLength":60,"target":34963},{"buffer":0,"byteOffset":11544,"byteLength":288,"target":34962,"byteStride":12},{"buffer":0,"byteOffset":11832,"byteLength":288,"target":34962,"byteStride":12},{"buffer":0,"byteOffset":12120,"byteLength":192,"target":34962,"byteStride":8},{"buffer":0,"byteOffset":12312,"byteLength":60,"target":34963},{"buffer":0,"byteOffset":12372,"byteLength":288,"target":34962,"byteStride":12},{"buffer":0,"byteOffset":12660,"byteLength":288,"target":34962,"byteStride":12},{"buffer":0,"byteOffset":12948,"byteLength":192,"target":34962,"byteStride":8},{"buffer":0,"byteOffset":13140,"byteLength":60,"target":34963}],"buffers":[{"byteLength":13200,"uri":"data:application/octet-stream;base64,"}],"accessors":[{"bufferView":0,"componentType":5126,"count":24,"max":[0.9819912314414978,0.06600125133991241,0.3125],"min":[-0.14227625727653503,-0.3089987635612488,-0.3125],"type":"VEC3"},{"bufferView":1,"componentType":5126,"count":24,"max":[1,1,1],"min":[-1,-1,-1],"type":"VEC3"},{"bufferView":2,"componentType":5126,"count":24,"max":[1,1],"min":[0,0],"type":"VEC2"},{"bufferView":3,"componentType":5123,"count":24,"max":[23],"min":[0],"type":"SCALAR"},{"bufferView":4,"componentType":5126,"count":24,"max":[0.12209875136613846,0.06606374680995941,0.31214624643325806],"min":[-0.3201618790626526,-0.30734938383102417,-0.12950436770915985],"type":"VEC3"},{"bufferView":5,"componentType":5126,"count":24,"max":[1,1,1],"min":[-1,-1,-1],"type":"VEC3"},{"bufferView":6,"componentType":5126,"count":24,"max":[1,1],"min":[0,0],"type":"VEC2"},{"bufferView":7,"componentType":5123,"count":18,"max":[19],"min":[4],"type":"SCALAR"},{"bufferView":8,"componentType":5126,"count":24,"max":[0.9819912314414978,0.06600125133991241,0.3125],"min":[-0.14227625727653503,-0.2952049970626831,-0.3125],"type":"VEC3"},{"bufferView":9,"componentType":5126,"count":24,"max":[1,1,1],"min":[-1,-1,-1],"type":"VEC3"},{"bufferView":10,"componentType":5126,"count":24,"max":[1,1],"min":[0,0],"type":"VEC2"},{"bufferView":11,"componentType":5123,"count":24,"max":[23],"min":[4],"type":"SCALAR"},{"bufferView":12,"componentType":5126,"count":24,"max":[0.12209875136613846,0.06606374680995941,0.31214624643325806],"min":[-0.3201618790626526,-0.29587501287460327,-0.12950436770915985],"type":"VEC3"},{"bufferView":13,"componentType":5126,"count":24,"max":[1,1,1],"min":[-1,-1,-1],"type":"VEC3"},{"bufferView":14,"componentType":5126,"count":24,"max":[1,1],"min":[0,0],"type":"VEC2"},{"bufferView":15,"componentType":5123,"count":18,"max":[23],"min":[0],"type":"SCALAR"},{"bufferView":16,"componentType":5126,"count":24,"max":[0.1875,0.0625,0.6218262314796448],"min":[-0.03125,0.03125,0],"type":"VEC3"},{"bufferView":17,"componentType":5126,"count":24,"max":[1,1,1],"min":[-1,-1,-1],"type":"VEC3"},{"bufferView":18,"componentType":5126,"count":24,"max":[1,1],"min":[0,0],"type":"VEC2"},{"bufferView":19,"componentType":5123,"count":24,"max":[15],"min":[0],"type":"SCALAR"},{"bufferView":20,"componentType":5126,"count":24,"max":[0.1875,0.0625,0.6218262314796448],"min":[-0.03125,0.03125,0],"type":"VEC3"},{"bufferView":21,"componentType":5126,"count":24,"max":[1,1,1],"min":[-1,-1,-1],"type":"VEC3"},{"bufferView":22,"componentType":5126,"count":24,"max":[1,1],"min":[0,0],"type":"VEC2"},{"bufferView":23,"componentType":5123,"count":24,"max":[15],"min":[0],"type":"SCALAR"},{"bufferView":24,"componentType":5126,"count":24,"max":[0.10500875115394592,0.06600125133991241,0.33314186334609985],"min":[-0.3588581383228302,-0.058998748660087585,0.27064186334609985],"type":"VEC3"},{"bufferView":25,"componentType":5126,"count":24,"max":[1,1,1],"min":[-1,-1,-1],"type":"VEC3"},{"bufferView":26,"componentType":5126,"count":24,"max":[0.08203125,0.5032956600189209],"min":[0.04296875,0.4453125],"type":"VEC2"},{"bufferView":27,"componentType":5123,"count":36,"max":[23],"min":[0],"type":"SCALAR"},{"bufferView":28,"componentType":5126,"count":24,"max":[0.13560812175273895,0.0661231279373169,-0.2699912488460541],"min":[-0.31751686334609985,-0.058998748660087585,-0.3324912488460541],"type":"VEC3"},{"bufferView":29,"componentType":5126,"count":24,"max":[1,1,1],"min":[-1,-1,-1],"type":"VEC3"},{"bufferView":30,"componentType":5126,"count":24,"max":[1,1],"min":[0,0],"type":"VEC2"},{"bufferView":31,"componentType":5123,"count":30,"max":[23],"min":[4],"type":"SCALAR"},{"bufferView":32,"componentType":5126,"count":24,"max":[0.9976162314414978,0.06600125133991241,-0.203125],"min":[-0.143008753657341,-0.058998748660087585,-0.265625],"type":"VEC3"},{"bufferView":33,"componentType":5126,"count":24,"max":[1,1,1],"min":[-1,-1,-1],"type":"VEC3"},{"bufferView":34,"componentType":5126,"count":24,"max":[0.0390625,0.50390625],"min":[0,0],"type":"VEC2"},{"bufferView":35,"componentType":5123,"count":36,"max":[23],"min":[0],"type":"SCALAR"},{"bufferView":36,"componentType":5126,"count":24,"max":[0.143008753657341,0.06600125133991241,-0.203125],"min":[-0.9976162314414978,-0.058998748660087585,-0.265625],"type":"VEC3"},{"bufferView":37,"componentType":5126,"count":24,"max":[1,1,1],"min":[-1,-1,-1],"type":"VEC3"},{"bufferView":38,"componentType":5126,"count":24,"max":[0.0390625,0.50390625],"min":[0,0.36328125],"type":"VEC2"},{"bufferView":39,"componentType":5123,"count":36,"max":[23],"min":[0],"type":"SCALAR"},{"bufferView":40,"componentType":5126,"count":24,"max":[0.5132412314414978,0.06600125133991241,0.265625],"min":[0.4507412612438202,-0.058998748660087585,-0.265625],"type":"VEC3"},{"bufferView":41,"componentType":5126,"count":24,"max":[1,1,1],"min":[-1,-1,-1],"type":"VEC3"},{"bufferView":42,"componentType":5126,"count":24,"max":[0.08203125,0.44140625],"min":[0,0],"type":"VEC2"},{"bufferView":43,"componentType":5123,"count":36,"max":[23],"min":[0],"type":"SCALAR"},{"bufferView":44,"componentType":5126,"count":24,"max":[-0.31735751032829285,-0.22365625202655792,0.03170999884605408],"min":[-0.5361074805259705,-0.28615623712539673,-0.030789999291300774],"type":"VEC3"},{"bufferView":45,"componentType":5126,"count":24,"max":[1,1,1],"min":[-1,-1,-1],"type":"VEC3"},{"bufferView":46,"componentType":5126,"count":24,"max":[1,1],"min":[0,0],"type":"VEC2"},{"bufferView":47,"componentType":5123,"count":30,"max":[23],"min":[4],"type":"SCALAR"},{"bufferView":48,"componentType":5126,"count":24,"max":[0.200741246342659,0.12850125133991241,-0.21875],"min":[0.106991246342659,0.06600125133991241,-0.25],"type":"VEC3"},{"bufferView":49,"componentType":5126,"count":24,"max":[1,1,1],"min":[-1,-1,-1],"type":"VEC3"},{"bufferView":50,"componentType":5126,"count":24,"max":[1,1],"min":[0,0],"type":"VEC2"},{"bufferView":51,"componentType":5123,"count":30,"max":[23],"min":[0],"type":"SCALAR"},{"bufferView":52,"componentType":5126,"count":24,"max":[0.200741246342659,0.12850125133991241,-0.21875],"min":[0.106991246342659,0.06600125133991241,-0.25],"type":"VEC3"},{"bufferView":53,"componentType":5126,"count":24,"max":[1,1,1],"min":[-1,-1,-1],"type":"VEC3"},{"bufferView":54,"componentType":5126,"count":24,"max":[1,1],"min":[0,0],"type":"VEC2"},{"bufferView":55,"componentType":5123,"count":30,"max":[23],"min":[0],"type":"SCALAR"},{"bufferView":56,"componentType":5126,"count":24,"max":[0.200741246342659,0.12850125133991241,-0.21875],"min":[0.106991246342659,0.06600125133991241,-0.25],"type":"VEC3"},{"bufferView":57,"componentType":5126,"count":24,"max":[1,1,1],"min":[-1,-1,-1],"type":"VEC3"},{"bufferView":58,"componentType":5126,"count":24,"max":[1,1],"min":[0,0],"type":"VEC2"},{"bufferView":59,"componentType":5123,"count":30,"max":[23],"min":[0],"type":"SCALAR"},{"bufferView":60,"componentType":5126,"count":24,"max":[0.200741246342659,0.12850125133991241,-0.21875],"min":[0.106991246342659,0.06600125133991241,-0.25],"type":"VEC3"},{"bufferView":61,"componentType":5126,"count":24,"max":[1,1,1],"min":[-1,-1,-1],"type":"VEC3"},{"bufferView":62,"componentType":5126,"count":24,"max":[1,1],"min":[0,0],"type":"VEC2"},{"bufferView":63,"componentType":5123,"count":30,"max":[23],"min":[0],"type":"SCALAR"}],"materials":[{"pbrMetallicRoughness":{"metallicFactor":0,"roughnessFactor":1,"baseColorTexture":{"index":0}},"alphaMode":"MASK","alphaCutoff":0.05}],"textures":[{"sampler":0,"source":0}],"samplers":[{"magFilter":9728,"minFilter":9728,"wrapS":33071,"wrapT":33071}],"images":[{"mimeType":"image/png","uri":"data:image/png;base64,"}],"meshes":[{"primitives":[{"mode":4,"attributes":{"POSITION":0,"NORMAL":1,"TEXCOORD_0":2},"indices":3,"material":0}]},{"primitives":[{"mode":4,"attributes":{"POSITION":4,"NORMAL":5,"TEXCOORD_0":6},"indices":7,"material":0}]},{"primitives":[{"mode":4,"attributes":{"POSITION":8,"NORMAL":9,"TEXCOORD_0":10},"indices":11,"material":0}]},{"primitives":[{"mode":4,"attributes":{"POSITION":12,"NORMAL":13,"TEXCOORD_0":14},"indices":15,"material":0}]},{"primitives":[{"mode":4,"attributes":{"POSITION":16,"NORMAL":17,"TEXCOORD_0":18},"indices":19,"material":0}]},{"primitives":[{"mode":4,"attributes":{"POSITION":20,"NORMAL":21,"TEXCOORD_0":22},"indices":23,"material":0}]},{"primitives":[{"mode":4,"attributes":{"POSITION":24,"NORMAL":25,"TEXCOORD_0":26},"indices":27,"material":0}]},{"primitives":[{"mode":4,"attributes":{"POSITION":28,"NORMAL":29,"TEXCOORD_0":30},"indices":31,"material":0}]},{"primitives":[{"mode":4,"attributes":{"POSITION":32,"NORMAL":33,"TEXCOORD_0":34},"indices":35,"material":0}]},{"primitives":[{"mode":4,"attributes":{"POSITION":36,"NORMAL":37,"TEXCOORD_0":38},"indices":39,"material":0}]},{"primitives":[{"mode":4,"attributes":{"POSITION":40,"NORMAL":41,"TEXCOORD_0":42},"indices":43,"material":0}]},{"primitives":[{"mode":4,"attributes":{"POSITION":44,"NORMAL":45,"TEXCOORD_0":46},"indices":47,"material":0}]},{"primitives":[{"mode":4,"attributes":{"POSITION":48,"NORMAL":49,"TEXCOORD_0":50},"indices":51,"material":0}]},{"primitives":[{"mode":4,"attributes":{"POSITION":52,"NORMAL":53,"TEXCOORD_0":54},"indices":55,"material":0}]},{"primitives":[{"mode":4,"attributes":{"POSITION":56,"NORMAL":57,"TEXCOORD_0":58},"indices":59,"material":0}]},{"primitives":[{"mode":4,"attributes":{"POSITION":60,"NORMAL":61,"TEXCOORD_0":62},"indices":63,"material":0}]}]}