{"asset":{"version":"2.0","generator":"Blockbench 4.12.5 glTF exporter"},"scenes":[{"nodes":[9],"name":"blockbench_export"}],"scene":0,"nodes":[{"translation":[-0.018749999999999996,-1.0768305826175841,0.1955805826175841],"name":"cube","mesh":0},{"translation":[-0.018749999999999996,-1.1393305826175841,0.1330805826175841],"name":"cube","mesh":1},{"rotation":[-0.3826834323650898,0,0,0.9238795325112867],"translation":[0.043750000000000004,-0.20183058261758413,0.0705805826175841],"name":"cube","mesh":2},{"translation":[-0.018749999999999996,-1.0143305826175841,0.1330805826175841],"name":"cube","mesh":3},{"translation":[0,0.1875,0],"name":"cube","mesh":4},{"translation":[0.043750000000000004,-0.014330582617584131,-0.4294194173824159],"name":"door","children":[4]},{"translation":[0.125,-1.0625000000000009,0.40624999999999967],"name":"cube","mesh":5},{"translation":[-0.15624999999999997,0.23566941738241676,-0.27316941738241557],"name":"lever","children":[6]},{"translation":[-0.043750000000000004,0.8893305826175841,-0.2580805826175841],"name":"root","children":[0,1,2,3,5,7]},{"children":[8]}],"bufferViews":[{"buffer":0,"byteOffset":0,"byteLength":288,"target":34962,"byteStride":12},{"buffer":0,"byteOffset":288,"byteLength":288,"target":34962,"byteStride":12},{"buffer":0,"byteOffset":576,"byteLength":192,"target":34962,"byteStride":8},{"buffer":0,"byteOffset":768,"byteLength":72,"target":34963},{"buffer":0,"byteOffset":840,"byteLength":288,"target":34962,"byteStride":12},{"buffer":0,"byteOffset":1128,"byteLength":288,"target":34962,"byteStride":12},{"buffer":0,"byteOffset":1416,"byteLength":192,"target":34962,"byteStride":8},{"buffer":0,"byteOffset":1608,"byteLength":72,"target":34963},{"buffer":0,"byteOffset":1680,"byteLength":288,"target":34962,"byteStride":12},{"buffer":0,"byteOffset":1968,"byteLength":288,"target":34962,"byteStride":12},{"buffer":0,"byteOffset":2256,"byteLength":192,"target":34962,"byteStride":8},{"buffer":0,"byteOffset":2448,"byteLength":72,"target":34963},{"buffer":0,"byteOffset":2520,"byteLength":288,"target":34962,"byteStride":12},{"buffer":0,"byteOffset":2808,"byteLength":288,"target":34962,"byteStride":12},{"buffer":0,"byteOffset":3096,"byteLength":192,"target":34962,"byteStride":8},{"buffer":0,"byteOffset":3288,"byteLength":72,"target":34963},{"buffer":0,"byteOffset":3360,"byteLength":288,"target":34962,"byteStride":12},{"buffer":0,"byteOffset":3648,"byteLength":288,"target":34962,"byteStride":12},{"buffer":0,"byteOffset":3936,"byteLength":192,"target":34962,"byteStride":8},{"buffer":0,"byteOffset":4128,"byteLength":72,"target":34963},{"buffer":0,"byteOffset":4200,"byteLength":240,"target":34962,"byteStride":12},{"buffer":0,"byteOffset":4440,"byteLength":240,"target":34962,"byteStride":12},{"buffer":0,"byteOffset":4680,"byteLength":160,"target":34962,"byteStride":8},{"buffer":0,"byteOffset":4840,"byteLength":60,"target":34963},{"buffer":0,"byteOffset":4900,"byteLength":8},{"buffer":0,"byteOffset":4908,"byteLength":32},{"buffer":0,"byteOffset":4940,"byteLength":8},{"buffer":0,"byteOffset":4948,"byteLength":32},{"buffer":0,"byteOffset":4980,"byteLength":8},{"buffer":0,"byteOffset":4988,"byteLength":24},{"buffer":0,"byteOffset":5012,"byteLength":8},{"buffer":0,"byteOffset":5020,"byteLength":32},{"buffer":0,"byteOffset":5052,"byteLength":8},{"buffer":0,"byteOffset":5060,"byteLength":32},{"buffer":0,"byteOffset":5092,"byteLength":8},{"buffer":0,"byteOffset":5100,"byteLength":24}],"buffers":[{"byteLength":5124,"uri":"data:application/octet-stream;base64,"}],"accessors":[{"bufferView":0,"componentType":5126,"count":24,"max":[0.125,1.5,0.125],"min":[0,0.1875,0],"type":"VEC3"},{"bufferView":1,"componentType":5126,"count":24,"max":[1,1,1],"min":[-1,-1,-1],"type":"VEC3"},{"bufferView":2,"componentType":5126,"count":24,"max":[0.124755859375,0.812255859375],"min":[0.000244140625,0.453369140625],"type":"VEC2"},{"bufferView":3,"componentType":5123,"count":36,"max":[23],"min":[0],"type":"SCALAR"},{"bufferView":4,"componentType":5126,"count":24,"max":[0.25,1.125,0.125],"min":[-0.125,1,-0.375],"type":"VEC3"},{"bufferView":5,"componentType":5126,"count":24,"max":[1,1,1],"min":[-1,-1,-1],"type":"VEC3"},{"bufferView":6,"componentType":5126,"count":24,"max":[0.437255859375,0.437255859375],"min":[0.000244140625,0.281494140625],"type":"VEC2"},{"bufferView":7,"componentType":5123,"count":36,"max":[23],"min":[0],"type":"SCALAR"},{"bufferView":8,"componentType":5126,"count":24,"max":[0.046875,0.1875,0.0625],"min":[-0.046875,-0.25,-0.0625],"type":"VEC3"},{"bufferView":9,"componentType":5126,"count":24,"max":[1,1,1],"min":[-1,-1,-1],"type":"VEC3"},{"bufferView":10,"componentType":5126,"count":24,"max":[0.234130859375,0.593505859375],"min":[0.140869140625,0.453369140625],"type":"VEC2"},{"bufferView":11,"componentType":5123,"count":36,"max":[23],"min":[0],"type":"SCALAR"},{"bufferView":12,"componentType":5126,"count":24,"max":[0.25,1.375,0.125],"min":[-0.125,1,-0.5625],"type":"VEC3"},{"bufferView":13,"componentType":5126,"count":24,"max":[1,1,1],"min":[-1,-1,-1],"type":"VEC3"},{"bufferView":14,"componentType":5126,"count":24,"max":[0.53125,0.265625],"min":[0,0],"type":"VEC2"},{"bufferView":15,"componentType":5123,"count":36,"max":[23],"min":[0],"type":"SCALAR"},{"bufferView":16,"componentType":5126,"count":24,"max":[0.1875,0.1875,0.0000625000029685907],"min":[-0.1875,-0.1875,0],"type":"VEC3"},{"bufferView":17,"componentType":5126,"count":24,"max":[1,1,1],"min":[-1,-1,-1],"type":"VEC3"},{"bufferView":18,"componentType":5126,"count":24,"max":[0.671875,0.265625],"min":[0.171875,0.171875],"type":"VEC2"},{"bufferView":19,"componentType":5123,"count":36,"max":[23],"min":[0],"type":"SCALAR"},{"bufferView":20,"componentType":5126,"count":20,"max":[-0.125,1.375,-0.3125],"min":[-0.125,1,-0.5],"type":"VEC3"},{"bufferView":21,"componentType":5126,"count":20,"max":[1,0,0],"min":[-1,0,0],"type":"VEC3"},{"bufferView":22,"componentType":5126,"count":20,"max":[0.296875,0.546875],"min":[0,0],"type":"VEC2"},{"bufferView":23,"componentType":5123,"count":30,"max":[19],"min":[0],"type":"SCALAR"},{"bufferView":24,"componentType":5126,"count":2,"max":[0.1666666716337204],"min":[0.0416666679084301],"type":"SCALAR"},{"bufferView":25,"componentType":5126,"count":2,"max":[0,0,0,1],"min":[-0.9914448857307434,0,0,0.13052618503570557],"type":"VEC4"},{"bufferView":26,"componentType":5126,"count":2,"max":[0.125],"min":[0],"type":"SCALAR"},{"bufferView":27,"componentType":5126,"count":2,"max":[0.3826834261417389,0,0,1],"min":[0,0,0,0.9238795042037964],"type":"VEC4"},{"bufferView":28,"componentType":5126,"count":2,"max":[0.125],"min":[0],"type":"SCALAR"},{"bufferView":29,"componentType":5126,"count":2,"max":[-0.15625,0.23566941916942596,-0.2731694281101227],"min":[-0.15625,0.23566941916942596,-0.2731694281101227],"type":"VEC3"},{"bufferView":30,"componentType":5126,"count":2,"max":[0.1666666716337204],"min":[0.0416666679084301],"type":"SCALAR"},{"bufferView":31,"componentType":5126,"count":2,"max":[0,0,0,1],"min":[-0.9914448857307434,0,0,0.13052618503570557],"type":"VEC4"},{"bufferView":32,"componentType":5126,"count":2,"max":[0.125],"min":[0],"type":"SCALAR"},{"bufferView":33,"componentType":5126,"count":2,"max":[0.3826834261417389,0,0,1],"min":[0,0,0,0.9238795042037964],"type":"VEC4"},{"bufferView":34,"componentType":5126,"count":2,"max":[0.125],"min":[0],"type":"SCALAR"},{"bufferView":35,"componentType":5126,"count":2,"max":[-0.15625,0.23566941916942596,-0.2731694281101227],"min":[-0.15625,0.23566941916942596,-0.2731694281101227],"type":"VEC3"}],"materials":[{"pbrMetallicRoughness":{"metallicFactor":0,"roughnessFactor":1,"baseColorTexture":{"index":0}},"alphaMode":"MASK","alphaCutoff":0.05,"doubleSided":true}],"textures":[{"sampler":0,"source":0,"name":"mailbox_2"}],"samplers":[{"magFilter":9728,"minFilter":9728,"wrapS":33071,"wrapT":33071}],"images":[{"mimeType":"image/png","uri":"data:image/png;base64,"}],"meshes":[{"primitives":[{"mode":4,"attributes":{"POSITION":0,"NORMAL":1,"TEXCOORD_0":2},"indices":3,"material":0}]},{"primitives":[{"mode":4,"attributes":{"POSITION":4,"NORMAL":5,"TEXCOORD_0":6},"indices":7,"material":0}]},{"primitives":[{"mode":4,"attributes":{"POSITION":8,"NORMAL":9,"TEXCOORD_0":10},"indices":11,"material":0}]},{"primitives":[{"mode":4,"attributes":{"POSITION":12,"NORMAL":13,"TEXCOORD_0":14},"indices":15,"material":0}]},{"primitives":[{"mode":4,"attributes":{"POSITION":16,"NORMAL":17,"TEXCOORD_0":18},"indices":19,"material":0}]},{"primitives":[{"mode":4,"attributes":{"POSITION":20,"NORMAL":21,"TEXCOORD_0":22},"indices":23,"material":0}]}],"animations":[{"name":"interact","samplers":[{"input":24,"output":25,"interpolation":"LINEAR"},{"input":26,"output":27,"interpolation":"LINEAR"},{"input":28,"output":29,"interpolation":"LINEAR"}],"channels":[{"sampler":0,"target":{"node":5,"path":"rotation"}},{"sampler":1,"target":{"node":7,"path":"rotation"}},{"sampler":2,"target":{"node":7,"path":"translation"}}]},{"name":"interact2","samplers":[{"input":30,"output":31,"interpolation":"LINEAR"},{"input":32,"output":33,"interpolation":"LINEAR"},{"input":34,"output":35,"interpolation":"LINEAR"}],"channels":[{"sampler":0,"target":{"node":5,"path":"rotation"}},{"sampler":1,"target":{"node":7,"path":"rotation"}},{"sampler":2,"target":{"node":7,"path":"translation"}}]}]}