{"asset":{"version":"2.0","generator":"Blockbench 4.12.4 glTF exporter"},"scenes":[{"nodes":[24],"name":"blockbench_export"}],"scene":0,"nodes":[{"translation":[0.4140625,0.9999781249999999,0.468735625],"name":"cube","mesh":0},{"rotation":[0,0,0.19509032201612825,0.9807852804032304],"translation":[1.44297875,0.458658125,0.468735625],"name":"cube","mesh":1},{"rotation":[0,0,0.3826834323650898,0.9238795325112867],"translation":[1.3670075,0.50925875,0.468735625],"name":"cube","mesh":2},{"rotation":[0,0,-0.19509032201612825,0.9807852804032304],"translation":[-0.44297875,0.458658125,0.468735625],"name":"cube","mesh":3},{"rotation":[0,0,-0.3826834323650898,0.9238795325112867],"translation":[-0.3670075,0.50925875,0.468735625],"name":"cube","mesh":4},{"rotation":[0,0,0.19509032201612825,0.9807852804032304],"translation":[-0.848793125,0.349353125,0.382798125],"name":"cube","mesh":5},{"rotation":[0,0,0.19509032201612825,0.9807852804032304],"translation":[-0.929984375,0.323115,0.859360625],"name":"cube","mesh":6},{"rotation":[0,0,0.19509032201612825,0.9807852804032304],"translation":[-0.929984375,0.323115,-0.093764375],"name":"cube","mesh":7},{"rotation":[0,0,-0.19509032201612825,0.9807852804032304],"translation":[1.848793125,0.349353125,0.382798125],"name":"cube","mesh":8},{"rotation":[0,0,-0.19509032201612825,0.9807852804032304],"translation":[1.929984375,0.323115,0.859360625],"name":"cube","mesh":9},{"rotation":[0,0,-0.19509032201612825,0.9807852804032304],"translation":[1.929984375,0.323115,-0.093764375],"name":"cube","mesh":10},{"translation":[-0.1875,0.34374375,0.890610625],"name":"cube","mesh":11},{"translation":[0.4921875,1.18749375,0.937485625],"name":"cube","mesh":12},{"translation":[0.4921875,1.18749375,-0.187485625],"name":"cube","mesh":13},{"translation":[0.40625,1.21874375,0.382798125],"name":"cube","mesh":14},{"translation":[1.75,1.21874375,0.382798125],"name":"cube","mesh":15},{"translation":[1.18747125,0.34374375,0.890610625],"name":"cube","mesh":16},{"translation":[-0.1875,0.34374375,-0.140639375],"name":"cube","mesh":17},{"translation":[1.18747125,0.34374375,-0.140639375],"name":"cube","mesh":18},{"translation":[0.4140625,0.9999781249999999,0.468735625],"name":"cube inverted","mesh":19},{"translation":[-1.0625,0.820149375,-0.606445],"name":"group"},{"translation":[-2.125,-1.945173125,-1.5184975],"name":"group"},{"translation":[-1.0625,0.820149375,-0.606445],"name":"group","children":[21]},{"translation":[0.5,0.5,0.5],"name":"group","children":[20,22]},{"children":[0,1,2,3,4,5,6,7,8,9,10,11,12,13,14,15,16,17,18,19,23]}],"bufferViews":[{"buffer":0,"byteOffset":0,"byteLength":288,"target":34962,"byteStride":12},{"buffer":0,"byteOffset":288,"byteLength":288,"target":34962,"byteStride":12},{"buffer":0,"byteOffset":576,"byteLength":192,"target":34962,"byteStride":8},{"buffer":0,"byteOffset":768,"byteLength":36,"target":34963},{"buffer":0,"byteOffset":804,"byteLength":288,"target":34962,"byteStride":12},{"buffer":0,"byteOffset":1092,"byteLength":288,"target":34962,"byteStride":12},{"buffer":0,"byteOffset":1380,"byteLength":192,"target":34962,"byteStride":8},{"buffer":0,"byteOffset":1572,"byteLength":24,"target":34963},{"buffer":0,"byteOffset":1596,"byteLength":288,"target":34962,"byteStride":12},{"buffer":0,"byteOffset":1884,"byteLength":288,"target":34962,"byteStride":12},{"buffer":0,"byteOffset":2172,"byteLength":192,"target":34962,"byteStride":8},{"buffer":0,"byteOffset":2364,"byteLength":24,"target":34963},{"buffer":0,"byteOffset":2388,"byteLength":288,"target":34962,"byteStride":12},{"buffer":0,"byteOffset":2676,"byteLength":288,"target":34962,"byteStride":12},{"buffer":0,"byteOffset":2964,"byteLength":192,"target":34962,"byteStride":8},{"buffer":0,"byteOffset":3156,"byteLength":24,"target":34963},{"buffer":0,"byteOffset":3180,"byteLength":288,"target":34962,"byteStride":12},{"buffer":0,"byteOffset":3468,"byteLength":288,"target":34962,"byteStride":12},{"buffer":0,"byteOffset":3756,"byteLength":192,"target":34962,"byteStride":8},{"buffer":0,"byteOffset":3948,"byteLength":24,"target":34963},{"buffer":0,"byteOffset":3972,"byteLength":288,"target":34962,"byteStride":12},{"buffer":0,"byteOffset":4260,"byteLength":288,"target":34962,"byteStride":12},{"buffer":0,"byteOffset":4548,"byteLength":192,"target":34962,"byteStride":8},{"buffer":0,"byteOffset":4740,"byteLength":24,"target":34963},{"buffer":0,"byteOffset":4764,"byteLength":288,"target":34962,"byteStride":12},{"buffer":0,"byteOffset":5052,"byteLength":288,"target":34962,"byteStride":12},{"buffer":0,"byteOffset":5340,"byteLength":192,"target":34962,"byteStride":8},{"buffer":0,"byteOffset":5532,"byteLength":72,"target":34963},{"buffer":0,"byteOffset":5604,"byteLength":288,"target":34962,"byteStride":12},{"buffer":0,"byteOffset":5892,"byteLength":288,"target":34962,"byteStride":12},{"buffer":0,"byteOffset":6180,"byteLength":192,"target":34962,"byteStride":8},{"buffer":0,"byteOffset":6372,"byteLength":72,"target":34963},{"buffer":0,"byteOffset":6444,"byteLength":288,"target":34962,"byteStride":12},{"buffer":0,"byteOffset":6732,"byteLength":288,"target":34962,"byteStride":12},{"buffer":0,"byteOffset":7020,"byteLength":192,"target":34962,"byteStride":8},{"buffer":0,"byteOffset":7212,"byteLength":24,"target":34963},{"buffer":0,"byteOffset":7236,"byteLength":288,"target":34962,"byteStride":12},{"buffer":0,"byteOffset":7524,"byteLength":288,"target":34962,"byteStride":12},{"buffer":0,"byteOffset":7812,"byteLength":192,"target":34962,"byteStride":8},{"buffer":0,"byteOffset":8004,"byteLength":72,"target":34963},{"buffer":0,"byteOffset":8076,"byteLength":288,"target":34962,"byteStride":12},{"buffer":0,"byteOffset":8364,"byteLength":288,"target":34962,"byteStride":12},{"buffer":0,"byteOffset":8652,"byteLength":192,"target":34962,"byteStride":8},{"buffer":0,"byteOffset":8844,"byteLength":72,"target":34963},{"buffer":0,"byteOffset":8916,"byteLength":288,"target":34962,"byteStride":12},{"buffer":0,"byteOffset":9204,"byteLength":288,"target":34962,"byteStride":12},{"buffer":0,"byteOffset":9492,"byteLength":192,"target":34962,"byteStride":8},{"buffer":0,"byteOffset":9684,"byteLength":60,"target":34963},{"buffer":0,"byteOffset":9744,"byteLength":288,"target":34962,"byteStride":12},{"buffer":0,"byteOffset":10032,"byteLength":288,"target":34962,"byteStride":12},{"buffer":0,"byteOffset":10320,"byteLength":192,"target":34962,"byteStride":8},{"buffer":0,"byteOffset":10512,"byteLength":24,"target":34963},{"buffer":0,"byteOffset":10536,"byteLength":288,"target":34962,"byteStride":12},{"buffer":0,"byteOffset":10824,"byteLength":288,"target":34962,"byteStride":12},{"buffer":0,"byteOffset":11112,"byteLength":192,"target":34962,"byteStride":8},{"buffer":0,"byteOffset":11304,"byteLength":24,"target":34963},{"buffer":0,"byteOffset":11328,"byteLength":288,"target":34962,"byteStride":12},{"buffer":0,"byteOffset":11616,"byteLength":288,"target":34962,"byteStride":12},{"buffer":0,"byteOffset":11904,"byteLength":192,"target":34962,"byteStride":8},{"buffer":0,"byteOffset":12096,"byteLength":36,"target":34963},{"buffer":0,"byteOffset":12132,"byteLength":288,"target":34962,"byteStride":12},{"buffer":0,"byteOffset":12420,"byteLength":288,"target":34962,"byteStride":12},{"buffer":0,"byteOffset":12708,"byteLength":192,"target":34962,"byteStride":8},{"buffer":0,"byteOffset":12900,"byteLength":36,"target":34963},{"buffer":0,"byteOffset":12936,"byteLength":288,"target":34962,"byteStride":12},{"buffer":0,"byteOffset":13224,"byteLength":288,"target":34962,"byteStride":12},{"buffer":0,"byteOffset":13512,"byteLength":192,"target":34962,"byteStride":8},{"buffer":0,"byteOffset":13704,"byteLength":60,"target":34963},{"buffer":0,"byteOffset":13764,"byteLength":288,"target":34962,"byteStride":12},{"buffer":0,"byteOffset":14052,"byteLength":288,"target":34962,"byteStride":12},{"buffer":0,"byteOffset":14340,"byteLength":192,"target":34962,"byteStride":8},{"buffer":0,"byteOffset":14532,"byteLength":60,"target":34963},{"buffer":0,"byteOffset":14592,"byteLength":288,"target":34962,"byteStride":12},{"buffer":0,"byteOffset":14880,"byteLength":288,"target":34962,"byteStride":12},{"buffer":0,"byteOffset":15168,"byteLength":192,"target":34962,"byteStride":8},{"buffer":0,"byteOffset":15360,"byteLength":60,"target":34963},{"buffer":0,"byteOffset":15420,"byteLength":288,"target":34962,"byteStride":12},{"buffer":0,"byteOffset":15708,"byteLength":288,"target":34962,"byteStride":12},{"buffer":0,"byteOffset":15996,"byteLength":192,"target":34962,"byteStride":8},{"buffer":0,"byteOffset":16188,"byteLength":36,"target":34963}],"buffers":[{"byteLength":16224,"uri":"data:application/octet-stream;base64,"}],"accessors":[{"bufferView":0,"componentType":5126,"count":24,"max":[0.8046875,0,0.5],"min":[-0.6328125,-0.3125,-0.6875],"type":"VEC3"},{"bufferView":1,"componentType":5126,"count":24,"max":[1,1,1],"min":[-1,-1,-1],"type":"VEC3"},{"bufferView":2,"componentType":5126,"count":24,"max":[1,1],"min":[0,0],"type":"VEC2"},{"bufferView":3,"componentType":5123,"count":18,"max":[23],"min":[8],"type":"SCALAR"},{"bufferView":4,"componentType":5126,"count":24,"max":[0.0000625000029685907,0.5859375,0.5],"min":[0,-0.046875,-0.6875],"type":"VEC3"},{"bufferView":5,"componentType":5126,"count":24,"max":[1,1,1],"min":[-1,-1,-1],"type":"VEC3"},{"bufferView":6,"componentType":5126,"count":24,"max":[1,1],"min":[0,0],"type":"VEC2"},{"bufferView":7,"componentType":5123,"count":12,"max":[7],"min":[0],"type":"SCALAR"},{"bufferView":8,"componentType":5126,"count":24,"max":[0.0000625000029685907,-0.1328125,0.5],"min":[0,-0.5078125,-0.6875],"type":"VEC3"},{"bufferView":9,"componentType":5126,"count":24,"max":[1,1,1],"min":[-1,-1,-1],"type":"VEC3"},{"bufferView":10,"componentType":5126,"count":24,"max":[1,1],"min":[0,0],"type":"VEC2"},{"bufferView":11,"componentType":5123,"count":12,"max":[7],"min":[0],"type":"SCALAR"},{"bufferView":12,"componentType":5126,"count":24,"max":[0.0000625000029685907,0.5859375,0.5],"min":[0,-0.046875,-0.6875],"type":"VEC3"},{"bufferView":13,"componentType":5126,"count":24,"max":[1,1,1],"min":[-1,-1,-1],"type":"VEC3"},{"bufferView":14,"componentType":5126,"count":24,"max":[1,1],"min":[0,0],"type":"VEC2"},{"bufferView":15,"componentType":5123,"count":12,"max":[7],"min":[0],"type":"SCALAR"},{"bufferView":16,"componentType":5126,"count":24,"max":[0.0000625000029685907,-0.1328125,0.5],"min":[0,-0.5078125,-0.6875],"type":"VEC3"},{"bufferView":17,"componentType":5126,"count":24,"max":[1,1,1],"min":[-1,-1,-1],"type":"VEC3"},{"bufferView":18,"componentType":5126,"count":24,"max":[1,1],"min":[0,0],"type":"VEC2"},{"bufferView":19,"componentType":5123,"count":12,"max":[7],"min":[0],"type":"SCALAR"},{"bufferView":20,"componentType":5126,"count":24,"max":[0.1328125,-0.1875,0.5234375],"min":[-0.1328125,-0.3125,-0.5234375],"type":"VEC3"},{"bufferView":21,"componentType":5126,"count":24,"max":[1,1,1],"min":[-1,-1,-1],"type":"VEC3"},{"bufferView":22,"componentType":5126,"count":24,"max":[1,1],"min":[0,0],"type":"VEC2"},{"bufferView":23,"componentType":5123,"count":12,"max":[15],"min":[8],"type":"SCALAR"},{"bufferView":24,"componentType":5126,"count":24,"max":[0.03125,-0.1328125,0.03125],"min":[-0.03125,-0.3671875,-0.03125],"type":"VEC3"},{"bufferView":25,"componentType":5126,"count":24,"max":[1,1,1],"min":[-1,-1,-1],"type":"VEC3"},{"bufferView":26,"componentType":5126,"count":24,"max":[0.359375,0.09765625],"min":[0.34375,0],"type":"VEC2"},{"bufferView":27,"componentType":5123,"count":36,"max":[23],"min":[0],"type":"SCALAR"},{"bufferView":28,"componentType":5126,"count":24,"max":[0.03125,-0.1328125,0.03125],"min":[-0.03125,-0.3671875,-0.03125],"type":"VEC3"},{"bufferView":29,"componentType":5126,"count":24,"max":[1,1,1],"min":[-1,-1,-1],"type":"VEC3"},{"bufferView":30,"componentType":5126,"count":24,"max":[0.359375,0.09765625],"min":[0.34375,0],"type":"VEC2"},{"bufferView":31,"componentType":5123,"count":36,"max":[23],"min":[0],"type":"SCALAR"},{"bufferView":32,"componentType":5126,"count":24,"max":[0.1328125,-0.1875,0.5234375],"min":[-0.1328125,-0.3125,-0.5234375],"type":"VEC3"},{"bufferView":33,"componentType":5126,"count":24,"max":[1,1,1],"min":[-1,-1,-1],"type":"VEC3"},{"bufferView":34,"componentType":5126,"count":24,"max":[1,1],"min":[0,0],"type":"VEC2"},{"bufferView":35,"componentType":5123,"count":12,"max":[15],"min":[8],"type":"SCALAR"},{"bufferView":36,"componentType":5126,"count":24,"max":[0.03125,-0.1328125,0.03125],"min":[-0.03125,-0.3671875,-0.03125],"type":"VEC3"},{"bufferView":37,"componentType":5126,"count":24,"max":[1,1,1],"min":[-1,-1,-1],"type":"VEC3"},{"bufferView":38,"componentType":5126,"count":24,"max":[0.359375,0.09765625],"min":[0.34375,0],"type":"VEC2"},{"bufferView":39,"componentType":5123,"count":36,"max":[23],"min":[0],"type":"SCALAR"},{"bufferView":40,"componentType":5126,"count":24,"max":[0.03125,-0.1328125,0.03125],"min":[-0.03125,-0.3671875,-0.03125],"type":"VEC3"},{"bufferView":41,"componentType":5126,"count":24,"max":[1,1,1],"min":[-1,-1,-1],"type":"VEC3"},{"bufferView":42,"componentType":5126,"count":24,"max":[0.359375,0.09765625],"min":[0.34375,0],"type":"VEC2"},{"bufferView":43,"componentType":5123,"count":36,"max":[23],"min":[0],"type":"SCALAR"},{"bufferView":44,"componentType":5126,"count":24,"max":[0.0625,0.65625,0.078125],"min":[-0.03125,-0.34375,-0.015625],"type":"VEC3"},{"bufferView":45,"componentType":5126,"count":24,"max":[1,1,1],"min":[-1,-1,-1],"type":"VEC3"},{"bufferView":46,"componentType":5126,"count":24,"max":[1,1],"min":[0,0],"type":"VEC2"},{"bufferView":47,"componentType":5123,"count":30,"max":[23],"min":[0],"type":"SCALAR"},{"bufferView":48,"componentType":5126,"count":24,"max":[0.6328125,-0.15625,0.03125],"min":[-0.6171875,-0.3125,-0.0625],"type":"VEC3"},{"bufferView":49,"componentType":5126,"count":24,"max":[1,1,1],"min":[-1,-1,-1],"type":"VEC3"},{"bufferView":50,"componentType":5126,"count":24,"max":[1,1],"min":[0,0],"type":"VEC2"},{"bufferView":51,"componentType":5123,"count":12,"max":[23],"min":[12],"type":"SCALAR"},{"bufferView":52,"componentType":5126,"count":24,"max":[0.6328125,-0.15625,0.0625],"min":[-0.6171875,-0.3125,-0.03125],"type":"VEC3"},{"bufferView":53,"componentType":5126,"count":24,"max":[1,1,1],"min":[-1,-1,-1],"type":"VEC3"},{"bufferView":54,"componentType":5126,"count":24,"max":[1,1],"min":[0,0],"type":"VEC2"},{"bufferView":55,"componentType":5123,"count":12,"max":[19],"min":[12],"type":"SCALAR"},{"bufferView":56,"componentType":5126,"count":24,"max":[-0.53125,-0.1875,0.4921875],"min":[-0.625,-0.34375,-0.5078125],"type":"VEC3"},{"bufferView":57,"componentType":5126,"count":24,"max":[1,1,1],"min":[-1,-1,-1],"type":"VEC3"},{"bufferView":58,"componentType":5126,"count":24,"max":[1,1],"min":[0,0],"type":"VEC2"},{"bufferView":59,"componentType":5123,"count":18,"max":[15],"min":[0],"type":"SCALAR"},{"bufferView":60,"componentType":5126,"count":24,"max":[-0.53125,-0.1875,0.4921875],"min":[-0.625,-0.34375,-0.5078125],"type":"VEC3"},{"bufferView":61,"componentType":5126,"count":24,"max":[1,1,1],"min":[-1,-1,-1],"type":"VEC3"},{"bufferView":62,"componentType":5126,"count":24,"max":[1,1],"min":[0,0],"type":"VEC2"},{"bufferView":63,"componentType":5123,"count":18,"max":[15],"min":[0],"type":"SCALAR"},{"bufferView":64,"componentType":5126,"count":24,"max":[0.03125,0.65625,0.078125],"min":[-0.0625,-0.34375,-0.015625],"type":"VEC3"},{"bufferView":65,"componentType":5126,"count":24,"max":[1,1,1],"min":[-1,-1,-1],"type":"VEC3"},{"bufferView":66,"componentType":5126,"count":24,"max":[1,1],"min":[0,0],"type":"VEC2"},{"bufferView":67,"componentType":5123,"count":30,"max":[23],"min":[0],"type":"SCALAR"},{"bufferView":68,"componentType":5126,"count":24,"max":[0.0625,0.65625,0.015625],"min":[-0.03125,-0.34375,-0.078125],"type":"VEC3"},{"bufferView":69,"componentType":5126,"count":24,"max":[1,1,1],"min":[-1,-1,-1],"type":"VEC3"},{"bufferView":70,"componentType":5126,"count":24,"max":[1,1],"min":[0,0],"type":"VEC2"},{"bufferView":71,"componentType":5123,"count":30,"max":[23],"min":[0],"type":"SCALAR"},{"bufferView":72,"componentType":5126,"count":24,"max":[0.03125,0.65625,0.015625],"min":[-0.0625,-0.34375,-0.078125],"type":"VEC3"},{"bufferView":73,"componentType":5126,"count":24,"max":[1,1,1],"min":[-1,-1,-1],"type":"VEC3"},{"bufferView":74,"componentType":5126,"count":24,"max":[1,1],"min":[0,0],"type":"VEC2"},{"bufferView":75,"componentType":5123,"count":30,"max":[23],"min":[0],"type":"SCALAR"},{"bufferView":76,"componentType":5126,"count":24,"max":[0.8046875,0,0.5],"min":[-0.6328125,-0.3125,-0.6875],"type":"VEC3"},{"bufferView":77,"componentType":5126,"count":24,"max":[1,1,1],"min":[-1,-1,-1],"type":"VEC3"},{"bufferView":78,"componentType":5126,"count":24,"max":[1,1],"min":[0,0],"type":"VEC2"},{"bufferView":79,"componentType":5123,"count":18,"max":[23],"min":[12],"type":"SCALAR"}],"materials":[{"pbrMetallicRoughness":{"metallicFactor":0,"roughnessFactor":1,"baseColorTexture":{"index":0}},"alphaMode":"MASK","alphaCutoff":0.05}],"textures":[{"sampler":0,"source":0}],"samplers":[{"magFilter":9728,"minFilter":9728,"wrapS":33071,"wrapT":33071}],"images":[{"mimeType":"image/png","uri":"data:image/png;base64,"}],"meshes":[{"primitives":[{"mode":4,"attributes":{"POSITION":0,"NORMAL":1,"TEXCOORD_0":2},"indices":3,"material":0}]},{"primitives":[{"mode":4,"attributes":{"POSITION":4,"NORMAL":5,"TEXCOORD_0":6},"indices":7,"material":0}]},{"primitives":[{"mode":4,"attributes":{"POSITION":8,"NORMAL":9,"TEXCOORD_0":10},"indices":11,"material":0}]},{"primitives":[{"mode":4,"attributes":{"POSITION":12,"NORMAL":13,"TEXCOORD_0":14},"indices":15,"material":0}]},{"primitives":[{"mode":4,"attributes":{"POSITION":16,"NORMAL":17,"TEXCOORD_0":18},"indices":19,"material":0}]},{"primitives":[{"mode":4,"attributes":{"POSITION":20,"NORMAL":21,"TEXCOORD_0":22},"indices":23,"material":0}]},{"primitives":[{"mode":4,"attributes":{"POSITION":24,"NORMAL":25,"TEXCOORD_0":26},"indices":27,"material":0}]},{"primitives":[{"mode":4,"attributes":{"POSITION":28,"NORMAL":29,"TEXCOORD_0":30},"indices":31,"material":0}]},{"primitives":[{"mode":4,"attributes":{"POSITION":32,"NORMAL":33,"TEXCOORD_0":34},"indices":35,"material":0}]},{"primitives":[{"mode":4,"attributes":{"POSITION":36,"NORMAL":37,"TEXCOORD_0":38},"indices":39,"material":0}]},{"primitives":[{"mode":4,"attributes":{"POSITION":40,"NORMAL":41,"TEXCOORD_0":42},"indices":43,"material":0}]},{"primitives":[{"mode":4,"attributes":{"POSITION":44,"NORMAL":45,"TEXCOORD_0":46},"indices":47,"material":0}]},{"primitives":[{"mode":4,"attributes":{"POSITION":48,"NORMAL":49,"TEXCOORD_0":50},"indices":51,"material":0}]},{"primitives":[{"mode":4,"attributes":{"POSITION":52,"NORMAL":53,"TEXCOORD_0":54},"indices":55,"material":0}]},{"primitives":[{"mode":4,"attributes":{"POSITION":56,"NORMAL":57,"TEXCOORD_0":58},"indices":59,"material":0}]},{"primitives":[{"mode":4,"attributes":{"POSITION":60,"NORMAL":61,"TEXCOORD_0":62},"indices":63,"material":0}]},{"primitives":[{"mode":4,"attributes":{"POSITION":64,"NORMAL":65,"TEXCOORD_0":66},"indices":67,"material":0}]},{"primitives":[{"mode":4,"attributes":{"POSITION":68,"NORMAL":69,"TEXCOORD_0":70},"indices":71,"material":0}]},{"primitives":[{"mode":4,"attributes":{"POSITION":72,"NORMAL":73,"TEXCOORD_0":74},"indices":75,"material":0}]},{"primitives":[{"mode":4,"attributes":{"POSITION":76,"NORMAL":77,"TEXCOORD_0":78},"indices":79,"material":0}]}]}