{
  "asset": {
    "generator": "glTF-Transform v4.1.1",
    "version": "2.0"
  },
  "accessors": [
    {
      "type": "SCALAR",
      "componentType": 5126,
      "count": 2,
      "max": [
        0.1666666716337204
      ],
      "min": [
        0.0416666679084301
      ],
      "bufferView": 0,
      "byteOffset": 0
    },
    {
      "type": "VEC4",
      "componentType": 5126,
      "count": 2,
      "bufferView": 0,
      "byteOffset": 8
    },
    {
      "type": "SCALAR",
      "componentType": 5126,
      "count": 2,
      "max": [
        0.125
      ],
      "min": [
        0
      ],
      "bufferView": 0,
      "byteOffset": 40
    },
    {
      "type": "VEC4",
      "componentType": 5126,
      "count": 2,
      "bufferView": 0,
      "byteOffset": 48
    },
    {
      "type": "VEC3",
      "componentType": 5126,
      "count": 2,
      "bufferView": 0,
      "byteOffset": 80
    },
    {
      "type": "VEC4",
      "componentType": 5126,
      "count": 2,
      "bufferView": 0,
      "byteOffset": 104
    },
    {
      "type": "VEC4",
      "componentType": 5126,
      "count": 2,
      "bufferView": 0,
      "byteOffset": 136
    },
    {
      "type": "SCALAR",
      "componentType": 5123,
      "count": 36,
      "bufferView": 1,
      "byteOffset": 0
    },
    {
      "type": "SCALAR",
      "componentType": 5123,
      "count": 30,
      "bufferView": 1,
      "byteOffset": 72
    },
    {
      "type": "VEC3",
      "componentType": 5126,
      "count": 24,
      "max": [
        0.125,
        1.5,
        0.125
      ],
      "min": [
        0,
        0.1875,
        0
      ],
      "bufferView": 2,
      "byteOffset": 0
    },
    {
      "type": "VEC3",
      "componentType": 5126,
      "count": 24,
      "bufferView": 2,
      "byteOffset": 12
    },
    {
      "type": "VEC2",
      "componentType": 5126,
      "count": 24,
      "bufferView": 2,
      "byteOffset": 24
    },
    {
      "type": "VEC3",
      "componentType": 5126,
      "count": 24,
      "max": [
        0.25,
        1.125,
        0.125
      ],
      "min": [
        -0.125,
        1,
        -0.375
      ],
      "bufferView": 3,
      "byteOffset": 0
    },
    {
      "type": "VEC2",
      "componentType": 5126,
      "count": 24,
      "bufferView": 3,
      "byteOffset": 12
    },
    {
      "type": "VEC3",
      "componentType": 5126,
      "count": 24,
      "max": [
        0.046875,
        0.1875,
        0.0625
      ],
      "min": [
        -0.046875,
        -0.25,
        -0.0625
      ],
      "bufferView": 4,
      "byteOffset": 0
    },
    {
      "type": "VEC2",
      "componentType": 5126,
      "count": 24,
      "bufferView": 4,
      "byteOffset": 12
    },
    {
      "type": "VEC3",
      "componentType": 5126,
      "count": 24,
      "max": [
        0.25,
        1.375,
        0.125
      ],
      "min": [
        -0.125,
        1,
        -0.5625
      ],
      "bufferView": 5,
      "byteOffset": 0
    },
    {
      "type": "VEC2",
      "componentType": 5126,
      "count": 24,
      "bufferView": 5,
      "byteOffset": 12
    },
    {
      "type": "VEC3",
      "componentType": 5126,
      "count": 24,
      "max": [
        0.1875,
        0.1875,
        0.0000625000029685907
      ],
      "min": [
        -0.1875,
        -0.1875,
        0
      ],
      "bufferView": 6,
      "byteOffset": 0
    },
    {
      "type": "VEC2",
      "componentType": 5126,
      "count": 24,
      "bufferView": 6,
      "byteOffset": 12
    },
    {
      "type": "VEC3",
      "componentType": 5126,
      "count": 14,
      "max": [
        -0.125,
        1.375,
        -0.3125
      ],
      "min": [
        -0.125,
        1,
        -0.5
      ],
      "bufferView": 7,
      "byteOffset": 0
    },
    {
      "type": "VEC3",
      "componentType": 5126,
      "count": 14,
      "bufferView": 7,
      "byteOffset": 12
    },
    {
      "type": "VEC2",
      "componentType": 5126,
      "count": 14,
      "bufferView": 7,
      "byteOffset": 24
    }
  ],
  "bufferViews": [
    {
      "buffer": 0,
      "byteOffset": 0,
      "byteLength": 168
    },
    {
      "buffer": 0,
      "byteOffset": 168,
      "byteLength": 132,
      "target": 34963
    },
    {
      "buffer": 0,
      "byteOffset": 300,
      "byteLength": 768,
      "byteStride": 32,
      "target": 34962
    },
    {
      "buffer": 0,
      "byteOffset": 1068,
      "byteLength": 480,
      "byteStride": 20,
      "target": 34962
    },
    {
      "buffer": 0,
      "byteOffset": 1548,
      "byteLength": 480,
      "byteStride": 20,
      "target": 34962
    },
    {
      "buffer": 0,
      "byteOffset": 2028,
      "byteLength": 480,
      "byteStride": 20,
      "target": 34962
    },
    {
      "buffer": 0,
      "byteOffset": 2508,
      "byteLength": 480,
      "byteStride": 20,
      "target": 34962
    },
    {
      "buffer": 0,
      "byteOffset": 2988,
      "byteLength": 448,
      "byteStride": 32,
      "target": 34962
    }
  ],
  "samplers": [
    {
      "magFilter": 9728,
      "minFilter": 9728,
      "wrapS": 33071,
      "wrapT": 33071
    }
  ],
  "textures": [
    {
      "source": 0,
      "sampler": 0
    }
  ],
  "images": [
    {
      "mimeType": "image/png",
      "uri": "baseColor.png"
    }
  ],
  "buffers": [
    {
      "uri": "mailbox-2-named-nodes.bin",
      "byteLength": 3436
    }
  ],
  "materials": [
    {
      "alphaMode": "MASK",
      "alphaCutoff": 0.05,
      "doubleSided": true,
      "pbrMetallicRoughness": {
        "metallicFactor": 0,
        "baseColorTexture": {
          "index": 0
        }
      }
    }
  ],
  "meshes": [
    {
      "primitives": [
        {
          "attributes": {
            "POSITION": 9,
            "NORMAL": 10,
            "TEXCOORD_0": 11
          },
          "mode": 4,
          "material": 0,
          "indices": 7
        }
      ]
    },
    {
      "primitives": [
        {
          "attributes": {
            "POSITION": 12,
            "TEXCOORD_0": 13,
            "NORMAL": 10
          },
          "mode": 4,
          "material": 0,
          "indices": 7
        }
      ]
    },
    {
      "primitives": [
        {
          "attributes": {
            "POSITION": 14,
            "TEXCOORD_0": 15,
            "NORMAL": 10
          },
          "mode": 4,
          "material": 0,
          "indices": 7
        }
      ]
    },
    {
      "primitives": [
        {
          "attributes": {
            "POSITION": 16,
            "TEXCOORD_0": 17,
            "NORMAL": 10
          },
          "mode": 4,
          "material": 0,
          "indices": 7
        }
      ]
    },
    {
      "primitives": [
        {
          "attributes": {
            "POSITION": 18,
            "TEXCOORD_0": 19,
            "NORMAL": 10
          },
          "mode": 4,
          "material": 0,
          "indices": 7
        }
      ]
    },
    {
      "primitives": [
        {
          "attributes": {
            "POSITION": 20,
            "NORMAL": 21,
            "TEXCOORD_0": 22
          },
          "mode": 4,
          "material": 0,
          "indices": 8
        }
      ]
    }
  ],
  "nodes": [
    {
      "name": "cube",
      "translation": [
        -0.0625,
        -0.1875,
        -0.0625
      ],
      "mesh": 0
    },
    {
      "name": "cube",
      "translation": [
        -0.0625,
        -0.25,
        -0.125
      ],
      "mesh": 1
    },
    {
      "name": "cube",
      "translation": [
        0,
        0.6875,
        -0.1875
      ],
      "rotation": [
        -0.3826834323650898,
        0,
        0,
        0.9238795325112867
      ],
      "mesh": 2
    },
    {
      "name": "cube",
      "translation": [
        -0.0625,
        -0.125,
        -0.125
      ],
      "mesh": 3
    },
    {
      "name": "cube",
      "translation": [
        0,
        0.1875,
        0
      ],
      "mesh": 4
    },
    {
      "name": "door",
      "translation": [
        0.043750000000000004,
        -0.014330582617584131,
        -0.4294194173824159
      ],
      "children": [
        4
      ]
    },
    {
      "name": "cube",
      "translation": [
        0.125,
        -1.0625000000000009,
        0.40624999999999967
      ],
      "mesh": 5
    },
    {
      "name": "lever",
      "translation": [
        -0.15624999999999997,
        0.23566941738241676,
        -0.27316941738241557
      ],
      "children": [
        6
      ]
    },
    {
      "name": "root",
      "translation": [
        -0.043750000000000004,
        0.8893305826175841,
        -0.2580805826175841
      ],
      "children": [
        5,
        7
      ]
    }
  ],
  "animations": [
    {
      "name": "interact",
      "samplers": [
        {
          "input": 0,
          "output": 1,
          "interpolation": "LINEAR"
        },
        {
          "input": 2,
          "output": 3,
          "interpolation": "LINEAR"
        },
        {
          "input": 2,
          "output": 4,
          "interpolation": "LINEAR"
        }
      ],
      "channels": [
        {
          "sampler": 0,
          "target": {
            "node": 5,
            "path": "rotation"
          }
        },
        {
          "sampler": 1,
          "target": {
            "node": 7,
            "path": "rotation"
          }
        },
        {
          "sampler": 2,
          "target": {
            "node": 7,
            "path": "translation"
          }
        }
      ]
    },
    {
      "name": "interact2",
      "samplers": [
        {
          "input": 0,
          "output": 5,
          "interpolation": "LINEAR"
        },
        {
          "input": 2,
          "output": 6,
          "interpolation": "LINEAR"
        },
        {
          "input": 2,
          "output": 4,
          "interpolation": "LINEAR"
        }
      ],
      "channels": [
        {
          "sampler": 0,
          "target": {
            "node": 5,
            "path": "rotation"
          }
        },
        {
          "sampler": 1,
          "target": {
            "node": 7,
            "path": "rotation"
          }
        },
        {
          "sampler": 2,
          "target": {
            "node": 7,
            "path": "translation"
          }
        }
      ]
    }
  ],
  "scenes": [
    {
      "name": "blockbench_export",
      "nodes": [
        8,
        0,
        1,
        2,
        3
      ]
    }
  ],
  "scene": 0
}