{
  "asset": {
    "generator": "glTF-Transform v4.1.3",
    "version": "2.0"
  },
  "accessors": [
    {
      "type": "SCALAR",
      "componentType": 5123,
      "count": 36,
      "bufferView": 0,
      "byteOffset": 0
    },
    {
      "type": "VEC3",
      "componentType": 5126,
      "count": 24,
      "max": [
        0.125,
        1.5,
        0.0625
      ],
      "min": [
        0.0625,
        0,
        0
      ],
      "bufferView": 1,
      "byteOffset": 0
    },
    {
      "type": "VEC3",
      "componentType": 5126,
      "count": 24,
      "bufferView": 1,
      "byteOffset": 12
    },
    {
      "type": "VEC2",
      "componentType": 5126,
      "count": 24,
      "bufferView": 1,
      "byteOffset": 24
    },
    {
      "type": "VEC3",
      "componentType": 5126,
      "count": 24,
      "max": [
        0.125,
        1.5,
        0
      ],
      "min": [
        0.0625,
        0,
        -0.0625
      ],
      "bufferView": 2,
      "byteOffset": 0
    },
    {
      "type": "VEC2",
      "componentType": 5126,
      "count": 24,
      "bufferView": 2,
      "byteOffset": 12
    },
    {
      "type": "VEC3",
      "componentType": 5126,
      "count": 24,
      "max": [
        0.0000625000029685907,
        0,
        1
      ],
      "min": [
        0,
        -1.625,
        -1
      ],
      "bufferView": 3,
      "byteOffset": 0
    },
    {
      "type": "VEC2",
      "componentType": 5126,
      "count": 24,
      "bufferView": 3,
      "byteOffset": 12
    },
    {
      "type": "VEC3",
      "componentType": 5126,
      "count": 24,
      "max": [
        0.0000625000029685907,
        0,
        -0.9375
      ],
      "min": [
        0,
        -2.09375,
        -1.5
      ],
      "bufferView": 4,
      "byteOffset": 0
    },
    {
      "type": "VEC2",
      "componentType": 5126,
      "count": 24,
      "bufferView": 4,
      "byteOffset": 12
    },
    {
      "type": "VEC3",
      "componentType": 5126,
      "count": 24,
      "max": [
        0.0000625000029685907,
        0,
        1.5
      ],
      "min": [
        0,
        -2.09375,
        0.9375
      ],
      "bufferView": 5,
      "byteOffset": 0
    },
    {
      "type": "VEC2",
      "componentType": 5126,
      "count": 24,
      "bufferView": 5,
      "byteOffset": 12
    },
    {
      "type": "VEC3",
      "componentType": 5126,
      "count": 24,
      "max": [
        0.0625,
        0.0000625000029685907,
        1
      ],
      "min": [
        0,
        0,
        -1
      ],
      "bufferView": 6,
      "byteOffset": 0
    },
    {
      "type": "VEC2",
      "componentType": 5126,
      "count": 24,
      "bufferView": 6,
      "byteOffset": 12
    },
    {
      "type": "VEC3",
      "componentType": 5126,
      "count": 24,
      "max": [
        0.5625,
        0,
        -0.9999374747276306
      ],
      "min": [
        0,
        -1.625,
        -1
      ],
      "bufferView": 7,
      "byteOffset": 0
    },
    {
      "type": "VEC2",
      "componentType": 5126,
      "count": 24,
      "bufferView": 7,
      "byteOffset": 12
    },
    {
      "type": "VEC3",
      "componentType": 5126,
      "count": 24,
      "max": [
        0.5625,
        0,
        1.0000624656677246
      ],
      "min": [
        0,
        -1.625,
        1
      ],
      "bufferView": 8,
      "byteOffset": 0
    },
    {
      "type": "VEC3",
      "componentType": 5126,
      "count": 24,
      "max": [
        -0.03125,
        0,
        0.0000625000029685907
      ],
      "min": [
        -0.53125,
        -1.625,
        0
      ],
      "bufferView": 9,
      "byteOffset": 0
    },
    {
      "type": "VEC2",
      "componentType": 5126,
      "count": 24,
      "bufferView": 9,
      "byteOffset": 12
    },
    {
      "type": "VEC3",
      "componentType": 5126,
      "count": 24,
      "max": [
        0,
        0,
        -0.9999374747276306
      ],
      "min": [
        -0.5625,
        -1.625,
        -1
      ],
      "bufferView": 10,
      "byteOffset": 0
    },
    {
      "type": "VEC2",
      "componentType": 5126,
      "count": 24,
      "bufferView": 10,
      "byteOffset": 12
    },
    {
      "type": "VEC3",
      "componentType": 5126,
      "count": 24,
      "max": [
        0,
        0,
        1.0000624656677246
      ],
      "min": [
        -0.5625,
        -1.625,
        1
      ],
      "bufferView": 11,
      "byteOffset": 0
    },
    {
      "type": "VEC3",
      "componentType": 5126,
      "count": 24,
      "max": [
        0.53125,
        0,
        0.0000625000029685907
      ],
      "min": [
        0.03125,
        -1.625,
        0
      ],
      "bufferView": 12,
      "byteOffset": 0
    },
    {
      "type": "VEC2",
      "componentType": 5126,
      "count": 24,
      "bufferView": 12,
      "byteOffset": 12
    }
  ],
  "bufferViews": [
    {
      "buffer": 0,
      "byteOffset": 0,
      "byteLength": 72,
      "target": 34963
    },
    {
      "buffer": 0,
      "byteOffset": 72,
      "byteLength": 768,
      "byteStride": 32,
      "target": 34962
    },
    {
      "buffer": 0,
      "byteOffset": 840,
      "byteLength": 480,
      "byteStride": 20,
      "target": 34962
    },
    {
      "buffer": 0,
      "byteOffset": 1320,
      "byteLength": 480,
      "byteStride": 20,
      "target": 34962
    },
    {
      "buffer": 0,
      "byteOffset": 1800,
      "byteLength": 480,
      "byteStride": 20,
      "target": 34962
    },
    {
      "buffer": 0,
      "byteOffset": 2280,
      "byteLength": 480,
      "byteStride": 20,
      "target": 34962
    },
    {
      "buffer": 0,
      "byteOffset": 2760,
      "byteLength": 480,
      "byteStride": 20,
      "target": 34962
    },
    {
      "buffer": 0,
      "byteOffset": 3240,
      "byteLength": 480,
      "byteStride": 20,
      "target": 34962
    },
    {
      "buffer": 0,
      "byteOffset": 3720,
      "byteLength": 288,
      "byteStride": 12,
      "target": 34962
    },
    {
      "buffer": 0,
      "byteOffset": 4008,
      "byteLength": 480,
      "byteStride": 20,
      "target": 34962
    },
    {
      "buffer": 0,
      "byteOffset": 4488,
      "byteLength": 480,
      "byteStride": 20,
      "target": 34962
    },
    {
      "buffer": 0,
      "byteOffset": 4968,
      "byteLength": 288,
      "byteStride": 12,
      "target": 34962
    },
    {
      "buffer": 0,
      "byteOffset": 5256,
      "byteLength": 480,
      "byteStride": 20,
      "target": 34962
    }
  ],
  "samplers": [
    {
      "magFilter": 9728,
      "minFilter": 9728,
      "wrapS": 33071,
      "wrapT": 33071
    }
  ],
  "textures": [
    {
      "source": 0,
      "sampler": 0
    }
  ],
  "images": [
    {
      "mimeType": "image/png",
      "uri": "baseColor.png"
    }
  ],
  "buffers": [
    {
      "uri": "roped-tent-named-nodes.bin",
      "byteLength": 5736
    }
  ],
  "materials": [
    {
      "alphaMode": "MASK",
      "alphaCutoff": 0.05,
      "pbrMetallicRoughness": {
        "metallicFactor": 0,
        "baseColorTexture": {
          "index": 0
        }
      }
    }
  ],
  "meshes": [
    {
      "primitives": [
        {
          "attributes": {
            "POSITION": 1,
            "NORMAL": 2,
            "TEXCOORD_0": 3
          },
          "mode": 4,
          "material": 0,
          "indices": 0
        }
      ]
    },
    {
      "primitives": [
        {
          "attributes": {
            "POSITION": 4,
            "TEXCOORD_0": 5,
            "NORMAL": 2
          },
          "mode": 4,
          "material": 0,
          "indices": 0
        }
      ]
    },
    {
      "primitives": [
        {
          "attributes": {
            "POSITION": 6,
            "TEXCOORD_0": 7,
            "NORMAL": 2
          },
          "mode": 4,
          "material": 0,
          "indices": 0
        }
      ]
    },
    {
      "primitives": [
        {
          "attributes": {
            "POSITION": 8,
            "TEXCOORD_0": 9,
            "NORMAL": 2
          },
          "mode": 4,
          "material": 0,
          "indices": 0
        }
      ]
    },
    {
      "primitives": [
        {
          "attributes": {
            "POSITION": 10,
            "TEXCOORD_0": 11,
            "NORMAL": 2
          },
          "mode": 4,
          "material": 0,
          "indices": 0
        }
      ]
    },
    {
      "primitives": [
        {
          "attributes": {
            "POSITION": 10,
            "NORMAL": 2,
            "TEXCOORD_0": 11
          },
          "mode": 4,
          "material": 0,
          "indices": 0
        }
      ]
    },
    {
      "primitives": [
        {
          "attributes": {
            "POSITION": 8,
            "NORMAL": 2,
            "TEXCOORD_0": 9
          },
          "mode": 4,
          "material": 0,
          "indices": 0
        }
      ]
    },
    {
      "primitives": [
        {
          "attributes": {
            "POSITION": 12,
            "TEXCOORD_0": 13,
            "NORMAL": 2
          },
          "mode": 4,
          "material": 0,
          "indices": 0
        }
      ]
    },
    {
      "primitives": [
        {
          "attributes": {
            "POSITION": 14,
            "TEXCOORD_0": 15,
            "NORMAL": 2
          },
          "mode": 4,
          "material": 0,
          "indices": 0
        }
      ]
    },
    {
      "primitives": [
        {
          "attributes": {
            "POSITION": 16,
            "NORMAL": 2,
            "TEXCOORD_0": 15
          },
          "mode": 4,
          "material": 0,
          "indices": 0
        }
      ]
    },
    {
      "primitives": [
        {
          "attributes": {
            "POSITION": 17,
            "TEXCOORD_0": 18,
            "NORMAL": 2
          },
          "mode": 4,
          "material": 0,
          "indices": 0
        }
      ]
    },
    {
      "primitives": [
        {
          "attributes": {
            "POSITION": 17,
            "NORMAL": 2,
            "TEXCOORD_0": 18
          },
          "mode": 4,
          "material": 0,
          "indices": 0
        }
      ]
    },
    {
      "primitives": [
        {
          "attributes": {
            "POSITION": 6,
            "NORMAL": 2,
            "TEXCOORD_0": 7
          },
          "mode": 4,
          "material": 0,
          "indices": 0
        }
      ]
    },
    {
      "primitives": [
        {
          "attributes": {
            "POSITION": 19,
            "TEXCOORD_0": 20,
            "NORMAL": 2
          },
          "mode": 4,
          "material": 0,
          "indices": 0
        }
      ]
    },
    {
      "primitives": [
        {
          "attributes": {
            "POSITION": 21,
            "NORMAL": 2,
            "TEXCOORD_0": 20
          },
          "mode": 4,
          "material": 0,
          "indices": 0
        }
      ]
    },
    {
      "primitives": [
        {
          "attributes": {
            "POSITION": 22,
            "TEXCOORD_0": 23,
            "NORMAL": 2
          },
          "mode": 4,
          "material": 0,
          "indices": 0
        }
      ]
    },
    {
      "primitives": [
        {
          "attributes": {
            "POSITION": 22,
            "NORMAL": 2,
            "TEXCOORD_0": 23
          },
          "mode": 4,
          "material": 0,
          "indices": 0
        }
      ]
    }
  ],
  "nodes": [
    {
      "name": "cube",
      "translation": [
        0.40625,
        0,
        -0.53125
      ],
      "mesh": 0
    },
    {
      "name": "cube",
      "translation": [
        0.40625,
        0,
        1.53125
      ],
      "mesh": 1
    },
    {
      "name": "cube",
      "translation": [
        0.46875,
        1.5,
        0.5
      ],
      "rotation": [
        0,
        0,
        -0.19509032201612825,
        0.9807852804032304
      ],
      "mesh": 2
    },
    {
      "name": "cube",
      "translation": [
        0.46875,
        1.5,
        0.5
      ],
      "rotation": [
        0,
        0,
        -0.3826834323650898,
        0.9238795325112867
      ],
      "mesh": 3
    },
    {
      "name": "cube",
      "translation": [
        0.46875,
        1.5,
        0.5
      ],
      "rotation": [
        0,
        0,
        -0.3826834323650898,
        0.9238795325112867
      ],
      "mesh": 4
    },
    {
      "name": "cube",
      "translation": [
        0.53125,
        1.5,
        0.5
      ],
      "rotation": [
        0,
        0,
        0.3826834323650898,
        0.9238795325112867
      ],
      "mesh": 5
    },
    {
      "name": "cube",
      "translation": [
        0.53125,
        1.5,
        0.5
      ],
      "rotation": [
        0,
        0,
        0.3826834323650898,
        0.9238795325112867
      ],
      "mesh": 6
    },
    {
      "name": "cube",
      "translation": [
        0.46875,
        1.5,
        0.5
      ],
      "mesh": 7
    },
    {
      "name": "cube",
      "translation": [
        0.46875,
        1.5,
        0.5
      ],
      "rotation": [
        0,
        0,
        -0.19509032201612825,
        0.9807852804032304
      ],
      "mesh": 8
    },
    {
      "name": "cube",
      "translation": [
        0.46875,
        1.5,
        0.5
      ],
      "rotation": [
        0,
        0,
        -0.19509032201612825,
        0.9807852804032304
      ],
      "mesh": 9
    },
    {
      "name": "cube",
      "translation": [
        0.5,
        1.5,
        -0.5
      ],
      "rotation": [
        0.19509032201612825,
        0,
        0,
        0.9807852804032304
      ],
      "mesh": 10
    },
    {
      "name": "cube",
      "translation": [
        0.5,
        1.5,
        1.5
      ],
      "rotation": [
        -0.19509032201612825,
        0,
        0,
        0.9807852804032304
      ],
      "mesh": 11
    },
    {
      "name": "cube",
      "translation": [
        0.53125,
        1.5,
        0.5
      ],
      "rotation": [
        0,
        0,
        0.19509032201612825,
        0.9807852804032304
      ],
      "mesh": 12
    },
    {
      "name": "cube",
      "translation": [
        0.53125,
        1.5,
        0.5
      ],
      "rotation": [
        0,
        0,
        0.19509032201612825,
        0.9807852804032304
      ],
      "mesh": 13
    },
    {
      "name": "cube",
      "translation": [
        0.53125,
        1.5,
        0.5
      ],
      "rotation": [
        0,
        0,
        0.19509032201612825,
        0.9807852804032304
      ],
      "mesh": 14
    },
    {
      "name": "cube",
      "translation": [
        0.5,
        1.5,
        -0.5
      ],
      "rotation": [
        0.19509032201612825,
        0,
        0,
        0.9807852804032304
      ],
      "mesh": 15
    },
    {
      "name": "cube",
      "translation": [
        0.5,
        1.5,
        1.5
      ],
      "rotation": [
        -0.19509032201612825,
        0,
        0,
        0.9807852804032304
      ],
      "mesh": 16
    }
  ],
  "scenes": [
    {
      "name": "blockbench_export",
      "nodes": [
        0,
        1,
        2,
        3,
        4,
        5,
        6,
        7,
        8,
        9,
        10,
        11,
        12,
        13,
        14,
        15,
        16
      ]
    }
  ],
  "scene": 0
}