{"asset":{"version":"2.0","generator":"Blockbench 4.12.5 glTF exporter"},"scenes":[{"nodes":[31],"name":"blockbench_export"}],"scene":0,"nodes":[{"name":"leather","mesh":0},{"name":"leather","mesh":1},{"translation":[0,1.40625,-0.03125],"name":"head-anchor","mesh":2},{"translation":[0,0,0.03125],"name":"head-cosmetic","children":[0,1,2]},{"name":"leather","mesh":3},{"translation":[-0.25,0.96875,-0.003125],"name":"arm-left-anchor","mesh":4},{"name":"arm-left-cosmetic","children":[4,5]},{"name":"leather","mesh":5},{"translation":[0.25,0.96875,-0.003125],"name":"arm-right-anchor","mesh":6},{"name":"arm-right-cosmetic","children":[7,8]},{"name":"leather","mesh":7},{"name":"torso-cosmetic","children":[10]},{"name":"leather","mesh":8},{"translation":[-0.25,0.421875,-0.003125],"name":"hand-left-anchor","mesh":9},{"name":"hand-left-cosmetic","children":[12,13]},{"translation":[0.25,0.421875,-0.003125],"name":"hand-right-anchor","mesh":10},{"name":"leather","mesh":11},{"name":"hand-right-cosmetic","children":[15,16]},{"name":"leather","mesh":12},{"translation":[-0.09375,-0.03125,0],"name":"foot-left-anchor","mesh":13},{"name":"foot-left-cosmetic","children":[18,19]},{"name":"leather","mesh":14},{"translation":[0.09375,-0.03125,0],"name":"foot-right-anchor","mesh":15},{"name":"foot-right-cosmetic","children":[21,22]},{"name":"leather","mesh":16},{"translation":[0.09375,0.5,0],"name":"leg-right-anchor","mesh":17},{"name":"leg-right-cosmetic","children":[24,25]},{"name":"leather","mesh":18},{"translation":[-0.09375,0.5,0],"name":"leg-left-anchor","mesh":19},{"name":"leg-left-cosmetic","children":[27,28]},{"name":"cosmetics","children":[3,6,9,11,14,17,20,23,26,29]},{"children":[30]}],"bufferViews":[{"buffer":0,"byteOffset":0,"byteLength":288,"target":34962,"byteStride":12},{"buffer":0,"byteOffset":288,"byteLength":288,"target":34962,"byteStride":12},{"buffer":0,"byteOffset":576,"byteLength":192,"target":34962,"byteStride":8},{"buffer":0,"byteOffset":768,"byteLength":72,"target":34963},{"buffer":0,"byteOffset":840,"byteLength":288,"target":34962,"byteStride":12},{"buffer":0,"byteOffset":1128,"byteLength":288,"target":34962,"byteStride":12},{"buffer":0,"byteOffset":1416,"byteLength":192,"target":34962,"byteStride":8},{"buffer":0,"byteOffset":1608,"byteLength":72,"target":34963},{"buffer":0,"byteOffset":1680,"byteLength":288,"target":34962,"byteStride":12},{"buffer":0,"byteOffset":1968,"byteLength":288,"target":34962,"byteStride":12},{"buffer":0,"byteOffset":2256,"byteLength":192,"target":34962,"byteStride":8},{"buffer":0,"byteOffset":2448,"byteLength":72,"target":34963},{"buffer":0,"byteOffset":2520,"byteLength":288,"target":34962,"byteStride":12},{"buffer":0,"byteOffset":2808,"byteLength":288,"target":34962,"byteStride":12},{"buffer":0,"byteOffset":3096,"byteLength":192,"target":34962,"byteStride":8},{"buffer":0,"byteOffset":3288,"byteLength":72,"target":34963},{"buffer":0,"byteOffset":3360,"byteLength":288,"target":34962,"byteStride":12},{"buffer":0,"byteOffset":3648,"byteLength":288,"target":34962,"byteStride":12},{"buffer":0,"byteOffset":3936,"byteLength":192,"target":34962,"byteStride":8},{"buffer":0,"byteOffset":4128,"byteLength":72,"target":34963},{"buffer":0,"byteOffset":4200,"byteLength":288,"target":34962,"byteStride":12},{"buffer":0,"byteOffset":4488,"byteLength":288,"target":34962,"byteStride":12},{"buffer":0,"byteOffset":4776,"byteLength":192,"target":34962,"byteStride":8},{"buffer":0,"byteOffset":4968,"byteLength":72,"target":34963},{"buffer":0,"byteOffset":5040,"byteLength":288,"target":34962,"byteStride":12},{"buffer":0,"byteOffset":5328,"byteLength":288,"target":34962,"byteStride":12},{"buffer":0,"byteOffset":5616,"byteLength":192,"target":34962,"byteStride":8},{"buffer":0,"byteOffset":5808,"byteLength":72,"target":34963},{"buffer":0,"byteOffset":5880,"byteLength":864,"target":34962,"byteStride":12},{"buffer":0,"byteOffset":6744,"byteLength":864,"target":34962,"byteStride":12},{"buffer":0,"byteOffset":7608,"byteLength":576,"target":34962,"byteStride":8},{"buffer":0,"byteOffset":8184,"byteLength":216,"target":34963},{"buffer":0,"byteOffset":8400,"byteLength":288,"target":34962,"byteStride":12},{"buffer":0,"byteOffset":8688,"byteLength":288,"target":34962,"byteStride":12},{"buffer":0,"byteOffset":8976,"byteLength":192,"target":34962,"byteStride":8},{"buffer":0,"byteOffset":9168,"byteLength":72,"target":34963},{"buffer":0,"byteOffset":9240,"byteLength":288,"target":34962,"byteStride":12},{"buffer":0,"byteOffset":9528,"byteLength":288,"target":34962,"byteStride":12},{"buffer":0,"byteOffset":9816,"byteLength":192,"target":34962,"byteStride":8},{"buffer":0,"byteOffset":10008,"byteLength":72,"target":34963},{"buffer":0,"byteOffset":10080,"byteLength":288,"target":34962,"byteStride":12},{"buffer":0,"byteOffset":10368,"byteLength":288,"target":34962,"byteStride":12},{"buffer":0,"byteOffset":10656,"byteLength":192,"target":34962,"byteStride":8},{"buffer":0,"byteOffset":10848,"byteLength":72,"target":34963},{"buffer":0,"byteOffset":10920,"byteLength":288,"target":34962,"byteStride":12},{"buffer":0,"byteOffset":11208,"byteLength":288,"target":34962,"byteStride":12},{"buffer":0,"byteOffset":11496,"byteLength":192,"target":34962,"byteStride":8},{"buffer":0,"byteOffset":11688,"byteLength":72,"target":34963},{"buffer":0,"byteOffset":11760,"byteLength":864,"target":34962,"byteStride":12},{"buffer":0,"byteOffset":12624,"byteLength":864,"target":34962,"byteStride":12},{"buffer":0,"byteOffset":13488,"byteLength":576,"target":34962,"byteStride":8},{"buffer":0,"byteOffset":14064,"byteLength":216,"target":34963},{"buffer":0,"byteOffset":14280,"byteLength":288,"target":34962,"byteStride":12},{"buffer":0,"byteOffset":14568,"byteLength":288,"target":34962,"byteStride":12},{"buffer":0,"byteOffset":14856,"byteLength":192,"target":34962,"byteStride":8},{"buffer":0,"byteOffset":15048,"byteLength":72,"target":34963},{"buffer":0,"byteOffset":15120,"byteLength":864,"target":34962,"byteStride":12},{"buffer":0,"byteOffset":15984,"byteLength":864,"target":34962,"byteStride":12},{"buffer":0,"byteOffset":16848,"byteLength":576,"target":34962,"byteStride":8},{"buffer":0,"byteOffset":17424,"byteLength":216,"target":34963},{"buffer":0,"byteOffset":17640,"byteLength":288,"target":34962,"byteStride":12},{"buffer":0,"byteOffset":17928,"byteLength":288,"target":34962,"byteStride":12},{"buffer":0,"byteOffset":18216,"byteLength":192,"target":34962,"byteStride":8},{"buffer":0,"byteOffset":18408,"byteLength":72,"target":34963},{"buffer":0,"byteOffset":18480,"byteLength":288,"target":34962,"byteStride":12},{"buffer":0,"byteOffset":18768,"byteLength":288,"target":34962,"byteStride":12},{"buffer":0,"byteOffset":19056,"byteLength":192,"target":34962,"byteStride":8},{"buffer":0,"byteOffset":19248,"byteLength":72,"target":34963},{"buffer":0,"byteOffset":19320,"byteLength":288,"target":34962,"byteStride":12},{"buffer":0,"byteOffset":19608,"byteLength":288,"target":34962,"byteStride":12},{"buffer":0,"byteOffset":19896,"byteLength":192,"target":34962,"byteStride":8},{"buffer":0,"byteOffset":20088,"byteLength":72,"target":34963},{"buffer":0,"byteOffset":20160,"byteLength":288,"target":34962,"byteStride":12},{"buffer":0,"byteOffset":20448,"byteLength":288,"target":34962,"byteStride":12},{"buffer":0,"byteOffset":20736,"byteLength":192,"target":34962,"byteStride":8},{"buffer":0,"byteOffset":20928,"byteLength":72,"target":34963},{"buffer":0,"byteOffset":21000,"byteLength":288,"target":34962,"byteStride":12},{"buffer":0,"byteOffset":21288,"byteLength":288,"target":34962,"byteStride":12},{"buffer":0,"byteOffset":21576,"byteLength":192,"target":34962,"byteStride":8},{"buffer":0,"byteOffset":21768,"byteLength":72,"target":34963}],"buffers":[{"byteLength":21840,"uri":"data:application/octet-stream;base64,"}],"accessors":[{"bufferView":0,"componentType":5126,"count":24,"max":[0.2421875,1.4765625,0.2109375],"min":[-0.2421875,0.9921875,-0.2734375],"type":"VEC3"},{"bufferView":1,"componentType":5126,"count":24,"max":[1,1,1],"min":[-1,-1,-1],"type":"VEC3"},{"bufferView":2,"componentType":5126,"count":24,"max":[0.4372499883174896,0.218500018119812],"min":[0.0002500000118743628,0.0002499818801879883],"type":"VEC2"},{"bufferView":3,"componentType":5123,"count":36,"max":[23],"min":[0],"type":"SCALAR"},{"bufferView":4,"componentType":5126,"count":24,"max":[0.234375,1.1484375,0.203125],"min":[-0.234375,1.0078125,-0.265625],"type":"VEC3"},{"bufferView":5,"componentType":5126,"count":24,"max":[1,1,1],"min":[-1,-1,-1],"type":"VEC3"},{"bufferView":6,"componentType":5126,"count":24,"max":[0.4372499883174896,0.366937518119812],"min":[0.0002500000118743628,0.226812481880188],"type":"VEC2"},{"bufferView":7,"componentType":5123,"count":36,"max":[23],"min":[0],"type":"SCALAR"},{"bufferView":8,"componentType":5126,"count":24,"max":[0.03125,0.0625,0.03125],"min":[-0.03125,0,-0.03125],"type":"VEC3"},{"bufferView":9,"componentType":5126,"count":24,"max":[1,1,1],"min":[-1,-1,-1],"type":"VEC3"},{"bufferView":10,"componentType":5126,"count":24,"max":[0.999875009059906,0.999875009059906],"min":[0.968874990940094,0.984499990940094],"type":"VEC2"},{"bufferView":11,"componentType":5123,"count":36,"max":[23],"min":[0],"type":"SCALAR"},{"bufferView":12,"componentType":5126,"count":24,"max":[-0.15625,1.0078125,0.09062500298023224],"min":[-0.34375,0.7890625,-0.09687499701976776],"type":"VEC3"},{"bufferView":13,"componentType":5126,"count":24,"max":[1,1,1],"min":[-1,-1,-1],"type":"VEC3"},{"bufferView":14,"componentType":5126,"count":24,"max":[0.18725000321865082,0.601312518119812],"min":[0.0002500000118743628,0.500249981880188],"type":"VEC2"},{"bufferView":15,"componentType":5123,"count":36,"max":[23],"min":[0],"type":"SCALAR"},{"bufferView":16,"componentType":5126,"count":24,"max":[0.03125,0.0625,0.03125],"min":[-0.03125,0,-0.03125],"type":"VEC3"},{"bufferView":17,"componentType":5126,"count":24,"max":[1,1,1],"min":[-1,-1,-1],"type":"VEC3"},{"bufferView":18,"componentType":5126,"count":24,"max":[0.999875009059906,0.999875009059906],"min":[0.968874990940094,0.984499990940094],"type":"VEC2"},{"bufferView":19,"componentType":5123,"count":36,"max":[23],"min":[0],"type":"SCALAR"},{"bufferView":20,"componentType":5126,"count":24,"max":[0.34375,1.0078125,0.09062500298023224],"min":[0.15625,0.7890625,-0.09687499701976776],"type":"VEC3"},{"bufferView":21,"componentType":5126,"count":24,"max":[1,1,1],"min":[-1,-1,-1],"type":"VEC3"},{"bufferView":22,"componentType":5126,"count":24,"max":[0.18725000321865082,0.601312518119812],"min":[0.0002500000118743628,0.500249981880188],"type":"VEC2"},{"bufferView":23,"componentType":5123,"count":36,"max":[23],"min":[0],"type":"SCALAR"},{"bufferView":24,"componentType":5126,"count":24,"max":[0.03125,0.0625,0.03125],"min":[-0.03125,0,-0.03125],"type":"VEC3"},{"bufferView":25,"componentType":5126,"count":24,"max":[1,1,1],"min":[-1,-1,-1],"type":"VEC3"},{"bufferView":26,"componentType":5126,"count":24,"max":[0.999875009059906,0.999875009059906],"min":[0.968874990940094,0.984499990940094],"type":"VEC2"},{"bufferView":27,"componentType":5123,"count":36,"max":[23],"min":[0],"type":"SCALAR"},{"bufferView":28,"componentType":5126,"count":72,"max":[0.21875,1.015625,0.15625],"min":[-0.21875,0.515625,-0.1875],"type":"VEC3"},{"bufferView":29,"componentType":5126,"count":72,"max":[1,1,1],"min":[-1,-1,-1],"type":"VEC3"},{"bufferView":30,"componentType":5126,"count":72,"max":[0.7028928995132446,0.6561076641082764],"min":[0.00024038099218159914,0.28915536403656006],"type":"VEC2"},{"bufferView":31,"componentType":5123,"count":108,"max":[71],"min":[0],"type":"SCALAR"},{"bufferView":32,"componentType":5126,"count":24,"max":[-0.140625,0.6484375,0.10625000298023224],"min":[-0.359375,0.4296875,-0.11249999701976776],"type":"VEC3"},{"bufferView":33,"componentType":5126,"count":24,"max":[1,1,1],"min":[-1,-1,-1],"type":"VEC3"},{"bufferView":34,"componentType":5126,"count":24,"max":[0.663812518119812,0.202875018119812],"min":[0.4455625116825104,0.09399998188018799],"type":"VEC2"},{"bufferView":35,"componentType":5123,"count":36,"max":[23],"min":[0],"type":"SCALAR"},{"bufferView":36,"componentType":5126,"count":24,"max":[0.03125,0.0625,0.03125],"min":[-0.03125,0,-0.03125],"type":"VEC3"},{"bufferView":37,"componentType":5126,"count":24,"max":[1,1,1],"min":[-1,-1,-1],"type":"VEC3"},{"bufferView":38,"componentType":5126,"count":24,"max":[0.999875009059906,0.999875009059906],"min":[0.968874990940094,0.984499990940094],"type":"VEC2"},{"bufferView":39,"componentType":5123,"count":36,"max":[23],"min":[0],"type":"SCALAR"},{"bufferView":40,"componentType":5126,"count":24,"max":[0.03125,0.0625,0.03125],"min":[-0.03125,0,-0.03125],"type":"VEC3"},{"bufferView":41,"componentType":5126,"count":24,"max":[1,1,1],"min":[-1,-1,-1],"type":"VEC3"},{"bufferView":42,"componentType":5126,"count":24,"max":[0.999875009059906,0.999875009059906],"min":[0.968874990940094,0.984499990940094],"type":"VEC2"},{"bufferView":43,"componentType":5123,"count":36,"max":[23],"min":[0],"type":"SCALAR"},{"bufferView":44,"componentType":5126,"count":24,"max":[0.359375,0.6484375,0.10625000298023224],"min":[0.140625,0.4296875,-0.11249999701976776],"type":"VEC3"},{"bufferView":45,"componentType":5126,"count":24,"max":[1,1,1],"min":[-1,-1,-1],"type":"VEC3"},{"bufferView":46,"componentType":5126,"count":24,"max":[0.663812518119812,0.202875018119812],"min":[0.4455625116825104,0.09399998188018799],"type":"VEC2"},{"bufferView":47,"componentType":5123,"count":36,"max":[23],"min":[0],"type":"SCALAR"},{"bufferView":48,"componentType":5126,"count":72,"max":[0.0390625,0.3125,0.125],"min":[-0.2109375,-0.015625,-0.203125],"type":"VEC3"},{"bufferView":49,"componentType":5126,"count":72,"max":[1,1,1],"min":[-1,-1,-1],"type":"VEC3"},{"bufferView":50,"componentType":5126,"count":72,"max":[0.695078432559967,0.49207568168640137],"min":[0.00022360679577104747,0.0001767873764038086],"type":"VEC2"},{"bufferView":51,"componentType":5123,"count":108,"max":[71],"min":[0],"type":"SCALAR"},{"bufferView":52,"componentType":5126,"count":24,"max":[0.03125,0.0625,0.03125],"min":[-0.03125,0,-0.03125],"type":"VEC3"},{"bufferView":53,"componentType":5126,"count":24,"max":[1,1,1],"min":[-1,-1,-1],"type":"VEC3"},{"bufferView":54,"componentType":5126,"count":24,"max":[0.999875009059906,0.999875009059906],"min":[0.968874990940094,0.984499990940094],"type":"VEC2"},{"bufferView":55,"componentType":5123,"count":36,"max":[23],"min":[0],"type":"SCALAR"},{"bufferView":56,"componentType":5126,"count":72,"max":[0.2109375,0.3125,0.125],"min":[-0.0390625,-0.015625,-0.203125],"type":"VEC3"},{"bufferView":57,"componentType":5126,"count":72,"max":[1,1,1],"min":[-1,-1,-1],"type":"VEC3"},{"bufferView":58,"componentType":5126,"count":72,"max":[0.695078432559967,0.49207568168640137],"min":[0.00022360679577104747,0.0001767873764038086],"type":"VEC2"},{"bufferView":59,"componentType":5123,"count":108,"max":[71],"min":[0],"type":"SCALAR"},{"bufferView":60,"componentType":5126,"count":24,"max":[0.03125,0.0625,0.03125],"min":[-0.03125,0,-0.03125],"type":"VEC3"},{"bufferView":61,"componentType":5126,"count":24,"max":[1,1,1],"min":[-1,-1,-1],"type":"VEC3"},{"bufferView":62,"componentType":5126,"count":24,"max":[0.999875009059906,0.999875009059906],"min":[0.968874990940094,0.984499990940094],"type":"VEC2"},{"bufferView":63,"componentType":5123,"count":36,"max":[23],"min":[0],"type":"SCALAR"},{"bufferView":64,"componentType":5126,"count":24,"max":[0.19687500596046448,0.557812511920929,0.109375],"min":[-0.02187499962747097,0.24531249701976776,-0.109375],"type":"VEC3"},{"bufferView":65,"componentType":5126,"count":24,"max":[1,1,1],"min":[-1,-1,-1],"type":"VEC3"},{"bufferView":66,"componentType":5126,"count":24,"max":[0.507562518119812,0.507562518119812],"min":[0.2893125116825104,0.375249981880188],"type":"VEC2"},{"bufferView":67,"componentType":5123,"count":36,"max":[23],"min":[0],"type":"SCALAR"},{"bufferView":68,"componentType":5126,"count":24,"max":[0.03125,0.0625,0.03125],"min":[-0.03125,0,-0.03125],"type":"VEC3"},{"bufferView":69,"componentType":5126,"count":24,"max":[1,1,1],"min":[-1,-1,-1],"type":"VEC3"},{"bufferView":70,"componentType":5126,"count":24,"max":[0.999875009059906,0.999875009059906],"min":[0.968874990940094,0.984499990940094],"type":"VEC2"},{"bufferView":71,"componentType":5123,"count":36,"max":[23],"min":[0],"type":"SCALAR"},{"bufferView":72,"componentType":5126,"count":24,"max":[0.02187499962747097,0.557812511920929,0.109375],"min":[-0.19687500596046448,0.24531249701976776,-0.109375],"type":"VEC3"},{"bufferView":73,"componentType":5126,"count":24,"max":[1,1,1],"min":[-1,-1,-1],"type":"VEC3"},{"bufferView":74,"componentType":5126,"count":24,"max":[0.507562518119812,0.507562518119812],"min":[0.2893125116825104,0.375249981880188],"type":"VEC2"},{"bufferView":75,"componentType":5123,"count":36,"max":[23],"min":[0],"type":"SCALAR"},{"bufferView":76,"componentType":5126,"count":24,"max":[0.03125,0.0625,0.03125],"min":[-0.03125,0,-0.03125],"type":"VEC3"},{"bufferView":77,"componentType":5126,"count":24,"max":[1,1,1],"min":[-1,-1,-1],"type":"VEC3"},{"bufferView":78,"componentType":5126,"count":24,"max":[0.999875009059906,0.999875009059906],"min":[0.968874990940094,0.984499990940094],"type":"VEC2"},{"bufferView":79,"componentType":5123,"count":36,"max":[23],"min":[0],"type":"SCALAR"}],"materials":[{"pbrMetallicRoughness":{"metallicFactor":0,"roughnessFactor":1,"baseColorTexture":{"index":0}},"alphaMode":"MASK","alphaCutoff":0.05,"doubleSided":true},{"pbrMetallicRoughness":{"metallicFactor":0,"roughnessFactor":1,"baseColorTexture":{"index":1}},"alphaMode":"MASK","alphaCutoff":0.05,"doubleSided":true}],"textures":[{"sampler":0,"source":0,"name":"leather_armor"},{"sampler":1,"source":1,"name":"player-texture-template.png"}],"samplers":[{"magFilter":9728,"minFilter":9728,"wrapS":33071,"wrapT":33071},{"magFilter":9728,"minFilter":9728,"wrapS":33071,"wrapT":33071}],"images":[{"mimeType":"image/png","uri":"data:image/png;base64,"},{"mimeType":"image/png","uri":"data:image/png;base64,"}],"meshes":[{"primitives":[{"mode":4,"attributes":{"POSITION":0,"NORMAL":1,"TEXCOORD_0":2},"indices":3,"material":0}]},{"primitives":[{"mode":4,"attributes":{"POSITION":4,"NORMAL":5,"TEXCOORD_0":6},"indices":7,"material":0}]},{"primitives":[{"mode":4,"attributes":{"POSITION":8,"NORMAL":9,"TEXCOORD_0":10},"indices":11,"material":1}]},{"primitives":[{"mode":4,"attributes":{"POSITION":12,"NORMAL":13,"TEXCOORD_0":14},"indices":15,"material":0}]},{"primitives":[{"mode":4,"attributes":{"POSITION":16,"NORMAL":17,"TEXCOORD_0":18},"indices":19,"material":1}]},{"primitives":[{"mode":4,"attributes":{"POSITION":20,"NORMAL":21,"TEXCOORD_0":22},"indices":23,"material":0}]},{"primitives":[{"mode":4,"attributes":{"POSITION":24,"NORMAL":25,"TEXCOORD_0":26},"indices":27,"material":1}]},{"primitives":[{"mode":4,"attributes":{"POSITION":28,"NORMAL":29,"TEXCOORD_0":30},"indices":31,"material":0}]},{"primitives":[{"mode":4,"attributes":{"POSITION":32,"NORMAL":33,"TEXCOORD_0":34},"indices":35,"material":0}]},{"primitives":[{"mode":4,"attributes":{"POSITION":36,"NORMAL":37,"TEXCOORD_0":38},"indices":39,"material":1}]},{"primitives":[{"mode":4,"attributes":{"POSITION":40,"NORMAL":41,"TEXCOORD_0":42},"indices":43,"material":1}]},{"primitives":[{"mode":4,"attributes":{"POSITION":44,"NORMAL":45,"TEXCOORD_0":46},"indices":47,"material":0}]},{"primitives":[{"mode":4,"attributes":{"POSITION":48,"NORMAL":49,"TEXCOORD_0":50},"indices":51,"material":0}]},{"primitives":[{"mode":4,"attributes":{"POSITION":52,"NORMAL":53,"TEXCOORD_0":54},"indices":55,"material":1}]},{"primitives":[{"mode":4,"attributes":{"POSITION":56,"NORMAL":57,"TEXCOORD_0":58},"indices":59,"material":0}]},{"primitives":[{"mode":4,"attributes":{"POSITION":60,"NORMAL":61,"TEXCOORD_0":62},"indices":63,"material":1}]},{"primitives":[{"mode":4,"attributes":{"POSITION":64,"NORMAL":65,"TEXCOORD_0":66},"indices":67,"material":0}]},{"primitives":[{"mode":4,"attributes":{"POSITION":68,"NORMAL":69,"TEXCOORD_0":70},"indices":71,"material":1}]},{"primitives":[{"mode":4,"attributes":{"POSITION":72,"NORMAL":73,"TEXCOORD_0":74},"indices":75,"material":0}]},{"primitives":[{"mode":4,"attributes":{"POSITION":76,"NORMAL":77,"TEXCOORD_0":78},"indices":79,"material":1}]}]}