{
  "asset": {
    "generator": "glTF-Transform v4.1.3",
    "version": "2.0"
  },
  "accessors": [
    {
      "type": "SCALAR",
      "componentType": 5126,
      "count": 12,
      "max": [
        0.699999988079071
      ],
      "min": [
        0
      ],
      "bufferView": 0,
      "byteOffset": 0
    },
    {
      "type": "VEC3",
      "componentType": 5126,
      "count": 12,
      "bufferView": 0,
      "byteOffset": 48
    },
    {
      "type": "VEC3",
      "componentType": 5126,
      "count": 12,
      "bufferView": 0,
      "byteOffset": 192
    },
    {
      "type": "VEC4",
      "componentType": 5126,
      "count": 12,
      "bufferView": 0,
      "byteOffset": 336
    },
    {
      "type": "VEC4",
      "componentType": 5126,
      "count": 12,
      "bufferView": 0,
      "byteOffset": 528
    },
    {
      "type": "VEC3",
      "componentType": 5126,
      "count": 12,
      "bufferView": 0,
      "byteOffset": 720
    },
    {
      "type": "VEC4",
      "componentType": 5126,
      "count": 12,
      "bufferView": 0,
      "byteOffset": 864
    },
    {
      "type": "VEC4",
      "componentType": 5126,
      "count": 12,
      "bufferView": 0,
      "byteOffset": 1056
    },
    {
      "type": "SCALAR",
      "componentType": 5126,
      "count": 15,
      "max": [
        1
      ],
      "min": [
        0
      ],
      "bufferView": 0,
      "byteOffset": 1248
    },
    {
      "type": "VEC3",
      "componentType": 5126,
      "count": 15,
      "bufferView": 0,
      "byteOffset": 1308
    },
    {
      "type": "VEC4",
      "componentType": 5126,
      "count": 15,
      "bufferView": 0,
      "byteOffset": 1488
    },
    {
      "type": "VEC4",
      "componentType": 5126,
      "count": 15,
      "bufferView": 0,
      "byteOffset": 1728
    },
    {
      "type": "SCALAR",
      "componentType": 5123,
      "count": 36,
      "bufferView": 1,
      "byteOffset": 0
    },
    {
      "type": "VEC3",
      "componentType": 5126,
      "count": 24,
      "max": [
        0.84375,
        0.175843745470047,
        0.84375
      ],
      "min": [
        -0.84375,
        0.17578125,
        -0.84375
      ],
      "bufferView": 2,
      "byteOffset": 0
    },
    {
      "type": "VEC3",
      "componentType": 5126,
      "count": 24,
      "bufferView": 2,
      "byteOffset": 12
    },
    {
      "type": "VEC2",
      "componentType": 5126,
      "count": 24,
      "bufferView": 2,
      "byteOffset": 24
    },
    {
      "type": "VEC3",
      "componentType": 5126,
      "count": 24,
      "max": [
        0.84375,
        0.175843745470047,
        0.84375
      ],
      "min": [
        -1.0546875,
        0.17578125,
        -0.84375
      ],
      "bufferView": 3,
      "byteOffset": 0
    },
    {
      "type": "VEC2",
      "componentType": 5126,
      "count": 24,
      "bufferView": 3,
      "byteOffset": 12
    },
    {
      "type": "VEC3",
      "componentType": 5126,
      "count": 24,
      "max": [
        1.0546875,
        0.175843745470047,
        0.84375
      ],
      "min": [
        -0.84375,
        0.17578125,
        -0.84375
      ],
      "bufferView": 4,
      "byteOffset": 0
    },
    {
      "type": "VEC2",
      "componentType": 5126,
      "count": 24,
      "bufferView": 4,
      "byteOffset": 12
    },
    {
      "type": "VEC3",
      "componentType": 5126,
      "count": 24,
      "max": [
        0.84375,
        0.175843745470047,
        0.84375
      ],
      "min": [
        -0.84375,
        0.17578125,
        -1.0546875
      ],
      "bufferView": 5,
      "byteOffset": 0
    },
    {
      "type": "VEC2",
      "componentType": 5126,
      "count": 24,
      "bufferView": 5,
      "byteOffset": 12
    },
    {
      "type": "VEC3",
      "componentType": 5126,
      "count": 24,
      "max": [
        1.0546875,
        0.175843745470047,
        0.84375
      ],
      "min": [
        -0.84375,
        0.17578125,
        -1.0546875
      ],
      "bufferView": 6,
      "byteOffset": 0
    },
    {
      "type": "VEC2",
      "componentType": 5126,
      "count": 24,
      "bufferView": 6,
      "byteOffset": 12
    },
    {
      "type": "VEC3",
      "componentType": 5126,
      "count": 24,
      "max": [
        0.84375,
        0.175843745470047,
        0.84375
      ],
      "min": [
        -1.0546875,
        0.17578125,
        -1.0546875
      ],
      "bufferView": 7,
      "byteOffset": 0
    },
    {
      "type": "VEC2",
      "componentType": 5126,
      "count": 24,
      "bufferView": 7,
      "byteOffset": 12
    },
    {
      "type": "VEC3",
      "componentType": 5126,
      "count": 24,
      "max": [
        0.84375,
        0.175843745470047,
        1.0546875
      ],
      "min": [
        -0.84375,
        0.17578125,
        -0.84375
      ],
      "bufferView": 8,
      "byteOffset": 0
    },
    {
      "type": "VEC2",
      "componentType": 5126,
      "count": 24,
      "bufferView": 8,
      "byteOffset": 12
    },
    {
      "type": "VEC3",
      "componentType": 5126,
      "count": 24,
      "max": [
        0.84375,
        0.175843745470047,
        1.0546875
      ],
      "min": [
        -1.0546875,
        0.17578125,
        -0.84375
      ],
      "bufferView": 9,
      "byteOffset": 0
    },
    {
      "type": "VEC2",
      "componentType": 5126,
      "count": 24,
      "bufferView": 9,
      "byteOffset": 12
    },
    {
      "type": "VEC3",
      "componentType": 5126,
      "count": 24,
      "max": [
        1.0546875,
        0.175843745470047,
        1.0546875
      ],
      "min": [
        -0.84375,
        0.17578125,
        -0.84375
      ],
      "bufferView": 10,
      "byteOffset": 0
    },
    {
      "type": "VEC2",
      "componentType": 5126,
      "count": 24,
      "bufferView": 10,
      "byteOffset": 12
    },
    {
      "type": "VEC3",
      "componentType": 5126,
      "count": 24,
      "max": [
        0.5,
        0.25,
        0.5
      ],
      "min": [
        -0.5,
        0,
        -0.5
      ],
      "bufferView": 11,
      "byteOffset": 0
    },
    {
      "type": "VEC2",
      "componentType": 5126,
      "count": 24,
      "bufferView": 11,
      "byteOffset": 12
    }
  ],
  "bufferViews": [
    {
      "buffer": 0,
      "byteOffset": 0,
      "byteLength": 1968
    },
    {
      "buffer": 0,
      "byteOffset": 1968,
      "byteLength": 72,
      "target": 34963
    },
    {
      "buffer": 0,
      "byteOffset": 2040,
      "byteLength": 768,
      "byteStride": 32,
      "target": 34962
    },
    {
      "buffer": 0,
      "byteOffset": 2808,
      "byteLength": 480,
      "byteStride": 20,
      "target": 34962
    },
    {
      "buffer": 0,
      "byteOffset": 3288,
      "byteLength": 480,
      "byteStride": 20,
      "target": 34962
    },
    {
      "buffer": 0,
      "byteOffset": 3768,
      "byteLength": 480,
      "byteStride": 20,
      "target": 34962
    },
    {
      "buffer": 0,
      "byteOffset": 4248,
      "byteLength": 480,
      "byteStride": 20,
      "target": 34962
    },
    {
      "buffer": 0,
      "byteOffset": 4728,
      "byteLength": 480,
      "byteStride": 20,
      "target": 34962
    },
    {
      "buffer": 0,
      "byteOffset": 5208,
      "byteLength": 480,
      "byteStride": 20,
      "target": 34962
    },
    {
      "buffer": 0,
      "byteOffset": 5688,
      "byteLength": 480,
      "byteStride": 20,
      "target": 34962
    },
    {
      "buffer": 0,
      "byteOffset": 6168,
      "byteLength": 480,
      "byteStride": 20,
      "target": 34962
    },
    {
      "buffer": 0,
      "byteOffset": 6648,
      "byteLength": 480,
      "byteStride": 20,
      "target": 34962
    }
  ],
  "samplers": [
    {
      "magFilter": 9728,
      "minFilter": 9728,
      "wrapS": 33071,
      "wrapT": 33071
    }
  ],
  "textures": [
    {
      "source": 0,
      "sampler": 0
    }
  ],
  "images": [
    {
      "mimeType": "image/png",
      "uri": "baseColor.png"
    }
  ],
  "buffers": [
    {
      "uri": "large-spider-web-named-nodes.bin",
      "byteLength": 7128
    }
  ],
  "materials": [
    {
      "alphaMode": "MASK",
      "alphaCutoff": 0.05,
      "doubleSided": true,
      "pbrMetallicRoughness": {
        "metallicFactor": 0,
        "baseColorTexture": {
          "index": 0
        }
      }
    }
  ],
  "meshes": [
    {
      "primitives": [
        {
          "attributes": {
            "POSITION": 13,
            "NORMAL": 14,
            "TEXCOORD_0": 15
          },
          "mode": 4,
          "material": 0,
          "indices": 12
        }
      ]
    },
    {
      "primitives": [
        {
          "attributes": {
            "POSITION": 16,
            "TEXCOORD_0": 17,
            "NORMAL": 14
          },
          "mode": 4,
          "material": 0,
          "indices": 12
        }
      ]
    },
    {
      "primitives": [
        {
          "attributes": {
            "POSITION": 18,
            "TEXCOORD_0": 19,
            "NORMAL": 14
          },
          "mode": 4,
          "material": 0,
          "indices": 12
        }
      ]
    },
    {
      "primitives": [
        {
          "attributes": {
            "POSITION": 20,
            "TEXCOORD_0": 21,
            "NORMAL": 14
          },
          "mode": 4,
          "material": 0,
          "indices": 12
        }
      ]
    },
    {
      "primitives": [
        {
          "attributes": {
            "POSITION": 22,
            "TEXCOORD_0": 23,
            "NORMAL": 14
          },
          "mode": 4,
          "material": 0,
          "indices": 12
        }
      ]
    },
    {
      "primitives": [
        {
          "attributes": {
            "POSITION": 24,
            "TEXCOORD_0": 25,
            "NORMAL": 14
          },
          "mode": 4,
          "material": 0,
          "indices": 12
        }
      ]
    },
    {
      "primitives": [
        {
          "attributes": {
            "POSITION": 26,
            "TEXCOORD_0": 27,
            "NORMAL": 14
          },
          "mode": 4,
          "material": 0,
          "indices": 12
        }
      ]
    },
    {
      "primitives": [
        {
          "attributes": {
            "POSITION": 28,
            "TEXCOORD_0": 29,
            "NORMAL": 14
          },
          "mode": 4,
          "material": 0,
          "indices": 12
        }
      ]
    },
    {
      "primitives": [
        {
          "attributes": {
            "POSITION": 30,
            "TEXCOORD_0": 31,
            "NORMAL": 14
          },
          "mode": 4,
          "material": 0,
          "indices": 12
        }
      ]
    },
    {
      "primitives": [
        {
          "attributes": {
            "POSITION": 32,
            "TEXCOORD_0": 33,
            "NORMAL": 14
          },
          "mode": 4,
          "material": 0,
          "indices": 12
        }
      ]
    }
  ],
  "nodes": [
    {
      "name": "cube",
      "mesh": 0
    },
    {
      "name": "cube",
      "translation": [
        -0.84375,
        -0.17578125,
        0
      ],
      "mesh": 1
    },
    {
      "name": "web4",
      "translation": [
        -0.84375,
        0.17578125,
        0
      ],
      "children": [
        1
      ]
    },
    {
      "name": "cube",
      "translation": [
        0.84375,
        -0.17578125,
        0
      ],
      "mesh": 2
    },
    {
      "name": "web5",
      "translation": [
        0.84375,
        0.17578125,
        0
      ],
      "children": [
        3
      ]
    },
    {
      "name": "cube",
      "translation": [
        0,
        -0.17578125,
        -0.84375
      ],
      "mesh": 3
    },
    {
      "name": "web2",
      "translation": [
        0,
        -0.01171875,
        0
      ],
      "children": [
        5
      ]
    },
    {
      "name": "cube",
      "translation": [
        0,
        -0.17578125,
        -0.84375
      ],
      "mesh": 4
    },
    {
      "name": "web12",
      "translation": [
        1.6875,
        -0.01171875,
        0
      ],
      "children": [
        7
      ]
    },
    {
      "name": "cube",
      "translation": [
        0,
        -0.17578125,
        -0.84375
      ],
      "mesh": 5
    },
    {
      "name": "web13",
      "translation": [
        -1.6875,
        -0.01171875,
        0
      ],
      "children": [
        9
      ]
    },
    {
      "name": "bone",
      "translation": [
        0,
        0.1875,
        -0.84375
      ],
      "rotation": [
        -0.06540312923014306,
        0,
        0,
        0.9978589232386035
      ],
      "children": [
        6,
        8,
        10
      ]
    },
    {
      "name": "cube",
      "translation": [
        0,
        -0.17578125,
        0.84375
      ],
      "mesh": 6
    },
    {
      "name": "web3",
      "translation": [
        0,
        -0.01171875,
        0
      ],
      "children": [
        12
      ]
    },
    {
      "name": "cube",
      "translation": [
        0,
        -0.17578125,
        0.84375
      ],
      "mesh": 7
    },
    {
      "name": "web10",
      "translation": [
        -1.6875,
        -0.01171875,
        0
      ],
      "children": [
        14
      ]
    },
    {
      "name": "cube",
      "translation": [
        0,
        -0.17578125,
        0.84375
      ],
      "mesh": 8
    },
    {
      "name": "web11",
      "translation": [
        1.6875,
        -0.01171875,
        0
      ],
      "children": [
        16
      ]
    },
    {
      "name": "bone2",
      "translation": [
        0,
        0.1875,
        0.84375
      ],
      "rotation": [
        0.06540312923014306,
        0,
        0,
        0.9978589232386035
      ],
      "children": [
        13,
        15,
        17
      ]
    },
    {
      "name": "web",
      "translation": [
        0,
        0.0625,
        0
      ],
      "children": [
        0,
        2,
        4,
        11,
        18
      ]
    },
    {
      "name": "root",
      "children": [
        19
      ]
    },
    {
      "name": "cube",
      "mesh": 9
    },
    {
      "children": [
        20
      ]
    }
  ],
  "animations": [
    {
      "name": "idle",
      "samplers": [
        {
          "input": 8,
          "output": 9,
          "interpolation": "LINEAR"
        },
        {
          "input": 8,
          "output": 10,
          "interpolation": "LINEAR"
        },
        {
          "input": 8,
          "output": 11,
          "interpolation": "LINEAR"
        }
      ],
      "channels": [
        {
          "sampler": 0,
          "target": {
            "node": 20,
            "path": "scale"
          }
        },
        {
          "sampler": 1,
          "target": {
            "node": 11,
            "path": "rotation"
          }
        },
        {
          "sampler": 2,
          "target": {
            "node": 18,
            "path": "rotation"
          }
        }
      ]
    },
    {
      "name": "spawn",
      "samplers": [
        {
          "input": 0,
          "output": 1,
          "interpolation": "LINEAR"
        },
        {
          "input": 0,
          "output": 2,
          "interpolation": "LINEAR"
        },
        {
          "input": 0,
          "output": 3,
          "interpolation": "LINEAR"
        },
        {
          "input": 0,
          "output": 4,
          "interpolation": "LINEAR"
        }
      ],
      "channels": [
        {
          "sampler": 0,
          "target": {
            "node": 20,
            "path": "translation"
          }
        },
        {
          "sampler": 1,
          "target": {
            "node": 20,
            "path": "scale"
          }
        },
        {
          "sampler": 2,
          "target": {
            "node": 11,
            "path": "rotation"
          }
        },
        {
          "sampler": 3,
          "target": {
            "node": 18,
            "path": "rotation"
          }
        }
      ]
    },
    {
      "name": "despawn",
      "samplers": [
        {
          "input": 0,
          "output": 5,
          "interpolation": "LINEAR"
        },
        {
          "input": 0,
          "output": 6,
          "interpolation": "LINEAR"
        },
        {
          "input": 0,
          "output": 7,
          "interpolation": "LINEAR"
        }
      ],
      "channels": [
        {
          "sampler": 0,
          "target": {
            "node": 20,
            "path": "scale"
          }
        },
        {
          "sampler": 1,
          "target": {
            "node": 11,
            "path": "rotation"
          }
        },
        {
          "sampler": 2,
          "target": {
            "node": 18,
            "path": "rotation"
          }
        }
      ]
    }
  ],
  "scenes": [
    {
      "name": "blockbench_export",
      "nodes": [
        22,
        21
      ]
    }
  ],
  "scene": 0
}