{"asset":{"version":"2.0","generator":"Blockbench 4.12.5 glTF exporter"},"scenes":[{"nodes":[31],"name":"blockbench_export"}],"scene":0,"nodes":[{"translation":[0,1.40625,-0.03125],"name":"head-anchor","mesh":0},{"rotation":[0,0,-0.3826834323650898,0.9238795325112867],"translation":[-0.481694375,1.237055625,-0.03125],"name":"mage","mesh":1},{"translation":[0,0,0.03125],"name":"head-cosmetic","children":[0,1]},{"translation":[-0.25,0.96875,-0.003125],"name":"arm-left-anchor","mesh":2},{"name":"mage","mesh":3},{"name":"arm-left-cosmetic","children":[3,4]},{"translation":[0.25,0.96875,-0.003125],"name":"arm-right-anchor","mesh":4},{"name":"mage","mesh":5},{"name":"arm-right-cosmetic","children":[6,7]},{"translation":[0,0.96875,0],"name":"torso-anchor","mesh":6},{"name":"mage","mesh":7},{"name":"torso-cosmetic","children":[9,10]},{"translation":[-0.25,0.421875,-0.003125],"name":"hand-left-anchor","mesh":8},{"translation":[-0.34375,0,0],"name":"mage","mesh":9},{"name":"hand-left-cosmetic","children":[12,13]},{"translation":[0.25,0.421875,-0.003125],"name":"hand-right-anchor","mesh":10},{"translation":[0.34375,0,0],"name":"mage","mesh":11},{"name":"hand-right-cosmetic","children":[15,16]},{"translation":[-0.09375,-0.03125,0],"name":"foot-left-anchor","mesh":12},{"name":"mage","mesh":13},{"name":"foot-left-cosmetic","children":[18,19]},{"translation":[0.09375,-0.03125,0],"name":"foot-right-anchor","mesh":14},{"name":"mage","mesh":15},{"name":"foot-right-cosmetic","children":[21,22]},{"translation":[0.09375,0.5,0],"name":"leg-right-anchor","mesh":16},{"name":"mage","mesh":17},{"name":"leg-right-cosmetic","children":[24,25]},{"translation":[-0.09375,0.5,0],"name":"leg-left-anchor","mesh":18},{"name":"mage","mesh":19},{"name":"leg-left-cosmetic","children":[27,28]},{"name":"cosmetics","children":[2,5,8,11,14,17,20,23,26,29]},{"children":[30]}],"bufferViews":[{"buffer":0,"byteOffset":0,"byteLength":288,"target":34962,"byteStride":12},{"buffer":0,"byteOffset":288,"byteLength":288,"target":34962,"byteStride":12},{"buffer":0,"byteOffset":576,"byteLength":192,"target":34962,"byteStride":8},{"buffer":0,"byteOffset":768,"byteLength":72,"target":34963},{"buffer":0,"byteOffset":840,"byteLength":1872,"target":34962,"byteStride":12},{"buffer":0,"byteOffset":2712,"byteLength":1872,"target":34962,"byteStride":12},{"buffer":0,"byteOffset":4584,"byteLength":1248,"target":34962,"byteStride":8},{"buffer":0,"byteOffset":5832,"byteLength":468,"target":34963},{"buffer":0,"byteOffset":6300,"byteLength":288,"target":34962,"byteStride":12},{"buffer":0,"byteOffset":6588,"byteLength":288,"target":34962,"byteStride":12},{"buffer":0,"byteOffset":6876,"byteLength":192,"target":34962,"byteStride":8},{"buffer":0,"byteOffset":7068,"byteLength":72,"target":34963},{"buffer":0,"byteOffset":7140,"byteLength":288,"target":34962,"byteStride":12},{"buffer":0,"byteOffset":7428,"byteLength":288,"target":34962,"byteStride":12},{"buffer":0,"byteOffset":7716,"byteLength":192,"target":34962,"byteStride":8},{"buffer":0,"byteOffset":7908,"byteLength":72,"target":34963},{"buffer":0,"byteOffset":7980,"byteLength":288,"target":34962,"byteStride":12},{"buffer":0,"byteOffset":8268,"byteLength":288,"target":34962,"byteStride":12},{"buffer":0,"byteOffset":8556,"byteLength":192,"target":34962,"byteStride":8},{"buffer":0,"byteOffset":8748,"byteLength":72,"target":34963},{"buffer":0,"byteOffset":8820,"byteLength":288,"target":34962,"byteStride":12},{"buffer":0,"byteOffset":9108,"byteLength":288,"target":34962,"byteStride":12},{"buffer":0,"byteOffset":9396,"byteLength":192,"target":34962,"byteStride":8},{"buffer":0,"byteOffset":9588,"byteLength":72,"target":34963},{"buffer":0,"byteOffset":9660,"byteLength":288,"target":34962,"byteStride":12},{"buffer":0,"byteOffset":9948,"byteLength":288,"target":34962,"byteStride":12},{"buffer":0,"byteOffset":10236,"byteLength":192,"target":34962,"byteStride":8},{"buffer":0,"byteOffset":10428,"byteLength":72,"target":34963},{"buffer":0,"byteOffset":10500,"byteLength":576,"target":34962,"byteStride":12},{"buffer":0,"byteOffset":11076,"byteLength":576,"target":34962,"byteStride":12},{"buffer":0,"byteOffset":11652,"byteLength":384,"target":34962,"byteStride":8},{"buffer":0,"byteOffset":12036,"byteLength":144,"target":34963},{"buffer":0,"byteOffset":12180,"byteLength":288,"target":34962,"byteStride":12},{"buffer":0,"byteOffset":12468,"byteLength":288,"target":34962,"byteStride":12},{"buffer":0,"byteOffset":12756,"byteLength":192,"target":34962,"byteStride":8},{"buffer":0,"byteOffset":12948,"byteLength":72,"target":34963},{"buffer":0,"byteOffset":13020,"byteLength":288,"target":34962,"byteStride":12},{"buffer":0,"byteOffset":13308,"byteLength":288,"target":34962,"byteStride":12},{"buffer":0,"byteOffset":13596,"byteLength":192,"target":34962,"byteStride":8},{"buffer":0,"byteOffset":13788,"byteLength":72,"target":34963},{"buffer":0,"byteOffset":13860,"byteLength":288,"target":34962,"byteStride":12},{"buffer":0,"byteOffset":14148,"byteLength":288,"target":34962,"byteStride":12},{"buffer":0,"byteOffset":14436,"byteLength":192,"target":34962,"byteStride":8},{"buffer":0,"byteOffset":14628,"byteLength":72,"target":34963},{"buffer":0,"byteOffset":14700,"byteLength":288,"target":34962,"byteStride":12},{"buffer":0,"byteOffset":14988,"byteLength":288,"target":34962,"byteStride":12},{"buffer":0,"byteOffset":15276,"byteLength":192,"target":34962,"byteStride":8},{"buffer":0,"byteOffset":15468,"byteLength":72,"target":34963},{"buffer":0,"byteOffset":15540,"byteLength":288,"target":34962,"byteStride":12},{"buffer":0,"byteOffset":15828,"byteLength":288,"target":34962,"byteStride":12},{"buffer":0,"byteOffset":16116,"byteLength":192,"target":34962,"byteStride":8},{"buffer":0,"byteOffset":16308,"byteLength":72,"target":34963},{"buffer":0,"byteOffset":16380,"byteLength":864,"target":34962,"byteStride":12},{"buffer":0,"byteOffset":17244,"byteLength":864,"target":34962,"byteStride":12},{"buffer":0,"byteOffset":18108,"byteLength":576,"target":34962,"byteStride":8},{"buffer":0,"byteOffset":18684,"byteLength":216,"target":34963},{"buffer":0,"byteOffset":18900,"byteLength":288,"target":34962,"byteStride":12},{"buffer":0,"byteOffset":19188,"byteLength":288,"target":34962,"byteStride":12},{"buffer":0,"byteOffset":19476,"byteLength":192,"target":34962,"byteStride":8},{"buffer":0,"byteOffset":19668,"byteLength":72,"target":34963},{"buffer":0,"byteOffset":19740,"byteLength":864,"target":34962,"byteStride":12},{"buffer":0,"byteOffset":20604,"byteLength":864,"target":34962,"byteStride":12},{"buffer":0,"byteOffset":21468,"byteLength":576,"target":34962,"byteStride":8},{"buffer":0,"byteOffset":22044,"byteLength":216,"target":34963},{"buffer":0,"byteOffset":22260,"byteLength":288,"target":34962,"byteStride":12},{"buffer":0,"byteOffset":22548,"byteLength":288,"target":34962,"byteStride":12},{"buffer":0,"byteOffset":22836,"byteLength":192,"target":34962,"byteStride":8},{"buffer":0,"byteOffset":23028,"byteLength":72,"target":34963},{"buffer":0,"byteOffset":23100,"byteLength":288,"target":34962,"byteStride":12},{"buffer":0,"byteOffset":23388,"byteLength":288,"target":34962,"byteStride":12},{"buffer":0,"byteOffset":23676,"byteLength":192,"target":34962,"byteStride":8},{"buffer":0,"byteOffset":23868,"byteLength":72,"target":34963},{"buffer":0,"byteOffset":23940,"byteLength":288,"target":34962,"byteStride":12},{"buffer":0,"byteOffset":24228,"byteLength":288,"target":34962,"byteStride":12},{"buffer":0,"byteOffset":24516,"byteLength":192,"target":34962,"byteStride":8},{"buffer":0,"byteOffset":24708,"byteLength":72,"target":34963},{"buffer":0,"byteOffset":24780,"byteLength":288,"target":34962,"byteStride":12},{"buffer":0,"byteOffset":25068,"byteLength":288,"target":34962,"byteStride":12},{"buffer":0,"byteOffset":25356,"byteLength":192,"target":34962,"byteStride":8},{"buffer":0,"byteOffset":25548,"byteLength":72,"target":34963}],"buffers":[{"byteLength":25620,"uri":"data:application/octet-stream;base64,"}],"accessors":[{"bufferView":0,"componentType":5126,"count":24,"max":[0.03125,0.0625,0.03125],"min":[-0.03125,0,-0.03125],"type":"VEC3"},{"bufferView":1,"componentType":5126,"count":24,"max":[1,1,1],"min":[-1,-1,-1],"type":"VEC3"},{"bufferView":2,"componentType":5126,"count":24,"max":[0.999875009059906,0.999875009059906],"min":[0.968874990940094,0.984499990940094],"type":"VEC2"},{"bufferView":3,"componentType":5123,"count":36,"max":[23],"min":[0],"type":"SCALAR"},{"bufferView":4,"componentType":5126,"count":156,"max":[0.743718147277832,1.0285112857818604,0.9372268915176392],"min":[-0.3472931385040283,-0.0625,-0.4375],"type":"VEC3"},{"bufferView":5,"componentType":5126,"count":156,"max":[1,0.7071067690849304,1],"min":[-1,-1,-1],"type":"VEC3"},{"bufferView":6,"componentType":5126,"count":156,"max":[0.9375,0.7890625],"min":[0,0],"type":"VEC2"},{"bufferView":7,"componentType":5123,"count":234,"max":[155],"min":[0],"type":"SCALAR"},{"bufferView":8,"componentType":5126,"count":24,"max":[0.03125,0.0625,0.03125],"min":[-0.03125,0,-0.03125],"type":"VEC3"},{"bufferView":9,"componentType":5126,"count":24,"max":[1,1,1],"min":[-1,-1,-1],"type":"VEC3"},{"bufferView":10,"componentType":5126,"count":24,"max":[0.999875009059906,0.999875009059906],"min":[0.968874990940094,0.984499990940094],"type":"VEC2"},{"bufferView":11,"componentType":5123,"count":36,"max":[23],"min":[0],"type":"SCALAR"},{"bufferView":12,"componentType":5126,"count":24,"max":[-0.15625,1.0078125,0.12187500298023224],"min":[-0.375,0.5703125,-0.12812499701976776],"type":"VEC3"},{"bufferView":13,"componentType":5126,"count":24,"max":[1,1,1],"min":[-1,-1,-1],"type":"VEC3"},{"bufferView":14,"componentType":5126,"count":24,"max":[0.5859375,0.5625],"min":[0.3515625,0.390625],"type":"VEC2"},{"bufferView":15,"componentType":5123,"count":36,"max":[23],"min":[0],"type":"SCALAR"},{"bufferView":16,"componentType":5126,"count":24,"max":[0.03125,0.0625,0.03125],"min":[-0.03125,0,-0.03125],"type":"VEC3"},{"bufferView":17,"componentType":5126,"count":24,"max":[1,1,1],"min":[-1,-1,-1],"type":"VEC3"},{"bufferView":18,"componentType":5126,"count":24,"max":[0.999875009059906,0.999875009059906],"min":[0.968874990940094,0.984499990940094],"type":"VEC2"},{"bufferView":19,"componentType":5123,"count":36,"max":[23],"min":[0],"type":"SCALAR"},{"bufferView":20,"componentType":5126,"count":24,"max":[0.375,1.0078125,0.12187500298023224],"min":[0.15625,0.5703125,-0.12812499701976776],"type":"VEC3"},{"bufferView":21,"componentType":5126,"count":24,"max":[1,1,1],"min":[-1,-1,-1],"type":"VEC3"},{"bufferView":22,"componentType":5126,"count":24,"max":[0.5859375,0.5625],"min":[0.3515625,0.390625],"type":"VEC2"},{"bufferView":23,"componentType":5123,"count":36,"max":[23],"min":[0],"type":"SCALAR"},{"bufferView":24,"componentType":5126,"count":24,"max":[0.03125,0.0625,0.03125],"min":[-0.03125,0,-0.03125],"type":"VEC3"},{"bufferView":25,"componentType":5126,"count":24,"max":[1,1,1],"min":[-1,-1,-1],"type":"VEC3"},{"bufferView":26,"componentType":5126,"count":24,"max":[0.999875009059906,0.999875009059906],"min":[0.968874990940094,0.984499990940094],"type":"VEC2"},{"bufferView":27,"componentType":5123,"count":36,"max":[23],"min":[0],"type":"SCALAR"},{"bufferView":28,"componentType":5126,"count":48,"max":[0.203125,1.015625,0.140625],"min":[-0.203125,0.359375,-0.203125],"type":"VEC3"},{"bufferView":29,"componentType":5126,"count":48,"max":[1,1,1],"min":[-1,-1,-1],"type":"VEC3"},{"bufferView":30,"componentType":5126,"count":48,"max":[0.34375,0.5078125],"min":[0,0.2109375],"type":"VEC2"},{"bufferView":31,"componentType":5123,"count":72,"max":[47],"min":[0],"type":"SCALAR"},{"bufferView":32,"componentType":5126,"count":24,"max":[0.03125,0.0625,0.03125],"min":[-0.03125,0,-0.03125],"type":"VEC3"},{"bufferView":33,"componentType":5126,"count":24,"max":[1,1,1],"min":[-1,-1,-1],"type":"VEC3"},{"bufferView":34,"componentType":5126,"count":24,"max":[0.999875009059906,0.999875009059906],"min":[0.968874990940094,0.984499990940094],"type":"VEC2"},{"bufferView":35,"componentType":5123,"count":36,"max":[23],"min":[0],"type":"SCALAR"},{"bufferView":36,"componentType":5126,"count":24,"max":[0.203125,0.6640625,0.10625000298023224],"min":[-0.015625,0.4453125,-0.11249999701976776],"type":"VEC3"},{"bufferView":37,"componentType":5126,"count":24,"max":[1,1,1],"min":[-1,-1,-1],"type":"VEC3"},{"bufferView":38,"componentType":5126,"count":24,"max":[0.21875,0.5625],"min":[0,0.453125],"type":"VEC2"},{"bufferView":39,"componentType":5123,"count":36,"max":[23],"min":[0],"type":"SCALAR"},{"bufferView":40,"componentType":5126,"count":24,"max":[0.03125,0.0625,0.03125],"min":[-0.03125,0,-0.03125],"type":"VEC3"},{"bufferView":41,"componentType":5126,"count":24,"max":[1,1,1],"min":[-1,-1,-1],"type":"VEC3"},{"bufferView":42,"componentType":5126,"count":24,"max":[0.999875009059906,0.999875009059906],"min":[0.968874990940094,0.984499990940094],"type":"VEC2"},{"bufferView":43,"componentType":5123,"count":36,"max":[23],"min":[0],"type":"SCALAR"},{"bufferView":44,"componentType":5126,"count":24,"max":[0.015625,0.6640625,0.10625000298023224],"min":[-0.203125,0.4453125,-0.11249999701976776],"type":"VEC3"},{"bufferView":45,"componentType":5126,"count":24,"max":[1,1,1],"min":[-1,-1,-1],"type":"VEC3"},{"bufferView":46,"componentType":5126,"count":24,"max":[0.21875,0.5625],"min":[0,0.453125],"type":"VEC2"},{"bufferView":47,"componentType":5123,"count":36,"max":[23],"min":[0],"type":"SCALAR"},{"bufferView":48,"componentType":5126,"count":24,"max":[0.03125,0.0625,0.03125],"min":[-0.03125,0,-0.03125],"type":"VEC3"},{"bufferView":49,"componentType":5126,"count":24,"max":[1,1,1],"min":[-1,-1,-1],"type":"VEC3"},{"bufferView":50,"componentType":5126,"count":24,"max":[0.999875009059906,0.999875009059906],"min":[0.968874990940094,0.984499990940094],"type":"VEC2"},{"bufferView":51,"componentType":5123,"count":36,"max":[23],"min":[0],"type":"SCALAR"},{"bufferView":52,"componentType":5126,"count":72,"max":[0.0390625,0.3125,0.125],"min":[-0.2109375,-0.015625,-0.203125],"type":"VEC3"},{"bufferView":53,"componentType":5126,"count":72,"max":[1,1,1],"min":[-1,-1,-1],"type":"VEC3"},{"bufferView":54,"componentType":5126,"count":72,"max":[0.78125,0.7421875],"min":[0,0],"type":"VEC2"},{"bufferView":55,"componentType":5123,"count":108,"max":[71],"min":[0],"type":"SCALAR"},{"bufferView":56,"componentType":5126,"count":24,"max":[0.03125,0.0625,0.03125],"min":[-0.03125,0,-0.03125],"type":"VEC3"},{"bufferView":57,"componentType":5126,"count":24,"max":[1,1,1],"min":[-1,-1,-1],"type":"VEC3"},{"bufferView":58,"componentType":5126,"count":24,"max":[0.999875009059906,0.999875009059906],"min":[0.968874990940094,0.984499990940094],"type":"VEC2"},{"bufferView":59,"componentType":5123,"count":36,"max":[23],"min":[0],"type":"SCALAR"},{"bufferView":60,"componentType":5126,"count":72,"max":[0.2109375,0.3125,0.125],"min":[-0.0390625,-0.015625,-0.203125],"type":"VEC3"},{"bufferView":61,"componentType":5126,"count":72,"max":[1,1,1],"min":[-1,-1,-1],"type":"VEC3"},{"bufferView":62,"componentType":5126,"count":72,"max":[0.78125,0.7421875],"min":[0,0],"type":"VEC2"},{"bufferView":63,"componentType":5123,"count":108,"max":[71],"min":[0],"type":"SCALAR"},{"bufferView":64,"componentType":5126,"count":24,"max":[0.03125,0.0625,0.03125],"min":[-0.03125,0,-0.03125],"type":"VEC3"},{"bufferView":65,"componentType":5126,"count":24,"max":[1,1,1],"min":[-1,-1,-1],"type":"VEC3"},{"bufferView":66,"componentType":5126,"count":24,"max":[0.999875009059906,0.999875009059906],"min":[0.968874990940094,0.984499990940094],"type":"VEC2"},{"bufferView":67,"componentType":5123,"count":36,"max":[23],"min":[0],"type":"SCALAR"},{"bufferView":68,"componentType":5126,"count":24,"max":[0.19374999403953552,0.5546875,0.10625000298023224],"min":[-0.01875000074505806,0.18593749403953552,-0.10625000298023224],"type":"VEC3"},{"bufferView":69,"componentType":5126,"count":24,"max":[1,1,1],"min":[-1,-1,-1],"type":"VEC3"},{"bufferView":70,"componentType":5126,"count":24,"max":[0.6640625,0.1484375],"min":[0.4453125,0],"type":"VEC2"},{"bufferView":71,"componentType":5123,"count":36,"max":[23],"min":[0],"type":"SCALAR"},{"bufferView":72,"componentType":5126,"count":24,"max":[0.03125,0.0625,0.03125],"min":[-0.03125,0,-0.03125],"type":"VEC3"},{"bufferView":73,"componentType":5126,"count":24,"max":[1,1,1],"min":[-1,-1,-1],"type":"VEC3"},{"bufferView":74,"componentType":5126,"count":24,"max":[0.999875009059906,0.999875009059906],"min":[0.968874990940094,0.984499990940094],"type":"VEC2"},{"bufferView":75,"componentType":5123,"count":36,"max":[23],"min":[0],"type":"SCALAR"},{"bufferView":76,"componentType":5126,"count":24,"max":[0.01875000074505806,0.5546875,0.10625000298023224],"min":[-0.19374999403953552,0.18593749403953552,-0.10625000298023224],"type":"VEC3"},{"bufferView":77,"componentType":5126,"count":24,"max":[1,1,1],"min":[-1,-1,-1],"type":"VEC3"},{"bufferView":78,"componentType":5126,"count":24,"max":[0.6640625,0.1484375],"min":[0.4453125,0],"type":"VEC2"},{"bufferView":79,"componentType":5123,"count":36,"max":[23],"min":[0],"type":"SCALAR"}],"materials":[{"pbrMetallicRoughness":{"metallicFactor":0,"roughnessFactor":1,"baseColorTexture":{"index":0}},"alphaMode":"MASK","alphaCutoff":0.05,"doubleSided":true},{"pbrMetallicRoughness":{"metallicFactor":0,"roughnessFactor":1,"baseColorTexture":{"index":1}},"alphaMode":"MASK","alphaCutoff":0.05,"doubleSided":true}],"textures":[{"sampler":0,"source":0,"name":"player-texture-template.png"},{"sampler":1,"source":1,"name":"mage"}],"samplers":[{"magFilter":9728,"minFilter":9728,"wrapS":33071,"wrapT":33071},{"magFilter":9728,"minFilter":9728,"wrapS":33071,"wrapT":33071}],"images":[{"mimeType":"image/png","uri":"data:image/png;base64,"},{"mimeType":"image/png","uri":"data:image/png;base64,"}],"meshes":[{"primitives":[{"mode":4,"attributes":{"POSITION":0,"NORMAL":1,"TEXCOORD_0":2},"indices":3,"material":0}]},{"primitives":[{"mode":4,"attributes":{"POSITION":4,"NORMAL":5,"TEXCOORD_0":6},"indices":7,"material":1}]},{"primitives":[{"mode":4,"attributes":{"POSITION":8,"NORMAL":9,"TEXCOORD_0":10},"indices":11,"material":0}]},{"primitives":[{"mode":4,"attributes":{"POSITION":12,"NORMAL":13,"TEXCOORD_0":14},"indices":15,"material":1}]},{"primitives":[{"mode":4,"attributes":{"POSITION":16,"NORMAL":17,"TEXCOORD_0":18},"indices":19,"material":0}]},{"primitives":[{"mode":4,"attributes":{"POSITION":20,"NORMAL":21,"TEXCOORD_0":22},"indices":23,"material":1}]},{"primitives":[{"mode":4,"attributes":{"POSITION":24,"NORMAL":25,"TEXCOORD_0":26},"indices":27,"material":0}]},{"primitives":[{"mode":4,"attributes":{"POSITION":28,"NORMAL":29,"TEXCOORD_0":30},"indices":31,"material":1}]},{"primitives":[{"mode":4,"attributes":{"POSITION":32,"NORMAL":33,"TEXCOORD_0":34},"indices":35,"material":0}]},{"primitives":[{"mode":4,"attributes":{"POSITION":36,"NORMAL":37,"TEXCOORD_0":38},"indices":39,"material":1}]},{"primitives":[{"mode":4,"attributes":{"POSITION":40,"NORMAL":41,"TEXCOORD_0":42},"indices":43,"material":0}]},{"primitives":[{"mode":4,"attributes":{"POSITION":44,"NORMAL":45,"TEXCOORD_0":46},"indices":47,"material":1}]},{"primitives":[{"mode":4,"attributes":{"POSITION":48,"NORMAL":49,"TEXCOORD_0":50},"indices":51,"material":0}]},{"primitives":[{"mode":4,"attributes":{"POSITION":52,"NORMAL":53,"TEXCOORD_0":54},"indices":55,"material":1}]},{"primitives":[{"mode":4,"attributes":{"POSITION":56,"NORMAL":57,"TEXCOORD_0":58},"indices":59,"material":0}]},{"primitives":[{"mode":4,"attributes":{"POSITION":60,"NORMAL":61,"TEXCOORD_0":62},"indices":63,"material":1}]},{"primitives":[{"mode":4,"attributes":{"POSITION":64,"NORMAL":65,"TEXCOORD_0":66},"indices":67,"material":0}]},{"primitives":[{"mode":4,"attributes":{"POSITION":68,"NORMAL":69,"TEXCOORD_0":70},"indices":71,"material":1}]},{"primitives":[{"mode":4,"attributes":{"POSITION":72,"NORMAL":73,"TEXCOORD_0":74},"indices":75,"material":0}]},{"primitives":[{"mode":4,"attributes":{"POSITION":76,"NORMAL":77,"TEXCOORD_0":78},"indices":79,"material":1}]}]}