{
  "asset": {
    "generator": "glTF-Transform v4.2.1",
    "version": "2.0"
  },
  "accessors": [
    {
      "type": "SCALAR",
      "componentType": 5123,
      "count": 216,
      "bufferView": 0,
      "byteOffset": 0
    },
    {
      "type": "SCALAR",
      "componentType": 5123,
      "count": 324,
      "bufferView": 0,
      "byteOffset": 432
    },
    {
      "type": "SCALAR",
      "componentType": 5123,
      "count": 48,
      "bufferView": 0,
      "byteOffset": 1080
    },
    {
      "type": "SCALAR",
      "componentType": 5123,
      "count": 156,
      "bufferView": 0,
      "byteOffset": 1176
    },
    {
      "type": "SCALAR",
      "componentType": 5123,
      "count": 180,
      "bufferView": 0,
      "byteOffset": 1488
    },
    {
      "type": "SCALAR",
      "componentType": 5123,
      "count": 144,
      "bufferView": 0,
      "byteOffset": 1848
    },
    {
      "type": "VEC3",
      "componentType": 5126,
      "count": 144,
      "max": [
        0.5625,
        5.6875,
        0.5
      ],
      "min": [
        -0.375,
        0,
        -0.375
      ],
      "bufferView": 1,
      "byteOffset": 0
    },
    {
      "type": "VEC3",
      "componentType": 5126,
      "count": 144,
      "bufferView": 1,
      "byteOffset": 12
    },
    {
      "type": "VEC2",
      "componentType": 5126,
      "count": 144,
      "bufferView": 1,
      "byteOffset": 24
    },
    {
      "type": "VEC3",
      "componentType": 5126,
      "count": 216,
      "max": [
        -0.25,
        4.75,
        0.5
      ],
      "min": [
        -2.125,
        3.4375,
        -0.375
      ],
      "bufferView": 2,
      "byteOffset": 0
    },
    {
      "type": "VEC2",
      "componentType": 5126,
      "count": 216,
      "bufferView": 2,
      "byteOffset": 12
    },
    {
      "type": "VEC3",
      "componentType": 5126,
      "count": 216,
      "bufferView": 2,
      "byteOffset": 20
    },
    {
      "type": "VEC3",
      "componentType": 5126,
      "count": 32,
      "max": [
        -0.8845419883728027,
        6,
        0.56919264793396
      ],
      "min": [
        -1.9904580116271973,
        4.5,
        -0.44419264793395996
      ],
      "bufferView": 3,
      "byteOffset": 0
    },
    {
      "type": "VEC2",
      "componentType": 5126,
      "count": 32,
      "bufferView": 3,
      "byteOffset": 12
    },
    {
      "type": "VEC3",
      "componentType": 5126,
      "count": 32,
      "bufferView": 3,
      "byteOffset": 20
    },
    {
      "type": "VEC3",
      "componentType": 5126,
      "count": 32,
      "max": [
        -0.8845419883728027,
        6,
        0.56919264793396
      ],
      "min": [
        -1.9904580116271973,
        4.5,
        -0.44419264793395996
      ],
      "bufferView": 4,
      "byteOffset": 0
    },
    {
      "type": "VEC3",
      "componentType": 5126,
      "count": 32,
      "bufferView": 4,
      "byteOffset": 12
    },
    {
      "type": "VEC3",
      "componentType": 5126,
      "count": 104,
      "max": [
        0.5529580116271973,
        0.88169264793396,
        2.6875
      ],
      "min": [
        -0.5529580116271973,
        -0.13169266283512115,
        -0.1875
      ],
      "bufferView": 5,
      "byteOffset": 0
    },
    {
      "type": "VEC2",
      "componentType": 5126,
      "count": 104,
      "bufferView": 5,
      "byteOffset": 12
    },
    {
      "type": "VEC3",
      "componentType": 5126,
      "count": 104,
      "bufferView": 5,
      "byteOffset": 20
    },
    {
      "type": "VEC3",
      "componentType": 5126,
      "count": 216,
      "max": [
        2.25,
        4.75,
        0.375
      ],
      "min": [
        0.375,
        3.4375,
        -0.4375
      ],
      "bufferView": 6,
      "byteOffset": 0
    },
    {
      "type": "VEC2",
      "componentType": 5126,
      "count": 216,
      "bufferView": 6,
      "byteOffset": 12
    },
    {
      "type": "VEC3",
      "componentType": 5126,
      "count": 120,
      "max": [
        0.125,
        4.4375,
        2.125
      ],
      "min": [
        -0.25,
        3.4375,
        0.25
      ],
      "bufferView": 7,
      "byteOffset": 0
    },
    {
      "type": "VEC3",
      "componentType": 5126,
      "count": 120,
      "bufferView": 7,
      "byteOffset": 12
    },
    {
      "type": "VEC2",
      "componentType": 5126,
      "count": 120,
      "bufferView": 7,
      "byteOffset": 24
    },
    {
      "type": "VEC3",
      "componentType": 5126,
      "count": 96,
      "max": [
        -1.125,
        4.75,
        0.0625
      ],
      "min": [
        -2.125,
        3.5625,
        -0.1875
      ],
      "bufferView": 8,
      "byteOffset": 0
    },
    {
      "type": "VEC2",
      "componentType": 5126,
      "count": 96,
      "bufferView": 8,
      "byteOffset": 12
    },
    {
      "type": "VEC3",
      "componentType": 5126,
      "count": 96,
      "bufferView": 8,
      "byteOffset": 20
    },
    {
      "type": "VEC3",
      "componentType": 5126,
      "count": 120,
      "max": [
        0.25,
        4.4375,
        -0.25
      ],
      "min": [
        -0.125,
        3.4375,
        -2.125
      ],
      "bufferView": 9,
      "byteOffset": 0
    },
    {
      "type": "VEC2",
      "componentType": 5126,
      "count": 120,
      "bufferView": 9,
      "byteOffset": 12
    },
    {
      "type": "VEC3",
      "componentType": 5126,
      "count": 96,
      "max": [
        2.125,
        4.75,
        0.1875
      ],
      "min": [
        1.125,
        3.5625,
        -0.0625
      ],
      "bufferView": 10,
      "byteOffset": 0
    },
    {
      "type": "VEC2",
      "componentType": 5126,
      "count": 96,
      "bufferView": 10,
      "byteOffset": 12
    },
    {
      "type": "VEC3",
      "componentType": 5126,
      "count": 32,
      "max": [
        -0.8845419883728027,
        6.0625,
        0.56919264793396
      ],
      "min": [
        -1.9904580116271973,
        4.5,
        -0.44419264793395996
      ],
      "bufferView": 11,
      "byteOffset": 0
    },
    {
      "type": "SCALAR",
      "componentType": 5126,
      "count": 38,
      "max": [
        6
      ],
      "min": [
        0
      ],
      "bufferView": 12,
      "byteOffset": 0
    },
    {
      "type": "VEC4",
      "componentType": 5126,
      "count": 38,
      "bufferView": 12,
      "byteOffset": 152
    },
    {
      "type": "VEC4",
      "componentType": 5126,
      "count": 38,
      "bufferView": 12,
      "byteOffset": 760
    },
    {
      "type": "VEC4",
      "componentType": 5126,
      "count": 38,
      "bufferView": 12,
      "byteOffset": 1368
    }
  ],
  "bufferViews": [
    {
      "buffer": 0,
      "byteOffset": 0,
      "byteLength": 2136,
      "target": 34963
    },
    {
      "buffer": 0,
      "byteOffset": 2136,
      "byteLength": 4608,
      "byteStride": 32,
      "target": 34962
    },
    {
      "buffer": 0,
      "byteOffset": 6744,
      "byteLength": 6912,
      "byteStride": 32,
      "target": 34962
    },
    {
      "buffer": 0,
      "byteOffset": 13656,
      "byteLength": 1024,
      "byteStride": 32,
      "target": 34962
    },
    {
      "buffer": 0,
      "byteOffset": 14680,
      "byteLength": 768,
      "byteStride": 24,
      "target": 34962
    },
    {
      "buffer": 0,
      "byteOffset": 15448,
      "byteLength": 3328,
      "byteStride": 32,
      "target": 34962
    },
    {
      "buffer": 0,
      "byteOffset": 18776,
      "byteLength": 4320,
      "byteStride": 20,
      "target": 34962
    },
    {
      "buffer": 0,
      "byteOffset": 23096,
      "byteLength": 3840,
      "byteStride": 32,
      "target": 34962
    },
    {
      "buffer": 0,
      "byteOffset": 26936,
      "byteLength": 3072,
      "byteStride": 32,
      "target": 34962
    },
    {
      "buffer": 0,
      "byteOffset": 30008,
      "byteLength": 2400,
      "byteStride": 20,
      "target": 34962
    },
    {
      "buffer": 0,
      "byteOffset": 32408,
      "byteLength": 1920,
      "byteStride": 20,
      "target": 34962
    },
    {
      "buffer": 0,
      "byteOffset": 34328,
      "byteLength": 384,
      "byteStride": 12,
      "target": 34962
    },
    {
      "buffer": 0,
      "byteOffset": 34712,
      "byteLength": 1976
    }
  ],
  "samplers": [
    {
      "magFilter": 9728,
      "minFilter": 9728,
      "wrapS": 33071,
      "wrapT": 33071
    }
  ],
  "textures": [
    {
      "source": 0,
      "sampler": 0
    }
  ],
  "images": [
    {
      "mimeType": "image/png",
      "uri": "baseColor.png"
    }
  ],
  "buffers": [
    {
      "uri": "oak-tree-big.bin",
      "byteLength": 36688
    }
  ],
  "materials": [
    {
      "alphaMode": "MASK",
      "alphaCutoff": 0.05,
      "doubleSided": true,
      "pbrMetallicRoughness": {
        "metallicFactor": 0,
        "baseColorTexture": {
          "index": 0
        }
      }
    }
  ],
  "meshes": [
    {
      "primitives": [
        {
          "attributes": {
            "POSITION": 6,
            "NORMAL": 7,
            "TEXCOORD_0": 8
          },
          "mode": 4,
          "material": 0,
          "indices": 0
        }
      ]
    },
    {
      "primitives": [
        {
          "attributes": {
            "POSITION": 9,
            "TEXCOORD_0": 10,
            "NORMAL": 11
          },
          "mode": 4,
          "material": 0,
          "indices": 1
        }
      ]
    },
    {
      "primitives": [
        {
          "attributes": {
            "POSITION": 12,
            "TEXCOORD_0": 13,
            "NORMAL": 14
          },
          "mode": 4,
          "material": 0,
          "indices": 2
        }
      ]
    },
    {
      "primitives": [
        {
          "attributes": {
            "POSITION": 15,
            "NORMAL": 16,
            "TEXCOORD_0": 13
          },
          "mode": 4,
          "material": 0,
          "indices": 2
        }
      ]
    },
    {
      "primitives": [
        {
          "attributes": {
            "POSITION": 17,
            "TEXCOORD_0": 18,
            "NORMAL": 19
          },
          "mode": 4,
          "material": 0,
          "indices": 3
        }
      ]
    },
    {
      "primitives": [
        {
          "attributes": {
            "POSITION": 20,
            "TEXCOORD_0": 21,
            "NORMAL": 11
          },
          "mode": 4,
          "material": 0,
          "indices": 1
        }
      ]
    },
    {
      "primitives": [
        {
          "attributes": {
            "POSITION": 22,
            "NORMAL": 23,
            "TEXCOORD_0": 24
          },
          "mode": 4,
          "material": 0,
          "indices": 4
        }
      ]
    },
    {
      "primitives": [
        {
          "attributes": {
            "POSITION": 25,
            "TEXCOORD_0": 26,
            "NORMAL": 27
          },
          "mode": 4,
          "material": 0,
          "indices": 5
        }
      ]
    },
    {
      "primitives": [
        {
          "attributes": {
            "POSITION": 28,
            "TEXCOORD_0": 29,
            "NORMAL": 23
          },
          "mode": 4,
          "material": 0,
          "indices": 4
        }
      ]
    },
    {
      "primitives": [
        {
          "attributes": {
            "POSITION": 30,
            "TEXCOORD_0": 31,
            "NORMAL": 27
          },
          "mode": 4,
          "material": 0,
          "indices": 5
        }
      ]
    },
    {
      "primitives": [
        {
          "attributes": {
            "POSITION": 15,
            "NORMAL": 16,
            "TEXCOORD_0": 13
          },
          "mode": 4,
          "material": 0,
          "indices": 2
        }
      ]
    },
    {
      "primitives": [
        {
          "attributes": {
            "POSITION": 15,
            "NORMAL": 16,
            "TEXCOORD_0": 13
          },
          "mode": 4,
          "material": 0,
          "indices": 2
        }
      ]
    },
    {
      "primitives": [
        {
          "attributes": {
            "POSITION": 15,
            "NORMAL": 16,
            "TEXCOORD_0": 13
          },
          "mode": 4,
          "material": 0,
          "indices": 2
        }
      ]
    },
    {
      "primitives": [
        {
          "attributes": {
            "POSITION": 15,
            "NORMAL": 16,
            "TEXCOORD_0": 13
          },
          "mode": 4,
          "material": 0,
          "indices": 2
        }
      ]
    },
    {
      "primitives": [
        {
          "attributes": {
            "POSITION": 15,
            "NORMAL": 16,
            "TEXCOORD_0": 13
          },
          "mode": 4,
          "material": 0,
          "indices": 2
        }
      ]
    },
    {
      "primitives": [
        {
          "attributes": {
            "POSITION": 15,
            "NORMAL": 16,
            "TEXCOORD_0": 13
          },
          "mode": 4,
          "material": 0,
          "indices": 2
        }
      ]
    },
    {
      "primitives": [
        {
          "attributes": {
            "POSITION": 15,
            "NORMAL": 16,
            "TEXCOORD_0": 13
          },
          "mode": 4,
          "material": 0,
          "indices": 2
        }
      ]
    },
    {
      "primitives": [
        {
          "attributes": {
            "POSITION": 15,
            "NORMAL": 16,
            "TEXCOORD_0": 13
          },
          "mode": 4,
          "material": 0,
          "indices": 2
        }
      ]
    },
    {
      "primitives": [
        {
          "attributes": {
            "POSITION": 32,
            "NORMAL": 14,
            "TEXCOORD_0": 13
          },
          "mode": 4,
          "material": 0,
          "indices": 2
        }
      ]
    },
    {
      "primitives": [
        {
          "attributes": {
            "POSITION": 15,
            "NORMAL": 16,
            "TEXCOORD_0": 13
          },
          "mode": 4,
          "material": 0,
          "indices": 2
        }
      ]
    }
  ],
  "nodes": [
    {
      "name": "cube",
      "translation": [
        -0.0625,
        0,
        -0.0625
      ],
      "mesh": 0
    },
    {
      "name": "cube",
      "translation": [
        0.25,
        -3.625,
        -0.0625
      ],
      "mesh": 1
    },
    {
      "name": "cube",
      "translation": [
        -2.875,
        -4.9375,
        -0.0625
      ],
      "mesh": 2
    },
    {
      "name": "bone2",
      "translation": [
        2.6875,
        1.25,
        0
      ],
      "children": [
        2
      ]
    },
    {
      "name": "cube",
      "translation": [
        1.4375,
        -5.25,
        -0.0625
      ],
      "mesh": 10
    },
    {
      "name": "bone13",
      "translation": [
        -0.625,
        0.4375,
        0.875
      ],
      "children": [
        4
      ]
    },
    {
      "name": "cube",
      "translation": [
        1.4375,
        -5.25,
        -0.0625
      ],
      "mesh": 11
    },
    {
      "name": "bone14",
      "translation": [
        -0.625,
        0.375,
        -0.875
      ],
      "children": [
        6
      ]
    },
    {
      "name": "branch_1",
      "translation": [
        -0.3125,
        3.625,
        0
      ],
      "children": [
        1,
        3,
        5,
        7
      ]
    },
    {
      "name": "cube",
      "translation": [
        0,
        -1.9375,
        0.375
      ],
      "rotation": [
        -0.7071067811865475,
        0,
        0,
        0.7071067811865476
      ],
      "mesh": 4
    },
    {
      "name": "bone",
      "translation": [
        -1.3032994041808674e-15,
        2.125,
        -0.1875
      ],
      "children": [
        9
      ]
    },
    {
      "name": "bone9",
      "translation": [
        0,
        5.375,
        0.1875
      ],
      "children": [
        10
      ]
    },
    {
      "name": "cube",
      "translation": [
        -0.375,
        -3.625,
        0.125
      ],
      "mesh": 5
    },
    {
      "name": "cube",
      "translation": [
        1.4375,
        -4.75,
        0.375
      ],
      "mesh": 12
    },
    {
      "name": "bone3",
      "translation": [
        2.125,
        1.0625,
        0.1875
      ],
      "rotation": [
        0,
        -0.7071067811865475,
        0,
        0.7071067811865476
      ],
      "children": [
        13
      ]
    },
    {
      "name": "cube",
      "translation": [
        1.4375,
        -5.25,
        -0.0625
      ],
      "mesh": 13
    },
    {
      "name": "bone4",
      "translation": [
        0.5625,
        0.8125,
        0.4375
      ],
      "rotation": [
        -2.1684043449710089e-16,
        -0.7071067811865475,
        -2.168404344971009e-16,
        0.7071067811865476
      ],
      "children": [
        15
      ]
    },
    {
      "name": "cube",
      "translation": [
        1.4375,
        -5.25,
        -0.0625
      ],
      "mesh": 14
    },
    {
      "name": "bone15",
      "translation": [
        0.625,
        0,
        -0.75
      ],
      "rotation": [
        -2.1684043449710089e-16,
        -0.7071067811865475,
        -2.168404344971009e-16,
        0.7071067811865476
      ],
      "children": [
        17
      ]
    },
    {
      "name": "branch_2",
      "translation": [
        0.3125,
        3.625,
        -0.0625
      ],
      "children": [
        12,
        14,
        16,
        18
      ]
    },
    {
      "name": "cube",
      "translation": [
        0.0625,
        -3.625,
        -0.25
      ],
      "mesh": 6
    },
    {
      "name": "cube",
      "translation": [
        1.4374999999999998,
        -5.25,
        -0.0625
      ],
      "mesh": 15
    },
    {
      "name": "bone5",
      "translation": [
        0.06249999999999993,
        1.25,
        1.3125
      ],
      "rotation": [
        -3.0665868333667483e-16,
        -1,
        -1.877742874895003e-32,
        6.123233995736766e-17
      ],
      "children": [
        21
      ]
    },
    {
      "name": "cube",
      "translation": [
        1.4375,
        -5.25,
        -0.0625
      ],
      "mesh": 16
    },
    {
      "name": "bone6",
      "translation": [
        -1.1875,
        1.375,
        0.625
      ],
      "rotation": [
        2.1684043449710089e-16,
        0.7071067811865475,
        -2.168404344971009e-16,
        0.7071067811865476
      ],
      "children": [
        23
      ]
    },
    {
      "name": "cube",
      "translation": [
        1.4375,
        -5.250000000000001,
        -0.0625
      ],
      "mesh": 17
    },
    {
      "name": "bone16",
      "translation": [
        0.6875,
        0.9375000000000009,
        0
      ],
      "rotation": [
        -2.1684043449710089e-16,
        -0.7071067811865475,
        -2.168404344971009e-16,
        0.7071067811865476
      ],
      "children": [
        25
      ]
    },
    {
      "name": "cube",
      "translation": [
        1.9375,
        -4.364583333333333,
        0.0625
      ],
      "mesh": 7
    },
    {
      "name": "bone7",
      "translation": [
        -1,
        0.614583333333333,
        0.625
      ],
      "children": [
        27
      ]
    },
    {
      "name": "branch_3",
      "translation": [
        0,
        5.1875,
        0.25
      ],
      "children": [
        20,
        22,
        24,
        26,
        28
      ]
    },
    {
      "name": "cube",
      "translation": [
        -0.0625,
        -3.625,
        0.25
      ],
      "mesh": 8
    },
    {
      "name": "cube",
      "translation": [
        1.4375,
        -5.3125,
        -0.0625
      ],
      "mesh": 18
    },
    {
      "name": "bone11",
      "translation": [
        -0.125,
        1.3125,
        -1.5625
      ],
      "rotation": [
        -2.1684043449710089e-16,
        -0.7071067811865475,
        -2.168404344971009e-16,
        0.7071067811865476
      ],
      "children": [
        31
      ]
    },
    {
      "name": "cube",
      "translation": [
        1.3125,
        -5.25,
        -0.0625
      ],
      "mesh": 19
    },
    {
      "name": "bone12",
      "translation": [
        1,
        0.875,
        -0.625
      ],
      "rotation": [
        -2.1684043449710089e-16,
        -0.7071067811865475,
        -2.168404344971009e-16,
        0.7071067811865476
      ],
      "children": [
        33
      ]
    },
    {
      "name": "cube",
      "translation": [
        1.4375,
        -5.249999999999999,
        -0.0625
      ],
      "mesh": 3
    },
    {
      "name": "bone17",
      "translation": [
        -0.5625,
        1.2499999999999991,
        -0.375
      ],
      "rotation": [
        -3.0665868333667483e-16,
        -1,
        -1.877742874895003e-32,
        6.123233995736766e-17
      ],
      "children": [
        35
      ]
    },
    {
      "name": "cube",
      "translation": [
        -1.9375,
        -4.364583333333333,
        -0.0625
      ],
      "mesh": 9
    },
    {
      "name": "bone10",
      "translation": [
        1,
        0.614583333333333,
        -0.625
      ],
      "children": [
        37
      ]
    },
    {
      "name": "branch_4",
      "translation": [
        0,
        4.6875,
        -0.25
      ],
      "children": [
        30,
        32,
        34,
        36,
        38
      ]
    },
    {
      "name": "root",
      "children": [
        8,
        11,
        19,
        29,
        39
      ]
    }
  ],
  "animations": [
    {
      "name": "idle",
      "samplers": [
        {
          "input": 33,
          "output": 34,
          "interpolation": "LINEAR"
        },
        {
          "input": 33,
          "output": 35,
          "interpolation": "LINEAR"
        },
        {
          "input": 33,
          "output": 36,
          "interpolation": "LINEAR"
        },
        {
          "input": 33,
          "output": 34,
          "interpolation": "LINEAR"
        },
        {
          "input": 33,
          "output": 34,
          "interpolation": "LINEAR"
        }
      ],
      "channels": [
        {
          "sampler": 0,
          "target": {
            "node": 8,
            "path": "rotation"
          }
        },
        {
          "sampler": 1,
          "target": {
            "node": 11,
            "path": "rotation"
          }
        },
        {
          "sampler": 2,
          "target": {
            "node": 19,
            "path": "rotation"
          }
        },
        {
          "sampler": 3,
          "target": {
            "node": 29,
            "path": "rotation"
          }
        },
        {
          "sampler": 4,
          "target": {
            "node": 39,
            "path": "rotation"
          }
        }
      ]
    }
  ],
  "scenes": [
    {
      "name": "blockbench_export",
      "nodes": [
        40,
        0
      ]
    }
  ],
  "scene": 0
}