{
  "asset": {
    "generator": "glTF-Transform v4.2.1",
    "version": "2.0"
  },
  "accessors": [
    {
      "type": "SCALAR",
      "componentType": 5123,
      "count": 114,
      "bufferView": 0,
      "byteOffset": 0
    },
    {
      "type": "SCALAR",
      "componentType": 5123,
      "count": 90,
      "bufferView": 0,
      "byteOffset": 228
    },
    {
      "type": "SCALAR",
      "componentType": 5123,
      "count": 84,
      "bufferView": 0,
      "byteOffset": 408
    },
    {
      "type": "SCALAR",
      "componentType": 5123,
      "count": 96,
      "bufferView": 0,
      "byteOffset": 576
    },
    {
      "type": "SCALAR",
      "componentType": 5123,
      "count": 12,
      "bufferView": 0,
      "byteOffset": 768
    },
    {
      "type": "SCALAR",
      "componentType": 5123,
      "count": 6,
      "bufferView": 0,
      "byteOffset": 792
    },
    {
      "type": "SCALAR",
      "componentType": 5123,
      "count": 96,
      "bufferView": 0,
      "byteOffset": 804
    },
    {
      "type": "VEC3",
      "componentType": 5126,
      "count": 76,
      "max": [
        0.43223997950553894,
        2.8125,
        0.1875
      ],
      "min": [
        -0.0625,
        0,
        -0.0625
      ],
      "bufferView": 1,
      "byteOffset": 0
    },
    {
      "type": "VEC3",
      "componentType": 5126,
      "count": 76,
      "bufferView": 1,
      "byteOffset": 12
    },
    {
      "type": "VEC2",
      "componentType": 5126,
      "count": 76,
      "bufferView": 1,
      "byteOffset": 24
    },
    {
      "type": "VEC3",
      "componentType": 5126,
      "count": 60,
      "max": [
        0.4199724793434143,
        0.75,
        0.6106551289558411
      ],
      "min": [
        -0.3192491829395294,
        -0.3834948241710663,
        -0.4880567491054535
      ],
      "bufferView": 2,
      "byteOffset": 0
    },
    {
      "type": "VEC3",
      "componentType": 5126,
      "count": 60,
      "bufferView": 2,
      "byteOffset": 12
    },
    {
      "type": "VEC2",
      "componentType": 5126,
      "count": 60,
      "bufferView": 2,
      "byteOffset": 24
    },
    {
      "type": "VEC3",
      "componentType": 5126,
      "count": 56,
      "max": [
        0.09375,
        0.75,
        0.4831967055797577
      ],
      "min": [
        -0.21903061866760254,
        -0.32966044545173645,
        -0.6091679334640503
      ],
      "bufferView": 3,
      "byteOffset": 0
    },
    {
      "type": "VEC2",
      "componentType": 5126,
      "count": 56,
      "bufferView": 3,
      "byteOffset": 12
    },
    {
      "type": "VEC3",
      "componentType": 5126,
      "count": 56,
      "bufferView": 3,
      "byteOffset": 20
    },
    {
      "type": "VEC3",
      "componentType": 5126,
      "count": 64,
      "max": [
        0.16082000732421875,
        0.7597662210464478,
        0.4831967055797577
      ],
      "min": [
        -0.27667999267578125,
        -0.32966044545173645,
        -0.6091685891151428
      ],
      "bufferView": 4,
      "byteOffset": 0
    },
    {
      "type": "VEC2",
      "componentType": 5126,
      "count": 64,
      "bufferView": 4,
      "byteOffset": 12
    },
    {
      "type": "VEC3",
      "componentType": 5126,
      "count": 64,
      "bufferView": 4,
      "byteOffset": 20
    },
    {
      "type": "VEC3",
      "componentType": 5126,
      "count": 64,
      "max": [
        0.27667999267578125,
        0.7597662210464478,
        0.6091685891151428
      ],
      "min": [
        -0.16082000732421875,
        -0.32966044545173645,
        -0.4831967055797577
      ],
      "bufferView": 5,
      "byteOffset": 0
    },
    {
      "type": "VEC2",
      "componentType": 5126,
      "count": 64,
      "bufferView": 5,
      "byteOffset": 12
    },
    {
      "type": "VEC3",
      "componentType": 5126,
      "count": 64,
      "bufferView": 5,
      "byteOffset": 20
    },
    {
      "type": "VEC3",
      "componentType": 5126,
      "count": 60,
      "max": [
        0.09375,
        0.6972662210464478,
        0.6091685891151428
      ],
      "min": [
        -0.3260537087917328,
        -0.32966044545173645,
        -0.4831967055797577
      ],
      "bufferView": 6,
      "byteOffset": 0
    },
    {
      "type": "VEC2",
      "componentType": 5126,
      "count": 60,
      "bufferView": 6,
      "byteOffset": 12
    },
    {
      "type": "VEC3",
      "componentType": 5126,
      "count": 60,
      "bufferView": 6,
      "byteOffset": 20
    },
    {
      "type": "VEC3",
      "componentType": 5126,
      "count": 64,
      "max": [
        0.14044561982154846,
        0.75,
        0.6091679334640503
      ],
      "min": [
        -0.29705438017845154,
        -0.32966044545173645,
        -0.4831967055797577
      ],
      "bufferView": 7,
      "byteOffset": 0
    },
    {
      "type": "VEC2",
      "componentType": 5126,
      "count": 64,
      "bufferView": 7,
      "byteOffset": 12
    },
    {
      "type": "VEC3",
      "componentType": 5126,
      "count": 64,
      "bufferView": 7,
      "byteOffset": 20
    },
    {
      "type": "VEC3",
      "componentType": 5126,
      "count": 60,
      "max": [
        0.28153061866760254,
        0.75,
        0.4831967055797577
      ],
      "min": [
        -0.15596938133239746,
        -0.32917481660842896,
        -0.6081966757774353
      ],
      "bufferView": 8,
      "byteOffset": 0
    },
    {
      "type": "VEC2",
      "componentType": 5126,
      "count": 60,
      "bufferView": 8,
      "byteOffset": 12
    },
    {
      "type": "VEC3",
      "componentType": 5126,
      "count": 60,
      "bufferView": 8,
      "byteOffset": 20
    },
    {
      "type": "VEC3",
      "componentType": 5126,
      "count": 64,
      "max": [
        0.17169561982154846,
        0.75,
        0.4831967055797577
      ],
      "min": [
        -0.26580438017845154,
        -0.32966044545173645,
        -0.6091679334640503
      ],
      "bufferView": 9,
      "byteOffset": 0
    },
    {
      "type": "VEC3",
      "componentType": 5126,
      "count": 64,
      "bufferView": 9,
      "byteOffset": 12
    },
    {
      "type": "VEC2",
      "componentType": 5126,
      "count": 64,
      "bufferView": 9,
      "byteOffset": 24
    },
    {
      "type": "VEC3",
      "componentType": 5126,
      "count": 8,
      "max": [
        0.14062514901161194,
        0.1875,
        0.25
      ],
      "min": [
        -0.17187485098838806,
        -0.125,
        -1
      ],
      "bufferView": 10,
      "byteOffset": 0
    },
    {
      "type": "VEC2",
      "componentType": 5126,
      "count": 8,
      "bufferView": 10,
      "byteOffset": 12
    },
    {
      "type": "VEC3",
      "componentType": 5126,
      "count": 8,
      "bufferView": 10,
      "byteOffset": 20
    },
    {
      "type": "VEC3",
      "componentType": 5126,
      "count": 4,
      "max": [
        -0.02500000037252903,
        0.03954187408089638,
        0.5400018692016602
      ],
      "min": [
        -0.02500000037252903,
        -0.9145419001579285,
        0.11624812334775925
      ],
      "bufferView": 11,
      "byteOffset": 0
    },
    {
      "type": "VEC2",
      "componentType": 5126,
      "count": 4,
      "bufferView": 11,
      "byteOffset": 12
    },
    {
      "type": "VEC3",
      "componentType": 5126,
      "count": 4,
      "bufferView": 11,
      "byteOffset": 20
    },
    {
      "type": "VEC3",
      "componentType": 5126,
      "count": 64,
      "max": [
        0.7154588103294373,
        0.15625,
        0.5
      ],
      "min": [
        -0.4590022563934326,
        -0.28125,
        -0.6547173857688904
      ],
      "bufferView": 12,
      "byteOffset": 0
    },
    {
      "type": "VEC3",
      "componentType": 5126,
      "count": 64,
      "bufferView": 12,
      "byteOffset": 12
    },
    {
      "type": "VEC2",
      "componentType": 5126,
      "count": 64,
      "bufferView": 12,
      "byteOffset": 24
    },
    {
      "type": "SCALAR",
      "componentType": 5126,
      "count": 31,
      "max": [
        6
      ],
      "min": [
        0
      ],
      "bufferView": 13,
      "byteOffset": 0
    },
    {
      "type": "VEC4",
      "componentType": 5126,
      "count": 31,
      "bufferView": 13,
      "byteOffset": 124
    },
    {
      "type": "SCALAR",
      "componentType": 5126,
      "count": 29,
      "max": [
        6
      ],
      "min": [
        0
      ],
      "bufferView": 13,
      "byteOffset": 620
    },
    {
      "type": "VEC4",
      "componentType": 5126,
      "count": 29,
      "bufferView": 13,
      "byteOffset": 736
    },
    {
      "type": "VEC4",
      "componentType": 5126,
      "count": 29,
      "bufferView": 13,
      "byteOffset": 1200
    },
    {
      "type": "SCALAR",
      "componentType": 5126,
      "count": 32,
      "max": [
        6
      ],
      "min": [
        0
      ],
      "bufferView": 13,
      "byteOffset": 1664
    },
    {
      "type": "VEC4",
      "componentType": 5126,
      "count": 32,
      "bufferView": 13,
      "byteOffset": 1792
    },
    {
      "type": "VEC4",
      "componentType": 5126,
      "count": 32,
      "bufferView": 13,
      "byteOffset": 2304
    },
    {
      "type": "SCALAR",
      "componentType": 5126,
      "count": 38,
      "max": [
        6
      ],
      "min": [
        0
      ],
      "bufferView": 13,
      "byteOffset": 2816
    },
    {
      "type": "VEC4",
      "componentType": 5126,
      "count": 38,
      "bufferView": 13,
      "byteOffset": 2968
    },
    {
      "type": "SCALAR",
      "componentType": 5126,
      "count": 31,
      "max": [
        6
      ],
      "min": [
        0
      ],
      "bufferView": 13,
      "byteOffset": 3576
    },
    {
      "type": "VEC4",
      "componentType": 5126,
      "count": 31,
      "bufferView": 13,
      "byteOffset": 3700
    },
    {
      "type": "SCALAR",
      "componentType": 5126,
      "count": 31,
      "max": [
        6
      ],
      "min": [
        0
      ],
      "bufferView": 13,
      "byteOffset": 4196
    },
    {
      "type": "VEC4",
      "componentType": 5126,
      "count": 31,
      "bufferView": 13,
      "byteOffset": 4320
    },
    {
      "type": "SCALAR",
      "componentType": 5126,
      "count": 32,
      "max": [
        6
      ],
      "min": [
        0
      ],
      "bufferView": 13,
      "byteOffset": 4816
    },
    {
      "type": "VEC4",
      "componentType": 5126,
      "count": 32,
      "bufferView": 13,
      "byteOffset": 4944
    },
    {
      "type": "SCALAR",
      "componentType": 5126,
      "count": 38,
      "max": [
        6
      ],
      "min": [
        0
      ],
      "bufferView": 13,
      "byteOffset": 5456
    },
    {
      "type": "VEC4",
      "componentType": 5126,
      "count": 38,
      "bufferView": 13,
      "byteOffset": 5608
    }
  ],
  "bufferViews": [
    {
      "buffer": 0,
      "byteOffset": 0,
      "byteLength": 996,
      "target": 34963
    },
    {
      "buffer": 0,
      "byteOffset": 996,
      "byteLength": 2432,
      "byteStride": 32,
      "target": 34962
    },
    {
      "buffer": 0,
      "byteOffset": 3428,
      "byteLength": 1920,
      "byteStride": 32,
      "target": 34962
    },
    {
      "buffer": 0,
      "byteOffset": 5348,
      "byteLength": 1792,
      "byteStride": 32,
      "target": 34962
    },
    {
      "buffer": 0,
      "byteOffset": 7140,
      "byteLength": 2048,
      "byteStride": 32,
      "target": 34962
    },
    {
      "buffer": 0,
      "byteOffset": 9188,
      "byteLength": 2048,
      "byteStride": 32,
      "target": 34962
    },
    {
      "buffer": 0,
      "byteOffset": 11236,
      "byteLength": 1920,
      "byteStride": 32,
      "target": 34962
    },
    {
      "buffer": 0,
      "byteOffset": 13156,
      "byteLength": 2048,
      "byteStride": 32,
      "target": 34962
    },
    {
      "buffer": 0,
      "byteOffset": 15204,
      "byteLength": 1920,
      "byteStride": 32,
      "target": 34962
    },
    {
      "buffer": 0,
      "byteOffset": 17124,
      "byteLength": 2048,
      "byteStride": 32,
      "target": 34962
    },
    {
      "buffer": 0,
      "byteOffset": 19172,
      "byteLength": 256,
      "byteStride": 32,
      "target": 34962
    },
    {
      "buffer": 0,
      "byteOffset": 19428,
      "byteLength": 128,
      "byteStride": 32,
      "target": 34962
    },
    {
      "buffer": 0,
      "byteOffset": 19556,
      "byteLength": 2048,
      "byteStride": 32,
      "target": 34962
    },
    {
      "buffer": 0,
      "byteOffset": 21604,
      "byteLength": 6216
    }
  ],
  "samplers": [
    {
      "magFilter": 9728,
      "minFilter": 9728,
      "wrapS": 33071,
      "wrapT": 33071
    }
  ],
  "textures": [
    {
      "source": 0,
      "sampler": 0
    }
  ],
  "images": [
    {
      "mimeType": "image/png",
      "uri": "baseColor.png"
    }
  ],
  "buffers": [
    {
      "uri": "pine-tree-small.bin",
      "byteLength": 27820
    }
  ],
  "materials": [
    {
      "alphaMode": "MASK",
      "alphaCutoff": 0.05,
      "doubleSided": true,
      "pbrMetallicRoughness": {
        "metallicFactor": 0,
        "baseColorTexture": {
          "index": 0
        }
      }
    }
  ],
  "meshes": [
    {
      "primitives": [
        {
          "attributes": {
            "POSITION": 7,
            "NORMAL": 8,
            "TEXCOORD_0": 9
          },
          "mode": 4,
          "material": 0,
          "indices": 0
        }
      ]
    },
    {
      "primitives": [
        {
          "attributes": {
            "POSITION": 10,
            "NORMAL": 11,
            "TEXCOORD_0": 12
          },
          "mode": 4,
          "material": 0,
          "indices": 1
        }
      ]
    },
    {
      "primitives": [
        {
          "attributes": {
            "POSITION": 13,
            "TEXCOORD_0": 14,
            "NORMAL": 15
          },
          "mode": 4,
          "material": 0,
          "indices": 2
        }
      ]
    },
    {
      "primitives": [
        {
          "attributes": {
            "POSITION": 16,
            "TEXCOORD_0": 17,
            "NORMAL": 18
          },
          "mode": 4,
          "material": 0,
          "indices": 3
        }
      ]
    },
    {
      "primitives": [
        {
          "attributes": {
            "POSITION": 19,
            "TEXCOORD_0": 20,
            "NORMAL": 21
          },
          "mode": 4,
          "material": 0,
          "indices": 3
        }
      ]
    },
    {
      "primitives": [
        {
          "attributes": {
            "POSITION": 22,
            "TEXCOORD_0": 23,
            "NORMAL": 24
          },
          "mode": 4,
          "material": 0,
          "indices": 1
        }
      ]
    },
    {
      "primitives": [
        {
          "attributes": {
            "POSITION": 25,
            "TEXCOORD_0": 26,
            "NORMAL": 27
          },
          "mode": 4,
          "material": 0,
          "indices": 3
        }
      ]
    },
    {
      "primitives": [
        {
          "attributes": {
            "POSITION": 28,
            "TEXCOORD_0": 29,
            "NORMAL": 30
          },
          "mode": 4,
          "material": 0,
          "indices": 1
        }
      ]
    },
    {
      "primitives": [
        {
          "attributes": {
            "POSITION": 31,
            "NORMAL": 32,
            "TEXCOORD_0": 33
          },
          "mode": 4,
          "material": 0,
          "indices": 3
        }
      ]
    },
    {
      "primitives": [
        {
          "attributes": {
            "POSITION": 34,
            "TEXCOORD_0": 35,
            "NORMAL": 36
          },
          "mode": 4,
          "material": 0,
          "indices": 4
        }
      ]
    },
    {
      "primitives": [
        {
          "attributes": {
            "POSITION": 37,
            "TEXCOORD_0": 38,
            "NORMAL": 39
          },
          "mode": 4,
          "material": 0,
          "indices": 5
        }
      ]
    },
    {
      "primitives": [
        {
          "attributes": {
            "POSITION": 40,
            "NORMAL": 41,
            "TEXCOORD_0": 42
          },
          "mode": 4,
          "material": 0,
          "indices": 6
        }
      ]
    }
  ],
  "nodes": [
    {
      "name": "cube",
      "translation": [
        -0.0625,
        0,
        -0.0625
      ],
      "mesh": 0
    },
    {
      "name": "cube",
      "translation": [
        -0.062219375,
        -0.719235625,
        0.03222125
      ],
      "rotation": [
        0.1075674779519501,
        -0.10756747795195008,
        0.6988771263155323,
        0.6988771263155324
      ],
      "mesh": 11
    },
    {
      "name": "bone",
      "translation": [
        -0.0549175,
        1.5388325,
        -0.0625
      ],
      "rotation": [
        0.21028344760416678,
        -0.11622213240040136,
        -0.8285139977825428,
        0.5058041548686587
      ],
      "children": [
        1
      ]
    },
    {
      "name": "cube",
      "translation": [
        -0.0625,
        -0.71875,
        -0.0625
      ],
      "mesh": 1
    },
    {
      "name": "bone5",
      "translation": [
        0.0122675,
        2.11071,
        0.0048775
      ],
      "rotation": [
        0.4258232548050826,
        -0.2259358739907556,
        -0.7866136523792685,
        0.3858322153498675
      ],
      "children": [
        3
      ]
    },
    {
      "name": "cube",
      "translation": [
        0.0625,
        -0.71875,
        0.0625
      ],
      "mesh": 2
    },
    {
      "name": "bone7",
      "translation": [
        -0.0122675,
        2.11071,
        -0.0048775
      ],
      "rotation": [
        -0.4258232548050826,
        -0.2259358739907556,
        0.7866136523792685,
        0.3858322153498675
      ],
      "children": [
        5
      ]
    },
    {
      "name": "cube",
      "translation": [
        0.06249999999999999,
        -0.71875,
        0.0625
      ],
      "mesh": 3
    },
    {
      "name": "bone6",
      "translation": [
        0.034543125,
        2.341080625,
        -0.02265125
      ],
      "rotation": [
        -0.8652307604873344,
        -0.30478053236755537,
        0.3806968853262637,
        0.11642353584709549
      ],
      "children": [
        7
      ]
    },
    {
      "name": "cube",
      "translation": [
        -0.06249999999999999,
        -0.71875,
        -0.0625
      ],
      "mesh": 4
    },
    {
      "name": "bone8",
      "translation": [
        -0.034543125,
        2.341080625,
        0.02265125
      ],
      "rotation": [
        0.8652307604873344,
        -0.30478053236755537,
        -0.3806968853262637,
        0.11642353584709549
      ],
      "children": [
        9
      ]
    },
    {
      "name": "cube",
      "translation": [
        0.06249999999999999,
        -0.71875,
        -0.0625
      ],
      "mesh": 5
    },
    {
      "name": "bone9",
      "translation": [
        0.034543125,
        2.528580625,
        0.02265125
      ],
      "rotation": [
        0.9439061231894526,
        0.1663999465744323,
        -0.16716579625642994,
        0.23110146028841472
      ],
      "children": [
        11
      ]
    },
    {
      "name": "cube",
      "translation": [
        0.06249999999999999,
        -0.71875,
        -0.0625
      ],
      "mesh": 6
    },
    {
      "name": "bone3",
      "translation": [
        0.0549175,
        1.6013325,
        -0.0625
      ],
      "rotation": [
        0.38966599126092166,
        0.24328736510625915,
        0.8212777984906263,
        0.3383407320153561
      ],
      "children": [
        13
      ]
    },
    {
      "name": "cube",
      "translation": [
        -0.06249999999999999,
        -0.71875,
        0.0625
      ],
      "mesh": 7
    },
    {
      "name": "bone4",
      "translation": [
        -0.0549175,
        1.6638325,
        0.0625
      ],
      "rotation": [
        -0.35810775597079403,
        0.2048678310276482,
        -0.8187977410151087,
        0.3991970268327962
      ],
      "children": [
        15
      ]
    },
    {
      "name": "cube",
      "translation": [
        0.06249999999999999,
        -0.71875,
        0.0625
      ],
      "mesh": 8
    },
    {
      "name": "bone2",
      "translation": [
        0.0549175,
        1.5388325,
        0.0625
      ],
      "rotation": [
        -0.22414384903374646,
        -0.12940952180867277,
        0.8365162998103143,
        0.48296292896789517
      ],
      "children": [
        17
      ]
    },
    {
      "name": "cube",
      "translation": [
        0.033145625,
        0.3125,
        -0.01104875
      ],
      "rotation": [
        0.6532814824381882,
        -0.27059805007309845,
        0.2705980500730985,
        0.6532814824381883
      ],
      "mesh": 9
    },
    {
      "name": "bone10",
      "translation": [
        0.0013975,
        2.747330625,
        0.011825
      ],
      "children": [
        19
      ]
    },
    {
      "name": "cube",
      "translation": [
        0.1875,
        -0.25,
        0
      ],
      "rotation": [
        -0.7071067811865476,
        -4.329780281177466e-17,
        0.7071067811865475,
        4.329780281177467e-17
      ],
      "mesh": 10
    },
    {
      "name": "bone11",
      "translation": [
        -0.04526187500000001,
        1.913346875,
        0.00097125
      ],
      "children": [
        21
      ]
    },
    {
      "name": "root",
      "children": [
        2,
        4,
        6,
        8,
        10,
        12,
        14,
        16,
        18,
        20,
        22
      ]
    }
  ],
  "animations": [
    {
      "name": "idle",
      "samplers": [
        {
          "input": 43,
          "output": 44,
          "interpolation": "LINEAR"
        },
        {
          "input": 45,
          "output": 46,
          "interpolation": "LINEAR"
        },
        {
          "input": 45,
          "output": 47,
          "interpolation": "LINEAR"
        },
        {
          "input": 48,
          "output": 49,
          "interpolation": "LINEAR"
        },
        {
          "input": 48,
          "output": 50,
          "interpolation": "LINEAR"
        },
        {
          "input": 51,
          "output": 52,
          "interpolation": "LINEAR"
        },
        {
          "input": 53,
          "output": 54,
          "interpolation": "LINEAR"
        },
        {
          "input": 55,
          "output": 56,
          "interpolation": "LINEAR"
        },
        {
          "input": 57,
          "output": 58,
          "interpolation": "LINEAR"
        },
        {
          "input": 59,
          "output": 60,
          "interpolation": "LINEAR"
        },
        {
          "input": 59,
          "output": 60,
          "interpolation": "LINEAR"
        }
      ],
      "channels": [
        {
          "sampler": 0,
          "target": {
            "node": 2,
            "path": "rotation"
          }
        },
        {
          "sampler": 1,
          "target": {
            "node": 4,
            "path": "rotation"
          }
        },
        {
          "sampler": 2,
          "target": {
            "node": 6,
            "path": "rotation"
          }
        },
        {
          "sampler": 3,
          "target": {
            "node": 8,
            "path": "rotation"
          }
        },
        {
          "sampler": 4,
          "target": {
            "node": 10,
            "path": "rotation"
          }
        },
        {
          "sampler": 5,
          "target": {
            "node": 12,
            "path": "rotation"
          }
        },
        {
          "sampler": 6,
          "target": {
            "node": 14,
            "path": "rotation"
          }
        },
        {
          "sampler": 7,
          "target": {
            "node": 16,
            "path": "rotation"
          }
        },
        {
          "sampler": 8,
          "target": {
            "node": 18,
            "path": "rotation"
          }
        },
        {
          "sampler": 9,
          "target": {
            "node": 22,
            "path": "rotation"
          }
        },
        {
          "sampler": 10,
          "target": {
            "node": 20,
            "path": "rotation"
          }
        }
      ]
    }
  ],
  "scenes": [
    {
      "name": "blockbench_export",
      "nodes": [
        23,
        0
      ]
    }
  ],
  "scene": 0
}