{
  "asset": {
    "generator": "glTF-Transform v4.1.3",
    "version": "2.0"
  },
  "accessors": [
    {
      "type": "SCALAR",
      "componentType": 5123,
      "count": 6,
      "bufferView": 0,
      "byteOffset": 0
    },
    {
      "type": "SCALAR",
      "componentType": 5123,
      "count": 36,
      "bufferView": 0,
      "byteOffset": 12
    },
    {
      "type": "VEC3",
      "componentType": 5126,
      "count": 4,
      "max": [
        0.0625,
        0,
        0.0625
      ],
      "min": [
        -0.0625,
        0,
        -0.0625
      ],
      "bufferView": 1,
      "byteOffset": 0
    },
    {
      "type": "VEC3",
      "componentType": 5126,
      "count": 4,
      "bufferView": 1,
      "byteOffset": 12
    },
    {
      "type": "VEC2",
      "componentType": 5126,
      "count": 4,
      "bufferView": 1,
      "byteOffset": 24
    },
    {
      "type": "VEC3",
      "componentType": 5126,
      "count": 24,
      "max": [
        0.3125,
        0.1875,
        0.3125
      ],
      "min": [
        -0.1875,
        0,
        -0.1875
      ],
      "bufferView": 2,
      "byteOffset": 0
    },
    {
      "type": "VEC3",
      "componentType": 5126,
      "count": 24,
      "bufferView": 2,
      "byteOffset": 12
    },
    {
      "type": "VEC2",
      "componentType": 5126,
      "count": 24,
      "bufferView": 2,
      "byteOffset": 24
    },
    {
      "type": "VEC3",
      "componentType": 5126,
      "count": 24,
      "max": [
        0.1875,
        0.03125,
        0.1875
      ],
      "min": [
        -0.1875,
        -0.03125,
        -0.1875
      ],
      "bufferView": 3,
      "byteOffset": 0
    },
    {
      "type": "VEC2",
      "componentType": 5126,
      "count": 24,
      "bufferView": 3,
      "byteOffset": 12
    },
    {
      "type": "VEC3",
      "componentType": 5126,
      "count": 24,
      "max": [
        0.125,
        0.03125,
        0.125
      ],
      "min": [
        -0.125,
        -0.03125,
        -0.125
      ],
      "bufferView": 4,
      "byteOffset": 0
    },
    {
      "type": "VEC2",
      "componentType": 5126,
      "count": 24,
      "bufferView": 4,
      "byteOffset": 12
    },
    {
      "type": "VEC3",
      "componentType": 5126,
      "count": 4,
      "max": [
        0.09375,
        0,
        0.09375
      ],
      "min": [
        -0.09375,
        0,
        -0.09375
      ],
      "bufferView": 5,
      "byteOffset": 0
    },
    {
      "type": "VEC2",
      "componentType": 5126,
      "count": 4,
      "bufferView": 5,
      "byteOffset": 12
    },
    {
      "type": "VEC2",
      "componentType": 5126,
      "count": 4,
      "bufferView": 6,
      "byteOffset": 0
    }
  ],
  "bufferViews": [
    {
      "buffer": 0,
      "byteOffset": 0,
      "byteLength": 84,
      "target": 34963
    },
    {
      "buffer": 0,
      "byteOffset": 84,
      "byteLength": 128,
      "byteStride": 32,
      "target": 34962
    },
    {
      "buffer": 0,
      "byteOffset": 212,
      "byteLength": 768,
      "byteStride": 32,
      "target": 34962
    },
    {
      "buffer": 0,
      "byteOffset": 980,
      "byteLength": 480,
      "byteStride": 20,
      "target": 34962
    },
    {
      "buffer": 0,
      "byteOffset": 1460,
      "byteLength": 480,
      "byteStride": 20,
      "target": 34962
    },
    {
      "buffer": 0,
      "byteOffset": 1940,
      "byteLength": 80,
      "byteStride": 20,
      "target": 34962
    },
    {
      "buffer": 0,
      "byteOffset": 2020,
      "byteLength": 32,
      "byteStride": 8,
      "target": 34962
    }
  ],
  "samplers": [
    {
      "magFilter": 9728,
      "minFilter": 9728,
      "wrapS": 33071,
      "wrapT": 33071
    }
  ],
  "textures": [
    {
      "source": 0,
      "sampler": 0
    }
  ],
  "images": [
    {
      "mimeType": "image/png",
      "uri": "baseColor.png"
    }
  ],
  "buffers": [
    {
      "uri": "poo-rotten-named-nodes.bin",
      "byteLength": 2052
    }
  ],
  "materials": [
    {
      "alphaMode": "MASK",
      "alphaCutoff": 0.05,
      "doubleSided": true,
      "pbrMetallicRoughness": {
        "metallicFactor": 0,
        "baseColorTexture": {
          "index": 0
        }
      }
    }
  ],
  "meshes": [
    {
      "primitives": [
        {
          "attributes": {
            "POSITION": 2,
            "NORMAL": 3,
            "TEXCOORD_0": 4
          },
          "mode": 4,
          "material": 0,
          "indices": 0
        }
      ]
    },
    {
      "primitives": [
        {
          "attributes": {
            "POSITION": 5,
            "NORMAL": 6,
            "TEXCOORD_0": 7
          },
          "mode": 4,
          "material": 0,
          "indices": 1
        }
      ]
    },
    {
      "primitives": [
        {
          "attributes": {
            "POSITION": 8,
            "TEXCOORD_0": 9,
            "NORMAL": 6
          },
          "mode": 4,
          "material": 0,
          "indices": 1
        }
      ]
    },
    {
      "primitives": [
        {
          "attributes": {
            "POSITION": 10,
            "TEXCOORD_0": 11,
            "NORMAL": 6
          },
          "mode": 4,
          "material": 0,
          "indices": 1
        }
      ]
    },
    {
      "primitives": [
        {
          "attributes": {
            "POSITION": 12,
            "TEXCOORD_0": 13,
            "NORMAL": 3
          },
          "mode": 4,
          "material": 0,
          "indices": 0
        }
      ]
    },
    {
      "primitives": [
        {
          "attributes": {
            "TEXCOORD_0": 14,
            "POSITION": 12,
            "NORMAL": 3
          },
          "mode": 4,
          "material": 0,
          "indices": 0
        }
      ]
    }
  ],
  "nodes": [
    {
      "name": "plane",
      "translation": [
        -0.01071557580867024,
        0.1875,
        -0.0012533921547038182
      ],
      "rotation": [
        0.6988771263155323,
        0.10756747795195008,
        -0.10756747795195006,
        0.6988771263155326
      ],
      "mesh": 0
    },
    {
      "name": "cube",
      "translation": [
        -0.10835763442440163,
        -5.551115123125783e-17,
        -0.014575013204006476
      ],
      "rotation": [
        0,
        0.1521233861899167,
        0,
        0.9883615104677607
      ],
      "mesh": 1
    },
    {
      "name": "cube",
      "translation": [
        -0.02995621253362037,
        0.21874999999999994,
        0.02623818374874063
      ],
      "rotation": [
        0,
        0.19509032201612825,
        0,
        0.9807852804032304
      ],
      "mesh": 2
    },
    {
      "name": "cube",
      "translation": [
        -0.02995621253362037,
        0.28124999999999994,
        0.02623818374874063
      ],
      "rotation": [
        0,
        0.08715574274765817,
        0,
        0.9961946980917455
      ],
      "mesh": 3
    },
    {
      "name": "plane",
      "translation": [
        0.001257000612437973,
        0.34374999999999983,
        0.02131167572086442
      ],
      "rotation": [
        -0.7044160264027582,
        0.06162841671621941,
        0.06162841671621926,
        0.7044160264027591
      ],
      "mesh": 4
    },
    {
      "name": "plane",
      "translation": [
        0.04146414849116576,
        0.3812499999999999,
        0.07089082749565902
      ],
      "rotation": [
        -0.4545194776720433,
        0.5416752204197016,
        0.5416752204197022,
        0.45451947767204415
      ],
      "mesh": 5
    }
  ],
  "scenes": [
    {
      "name": "blockbench_export",
      "nodes": [
        0,
        1,
        2,
        3,
        4,
        5
      ]
    }
  ],
  "scene": 0
}