{"asset":{"version":"2.0","generator":"Blockbench 4.12.4 glTF exporter"},"scenes":[{"nodes":[8],"name":"blockbench_export"}],"scene":0,"nodes":[{"translation":[-0.4375,0,-0.4375],"name":"base","mesh":0},{"translation":[-0.3125,0.0625,-0.3125],"name":"switch","mesh":1},{"name":"switch-move2","children":[1]},{"name":"root-green","children":[0,2]},{"translation":[-0.4375,0,-0.4375],"name":"base","mesh":2},{"translation":[-0.3125,0.0625,-0.3125],"name":"switch","mesh":3},{"name":"switch-move4","children":[5]},{"name":"root-blue","children":[4,6]},{"children":[3,7]}],"bufferViews":[{"buffer":0,"byteOffset":0,"byteLength":288,"target":34962,"byteStride":12},{"buffer":0,"byteOffset":288,"byteLength":288,"target":34962,"byteStride":12},{"buffer":0,"byteOffset":576,"byteLength":192,"target":34962,"byteStride":8},{"buffer":0,"byteOffset":768,"byteLength":72,"target":34963},{"buffer":0,"byteOffset":840,"byteLength":288,"target":34962,"byteStride":12},{"buffer":0,"byteOffset":1128,"byteLength":288,"target":34962,"byteStride":12},{"buffer":0,"byteOffset":1416,"byteLength":192,"target":34962,"byteStride":8},{"buffer":0,"byteOffset":1608,"byteLength":72,"target":34963},{"buffer":0,"byteOffset":1680,"byteLength":288,"target":34962,"byteStride":12},{"buffer":0,"byteOffset":1968,"byteLength":288,"target":34962,"byteStride":12},{"buffer":0,"byteOffset":2256,"byteLength":192,"target":34962,"byteStride":8},{"buffer":0,"byteOffset":2448,"byteLength":72,"target":34963},{"buffer":0,"byteOffset":2520,"byteLength":288,"target":34962,"byteStride":12},{"buffer":0,"byteOffset":2808,"byteLength":288,"target":34962,"byteStride":12},{"buffer":0,"byteOffset":3096,"byteLength":192,"target":34962,"byteStride":8},{"buffer":0,"byteOffset":3288,"byteLength":72,"target":34963},{"buffer":0,"byteOffset":3360,"byteLength":4},{"buffer":0,"byteOffset":3364,"byteLength":16},{"buffer":0,"byteOffset":3380,"byteLength":4},{"buffer":0,"byteOffset":3384,"byteLength":12},{"buffer":0,"byteOffset":3396,"byteLength":4},{"buffer":0,"byteOffset":3400,"byteLength":12},{"buffer":0,"byteOffset":3412,"byteLength":4},{"buffer":0,"byteOffset":3416,"byteLength":16},{"buffer":0,"byteOffset":3432,"byteLength":4},{"buffer":0,"byteOffset":3436,"byteLength":12},{"buffer":0,"byteOffset":3448,"byteLength":4},{"buffer":0,"byteOffset":3452,"byteLength":12},{"buffer":0,"byteOffset":3464,"byteLength":4},{"buffer":0,"byteOffset":3468,"byteLength":16},{"buffer":0,"byteOffset":3484,"byteLength":4},{"buffer":0,"byteOffset":3488,"byteLength":12},{"buffer":0,"byteOffset":3500,"byteLength":4},{"buffer":0,"byteOffset":3504,"byteLength":12},{"buffer":0,"byteOffset":3516,"byteLength":4},{"buffer":0,"byteOffset":3520,"byteLength":16},{"buffer":0,"byteOffset":3536,"byteLength":4},{"buffer":0,"byteOffset":3540,"byteLength":12},{"buffer":0,"byteOffset":3552,"byteLength":4},{"buffer":0,"byteOffset":3556,"byteLength":12},{"buffer":0,"byteOffset":3568,"byteLength":4},{"buffer":0,"byteOffset":3572,"byteLength":16},{"buffer":0,"byteOffset":3588,"byteLength":4},{"buffer":0,"byteOffset":3592,"byteLength":12},{"buffer":0,"byteOffset":3604,"byteLength":4},{"buffer":0,"byteOffset":3608,"byteLength":12},{"buffer":0,"byteOffset":3620,"byteLength":4},{"buffer":0,"byteOffset":3624,"byteLength":16},{"buffer":0,"byteOffset":3640,"byteLength":4},{"buffer":0,"byteOffset":3644,"byteLength":12},{"buffer":0,"byteOffset":3656,"byteLength":4},{"buffer":0,"byteOffset":3660,"byteLength":12},{"buffer":0,"byteOffset":3672,"byteLength":4},{"buffer":0,"byteOffset":3676,"byteLength":16},{"buffer":0,"byteOffset":3692,"byteLength":4},{"buffer":0,"byteOffset":3696,"byteLength":12},{"buffer":0,"byteOffset":3708,"byteLength":4},{"buffer":0,"byteOffset":3712,"byteLength":12},{"buffer":0,"byteOffset":3724,"byteLength":4},{"buffer":0,"byteOffset":3728,"byteLength":16},{"buffer":0,"byteOffset":3744,"byteLength":4},{"buffer":0,"byteOffset":3748,"byteLength":12},{"buffer":0,"byteOffset":3760,"byteLength":4},{"buffer":0,"byteOffset":3764,"byteLength":12},{"buffer":0,"byteOffset":3776,"byteLength":4},{"buffer":0,"byteOffset":3780,"byteLength":16},{"buffer":0,"byteOffset":3796,"byteLength":4},{"buffer":0,"byteOffset":3800,"byteLength":12},{"buffer":0,"byteOffset":3812,"byteLength":4},{"buffer":0,"byteOffset":3816,"byteLength":12},{"buffer":0,"byteOffset":3828,"byteLength":4},{"buffer":0,"byteOffset":3832,"byteLength":16},{"buffer":0,"byteOffset":3848,"byteLength":4},{"buffer":0,"byteOffset":3852,"byteLength":12},{"buffer":0,"byteOffset":3864,"byteLength":4},{"buffer":0,"byteOffset":3868,"byteLength":12},{"buffer":0,"byteOffset":3880,"byteLength":4},{"buffer":0,"byteOffset":3884,"byteLength":16},{"buffer":0,"byteOffset":3900,"byteLength":4},{"buffer":0,"byteOffset":3904,"byteLength":12},{"buffer":0,"byteOffset":3916,"byteLength":4},{"buffer":0,"byteOffset":3920,"byteLength":12},{"buffer":0,"byteOffset":3932,"byteLength":4},{"buffer":0,"byteOffset":3936,"byteLength":16},{"buffer":0,"byteOffset":3952,"byteLength":4},{"buffer":0,"byteOffset":3956,"byteLength":12},{"buffer":0,"byteOffset":3968,"byteLength":4},{"buffer":0,"byteOffset":3972,"byteLength":12}],"buffers":[{"byteLength":3984,"uri":"data:application/octet-stream;base64,"}],"accessors":[{"bufferView":0,"componentType":5126,"count":24,"max":[0.9375,0.0625,0.9375],"min":[-0.0625,0,-0.0625],"type":"VEC3"},{"bufferView":1,"componentType":5126,"count":24,"max":[1,1,1],"min":[-1,-1,-1],"type":"VEC3"},{"bufferView":2,"componentType":5126,"count":24,"max":[0.999755859375,0.265380859375],"min":[0.000244140625,0.000244140625],"type":"VEC2"},{"bufferView":3,"componentType":5123,"count":36,"max":[23],"min":[0],"type":"SCALAR"},{"bufferView":4,"componentType":5126,"count":24,"max":[0.6875,0.125,0.6875],"min":[-0.0625,0,-0.0625],"type":"VEC3"},{"bufferView":5,"componentType":5126,"count":24,"max":[1,1,1],"min":[-1,-1,-1],"type":"VEC3"},{"bufferView":6,"componentType":5126,"count":24,"max":[0.749755859375,0.484130859375],"min":[0.000244140625,0.265869140625],"type":"VEC2"},{"bufferView":7,"componentType":5123,"count":36,"max":[23],"min":[0],"type":"SCALAR"},{"bufferView":8,"componentType":5126,"count":24,"max":[0.9375,0.0625,0.9375],"min":[-0.0625,0,-0.0625],"type":"VEC3"},{"bufferView":9,"componentType":5126,"count":24,"max":[1,1,1],"min":[-1,-1,-1],"type":"VEC3"},{"bufferView":10,"componentType":5126,"count":24,"max":[0.999755859375,0.265380859375],"min":[0.000244140625,0.000244140625],"type":"VEC2"},{"bufferView":11,"componentType":5123,"count":36,"max":[23],"min":[0],"type":"SCALAR"},{"bufferView":12,"componentType":5126,"count":24,"max":[0.6875,0.125,0.6875],"min":[-0.0625,0,-0.0625],"type":"VEC3"},{"bufferView":13,"componentType":5126,"count":24,"max":[1,1,1],"min":[-1,-1,-1],"type":"VEC3"},{"bufferView":14,"componentType":5126,"count":24,"max":[0.749755859375,0.484130859375],"min":[0.000244140625,0.265869140625],"type":"VEC2"},{"bufferView":15,"componentType":5123,"count":36,"max":[23],"min":[0],"type":"SCALAR"},{"bufferView":16,"componentType":5126,"count":1,"max":[0],"min":[0],"type":"SCALAR"},{"bufferView":17,"componentType":5126,"count":1,"max":[0,0,0,1],"min":[0,0,0,1],"type":"VEC4"},{"bufferView":18,"componentType":5126,"count":1,"max":[0],"min":[0],"type":"SCALAR"},{"bufferView":19,"componentType":5126,"count":1,"max":[0,0,0],"min":[0,0,0],"type":"VEC3"},{"bufferView":20,"componentType":5126,"count":1,"max":[0],"min":[0],"type":"SCALAR"},{"bufferView":21,"componentType":5126,"count":1,"max":[1,1,1],"min":[1,1,1],"type":"VEC3"},{"bufferView":22,"componentType":5126,"count":1,"max":[0],"min":[0],"type":"SCALAR"},{"bufferView":23,"componentType":5126,"count":1,"max":[0,0,0,1],"min":[0,0,0,1],"type":"VEC4"},{"bufferView":24,"componentType":5126,"count":1,"max":[0],"min":[0],"type":"SCALAR"},{"bufferView":25,"componentType":5126,"count":1,"max":[0,0,0],"min":[0,0,0],"type":"VEC3"},{"bufferView":26,"componentType":5126,"count":1,"max":[0],"min":[0],"type":"SCALAR"},{"bufferView":27,"componentType":5126,"count":1,"max":[1,1,1],"min":[1,1,1],"type":"VEC3"},{"bufferView":28,"componentType":5126,"count":1,"max":[0],"min":[0],"type":"SCALAR"},{"bufferView":29,"componentType":5126,"count":1,"max":[0,0,0,1],"min":[0,0,0,1],"type":"VEC4"},{"bufferView":30,"componentType":5126,"count":1,"max":[0],"min":[0],"type":"SCALAR"},{"bufferView":31,"componentType":5126,"count":1,"max":[0,0,0],"min":[0,0,0],"type":"VEC3"},{"bufferView":32,"componentType":5126,"count":1,"max":[0],"min":[0],"type":"SCALAR"},{"bufferView":33,"componentType":5126,"count":1,"max":[1,1,1],"min":[1,1,1],"type":"VEC3"},{"bufferView":34,"componentType":5126,"count":1,"max":[0],"min":[0],"type":"SCALAR"},{"bufferView":35,"componentType":5126,"count":1,"max":[0,0,0,1],"min":[0,0,0,1],"type":"VEC4"},{"bufferView":36,"componentType":5126,"count":1,"max":[0],"min":[0],"type":"SCALAR"},{"bufferView":37,"componentType":5126,"count":1,"max":[0,0,0],"min":[0,0,0],"type":"VEC3"},{"bufferView":38,"componentType":5126,"count":1,"max":[0],"min":[0],"type":"SCALAR"},{"bufferView":39,"componentType":5126,"count":1,"max":[1,1,1],"min":[1,1,1],"type":"VEC3"},{"bufferView":40,"componentType":5126,"count":1,"max":[0],"min":[0],"type":"SCALAR"},{"bufferView":41,"componentType":5126,"count":1,"max":[0,0,0,1],"min":[0,0,0,1],"type":"VEC4"},{"bufferView":42,"componentType":5126,"count":1,"max":[0],"min":[0],"type":"SCALAR"},{"bufferView":43,"componentType":5126,"count":1,"max":[0,0,0],"min":[0,0,0],"type":"VEC3"},{"bufferView":44,"componentType":5126,"count":1,"max":[0],"min":[0],"type":"SCALAR"},{"bufferView":45,"componentType":5126,"count":1,"max":[1,1,1],"min":[1,1,1],"type":"VEC3"},{"bufferView":46,"componentType":5126,"count":1,"max":[0],"min":[0],"type":"SCALAR"},{"bufferView":47,"componentType":5126,"count":1,"max":[0,0,0,1],"min":[0,0,0,1],"type":"VEC4"},{"bufferView":48,"componentType":5126,"count":1,"max":[0],"min":[0],"type":"SCALAR"},{"bufferView":49,"componentType":5126,"count":1,"max":[0,0,0],"min":[0,0,0],"type":"VEC3"},{"bufferView":50,"componentType":5126,"count":1,"max":[0],"min":[0],"type":"SCALAR"},{"bufferView":51,"componentType":5126,"count":1,"max":[1,1,1],"min":[1,1,1],"type":"VEC3"},{"bufferView":52,"componentType":5126,"count":1,"max":[0],"min":[0],"type":"SCALAR"},{"bufferView":53,"componentType":5126,"count":1,"max":[0,0,0,1],"min":[0,0,0,1],"type":"VEC4"},{"bufferView":54,"componentType":5126,"count":1,"max":[0],"min":[0],"type":"SCALAR"},{"bufferView":55,"componentType":5126,"count":1,"max":[0,0,0],"min":[0,0,0],"type":"VEC3"},{"bufferView":56,"componentType":5126,"count":1,"max":[0],"min":[0],"type":"SCALAR"},{"bufferView":57,"componentType":5126,"count":1,"max":[1,0.5,1],"min":[1,0.5,1],"type":"VEC3"},{"bufferView":58,"componentType":5126,"count":1,"max":[0],"min":[0],"type":"SCALAR"},{"bufferView":59,"componentType":5126,"count":1,"max":[0,0,0,1],"min":[0,0,0,1],"type":"VEC4"},{"bufferView":60,"componentType":5126,"count":1,"max":[0],"min":[0],"type":"SCALAR"},{"bufferView":61,"componentType":5126,"count":1,"max":[0,0,0],"min":[0,0,0],"type":"VEC3"},{"bufferView":62,"componentType":5126,"count":1,"max":[0],"min":[0],"type":"SCALAR"},{"bufferView":63,"componentType":5126,"count":1,"max":[1,0.5,1],"min":[1,0.5,1],"type":"VEC3"},{"bufferView":64,"componentType":5126,"count":1,"max":[0],"min":[0],"type":"SCALAR"},{"bufferView":65,"componentType":5126,"count":1,"max":[0,0,0,1],"min":[0,0,0,1],"type":"VEC4"},{"bufferView":66,"componentType":5126,"count":1,"max":[0],"min":[0],"type":"SCALAR"},{"bufferView":67,"componentType":5126,"count":1,"max":[0,0,0],"min":[0,0,0],"type":"VEC3"},{"bufferView":68,"componentType":5126,"count":1,"max":[0],"min":[0],"type":"SCALAR"},{"bufferView":69,"componentType":5126,"count":1,"max":[1,0.5,1],"min":[1,0.5,1],"type":"VEC3"},{"bufferView":70,"componentType":5126,"count":1,"max":[0],"min":[0],"type":"SCALAR"},{"bufferView":71,"componentType":5126,"count":1,"max":[0,0,0,1],"min":[0,0,0,1],"type":"VEC4"},{"bufferView":72,"componentType":5126,"count":1,"max":[0],"min":[0],"type":"SCALAR"},{"bufferView":73,"componentType":5126,"count":1,"max":[0,0,0],"min":[0,0,0],"type":"VEC3"},{"bufferView":74,"componentType":5126,"count":1,"max":[0],"min":[0],"type":"SCALAR"},{"bufferView":75,"componentType":5126,"count":1,"max":[1,0.5,1],"min":[1,0.5,1],"type":"VEC3"},{"bufferView":76,"componentType":5126,"count":1,"max":[0],"min":[0],"type":"SCALAR"},{"bufferView":77,"componentType":5126,"count":1,"max":[0,0,0,1],"min":[0,0,0,1],"type":"VEC4"},{"bufferView":78,"componentType":5126,"count":1,"max":[0],"min":[0],"type":"SCALAR"},{"bufferView":79,"componentType":5126,"count":1,"max":[0,0,0],"min":[0,0,0],"type":"VEC3"},{"bufferView":80,"componentType":5126,"count":1,"max":[0],"min":[0],"type":"SCALAR"},{"bufferView":81,"componentType":5126,"count":1,"max":[1,0.5,1],"min":[1,0.5,1],"type":"VEC3"},{"bufferView":82,"componentType":5126,"count":1,"max":[0],"min":[0],"type":"SCALAR"},{"bufferView":83,"componentType":5126,"count":1,"max":[0,0,0,1],"min":[0,0,0,1],"type":"VEC4"},{"bufferView":84,"componentType":5126,"count":1,"max":[0],"min":[0],"type":"SCALAR"},{"bufferView":85,"componentType":5126,"count":1,"max":[0,0,0],"min":[0,0,0],"type":"VEC3"},{"bufferView":86,"componentType":5126,"count":1,"max":[0],"min":[0],"type":"SCALAR"},{"bufferView":87,"componentType":5126,"count":1,"max":[1,0.5,1],"min":[1,0.5,1],"type":"VEC3"}],"materials":[{"pbrMetallicRoughness":{"metallicFactor":0,"roughnessFactor":1,"baseColorTexture":{"index":0}},"alphaMode":"MASK","alphaCutoff":0.05,"doubleSided":true},{"pbrMetallicRoughness":{"metallicFactor":0,"roughnessFactor":1,"baseColorTexture":{"index":1}},"alphaMode":"MASK","alphaCutoff":0.05,"doubleSided":true}],"textures":[{"sampler":0,"source":0,"name":"switch-pad-texture-red"},{"sampler":1,"source":1,"name":"switch-pad-texture-green"}],"samplers":[{"magFilter":9728,"minFilter":9728,"wrapS":33071,"wrapT":33071},{"magFilter":9728,"minFilter":9728,"wrapS":33071,"wrapT":33071}],"images":[{"mimeType":"image/png","uri":"data:image/png;base64,"},{"mimeType":"image/png","uri":"data:image/png;base64,"}],"meshes":[{"primitives":[{"mode":4,"attributes":{"POSITION":0,"NORMAL":1,"TEXCOORD_0":2},"indices":3,"material":0}]},{"primitives":[{"mode":4,"attributes":{"POSITION":4,"NORMAL":5,"TEXCOORD_0":6},"indices":7,"material":0}]},{"primitives":[{"mode":4,"attributes":{"POSITION":8,"NORMAL":9,"TEXCOORD_0":10},"indices":11,"material":1}]},{"primitives":[{"mode":4,"attributes":{"POSITION":12,"NORMAL":13,"TEXCOORD_0":14},"indices":15,"material":1}]}],"animations":[{"name":"idle","samplers":[{"input":16,"output":17,"interpolation":"LINEAR"},{"input":18,"output":19,"interpolation":"LINEAR"},{"input":20,"output":21,"interpolation":"LINEAR"},{"input":22,"output":23,"interpolation":"LINEAR"},{"input":24,"output":25,"interpolation":"LINEAR"},{"input":26,"output":27,"interpolation":"LINEAR"},{"input":28,"output":29,"interpolation":"LINEAR"},{"input":30,"output":31,"interpolation":"LINEAR"},{"input":32,"output":33,"interpolation":"LINEAR"},{"input":34,"output":35,"interpolation":"LINEAR"},{"input":36,"output":37,"interpolation":"LINEAR"},{"input":38,"output":39,"interpolation":"LINEAR"},{"input":40,"output":41,"interpolation":"LINEAR"},{"input":42,"output":43,"interpolation":"LINEAR"},{"input":44,"output":45,"interpolation":"LINEAR"},{"input":46,"output":47,"interpolation":"LINEAR"},{"input":48,"output":49,"interpolation":"LINEAR"},{"input":50,"output":51,"interpolation":"LINEAR"}],"channels":[{"sampler":0,"target":{"path":"rotation"}},{"sampler":1,"target":{"path":"translation"}},{"sampler":2,"target":{"path":"scale"}},{"sampler":3,"target":{"node":2,"path":"rotation"}},{"sampler":4,"target":{"node":2,"path":"translation"}},{"sampler":5,"target":{"node":2,"path":"scale"}},{"sampler":6,"target":{"path":"rotation"}},{"sampler":7,"target":{"path":"translation"}},{"sampler":8,"target":{"path":"scale"}},{"sampler":9,"target":{"node":6,"path":"rotation"}},{"sampler":10,"target":{"node":6,"path":"translation"}},{"sampler":11,"target":{"node":6,"path":"scale"}},{"sampler":12,"target":{"path":"rotation"}},{"sampler":13,"target":{"path":"translation"}},{"sampler":14,"target":{"path":"scale"}},{"sampler":15,"target":{"path":"rotation"}},{"sampler":16,"target":{"path":"translation"}},{"sampler":17,"target":{"path":"scale"}}]},{"name":"toggled","samplers":[{"input":52,"output":53,"interpolation":"LINEAR"},{"input":54,"output":55,"interpolation":"LINEAR"},{"input":56,"output":57,"interpolation":"LINEAR"},{"input":58,"output":59,"interpolation":"LINEAR"},{"input":60,"output":61,"interpolation":"LINEAR"},{"input":62,"output":63,"interpolation":"LINEAR"},{"input":64,"output":65,"interpolation":"LINEAR"},{"input":66,"output":67,"interpolation":"LINEAR"},{"input":68,"output":69,"interpolation":"LINEAR"},{"input":70,"output":71,"interpolation":"LINEAR"},{"input":72,"output":73,"interpolation":"LINEAR"},{"input":74,"output":75,"interpolation":"LINEAR"},{"input":76,"output":77,"interpolation":"LINEAR"},{"input":78,"output":79,"interpolation":"LINEAR"},{"input":80,"output":81,"interpolation":"LINEAR"},{"input":82,"output":83,"interpolation":"LINEAR"},{"input":84,"output":85,"interpolation":"LINEAR"},{"input":86,"output":87,"interpolation":"LINEAR"}],"channels":[{"sampler":0,"target":{"path":"rotation"}},{"sampler":1,"target":{"path":"translation"}},{"sampler":2,"target":{"path":"scale"}},{"sampler":3,"target":{"node":2,"path":"rotation"}},{"sampler":4,"target":{"node":2,"path":"translation"}},{"sampler":5,"target":{"node":2,"path":"scale"}},{"sampler":6,"target":{"path":"rotation"}},{"sampler":7,"target":{"path":"translation"}},{"sampler":8,"target":{"path":"scale"}},{"sampler":9,"target":{"node":6,"path":"rotation"}},{"sampler":10,"target":{"node":6,"path":"translation"}},{"sampler":11,"target":{"node":6,"path":"scale"}},{"sampler":12,"target":{"path":"rotation"}},{"sampler":13,"target":{"path":"translation"}},{"sampler":14,"target":{"path":"scale"}},{"sampler":15,"target":{"path":"rotation"}},{"sampler":16,"target":{"path":"translation"}},{"sampler":17,"target":{"path":"scale"}}]}]}