{"asset":{"version":"2.0","generator":"Blockbench 4.12.4 glTF exporter"},"scenes":[{"nodes":[4],"name":"blockbench_export"}],"scene":0,"nodes":[{"translation":[-0.4375,0,-0.4375],"name":"base","mesh":0},{"translation":[-0.3125,0.0625,-0.3125],"name":"switch","mesh":1},{"name":"switch-move6","children":[1]},{"name":"root-grey","children":[0,2]},{"children":[3]}],"bufferViews":[{"buffer":0,"byteOffset":0,"byteLength":288,"target":34962,"byteStride":12},{"buffer":0,"byteOffset":288,"byteLength":288,"target":34962,"byteStride":12},{"buffer":0,"byteOffset":576,"byteLength":192,"target":34962,"byteStride":8},{"buffer":0,"byteOffset":768,"byteLength":72,"target":34963},{"buffer":0,"byteOffset":840,"byteLength":288,"target":34962,"byteStride":12},{"buffer":0,"byteOffset":1128,"byteLength":288,"target":34962,"byteStride":12},{"buffer":0,"byteOffset":1416,"byteLength":192,"target":34962,"byteStride":8},{"buffer":0,"byteOffset":1608,"byteLength":72,"target":34963},{"buffer":0,"byteOffset":1680,"byteLength":4},{"buffer":0,"byteOffset":1684,"byteLength":16},{"buffer":0,"byteOffset":1700,"byteLength":4},{"buffer":0,"byteOffset":1704,"byteLength":12},{"buffer":0,"byteOffset":1716,"byteLength":4},{"buffer":0,"byteOffset":1720,"byteLength":12},{"buffer":0,"byteOffset":1732,"byteLength":4},{"buffer":0,"byteOffset":1736,"byteLength":16},{"buffer":0,"byteOffset":1752,"byteLength":4},{"buffer":0,"byteOffset":1756,"byteLength":12},{"buffer":0,"byteOffset":1768,"byteLength":4},{"buffer":0,"byteOffset":1772,"byteLength":12},{"buffer":0,"byteOffset":1784,"byteLength":4},{"buffer":0,"byteOffset":1788,"byteLength":16},{"buffer":0,"byteOffset":1804,"byteLength":4},{"buffer":0,"byteOffset":1808,"byteLength":12},{"buffer":0,"byteOffset":1820,"byteLength":4},{"buffer":0,"byteOffset":1824,"byteLength":12},{"buffer":0,"byteOffset":1836,"byteLength":4},{"buffer":0,"byteOffset":1840,"byteLength":16},{"buffer":0,"byteOffset":1856,"byteLength":4},{"buffer":0,"byteOffset":1860,"byteLength":12},{"buffer":0,"byteOffset":1872,"byteLength":4},{"buffer":0,"byteOffset":1876,"byteLength":12},{"buffer":0,"byteOffset":1888,"byteLength":4},{"buffer":0,"byteOffset":1892,"byteLength":16},{"buffer":0,"byteOffset":1908,"byteLength":4},{"buffer":0,"byteOffset":1912,"byteLength":12},{"buffer":0,"byteOffset":1924,"byteLength":4},{"buffer":0,"byteOffset":1928,"byteLength":12},{"buffer":0,"byteOffset":1940,"byteLength":4},{"buffer":0,"byteOffset":1944,"byteLength":16},{"buffer":0,"byteOffset":1960,"byteLength":4},{"buffer":0,"byteOffset":1964,"byteLength":12},{"buffer":0,"byteOffset":1976,"byteLength":4},{"buffer":0,"byteOffset":1980,"byteLength":12},{"buffer":0,"byteOffset":1992,"byteLength":4},{"buffer":0,"byteOffset":1996,"byteLength":16},{"buffer":0,"byteOffset":2012,"byteLength":4},{"buffer":0,"byteOffset":2016,"byteLength":12},{"buffer":0,"byteOffset":2028,"byteLength":4},{"buffer":0,"byteOffset":2032,"byteLength":12},{"buffer":0,"byteOffset":2044,"byteLength":4},{"buffer":0,"byteOffset":2048,"byteLength":16},{"buffer":0,"byteOffset":2064,"byteLength":4},{"buffer":0,"byteOffset":2068,"byteLength":12},{"buffer":0,"byteOffset":2080,"byteLength":4},{"buffer":0,"byteOffset":2084,"byteLength":12},{"buffer":0,"byteOffset":2096,"byteLength":4},{"buffer":0,"byteOffset":2100,"byteLength":16},{"buffer":0,"byteOffset":2116,"byteLength":4},{"buffer":0,"byteOffset":2120,"byteLength":12},{"buffer":0,"byteOffset":2132,"byteLength":4},{"buffer":0,"byteOffset":2136,"byteLength":12},{"buffer":0,"byteOffset":2148,"byteLength":4},{"buffer":0,"byteOffset":2152,"byteLength":16},{"buffer":0,"byteOffset":2168,"byteLength":4},{"buffer":0,"byteOffset":2172,"byteLength":12},{"buffer":0,"byteOffset":2184,"byteLength":4},{"buffer":0,"byteOffset":2188,"byteLength":12},{"buffer":0,"byteOffset":2200,"byteLength":4},{"buffer":0,"byteOffset":2204,"byteLength":16},{"buffer":0,"byteOffset":2220,"byteLength":4},{"buffer":0,"byteOffset":2224,"byteLength":12},{"buffer":0,"byteOffset":2236,"byteLength":4},{"buffer":0,"byteOffset":2240,"byteLength":12},{"buffer":0,"byteOffset":2252,"byteLength":4},{"buffer":0,"byteOffset":2256,"byteLength":16},{"buffer":0,"byteOffset":2272,"byteLength":4},{"buffer":0,"byteOffset":2276,"byteLength":12},{"buffer":0,"byteOffset":2288,"byteLength":4},{"buffer":0,"byteOffset":2292,"byteLength":12}],"buffers":[{"byteLength":2304,"uri":"data:application/octet-stream;base64,"}],"accessors":[{"bufferView":0,"componentType":5126,"count":24,"max":[0.9375,0.0625,0.9375],"min":[-0.0625,0,-0.0625],"type":"VEC3"},{"bufferView":1,"componentType":5126,"count":24,"max":[1,1,1],"min":[-1,-1,-1],"type":"VEC3"},{"bufferView":2,"componentType":5126,"count":24,"max":[0.999755859375,0.265380859375],"min":[0.000244140625,0.000244140625],"type":"VEC2"},{"bufferView":3,"componentType":5123,"count":36,"max":[23],"min":[0],"type":"SCALAR"},{"bufferView":4,"componentType":5126,"count":24,"max":[0.6875,0.125,0.6875],"min":[-0.0625,0,-0.0625],"type":"VEC3"},{"bufferView":5,"componentType":5126,"count":24,"max":[1,1,1],"min":[-1,-1,-1],"type":"VEC3"},{"bufferView":6,"componentType":5126,"count":24,"max":[0.749755859375,0.484130859375],"min":[0.000244140625,0.265869140625],"type":"VEC2"},{"bufferView":7,"componentType":5123,"count":36,"max":[23],"min":[0],"type":"SCALAR"},{"bufferView":8,"componentType":5126,"count":1,"max":[0],"min":[0],"type":"SCALAR"},{"bufferView":9,"componentType":5126,"count":1,"max":[0,0,0,1],"min":[0,0,0,1],"type":"VEC4"},{"bufferView":10,"componentType":5126,"count":1,"max":[0],"min":[0],"type":"SCALAR"},{"bufferView":11,"componentType":5126,"count":1,"max":[0,0,0],"min":[0,0,0],"type":"VEC3"},{"bufferView":12,"componentType":5126,"count":1,"max":[0],"min":[0],"type":"SCALAR"},{"bufferView":13,"componentType":5126,"count":1,"max":[1,1,1],"min":[1,1,1],"type":"VEC3"},{"bufferView":14,"componentType":5126,"count":1,"max":[0],"min":[0],"type":"SCALAR"},{"bufferView":15,"componentType":5126,"count":1,"max":[0,0,0,1],"min":[0,0,0,1],"type":"VEC4"},{"bufferView":16,"componentType":5126,"count":1,"max":[0],"min":[0],"type":"SCALAR"},{"bufferView":17,"componentType":5126,"count":1,"max":[0,0,0],"min":[0,0,0],"type":"VEC3"},{"bufferView":18,"componentType":5126,"count":1,"max":[0],"min":[0],"type":"SCALAR"},{"bufferView":19,"componentType":5126,"count":1,"max":[1,1,1],"min":[1,1,1],"type":"VEC3"},{"bufferView":20,"componentType":5126,"count":1,"max":[0],"min":[0],"type":"SCALAR"},{"bufferView":21,"componentType":5126,"count":1,"max":[0,0,0,1],"min":[0,0,0,1],"type":"VEC4"},{"bufferView":22,"componentType":5126,"count":1,"max":[0],"min":[0],"type":"SCALAR"},{"bufferView":23,"componentType":5126,"count":1,"max":[0,0,0],"min":[0,0,0],"type":"VEC3"},{"bufferView":24,"componentType":5126,"count":1,"max":[0],"min":[0],"type":"SCALAR"},{"bufferView":25,"componentType":5126,"count":1,"max":[1,1,1],"min":[1,1,1],"type":"VEC3"},{"bufferView":26,"componentType":5126,"count":1,"max":[0],"min":[0],"type":"SCALAR"},{"bufferView":27,"componentType":5126,"count":1,"max":[0,0,0,1],"min":[0,0,0,1],"type":"VEC4"},{"bufferView":28,"componentType":5126,"count":1,"max":[0],"min":[0],"type":"SCALAR"},{"bufferView":29,"componentType":5126,"count":1,"max":[0,0,0],"min":[0,0,0],"type":"VEC3"},{"bufferView":30,"componentType":5126,"count":1,"max":[0],"min":[0],"type":"SCALAR"},{"bufferView":31,"componentType":5126,"count":1,"max":[1,1,1],"min":[1,1,1],"type":"VEC3"},{"bufferView":32,"componentType":5126,"count":1,"max":[0],"min":[0],"type":"SCALAR"},{"bufferView":33,"componentType":5126,"count":1,"max":[0,0,0,1],"min":[0,0,0,1],"type":"VEC4"},{"bufferView":34,"componentType":5126,"count":1,"max":[0],"min":[0],"type":"SCALAR"},{"bufferView":35,"componentType":5126,"count":1,"max":[0,0,0],"min":[0,0,0],"type":"VEC3"},{"bufferView":36,"componentType":5126,"count":1,"max":[0],"min":[0],"type":"SCALAR"},{"bufferView":37,"componentType":5126,"count":1,"max":[1,1,1],"min":[1,1,1],"type":"VEC3"},{"bufferView":38,"componentType":5126,"count":1,"max":[0],"min":[0],"type":"SCALAR"},{"bufferView":39,"componentType":5126,"count":1,"max":[0,0,0,1],"min":[0,0,0,1],"type":"VEC4"},{"bufferView":40,"componentType":5126,"count":1,"max":[0],"min":[0],"type":"SCALAR"},{"bufferView":41,"componentType":5126,"count":1,"max":[0,0,0],"min":[0,0,0],"type":"VEC3"},{"bufferView":42,"componentType":5126,"count":1,"max":[0],"min":[0],"type":"SCALAR"},{"bufferView":43,"componentType":5126,"count":1,"max":[1,1,1],"min":[1,1,1],"type":"VEC3"},{"bufferView":44,"componentType":5126,"count":1,"max":[0],"min":[0],"type":"SCALAR"},{"bufferView":45,"componentType":5126,"count":1,"max":[0,0,0,1],"min":[0,0,0,1],"type":"VEC4"},{"bufferView":46,"componentType":5126,"count":1,"max":[0],"min":[0],"type":"SCALAR"},{"bufferView":47,"componentType":5126,"count":1,"max":[0,0,0],"min":[0,0,0],"type":"VEC3"},{"bufferView":48,"componentType":5126,"count":1,"max":[0],"min":[0],"type":"SCALAR"},{"bufferView":49,"componentType":5126,"count":1,"max":[1,0.5,1],"min":[1,0.5,1],"type":"VEC3"},{"bufferView":50,"componentType":5126,"count":1,"max":[0],"min":[0],"type":"SCALAR"},{"bufferView":51,"componentType":5126,"count":1,"max":[0,0,0,1],"min":[0,0,0,1],"type":"VEC4"},{"bufferView":52,"componentType":5126,"count":1,"max":[0],"min":[0],"type":"SCALAR"},{"bufferView":53,"componentType":5126,"count":1,"max":[0,0,0],"min":[0,0,0],"type":"VEC3"},{"bufferView":54,"componentType":5126,"count":1,"max":[0],"min":[0],"type":"SCALAR"},{"bufferView":55,"componentType":5126,"count":1,"max":[1,0.5,1],"min":[1,0.5,1],"type":"VEC3"},{"bufferView":56,"componentType":5126,"count":1,"max":[0],"min":[0],"type":"SCALAR"},{"bufferView":57,"componentType":5126,"count":1,"max":[0,0,0,1],"min":[0,0,0,1],"type":"VEC4"},{"bufferView":58,"componentType":5126,"count":1,"max":[0],"min":[0],"type":"SCALAR"},{"bufferView":59,"componentType":5126,"count":1,"max":[0,0,0],"min":[0,0,0],"type":"VEC3"},{"bufferView":60,"componentType":5126,"count":1,"max":[0],"min":[0],"type":"SCALAR"},{"bufferView":61,"componentType":5126,"count":1,"max":[1,0.5,1],"min":[1,0.5,1],"type":"VEC3"},{"bufferView":62,"componentType":5126,"count":1,"max":[0],"min":[0],"type":"SCALAR"},{"bufferView":63,"componentType":5126,"count":1,"max":[0,0,0,1],"min":[0,0,0,1],"type":"VEC4"},{"bufferView":64,"componentType":5126,"count":1,"max":[0],"min":[0],"type":"SCALAR"},{"bufferView":65,"componentType":5126,"count":1,"max":[0,0,0],"min":[0,0,0],"type":"VEC3"},{"bufferView":66,"componentType":5126,"count":1,"max":[0],"min":[0],"type":"SCALAR"},{"bufferView":67,"componentType":5126,"count":1,"max":[1,0.5,1],"min":[1,0.5,1],"type":"VEC3"},{"bufferView":68,"componentType":5126,"count":1,"max":[0],"min":[0],"type":"SCALAR"},{"bufferView":69,"componentType":5126,"count":1,"max":[0,0,0,1],"min":[0,0,0,1],"type":"VEC4"},{"bufferView":70,"componentType":5126,"count":1,"max":[0],"min":[0],"type":"SCALAR"},{"bufferView":71,"componentType":5126,"count":1,"max":[0,0,0],"min":[0,0,0],"type":"VEC3"},{"bufferView":72,"componentType":5126,"count":1,"max":[0],"min":[0],"type":"SCALAR"},{"bufferView":73,"componentType":5126,"count":1,"max":[1,0.5,1],"min":[1,0.5,1],"type":"VEC3"},{"bufferView":74,"componentType":5126,"count":1,"max":[0],"min":[0],"type":"SCALAR"},{"bufferView":75,"componentType":5126,"count":1,"max":[0,0,0,1],"min":[0,0,0,1],"type":"VEC4"},{"bufferView":76,"componentType":5126,"count":1,"max":[0],"min":[0],"type":"SCALAR"},{"bufferView":77,"componentType":5126,"count":1,"max":[0,0,0],"min":[0,0,0],"type":"VEC3"},{"bufferView":78,"componentType":5126,"count":1,"max":[0],"min":[0],"type":"SCALAR"},{"bufferView":79,"componentType":5126,"count":1,"max":[1,0.5,1],"min":[1,0.5,1],"type":"VEC3"}],"materials":[{"pbrMetallicRoughness":{"metallicFactor":0,"roughnessFactor":1,"baseColorTexture":{"index":0}},"alphaMode":"MASK","alphaCutoff":0.05,"doubleSided":true}],"textures":[{"sampler":0,"source":0,"name":"switch-pad-texture-red"}],"samplers":[{"magFilter":9728,"minFilter":9728,"wrapS":33071,"wrapT":33071}],"images":[{"mimeType":"image/png","uri":"data:image/png;base64,"}],"meshes":[{"primitives":[{"mode":4,"attributes":{"POSITION":0,"NORMAL":1,"TEXCOORD_0":2},"indices":3,"material":0}]},{"primitives":[{"mode":4,"attributes":{"POSITION":4,"NORMAL":5,"TEXCOORD_0":6},"indices":7,"material":0}]}],"animations":[{"name":"idle","samplers":[{"input":8,"output":9,"interpolation":"LINEAR"},{"input":10,"output":11,"interpolation":"LINEAR"},{"input":12,"output":13,"interpolation":"LINEAR"},{"input":14,"output":15,"interpolation":"LINEAR"},{"input":16,"output":17,"interpolation":"LINEAR"},{"input":18,"output":19,"interpolation":"LINEAR"},{"input":20,"output":21,"interpolation":"LINEAR"},{"input":22,"output":23,"interpolation":"LINEAR"},{"input":24,"output":25,"interpolation":"LINEAR"},{"input":26,"output":27,"interpolation":"LINEAR"},{"input":28,"output":29,"interpolation":"LINEAR"},{"input":30,"output":31,"interpolation":"LINEAR"},{"input":32,"output":33,"interpolation":"LINEAR"},{"input":34,"output":35,"interpolation":"LINEAR"},{"input":36,"output":37,"interpolation":"LINEAR"},{"input":38,"output":39,"interpolation":"LINEAR"},{"input":40,"output":41,"interpolation":"LINEAR"},{"input":42,"output":43,"interpolation":"LINEAR"}],"channels":[{"sampler":0,"target":{"path":"rotation"}},{"sampler":1,"target":{"path":"translation"}},{"sampler":2,"target":{"path":"scale"}},{"sampler":3,"target":{"path":"rotation"}},{"sampler":4,"target":{"path":"translation"}},{"sampler":5,"target":{"path":"scale"}},{"sampler":6,"target":{"path":"rotation"}},{"sampler":7,"target":{"path":"translation"}},{"sampler":8,"target":{"path":"scale"}},{"sampler":9,"target":{"path":"rotation"}},{"sampler":10,"target":{"path":"translation"}},{"sampler":11,"target":{"path":"scale"}},{"sampler":12,"target":{"path":"rotation"}},{"sampler":13,"target":{"path":"translation"}},{"sampler":14,"target":{"path":"scale"}},{"sampler":15,"target":{"node":2,"path":"rotation"}},{"sampler":16,"target":{"node":2,"path":"translation"}},{"sampler":17,"target":{"node":2,"path":"scale"}}]},{"name":"toggled","samplers":[{"input":44,"output":45,"interpolation":"LINEAR"},{"input":46,"output":47,"interpolation":"LINEAR"},{"input":48,"output":49,"interpolation":"LINEAR"},{"input":50,"output":51,"interpolation":"LINEAR"},{"input":52,"output":53,"interpolation":"LINEAR"},{"input":54,"output":55,"interpolation":"LINEAR"},{"input":56,"output":57,"interpolation":"LINEAR"},{"input":58,"output":59,"interpolation":"LINEAR"},{"input":60,"output":61,"interpolation":"LINEAR"},{"input":62,"output":63,"interpolation":"LINEAR"},{"input":64,"output":65,"interpolation":"LINEAR"},{"input":66,"output":67,"interpolation":"LINEAR"},{"input":68,"output":69,"interpolation":"LINEAR"},{"input":70,"output":71,"interpolation":"LINEAR"},{"input":72,"output":73,"interpolation":"LINEAR"},{"input":74,"output":75,"interpolation":"LINEAR"},{"input":76,"output":77,"interpolation":"LINEAR"},{"input":78,"output":79,"interpolation":"LINEAR"}],"channels":[{"sampler":0,"target":{"path":"rotation"}},{"sampler":1,"target":{"path":"translation"}},{"sampler":2,"target":{"path":"scale"}},{"sampler":3,"target":{"path":"rotation"}},{"sampler":4,"target":{"path":"translation"}},{"sampler":5,"target":{"path":"scale"}},{"sampler":6,"target":{"path":"rotation"}},{"sampler":7,"target":{"path":"translation"}},{"sampler":8,"target":{"path":"scale"}},{"sampler":9,"target":{"path":"rotation"}},{"sampler":10,"target":{"path":"translation"}},{"sampler":11,"target":{"path":"scale"}},{"sampler":12,"target":{"path":"rotation"}},{"sampler":13,"target":{"path":"translation"}},{"sampler":14,"target":{"path":"scale"}},{"sampler":15,"target":{"node":2,"path":"rotation"}},{"sampler":16,"target":{"node":2,"path":"translation"}},{"sampler":17,"target":{"node":2,"path":"scale"}}]}]}