{"asset":{"version":"2.0","generator":"Blockbench 4.12.4 glTF exporter"},"scenes":[{"nodes":[23],"name":"blockbench_export"}],"scene":0,"nodes":[{"translation":[-0.0625,0,-0.0625],"name":"cube","mesh":0},{"translation":[-0.0625,0,-0.0625],"name":"cube","mesh":1},{"rotation":[0,0.3826834323650898,0,0.9238795325112867],"translation":[-0.3163354549121621,0.875,-0.31624706656031554],"name":"cube","mesh":2},{"rotation":[0,-0.3826834323650898,0,0.9238795325112867],"translation":[0.3163354549121621,0.875,-0.31624706656031554],"name":"cube","mesh":3},{"rotation":[0,-0.3826834323650898,0,0.9238795325112867],"translation":[-0.3163354549121621,0.875,0.31624706656031554],"name":"cube","mesh":4},{"rotation":[0,0.3826834323650898,0,0.9238795325112867],"translation":[0.3163354549121621,0.875,0.31624706656031554],"name":"cube","mesh":5},{"rotation":[0,0,0.19509032201612825,0.9807852804032304],"translation":[0.28125,1.765625,0],"name":"cube","mesh":6},{"rotation":[0,0,-0.19509032201612825,0.9807852804032304],"translation":[-0.28125,1.765625,0],"name":"cube","mesh":7},{"rotation":[0,-0.3826834323650898,0,0.9238795325112867],"translation":[-0.3163354549121621,0.875,0.31624706656031554],"name":"cube","mesh":8},{"rotation":[0,-0.3826834323650898,0,0.9238795325112867],"translation":[0.3163354549121621,0.875,-0.31624706656031554],"name":"cube","mesh":9},{"rotation":[0,0.3826834323650898,0,0.9238795325112867],"translation":[-0.3163354549121621,0.875,-0.31624706656031554],"name":"cube","mesh":10},{"rotation":[0,-0.3826834323650898,0,0.9238795325112867],"translation":[0.8383883476483184,1.375,0.2133883476483185],"name":"cube","mesh":11},{"rotation":[0,0.3826834323650898,0,0.9238795325112867],"translation":[0.8383883476483184,1.375,-0.2133883476483185],"name":"cube","mesh":12},{"translation":[0.0625,0.3125,-0.0625],"name":"cube","mesh":13},{"translation":[0.0625,0.3125,-0.0625],"name":"cube","mesh":14},{"translation":[-0.0625,-0.0625,-0.0625],"name":"cube","mesh":15},{"translation":[-0.0625,-0.0625,-0.0625],"name":"cube","mesh":16},{"rotation":[0,0.3826834323650898,0,0.9238795325112867],"translation":[-0.8383883476483184,1,0.2133883476483185],"name":"cube","mesh":17},{"rotation":[0,-0.3826834323650898,0,0.9238795325112867],"translation":[-0.8383883476483184,1,-0.2133883476483185],"name":"cube","mesh":18},{"rotation":[0,0,0.3826834323650898,0.9238795325112867],"translation":[0.07187499999999997,1.6062500000000015,-0.25312500000000004],"name":"cube","mesh":19},{"rotation":[0.19509032201612825,0,0,0.9807852804032304],"translation":[0,1.821875,-0.28125],"name":"cube","mesh":20},{"rotation":[-0.19509032201612825,0,0,0.9807852804032304],"translation":[0,1.821875,0.28125],"name":"cube","mesh":21},{"name":"root","children":[0,1,2,3,4,5,6,7,8,9,10,11,12,13,14,15,16,17,18,19,20,21]},{"children":[22]}],"bufferViews":[{"buffer":0,"byteOffset":0,"byteLength":288,"target":34962,"byteStride":12},{"buffer":0,"byteOffset":288,"byteLength":288,"target":34962,"byteStride":12},{"buffer":0,"byteOffset":576,"byteLength":192,"target":34962,"byteStride":8},{"buffer":0,"byteOffset":768,"byteLength":72,"target":34963},{"buffer":0,"byteOffset":840,"byteLength":288,"target":34962,"byteStride":12},{"buffer":0,"byteOffset":1128,"byteLength":288,"target":34962,"byteStride":12},{"buffer":0,"byteOffset":1416,"byteLength":192,"target":34962,"byteStride":8},{"buffer":0,"byteOffset":1608,"byteLength":72,"target":34963},{"buffer":0,"byteOffset":1680,"byteLength":240,"target":34962,"byteStride":12},{"buffer":0,"byteOffset":1920,"byteLength":240,"target":34962,"byteStride":12},{"buffer":0,"byteOffset":2160,"byteLength":160,"target":34962,"byteStride":8},{"buffer":0,"byteOffset":2320,"byteLength":60,"target":34963},{"buffer":0,"byteOffset":2380,"byteLength":240,"target":34962,"byteStride":12},{"buffer":0,"byteOffset":2620,"byteLength":240,"target":34962,"byteStride":12},{"buffer":0,"byteOffset":2860,"byteLength":160,"target":34962,"byteStride":8},{"buffer":0,"byteOffset":3020,"byteLength":60,"target":34963},{"buffer":0,"byteOffset":3080,"byteLength":240,"target":34962,"byteStride":12},{"buffer":0,"byteOffset":3320,"byteLength":240,"target":34962,"byteStride":12},{"buffer":0,"byteOffset":3560,"byteLength":160,"target":34962,"byteStride":8},{"buffer":0,"byteOffset":3720,"byteLength":60,"target":34963},{"buffer":0,"byteOffset":3780,"byteLength":240,"target":34962,"byteStride":12},{"buffer":0,"byteOffset":4020,"byteLength":240,"target":34962,"byteStride":12},{"buffer":0,"byteOffset":4260,"byteLength":160,"target":34962,"byteStride":8},{"buffer":0,"byteOffset":4420,"byteLength":60,"target":34963},{"buffer":0,"byteOffset":4480,"byteLength":240,"target":34962,"byteStride":12},{"buffer":0,"byteOffset":4720,"byteLength":240,"target":34962,"byteStride":12},{"buffer":0,"byteOffset":4960,"byteLength":160,"target":34962,"byteStride":8},{"buffer":0,"byteOffset":5120,"byteLength":60,"target":34963},{"buffer":0,"byteOffset":5180,"byteLength":240,"target":34962,"byteStride":12},{"buffer":0,"byteOffset":5420,"byteLength":240,"target":34962,"byteStride":12},{"buffer":0,"byteOffset":5660,"byteLength":160,"target":34962,"byteStride":8},{"buffer":0,"byteOffset":5820,"byteLength":60,"target":34963},{"buffer":0,"byteOffset":5880,"byteLength":240,"target":34962,"byteStride":12},{"buffer":0,"byteOffset":6120,"byteLength":240,"target":34962,"byteStride":12},{"buffer":0,"byteOffset":6360,"byteLength":160,"target":34962,"byteStride":8},{"buffer":0,"byteOffset":6520,"byteLength":60,"target":34963},{"buffer":0,"byteOffset":6580,"byteLength":240,"target":34962,"byteStride":12},{"buffer":0,"byteOffset":6820,"byteLength":240,"target":34962,"byteStride":12},{"buffer":0,"byteOffset":7060,"byteLength":160,"target":34962,"byteStride":8},{"buffer":0,"byteOffset":7220,"byteLength":60,"target":34963},{"buffer":0,"byteOffset":7280,"byteLength":240,"target":34962,"byteStride":12},{"buffer":0,"byteOffset":7520,"byteLength":240,"target":34962,"byteStride":12},{"buffer":0,"byteOffset":7760,"byteLength":160,"target":34962,"byteStride":8},{"buffer":0,"byteOffset":7920,"byteLength":60,"target":34963},{"buffer":0,"byteOffset":7980,"byteLength":240,"target":34962,"byteStride":12},{"buffer":0,"byteOffset":8220,"byteLength":240,"target":34962,"byteStride":12},{"buffer":0,"byteOffset":8460,"byteLength":160,"target":34962,"byteStride":8},{"buffer":0,"byteOffset":8620,"byteLength":60,"target":34963},{"buffer":0,"byteOffset":8680,"byteLength":240,"target":34962,"byteStride":12},{"buffer":0,"byteOffset":8920,"byteLength":240,"target":34962,"byteStride":12},{"buffer":0,"byteOffset":9160,"byteLength":160,"target":34962,"byteStride":8},{"buffer":0,"byteOffset":9320,"byteLength":60,"target":34963},{"buffer":0,"byteOffset":9380,"byteLength":288,"target":34962,"byteStride":12},{"buffer":0,"byteOffset":9668,"byteLength":288,"target":34962,"byteStride":12},{"buffer":0,"byteOffset":9956,"byteLength":192,"target":34962,"byteStride":8},{"buffer":0,"byteOffset":10148,"byteLength":72,"target":34963},{"buffer":0,"byteOffset":10220,"byteLength":288,"target":34962,"byteStride":12},{"buffer":0,"byteOffset":10508,"byteLength":288,"target":34962,"byteStride":12},{"buffer":0,"byteOffset":10796,"byteLength":192,"target":34962,"byteStride":8},{"buffer":0,"byteOffset":10988,"byteLength":72,"target":34963},{"buffer":0,"byteOffset":11060,"byteLength":288,"target":34962,"byteStride":12},{"buffer":0,"byteOffset":11348,"byteLength":288,"target":34962,"byteStride":12},{"buffer":0,"byteOffset":11636,"byteLength":192,"target":34962,"byteStride":8},{"buffer":0,"byteOffset":11828,"byteLength":72,"target":34963},{"buffer":0,"byteOffset":11900,"byteLength":288,"target":34962,"byteStride":12},{"buffer":0,"byteOffset":12188,"byteLength":288,"target":34962,"byteStride":12},{"buffer":0,"byteOffset":12476,"byteLength":192,"target":34962,"byteStride":8},{"buffer":0,"byteOffset":12668,"byteLength":72,"target":34963},{"buffer":0,"byteOffset":12740,"byteLength":240,"target":34962,"byteStride":12},{"buffer":0,"byteOffset":12980,"byteLength":240,"target":34962,"byteStride":12},{"buffer":0,"byteOffset":13220,"byteLength":160,"target":34962,"byteStride":8},{"buffer":0,"byteOffset":13380,"byteLength":60,"target":34963},{"buffer":0,"byteOffset":13440,"byteLength":240,"target":34962,"byteStride":12},{"buffer":0,"byteOffset":13680,"byteLength":240,"target":34962,"byteStride":12},{"buffer":0,"byteOffset":13920,"byteLength":160,"target":34962,"byteStride":8},{"buffer":0,"byteOffset":14080,"byteLength":60,"target":34963},{"buffer":0,"byteOffset":14140,"byteLength":240,"target":34962,"byteStride":12},{"buffer":0,"byteOffset":14380,"byteLength":240,"target":34962,"byteStride":12},{"buffer":0,"byteOffset":14620,"byteLength":160,"target":34962,"byteStride":8},{"buffer":0,"byteOffset":14780,"byteLength":60,"target":34963},{"buffer":0,"byteOffset":14840,"byteLength":240,"target":34962,"byteStride":12},{"buffer":0,"byteOffset":15080,"byteLength":240,"target":34962,"byteStride":12},{"buffer":0,"byteOffset":15320,"byteLength":160,"target":34962,"byteStride":8},{"buffer":0,"byteOffset":15480,"byteLength":60,"target":34963},{"buffer":0,"byteOffset":15540,"byteLength":240,"target":34962,"byteStride":12},{"buffer":0,"byteOffset":15780,"byteLength":240,"target":34962,"byteStride":12},{"buffer":0,"byteOffset":16020,"byteLength":160,"target":34962,"byteStride":8},{"buffer":0,"byteOffset":16180,"byteLength":60,"target":34963}],"buffers":[{"byteLength":16240,"uri":"data:application/octet-stream;base64,"}],"accessors":[{"bufferView":0,"componentType":5126,"count":24,"max":[0.3125,1.75,0.3125],"min":[-0.1875,0,-0.1875],"type":"VEC3"},{"bufferView":1,"componentType":5126,"count":24,"max":[1,1,1],"min":[-1,-1,-1],"type":"VEC3"},{"bufferView":2,"componentType":5126,"count":24,"max":[0.499755859375,0.562255859375],"min":[0.000244140625,0.000244140625],"type":"VEC2"},{"bufferView":3,"componentType":5123,"count":36,"max":[23],"min":[0],"type":"SCALAR"},{"bufferView":4,"componentType":5126,"count":24,"max":[0.1875,1.875,0.1875],"min":[-0.0625,1.75,-0.0625],"type":"VEC3"},{"bufferView":5,"componentType":5126,"count":24,"max":[1,1,1],"min":[-1,-1,-1],"type":"VEC3"},{"bufferView":6,"componentType":5126,"count":24,"max":[0.765380859375,0.406005859375],"min":[0.515869140625,0.312744140625],"type":"VEC2"},{"bufferView":7,"componentType":5123,"count":36,"max":[23],"min":[0],"type":"SCALAR"},{"bufferView":8,"componentType":5126,"count":20,"max":[0,0.875,0.09375],"min":[0,-0.875,-0.09375],"type":"VEC3"},{"bufferView":9,"componentType":5126,"count":20,"max":[1,0,0],"min":[-1,0,0],"type":"VEC3"},{"bufferView":10,"componentType":5126,"count":20,"max":[null,null],"min":[null,null],"type":"VEC2"},{"bufferView":11,"componentType":5123,"count":30,"max":[19],"min":[0],"type":"SCALAR"},{"bufferView":12,"componentType":5126,"count":20,"max":[0,0.875,0.09375],"min":[0,-0.875,-0.09375],"type":"VEC3"},{"bufferView":13,"componentType":5126,"count":20,"max":[1,0,0],"min":[1,0,0],"type":"VEC3"},{"bufferView":14,"componentType":5126,"count":20,"max":[null,null],"min":[null,null],"type":"VEC2"},{"bufferView":15,"componentType":5123,"count":30,"max":[19],"min":[0],"type":"SCALAR"},{"bufferView":16,"componentType":5126,"count":20,"max":[0,0.875,0.09375],"min":[0,-0.875,-0.09375],"type":"VEC3"},{"bufferView":17,"componentType":5126,"count":20,"max":[1,0,0],"min":[-1,0,0],"type":"VEC3"},{"bufferView":18,"componentType":5126,"count":20,"max":[null,null],"min":[null,null],"type":"VEC2"},{"bufferView":19,"componentType":5123,"count":30,"max":[19],"min":[0],"type":"SCALAR"},{"bufferView":20,"componentType":5126,"count":20,"max":[0,0.875,0.09375],"min":[0,-0.875,-0.09375],"type":"VEC3"},{"bufferView":21,"componentType":5126,"count":20,"max":[1,0,0],"min":[1,0,0],"type":"VEC3"},{"bufferView":22,"componentType":5126,"count":20,"max":[null,null],"min":[null,null],"type":"VEC2"},{"bufferView":23,"componentType":5123,"count":30,"max":[19],"min":[0],"type":"SCALAR"},{"bufferView":24,"componentType":5126,"count":20,"max":[0.15625,0.046875,0.25],"min":[-0.15625,0.046875,-0.25],"type":"VEC3"},{"bufferView":25,"componentType":5126,"count":20,"max":[1,1,0],"min":[0,0,0],"type":"VEC3"},{"bufferView":26,"componentType":5126,"count":20,"max":[0.12420500069856644,0.6557531356811523],"min":[0,0],"type":"VEC2"},{"bufferView":27,"componentType":5123,"count":30,"max":[19],"min":[0],"type":"SCALAR"},{"bufferView":28,"componentType":5126,"count":20,"max":[0.15625,0.046875,0.25],"min":[-0.15625,0.046875,-0.25],"type":"VEC3"},{"bufferView":29,"componentType":5126,"count":20,"max":[1,1,0],"min":[0,0,0],"type":"VEC3"},{"bufferView":30,"componentType":5126,"count":20,"max":[0.12420500069856644,0.6557531356811523],"min":[0,0],"type":"VEC2"},{"bufferView":31,"componentType":5123,"count":30,"max":[19],"min":[0],"type":"SCALAR"},{"bufferView":32,"componentType":5126,"count":20,"max":[0,0.875,0.09375],"min":[0,-0.875,-0.09375],"type":"VEC3"},{"bufferView":33,"componentType":5126,"count":20,"max":[1,0,0],"min":[-1,0,0],"type":"VEC3"},{"bufferView":34,"componentType":5126,"count":20,"max":[null,null],"min":[null,null],"type":"VEC2"},{"bufferView":35,"componentType":5123,"count":30,"max":[19],"min":[0],"type":"SCALAR"},{"bufferView":36,"componentType":5126,"count":20,"max":[0,0.875,0.09375],"min":[0,-0.875,-0.09375],"type":"VEC3"},{"bufferView":37,"componentType":5126,"count":20,"max":[1,0,0],"min":[1,0,0],"type":"VEC3"},{"bufferView":38,"componentType":5126,"count":20,"max":[null,null],"min":[null,null],"type":"VEC2"},{"bufferView":39,"componentType":5123,"count":30,"max":[19],"min":[0],"type":"SCALAR"},{"bufferView":40,"componentType":5126,"count":20,"max":[0,0.875,0.09375],"min":[0,-0.875,-0.09375],"type":"VEC3"},{"bufferView":41,"componentType":5126,"count":20,"max":[1,0,0],"min":[-1,0,0],"type":"VEC3"},{"bufferView":42,"componentType":5126,"count":20,"max":[null,null],"min":[null,null],"type":"VEC2"},{"bufferView":43,"componentType":5123,"count":30,"max":[19],"min":[0],"type":"SCALAR"},{"bufferView":44,"componentType":5126,"count":20,"max":[0.0625,0.3125,0],"min":[-0.125,-0.3125,0],"type":"VEC3"},{"bufferView":45,"componentType":5126,"count":20,"max":[1,0,1],"min":[0,0,0],"type":"VEC3"},{"bufferView":46,"componentType":5126,"count":20,"max":[null,null],"min":[null,null],"type":"VEC2"},{"bufferView":47,"componentType":5123,"count":30,"max":[19],"min":[0],"type":"SCALAR"},{"bufferView":48,"componentType":5126,"count":20,"max":[0.0625,0.3125,0],"min":[-0.125,-0.3125,0],"type":"VEC3"},{"bufferView":49,"componentType":5126,"count":20,"max":[1,0,0],"min":[0,0,-1],"type":"VEC3"},{"bufferView":50,"componentType":5126,"count":20,"max":[null,null],"min":[null,null],"type":"VEC2"},{"bufferView":51,"componentType":5123,"count":30,"max":[19],"min":[0],"type":"SCALAR"},{"bufferView":52,"componentType":5126,"count":24,"max":[0.6875,1.375,0.1875],"min":[0.4375,1,-0.0625],"type":"VEC3"},{"bufferView":53,"componentType":5126,"count":24,"max":[1,1,1],"min":[-1,-1,-1],"type":"VEC3"},{"bufferView":54,"componentType":5126,"count":24,"max":[0.765380859375,0.296630859375],"min":[0.515869140625,0.140869140625],"type":"VEC2"},{"bufferView":55,"componentType":5123,"count":36,"max":[23],"min":[0],"type":"SCALAR"},{"bufferView":56,"componentType":5126,"count":24,"max":[0.6875,1,0.1875],"min":[0.1875,0.75,-0.0625],"type":"VEC3"},{"bufferView":57,"componentType":5126,"count":24,"max":[1,1,1],"min":[-1,-1,-1],"type":"VEC3"},{"bufferView":58,"componentType":5126,"count":24,"max":[0.890380859375,0.124755859375],"min":[0.515869140625,0.000244140625],"type":"VEC2"},{"bufferView":59,"componentType":5123,"count":36,"max":[23],"min":[0],"type":"SCALAR"},{"bufferView":60,"componentType":5126,"count":24,"max":[-0.1875,1,0.1875],"min":[-0.6875,0.75,-0.0625],"type":"VEC3"},{"bufferView":61,"componentType":5126,"count":24,"max":[1,1,1],"min":[-1,-1,-1],"type":"VEC3"},{"bufferView":62,"componentType":5126,"count":24,"max":[0.890380859375,0.124755859375],"min":[0.515869140625,0.000244140625],"type":"VEC2"},{"bufferView":63,"componentType":5123,"count":36,"max":[23],"min":[0],"type":"SCALAR"},{"bufferView":64,"componentType":5126,"count":24,"max":[-0.4375,1.375,0.1875],"min":[-0.6875,1,-0.0625],"type":"VEC3"},{"bufferView":65,"componentType":5126,"count":24,"max":[1,1,1],"min":[-1,-1,-1],"type":"VEC3"},{"bufferView":66,"componentType":5126,"count":24,"max":[0.765380859375,0.296630859375],"min":[0.515869140625,0.140869140625],"type":"VEC2"},{"bufferView":67,"componentType":5123,"count":36,"max":[23],"min":[0],"type":"SCALAR"},{"bufferView":68,"componentType":5126,"count":20,"max":[0.125,0.3125,0],"min":[-0.0625,-0.3125,0],"type":"VEC3"},{"bufferView":69,"componentType":5126,"count":20,"max":[1,0,1],"min":[0,0,0],"type":"VEC3"},{"bufferView":70,"componentType":5126,"count":20,"max":[null,null],"min":[null,null],"type":"VEC2"},{"bufferView":71,"componentType":5123,"count":30,"max":[19],"min":[0],"type":"SCALAR"},{"bufferView":72,"componentType":5126,"count":20,"max":[0.125,0.3125,0],"min":[-0.0625,-0.3125,0],"type":"VEC3"},{"bufferView":73,"componentType":5126,"count":20,"max":[1,0,0],"min":[0,0,-1],"type":"VEC3"},{"bufferView":74,"componentType":5126,"count":20,"max":[null,null],"min":[null,null],"type":"VEC2"},{"bufferView":75,"componentType":5123,"count":30,"max":[19],"min":[0],"type":"SCALAR"},{"bufferView":76,"componentType":5126,"count":20,"max":[0.1875,0.1875,0],"min":[-0.23169417679309845,-0.23169417679309845,0],"type":"VEC3"},{"bufferView":77,"componentType":5126,"count":20,"max":[0,0,1],"min":[0,0,-1],"type":"VEC3"},{"bufferView":78,"componentType":5126,"count":20,"max":[null,null],"min":[null,null],"type":"VEC2"},{"bufferView":79,"componentType":5123,"count":30,"max":[19],"min":[0],"type":"SCALAR"},{"bufferView":80,"componentType":5126,"count":20,"max":[0.25,0.046875,0.19171620905399323],"min":[-0.25,-0.006083928048610687,-0.15625],"type":"VEC3"},{"bufferView":81,"componentType":5126,"count":20,"max":[1,1,0.830888032913208],"min":[-1,-0.5564396381378174,-0.830888032913208],"type":"VEC3"},{"bufferView":82,"componentType":5126,"count":20,"max":[0.12420500069856644,0.6557531356811523],"min":[0,0],"type":"VEC2"},{"bufferView":83,"componentType":5123,"count":30,"max":[19],"min":[0],"type":"SCALAR"},{"bufferView":84,"componentType":5126,"count":20,"max":[0.25,0.046875,0.15625],"min":[-0.25,-0.006083928048610687,-0.19171620905399323],"type":"VEC3"},{"bufferView":85,"componentType":5126,"count":20,"max":[1,1,0.830888032913208],"min":[-1,-0.5564396381378174,-0.830888032913208],"type":"VEC3"},{"bufferView":86,"componentType":5126,"count":20,"max":[0.12420500069856644,0.6557531356811523],"min":[0,0],"type":"VEC2"},{"bufferView":87,"componentType":5123,"count":30,"max":[19],"min":[0],"type":"SCALAR"}],"materials":[{"pbrMetallicRoughness":{"metallicFactor":0,"roughnessFactor":1,"baseColorTexture":{"index":0}},"alphaMode":"MASK","alphaCutoff":0.05,"doubleSided":true}],"textures":[{"sampler":0,"source":0,"name":"cactus"}],"samplers":[{"magFilter":9728,"minFilter":9728,"wrapS":33071,"wrapT":33071}],"images":[{"mimeType":"image/png","uri":"data:image/png;base64,"}],"meshes":[{"primitives":[{"mode":4,"attributes":{"POSITION":0,"NORMAL":1,"TEXCOORD_0":2},"indices":3,"material":0}]},{"primitives":[{"mode":4,"attributes":{"POSITION":4,"NORMAL":5,"TEXCOORD_0":6},"indices":7,"material":0}]},{"primitives":[{"mode":4,"attributes":{"POSITION":8,"NORMAL":9,"TEXCOORD_0":10},"indices":11,"material":0}]},{"primitives":[{"mode":4,"attributes":{"POSITION":12,"NORMAL":13,"TEXCOORD_0":14},"indices":15,"material":0}]},{"primitives":[{"mode":4,"attributes":{"POSITION":16,"NORMAL":17,"TEXCOORD_0":18},"indices":19,"material":0}]},{"primitives":[{"mode":4,"attributes":{"POSITION":20,"NORMAL":21,"TEXCOORD_0":22},"indices":23,"material":0}]},{"primitives":[{"mode":4,"attributes":{"POSITION":24,"NORMAL":25,"TEXCOORD_0":26},"indices":27,"material":0}]},{"primitives":[{"mode":4,"attributes":{"POSITION":28,"NORMAL":29,"TEXCOORD_0":30},"indices":31,"material":0}]},{"primitives":[{"mode":4,"attributes":{"POSITION":32,"NORMAL":33,"TEXCOORD_0":34},"indices":35,"material":0}]},{"primitives":[{"mode":4,"attributes":{"POSITION":36,"NORMAL":37,"TEXCOORD_0":38},"indices":39,"material":0}]},{"primitives":[{"mode":4,"attributes":{"POSITION":40,"NORMAL":41,"TEXCOORD_0":42},"indices":43,"material":0}]},{"primitives":[{"mode":4,"attributes":{"POSITION":44,"NORMAL":45,"TEXCOORD_0":46},"indices":47,"material":0}]},{"primitives":[{"mode":4,"attributes":{"POSITION":48,"NORMAL":49,"TEXCOORD_0":50},"indices":51,"material":0}]},{"primitives":[{"mode":4,"attributes":{"POSITION":52,"NORMAL":53,"TEXCOORD_0":54},"indices":55,"material":0}]},{"primitives":[{"mode":4,"attributes":{"POSITION":56,"NORMAL":57,"TEXCOORD_0":58},"indices":59,"material":0}]},{"primitives":[{"mode":4,"attributes":{"POSITION":60,"NORMAL":61,"TEXCOORD_0":62},"indices":63,"material":0}]},{"primitives":[{"mode":4,"attributes":{"POSITION":64,"NORMAL":65,"TEXCOORD_0":66},"indices":67,"material":0}]},{"primitives":[{"mode":4,"attributes":{"POSITION":68,"NORMAL":69,"TEXCOORD_0":70},"indices":71,"material":0}]},{"primitives":[{"mode":4,"attributes":{"POSITION":72,"NORMAL":73,"TEXCOORD_0":74},"indices":75,"material":0}]},{"primitives":[{"mode":4,"attributes":{"POSITION":76,"NORMAL":77,"TEXCOORD_0":78},"indices":79,"material":0}]},{"primitives":[{"mode":4,"attributes":{"POSITION":80,"NORMAL":81,"TEXCOORD_0":82},"indices":83,"material":0}]},{"primitives":[{"mode":4,"attributes":{"POSITION":84,"NORMAL":85,"TEXCOORD_0":86},"indices":87,"material":0}]}]}