{"asset":{"version":"2.0","generator":"Blockbench 4.12.4 glTF exporter"},"scenes":[{"nodes":[12],"name":"blockbench_export"}],"scene":0,"nodes":[{"translation":[-0.0625,0.8125,-0.0625],"name":"cube","mesh":0},{"translation":[-0.0625,2.3125,-0.0625],"name":"cube","mesh":1},{"rotation":[0.0746578340503426,-0.37533027751786524,-0.18023995550173696,0.9061274463528878],"translation":[-0.23249964692008623,1.8924344298623939,-0.2324996469200864],"name":"cube","mesh":2},{"rotation":[0.0746578340503426,0.37533027751786524,0.18023995550173696,0.9061274463528878],"translation":[0.23249964692008623,1.8924344298623939,-0.2324996469200864],"name":"cube","mesh":3},{"rotation":[-0.0746578340503426,-0.37533027751786524,0.18023995550173696,0.9061274463528878],"translation":[0.23249964692008623,1.8924344298623939,0.2324996469200864],"name":"cube","mesh":4},{"rotation":[-0.0746578340503426,0.37533027751786524,-0.18023995550173696,0.9061274463528878],"translation":[-0.23249964692008623,1.8924344298623939,0.2324996469200864],"name":"cube","mesh":5},{"translation":[-0.0625,2.5625,-0.0625],"name":"cube","mesh":6},{"translation":[-0.0625,2.3125,-0.0625],"name":"cube","mesh":7},{"translation":[-0.0625,0.8125,-0.0625],"name":"cube","mesh":8},{"rotation":[0,-0.3826834323650898,0,0.9238795325112867],"translation":[0,1.4375,0],"name":"cube","mesh":9},{"rotation":[0,-0.9238795325112867,0,0.38268343236508984],"translation":[0,1.4375,0],"name":"cube","mesh":10},{"translation":[0,-0.625,0],"name":"root","children":[0,1,2,3,4,5,6,7,8,9,10]},{"children":[11]}],"bufferViews":[{"buffer":0,"byteOffset":0,"byteLength":288,"target":34962,"byteStride":12},{"buffer":0,"byteOffset":288,"byteLength":288,"target":34962,"byteStride":12},{"buffer":0,"byteOffset":576,"byteLength":192,"target":34962,"byteStride":8},{"buffer":0,"byteOffset":768,"byteLength":72,"target":34963},{"buffer":0,"byteOffset":840,"byteLength":288,"target":34962,"byteStride":12},{"buffer":0,"byteOffset":1128,"byteLength":288,"target":34962,"byteStride":12},{"buffer":0,"byteOffset":1416,"byteLength":192,"target":34962,"byteStride":8},{"buffer":0,"byteOffset":1608,"byteLength":72,"target":34963},{"buffer":0,"byteOffset":1680,"byteLength":240,"target":34962,"byteStride":12},{"buffer":0,"byteOffset":1920,"byteLength":240,"target":34962,"byteStride":12},{"buffer":0,"byteOffset":2160,"byteLength":160,"target":34962,"byteStride":8},{"buffer":0,"byteOffset":2320,"byteLength":60,"target":34963},{"buffer":0,"byteOffset":2380,"byteLength":240,"target":34962,"byteStride":12},{"buffer":0,"byteOffset":2620,"byteLength":240,"target":34962,"byteStride":12},{"buffer":0,"byteOffset":2860,"byteLength":160,"target":34962,"byteStride":8},{"buffer":0,"byteOffset":3020,"byteLength":60,"target":34963},{"buffer":0,"byteOffset":3080,"byteLength":240,"target":34962,"byteStride":12},{"buffer":0,"byteOffset":3320,"byteLength":240,"target":34962,"byteStride":12},{"buffer":0,"byteOffset":3560,"byteLength":160,"target":34962,"byteStride":8},{"buffer":0,"byteOffset":3720,"byteLength":60,"target":34963},{"buffer":0,"byteOffset":3780,"byteLength":240,"target":34962,"byteStride":12},{"buffer":0,"byteOffset":4020,"byteLength":240,"target":34962,"byteStride":12},{"buffer":0,"byteOffset":4260,"byteLength":160,"target":34962,"byteStride":8},{"buffer":0,"byteOffset":4420,"byteLength":60,"target":34963},{"buffer":0,"byteOffset":4480,"byteLength":288,"target":34962,"byteStride":12},{"buffer":0,"byteOffset":4768,"byteLength":288,"target":34962,"byteStride":12},{"buffer":0,"byteOffset":5056,"byteLength":192,"target":34962,"byteStride":8},{"buffer":0,"byteOffset":5248,"byteLength":72,"target":34963},{"buffer":0,"byteOffset":5320,"byteLength":288,"target":34962,"byteStride":12},{"buffer":0,"byteOffset":5608,"byteLength":288,"target":34962,"byteStride":12},{"buffer":0,"byteOffset":5896,"byteLength":192,"target":34962,"byteStride":8},{"buffer":0,"byteOffset":6088,"byteLength":72,"target":34963},{"buffer":0,"byteOffset":6160,"byteLength":288,"target":34962,"byteStride":12},{"buffer":0,"byteOffset":6448,"byteLength":288,"target":34962,"byteStride":12},{"buffer":0,"byteOffset":6736,"byteLength":192,"target":34962,"byteStride":8},{"buffer":0,"byteOffset":6928,"byteLength":72,"target":34963},{"buffer":0,"byteOffset":7000,"byteLength":240,"target":34962,"byteStride":12},{"buffer":0,"byteOffset":7240,"byteLength":240,"target":34962,"byteStride":12},{"buffer":0,"byteOffset":7480,"byteLength":160,"target":34962,"byteStride":8},{"buffer":0,"byteOffset":7640,"byteLength":60,"target":34963},{"buffer":0,"byteOffset":7700,"byteLength":240,"target":34962,"byteStride":12},{"buffer":0,"byteOffset":7940,"byteLength":240,"target":34962,"byteStride":12},{"buffer":0,"byteOffset":8180,"byteLength":160,"target":34962,"byteStride":8},{"buffer":0,"byteOffset":8340,"byteLength":60,"target":34963}],"buffers":[{"byteLength":8400,"uri":"data:application/octet-stream;base64,"}],"accessors":[{"bufferView":0,"componentType":5126,"count":24,"max":[0.375,0.25,0.375],"min":[-0.25,0,-0.25],"type":"VEC3"},{"bufferView":1,"componentType":5126,"count":24,"max":[1,1,1],"min":[-1,-1,-1],"type":"VEC3"},{"bufferView":2,"componentType":5126,"count":24,"max":[0.6396874785423279,0.5303125381469727],"min":[0.26656249165534973,0.0009375214576721191],"type":"VEC2"},{"bufferView":3,"componentType":5123,"count":36,"max":[23],"min":[0],"type":"SCALAR"},{"bufferView":4,"componentType":5126,"count":24,"max":[0.1875,0.25,0.1875],"min":[-0.0625,0.0625,-0.0625],"type":"VEC3"},{"bufferView":5,"componentType":5126,"count":24,"max":[1,1,1],"min":[-1,-1,-1],"type":"VEC3"},{"bufferView":6,"componentType":5126,"count":24,"max":[0.6553124785423279,0.6553125381469727],"min":[0.0009374999790452421,0.0009375214576721191],"type":"VEC2"},{"bufferView":7,"componentType":5123,"count":36,"max":[23],"min":[0],"type":"SCALAR"},{"bufferView":8,"componentType":5126,"count":20,"max":[0.09375,0.53125,0],"min":[-0.09375,-0.53125,0],"type":"VEC3"},{"bufferView":9,"componentType":5126,"count":20,"max":[1,0,0],"min":[0,0,-1],"type":"VEC3"},{"bufferView":10,"componentType":5126,"count":20,"max":[0.48421207070350647,0.5772017240524292],"min":[0,0],"type":"VEC2"},{"bufferView":11,"componentType":5123,"count":30,"max":[19],"min":[0],"type":"SCALAR"},{"bufferView":12,"componentType":5126,"count":20,"max":[0.09375,0.53125,0],"min":[-0.09375,-0.53125,0],"type":"VEC3"},{"bufferView":13,"componentType":5126,"count":20,"max":[1,0,0],"min":[0,0,-1],"type":"VEC3"},{"bufferView":14,"componentType":5126,"count":20,"max":[0.48421207070350647,0.5772017240524292],"min":[0,0],"type":"VEC2"},{"bufferView":15,"componentType":5123,"count":30,"max":[19],"min":[0],"type":"SCALAR"},{"bufferView":16,"componentType":5126,"count":20,"max":[0.09375,0.53125,0],"min":[-0.09375,-0.53125,0],"type":"VEC3"},{"bufferView":17,"componentType":5126,"count":20,"max":[1,0,1],"min":[0,0,0],"type":"VEC3"},{"bufferView":18,"componentType":5126,"count":20,"max":[0.48421207070350647,0.5772017240524292],"min":[0,0],"type":"VEC2"},{"bufferView":19,"componentType":5123,"count":30,"max":[19],"min":[0],"type":"SCALAR"},{"bufferView":20,"componentType":5126,"count":20,"max":[0.09375,0.53125,0],"min":[-0.09375,-0.53125,0],"type":"VEC3"},{"bufferView":21,"componentType":5126,"count":20,"max":[1,0,1],"min":[0,0,0],"type":"VEC3"},{"bufferView":22,"componentType":5126,"count":20,"max":[0.48421207070350647,0.5772017240524292],"min":[0,0],"type":"VEC2"},{"bufferView":23,"componentType":5123,"count":30,"max":[19],"min":[0],"type":"SCALAR"},{"bufferView":24,"componentType":5126,"count":24,"max":[0.25,0.0625,0.25],"min":[-0.125,0,-0.125],"type":"VEC3"},{"bufferView":25,"componentType":5126,"count":24,"max":[1,1,1],"min":[-1,-1,-1],"type":"VEC3"},{"bufferView":26,"componentType":5126,"count":24,"max":[0.6865624785423279,0.6240625381469727],"min":[0.12593750655651093,0.15718752145767212],"type":"VEC2"},{"bufferView":27,"componentType":5123,"count":36,"max":[23],"min":[0],"type":"SCALAR"},{"bufferView":28,"componentType":5126,"count":24,"max":[0.25,0.0625,0.25],"min":[-0.125,0,-0.125],"type":"VEC3"},{"bufferView":29,"componentType":5126,"count":24,"max":[1,1,1],"min":[-1,-1,-1],"type":"VEC3"},{"bufferView":30,"componentType":5126,"count":24,"max":[0.6865624785423279,0.6709375381469727],"min":[0.36031249165534973,0.20406252145767212],"type":"VEC2"},{"bufferView":31,"componentType":5123,"count":36,"max":[23],"min":[0],"type":"SCALAR"},{"bufferView":32,"componentType":5126,"count":24,"max":[0.5,0.625,0.5],"min":[-0.375,0,-0.375],"type":"VEC3"},{"bufferView":33,"componentType":5126,"count":24,"max":[1,1,1],"min":[-1,-1,-1],"type":"VEC3"},{"bufferView":34,"componentType":5126,"count":24,"max":[0.43656250834465027,0.5928125381469727],"min":[0.0009374999790452421,0.0009375214576721191],"type":"VEC2"},{"bufferView":35,"componentType":5123,"count":36,"max":[23],"min":[0],"type":"SCALAR"},{"bufferView":36,"componentType":5126,"count":20,"max":[0.1875,0.375,0],"min":[-0.1875,-0.375,0],"type":"VEC3"},{"bufferView":37,"componentType":5126,"count":20,"max":[1,0,0],"min":[0,0,-1],"type":"VEC3"},{"bufferView":38,"componentType":5126,"count":20,"max":[null,null],"min":[null,null],"type":"VEC2"},{"bufferView":39,"componentType":5123,"count":30,"max":[19],"min":[0],"type":"SCALAR"},{"bufferView":40,"componentType":5126,"count":20,"max":[0.1875,0.375,0],"min":[-0.1875,-0.375,0],"type":"VEC3"},{"bufferView":41,"componentType":5126,"count":20,"max":[1,0,0],"min":[0,0,-1],"type":"VEC3"},{"bufferView":42,"componentType":5126,"count":20,"max":[null,null],"min":[null,null],"type":"VEC2"},{"bufferView":43,"componentType":5123,"count":30,"max":[19],"min":[0],"type":"SCALAR"}],"materials":[{"pbrMetallicRoughness":{"metallicFactor":0,"roughnessFactor":1,"baseColorTexture":{"index":0}},"alphaMode":"MASK","alphaCutoff":0.05,"doubleSided":true},{"pbrMetallicRoughness":{"metallicFactor":0,"roughnessFactor":1,"baseColorTexture":{"index":1}},"alphaMode":"MASK","alphaCutoff":0.05,"doubleSided":true}],"textures":[{"sampler":0,"source":0,"name":"fire_2"},{"sampler":1,"source":1,"name":"fire"}],"samplers":[{"magFilter":9728,"minFilter":9728,"wrapS":33071,"wrapT":33071},{"magFilter":9728,"minFilter":9728,"wrapS":33071,"wrapT":33071}],"images":[{"mimeType":"image/png","uri":"data:image/png;base64,"},{"mimeType":"image/png","uri":"data:image/png;base64,"}],"meshes":[{"primitives":[{"mode":4,"attributes":{"POSITION":0,"NORMAL":1,"TEXCOORD_0":2},"indices":3,"material":0}]},{"primitives":[{"mode":4,"attributes":{"POSITION":4,"NORMAL":5,"TEXCOORD_0":6},"indices":7,"material":0}]},{"primitives":[{"mode":4,"attributes":{"POSITION":8,"NORMAL":9,"TEXCOORD_0":10},"indices":11,"material":0}]},{"primitives":[{"mode":4,"attributes":{"POSITION":12,"NORMAL":13,"TEXCOORD_0":14},"indices":15,"material":0}]},{"primitives":[{"mode":4,"attributes":{"POSITION":16,"NORMAL":17,"TEXCOORD_0":18},"indices":19,"material":0}]},{"primitives":[{"mode":4,"attributes":{"POSITION":20,"NORMAL":21,"TEXCOORD_0":22},"indices":23,"material":0}]},{"primitives":[{"mode":4,"attributes":{"POSITION":24,"NORMAL":25,"TEXCOORD_0":26},"indices":27,"material":0}]},{"primitives":[{"mode":4,"attributes":{"POSITION":28,"NORMAL":29,"TEXCOORD_0":30},"indices":31,"material":0}]},{"primitives":[{"mode":4,"attributes":{"POSITION":32,"NORMAL":33,"TEXCOORD_0":34},"indices":35,"material":0}]},{"primitives":[{"mode":4,"attributes":{"POSITION":36,"NORMAL":37,"TEXCOORD_0":38},"indices":39,"material":1}]},{"primitives":[{"mode":4,"attributes":{"POSITION":40,"NORMAL":41,"TEXCOORD_0":42},"indices":43,"material":1}]}]}