{
  "asset": {
    "generator": "glTF-Transform v4.1.3",
    "version": "2.0"
  },
  "accessors": [
    {
      "type": "SCALAR",
      "componentType": 5123,
      "count": 900,
      "bufferView": 0,
      "byteOffset": 0
    },
    {
      "type": "SCALAR",
      "componentType": 5123,
      "count": 864,
      "bufferView": 0,
      "byteOffset": 1800
    },
    {
      "type": "VEC3",
      "componentType": 5126,
      "count": 600,
      "max": [
        0.9419417381286621,
        1.7000000476837158,
        1.25
      ],
      "min": [
        -1.5125000476837158,
        0,
        -0.7856917381286621
      ],
      "bufferView": 1,
      "byteOffset": 0
    },
    {
      "type": "VEC3",
      "componentType": 5126,
      "count": 600,
      "bufferView": 1,
      "byteOffset": 12
    },
    {
      "type": "VEC2",
      "componentType": 5126,
      "count": 600,
      "bufferView": 1,
      "byteOffset": 24
    },
    {
      "type": "VEC3",
      "componentType": 5126,
      "count": 576,
      "max": [
        2.0011942386627197,
        0.6390625238418579,
        1.095213532447815
      ],
      "min": [
        -0.19423338770866394,
        -0.12725122272968292,
        -0.1721363067626953
      ],
      "bufferView": 2,
      "byteOffset": 0
    },
    {
      "type": "VEC2",
      "componentType": 5126,
      "count": 576,
      "bufferView": 2,
      "byteOffset": 12
    },
    {
      "type": "VEC3",
      "componentType": 5126,
      "count": 576,
      "bufferView": 2,
      "byteOffset": 20
    }
  ],
  "bufferViews": [
    {
      "buffer": 0,
      "byteOffset": 0,
      "byteLength": 3528,
      "target": 34963
    },
    {
      "buffer": 0,
      "byteOffset": 3528,
      "byteLength": 19200,
      "byteStride": 32,
      "target": 34962
    },
    {
      "buffer": 0,
      "byteOffset": 22728,
      "byteLength": 18432,
      "byteStride": 32,
      "target": 34962
    }
  ],
  "samplers": [
    {
      "magFilter": 9728,
      "minFilter": 9728,
      "wrapS": 33071,
      "wrapT": 33071
    }
  ],
  "textures": [
    {
      "source": 0,
      "sampler": 0
    },
    {
      "source": 1,
      "sampler": 0
    }
  ],
  "images": [
    {
      "mimeType": "image/png",
      "uri": "baseColor_1.png"
    },
    {
      "mimeType": "image/png",
      "uri": "baseColor_2.png"
    }
  ],
  "buffers": [
    {
      "uri": "market-stall-large-2.bin",
      "byteLength": 41160
    }
  ],
  "materials": [
    {
      "alphaMode": "MASK",
      "alphaCutoff": 0.05,
      "pbrMetallicRoughness": {
        "metallicFactor": 0,
        "baseColorTexture": {
          "index": 0
        }
      }
    },
    {
      "alphaMode": "MASK",
      "alphaCutoff": 0.05,
      "pbrMetallicRoughness": {
        "metallicFactor": 0,
        "baseColorTexture": {
          "index": 1
        }
      }
    }
  ],
  "meshes": [
    {
      "primitives": [
        {
          "attributes": {
            "POSITION": 2,
            "NORMAL": 3,
            "TEXCOORD_0": 4
          },
          "mode": 4,
          "material": 0,
          "indices": 0
        }
      ]
    },
    {
      "primitives": [
        {
          "attributes": {
            "POSITION": 5,
            "TEXCOORD_0": 6,
            "NORMAL": 7
          },
          "mode": 4,
          "material": 1,
          "indices": 1
        }
      ]
    }
  ],
  "nodes": [
    {
      "name": "cube",
      "translation": [
        1,
        0,
        0
      ],
      "mesh": 0
    },
    {
      "name": "exterior",
      "translation": [
        -0.1171875,
        0.5484375,
        0.546875
      ],
      "rotation": [
        0,
        0.3826834323650898,
        0,
        0.9238795325112867
      ],
      "mesh": 1
    }
  ],
  "scenes": [
    {
      "name": "blockbench_export",
      "nodes": [
        0,
        1
      ]
    }
  ],
  "scene": 0
}