{
  "asset": {
    "generator": "glTF-Transform v4.1.1",
    "version": "2.0"
  },
  "accessors": [
    {
      "type": "SCALAR",
      "componentType": 5123,
      "count": 36,
      "bufferView": 0,
      "byteOffset": 0
    },
    {
      "type": "SCALAR",
      "componentType": 5123,
      "count": 30,
      "bufferView": 0,
      "byteOffset": 72
    },
    {
      "type": "SCALAR",
      "componentType": 5123,
      "count": 30,
      "bufferView": 0,
      "byteOffset": 132
    },
    {
      "type": "VEC3",
      "componentType": 5126,
      "count": 24,
      "max": [
        0.25,
        0.625,
        0.25
      ],
      "min": [
        -0.125,
        0,
        -0.125
      ],
      "bufferView": 1,
      "byteOffset": 0
    },
    {
      "type": "VEC3",
      "componentType": 5126,
      "count": 24,
      "bufferView": 1,
      "byteOffset": 12
    },
    {
      "type": "VEC2",
      "componentType": 5126,
      "count": 24,
      "bufferView": 1,
      "byteOffset": 24
    },
    {
      "type": "VEC3",
      "componentType": 5126,
      "count": 24,
      "max": [
        0.1875,
        1.5,
        0.1875
      ],
      "min": [
        -0.0625,
        0.625,
        -0.0625
      ],
      "bufferView": 2,
      "byteOffset": 0
    },
    {
      "type": "VEC2",
      "componentType": 5126,
      "count": 24,
      "bufferView": 2,
      "byteOffset": 12
    },
    {
      "type": "VEC3",
      "componentType": 5126,
      "count": 24,
      "max": [
        0,
        0.3125,
        0
      ],
      "min": [
        -0.1875,
        0,
        -0.1875
      ],
      "bufferView": 3,
      "byteOffset": 0
    },
    {
      "type": "VEC2",
      "componentType": 5126,
      "count": 24,
      "bufferView": 3,
      "byteOffset": 12
    },
    {
      "type": "VEC3",
      "componentType": 5126,
      "count": 24,
      "max": [
        0.3125,
        0.1875,
        0.1875
      ],
      "min": [
        0.125,
        0,
        0
      ],
      "bufferView": 4,
      "byteOffset": 0
    },
    {
      "type": "VEC2",
      "componentType": 5126,
      "count": 24,
      "bufferView": 4,
      "byteOffset": 12
    },
    {
      "type": "VEC3",
      "componentType": 5126,
      "count": 15,
      "max": [
        0.3125,
        -0.05624999850988388,
        0.5625
      ],
      "min": [
        -0.1875,
        -0.05624999850988388,
        0.0625
      ],
      "bufferView": 5,
      "byteOffset": 0
    },
    {
      "type": "VEC3",
      "componentType": 5126,
      "count": 15,
      "bufferView": 5,
      "byteOffset": 12
    },
    {
      "type": "VEC2",
      "componentType": 5126,
      "count": 15,
      "bufferView": 5,
      "byteOffset": 24
    },
    {
      "type": "VEC3",
      "componentType": 5126,
      "count": 14,
      "max": [
        0.3125,
        0.06875000149011612,
        0.125
      ],
      "min": [
        -0.1875,
        0.06875000149011612,
        -0.375
      ],
      "bufferView": 6,
      "byteOffset": 0
    },
    {
      "type": "VEC2",
      "componentType": 5126,
      "count": 14,
      "bufferView": 6,
      "byteOffset": 12
    },
    {
      "type": "VEC3",
      "componentType": 5126,
      "count": 14,
      "bufferView": 6,
      "byteOffset": 20
    },
    {
      "type": "VEC3",
      "componentType": 5126,
      "count": 24,
      "max": [
        0.09375,
        0.4375,
        0.09375
      ],
      "min": [
        -0.09375,
        -0.3125,
        -0.09375
      ],
      "bufferView": 7,
      "byteOffset": 0
    },
    {
      "type": "VEC2",
      "componentType": 5126,
      "count": 24,
      "bufferView": 7,
      "byteOffset": 12
    },
    {
      "type": "VEC3",
      "componentType": 5126,
      "count": 24,
      "max": [
        0.0625,
        0.8125,
        0.0625
      ],
      "min": [
        -0.0625,
        0.375,
        -0.0625
      ],
      "bufferView": 8,
      "byteOffset": 0
    },
    {
      "type": "VEC2",
      "componentType": 5126,
      "count": 24,
      "bufferView": 8,
      "byteOffset": 12
    },
    {
      "type": "VEC3",
      "componentType": 5126,
      "count": 15,
      "max": [
        0.25,
        0.25,
        0
      ],
      "min": [
        -0.25,
        -0.25,
        0
      ],
      "bufferView": 9,
      "byteOffset": 0
    },
    {
      "type": "VEC3",
      "componentType": 5126,
      "count": 15,
      "bufferView": 9,
      "byteOffset": 12
    },
    {
      "type": "VEC3",
      "componentType": 5126,
      "count": 14,
      "max": [
        0.234375,
        0.625,
        0.0625
      ],
      "min": [
        -0.265625,
        0.125,
        0.0625
      ],
      "bufferView": 10,
      "byteOffset": 0
    },
    {
      "type": "VEC2",
      "componentType": 5126,
      "count": 14,
      "bufferView": 10,
      "byteOffset": 12
    },
    {
      "type": "VEC3",
      "componentType": 5126,
      "count": 14,
      "bufferView": 10,
      "byteOffset": 20
    },
    {
      "type": "VEC3",
      "componentType": 5126,
      "count": 14,
      "max": [
        0.15625,
        0.0625,
        -1.1449174941446927e-16
      ],
      "min": [
        -0.34375,
        -0.4375,
        -1.1449174941446927e-16
      ],
      "bufferView": 11,
      "byteOffset": 0
    },
    {
      "type": "VEC3",
      "componentType": 5126,
      "count": 14,
      "max": [
        0.359375,
        -0.15625,
        5.551115123125783e-17
      ],
      "min": [
        -0.140625,
        -0.65625,
        5.551115123125783e-17
      ],
      "bufferView": 12,
      "byteOffset": 0
    },
    {
      "type": "VEC2",
      "componentType": 5126,
      "count": 24,
      "bufferView": 13,
      "byteOffset": 0
    },
    {
      "type": "VEC2",
      "componentType": 5126,
      "count": 24,
      "bufferView": 14,
      "byteOffset": 0
    },
    {
      "type": "VEC3",
      "componentType": 5126,
      "count": 14,
      "max": [
        0.25,
        0.25,
        -5.551115123125783e-17
      ],
      "min": [
        -0.25,
        -0.25,
        -5.551115123125783e-17
      ],
      "bufferView": 15,
      "byteOffset": 0
    },
    {
      "type": "VEC3",
      "componentType": 5126,
      "count": 15,
      "max": [
        0.28125,
        0.5625,
        0
      ],
      "min": [
        -0.21875,
        0.0625,
        0
      ],
      "bufferView": 16,
      "byteOffset": 0
    },
    {
      "type": "VEC2",
      "componentType": 5126,
      "count": 15,
      "bufferView": 16,
      "byteOffset": 12
    },
    {
      "type": "VEC3",
      "componentType": 5126,
      "count": 14,
      "max": [
        0.25,
        0.25,
        1.6653345369377348e-16
      ],
      "min": [
        -0.25,
        -0.25,
        1.6653345369377348e-16
      ],
      "bufferView": 17,
      "byteOffset": 0
    },
    {
      "type": "VEC3",
      "componentType": 5126,
      "count": 15,
      "max": [
        0.1875,
        0.296875,
        9.71445146547012e-17
      ],
      "min": [
        -0.3125,
        -0.203125,
        9.71445146547012e-17
      ],
      "bufferView": 18,
      "byteOffset": 0
    },
    {
      "type": "SCALAR",
      "componentType": 5126,
      "count": 38,
      "max": [
        6
      ],
      "min": [
        0
      ],
      "bufferView": 19,
      "byteOffset": 0
    },
    {
      "type": "VEC4",
      "componentType": 5126,
      "count": 38,
      "bufferView": 19,
      "byteOffset": 152
    }
  ],
  "bufferViews": [
    {
      "buffer": 0,
      "byteOffset": 0,
      "byteLength": 192,
      "target": 34963
    },
    {
      "buffer": 0,
      "byteOffset": 192,
      "byteLength": 768,
      "byteStride": 32,
      "target": 34962
    },
    {
      "buffer": 0,
      "byteOffset": 960,
      "byteLength": 480,
      "byteStride": 20,
      "target": 34962
    },
    {
      "buffer": 0,
      "byteOffset": 1440,
      "byteLength": 480,
      "byteStride": 20,
      "target": 34962
    },
    {
      "buffer": 0,
      "byteOffset": 1920,
      "byteLength": 480,
      "byteStride": 20,
      "target": 34962
    },
    {
      "buffer": 0,
      "byteOffset": 2400,
      "byteLength": 480,
      "byteStride": 32,
      "target": 34962
    },
    {
      "buffer": 0,
      "byteOffset": 2880,
      "byteLength": 448,
      "byteStride": 32,
      "target": 34962
    },
    {
      "buffer": 0,
      "byteOffset": 3328,
      "byteLength": 480,
      "byteStride": 20,
      "target": 34962
    },
    {
      "buffer": 0,
      "byteOffset": 3808,
      "byteLength": 480,
      "byteStride": 20,
      "target": 34962
    },
    {
      "buffer": 0,
      "byteOffset": 4288,
      "byteLength": 360,
      "byteStride": 24,
      "target": 34962
    },
    {
      "buffer": 0,
      "byteOffset": 4648,
      "byteLength": 448,
      "byteStride": 32,
      "target": 34962
    },
    {
      "buffer": 0,
      "byteOffset": 5096,
      "byteLength": 168,
      "byteStride": 12,
      "target": 34962
    },
    {
      "buffer": 0,
      "byteOffset": 5264,
      "byteLength": 168,
      "byteStride": 12,
      "target": 34962
    },
    {
      "buffer": 0,
      "byteOffset": 5432,
      "byteLength": 192,
      "byteStride": 8,
      "target": 34962
    },
    {
      "buffer": 0,
      "byteOffset": 5624,
      "byteLength": 192,
      "byteStride": 8,
      "target": 34962
    },
    {
      "buffer": 0,
      "byteOffset": 5816,
      "byteLength": 168,
      "byteStride": 12,
      "target": 34962
    },
    {
      "buffer": 0,
      "byteOffset": 5984,
      "byteLength": 300,
      "byteStride": 20,
      "target": 34962
    },
    {
      "buffer": 0,
      "byteOffset": 6284,
      "byteLength": 168,
      "byteStride": 12,
      "target": 34962
    },
    {
      "buffer": 0,
      "byteOffset": 6452,
      "byteLength": 180,
      "byteStride": 12,
      "target": 34962
    },
    {
      "buffer": 0,
      "byteOffset": 6632,
      "byteLength": 760
    }
  ],
  "samplers": [
    {
      "magFilter": 9728,
      "minFilter": 9728,
      "wrapS": 33071,
      "wrapT": 33071
    }
  ],
  "textures": [
    {
      "source": 0,
      "sampler": 0
    }
  ],
  "images": [
    {
      "mimeType": "image/png",
      "uri": "baseColor.png"
    }
  ],
  "buffers": [
    {
      "uri": "dead-tree-small-named-nodes.bin",
      "byteLength": 7392
    }
  ],
  "materials": [
    {
      "alphaMode": "MASK",
      "alphaCutoff": 0.05,
      "doubleSided": true,
      "pbrMetallicRoughness": {
        "metallicFactor": 0,
        "baseColorTexture": {
          "index": 0
        }
      }
    }
  ],
  "meshes": [
    {
      "primitives": [
        {
          "attributes": {
            "POSITION": 3,
            "NORMAL": 4,
            "TEXCOORD_0": 5
          },
          "mode": 4,
          "material": 0,
          "indices": 0
        }
      ]
    },
    {
      "primitives": [
        {
          "attributes": {
            "POSITION": 6,
            "TEXCOORD_0": 7,
            "NORMAL": 4
          },
          "mode": 4,
          "material": 0,
          "indices": 0
        }
      ]
    },
    {
      "primitives": [
        {
          "attributes": {
            "POSITION": 8,
            "TEXCOORD_0": 9,
            "NORMAL": 4
          },
          "mode": 4,
          "material": 0,
          "indices": 0
        }
      ]
    },
    {
      "primitives": [
        {
          "attributes": {
            "POSITION": 10,
            "TEXCOORD_0": 11,
            "NORMAL": 4
          },
          "mode": 4,
          "material": 0,
          "indices": 0
        }
      ]
    },
    {
      "primitives": [
        {
          "attributes": {
            "POSITION": 12,
            "NORMAL": 13,
            "TEXCOORD_0": 14
          },
          "mode": 4,
          "material": 0,
          "indices": 1
        }
      ]
    },
    {
      "primitives": [
        {
          "attributes": {
            "POSITION": 15,
            "TEXCOORD_0": 16,
            "NORMAL": 17
          },
          "mode": 4,
          "material": 0,
          "indices": 2
        }
      ]
    },
    {
      "primitives": [
        {
          "attributes": {
            "POSITION": 18,
            "TEXCOORD_0": 19,
            "NORMAL": 4
          },
          "mode": 4,
          "material": 0,
          "indices": 0
        }
      ]
    },
    {
      "primitives": [
        {
          "attributes": {
            "POSITION": 20,
            "TEXCOORD_0": 21,
            "NORMAL": 4
          },
          "mode": 4,
          "material": 0,
          "indices": 0
        }
      ]
    },
    {
      "primitives": [
        {
          "attributes": {
            "POSITION": 22,
            "NORMAL": 23,
            "TEXCOORD_0": 14
          },
          "mode": 4,
          "material": 0,
          "indices": 1
        }
      ]
    },
    {
      "primitives": [
        {
          "attributes": {
            "POSITION": 24,
            "TEXCOORD_0": 25,
            "NORMAL": 26
          },
          "mode": 4,
          "material": 0,
          "indices": 2
        }
      ]
    },
    {
      "primitives": [
        {
          "attributes": {
            "POSITION": 27,
            "NORMAL": 26,
            "TEXCOORD_0": 25
          },
          "mode": 4,
          "material": 0,
          "indices": 2
        }
      ]
    },
    {
      "primitives": [
        {
          "attributes": {
            "POSITION": 28,
            "NORMAL": 26,
            "TEXCOORD_0": 25
          },
          "mode": 4,
          "material": 0,
          "indices": 2
        }
      ]
    },
    {
      "primitives": [
        {
          "attributes": {
            "TEXCOORD_0": 29,
            "POSITION": 18,
            "NORMAL": 4
          },
          "mode": 4,
          "material": 0,
          "indices": 0
        }
      ]
    },
    {
      "primitives": [
        {
          "attributes": {
            "TEXCOORD_0": 30,
            "POSITION": 20,
            "NORMAL": 4
          },
          "mode": 4,
          "material": 0,
          "indices": 0
        }
      ]
    },
    {
      "primitives": [
        {
          "attributes": {
            "POSITION": 31,
            "NORMAL": 26,
            "TEXCOORD_0": 25
          },
          "mode": 4,
          "material": 0,
          "indices": 2
        }
      ]
    },
    {
      "primitives": [
        {
          "attributes": {
            "POSITION": 32,
            "TEXCOORD_0": 33,
            "NORMAL": 23
          },
          "mode": 4,
          "material": 0,
          "indices": 1
        }
      ]
    },
    {
      "primitives": [
        {
          "attributes": {
            "POSITION": 34,
            "NORMAL": 26,
            "TEXCOORD_0": 25
          },
          "mode": 4,
          "material": 0,
          "indices": 2
        }
      ]
    },
    {
      "primitives": [
        {
          "attributes": {
            "POSITION": 35,
            "NORMAL": 23,
            "TEXCOORD_0": 33
          },
          "mode": 4,
          "material": 0,
          "indices": 1
        }
      ]
    }
  ],
  "nodes": [
    {
      "name": "cube",
      "translation": [
        -0.0625,
        0,
        -0.0625
      ],
      "mesh": 0
    },
    {
      "name": "cube",
      "translation": [
        -0.0625,
        0,
        -0.0625
      ],
      "mesh": 1
    },
    {
      "name": "cube",
      "translation": [
        -0.0625,
        0,
        -0.0625
      ],
      "mesh": 2
    },
    {
      "name": "cube",
      "translation": [
        -0.0625,
        0,
        0.0625
      ],
      "mesh": 3
    },
    {
      "name": "cube",
      "translation": [
        -0.375,
        0.0625,
        0
      ],
      "mesh": 4
    },
    {
      "name": "cube",
      "translation": [
        0.031249999999999944,
        -0.0625,
        -0.25
      ],
      "rotation": [
        0,
        -0.19509032201612825,
        0,
        0.9807852804032304
      ],
      "mesh": 5
    },
    {
      "name": "cube",
      "translation": [
        -0.21781928268001724,
        1.5645068063879428,
        0.016746824526945193
      ],
      "rotation": [
        -0.014209978633323692,
        0.12975038868036715,
        0.35933733062278056,
        0.9240344127603846
      ],
      "mesh": 6
    },
    {
      "name": "cube",
      "translation": [
        -0.3761126666398214,
        1.4727913611801293,
        0.06571652924240137
      ],
      "rotation": [
        -0.041956269435270956,
        0.12359918410143658,
        0.15082194953277678,
        0.9799059407329189
      ],
      "mesh": 7
    },
    {
      "name": "cube",
      "translation": [
        -0.19165288465353184,
        0.37284434879605444,
        0.006124816309645594
      ],
      "rotation": [
        0,
        0,
        0.906307787036651,
        0.422618261740697
      ],
      "mesh": 8
    },
    {
      "name": "cube",
      "translation": [
        0.2553658097209486,
        -0.017546078978291524,
        0.006124816309645594
      ],
      "rotation": [
        0.0760616930949585,
        -0.13174271695017908,
        0.04311172358208163,
        0.9874208093127751
      ],
      "mesh": 9
    },
    {
      "name": "cube",
      "translation": [
        -0.06515508792365055,
        -0.07226819045414401,
        0.35225800741038593
      ],
      "rotation": [
        -0.5912467468418707,
        0.32436907284935695,
        0.7060693165238165,
        -0.21605117262200652
      ],
      "mesh": 10
    },
    {
      "name": "cube",
      "translation": [
        0.07079387959428779,
        -0.35639121306009525,
        -0.3540681200280773
      ],
      "rotation": [
        0.6199394446825464,
        0.34011041903036776,
        -0.7029039684006538,
        -0.07698051052244742
      ],
      "mesh": 11
    },
    {
      "name": "bone5",
      "translation": [
        0.041358683537677354,
        -0.05127899894953014,
        0
      ],
      "children": [
        8,
        9,
        10,
        11
      ]
    },
    {
      "name": "bone2",
      "translation": [
        -0.5099676160237708,
        1.8888472208000606,
        0.046053767449099364
      ],
      "rotation": [
        -0.04195626943527095,
        0.12359918410143657,
        0.15082194953277678,
        0.9799059407329189
      ],
      "children": [
        12
      ]
    },
    {
      "name": "cube",
      "translation": [
        0.2060986661658692,
        1.5641549546473374,
        0.0647047612756302
      ],
      "rotation": [
        0.12265449964846556,
        -0.044642586970855797,
        -0.3390941135865681,
        0.9316534201490777
      ],
      "mesh": 12
    },
    {
      "name": "cube",
      "translation": [
        0.3731871239561065,
        1.4756369059877317,
        0.07531384275369356
      ],
      "rotation": [
        0.11008467397292,
        -0.07013167195883598,
        -0.12940952255125998,
        0.9829629131445342
      ],
      "mesh": 13
    },
    {
      "name": "cube",
      "translation": [
        0.20046592188605938,
        0.4057217968313749,
        0.004556018577153154
      ],
      "rotation": [
        0,
        0,
        0.04361938736533597,
        0.9990482215818578
      ],
      "mesh": 14
    },
    {
      "name": "cube",
      "translation": [
        -0.2946672806415881,
        0.09375,
        0.0670560185771531
      ],
      "rotation": [
        -0.0212388736717593,
        0.10677502837830746,
        0.1939307711259655,
        0.9749558244199863
      ],
      "mesh": 15
    },
    {
      "name": "cube",
      "translation": [
        0,
        0,
        0.3125
      ],
      "rotation": [
        0.6341847973991339,
        -0.31274533209597155,
        -0.6341847973991338,
        0.3127453320959716
      ],
      "mesh": 16
    },
    {
      "name": "cube",
      "translation": [
        -0.0033818689677825864,
        0.2516246616127624,
        -0.3680570085305062
      ],
      "rotation": [
        0.7205193116526559,
        -0.23953054273327223,
        -0.5782778848692518,
        0.29844887083825844
      ],
      "mesh": 17
    },
    {
      "name": "bone6",
      "translation": [
        -0.006210097270570536,
        0.4645805732761248,
        -0.004556018577153098
      ],
      "children": [
        16,
        17,
        18,
        19
      ]
    },
    {
      "name": "bone3",
      "translation": [
        0.0508773779121581,
        1.3791694267238752,
        0
      ],
      "rotation": [
        0.12265449964846555,
        -0.044642586970855797,
        -0.33909411358656805,
        0.9316534201490777
      ],
      "children": [
        20
      ]
    }
  ],
  "animations": [
    {
      "name": "idle",
      "samplers": [
        {
          "input": 36,
          "output": 37,
          "interpolation": "LINEAR"
        },
        {
          "input": 36,
          "output": 37,
          "interpolation": "LINEAR"
        }
      ],
      "channels": [
        {
          "sampler": 0,
          "target": {
            "node": 12,
            "path": "rotation"
          }
        },
        {
          "sampler": 1,
          "target": {
            "node": 20,
            "path": "rotation"
          }
        }
      ]
    }
  ],
  "scenes": [
    {
      "name": "blockbench_export",
      "nodes": [
        0,
        1,
        2,
        3,
        4,
        5,
        6,
        13,
        7,
        21,
        14,
        15
      ]
    }
  ],
  "scene": 0
}