{"asset":{"version":"2.0","generator":"Blockbench 4.12.5 glTF exporter"},"scenes":[{"nodes":[12],"name":"blockbench_export"}],"scene":0,"nodes":[{"rotation":[0.026416002665204982,0.5108919427714479,-0.17162720808835447,0.8419238202225925],"translation":[-0.190275,0.025596249999999987,-0.05585062499999999],"name":"55150dab-6a83-10be-3ee7-5f292422e809"},{"rotation":[0.026416002665204982,-0.5108919427714479,0.17162720808835447,0.8419238202225925],"translation":[0.190275,0.025596249999999987,-0.05585062499999999],"name":"f17bd932-3a99-1eb2-106d-40588ea71463"},{"translation":[0,0.25,-0.0703125],"name":"c436253f-c002-dde4-c3be-d182eb2e998f","children":[0,1]},{"translation":[-0.0625,-0.5,-0.0625],"name":"cube","mesh":0},{"translation":[-0.0625,-0.5,-0.0625],"name":"cube","mesh":1},{"translation":[0.0625,-0.5,-0.0625],"name":"cube","mesh":2},{"translation":[-0.09375,0,0],"name":"cube","mesh":3},{"rotation":[0.026415948792401833,0.510891926691886,-0.17162717516886106,0.8419238383808876],"translation":[-0.09375,0.09375,-0.0625],"name":"left_wing","children":[6]},{"translation":[0.09375,0,0],"name":"cube","mesh":4},{"rotation":[0.026415948792401833,-0.510891926691886,0.17162717516886106,0.8419238383808876],"translation":[0.09375,0.09375,-0.0625],"name":"right_wing","children":[8]},{"translation":[0,0.5,0],"name":"bee","children":[3,4,5,7,9]},{"translation":[0,-0.375,0],"name":"root","children":[10]},{"children":[2,11]}],"bufferViews":[{"buffer":0,"byteOffset":0,"byteLength":288,"target":34962,"byteStride":12},{"buffer":0,"byteOffset":288,"byteLength":288,"target":34962,"byteStride":12},{"buffer":0,"byteOffset":576,"byteLength":192,"target":34962,"byteStride":8},{"buffer":0,"byteOffset":768,"byteLength":72,"target":34963},{"buffer":0,"byteOffset":840,"byteLength":240,"target":34962,"byteStride":12},{"buffer":0,"byteOffset":1080,"byteLength":240,"target":34962,"byteStride":12},{"buffer":0,"byteOffset":1320,"byteLength":160,"target":34962,"byteStride":8},{"buffer":0,"byteOffset":1480,"byteLength":60,"target":34963},{"buffer":0,"byteOffset":1540,"byteLength":240,"target":34962,"byteStride":12},{"buffer":0,"byteOffset":1780,"byteLength":240,"target":34962,"byteStride":12},{"buffer":0,"byteOffset":2020,"byteLength":160,"target":34962,"byteStride":8},{"buffer":0,"byteOffset":2180,"byteLength":60,"target":34963},{"buffer":0,"byteOffset":2240,"byteLength":240,"target":34962,"byteStride":12},{"buffer":0,"byteOffset":2480,"byteLength":240,"target":34962,"byteStride":12},{"buffer":0,"byteOffset":2720,"byteLength":160,"target":34962,"byteStride":8},{"buffer":0,"byteOffset":2880,"byteLength":60,"target":34963},{"buffer":0,"byteOffset":2940,"byteLength":240,"target":34962,"byteStride":12},{"buffer":0,"byteOffset":3180,"byteLength":240,"target":34962,"byteStride":12},{"buffer":0,"byteOffset":3420,"byteLength":160,"target":34962,"byteStride":8},{"buffer":0,"byteOffset":3580,"byteLength":60,"target":34963},{"buffer":0,"byteOffset":3640,"byteLength":784},{"buffer":0,"byteOffset":4424,"byteLength":3136},{"buffer":0,"byteOffset":7560,"byteLength":784},{"buffer":0,"byteOffset":8344,"byteLength":3136},{"buffer":0,"byteOffset":11480,"byteLength":784},{"buffer":0,"byteOffset":12264,"byteLength":3136},{"buffer":0,"byteOffset":15400,"byteLength":580},{"buffer":0,"byteOffset":15980,"byteLength":2320},{"buffer":0,"byteOffset":18300,"byteLength":580},{"buffer":0,"byteOffset":18880,"byteLength":2320}],"buffers":[{"byteLength":21200,"uri":"data:application/octet-stream;base64,"}],"accessors":[{"bufferView":0,"componentType":5126,"count":24,"max":[0.15625,0.59375,0.21875],"min":[-0.03125,0.40625,-0.09375],"type":"VEC3"},{"bufferView":1,"componentType":5126,"count":24,"max":[1,1,1],"min":[-1,-1,-1],"type":"VEC3"},{"bufferView":2,"componentType":5126,"count":24,"max":[0.9990234375,0.4990234375],"min":[0.0009765625,0.0009765625],"type":"VEC2"},{"bufferView":3,"componentType":5123,"count":36,"max":[23],"min":[0],"type":"SCALAR"},{"bufferView":4,"componentType":5126,"count":20,"max":[-0.03125,0.59375,-0.09375],"min":[-0.03125,0.53125,-0.21875],"type":"VEC3"},{"bufferView":5,"componentType":5126,"count":20,"max":[1,0,0],"min":[1,0,0],"type":"VEC3"},{"bufferView":6,"componentType":5126,"count":20,"max":[0.25005000829696655,1],"min":[0,0.8125],"type":"VEC2"},{"bufferView":7,"componentType":5123,"count":30,"max":[19],"min":[0],"type":"SCALAR"},{"bufferView":8,"componentType":5126,"count":20,"max":[0.03125,0.59375,-0.09375],"min":[0.03125,0.53125,-0.21875],"type":"VEC3"},{"bufferView":9,"componentType":5126,"count":20,"max":[1,0,0],"min":[-1,0,0],"type":"VEC3"},{"bufferView":10,"componentType":5126,"count":20,"max":[0.25005000829696655,1],"min":[0,0.8125],"type":"VEC2"},{"bufferView":11,"componentType":5123,"count":30,"max":[19],"min":[0],"type":"SCALAR"},{"bufferView":12,"componentType":5126,"count":20,"max":[0.09375,0,0.09375],"min":[-0.09375,0,-0.09375],"type":"VEC3"},{"bufferView":13,"componentType":5126,"count":20,"max":[1,1,0],"min":[0,0,0],"type":"VEC3"},{"bufferView":14,"componentType":5126,"count":20,"max":[1,0.8125500082969666],"min":[0,0.625],"type":"VEC2"},{"bufferView":15,"componentType":5123,"count":30,"max":[19],"min":[0],"type":"SCALAR"},{"bufferView":16,"componentType":5126,"count":20,"max":[0.09375,0,0.09375],"min":[-0.09375,0,-0.09375],"type":"VEC3"},{"bufferView":17,"componentType":5126,"count":20,"max":[1,1,0],"min":[0,0,0],"type":"VEC3"},{"bufferView":18,"componentType":5126,"count":20,"max":[1,0.8125500082969666],"min":[0,0.625],"type":"VEC2"},{"bufferView":19,"componentType":5123,"count":30,"max":[19],"min":[0],"type":"SCALAR"},{"bufferView":20,"componentType":5126,"count":196,"max":[5.983333110809326],"min":[0],"type":"SCALAR"},{"bufferView":21,"componentType":5126,"count":196,"max":[0.02617296203970909,0.0001758442522259429,0.008725040592253208,1],"min":[-0.02617296203970909,-0.0001758442522259429,-0.008725040592253208,0.999657392501831],"type":"VEC4"},{"bufferView":22,"componentType":5126,"count":196,"max":[5.983333110809326],"min":[0],"type":"SCALAR"},{"bufferView":23,"componentType":5126,"count":196,"max":[0.23985323309898376,0.5114257335662842,0.20026534795761108,0.8591138124465942],"min":[-0.19197127223014832,0.4518614709377289,-0.511359453201294,0.6905093789100647],"type":"VEC4"},{"bufferView":24,"componentType":5126,"count":196,"max":[5.983333110809326],"min":[0],"type":"SCALAR"},{"bufferView":25,"componentType":5126,"count":196,"max":[0.23985323309898376,-0.4518614709377289,0.511359453201294,0.8591138124465942],"min":[-0.19197127223014832,-0.5114257335662842,-0.20026534795761108,0.6905093789100647],"type":"VEC4"},{"bufferView":26,"componentType":5126,"count":145,"max":[4.316666603088379],"min":[0],"type":"SCALAR"},{"bufferView":27,"componentType":5126,"count":145,"max":[0.04037205129861832,0.5114811658859253,-0.14412057399749756,0.8470660448074341],"min":[0.009765759110450745,0.5099788904190063,-0.19457826018333435,0.836917519569397],"type":"VEC4"},{"bufferView":28,"componentType":5126,"count":145,"max":[4.316666603088379],"min":[0],"type":"SCALAR"},{"bufferView":29,"componentType":5126,"count":145,"max":[0.04037205129861832,-0.5099788904190063,0.19457826018333435,0.8470660448074341],"min":[0.009765759110450745,-0.5114811658859253,0.14412057399749756,0.836917519569397],"type":"VEC4"}],"materials":[{"pbrMetallicRoughness":{"metallicFactor":0,"roughnessFactor":1,"baseColorTexture":{"index":0}},"alphaMode":"MASK","alphaCutoff":0.05,"doubleSided":true}],"textures":[{"sampler":0,"source":0,"name":"bee_small"}],"samplers":[{"magFilter":9728,"minFilter":9728,"wrapS":33071,"wrapT":33071}],"images":[{"mimeType":"image/png","uri":"data:image/png;base64,"}],"meshes":[{"primitives":[{"mode":4,"attributes":{"POSITION":0,"NORMAL":1,"TEXCOORD_0":2},"indices":3,"material":0}]},{"primitives":[{"mode":4,"attributes":{"POSITION":4,"NORMAL":5,"TEXCOORD_0":6},"indices":7,"material":0}]},{"primitives":[{"mode":4,"attributes":{"POSITION":8,"NORMAL":9,"TEXCOORD_0":10},"indices":11,"material":0}]},{"primitives":[{"mode":4,"attributes":{"POSITION":12,"NORMAL":13,"TEXCOORD_0":14},"indices":15,"material":0}]},{"primitives":[{"mode":4,"attributes":{"POSITION":16,"NORMAL":17,"TEXCOORD_0":18},"indices":19,"material":0}]}],"animations":[{"name":"fly","samplers":[{"input":20,"output":21,"interpolation":"LINEAR"},{"input":22,"output":23,"interpolation":"LINEAR"},{"input":24,"output":25,"interpolation":"LINEAR"}],"channels":[{"sampler":0,"target":{"node":11,"path":"rotation"}},{"sampler":1,"target":{"node":7,"path":"rotation"}},{"sampler":2,"target":{"node":9,"path":"rotation"}}]},{"name":"idle","samplers":[{"input":26,"output":27,"interpolation":"LINEAR"},{"input":28,"output":29,"interpolation":"LINEAR"}],"channels":[{"sampler":0,"target":{"node":7,"path":"rotation"}},{"sampler":1,"target":{"node":9,"path":"rotation"}}]}]}