{
  "asset": {
    "generator": "glTF-Transform v4.1.3",
    "version": "2.0"
  },
  "accessors": [
    {
      "type": "SCALAR",
      "componentType": 5123,
      "count": 36,
      "bufferView": 0,
      "byteOffset": 0
    },
    {
      "type": "VEC3",
      "componentType": 5126,
      "count": 24,
      "max": [
        -0.24062499403953552,
        0.65625,
        0.03125
      ],
      "min": [
        -0.3031249940395355,
        -0.96875,
        -0.03125
      ],
      "bufferView": 1,
      "byteOffset": 0
    },
    {
      "type": "VEC3",
      "componentType": 5126,
      "count": 24,
      "bufferView": 1,
      "byteOffset": 12
    },
    {
      "type": "VEC2",
      "componentType": 5126,
      "count": 24,
      "bufferView": 1,
      "byteOffset": 24
    },
    {
      "type": "VEC3",
      "componentType": 5126,
      "count": 24,
      "max": [
        -0.22499999403953552,
        -0.703125,
        0.046875
      ],
      "min": [
        -0.3187499940395355,
        -0.984375,
        -0.046875
      ],
      "bufferView": 2,
      "byteOffset": 0
    },
    {
      "type": "VEC2",
      "componentType": 5126,
      "count": 24,
      "bufferView": 2,
      "byteOffset": 12
    },
    {
      "type": "VEC3",
      "componentType": 5126,
      "count": 24,
      "max": [
        -0.22812500596046448,
        0.668749988079071,
        0.04374999925494194
      ],
      "min": [
        -0.31562501192092896,
        0.518750011920929,
        -0.04374999925494194
      ],
      "bufferView": 3,
      "byteOffset": 0
    },
    {
      "type": "VEC2",
      "componentType": 5126,
      "count": 24,
      "bufferView": 3,
      "byteOffset": 12
    },
    {
      "type": "VEC3",
      "componentType": 5126,
      "count": 24,
      "max": [
        -0.17812499403953552,
        1.03125,
        0.0000625000029685907
      ],
      "min": [
        -0.3656249940395355,
        0.65625,
        0
      ],
      "bufferView": 4,
      "byteOffset": 0
    },
    {
      "type": "VEC2",
      "componentType": 5126,
      "count": 24,
      "bufferView": 4,
      "byteOffset": 12
    },
    {
      "type": "VEC3",
      "componentType": 5126,
      "count": 24,
      "max": [
        0.09375,
        0.1875,
        0.06093750149011612
      ],
      "min": [
        -0.09375,
        -0.1875,
        0.02968749962747097
      ],
      "bufferView": 5,
      "byteOffset": 0
    },
    {
      "type": "VEC2",
      "componentType": 5126,
      "count": 24,
      "bufferView": 5,
      "byteOffset": 12
    },
    {
      "type": "VEC3",
      "componentType": 5126,
      "count": 24,
      "max": [
        0.40710875391960144,
        0.6243749856948853,
        -0.06059874966740608
      ],
      "min": [
        0.21960875391960144,
        -0.6243749856948853,
        -0.12309875339269638
      ],
      "bufferView": 6,
      "byteOffset": 0
    },
    {
      "type": "VEC2",
      "componentType": 5126,
      "count": 24,
      "bufferView": 6,
      "byteOffset": 12
    },
    {
      "type": "VEC3",
      "componentType": 5126,
      "count": 24,
      "max": [
        0.25,
        0.625,
        0.03281249850988388
      ],
      "min": [
        -0.25,
        -0.625,
        -0.02968749962747097
      ],
      "bufferView": 7,
      "byteOffset": 0
    },
    {
      "type": "VEC2",
      "componentType": 5126,
      "count": 24,
      "bufferView": 7,
      "byteOffset": 12
    },
    {
      "type": "VEC3",
      "componentType": 5126,
      "count": 24,
      "max": [
        0.09375,
        0.1875,
        -0.02968749962747097
      ],
      "min": [
        -0.09375,
        -0.1875,
        -0.06093750149011612
      ],
      "bufferView": 8,
      "byteOffset": 0
    },
    {
      "type": "VEC2",
      "componentType": 5126,
      "count": 24,
      "bufferView": 8,
      "byteOffset": 12
    },
    {
      "type": "VEC3",
      "componentType": 5126,
      "count": 24,
      "max": [
        -0.21960875391960144,
        0.6243749856948853,
        -0.06059874966740608
      ],
      "min": [
        -0.40710875391960144,
        -0.6243749856948853,
        -0.12309875339269638
      ],
      "bufferView": 9,
      "byteOffset": 0
    },
    {
      "type": "VEC2",
      "componentType": 5126,
      "count": 24,
      "bufferView": 9,
      "byteOffset": 12
    }
  ],
  "bufferViews": [
    {
      "buffer": 0,
      "byteOffset": 0,
      "byteLength": 72,
      "target": 34963
    },
    {
      "buffer": 0,
      "byteOffset": 72,
      "byteLength": 768,
      "byteStride": 32,
      "target": 34962
    },
    {
      "buffer": 0,
      "byteOffset": 840,
      "byteLength": 480,
      "byteStride": 20,
      "target": 34962
    },
    {
      "buffer": 0,
      "byteOffset": 1320,
      "byteLength": 480,
      "byteStride": 20,
      "target": 34962
    },
    {
      "buffer": 0,
      "byteOffset": 1800,
      "byteLength": 480,
      "byteStride": 20,
      "target": 34962
    },
    {
      "buffer": 0,
      "byteOffset": 2280,
      "byteLength": 480,
      "byteStride": 20,
      "target": 34962
    },
    {
      "buffer": 0,
      "byteOffset": 2760,
      "byteLength": 480,
      "byteStride": 20,
      "target": 34962
    },
    {
      "buffer": 0,
      "byteOffset": 3240,
      "byteLength": 480,
      "byteStride": 20,
      "target": 34962
    },
    {
      "buffer": 0,
      "byteOffset": 3720,
      "byteLength": 480,
      "byteStride": 20,
      "target": 34962
    },
    {
      "buffer": 0,
      "byteOffset": 4200,
      "byteLength": 480,
      "byteStride": 20,
      "target": 34962
    }
  ],
  "samplers": [
    {
      "magFilter": 9728,
      "minFilter": 9728,
      "wrapS": 33071,
      "wrapT": 33071
    }
  ],
  "textures": [
    {
      "source": 0,
      "sampler": 0
    }
  ],
  "images": [
    {
      "mimeType": "image/png",
      "uri": "baseColor.png"
    }
  ],
  "buffers": [
    {
      "uri": "weapon-stack-named-nodes.bin",
      "byteLength": 4680
    }
  ],
  "materials": [
    {
      "alphaMode": "MASK",
      "alphaCutoff": 0.05,
      "pbrMetallicRoughness": {
        "metallicFactor": 0,
        "baseColorTexture": {
          "index": 0
        }
      }
    }
  ],
  "meshes": [
    {
      "primitives": [
        {
          "attributes": {
            "POSITION": 1,
            "NORMAL": 2,
            "TEXCOORD_0": 3
          },
          "mode": 4,
          "material": 0,
          "indices": 0
        }
      ]
    },
    {
      "primitives": [
        {
          "attributes": {
            "POSITION": 4,
            "TEXCOORD_0": 5,
            "NORMAL": 2
          },
          "mode": 4,
          "material": 0,
          "indices": 0
        }
      ]
    },
    {
      "primitives": [
        {
          "attributes": {
            "POSITION": 6,
            "TEXCOORD_0": 7,
            "NORMAL": 2
          },
          "mode": 4,
          "material": 0,
          "indices": 0
        }
      ]
    },
    {
      "primitives": [
        {
          "attributes": {
            "POSITION": 8,
            "TEXCOORD_0": 9,
            "NORMAL": 2
          },
          "mode": 4,
          "material": 0,
          "indices": 0
        }
      ]
    },
    {
      "primitives": [
        {
          "attributes": {
            "POSITION": 4,
            "NORMAL": 2,
            "TEXCOORD_0": 5
          },
          "mode": 4,
          "material": 0,
          "indices": 0
        }
      ]
    },
    {
      "primitives": [
        {
          "attributes": {
            "POSITION": 6,
            "NORMAL": 2,
            "TEXCOORD_0": 7
          },
          "mode": 4,
          "material": 0,
          "indices": 0
        }
      ]
    },
    {
      "primitives": [
        {
          "attributes": {
            "POSITION": 8,
            "NORMAL": 2,
            "TEXCOORD_0": 9
          },
          "mode": 4,
          "material": 0,
          "indices": 0
        }
      ]
    },
    {
      "primitives": [
        {
          "attributes": {
            "POSITION": 10,
            "TEXCOORD_0": 11,
            "NORMAL": 2
          },
          "mode": 4,
          "material": 0,
          "indices": 0
        }
      ]
    },
    {
      "primitives": [
        {
          "attributes": {
            "POSITION": 12,
            "TEXCOORD_0": 13,
            "NORMAL": 2
          },
          "mode": 4,
          "material": 0,
          "indices": 0
        }
      ]
    },
    {
      "primitives": [
        {
          "attributes": {
            "POSITION": 14,
            "TEXCOORD_0": 15,
            "NORMAL": 2
          },
          "mode": 4,
          "material": 0,
          "indices": 0
        }
      ]
    },
    {
      "primitives": [
        {
          "attributes": {
            "POSITION": 16,
            "TEXCOORD_0": 17,
            "NORMAL": 2
          },
          "mode": 4,
          "material": 0,
          "indices": 0
        }
      ]
    },
    {
      "primitives": [
        {
          "attributes": {
            "POSITION": 18,
            "TEXCOORD_0": 19,
            "NORMAL": 2
          },
          "mode": 4,
          "material": 0,
          "indices": 0
        }
      ]
    }
  ],
  "nodes": [
    {
      "name": "cube",
      "translation": [
        1.003125,
        0.906966875,
        0.470646875
      ],
      "rotation": [
        -0.19509032201612825,
        0,
        0,
        0.9807852804032304
      ],
      "mesh": 0
    },
    {
      "name": "cube",
      "translation": [
        1.003125,
        0.906966875,
        0.470646875
      ],
      "rotation": [
        -0.19509032201612825,
        0,
        0,
        0.9807852804032304
      ],
      "mesh": 1
    },
    {
      "name": "cube",
      "translation": [
        1.003125,
        0.906966875,
        0.470646875
      ],
      "rotation": [
        -0.19509032201612825,
        0,
        0,
        0.9807852804032304
      ],
      "mesh": 2
    },
    {
      "name": "cube",
      "translation": [
        1.003125,
        0.906966875,
        0.470646875
      ],
      "rotation": [
        -0.19509032201612825,
        0,
        0,
        0.9807852804032304
      ],
      "mesh": 3
    },
    {
      "name": "cube",
      "translation": [
        0.503125,
        0.906966875,
        0.470646875
      ],
      "rotation": [
        -0.19509032201612825,
        0,
        0,
        0.9807852804032304
      ],
      "mesh": 0
    },
    {
      "name": "cube",
      "translation": [
        0.503125,
        0.906966875,
        0.470646875
      ],
      "rotation": [
        -0.19509032201612825,
        0,
        0,
        0.9807852804032304
      ],
      "mesh": 4
    },
    {
      "name": "cube",
      "translation": [
        0.503125,
        0.906966875,
        0.470646875
      ],
      "rotation": [
        -0.19509032201612825,
        0,
        0,
        0.9807852804032304
      ],
      "mesh": 5
    },
    {
      "name": "cube",
      "translation": [
        0.503125,
        0.906966875,
        0.470646875
      ],
      "rotation": [
        -0.19509032201612825,
        0,
        0,
        0.9807852804032304
      ],
      "mesh": 6
    },
    {
      "name": "cube",
      "translation": [
        0.753125,
        0.906966875,
        0.470646875
      ],
      "rotation": [
        -0.19509032201612825,
        0,
        0,
        0.9807852804032304
      ],
      "mesh": 0
    },
    {
      "name": "cube",
      "translation": [
        0.753125,
        0.906966875,
        0.470646875
      ],
      "rotation": [
        -0.19509032201612825,
        0,
        0,
        0.9807852804032304
      ],
      "mesh": 4
    },
    {
      "name": "cube",
      "translation": [
        0.753125,
        0.906966875,
        0.470646875
      ],
      "rotation": [
        -0.19509032201612825,
        0,
        0,
        0.9807852804032304
      ],
      "mesh": 5
    },
    {
      "name": "cube",
      "translation": [
        0.753125,
        0.906966875,
        0.470646875
      ],
      "rotation": [
        -0.19509032201612825,
        0,
        0,
        0.9807852804032304
      ],
      "mesh": 6
    },
    {
      "name": "cube",
      "translation": [
        0.503125,
        0.625,
        0.2484375
      ],
      "mesh": 7
    },
    {
      "name": "cube",
      "translation": [
        0.503125,
        0.625,
        0.2484375
      ],
      "rotation": [
        0,
        -0.19509032201612825,
        0,
        0.9807852804032304
      ],
      "mesh": 8
    },
    {
      "name": "cube",
      "translation": [
        0.503125,
        0.625,
        0.2484375
      ],
      "mesh": 9
    },
    {
      "name": "cube",
      "translation": [
        0.503125,
        0.625,
        0.2484375
      ],
      "mesh": 10
    },
    {
      "name": "cube",
      "translation": [
        0.503125,
        0.625,
        0.2484375
      ],
      "rotation": [
        0,
        0.19509032201612825,
        0,
        0.9807852804032304
      ],
      "mesh": 11
    }
  ],
  "scenes": [
    {
      "name": "blockbench_export",
      "nodes": [
        0,
        1,
        2,
        3,
        4,
        5,
        6,
        7,
        8,
        9,
        10,
        11,
        12,
        13,
        14,
        15,
        16
      ]
    }
  ],
  "scene": 0
}