{
  "asset": {
    "generator": "glTF-Transform v4.1.3",
    "version": "2.0"
  },
  "accessors": [
    {
      "type": "SCALAR",
      "componentType": 5126,
      "count": 8,
      "max": [
        0.4000000059604645
      ],
      "min": [
        0
      ],
      "bufferView": 0,
      "byteOffset": 0
    },
    {
      "type": "VEC3",
      "componentType": 5126,
      "count": 8,
      "bufferView": 0,
      "byteOffset": 32
    },
    {
      "type": "VEC3",
      "componentType": 5126,
      "count": 8,
      "bufferView": 0,
      "byteOffset": 128
    },
    {
      "type": "SCALAR",
      "componentType": 5126,
      "count": 8,
      "max": [
        0.4000000059604645
      ],
      "min": [
        0
      ],
      "bufferView": 0,
      "byteOffset": 224
    },
    {
      "type": "VEC3",
      "componentType": 5126,
      "count": 8,
      "bufferView": 0,
      "byteOffset": 256
    },
    {
      "type": "VEC3",
      "componentType": 5126,
      "count": 8,
      "bufferView": 0,
      "byteOffset": 352
    },
    {
      "type": "SCALAR",
      "componentType": 5126,
      "count": 12,
      "max": [
        0.699999988079071
      ],
      "min": [
        0
      ],
      "bufferView": 0,
      "byteOffset": 448
    },
    {
      "type": "VEC3",
      "componentType": 5126,
      "count": 12,
      "bufferView": 0,
      "byteOffset": 496
    },
    {
      "type": "SCALAR",
      "componentType": 5123,
      "count": 36,
      "bufferView": 1,
      "byteOffset": 0
    },
    {
      "type": "VEC3",
      "componentType": 5126,
      "count": 24,
      "max": [
        0.4959374964237213,
        0.1677730679512024,
        0.0694858580827713
      ],
      "min": [
        -0.4528124928474426,
        0.1677105724811554,
        -0.8792641162872314
      ],
      "bufferView": 2,
      "byteOffset": 0
    },
    {
      "type": "VEC3",
      "componentType": 5126,
      "count": 24,
      "bufferView": 2,
      "byteOffset": 12
    },
    {
      "type": "VEC2",
      "componentType": 5126,
      "count": 24,
      "bufferView": 2,
      "byteOffset": 24
    },
    {
      "type": "VEC3",
      "componentType": 5126,
      "count": 24,
      "max": [
        0.4959374964237213,
        0.1677730679512024,
        0.8792641162872314
      ],
      "min": [
        -0.4528124928474426,
        0.1677105724811554,
        -0.0694858580827713
      ],
      "bufferView": 3,
      "byteOffset": 0
    },
    {
      "type": "VEC2",
      "componentType": 5126,
      "count": 24,
      "bufferView": 3,
      "byteOffset": 12
    },
    {
      "type": "VEC2",
      "componentType": 5126,
      "count": 24,
      "bufferView": 4,
      "byteOffset": 0
    },
    {
      "type": "VEC3",
      "componentType": 5126,
      "count": 24,
      "max": [
        0.4528124928474426,
        0.1677730679512024,
        0.0694858580827713
      ],
      "min": [
        -0.4959374964237213,
        0.1677105724811554,
        -0.8792641162872314
      ],
      "bufferView": 5,
      "byteOffset": 0
    },
    {
      "type": "VEC2",
      "componentType": 5126,
      "count": 24,
      "bufferView": 5,
      "byteOffset": 12
    },
    {
      "type": "VEC3",
      "componentType": 5126,
      "count": 24,
      "max": [
        0.5,
        0.25,
        0.5
      ],
      "min": [
        -0.5,
        0,
        -0.5
      ],
      "bufferView": 6,
      "byteOffset": 0
    },
    {
      "type": "VEC2",
      "componentType": 5126,
      "count": 24,
      "bufferView": 6,
      "byteOffset": 12
    }
  ],
  "bufferViews": [
    {
      "buffer": 0,
      "byteOffset": 0,
      "byteLength": 640
    },
    {
      "buffer": 0,
      "byteOffset": 640,
      "byteLength": 72,
      "target": 34963
    },
    {
      "buffer": 0,
      "byteOffset": 712,
      "byteLength": 768,
      "byteStride": 32,
      "target": 34962
    },
    {
      "buffer": 0,
      "byteOffset": 1480,
      "byteLength": 480,
      "byteStride": 20,
      "target": 34962
    },
    {
      "buffer": 0,
      "byteOffset": 1960,
      "byteLength": 192,
      "byteStride": 8,
      "target": 34962
    },
    {
      "buffer": 0,
      "byteOffset": 2152,
      "byteLength": 480,
      "byteStride": 20,
      "target": 34962
    },
    {
      "buffer": 0,
      "byteOffset": 2632,
      "byteLength": 480,
      "byteStride": 20,
      "target": 34962
    }
  ],
  "samplers": [
    {
      "magFilter": 9728,
      "minFilter": 9728,
      "wrapS": 33071,
      "wrapT": 33071
    }
  ],
  "textures": [
    {
      "source": 0,
      "sampler": 0
    }
  ],
  "images": [
    {
      "mimeType": "image/png",
      "uri": "baseColor.png"
    }
  ],
  "buffers": [
    {
      "uri": "spider-web.bin",
      "byteLength": 3112
    }
  ],
  "materials": [
    {
      "alphaMode": "MASK",
      "alphaCutoff": 0.05,
      "doubleSided": true,
      "pbrMetallicRoughness": {
        "metallicFactor": 0,
        "baseColorTexture": {
          "index": 0
        }
      }
    }
  ],
  "meshes": [
    {
      "primitives": [
        {
          "attributes": {
            "POSITION": 9,
            "NORMAL": 10,
            "TEXCOORD_0": 11
          },
          "mode": 4,
          "material": 0,
          "indices": 8
        }
      ]
    },
    {
      "primitives": [
        {
          "attributes": {
            "POSITION": 12,
            "TEXCOORD_0": 13,
            "NORMAL": 10
          },
          "mode": 4,
          "material": 0,
          "indices": 8
        }
      ]
    },
    {
      "primitives": [
        {
          "attributes": {
            "TEXCOORD_0": 14,
            "POSITION": 9,
            "NORMAL": 10
          },
          "mode": 4,
          "material": 0,
          "indices": 8
        }
      ]
    },
    {
      "primitives": [
        {
          "attributes": {
            "POSITION": 15,
            "TEXCOORD_0": 16,
            "NORMAL": 10
          },
          "mode": 4,
          "material": 0,
          "indices": 8
        }
      ]
    },
    {
      "primitives": [
        {
          "attributes": {
            "POSITION": 17,
            "TEXCOORD_0": 18,
            "NORMAL": 10
          },
          "mode": 4,
          "material": 0,
          "indices": 8
        }
      ]
    }
  ],
  "nodes": [
    {
      "name": "cube",
      "translation": [
        -0.02156250000000004,
        -0.16771057423396318,
        -0.06386085713098627
      ],
      "mesh": 0
    },
    {
      "name": "bone",
      "translation": [
        0.30989380368119424,
        0.2722545308379172,
        -0.31113914286901373
      ],
      "rotation": [
        -0.1802399555017368,
        0.37533027751786535,
        -0.0746578340503426,
        0.9061274463528878
      ],
      "children": [
        0
      ]
    },
    {
      "name": "cube",
      "translation": [
        -0.02156250000000004,
        -0.16771057423396318,
        0.06386085713098627
      ],
      "mesh": 1
    },
    {
      "name": "bone3",
      "translation": [
        0.30989380368119424,
        0.2722545308379172,
        0.31113914286901373
      ],
      "rotation": [
        0.1802399555017368,
        -0.37533027751786535,
        -0.0746578340503426,
        0.9061274463528878
      ],
      "children": [
        2
      ]
    },
    {
      "name": "cube",
      "translation": [
        -0.02156250000000004,
        -0.16771057423396318,
        -0.06386085713098621
      ],
      "mesh": 2
    },
    {
      "name": "bone2",
      "translation": [
        -0.33406250000000004,
        0.2722545308379172,
        -0.3314562987421105
      ],
      "rotation": [
        0.18023995494549347,
        -0.9061274435564594,
        -0.0746578353932352,
        -0.3753302842690405
      ],
      "children": [
        4
      ]
    },
    {
      "name": "cube",
      "translation": [
        0.02156250000000004,
        -0.16771057423396318,
        -0.06386085713098621
      ],
      "mesh": 3
    },
    {
      "name": "bone4",
      "translation": [
        0.29093749999999996,
        0.2722545308379172,
        -0.3314562987421105
      ],
      "rotation": [
        0.18023995494549347,
        0.9061274435564594,
        0.0746578353932352,
        -0.3753302842690405
      ],
      "children": [
        6
      ]
    },
    {
      "name": "root",
      "children": [
        1,
        3,
        5,
        7
      ]
    },
    {
      "name": "cube",
      "mesh": 4
    },
    {
      "children": [
        8
      ]
    }
  ],
  "animations": [
    {
      "name": "idle",
      "samplers": [
        {
          "input": 6,
          "output": 7,
          "interpolation": "LINEAR"
        }
      ],
      "channels": [
        {
          "sampler": 0,
          "target": {
            "node": 8,
            "path": "scale"
          }
        }
      ]
    },
    {
      "name": "spawn",
      "samplers": [
        {
          "input": 0,
          "output": 1,
          "interpolation": "LINEAR"
        },
        {
          "input": 0,
          "output": 2,
          "interpolation": "LINEAR"
        }
      ],
      "channels": [
        {
          "sampler": 0,
          "target": {
            "node": 8,
            "path": "translation"
          }
        },
        {
          "sampler": 1,
          "target": {
            "node": 8,
            "path": "scale"
          }
        }
      ]
    },
    {
      "name": "despawn",
      "samplers": [
        {
          "input": 3,
          "output": 4,
          "interpolation": "LINEAR"
        },
        {
          "input": 3,
          "output": 5,
          "interpolation": "LINEAR"
        }
      ],
      "channels": [
        {
          "sampler": 0,
          "target": {
            "node": 8,
            "path": "translation"
          }
        },
        {
          "sampler": 1,
          "target": {
            "node": 8,
            "path": "scale"
          }
        }
      ]
    }
  ],
  "scenes": [
    {
      "name": "blockbench_export",
      "nodes": [
        10,
        9
      ]
    }
  ],
  "scene": 0
}