{
  "asset": {
    "generator": "glTF-Transform v4.1.1",
    "version": "2.0"
  },
  "accessors": [
    {
      "type": "SCALAR",
      "componentType": 5123,
      "count": 36,
      "bufferView": 0,
      "byteOffset": 0
    },
    {
      "type": "SCALAR",
      "componentType": 5123,
      "count": 30,
      "bufferView": 0,
      "byteOffset": 72
    },
    {
      "type": "SCALAR",
      "componentType": 5123,
      "count": 30,
      "bufferView": 0,
      "byteOffset": 132
    },
    {
      "type": "SCALAR",
      "componentType": 5123,
      "count": 30,
      "bufferView": 0,
      "byteOffset": 192
    },
    {
      "type": "VEC3",
      "componentType": 5126,
      "count": 24,
      "max": [
        0.21875,
        0.03125,
        0.15625
      ],
      "min": [
        -0.21875,
        -0.03125,
        -0.15625
      ],
      "bufferView": 1,
      "byteOffset": 0
    },
    {
      "type": "VEC3",
      "componentType": 5126,
      "count": 24,
      "bufferView": 1,
      "byteOffset": 12
    },
    {
      "type": "VEC2",
      "componentType": 5126,
      "count": 24,
      "bufferView": 1,
      "byteOffset": 24
    },
    {
      "type": "VEC3",
      "componentType": 5126,
      "count": 16,
      "max": [
        0.03125,
        0.625,
        0
      ],
      "min": [
        -0.34375,
        0.1875,
        0
      ],
      "bufferView": 2,
      "byteOffset": 0
    },
    {
      "type": "VEC3",
      "componentType": 5126,
      "count": 16,
      "bufferView": 2,
      "byteOffset": 12
    },
    {
      "type": "VEC2",
      "componentType": 5126,
      "count": 16,
      "bufferView": 2,
      "byteOffset": 24
    },
    {
      "type": "VEC3",
      "componentType": 5126,
      "count": 24,
      "max": [
        0.09375,
        0.09375,
        0.09375
      ],
      "min": [
        -0.09375,
        -0.40625,
        -0.09375
      ],
      "bufferView": 3,
      "byteOffset": 0
    },
    {
      "type": "VEC2",
      "componentType": 5126,
      "count": 24,
      "bufferView": 3,
      "byteOffset": 12
    },
    {
      "type": "VEC2",
      "componentType": 5126,
      "count": 24,
      "bufferView": 4,
      "byteOffset": 0
    },
    {
      "type": "VEC2",
      "componentType": 5126,
      "count": 24,
      "bufferView": 5,
      "byteOffset": 0
    },
    {
      "type": "VEC3",
      "componentType": 5126,
      "count": 16,
      "max": [
        0.34375,
        0.625,
        0
      ],
      "min": [
        -0.03125,
        0.1875,
        0
      ],
      "bufferView": 6,
      "byteOffset": 0
    },
    {
      "type": "VEC2",
      "componentType": 5126,
      "count": 16,
      "bufferView": 6,
      "byteOffset": 12
    },
    {
      "type": "VEC3",
      "componentType": 5126,
      "count": 24,
      "max": [
        0.27061429619789124,
        0.032194022089242935,
        0.14211390912532806
      ],
      "min": [
        -0.16688570380210876,
        -0.030305977910757065,
        -0.17038609087467194
      ],
      "bufferView": 7,
      "byteOffset": 0
    },
    {
      "type": "VEC2",
      "componentType": 5126,
      "count": 16,
      "bufferView": 8,
      "byteOffset": 0
    },
    {
      "type": "VEC3",
      "componentType": 5126,
      "count": 24,
      "max": [
        0.16688570380210876,
        0.032194022089242935,
        0.14211390912532806
      ],
      "min": [
        -0.27061429619789124,
        -0.030305977910757065,
        -0.17038609087467194
      ],
      "bufferView": 9,
      "byteOffset": 0
    },
    {
      "type": "VEC2",
      "componentType": 5126,
      "count": 16,
      "bufferView": 10,
      "byteOffset": 0
    },
    {
      "type": "VEC3",
      "componentType": 5126,
      "count": 24,
      "max": [
        0.27061429619789124,
        0.032194022089242935,
        0.17038609087467194
      ],
      "min": [
        -0.16688570380210876,
        -0.030305977910757065,
        -0.14211390912532806
      ],
      "bufferView": 11,
      "byteOffset": 0
    },
    {
      "type": "VEC3",
      "componentType": 5126,
      "count": 16,
      "max": [
        0.34375,
        0.625,
        0
      ],
      "min": [
        -0.03125,
        0.1875,
        0
      ],
      "bufferView": 12,
      "byteOffset": 0
    },
    {
      "type": "VEC3",
      "componentType": 5126,
      "count": 16,
      "bufferView": 12,
      "byteOffset": 12
    },
    {
      "type": "VEC3",
      "componentType": 5126,
      "count": 24,
      "max": [
        0.03125,
        1.25,
        0.03125
      ],
      "min": [
        -0.03125,
        0,
        -0.03125
      ],
      "bufferView": 13,
      "byteOffset": 0
    },
    {
      "type": "VEC2",
      "componentType": 5126,
      "count": 24,
      "bufferView": 13,
      "byteOffset": 12
    },
    {
      "type": "VEC3",
      "componentType": 5126,
      "count": 14,
      "max": [
        0.21875,
        0.8125,
        -0.03125
      ],
      "min": [
        -0.03125,
        0.5625,
        -0.03125
      ],
      "bufferView": 14,
      "byteOffset": 0
    },
    {
      "type": "VEC2",
      "componentType": 5126,
      "count": 14,
      "bufferView": 14,
      "byteOffset": 12
    },
    {
      "type": "VEC3",
      "componentType": 5126,
      "count": 14,
      "bufferView": 14,
      "byteOffset": 20
    }
  ],
  "bufferViews": [
    {
      "buffer": 0,
      "byteOffset": 0,
      "byteLength": 252,
      "target": 34963
    },
    {
      "buffer": 0,
      "byteOffset": 252,
      "byteLength": 768,
      "byteStride": 32,
      "target": 34962
    },
    {
      "buffer": 0,
      "byteOffset": 1020,
      "byteLength": 512,
      "byteStride": 32,
      "target": 34962
    },
    {
      "buffer": 0,
      "byteOffset": 1532,
      "byteLength": 480,
      "byteStride": 20,
      "target": 34962
    },
    {
      "buffer": 0,
      "byteOffset": 2012,
      "byteLength": 192,
      "byteStride": 8,
      "target": 34962
    },
    {
      "buffer": 0,
      "byteOffset": 2204,
      "byteLength": 192,
      "byteStride": 8,
      "target": 34962
    },
    {
      "buffer": 0,
      "byteOffset": 2396,
      "byteLength": 320,
      "byteStride": 20,
      "target": 34962
    },
    {
      "buffer": 0,
      "byteOffset": 2716,
      "byteLength": 288,
      "byteStride": 12,
      "target": 34962
    },
    {
      "buffer": 0,
      "byteOffset": 3004,
      "byteLength": 128,
      "byteStride": 8,
      "target": 34962
    },
    {
      "buffer": 0,
      "byteOffset": 3132,
      "byteLength": 288,
      "byteStride": 12,
      "target": 34962
    },
    {
      "buffer": 0,
      "byteOffset": 3420,
      "byteLength": 128,
      "byteStride": 8,
      "target": 34962
    },
    {
      "buffer": 0,
      "byteOffset": 3548,
      "byteLength": 288,
      "byteStride": 12,
      "target": 34962
    },
    {
      "buffer": 0,
      "byteOffset": 3836,
      "byteLength": 384,
      "byteStride": 24,
      "target": 34962
    },
    {
      "buffer": 0,
      "byteOffset": 4220,
      "byteLength": 480,
      "byteStride": 20,
      "target": 34962
    },
    {
      "buffer": 0,
      "byteOffset": 4700,
      "byteLength": 448,
      "byteStride": 32,
      "target": 34962
    }
  ],
  "samplers": [
    {
      "magFilter": 9728,
      "minFilter": 9728,
      "wrapS": 33071,
      "wrapT": 33071
    }
  ],
  "textures": [
    {
      "source": 0,
      "sampler": 0
    }
  ],
  "images": [
    {
      "mimeType": "image/png",
      "uri": "baseColor.png"
    }
  ],
  "buffers": [
    {
      "uri": "eggplant-stage4-named-nodes.bin",
      "byteLength": 5148
    }
  ],
  "materials": [
    {
      "alphaMode": "MASK",
      "alphaCutoff": 0.05,
      "doubleSided": true,
      "pbrMetallicRoughness": {
        "metallicFactor": 0,
        "baseColorTexture": {
          "index": 0
        }
      }
    }
  ],
  "meshes": [
    {
      "primitives": [
        {
          "attributes": {
            "POSITION": 4,
            "NORMAL": 5,
            "TEXCOORD_0": 6
          },
          "mode": 4,
          "material": 0,
          "indices": 0
        }
      ]
    },
    {
      "primitives": [
        {
          "attributes": {
            "POSITION": 7,
            "NORMAL": 8,
            "TEXCOORD_0": 9
          },
          "mode": 4,
          "material": 0,
          "indices": 1
        }
      ]
    },
    {
      "primitives": [
        {
          "attributes": {
            "POSITION": 10,
            "TEXCOORD_0": 11,
            "NORMAL": 5
          },
          "mode": 4,
          "material": 0,
          "indices": 0
        }
      ]
    },
    {
      "primitives": [
        {
          "attributes": {
            "TEXCOORD_0": 12,
            "POSITION": 4,
            "NORMAL": 5
          },
          "mode": 4,
          "material": 0,
          "indices": 0
        }
      ]
    },
    {
      "primitives": [
        {
          "attributes": {
            "TEXCOORD_0": 13,
            "POSITION": 10,
            "NORMAL": 5
          },
          "mode": 4,
          "material": 0,
          "indices": 0
        }
      ]
    },
    {
      "primitives": [
        {
          "attributes": {
            "POSITION": 14,
            "TEXCOORD_0": 15,
            "NORMAL": 8
          },
          "mode": 4,
          "material": 0,
          "indices": 2
        }
      ]
    },
    {
      "primitives": [
        {
          "attributes": {
            "POSITION": 16,
            "NORMAL": 5,
            "TEXCOORD_0": 12
          },
          "mode": 4,
          "material": 0,
          "indices": 0
        }
      ]
    },
    {
      "primitives": [
        {
          "attributes": {
            "TEXCOORD_0": 17,
            "POSITION": 14,
            "NORMAL": 8
          },
          "mode": 4,
          "material": 0,
          "indices": 2
        }
      ]
    },
    {
      "primitives": [
        {
          "attributes": {
            "POSITION": 18,
            "NORMAL": 5,
            "TEXCOORD_0": 6
          },
          "mode": 4,
          "material": 0,
          "indices": 0
        }
      ]
    },
    {
      "primitives": [
        {
          "attributes": {
            "TEXCOORD_0": 19,
            "POSITION": 7,
            "NORMAL": 8
          },
          "mode": 4,
          "material": 0,
          "indices": 1
        }
      ]
    },
    {
      "primitives": [
        {
          "attributes": {
            "POSITION": 20,
            "NORMAL": 5,
            "TEXCOORD_0": 12
          },
          "mode": 4,
          "material": 0,
          "indices": 0
        }
      ]
    },
    {
      "primitives": [
        {
          "attributes": {
            "POSITION": 21,
            "NORMAL": 22,
            "TEXCOORD_0": 19
          },
          "mode": 4,
          "material": 0,
          "indices": 1
        }
      ]
    },
    {
      "primitives": [
        {
          "attributes": {
            "POSITION": 4,
            "NORMAL": 5,
            "TEXCOORD_0": 12
          },
          "mode": 4,
          "material": 0,
          "indices": 0
        }
      ]
    },
    {
      "primitives": [
        {
          "attributes": {
            "POSITION": 23,
            "TEXCOORD_0": 24,
            "NORMAL": 5
          },
          "mode": 4,
          "material": 0,
          "indices": 0
        }
      ]
    },
    {
      "primitives": [
        {
          "attributes": {
            "POSITION": 25,
            "TEXCOORD_0": 26,
            "NORMAL": 27
          },
          "mode": 4,
          "material": 0,
          "indices": 3
        }
      ]
    }
  ],
  "nodes": [
    {
      "name": "cube",
      "translation": [
        -0.33179863361800754,
        0.7627150737597238,
        0
      ],
      "rotation": [
        0.9063077870366499,
        -0.4226182617406995,
        5.896902743148186e-18,
        -6.481264092683894e-17
      ],
      "mesh": 0
    },
    {
      "name": "cube",
      "translation": [
        -0.23438142270666695,
        0.11387888284305236,
        0
      ],
      "rotation": [
        0,
        0,
        -0.21643961393810296,
        0.9762960071199334
      ],
      "mesh": 1
    },
    {
      "name": "cube",
      "translation": [
        -0.3392342678721053,
        0.3696559273285038,
        0
      ],
      "rotation": [
        0,
        0,
        -0.32143946530316164,
        0.9469301294951057
      ],
      "mesh": 2
    },
    {
      "name": "cube",
      "translation": [
        0.25042673291850726,
        0.7493521607531537,
        -0.2191767329185072
      ],
      "rotation": [
        0.8456375414310893,
        0.3720894235471583,
        -0.3502745385125971,
        -0.1541244856488198
      ],
      "mesh": 3
    },
    {
      "name": "cube",
      "translation": [
        0.24355617089994072,
        0.3563427817237239,
        -0.21230617089994058
      ],
      "rotation": [
        0.13869903251007662,
        0.35666397040841524,
        0.3348490853738541,
        0.8610629945698324
      ],
      "mesh": 4
    },
    {
      "name": "cube",
      "translation": [
        0.1615955041683897,
        0.1053827971786988,
        -0.13034550416838953
      ],
      "rotation": [
        0.0746578340503425,
        0.37533027751786524,
        0.18023995550173702,
        0.9061274463528879
      ],
      "mesh": 5
    },
    {
      "name": "cube",
      "translation": [
        -0.22193420971311303,
        0.7766760148869585,
        -0.35965865193781105
      ],
      "rotation": [
        -0.45662990520156527,
        -0.11381659807481666,
        0.8822430625736597,
        -0.01349408088513974
      ],
      "mesh": 6
    },
    {
      "name": "cube",
      "translation": [
        0.1478771185021973,
        0.39838733248696234,
        0.028433824047878253
      ],
      "rotation": [
        -0.20412656515092784,
        0.8584097256426964,
        0.012285889849998533,
        0.4704403737269034
      ],
      "mesh": 7
    },
    {
      "name": "cube",
      "translation": [
        0.15734165021078741,
        1.0985105670041753,
        -0.34317155848535336
      ],
      "rotation": [
        0.5468539263620816,
        -0.23856039671483453,
        0.7826274737050687,
        -0.17757803282967702
      ],
      "mesh": 8
    },
    {
      "name": "cube",
      "translation": [
        -0.026453636745855262,
        0.5150645324645993,
        -0.1059195133991854
      ],
      "rotation": [
        0.003977136137748272,
        -0.8025109985101623,
        -0.11454471006729557,
        0.5855252249510379
      ],
      "mesh": 9
    },
    {
      "name": "cube",
      "translation": [
        0.04443660282518832,
        1.1263756357266512,
        0.3503594746642468
      ],
      "rotation": [
        0.7312248140422581,
        0.27438230786673645,
        0.6015905880121047,
        0.16767046512083933
      ],
      "mesh": 10
    },
    {
      "name": "cube",
      "translation": [
        0.04246778381220269,
        0.5172760458552719,
        0.106489982937193
      ],
      "rotation": [
        -0.03348797099128122,
        -0.6236210197367272,
        0.10961233514137973,
        0.7732790670425945
      ],
      "mesh": 11
    },
    {
      "name": "cube",
      "translation": [
        -0.22193420971311303,
        0.6516760148869585,
        0.35965865193781105
      ],
      "rotation": [
        0.45662990520156527,
        0.11381659807481666,
        0.8822430625736597,
        -0.01349408088513974
      ],
      "mesh": 12
    },
    {
      "name": "cube",
      "translation": [
        0.1478771185021973,
        0.27338733248696234,
        -0.028433824047878253
      ],
      "rotation": [
        -0.20412656515092784,
        0.8584097256426964,
        -0.012285889849998533,
        -0.4704403737269034
      ],
      "mesh": 11
    },
    {
      "name": "cube",
      "mesh": 13
    },
    {
      "name": "cube",
      "translation": [
        0,
        0.5625,
        -0.009375
      ],
      "mesh": 14
    }
  ],
  "scenes": [
    {
      "name": "blockbench_export",
      "nodes": [
        0,
        1,
        2,
        3,
        4,
        5,
        6,
        7,
        8,
        9,
        10,
        11,
        12,
        13,
        14,
        15
      ]
    }
  ],
  "scene": 0
}