{
  "asset": {
    "generator": "glTF-Transform v4.1.3",
    "version": "2.0"
  },
  "accessors": [
    {
      "type": "SCALAR",
      "componentType": 5126,
      "count": 4,
      "max": [
        0.8500000238418579
      ],
      "min": [
        0
      ],
      "bufferView": 0,
      "byteOffset": 0
    },
    {
      "type": "SCALAR",
      "componentType": 5126,
      "count": 17,
      "max": [
        1.75
      ],
      "min": [
        0
      ],
      "bufferView": 0,
      "byteOffset": 16
    },
    {
      "type": "VEC3",
      "componentType": 5126,
      "count": 17,
      "bufferView": 0,
      "byteOffset": 84
    },
    {
      "type": "SCALAR",
      "componentType": 5126,
      "count": 25,
      "max": [
        1.5
      ],
      "min": [
        0
      ],
      "bufferView": 0,
      "byteOffset": 288
    },
    {
      "type": "VEC4",
      "componentType": 5126,
      "count": 25,
      "bufferView": 0,
      "byteOffset": 388
    },
    {
      "type": "SCALAR",
      "componentType": 5126,
      "count": 33,
      "max": [
        2
      ],
      "min": [
        0
      ],
      "bufferView": 0,
      "byteOffset": 788
    },
    {
      "type": "VEC3",
      "componentType": 5126,
      "count": 33,
      "bufferView": 0,
      "byteOffset": 920
    },
    {
      "type": "VEC3",
      "componentType": 5126,
      "count": 4,
      "sparse": {
        "count": 1,
        "indices": {
          "bufferView": 1,
          "byteOffset": 0,
          "componentType": 5121
        },
        "values": {
          "bufferView": 2,
          "byteOffset": 0
        }
      }
    },
    {
      "type": "SCALAR",
      "componentType": 5123,
      "count": 288,
      "bufferView": 3,
      "byteOffset": 0
    },
    {
      "type": "VEC3",
      "componentType": 5126,
      "count": 192,
      "max": [
        -0.44999998807907104,
        -0.5625,
        0.8125
      ],
      "min": [
        -0.612500011920929,
        -1.1875,
        -2.625
      ],
      "bufferView": 4,
      "byteOffset": 0
    },
    {
      "type": "VEC3",
      "componentType": 5126,
      "count": 192,
      "bufferView": 4,
      "byteOffset": 12
    },
    {
      "type": "VEC2",
      "componentType": 5126,
      "count": 192,
      "bufferView": 4,
      "byteOffset": 24
    }
  ],
  "bufferViews": [
    {
      "buffer": 0,
      "byteOffset": 0,
      "byteLength": 1316
    },
    {
      "buffer": 0,
      "byteOffset": 1316,
      "byteLength": 4
    },
    {
      "buffer": 0,
      "byteOffset": 1320,
      "byteLength": 12
    },
    {
      "buffer": 0,
      "byteOffset": 1332,
      "byteLength": 576,
      "target": 34963
    },
    {
      "buffer": 0,
      "byteOffset": 1908,
      "byteLength": 6144,
      "byteStride": 32,
      "target": 34962
    }
  ],
  "samplers": [
    {
      "magFilter": 9728,
      "minFilter": 9728,
      "wrapS": 33071,
      "wrapT": 33071
    }
  ],
  "textures": [
    {
      "source": 0,
      "sampler": 0
    }
  ],
  "images": [
    {
      "mimeType": "image/png",
      "uri": "baseColor.png"
    }
  ],
  "buffers": [
    {
      "uri": "chieftan-blade.bin",
      "byteLength": 8052
    }
  ],
  "materials": [
    {
      "alphaMode": "MASK",
      "alphaCutoff": 0.05,
      "doubleSided": true,
      "pbrMetallicRoughness": {
        "metallicFactor": 0,
        "baseColorTexture": {
          "index": 0
        }
      }
    }
  ],
  "meshes": [
    {
      "primitives": [
        {
          "attributes": {
            "POSITION": 9,
            "NORMAL": 10,
            "TEXCOORD_0": 11
          },
          "mode": 4,
          "material": 0,
          "indices": 8
        }
      ]
    }
  ],
  "nodes": [
    {
      "name": "cube",
      "translation": [
        0.53125,
        0.90625,
        0.03125
      ],
      "mesh": 0
    },
    {
      "name": "weapon",
      "children": [
        0
      ]
    },
    {
      "name": "root",
      "rotation": [
        0.7071067811865475,
        0,
        0,
        0.7071067811865476
      ],
      "children": [
        1
      ]
    },
    {
      "children": [
        2
      ]
    }
  ],
  "animations": [
    {
      "name": "atk2",
      "samplers": [
        {
          "input": 0,
          "output": 7,
          "interpolation": "LINEAR"
        }
      ],
      "channels": [
        {
          "sampler": 0,
          "target": {
            "node": 2,
            "path": "translation"
          }
        }
      ]
    },
    {
      "name": "atk4",
      "samplers": [
        {
          "input": 1,
          "output": 2,
          "interpolation": "LINEAR"
        }
      ],
      "channels": [
        {
          "sampler": 0,
          "target": {
            "node": 2,
            "path": "translation"
          }
        }
      ]
    },
    {
      "name": "death",
      "samplers": [
        {
          "input": 3,
          "output": 4,
          "interpolation": "LINEAR"
        },
        {
          "input": 5,
          "output": 6,
          "interpolation": "LINEAR"
        }
      ],
      "channels": [
        {
          "sampler": 0,
          "target": {
            "node": 2,
            "path": "rotation"
          }
        },
        {
          "sampler": 1,
          "target": {
            "node": 2,
            "path": "translation"
          }
        }
      ]
    }
  ],
  "scenes": [
    {
      "name": "blockbench_export",
      "nodes": [
        3
      ]
    }
  ],
  "scene": 0
}