{
  "asset": {
    "generator": "glTF-Transform v4.1.3",
    "version": "2.0"
  },
  "accessors": [
    {
      "type": "SCALAR",
      "componentType": 5126,
      "count": 4,
      "max": [
        0.8500000238418579
      ],
      "min": [
        0
      ],
      "bufferView": 0,
      "byteOffset": 0
    },
    {
      "type": "SCALAR",
      "componentType": 5126,
      "count": 17,
      "max": [
        1.75
      ],
      "min": [
        0
      ],
      "bufferView": 0,
      "byteOffset": 16
    },
    {
      "type": "VEC3",
      "componentType": 5126,
      "count": 17,
      "bufferView": 0,
      "byteOffset": 84
    },
    {
      "type": "SCALAR",
      "componentType": 5126,
      "count": 25,
      "max": [
        1.5
      ],
      "min": [
        0
      ],
      "bufferView": 0,
      "byteOffset": 288
    },
    {
      "type": "VEC4",
      "componentType": 5126,
      "count": 25,
      "bufferView": 0,
      "byteOffset": 388
    },
    {
      "type": "SCALAR",
      "componentType": 5126,
      "count": 33,
      "max": [
        2
      ],
      "min": [
        0
      ],
      "bufferView": 0,
      "byteOffset": 788
    },
    {
      "type": "VEC3",
      "componentType": 5126,
      "count": 33,
      "bufferView": 0,
      "byteOffset": 920
    },
    {
      "type": "VEC3",
      "componentType": 5126,
      "count": 4,
      "sparse": {
        "count": 1,
        "indices": {
          "bufferView": 1,
          "byteOffset": 0,
          "componentType": 5121
        },
        "values": {
          "bufferView": 2,
          "byteOffset": 0
        }
      }
    },
    {
      "type": "SCALAR",
      "componentType": 5123,
      "count": 36,
      "bufferView": 3,
      "byteOffset": 0
    },
    {
      "type": "VEC3",
      "componentType": 5126,
      "count": 24,
      "max": [
        -0.46875,
        -0.84375,
        0.4375
      ],
      "min": [
        -0.59375,
        -0.96875,
        -0.5
      ],
      "bufferView": 4,
      "byteOffset": 0
    },
    {
      "type": "VEC3",
      "componentType": 5126,
      "count": 24,
      "bufferView": 4,
      "byteOffset": 12
    },
    {
      "type": "VEC2",
      "componentType": 5126,
      "count": 24,
      "bufferView": 4,
      "byteOffset": 24
    },
    {
      "type": "VEC3",
      "componentType": 5126,
      "count": 24,
      "max": [
        -0.44999998807907104,
        -0.824999988079071,
        0.45625001192092896
      ],
      "min": [
        -0.612500011920929,
        -0.987500011920929,
        -0.518750011920929
      ],
      "bufferView": 5,
      "byteOffset": 0
    },
    {
      "type": "VEC2",
      "componentType": 5126,
      "count": 24,
      "bufferView": 5,
      "byteOffset": 12
    },
    {
      "type": "VEC3",
      "componentType": 5126,
      "count": 24,
      "max": [
        -0.5311874747276306,
        -0.8125,
        0.25
      ],
      "min": [
        -0.53125,
        -1.125,
        -0.1875
      ],
      "bufferView": 6,
      "byteOffset": 0
    },
    {
      "type": "VEC2",
      "componentType": 5126,
      "count": 24,
      "bufferView": 6,
      "byteOffset": 12
    },
    {
      "type": "VEC3",
      "componentType": 5126,
      "count": 24,
      "max": [
        -0.46875,
        -0.6875,
        -0.5
      ],
      "min": [
        -0.59375,
        -1.0625,
        -0.625
      ],
      "bufferView": 7,
      "byteOffset": 0
    },
    {
      "type": "VEC2",
      "componentType": 5126,
      "count": 24,
      "bufferView": 7,
      "byteOffset": 12
    },
    {
      "type": "VEC3",
      "componentType": 5126,
      "count": 24,
      "max": [
        -0.44999998807907104,
        -0.668749988079071,
        -0.48124998807907104
      ],
      "min": [
        -0.612500011920929,
        -1.0812499523162842,
        -0.643750011920929
      ],
      "bufferView": 8,
      "byteOffset": 0
    },
    {
      "type": "VEC2",
      "componentType": 5126,
      "count": 24,
      "bufferView": 8,
      "byteOffset": 12
    },
    {
      "type": "VEC3",
      "componentType": 5126,
      "count": 24,
      "max": [
        -0.5311874747276306,
        -0.5625,
        -0.375
      ],
      "min": [
        -0.53125,
        -1.1875,
        -0.625
      ],
      "bufferView": 9,
      "byteOffset": 0
    },
    {
      "type": "VEC2",
      "componentType": 5126,
      "count": 24,
      "bufferView": 9,
      "byteOffset": 12
    },
    {
      "type": "VEC3",
      "componentType": 5126,
      "count": 24,
      "max": [
        -0.5311874747276306,
        -0.71875,
        1
      ],
      "min": [
        -0.53125,
        -1.15625,
        -1
      ],
      "bufferView": 10,
      "byteOffset": 0
    },
    {
      "type": "VEC2",
      "componentType": 5126,
      "count": 24,
      "bufferView": 10,
      "byteOffset": 12
    },
    {
      "type": "VEC3",
      "componentType": 5126,
      "count": 24,
      "max": [
        -0.46875,
        -0.578125,
        0.0000625000029685907
      ],
      "min": [
        -0.59375,
        -0.890625,
        0
      ],
      "bufferView": 11,
      "byteOffset": 0
    },
    {
      "type": "VEC2",
      "componentType": 5126,
      "count": 24,
      "bufferView": 11,
      "byteOffset": 12
    }
  ],
  "bufferViews": [
    {
      "buffer": 0,
      "byteOffset": 0,
      "byteLength": 1316
    },
    {
      "buffer": 0,
      "byteOffset": 1316,
      "byteLength": 4
    },
    {
      "buffer": 0,
      "byteOffset": 1320,
      "byteLength": 12
    },
    {
      "buffer": 0,
      "byteOffset": 1332,
      "byteLength": 72,
      "target": 34963
    },
    {
      "buffer": 0,
      "byteOffset": 1404,
      "byteLength": 768,
      "byteStride": 32,
      "target": 34962
    },
    {
      "buffer": 0,
      "byteOffset": 2172,
      "byteLength": 480,
      "byteStride": 20,
      "target": 34962
    },
    {
      "buffer": 0,
      "byteOffset": 2652,
      "byteLength": 480,
      "byteStride": 20,
      "target": 34962
    },
    {
      "buffer": 0,
      "byteOffset": 3132,
      "byteLength": 480,
      "byteStride": 20,
      "target": 34962
    },
    {
      "buffer": 0,
      "byteOffset": 3612,
      "byteLength": 480,
      "byteStride": 20,
      "target": 34962
    },
    {
      "buffer": 0,
      "byteOffset": 4092,
      "byteLength": 480,
      "byteStride": 20,
      "target": 34962
    },
    {
      "buffer": 0,
      "byteOffset": 4572,
      "byteLength": 480,
      "byteStride": 20,
      "target": 34962
    },
    {
      "buffer": 0,
      "byteOffset": 5052,
      "byteLength": 480,
      "byteStride": 20,
      "target": 34962
    }
  ],
  "samplers": [
    {
      "magFilter": 9728,
      "minFilter": 9728,
      "wrapS": 33071,
      "wrapT": 33071
    }
  ],
  "textures": [
    {
      "source": 0,
      "sampler": 0
    }
  ],
  "images": [
    {
      "mimeType": "image/png",
      "uri": "baseColor.png"
    }
  ],
  "buffers": [
    {
      "uri": "chieftan-blade-named-nodes.bin",
      "byteLength": 5532
    }
  ],
  "materials": [
    {
      "alphaMode": "MASK",
      "alphaCutoff": 0.05,
      "doubleSided": true,
      "pbrMetallicRoughness": {
        "metallicFactor": 0,
        "baseColorTexture": {
          "index": 0
        }
      }
    }
  ],
  "meshes": [
    {
      "primitives": [
        {
          "attributes": {
            "POSITION": 9,
            "NORMAL": 10,
            "TEXCOORD_0": 11
          },
          "mode": 4,
          "material": 0,
          "indices": 8
        }
      ]
    },
    {
      "primitives": [
        {
          "attributes": {
            "POSITION": 12,
            "TEXCOORD_0": 13,
            "NORMAL": 10
          },
          "mode": 4,
          "material": 0,
          "indices": 8
        }
      ]
    },
    {
      "primitives": [
        {
          "attributes": {
            "POSITION": 14,
            "TEXCOORD_0": 15,
            "NORMAL": 10
          },
          "mode": 4,
          "material": 0,
          "indices": 8
        }
      ]
    },
    {
      "primitives": [
        {
          "attributes": {
            "POSITION": 16,
            "TEXCOORD_0": 17,
            "NORMAL": 10
          },
          "mode": 4,
          "material": 0,
          "indices": 8
        }
      ]
    },
    {
      "primitives": [
        {
          "attributes": {
            "POSITION": 18,
            "TEXCOORD_0": 19,
            "NORMAL": 10
          },
          "mode": 4,
          "material": 0,
          "indices": 8
        }
      ]
    },
    {
      "primitives": [
        {
          "attributes": {
            "POSITION": 20,
            "TEXCOORD_0": 21,
            "NORMAL": 10
          },
          "mode": 4,
          "material": 0,
          "indices": 8
        }
      ]
    },
    {
      "primitives": [
        {
          "attributes": {
            "POSITION": 22,
            "TEXCOORD_0": 23,
            "NORMAL": 10
          },
          "mode": 4,
          "material": 0,
          "indices": 8
        }
      ]
    },
    {
      "primitives": [
        {
          "attributes": {
            "POSITION": 24,
            "TEXCOORD_0": 25,
            "NORMAL": 10
          },
          "mode": 4,
          "material": 0,
          "indices": 8
        }
      ]
    }
  ],
  "nodes": [
    {
      "name": "cube",
      "translation": [
        0.53125,
        0.90625,
        0.03125
      ],
      "mesh": 0
    },
    {
      "name": "cube",
      "translation": [
        0.53125,
        0.90625,
        0.03125
      ],
      "mesh": 1
    },
    {
      "name": "cube",
      "translation": [
        0.53125,
        0.96875,
        0.59375
      ],
      "mesh": 2
    },
    {
      "name": "cube",
      "translation": [
        0.53125,
        0.90625,
        0.03125
      ],
      "mesh": 3
    },
    {
      "name": "cube",
      "translation": [
        0.53125,
        0.90625,
        0.03125
      ],
      "mesh": 4
    },
    {
      "name": "cube",
      "translation": [
        0.53125,
        0.90625,
        0.03125
      ],
      "mesh": 5
    },
    {
      "name": "cube",
      "translation": [
        0.53125,
        0.96875,
        -1.59375
      ],
      "mesh": 6
    },
    {
      "name": "cube",
      "translation": [
        0.53125,
        0.828125,
        -0.732143125
      ],
      "rotation": [
        0.19509032201612825,
        0,
        0,
        0.9807852804032304
      ],
      "mesh": 7
    },
    {
      "name": "weapon",
      "children": [
        0,
        1,
        2,
        3,
        4,
        5,
        6,
        7
      ]
    },
    {
      "name": "root",
      "rotation": [
        0.7071067811865475,
        0,
        0,
        0.7071067811865476
      ],
      "children": [
        8
      ]
    },
    {
      "children": [
        9
      ]
    }
  ],
  "animations": [
    {
      "name": "atk2",
      "samplers": [
        {
          "input": 0,
          "output": 7,
          "interpolation": "LINEAR"
        }
      ],
      "channels": [
        {
          "sampler": 0,
          "target": {
            "node": 9,
            "path": "translation"
          }
        }
      ]
    },
    {
      "name": "atk4",
      "samplers": [
        {
          "input": 1,
          "output": 2,
          "interpolation": "LINEAR"
        }
      ],
      "channels": [
        {
          "sampler": 0,
          "target": {
            "node": 9,
            "path": "translation"
          }
        }
      ]
    },
    {
      "name": "death",
      "samplers": [
        {
          "input": 3,
          "output": 4,
          "interpolation": "LINEAR"
        },
        {
          "input": 5,
          "output": 6,
          "interpolation": "LINEAR"
        }
      ],
      "channels": [
        {
          "sampler": 0,
          "target": {
            "node": 9,
            "path": "rotation"
          }
        },
        {
          "sampler": 1,
          "target": {
            "node": 9,
            "path": "translation"
          }
        }
      ]
    }
  ],
  "scenes": [
    {
      "name": "blockbench_export",
      "nodes": [
        10
      ]
    }
  ],
  "scene": 0
}