{"asset":{"version":"2.0","generator":"Blockbench 4.12.6 glTF exporter"},"scenes":[{"nodes":[8],"name":"blockbench_export"}],"scene":0,"nodes":[{"translation":[-0.04375,0,-0.04375],"name":"cube","mesh":0},{"translation":[-0.04375,0.35,-0.04375],"name":"cube","mesh":1},{"rotation":[0,0.9238795325112867,0,0.38268343236508984],"translation":[-1.3045120539345589e-17,0.43737499999999996,6.522560269672794e-18],"name":"cube","mesh":2},{"name":"root","children":[0,1,2]},{"translation":[-0.043749999999999956,0,-0.04375],"name":"cube","mesh":3},{"translation":[-0.043749999999999956,0.35,-0.04375],"name":"cube","mesh":4},{"rotation":[0,-0.3826834323650898,0,0.9238795325112867],"translation":[-6.661338147750945e-18,0.43625000000000014,0],"name":"cube","mesh":5},{"translation":[1.1102230246251565e-16,0,0],"name":"root2","children":[4,5,6]},{"children":[3,7]}],"bufferViews":[{"buffer":0,"byteOffset":0,"byteLength":288,"target":34962,"byteStride":12},{"buffer":0,"byteOffset":288,"byteLength":288,"target":34962,"byteStride":12},{"buffer":0,"byteOffset":576,"byteLength":192,"target":34962,"byteStride":8},{"buffer":0,"byteOffset":768,"byteLength":72,"target":34963},{"buffer":0,"byteOffset":840,"byteLength":288,"target":34962,"byteStride":12},{"buffer":0,"byteOffset":1128,"byteLength":288,"target":34962,"byteStride":12},{"buffer":0,"byteOffset":1416,"byteLength":192,"target":34962,"byteStride":8},{"buffer":0,"byteOffset":1608,"byteLength":72,"target":34963},{"buffer":0,"byteOffset":1680,"byteLength":240,"target":34962,"byteStride":12},{"buffer":0,"byteOffset":1920,"byteLength":240,"target":34962,"byteStride":12},{"buffer":0,"byteOffset":2160,"byteLength":160,"target":34962,"byteStride":8},{"buffer":0,"byteOffset":2320,"byteLength":60,"target":34963},{"buffer":0,"byteOffset":2380,"byteLength":288,"target":34962,"byteStride":12},{"buffer":0,"byteOffset":2668,"byteLength":288,"target":34962,"byteStride":12},{"buffer":0,"byteOffset":2956,"byteLength":192,"target":34962,"byteStride":8},{"buffer":0,"byteOffset":3148,"byteLength":72,"target":34963},{"buffer":0,"byteOffset":3220,"byteLength":288,"target":34962,"byteStride":12},{"buffer":0,"byteOffset":3508,"byteLength":288,"target":34962,"byteStride":12},{"buffer":0,"byteOffset":3796,"byteLength":192,"target":34962,"byteStride":8},{"buffer":0,"byteOffset":3988,"byteLength":72,"target":34963},{"buffer":0,"byteOffset":4060,"byteLength":240,"target":34962,"byteStride":12},{"buffer":0,"byteOffset":4300,"byteLength":240,"target":34962,"byteStride":12},{"buffer":0,"byteOffset":4540,"byteLength":160,"target":34962,"byteStride":8},{"buffer":0,"byteOffset":4700,"byteLength":60,"target":34963},{"buffer":0,"byteOffset":4760,"byteLength":4},{"buffer":0,"byteOffset":4764,"byteLength":12},{"buffer":0,"byteOffset":4776,"byteLength":4},{"buffer":0,"byteOffset":4780,"byteLength":12},{"buffer":0,"byteOffset":4792,"byteLength":4},{"buffer":0,"byteOffset":4796,"byteLength":12},{"buffer":0,"byteOffset":4808,"byteLength":4},{"buffer":0,"byteOffset":4812,"byteLength":12}],"buffers":[{"byteLength":4824,"uri":"data:application/octet-stream;base64,"}],"accessors":[{"bufferView":0,"componentType":5126,"count":24,"max":[0.17499999701976776,0.3499999940395355,0.17499999701976776],"min":[-0.08749999850988388,0,-0.08749999850988388],"type":"VEC3"},{"bufferView":1,"componentType":5126,"count":24,"max":[1,1,1],"min":[-1,-1,-1],"type":"VEC3"},{"bufferView":2,"componentType":5126,"count":24,"max":[0.7490000128746033,0.43650001287460327],"min":[0.0010000000474974513,0.0009999871253967285],"type":"VEC2"},{"bufferView":3,"componentType":5123,"count":36,"max":[23],"min":[0],"type":"SCALAR"},{"bufferView":4,"componentType":5126,"count":24,"max":[0.13124999403953552,0.08749999850988388,0.13124999403953552],"min":[-0.04374999925494194,0,-0.04374999925494194],"type":"VEC3"},{"bufferView":5,"componentType":5126,"count":24,"max":[1,1,1],"min":[-1,-1,-1],"type":"VEC3"},{"bufferView":6,"componentType":5126,"count":24,"max":[0.49900001287460327,0.6552500128746033],"min":[0.0010000000474974513,0.46974998712539673],"type":"VEC2"},{"bufferView":7,"componentType":5123,"count":36,"max":[23],"min":[0],"type":"SCALAR"},{"bufferView":8,"componentType":5126,"count":20,"max":[0.12337499856948853,0.12337499856948853,-6.5225602531291824e-18],"min":[-0.12337499856948853,-0.12337499856948853,-6.5225602531291824e-18],"type":"VEC3"},{"bufferView":9,"componentType":5126,"count":20,"max":[1,0,0],"min":[0,0,-1],"type":"VEC3"},{"bufferView":10,"componentType":5126,"count":20,"max":[0.9052500128746033,0.6555428504943848],"min":[0.53125,0.46875],"type":"VEC2"},{"bufferView":11,"componentType":5123,"count":30,"max":[19],"min":[0],"type":"SCALAR"},{"bufferView":12,"componentType":5126,"count":24,"max":[0.17499999701976776,0.3499999940395355,0.17499999701976776],"min":[-0.08749999850988388,0,-0.08749999850988388],"type":"VEC3"},{"bufferView":13,"componentType":5126,"count":24,"max":[1,1,1],"min":[-1,-1,-1],"type":"VEC3"},{"bufferView":14,"componentType":5126,"count":24,"max":[0.7490000128746033,0.43650001287460327],"min":[0.0010000000474974513,0.0009999871253967285],"type":"VEC2"},{"bufferView":15,"componentType":5123,"count":36,"max":[23],"min":[0],"type":"SCALAR"},{"bufferView":16,"componentType":5126,"count":24,"max":[0.13124999403953552,0.08749999850988388,0.13124999403953552],"min":[-0.04374999925494194,0,-0.04374999925494194],"type":"VEC3"},{"bufferView":17,"componentType":5126,"count":24,"max":[1,1,1],"min":[-1,-1,-1],"type":"VEC3"},{"bufferView":18,"componentType":5126,"count":24,"max":[0.49900001287460327,0.6552500128746033],"min":[0.0010000000474974513,0.46974998712539673],"type":"VEC2"},{"bufferView":19,"componentType":5123,"count":36,"max":[23],"min":[0],"type":"SCALAR"},{"bufferView":20,"componentType":5126,"count":20,"max":[0.12337499856948853,0.12337499856948853,0],"min":[-0.12337499856948853,-0.12337499856948853,0],"type":"VEC3"},{"bufferView":21,"componentType":5126,"count":20,"max":[1,0,0],"min":[0,0,-1],"type":"VEC3"},{"bufferView":22,"componentType":5126,"count":20,"max":[0.9052500128746033,0.6555428504943848],"min":[0.53125,0.46875],"type":"VEC2"},{"bufferView":23,"componentType":5123,"count":30,"max":[19],"min":[0],"type":"SCALAR"},{"bufferView":24,"componentType":5126,"count":1,"max":[0],"min":[0],"type":"SCALAR"},{"bufferView":25,"componentType":5126,"count":1,"max":[0,0,0],"min":[0,0,0],"type":"VEC3"},{"bufferView":26,"componentType":5126,"count":1,"max":[0],"min":[0],"type":"SCALAR"},{"bufferView":27,"componentType":5126,"count":1,"max":[1,1,1],"min":[1,1,1],"type":"VEC3"},{"bufferView":28,"componentType":5126,"count":1,"max":[0],"min":[0],"type":"SCALAR"},{"bufferView":29,"componentType":5126,"count":1,"max":[1,1,1],"min":[1,1,1],"type":"VEC3"},{"bufferView":30,"componentType":5126,"count":1,"max":[0],"min":[0],"type":"SCALAR"},{"bufferView":31,"componentType":5126,"count":1,"max":[0,0,0],"min":[0,0,0],"type":"VEC3"}],"materials":[{"pbrMetallicRoughness":{"metallicFactor":0,"roughnessFactor":1,"baseColorTexture":{"index":0}},"alphaMode":"MASK","alphaCutoff":0.05,"doubleSided":true},{"pbrMetallicRoughness":{"metallicFactor":0,"roughnessFactor":1,"baseColorTexture":{"index":1}},"alphaMode":"MASK","alphaCutoff":0.05,"doubleSided":true}],"textures":[{"sampler":0,"source":0,"name":"lantern"},{"sampler":1,"source":1,"name":"lantern_off"}],"samplers":[{"magFilter":9728,"minFilter":9728,"wrapS":33071,"wrapT":33071},{"magFilter":9728,"minFilter":9728,"wrapS":33071,"wrapT":33071}],"images":[{"mimeType":"image/png","uri":"data:image/png;base64,"},{"mimeType":"image/png","uri":"data:image/png;base64,"}],"meshes":[{"primitives":[{"mode":4,"attributes":{"POSITION":0,"NORMAL":1,"TEXCOORD_0":2},"indices":3,"material":0}]},{"primitives":[{"mode":4,"attributes":{"POSITION":4,"NORMAL":5,"TEXCOORD_0":6},"indices":7,"material":0}]},{"primitives":[{"mode":4,"attributes":{"POSITION":8,"NORMAL":9,"TEXCOORD_0":10},"indices":11,"material":0}]},{"primitives":[{"mode":4,"attributes":{"POSITION":12,"NORMAL":13,"TEXCOORD_0":14},"indices":15,"material":1}]},{"primitives":[{"mode":4,"attributes":{"POSITION":16,"NORMAL":17,"TEXCOORD_0":18},"indices":19,"material":1}]},{"primitives":[{"mode":4,"attributes":{"POSITION":20,"NORMAL":21,"TEXCOORD_0":22},"indices":23,"material":1}]}],"animations":[{"name":"idle","samplers":[{"input":24,"output":25,"interpolation":"LINEAR"},{"input":26,"output":27,"interpolation":"LINEAR"}],"channels":[{"sampler":0,"target":{"node":3,"path":"scale"}},{"sampler":1,"target":{"node":7,"path":"scale"}}]},{"name":"interact","samplers":[{"input":28,"output":29,"interpolation":"LINEAR"},{"input":30,"output":31,"interpolation":"LINEAR"}],"channels":[{"sampler":0,"target":{"node":3,"path":"scale"}},{"sampler":1,"target":{"node":7,"path":"scale"}}]}]}