{"asset":{"version":"2.0","generator":"Blockbench 4.12.6 glTF exporter"},"scenes":[{"nodes":[31],"name":"blockbench_export"}],"scene":0,"nodes":[{"name":"root8"},{"translation":[0,0.550738125,-0.18584],"name":"bone10"},{"rotation":[0,-0.7071067811865475,0,0.7071067811865476],"translation":[-0.07499999999999996,0.485051875,-0.05235125],"name":"bone11"},{"translation":[-0.02248130466952558,0,-0.016566195330474445],"name":"root9","children":[1,2]},{"translation":[0,0.550738125,-0.18584],"name":"bone10"},{"rotation":[0,-0.7071067811865475,0,0.7071067811865476],"translation":[-0.07499999999999996,0.485051875,-0.05235125],"name":"bone11"},{"translation":[-0.02248130466952558,0,-0.016566195330474445],"name":"root9","children":[4,5]},{"rotation":[-0.19509032201612825,0,0,0.9807852804032304],"translation":[0.0015625000000000005,-0.03587657178422721,-0.08661370617293312],"name":"cube","mesh":0},{"rotation":[-0.19509032201612825,0,0,0.9807852804032304],"translation":[0.0028125286102294927,0.011958857261409106,0.028871235390977718],"name":"cube","mesh":1},{"rotation":[-0.19509032201612825,0,0,0.9807852804032304],"translation":[0.0015625000000000005,0,0],"name":"cube","mesh":2},{"rotation":[-0.19509032201612825,0,0,0.9807852804032304],"translation":[-1,0,0],"name":"cube","mesh":3},{"translation":[0,0.550738125,-0.12334],"name":"bone7","children":[7,8,9,10]},{"rotation":[-0.19509032201612825,0,0,0.9807852804032304],"translation":[-0.94165625,0.122386875,-0.33977562499999997],"name":"cube","mesh":4},{"rotation":[-0.19509032201612825,0,0,0.9807852804032304],"translation":[-0.0012500286102294922,0.14512760726140905,-0.3486250146090223],"name":"cube","mesh":5},{"rotation":[-0.19509032201612825,0,0,0.9807852804032304],"translation":[0,0.09729217821577274,-0.4641099561729331],"name":"cube","mesh":6},{"rotation":[-0.19509032201612825,0,0,0.9807852804032304],"translation":[0,0.13316874999999995,-0.37749625],"name":"cube","mesh":7},{"rotation":[0,-0.7071067811865475,0,0.7071067811865476],"translation":[0,0.417569375,0.25415625],"name":"bone8","children":[12,13,14,15]},{"translation":[-0.0625,0,0.3125],"name":"cube","mesh":8},{"rotation":[0,-0.3826834323650898,0,0.9238795325112867],"translation":[-0.21875,0.875,0.21875],"name":"cube","mesh":9},{"rotation":[0,-0.3826834323650898,0,0.9238795325112867],"translation":[-0.21875,0.625,0.21875],"name":"cube","mesh":10},{"rotation":[0,-0.3826834323650898,0,0.9238795325112867],"translation":[-0.21875,0.625,0.21875],"name":"cube","mesh":11},{"translation":[0.3125,0,0],"name":"cube","mesh":12},{"translation":[-0.3140624761581421,0.4390625059604645,0.28437498211860657],"name":"cube","mesh":13},{"translation":[0.125,0,0.3125],"name":"cube","mesh":14},{"rotation":[0,0.7071067811865475,0,0.7071067811865476],"translation":[-0.40625,0.0625,-0.09375],"name":"cube","mesh":15},{"rotation":[0,0.7071067811865475,0,0.7071067811865476],"translation":[-0.31406247615814203,0.2828125059604645,0.11093750596046448],"name":"cube","mesh":16},{"translation":[-0.3140624761581421,0.4390625059604645,0.28437498211860657],"name":"cube","mesh":17},{"rotation":[0,0.7071067811865475,0,0.7071067811865476],"translation":[-0.31406247615814203,0.2828125059604645,0.11093750596046448],"name":"cube","mesh":18},{"rotation":[3.2958489565390005e-18,-0.7071067737359669,3.2958490259938252e-18,0.7071067886371282],"translation":[-0.1421874761581421,0.4390625059604645,0.33124998211860657],"name":"cube","mesh":19},{"rotation":[0,-4.440892098500626e-16,0,1],"translation":[-0.1421874761581421,0.4390625059604645,0.33124998211860657],"name":"cube","mesh":20},{"name":"root6","children":[11,16,17,18,19,20,21,22,23,24,25,26,27,28,29]},{"children":[0,3,6,30]}],"bufferViews":[{"buffer":0,"byteOffset":0,"byteLength":288,"target":34962,"byteStride":12},{"buffer":0,"byteOffset":288,"byteLength":288,"target":34962,"byteStride":12},{"buffer":0,"byteOffset":576,"byteLength":192,"target":34962,"byteStride":8},{"buffer":0,"byteOffset":768,"byteLength":72,"target":34963},{"buffer":0,"byteOffset":840,"byteLength":288,"target":34962,"byteStride":12},{"buffer":0,"byteOffset":1128,"byteLength":288,"target":34962,"byteStride":12},{"buffer":0,"byteOffset":1416,"byteLength":192,"target":34962,"byteStride":8},{"buffer":0,"byteOffset":1608,"byteLength":72,"target":34963},{"buffer":0,"byteOffset":1680,"byteLength":288,"target":34962,"byteStride":12},{"buffer":0,"byteOffset":1968,"byteLength":288,"target":34962,"byteStride":12},{"buffer":0,"byteOffset":2256,"byteLength":192,"target":34962,"byteStride":8},{"buffer":0,"byteOffset":2448,"byteLength":72,"target":34963},{"buffer":0,"byteOffset":2520,"byteLength":240,"target":34962,"byteStride":12},{"buffer":0,"byteOffset":2760,"byteLength":240,"target":34962,"byteStride":12},{"buffer":0,"byteOffset":3000,"byteLength":160,"target":34962,"byteStride":8},{"buffer":0,"byteOffset":3160,"byteLength":60,"target":34963},{"buffer":0,"byteOffset":3220,"byteLength":240,"target":34962,"byteStride":12},{"buffer":0,"byteOffset":3460,"byteLength":240,"target":34962,"byteStride":12},{"buffer":0,"byteOffset":3700,"byteLength":160,"target":34962,"byteStride":8},{"buffer":0,"byteOffset":3860,"byteLength":60,"target":34963},{"buffer":0,"byteOffset":3920,"byteLength":288,"target":34962,"byteStride":12},{"buffer":0,"byteOffset":4208,"byteLength":288,"target":34962,"byteStride":12},{"buffer":0,"byteOffset":4496,"byteLength":192,"target":34962,"byteStride":8},{"buffer":0,"byteOffset":4688,"byteLength":72,"target":34963},{"buffer":0,"byteOffset":4760,"byteLength":288,"target":34962,"byteStride":12},{"buffer":0,"byteOffset":5048,"byteLength":288,"target":34962,"byteStride":12},{"buffer":0,"byteOffset":5336,"byteLength":192,"target":34962,"byteStride":8},{"buffer":0,"byteOffset":5528,"byteLength":72,"target":34963},{"buffer":0,"byteOffset":5600,"byteLength":288,"target":34962,"byteStride":12},{"buffer":0,"byteOffset":5888,"byteLength":288,"target":34962,"byteStride":12},{"buffer":0,"byteOffset":6176,"byteLength":192,"target":34962,"byteStride":8},{"buffer":0,"byteOffset":6368,"byteLength":72,"target":34963},{"buffer":0,"byteOffset":6440,"byteLength":288,"target":34962,"byteStride":12},{"buffer":0,"byteOffset":6728,"byteLength":288,"target":34962,"byteStride":12},{"buffer":0,"byteOffset":7016,"byteLength":192,"target":34962,"byteStride":8},{"buffer":0,"byteOffset":7208,"byteLength":72,"target":34963},{"buffer":0,"byteOffset":7280,"byteLength":288,"target":34962,"byteStride":12},{"buffer":0,"byteOffset":7568,"byteLength":288,"target":34962,"byteStride":12},{"buffer":0,"byteOffset":7856,"byteLength":192,"target":34962,"byteStride":8},{"buffer":0,"byteOffset":8048,"byteLength":72,"target":34963},{"buffer":0,"byteOffset":8120,"byteLength":288,"target":34962,"byteStride":12},{"buffer":0,"byteOffset":8408,"byteLength":288,"target":34962,"byteStride":12},{"buffer":0,"byteOffset":8696,"byteLength":192,"target":34962,"byteStride":8},{"buffer":0,"byteOffset":8888,"byteLength":72,"target":34963},{"buffer":0,"byteOffset":8960,"byteLength":288,"target":34962,"byteStride":12},{"buffer":0,"byteOffset":9248,"byteLength":288,"target":34962,"byteStride":12},{"buffer":0,"byteOffset":9536,"byteLength":192,"target":34962,"byteStride":8},{"buffer":0,"byteOffset":9728,"byteLength":72,"target":34963},{"buffer":0,"byteOffset":9800,"byteLength":288,"target":34962,"byteStride":12},{"buffer":0,"byteOffset":10088,"byteLength":288,"target":34962,"byteStride":12},{"buffer":0,"byteOffset":10376,"byteLength":192,"target":34962,"byteStride":8},{"buffer":0,"byteOffset":10568,"byteLength":72,"target":34963},{"buffer":0,"byteOffset":10640,"byteLength":288,"target":34962,"byteStride":12},{"buffer":0,"byteOffset":10928,"byteLength":288,"target":34962,"byteStride":12},{"buffer":0,"byteOffset":11216,"byteLength":192,"target":34962,"byteStride":8},{"buffer":0,"byteOffset":11408,"byteLength":72,"target":34963},{"buffer":0,"byteOffset":11480,"byteLength":288,"target":34962,"byteStride":12},{"buffer":0,"byteOffset":11768,"byteLength":288,"target":34962,"byteStride":12},{"buffer":0,"byteOffset":12056,"byteLength":192,"target":34962,"byteStride":8},{"buffer":0,"byteOffset":12248,"byteLength":72,"target":34963},{"buffer":0,"byteOffset":12320,"byteLength":288,"target":34962,"byteStride":12},{"buffer":0,"byteOffset":12608,"byteLength":288,"target":34962,"byteStride":12},{"buffer":0,"byteOffset":12896,"byteLength":192,"target":34962,"byteStride":8},{"buffer":0,"byteOffset":13088,"byteLength":72,"target":34963},{"buffer":0,"byteOffset":13160,"byteLength":288,"target":34962,"byteStride":12},{"buffer":0,"byteOffset":13448,"byteLength":288,"target":34962,"byteStride":12},{"buffer":0,"byteOffset":13736,"byteLength":192,"target":34962,"byteStride":8},{"buffer":0,"byteOffset":13928,"byteLength":72,"target":34963},{"buffer":0,"byteOffset":14000,"byteLength":288,"target":34962,"byteStride":12},{"buffer":0,"byteOffset":14288,"byteLength":288,"target":34962,"byteStride":12},{"buffer":0,"byteOffset":14576,"byteLength":192,"target":34962,"byteStride":8},{"buffer":0,"byteOffset":14768,"byteLength":72,"target":34963},{"buffer":0,"byteOffset":14840,"byteLength":288,"target":34962,"byteStride":12},{"buffer":0,"byteOffset":15128,"byteLength":288,"target":34962,"byteStride":12},{"buffer":0,"byteOffset":15416,"byteLength":192,"target":34962,"byteStride":8},{"buffer":0,"byteOffset":15608,"byteLength":72,"target":34963},{"buffer":0,"byteOffset":15680,"byteLength":288,"target":34962,"byteStride":12},{"buffer":0,"byteOffset":15968,"byteLength":288,"target":34962,"byteStride":12},{"buffer":0,"byteOffset":16256,"byteLength":192,"target":34962,"byteStride":8},{"buffer":0,"byteOffset":16448,"byteLength":72,"target":34963},{"buffer":0,"byteOffset":16520,"byteLength":288,"target":34962,"byteStride":12},{"buffer":0,"byteOffset":16808,"byteLength":288,"target":34962,"byteStride":12},{"buffer":0,"byteOffset":17096,"byteLength":192,"target":34962,"byteStride":8},{"buffer":0,"byteOffset":17288,"byteLength":72,"target":34963}],"buffers":[{"byteLength":17360,"uri":"data:application/octet-stream;base64,"}],"accessors":[{"bufferView":0,"componentType":5126,"count":24,"max":[-0.0625,0,0.40625],"min":[-0.5,-0.1875,-0.15625],"type":"VEC3"},{"bufferView":1,"componentType":5126,"count":24,"max":[1,1,1],"min":[-1,-1,-1],"type":"VEC3"},{"bufferView":2,"componentType":5126,"count":24,"max":[0.796625018119812,0.593500018119812],"min":[0.547124981880188,0.500249981880188],"type":"VEC2"},{"bufferView":3,"componentType":5123,"count":36,"max":[23],"min":[0],"type":"SCALAR"},{"bufferView":4,"componentType":5126,"count":24,"max":[-0.12437500059604645,0.18812499940395355,0.5006250143051147],"min":[-0.5006250143051147,-0.0006249999860301614,0.15562500059604645],"type":"VEC3"},{"bufferView":5,"componentType":5126,"count":24,"max":[1,1,1],"min":[-1,-1,-1],"type":"VEC3"},{"bufferView":6,"componentType":5126,"count":24,"max":[0.859125018119812,0.148187518119812],"min":[0.687749981880188,0.08618748188018799],"type":"VEC2"},{"bufferView":7,"componentType":5123,"count":36,"max":[23],"min":[0],"type":"SCALAR"},{"bufferView":8,"componentType":5126,"count":24,"max":[0.25,-0.1875,-0.0625],"min":[-0.5,-0.375,-0.6875],"type":"VEC3"},{"bufferView":9,"componentType":5126,"count":24,"max":[1,1,1],"min":[-1,-1,-1],"type":"VEC3"},{"bufferView":10,"componentType":5126,"count":24,"max":[0.3434999883174896,0.304437518119812],"min":[0.0002500000118743628,0.203374981880188],"type":"VEC2"},{"bufferView":11,"componentType":5123,"count":36,"max":[23],"min":[0],"type":"SCALAR"},{"bufferView":12,"componentType":5126,"count":20,"max":[1.1875,-0.28125,-0.6875],"min":[0.5,-0.28125,-0.875],"type":"VEC3"},{"bufferView":13,"componentType":5126,"count":20,"max":[1,1,0],"min":[0,0,0],"type":"VEC3"},{"bufferView":14,"componentType":5126,"count":20,"max":[0.773196280002594,0.17962169647216797],"min":[0,0],"type":"VEC2"},{"bufferView":15,"componentType":5123,"count":30,"max":[19],"min":[0],"type":"SCALAR"},{"bufferView":16,"componentType":5126,"count":20,"max":[1.1875,-0.375,-0.5],"min":[0.5,-0.375,-0.6875],"type":"VEC3"},{"bufferView":17,"componentType":5126,"count":20,"max":[1,1,0],"min":[0,0,0],"type":"VEC3"},{"bufferView":18,"componentType":5126,"count":20,"max":[0.773196280002594,0.17962169647216797],"min":[0,0],"type":"VEC2"},{"bufferView":19,"componentType":5123,"count":30,"max":[19],"min":[0],"type":"SCALAR"},{"bufferView":20,"componentType":5126,"count":24,"max":[0.24437500536441803,0.09245414286851883,0.7315948605537415],"min":[-0.13187499344348907,-0.09629585593938828,0.38659489154815674],"type":"VEC3"},{"bufferView":21,"componentType":5126,"count":24,"max":[1,1,1],"min":[-1,-1,-1],"type":"VEC3"},{"bufferView":22,"componentType":5126,"count":24,"max":[0.859125018119812,0.148187518119812],"min":[0.687749981880188,0.08618748188018799],"type":"VEC2"},{"bufferView":23,"componentType":5123,"count":36,"max":[23],"min":[0],"type":"SCALAR"},{"bufferView":24,"componentType":5126,"count":24,"max":[0.24375000596046448,-0.09567085653543472,0.6372199058532715],"min":[-0.19374999403953552,-0.2831708490848541,0.0747198835015297],"type":"VEC3"},{"bufferView":25,"componentType":5126,"count":24,"max":[1,1,1],"min":[-1,-1,-1],"type":"VEC3"},{"bufferView":26,"componentType":5126,"count":24,"max":[0.796625018119812,0.593500018119812],"min":[0.547124981880188,0.500249981880188],"type":"VEC2"},{"bufferView":27,"componentType":5123,"count":36,"max":[23],"min":[0],"type":"SCALAR"},{"bufferView":28,"componentType":5126,"count":24,"max":[0.24375000596046448,-0.2831708490848541,0.1684698760509491],"min":[-0.5062500238418579,-0.4706708490848541,-0.4565301239490509],"type":"VEC3"},{"bufferView":29,"componentType":5126,"count":24,"max":[1,1,1],"min":[-1,-1,-1],"type":"VEC3"},{"bufferView":30,"componentType":5126,"count":24,"max":[0.3434999883174896,0.304437518119812],"min":[0.0002500000118743628,0.203374981880188],"type":"VEC2"},{"bufferView":31,"componentType":5123,"count":36,"max":[23],"min":[0],"type":"SCALAR"},{"bufferView":32,"componentType":5126,"count":24,"max":[-0.25,1,0.1875],"min":[-0.4375,0,0],"type":"VEC3"},{"bufferView":33,"componentType":5126,"count":24,"max":[1,1,1],"min":[-1,-1,-1],"type":"VEC3"},{"bufferView":34,"componentType":5126,"count":24,"max":[0.749750018119812,0.452875018119812],"min":[0.656499981880188,0.304937481880188],"type":"VEC2"},{"bufferView":35,"componentType":5123,"count":36,"max":[23],"min":[0],"type":"SCALAR"},{"bufferView":36,"componentType":5126,"count":24,"max":[0.15625,0.0625,0.21875],"min":[-0.15625,-0.25,-0.34375],"type":"VEC3"},{"bufferView":37,"componentType":5126,"count":24,"max":[1,1,1],"min":[-1,-1,-1],"type":"VEC3"},{"bufferView":38,"componentType":5126,"count":24,"max":[0.874750018119812,0.296625018119812],"min":[0.656499981880188,0.187749981880188],"type":"VEC2"},{"bufferView":39,"componentType":5123,"count":36,"max":[23],"min":[0],"type":"SCALAR"},{"bufferView":40,"componentType":5126,"count":24,"max":[0.15625,0,-0.15625],"min":[-0.15625,-0.3125,-0.71875],"type":"VEC3"},{"bufferView":41,"componentType":5126,"count":24,"max":[1,1,1],"min":[-1,-1,-1],"type":"VEC3"},{"bufferView":42,"componentType":5126,"count":24,"max":[0.874750018119812,0.296625018119812],"min":[0.656499981880188,0.187749981880188],"type":"VEC2"},{"bufferView":43,"componentType":5123,"count":36,"max":[23],"min":[0],"type":"SCALAR"},{"bufferView":44,"componentType":5126,"count":24,"max":[0.15625,-0.3125,-0.59375],"min":[-0.15625,-0.625,-1.15625],"type":"VEC3"},{"bufferView":45,"componentType":5126,"count":24,"max":[1,1,1],"min":[-1,-1,-1],"type":"VEC3"},{"bufferView":46,"componentType":5126,"count":24,"max":[0.874750018119812,0.296625018119812],"min":[0.656499981880188,0.187749981880188],"type":"VEC2"},{"bufferView":47,"componentType":5123,"count":36,"max":[23],"min":[0],"type":"SCALAR"},{"bufferView":48,"componentType":5126,"count":24,"max":[0.18906250596046448,0.12656250596046448,0.3765625059604645],"min":[-0.6890624761581421,-0.0015625000232830644,-0.5015624761581421],"type":"VEC3"},{"bufferView":49,"componentType":5126,"count":24,"max":[1,1,1],"min":[-1,-1,-1],"type":"VEC3"},{"bufferView":50,"componentType":5126,"count":24,"max":[0.8740000128746033,0.8740000128746033],"min":[0.0010000000474974513,0.0009999871253967285],"type":"VEC2"},{"bufferView":51,"componentType":5123,"count":36,"max":[23],"min":[0],"type":"SCALAR"},{"bufferView":52,"componentType":5126,"count":24,"max":[0.0625,0.3125,0.03125],"min":[-0.0625,0,-0.1875],"type":"VEC3"},{"bufferView":53,"componentType":5126,"count":24,"max":[1,1,1],"min":[-1,-1,-1],"type":"VEC3"},{"bufferView":54,"componentType":5126,"count":24,"max":[0.859375,0.8427500128746033],"min":[0.37599998712539673,0.0009999871253967285],"type":"VEC2"},{"bufferView":55,"componentType":5123,"count":36,"max":[23],"min":[0],"type":"SCALAR"},{"bufferView":56,"componentType":5126,"count":24,"max":[0.375,0.125,0.1875],"min":[-0.4375,0,0],"type":"VEC3"},{"bufferView":57,"componentType":5126,"count":24,"max":[1,1,1],"min":[-1,-1,-1],"type":"VEC3"},{"bufferView":58,"componentType":5126,"count":24,"max":[0.8105000257492065,0.7480000257492065],"min":[0.0020000000949949026,0.001999974250793457],"type":"VEC2"},{"bufferView":59,"componentType":5123,"count":36,"max":[23],"min":[0],"type":"SCALAR"},{"bufferView":60,"componentType":5126,"count":24,"max":[0.40625,0.0625,0.09375],"min":[-0.40625,-0.0625,-0.09375],"type":"VEC3"},{"bufferView":61,"componentType":5126,"count":24,"max":[1,1,1],"min":[-1,-1,-1],"type":"VEC3"},{"bufferView":62,"componentType":5126,"count":24,"max":[0.8105000257492065,0.7480000257492065],"min":[0.0020000000949949026,0.001999974250793457],"type":"VEC2"},{"bufferView":63,"componentType":5123,"count":36,"max":[23],"min":[0],"type":"SCALAR"},{"bufferView":64,"componentType":5126,"count":24,"max":[0.2640625238418579,0.15625,0.0625],"min":[-0.2046874761581421,-0.15625,-0.0625],"type":"VEC3"},{"bufferView":65,"componentType":5126,"count":24,"max":[1,1,1],"min":[-1,-1,-1],"type":"VEC3"},{"bufferView":66,"componentType":5126,"count":24,"max":[0.8115000128746033,0.6865000128746033],"min":[0.37599998712539673,0.0009999871253967285],"type":"VEC2"},{"bufferView":67,"componentType":5123,"count":36,"max":[23],"min":[0],"type":"SCALAR"},{"bufferView":68,"componentType":5126,"count":24,"max":[0.0625,0.3125,0.03125],"min":[-0.0625,0,-0.1875],"type":"VEC3"},{"bufferView":69,"componentType":5126,"count":24,"max":[1,1,1],"min":[-1,-1,-1],"type":"VEC3"},{"bufferView":70,"componentType":5126,"count":24,"max":[0.859375,0.8427500128746033],"min":[0.37599998712539673,0.0009999871253967285],"type":"VEC2"},{"bufferView":71,"componentType":5123,"count":36,"max":[23],"min":[0],"type":"SCALAR"},{"bufferView":72,"componentType":5126,"count":24,"max":[0.2640625238418579,0.15625,0.0625],"min":[-0.2046874761581421,-0.15625,-0.0625],"type":"VEC3"},{"bufferView":73,"componentType":5126,"count":24,"max":[1,1,1],"min":[-1,-1,-1],"type":"VEC3"},{"bufferView":74,"componentType":5126,"count":24,"max":[0.8115000128746033,0.6865000128746033],"min":[0.37599998712539673,0.0009999871253967285],"type":"VEC2"},{"bufferView":75,"componentType":5123,"count":36,"max":[23],"min":[0],"type":"SCALAR"},{"bufferView":76,"componentType":5126,"count":24,"max":[0.0625,0.3125,0.171875],"min":[-0.0625,0,-0.046875],"type":"VEC3"},{"bufferView":77,"componentType":5126,"count":24,"max":[1,1,1],"min":[-1,-1,-1],"type":"VEC3"},{"bufferView":78,"componentType":5126,"count":24,"max":[0.859375,0.8427500128746033],"min":[0.37599998712539673,0.0009999871253967285],"type":"VEC2"},{"bufferView":79,"componentType":5123,"count":36,"max":[23],"min":[0],"type":"SCALAR"},{"bufferView":80,"componentType":5126,"count":24,"max":[0.296875,0,0.0625],"min":[-0.171875,-0.3125,-0.0625],"type":"VEC3"},{"bufferView":81,"componentType":5126,"count":24,"max":[1,1,1],"min":[-1,-1,-1],"type":"VEC3"},{"bufferView":82,"componentType":5126,"count":24,"max":[0.8115000128746033,0.6865000128746033],"min":[0.37599998712539673,0.0009999871253967285],"type":"VEC2"},{"bufferView":83,"componentType":5123,"count":36,"max":[23],"min":[0],"type":"SCALAR"}],"materials":[{"pbrMetallicRoughness":{"metallicFactor":0,"roughnessFactor":1,"baseColorTexture":{"index":0}},"alphaMode":"MASK","alphaCutoff":0.05,"doubleSided":true},{"pbrMetallicRoughness":{"metallicFactor":0,"roughnessFactor":1,"baseColorTexture":{"index":1}},"alphaMode":"MASK","alphaCutoff":0.05,"doubleSided":true},{"pbrMetallicRoughness":{"metallicFactor":0,"roughnessFactor":1,"baseColorTexture":{"index":2}},"alphaMode":"MASK","alphaCutoff":0.05,"doubleSided":true},{"pbrMetallicRoughness":{"metallicFactor":0,"roughnessFactor":1,"baseColorTexture":{"index":3}},"alphaMode":"MASK","alphaCutoff":0.05,"doubleSided":true}],"textures":[{"sampler":0,"source":0,"name":"roof_bricks"},{"sampler":1,"source":1,"name":"roof_inside_4"},{"sampler":2,"source":2,"name":"roof_inside_2"},{"sampler":3,"source":3,"name":"roof_inside_3"}],"samplers":[{"magFilter":9728,"minFilter":9728,"wrapS":33071,"wrapT":33071},{"magFilter":9728,"minFilter":9728,"wrapS":33071,"wrapT":33071},{"magFilter":9728,"minFilter":9728,"wrapS":33071,"wrapT":33071},{"magFilter":9728,"minFilter":9728,"wrapS":33071,"wrapT":33071}],"images":[{"mimeType":"image/png","uri":"data:image/png;base64,"},{"mimeType":"image/png","uri":"data:image/png;base64,"},{"mimeType":"image/png","uri":"data:image/png;base64,"},{"mimeType":"image/png","uri":"data:image/png;base64,"}],"meshes":[{"primitives":[{"mode":4,"attributes":{"POSITION":0,"NORMAL":1,"TEXCOORD_0":2},"indices":3,"material":0}]},{"primitives":[{"mode":4,"attributes":{"POSITION":4,"NORMAL":5,"TEXCOORD_0":6},"indices":7,"material":0}]},{"primitives":[{"mode":4,"attributes":{"POSITION":8,"NORMAL":9,"TEXCOORD_0":10},"indices":11,"material":0}]},{"primitives":[{"mode":4,"attributes":{"POSITION":12,"NORMAL":13,"TEXCOORD_0":14},"indices":15,"material":0}]},{"primitives":[{"mode":4,"attributes":{"POSITION":16,"NORMAL":17,"TEXCOORD_0":18},"indices":19,"material":0}]},{"primitives":[{"mode":4,"attributes":{"POSITION":20,"NORMAL":21,"TEXCOORD_0":22},"indices":23,"material":0}]},{"primitives":[{"mode":4,"attributes":{"POSITION":24,"NORMAL":25,"TEXCOORD_0":26},"indices":27,"material":0}]},{"primitives":[{"mode":4,"attributes":{"POSITION":28,"NORMAL":29,"TEXCOORD_0":30},"indices":31,"material":0}]},{"primitives":[{"mode":4,"attributes":{"POSITION":32,"NORMAL":33,"TEXCOORD_0":34},"indices":35,"material":0}]},{"primitives":[{"mode":4,"attributes":{"POSITION":36,"NORMAL":37,"TEXCOORD_0":38},"indices":39,"material":0}]},{"primitives":[{"mode":4,"attributes":{"POSITION":40,"NORMAL":41,"TEXCOORD_0":42},"indices":43,"material":0}]},{"primitives":[{"mode":4,"attributes":{"POSITION":44,"NORMAL":45,"TEXCOORD_0":46},"indices":47,"material":0}]},{"primitives":[{"mode":4,"attributes":{"POSITION":48,"NORMAL":49,"TEXCOORD_0":50},"indices":51,"material":1}]},{"primitives":[{"mode":4,"attributes":{"POSITION":52,"NORMAL":53,"TEXCOORD_0":54},"indices":55,"material":2}]},{"primitives":[{"mode":4,"attributes":{"POSITION":56,"NORMAL":57,"TEXCOORD_0":58},"indices":59,"material":3}]},{"primitives":[{"mode":4,"attributes":{"POSITION":60,"NORMAL":61,"TEXCOORD_0":62},"indices":63,"material":3}]},{"primitives":[{"mode":4,"attributes":{"POSITION":64,"NORMAL":65,"TEXCOORD_0":66},"indices":67,"material":2}]},{"primitives":[{"mode":4,"attributes":{"POSITION":68,"NORMAL":69,"TEXCOORD_0":70},"indices":71,"material":2}]},{"primitives":[{"mode":4,"attributes":{"POSITION":72,"NORMAL":73,"TEXCOORD_0":74},"indices":75,"material":2}]},{"primitives":[{"mode":4,"attributes":{"POSITION":76,"NORMAL":77,"TEXCOORD_0":78},"indices":79,"material":2}]},{"primitives":[{"mode":4,"attributes":{"POSITION":80,"NORMAL":81,"TEXCOORD_0":82},"indices":83,"material":2}]}]}