{
  "asset": {
    "generator": "glTF-Transform v4.2.1",
    "version": "2.0"
  },
  "accessors": [
    {
      "type": "SCALAR",
      "componentType": 5123,
      "count": 36,
      "bufferView": 0,
      "byteOffset": 0
    },
    {
      "type": "SCALAR",
      "componentType": 5123,
      "count": 36,
      "bufferView": 0,
      "byteOffset": 72
    },
    {
      "type": "SCALAR",
      "componentType": 5123,
      "count": 36,
      "bufferView": 0,
      "byteOffset": 144
    },
    {
      "type": "SCALAR",
      "componentType": 5123,
      "count": 36,
      "bufferView": 0,
      "byteOffset": 216
    },
    {
      "type": "SCALAR",
      "componentType": 5123,
      "count": 36,
      "bufferView": 0,
      "byteOffset": 288
    },
    {
      "type": "SCALAR",
      "componentType": 5123,
      "count": 36,
      "bufferView": 0,
      "byteOffset": 360
    },
    {
      "type": "SCALAR",
      "componentType": 5123,
      "count": 30,
      "bufferView": 0,
      "byteOffset": 432
    },
    {
      "type": "SCALAR",
      "componentType": 5123,
      "count": 36,
      "bufferView": 0,
      "byteOffset": 492
    },
    {
      "type": "SCALAR",
      "componentType": 5123,
      "count": 36,
      "bufferView": 0,
      "byteOffset": 564
    },
    {
      "type": "SCALAR",
      "componentType": 5123,
      "count": 36,
      "bufferView": 0,
      "byteOffset": 636
    },
    {
      "type": "SCALAR",
      "componentType": 5123,
      "count": 36,
      "bufferView": 0,
      "byteOffset": 708
    },
    {
      "type": "SCALAR",
      "componentType": 5123,
      "count": 30,
      "bufferView": 0,
      "byteOffset": 780
    },
    {
      "type": "SCALAR",
      "componentType": 5123,
      "count": 36,
      "bufferView": 0,
      "byteOffset": 840
    },
    {
      "type": "SCALAR",
      "componentType": 5123,
      "count": 36,
      "bufferView": 0,
      "byteOffset": 912
    },
    {
      "type": "SCALAR",
      "componentType": 5123,
      "count": 36,
      "bufferView": 0,
      "byteOffset": 984
    },
    {
      "type": "SCALAR",
      "componentType": 5123,
      "count": 36,
      "bufferView": 0,
      "byteOffset": 1056
    },
    {
      "type": "VEC3",
      "componentType": 5126,
      "count": 24,
      "max": [
        0.140625,
        0.65625,
        0.171875
      ],
      "min": [
        -0.078125,
        0.4375,
        -0.046875
      ],
      "bufferView": 1,
      "byteOffset": 0
    },
    {
      "type": "VEC3",
      "componentType": 5126,
      "count": 24,
      "bufferView": 1,
      "byteOffset": 12
    },
    {
      "type": "VEC2",
      "componentType": 5126,
      "count": 24,
      "bufferView": 1,
      "byteOffset": 24
    },
    {
      "type": "VEC3",
      "componentType": 5126,
      "count": 24,
      "max": [
        0.20468750596046448,
        0.00937500037252903,
        -0.08437500149011612
      ],
      "min": [
        -0.23281249403953552,
        -0.11562500149011612,
        -0.2718749940395355
      ],
      "bufferView": 2,
      "byteOffset": 0
    },
    {
      "type": "VEC2",
      "componentType": 5126,
      "count": 24,
      "bufferView": 2,
      "byteOffset": 12
    },
    {
      "type": "VEC3",
      "componentType": 5126,
      "count": 24,
      "bufferView": 2,
      "byteOffset": 20
    },
    {
      "type": "VEC3",
      "componentType": 5126,
      "count": 24,
      "max": [
        0.3421874940395355,
        0.13437500596046448,
        -0.08437500149011612
      ],
      "min": [
        -0.09531249850988388,
        0.00937500037252903,
        -0.2718749940395355
      ],
      "bufferView": 3,
      "byteOffset": 0
    },
    {
      "type": "VEC2",
      "componentType": 5126,
      "count": 24,
      "bufferView": 3,
      "byteOffset": 12
    },
    {
      "type": "VEC3",
      "componentType": 5126,
      "count": 24,
      "bufferView": 3,
      "byteOffset": 20
    },
    {
      "type": "VEC3",
      "componentType": 5126,
      "count": 24,
      "max": [
        0.109375,
        0.140625,
        0.046875
      ],
      "min": [
        -0.109375,
        -0.140625,
        -0.046875
      ],
      "bufferView": 4,
      "byteOffset": 0
    },
    {
      "type": "VEC2",
      "componentType": 5126,
      "count": 24,
      "bufferView": 4,
      "byteOffset": 12
    },
    {
      "type": "VEC3",
      "componentType": 5126,
      "count": 24,
      "bufferView": 4,
      "byteOffset": 20
    },
    {
      "type": "VEC3",
      "componentType": 5126,
      "count": 24,
      "max": [
        0.203125,
        0.015625,
        -0.1875
      ],
      "min": [
        -0.234375,
        -0.109375,
        -0.375
      ],
      "bufferView": 5,
      "byteOffset": 0
    },
    {
      "type": "VEC3",
      "componentType": 5126,
      "count": 24,
      "bufferView": 5,
      "byteOffset": 12
    },
    {
      "type": "VEC2",
      "componentType": 5126,
      "count": 24,
      "bufferView": 5,
      "byteOffset": 24
    },
    {
      "type": "VEC3",
      "componentType": 5126,
      "count": 24,
      "max": [
        0.375,
        0.015625,
        0.1875
      ],
      "min": [
        -0.0625,
        -0.109375,
        0
      ],
      "bufferView": 6,
      "byteOffset": 0
    },
    {
      "type": "VEC2",
      "componentType": 5126,
      "count": 24,
      "bufferView": 6,
      "byteOffset": 12
    },
    {
      "type": "VEC3",
      "componentType": 5126,
      "count": 24,
      "bufferView": 6,
      "byteOffset": 20
    },
    {
      "type": "VEC3",
      "componentType": 5126,
      "count": 14,
      "max": [
        0.09375,
        0.75,
        0
      ],
      "min": [
        -0.15625,
        -0.1875,
        0
      ],
      "bufferView": 7,
      "byteOffset": 0
    },
    {
      "type": "VEC3",
      "componentType": 5126,
      "count": 14,
      "bufferView": 7,
      "byteOffset": 12
    },
    {
      "type": "VEC2",
      "componentType": 5126,
      "count": 14,
      "bufferView": 7,
      "byteOffset": 24
    },
    {
      "type": "VEC2",
      "componentType": 5126,
      "count": 24,
      "bufferView": 8,
      "byteOffset": 0
    },
    {
      "type": "VEC3",
      "componentType": 5126,
      "count": 24,
      "max": [
        0.109375,
        0.140625,
        0.046875
      ],
      "min": [
        -0.109375,
        -0.140625,
        -0.046875
      ],
      "bufferView": 8,
      "byteOffset": 8
    },
    {
      "type": "VEC3",
      "componentType": 5126,
      "count": 24,
      "bufferView": 8,
      "byteOffset": 20
    },
    {
      "type": "VEC2",
      "componentType": 5126,
      "count": 24,
      "bufferView": 9,
      "byteOffset": 0
    },
    {
      "type": "VEC3",
      "componentType": 5126,
      "count": 24,
      "max": [
        0.109375,
        0.140625,
        0.046875
      ],
      "min": [
        -0.109375,
        -0.140625,
        -0.046875
      ],
      "bufferView": 9,
      "byteOffset": 8
    },
    {
      "type": "VEC3",
      "componentType": 5126,
      "count": 24,
      "bufferView": 9,
      "byteOffset": 20
    },
    {
      "type": "VEC2",
      "componentType": 5126,
      "count": 24,
      "bufferView": 10,
      "byteOffset": 0
    },
    {
      "type": "VEC3",
      "componentType": 5126,
      "count": 24,
      "max": [
        0.109375,
        0.140625,
        0.046875
      ],
      "min": [
        -0.109375,
        -0.140625,
        -0.046875
      ],
      "bufferView": 10,
      "byteOffset": 8
    },
    {
      "type": "VEC3",
      "componentType": 5126,
      "count": 24,
      "bufferView": 10,
      "byteOffset": 20
    },
    {
      "type": "VEC3",
      "componentType": 5126,
      "count": 24,
      "max": [
        0.10000000149011612,
        0.171875,
        -0.03125
      ],
      "min": [
        -0.11874999850988388,
        -0.046875,
        -0.09375
      ],
      "bufferView": 11,
      "byteOffset": 0
    },
    {
      "type": "VEC2",
      "componentType": 5126,
      "count": 24,
      "bufferView": 11,
      "byteOffset": 12
    },
    {
      "type": "VEC3",
      "componentType": 5126,
      "count": 24,
      "bufferView": 11,
      "byteOffset": 20
    },
    {
      "type": "VEC3",
      "componentType": 5126,
      "count": 14,
      "max": [
        0.09375,
        0.75,
        0
      ],
      "min": [
        -0.15625,
        -0.1875,
        0
      ],
      "bufferView": 12,
      "byteOffset": 0
    },
    {
      "type": "VEC3",
      "componentType": 5126,
      "count": 14,
      "bufferView": 12,
      "byteOffset": 12
    },
    {
      "type": "VEC2",
      "componentType": 5126,
      "count": 14,
      "bufferView": 12,
      "byteOffset": 24
    },
    {
      "type": "VEC3",
      "componentType": 5126,
      "count": 24,
      "max": [
        0.0625,
        0.28125,
        0.25
      ],
      "min": [
        -0.375,
        0.15625,
        0.0625
      ],
      "bufferView": 13,
      "byteOffset": 0
    },
    {
      "type": "VEC2",
      "componentType": 5126,
      "count": 24,
      "bufferView": 13,
      "byteOffset": 12
    },
    {
      "type": "VEC3",
      "componentType": 5126,
      "count": 24,
      "bufferView": 13,
      "byteOffset": 20
    },
    {
      "type": "VEC3",
      "componentType": 5126,
      "count": 24,
      "max": [
        0.11874999850988388,
        0.171875,
        -0.078125
      ],
      "min": [
        -0.10000000149011612,
        -0.046875,
        -0.140625
      ],
      "bufferView": 14,
      "byteOffset": 0
    },
    {
      "type": "VEC2",
      "componentType": 5126,
      "count": 24,
      "bufferView": 14,
      "byteOffset": 12
    },
    {
      "type": "VEC3",
      "componentType": 5126,
      "count": 24,
      "bufferView": 14,
      "byteOffset": 20
    },
    {
      "type": "VEC3",
      "componentType": 5126,
      "count": 24,
      "max": [
        0.078125,
        0.046875,
        0
      ],
      "min": [
        -0.140625,
        -0.171875,
        -0.0625
      ],
      "bufferView": 15,
      "byteOffset": 0
    },
    {
      "type": "VEC3",
      "componentType": 5126,
      "count": 24,
      "bufferView": 15,
      "byteOffset": 12
    },
    {
      "type": "VEC2",
      "componentType": 5126,
      "count": 24,
      "bufferView": 15,
      "byteOffset": 24
    },
    {
      "type": "VEC3",
      "componentType": 5126,
      "count": 24,
      "max": [
        0.078125,
        0.046875,
        0.0625
      ],
      "min": [
        -0.140625,
        -0.171875,
        0
      ],
      "bufferView": 16,
      "byteOffset": 0
    },
    {
      "type": "VEC2",
      "componentType": 5126,
      "count": 24,
      "bufferView": 16,
      "byteOffset": 12
    },
    {
      "type": "VEC3",
      "componentType": 5126,
      "count": 24,
      "bufferView": 16,
      "byteOffset": 20
    }
  ],
  "bufferViews": [
    {
      "buffer": 0,
      "byteOffset": 0,
      "byteLength": 1128,
      "target": 34963
    },
    {
      "buffer": 0,
      "byteOffset": 1128,
      "byteLength": 768,
      "byteStride": 32,
      "target": 34962
    },
    {
      "buffer": 0,
      "byteOffset": 1896,
      "byteLength": 768,
      "byteStride": 32,
      "target": 34962
    },
    {
      "buffer": 0,
      "byteOffset": 2664,
      "byteLength": 768,
      "byteStride": 32,
      "target": 34962
    },
    {
      "buffer": 0,
      "byteOffset": 3432,
      "byteLength": 768,
      "byteStride": 32,
      "target": 34962
    },
    {
      "buffer": 0,
      "byteOffset": 4200,
      "byteLength": 768,
      "byteStride": 32,
      "target": 34962
    },
    {
      "buffer": 0,
      "byteOffset": 4968,
      "byteLength": 768,
      "byteStride": 32,
      "target": 34962
    },
    {
      "buffer": 0,
      "byteOffset": 5736,
      "byteLength": 448,
      "byteStride": 32,
      "target": 34962
    },
    {
      "buffer": 0,
      "byteOffset": 6184,
      "byteLength": 768,
      "byteStride": 32,
      "target": 34962
    },
    {
      "buffer": 0,
      "byteOffset": 6952,
      "byteLength": 768,
      "byteStride": 32,
      "target": 34962
    },
    {
      "buffer": 0,
      "byteOffset": 7720,
      "byteLength": 768,
      "byteStride": 32,
      "target": 34962
    },
    {
      "buffer": 0,
      "byteOffset": 8488,
      "byteLength": 768,
      "byteStride": 32,
      "target": 34962
    },
    {
      "buffer": 0,
      "byteOffset": 9256,
      "byteLength": 448,
      "byteStride": 32,
      "target": 34962
    },
    {
      "buffer": 0,
      "byteOffset": 9704,
      "byteLength": 768,
      "byteStride": 32,
      "target": 34962
    },
    {
      "buffer": 0,
      "byteOffset": 10472,
      "byteLength": 768,
      "byteStride": 32,
      "target": 34962
    },
    {
      "buffer": 0,
      "byteOffset": 11240,
      "byteLength": 768,
      "byteStride": 32,
      "target": 34962
    },
    {
      "buffer": 0,
      "byteOffset": 12008,
      "byteLength": 768,
      "byteStride": 32,
      "target": 34962
    }
  ],
  "samplers": [
    {
      "magFilter": 9728,
      "minFilter": 9728,
      "wrapS": 33071,
      "wrapT": 33071
    }
  ],
  "textures": [
    {
      "source": 0,
      "sampler": 0
    }
  ],
  "images": [
    {
      "mimeType": "image/png",
      "uri": "baseColor.png"
    }
  ],
  "buffers": [
    {
      "uri": "peony-stage3-named-nodes.bin",
      "byteLength": 12776
    }
  ],
  "materials": [
    {
      "alphaMode": "MASK",
      "alphaCutoff": 0.05,
      "doubleSided": true,
      "pbrMetallicRoughness": {
        "metallicFactor": 0,
        "baseColorTexture": {
          "index": 0
        }
      }
    }
  ],
  "meshes": [
    {
      "primitives": [
        {
          "attributes": {
            "POSITION": 16,
            "NORMAL": 17,
            "TEXCOORD_0": 18
          },
          "mode": 4,
          "material": 0,
          "indices": 0
        }
      ]
    },
    {
      "primitives": [
        {
          "attributes": {
            "POSITION": 19,
            "TEXCOORD_0": 20,
            "NORMAL": 21
          },
          "mode": 4,
          "material": 0,
          "indices": 1
        }
      ]
    },
    {
      "primitives": [
        {
          "attributes": {
            "POSITION": 22,
            "TEXCOORD_0": 23,
            "NORMAL": 24
          },
          "mode": 4,
          "material": 0,
          "indices": 2
        }
      ]
    },
    {
      "primitives": [
        {
          "attributes": {
            "POSITION": 25,
            "TEXCOORD_0": 26,
            "NORMAL": 27
          },
          "mode": 4,
          "material": 0,
          "indices": 3
        }
      ]
    },
    {
      "primitives": [
        {
          "attributes": {
            "POSITION": 28,
            "NORMAL": 29,
            "TEXCOORD_0": 30
          },
          "mode": 4,
          "material": 0,
          "indices": 4
        }
      ]
    },
    {
      "primitives": [
        {
          "attributes": {
            "POSITION": 31,
            "TEXCOORD_0": 32,
            "NORMAL": 33
          },
          "mode": 4,
          "material": 0,
          "indices": 5
        }
      ]
    },
    {
      "primitives": [
        {
          "attributes": {
            "POSITION": 34,
            "NORMAL": 35,
            "TEXCOORD_0": 36
          },
          "mode": 4,
          "material": 0,
          "indices": 6
        }
      ]
    },
    {
      "primitives": [
        {
          "attributes": {
            "TEXCOORD_0": 37,
            "POSITION": 38,
            "NORMAL": 39
          },
          "mode": 4,
          "material": 0,
          "indices": 7
        }
      ]
    },
    {
      "primitives": [
        {
          "attributes": {
            "TEXCOORD_0": 40,
            "POSITION": 41,
            "NORMAL": 42
          },
          "mode": 4,
          "material": 0,
          "indices": 8
        }
      ]
    },
    {
      "primitives": [
        {
          "attributes": {
            "TEXCOORD_0": 43,
            "POSITION": 44,
            "NORMAL": 45
          },
          "mode": 4,
          "material": 0,
          "indices": 9
        }
      ]
    },
    {
      "primitives": [
        {
          "attributes": {
            "POSITION": 46,
            "TEXCOORD_0": 47,
            "NORMAL": 48
          },
          "mode": 4,
          "material": 0,
          "indices": 10
        }
      ]
    },
    {
      "primitives": [
        {
          "attributes": {
            "POSITION": 49,
            "NORMAL": 50,
            "TEXCOORD_0": 51
          },
          "mode": 4,
          "material": 0,
          "indices": 11
        }
      ]
    },
    {
      "primitives": [
        {
          "attributes": {
            "POSITION": 52,
            "TEXCOORD_0": 53,
            "NORMAL": 54
          },
          "mode": 4,
          "material": 0,
          "indices": 12
        }
      ]
    },
    {
      "primitives": [
        {
          "attributes": {
            "POSITION": 55,
            "TEXCOORD_0": 56,
            "NORMAL": 57
          },
          "mode": 4,
          "material": 0,
          "indices": 13
        }
      ]
    },
    {
      "primitives": [
        {
          "attributes": {
            "POSITION": 58,
            "NORMAL": 59,
            "TEXCOORD_0": 60
          },
          "mode": 4,
          "material": 0,
          "indices": 14
        }
      ]
    },
    {
      "primitives": [
        {
          "attributes": {
            "POSITION": 61,
            "TEXCOORD_0": 62,
            "NORMAL": 63
          },
          "mode": 4,
          "material": 0,
          "indices": 15
        }
      ]
    }
  ],
  "nodes": [
    {
      "name": "cube",
      "translation": [
        -0.0625,
        0.5,
        -0.0625
      ],
      "mesh": 0
    },
    {
      "name": "cube",
      "translation": [
        -0.1703637882827579,
        0.2464725253213824,
        0.14826670137067827
      ],
      "rotation": [
        0.020121684449871904,
        -0.133751803212034,
        -0.06310788769817254,
        0.9887987497275186
      ],
      "mesh": 1
    },
    {
      "name": "cube",
      "translation": [
        0.1703637882827579,
        0.2464725253213824,
        0.14826670137067827
      ],
      "rotation": [
        0.03456322878461375,
        0.1307662428287719,
        0.17038022549855555,
        0.9760513058807363
      ],
      "mesh": 2
    },
    {
      "name": "cube",
      "translation": [
        -0.1349825693725586,
        1.0630511903189075,
        -0.09729035540918862
      ],
      "rotation": [
        -0.19996412934205793,
        0.3736123070089881,
        0.08282785436160812,
        0.9019798986505999
      ],
      "mesh": 3
    },
    {
      "name": "cube",
      "translation": [
        -0.20239575889393732,
        0.5856737674828253,
        -0.0374355275635721
      ],
      "rotation": [
        0.047840520591439104,
        -0.46140888297072097,
        -0.16196595415002618,
        0.8709650722052654
      ],
      "mesh": 4
    },
    {
      "name": "cube",
      "translation": [
        0.20239575889393732,
        0.5856737674828253,
        0.0374355275635721
      ],
      "rotation": [
        -0.047840520591439104,
        -0.46140888297072097,
        0.16196595415002618,
        0.8709650722052654
      ],
      "mesh": 5
    },
    {
      "name": "cube",
      "translation": [
        0.0625,
        0.1875,
        0.021875
      ],
      "rotation": [
        0,
        -0.3826834323650898,
        0,
        0.9238795325112867
      ],
      "mesh": 6
    },
    {
      "name": "cube",
      "translation": [
        0.08049279207030732,
        1.0711392854783612,
        -0.10909183884317618
      ],
      "rotation": [
        -0.19996412934205793,
        -0.3736123070089881,
        -0.08282785436160812,
        0.9019798986505999
      ],
      "mesh": 7
    },
    {
      "name": "cube",
      "translation": [
        -0.1349825693725586,
        1.0630511903189075,
        0.09729035540918862
      ],
      "rotation": [
        0.19996412934205793,
        -0.3736123070089881,
        0.08282785436160812,
        0.9019798986505999
      ],
      "mesh": 8
    },
    {
      "name": "cube",
      "translation": [
        0.08049279207030732,
        1.0711392854783612,
        0.10909183884317618
      ],
      "rotation": [
        0.19996412934205793,
        0.3736123070089881,
        -0.08282785436160812,
        0.9019798986505999
      ],
      "mesh": 9
    },
    {
      "name": "cube",
      "translation": [
        -0.22337091702087702,
        1.0943011903189075,
        0.008902007760870218
      ],
      "rotation": [
        0.09229595466876132,
        -0.701057377263138,
        0.09229595661375319,
        0.7010573920368178
      ],
      "mesh": 10
    },
    {
      "name": "cube",
      "translation": [
        0.0625,
        0.1875,
        -0.021875
      ],
      "rotation": [
        0,
        0.3826834323650898,
        0,
        0.9238795325112867
      ],
      "mesh": 11
    },
    {
      "name": "cube",
      "translation": [
        -0.20239575889393732,
        0.5856737674828253,
        0.0374355275635721
      ],
      "rotation": [
        -0.047840520591439104,
        0.46140888297072097,
        -0.16196595415002618,
        0.8709650722052654
      ],
      "mesh": 12
    },
    {
      "name": "cube",
      "translation": [
        0.204620917020877,
        1.0943011903189075,
        0.008902007760870218
      ],
      "rotation": [
        0.09229595466876132,
        0.701057377263138,
        -0.09229595661375319,
        0.7010573920368178
      ],
      "mesh": 13
    },
    {
      "name": "cube",
      "translation": [
        -0.0019343528582817515,
        1.2193763167091345,
        0.18702700249251408
      ],
      "rotation": [
        0.1305261922200516,
        -1.0446568847477544e-8,
        -1.3753169451304202e-9,
        0.9914448613738104
      ],
      "mesh": 14
    },
    {
      "name": "cube",
      "translation": [
        -0.0019343528582817515,
        1.2193763167091345,
        -0.18702700249251408
      ],
      "rotation": [
        -0.1305261922200516,
        1.0446568847477544e-8,
        -1.3753169451304202e-9,
        0.9914448613738104
      ],
      "mesh": 15
    }
  ],
  "scenes": [
    {
      "name": "blockbench_export",
      "nodes": [
        0,
        1,
        2,
        3,
        4,
        5,
        6,
        7,
        8,
        9,
        10,
        11,
        12,
        13,
        14,
        15
      ]
    }
  ],
  "scene": 0
}