{
  "asset": {
    "generator": "glTF-Transform v4.1.1",
    "version": "2.0"
  },
  "accessors": [
    {
      "type": "SCALAR",
      "componentType": 5123,
      "count": 36,
      "bufferView": 0,
      "byteOffset": 0
    },
    {
      "type": "SCALAR",
      "componentType": 5123,
      "count": 30,
      "bufferView": 0,
      "byteOffset": 72
    },
    {
      "type": "SCALAR",
      "componentType": 5123,
      "count": 30,
      "bufferView": 0,
      "byteOffset": 132
    },
    {
      "type": "VEC3",
      "componentType": 5126,
      "count": 24,
      "max": [
        0,
        1.625,
        0.125
      ],
      "min": [
        -0.5,
        1.5,
        0
      ],
      "bufferView": 1,
      "byteOffset": 0
    },
    {
      "type": "VEC3",
      "componentType": 5126,
      "count": 24,
      "bufferView": 1,
      "byteOffset": 12
    },
    {
      "type": "VEC2",
      "componentType": 5126,
      "count": 24,
      "bufferView": 1,
      "byteOffset": 24
    },
    {
      "type": "VEC3",
      "componentType": 5126,
      "count": 15,
      "max": [
        0.125,
        0.40625,
        0.015625
      ],
      "min": [
        -0.375,
        -0.03125,
        0.015625
      ],
      "bufferView": 2,
      "byteOffset": 0
    },
    {
      "type": "VEC3",
      "componentType": 5126,
      "count": 15,
      "bufferView": 2,
      "byteOffset": 12
    },
    {
      "type": "VEC2",
      "componentType": 5126,
      "count": 15,
      "bufferView": 2,
      "byteOffset": 24
    },
    {
      "type": "VEC3",
      "componentType": 5126,
      "count": 15,
      "max": [
        0.421875,
        0.15625,
        0.09375
      ],
      "min": [
        -0.078125,
        -0.28125,
        0.09375
      ],
      "bufferView": 3,
      "byteOffset": 0
    },
    {
      "type": "VEC3",
      "componentType": 5126,
      "count": 24,
      "max": [
        0.5,
        1.625,
        0.125
      ],
      "min": [
        0,
        1.5,
        0
      ],
      "bufferView": 4,
      "byteOffset": 0
    },
    {
      "type": "VEC2",
      "componentType": 5126,
      "count": 24,
      "bufferView": 4,
      "byteOffset": 12
    },
    {
      "type": "VEC3",
      "componentType": 5126,
      "count": 14,
      "max": [
        -0.07425109297037125,
        0.19608625769615173,
        -0.0051175011321902275
      ],
      "min": [
        -0.574251115322113,
        -0.24141374230384827,
        -0.0051175011321902275
      ],
      "bufferView": 5,
      "byteOffset": 0
    },
    {
      "type": "VEC2",
      "componentType": 5126,
      "count": 14,
      "bufferView": 5,
      "byteOffset": 12
    },
    {
      "type": "VEC3",
      "componentType": 5126,
      "count": 14,
      "bufferView": 5,
      "byteOffset": 20
    },
    {
      "type": "VEC3",
      "componentType": 5126,
      "count": 14,
      "max": [
        0.5170058012008667,
        0.04414951428771019,
        -0.0624593123793602
      ],
      "min": [
        0.01700582355260849,
        -0.3933504819869995,
        -0.0624593123793602
      ],
      "bufferView": 6,
      "byteOffset": 0
    },
    {
      "type": "VEC3",
      "componentType": 5126,
      "count": 24,
      "max": [
        0.1875,
        1.9375,
        0.1875
      ],
      "min": [
        -0.0625,
        1.1875,
        -0.0625
      ],
      "bufferView": 7,
      "byteOffset": 0
    },
    {
      "type": "VEC2",
      "componentType": 5126,
      "count": 24,
      "bufferView": 7,
      "byteOffset": 12
    },
    {
      "type": "VEC3",
      "componentType": 5126,
      "count": 14,
      "max": [
        0.12887391448020935,
        -0.17891374230384827,
        -0.0051175011321902275
      ],
      "min": [
        -0.37112608551979065,
        -0.6164137125015259,
        -0.0051175011321902275
      ],
      "bufferView": 8,
      "byteOffset": 0
    },
    {
      "type": "VEC3",
      "componentType": 5126,
      "count": 24,
      "max": [
        0.1875,
        2.1875,
        0.1875
      ],
      "min": [
        -0.0625,
        1.9375,
        -0.0625
      ],
      "bufferView": 9,
      "byteOffset": 0
    },
    {
      "type": "VEC2",
      "componentType": 5126,
      "count": 24,
      "bufferView": 9,
      "byteOffset": 12
    },
    {
      "type": "VEC3",
      "componentType": 5126,
      "count": 24,
      "max": [
        0.21875,
        1.25,
        0.21875
      ],
      "min": [
        -0.09375,
        0.5625,
        -0.09375
      ],
      "bufferView": 10,
      "byteOffset": 0
    },
    {
      "type": "VEC2",
      "componentType": 5126,
      "count": 24,
      "bufferView": 10,
      "byteOffset": 12
    },
    {
      "type": "VEC3",
      "componentType": 5126,
      "count": 24,
      "max": [
        0.25,
        0.625,
        0.25
      ],
      "min": [
        -0.125,
        0,
        -0.125
      ],
      "bufferView": 11,
      "byteOffset": 0
    },
    {
      "type": "VEC2",
      "componentType": 5126,
      "count": 24,
      "bufferView": 11,
      "byteOffset": 12
    }
  ],
  "bufferViews": [
    {
      "buffer": 0,
      "byteOffset": 0,
      "byteLength": 192,
      "target": 34963
    },
    {
      "buffer": 0,
      "byteOffset": 192,
      "byteLength": 768,
      "byteStride": 32,
      "target": 34962
    },
    {
      "buffer": 0,
      "byteOffset": 960,
      "byteLength": 480,
      "byteStride": 32,
      "target": 34962
    },
    {
      "buffer": 0,
      "byteOffset": 1440,
      "byteLength": 180,
      "byteStride": 12,
      "target": 34962
    },
    {
      "buffer": 0,
      "byteOffset": 1620,
      "byteLength": 480,
      "byteStride": 20,
      "target": 34962
    },
    {
      "buffer": 0,
      "byteOffset": 2100,
      "byteLength": 448,
      "byteStride": 32,
      "target": 34962
    },
    {
      "buffer": 0,
      "byteOffset": 2548,
      "byteLength": 168,
      "byteStride": 12,
      "target": 34962
    },
    {
      "buffer": 0,
      "byteOffset": 2716,
      "byteLength": 480,
      "byteStride": 20,
      "target": 34962
    },
    {
      "buffer": 0,
      "byteOffset": 3196,
      "byteLength": 168,
      "byteStride": 12,
      "target": 34962
    },
    {
      "buffer": 0,
      "byteOffset": 3364,
      "byteLength": 480,
      "byteStride": 20,
      "target": 34962
    },
    {
      "buffer": 0,
      "byteOffset": 3844,
      "byteLength": 480,
      "byteStride": 20,
      "target": 34962
    },
    {
      "buffer": 0,
      "byteOffset": 4324,
      "byteLength": 480,
      "byteStride": 20,
      "target": 34962
    }
  ],
  "samplers": [
    {
      "magFilter": 9728,
      "minFilter": 9728,
      "wrapS": 33071,
      "wrapT": 33071
    }
  ],
  "textures": [
    {
      "source": 0,
      "sampler": 0
    }
  ],
  "images": [
    {
      "mimeType": "image/png",
      "uri": "baseColor.png"
    }
  ],
  "buffers": [
    {
      "uri": "burnt-tree-small-named-nodes.bin",
      "byteLength": 4804
    }
  ],
  "materials": [
    {
      "alphaMode": "MASK",
      "alphaCutoff": 0.05,
      "doubleSided": true,
      "pbrMetallicRoughness": {
        "metallicFactor": 0,
        "baseColorTexture": {
          "index": 0
        }
      }
    }
  ],
  "meshes": [
    {
      "primitives": [
        {
          "attributes": {
            "POSITION": 3,
            "NORMAL": 4,
            "TEXCOORD_0": 5
          },
          "mode": 4,
          "material": 0,
          "indices": 0
        }
      ]
    },
    {
      "primitives": [
        {
          "attributes": {
            "POSITION": 6,
            "NORMAL": 7,
            "TEXCOORD_0": 8
          },
          "mode": 4,
          "material": 0,
          "indices": 1
        }
      ]
    },
    {
      "primitives": [
        {
          "attributes": {
            "POSITION": 9,
            "NORMAL": 7,
            "TEXCOORD_0": 8
          },
          "mode": 4,
          "material": 0,
          "indices": 1
        }
      ]
    },
    {
      "primitives": [
        {
          "attributes": {
            "POSITION": 10,
            "TEXCOORD_0": 11,
            "NORMAL": 4
          },
          "mode": 4,
          "material": 0,
          "indices": 0
        }
      ]
    },
    {
      "primitives": [
        {
          "attributes": {
            "POSITION": 12,
            "TEXCOORD_0": 13,
            "NORMAL": 14
          },
          "mode": 4,
          "material": 0,
          "indices": 2
        }
      ]
    },
    {
      "primitives": [
        {
          "attributes": {
            "POSITION": 15,
            "NORMAL": 14,
            "TEXCOORD_0": 13
          },
          "mode": 4,
          "material": 0,
          "indices": 2
        }
      ]
    },
    {
      "primitives": [
        {
          "attributes": {
            "POSITION": 16,
            "TEXCOORD_0": 17,
            "NORMAL": 4
          },
          "mode": 4,
          "material": 0,
          "indices": 0
        }
      ]
    },
    {
      "primitives": [
        {
          "attributes": {
            "POSITION": 18,
            "NORMAL": 14,
            "TEXCOORD_0": 13
          },
          "mode": 4,
          "material": 0,
          "indices": 2
        }
      ]
    },
    {
      "primitives": [
        {
          "attributes": {
            "POSITION": 19,
            "TEXCOORD_0": 20,
            "NORMAL": 4
          },
          "mode": 4,
          "material": 0,
          "indices": 0
        }
      ]
    },
    {
      "primitives": [
        {
          "attributes": {
            "POSITION": 21,
            "TEXCOORD_0": 22,
            "NORMAL": 4
          },
          "mode": 4,
          "material": 0,
          "indices": 0
        }
      ]
    },
    {
      "primitives": [
        {
          "attributes": {
            "POSITION": 23,
            "TEXCOORD_0": 24,
            "NORMAL": 4
          },
          "mode": 4,
          "material": 0,
          "indices": 0
        }
      ]
    }
  ],
  "nodes": [
    {
      "name": "cube",
      "translation": [
        -0.5737865478371055,
        0.0671365962799646,
        -0.0625
      ],
      "rotation": [
        0,
        0,
        -0.1521233861899167,
        0.9883615104677608
      ],
      "mesh": 0
    },
    {
      "name": "cube",
      "translation": [
        -0.7270677184837928,
        1.915442961807563,
        -0.19211640594707247
      ],
      "rotation": [
        0.9384855595673468,
        0.18590739864892003,
        0.024881907271052696,
        0.2899382422201498
      ],
      "mesh": 1
    },
    {
      "name": "cube",
      "translation": [
        -0.41447768026487564,
        1.7942500965577737,
        0.07165291308792071
      ],
      "rotation": [
        0.3156426709747398,
        -0.36253076695556896,
        0.4742128559285941,
        0.7376064767493473
      ],
      "mesh": 2
    },
    {
      "name": "cube",
      "translation": [
        0.4417383889496789,
        0.027603962256448566,
        0.019646908829822132
      ],
      "rotation": [
        0.014918709118470316,
        -0.3416946159346814,
        0.12265449964846485,
        0.9316534201490777
      ],
      "mesh": 3
    },
    {
      "name": "cube",
      "translation": [
        0.2968966425512287,
        1.5783471388086843,
        0.19819486553056287
      ],
      "rotation": [
        0.25333959528894845,
        0.8657982042845278,
        -0.12867121765226622,
        0.41189347732684717
      ],
      "mesh": 4
    },
    {
      "name": "cube",
      "translation": [
        0.2968966425512287,
        1.5783471388086843,
        0.19819486553056287
      ],
      "rotation": [
        0.8071655995521063,
        0.31545889395394705,
        0.20385658786984742,
        0.45542493641335047
      ],
      "mesh": 5
    },
    {
      "name": "cube",
      "translation": [
        -0.30670191424845994,
        0.013504848655121915,
        -0.0625
      ],
      "rotation": [
        0,
        0,
        -0.06540312923014309,
        0.9978589232386035
      ],
      "mesh": 6
    },
    {
      "name": "cube",
      "translation": [
        0.35997764789794207,
        1.4668898865490287,
        -0.0071285288323916784
      ],
      "rotation": [
        0.35128498183764423,
        0.8933103008144776,
        -0.27426525251751527,
        0.058087341612241015
      ],
      "mesh": 7
    },
    {
      "name": "cube",
      "translation": [
        -0.30670191424845994,
        0.013504848655121915,
        -0.0625
      ],
      "rotation": [
        0,
        0,
        -0.06540312923014309,
        0.9978589232386035
      ],
      "mesh": 8
    },
    {
      "name": "cube",
      "translation": [
        0.01961356630166909,
        -0.0028109253723845873,
        -0.0625
      ],
      "rotation": [
        0,
        0,
        0.06540312923014308,
        0.9978589232386035
      ],
      "mesh": 9
    },
    {
      "name": "cube",
      "translation": [
        -0.0625,
        0,
        -0.0625
      ],
      "mesh": 10
    }
  ],
  "scenes": [
    {
      "name": "blockbench_export",
      "nodes": [
        0,
        1,
        2,
        3,
        4,
        5,
        6,
        7,
        8,
        9,
        10
      ]
    }
  ],
  "scene": 0
}