{"asset":{"version":"2.0","generator":"Blockbench 4.12.5 glTF exporter"},"scenes":[{"nodes":[7],"name":"blockbench_export"}],"scene":0,"nodes":[{"rotation":[0,-0.3826834323650898,0,0.9238795325112867],"translation":[0,0.5,0],"name":"cube","mesh":0},{"rotation":[0,0.3826834323650898,0,0.9238795325112867],"translation":[0,0.5,0],"name":"cube","mesh":1},{"rotation":[-0.13052619222005157,0,0,0.9914448613738104],"translation":[0,0,-0.25],"name":"cube","mesh":2},{"rotation":[0.13052619222005157,0,0,0.9914448613738104],"translation":[0,0,0.25],"name":"cube","mesh":3},{"rotation":[0,0,-0.13052619222005157,0.9914448613738104],"translation":[0,0.482962913144534,0],"name":"cube","mesh":4},{"rotation":[0,0,0.13052619222005157,0.9914448613738104],"translation":[0,0.482962913144534,0],"name":"cube","mesh":5},{"name":"root","children":[0,1,2,3,4,5]},{"children":[6]}],"bufferViews":[{"buffer":0,"byteOffset":0,"byteLength":240,"target":34962,"byteStride":12},{"buffer":0,"byteOffset":240,"byteLength":240,"target":34962,"byteStride":12},{"buffer":0,"byteOffset":480,"byteLength":160,"target":34962,"byteStride":8},{"buffer":0,"byteOffset":640,"byteLength":60,"target":34963},{"buffer":0,"byteOffset":700,"byteLength":240,"target":34962,"byteStride":12},{"buffer":0,"byteOffset":940,"byteLength":240,"target":34962,"byteStride":12},{"buffer":0,"byteOffset":1180,"byteLength":160,"target":34962,"byteStride":8},{"buffer":0,"byteOffset":1340,"byteLength":60,"target":34963},{"buffer":0,"byteOffset":1400,"byteLength":240,"target":34962,"byteStride":12},{"buffer":0,"byteOffset":1640,"byteLength":240,"target":34962,"byteStride":12},{"buffer":0,"byteOffset":1880,"byteLength":160,"target":34962,"byteStride":8},{"buffer":0,"byteOffset":2040,"byteLength":60,"target":34963},{"buffer":0,"byteOffset":2100,"byteLength":240,"target":34962,"byteStride":12},{"buffer":0,"byteOffset":2340,"byteLength":240,"target":34962,"byteStride":12},{"buffer":0,"byteOffset":2580,"byteLength":160,"target":34962,"byteStride":8},{"buffer":0,"byteOffset":2740,"byteLength":60,"target":34963},{"buffer":0,"byteOffset":2800,"byteLength":240,"target":34962,"byteStride":12},{"buffer":0,"byteOffset":3040,"byteLength":240,"target":34962,"byteStride":12},{"buffer":0,"byteOffset":3280,"byteLength":160,"target":34962,"byteStride":8},{"buffer":0,"byteOffset":3440,"byteLength":60,"target":34963},{"buffer":0,"byteOffset":3500,"byteLength":240,"target":34962,"byteStride":12},{"buffer":0,"byteOffset":3740,"byteLength":240,"target":34962,"byteStride":12},{"buffer":0,"byteOffset":3980,"byteLength":160,"target":34962,"byteStride":8},{"buffer":0,"byteOffset":4140,"byteLength":60,"target":34963}],"buffers":[{"byteLength":4200,"uri":"data:application/octet-stream;base64,"}],"accessors":[{"bufferView":0,"componentType":5126,"count":20,"max":[0.5,0.5,0],"min":[-0.5,-0.5,0],"type":"VEC3"},{"bufferView":1,"componentType":5126,"count":20,"max":[1,0,0],"min":[0,0,-1],"type":"VEC3"},{"bufferView":2,"componentType":5126,"count":20,"max":[1,0.5],"min":[0,0],"type":"VEC2"},{"bufferView":3,"componentType":5123,"count":30,"max":[19],"min":[0],"type":"SCALAR"},{"bufferView":4,"componentType":5126,"count":20,"max":[0.5,0.5,0],"min":[-0.5,-0.5,0],"type":"VEC3"},{"bufferView":5,"componentType":5126,"count":20,"max":[1,0,1],"min":[0,0,0],"type":"VEC3"},{"bufferView":6,"componentType":5126,"count":20,"max":[1,0.5],"min":[0,0],"type":"VEC2"},{"bufferView":7,"componentType":5123,"count":30,"max":[19],"min":[0],"type":"SCALAR"},{"bufferView":8,"componentType":5126,"count":20,"max":[0.5,1,0],"min":[-0.5,0,0],"type":"VEC3"},{"bufferView":9,"componentType":5126,"count":20,"max":[1,0,1],"min":[0,0,0],"type":"VEC3"},{"bufferView":10,"componentType":5126,"count":20,"max":[1,0.5],"min":[0,0],"type":"VEC2"},{"bufferView":11,"componentType":5123,"count":30,"max":[19],"min":[0],"type":"SCALAR"},{"bufferView":12,"componentType":5126,"count":20,"max":[0.5,1,0],"min":[-0.5,0,0],"type":"VEC3"},{"bufferView":13,"componentType":5126,"count":20,"max":[1,0,0],"min":[0,0,-1],"type":"VEC3"},{"bufferView":14,"componentType":5126,"count":20,"max":[1,0.5],"min":[0,0],"type":"VEC2"},{"bufferView":15,"componentType":5123,"count":30,"max":[19],"min":[0],"type":"SCALAR"},{"bufferView":16,"componentType":5126,"count":20,"max":[0.3664814531803131,0.598198413848877,0.5],"min":[0.3664814531803131,-0.40180158615112305,-0.5],"type":"VEC3"},{"bufferView":17,"componentType":5126,"count":20,"max":[1,0,0],"min":[-1,0,0],"type":"VEC3"},{"bufferView":18,"componentType":5126,"count":20,"max":[1,0.5],"min":[0,0],"type":"VEC2"},{"bufferView":19,"componentType":5123,"count":30,"max":[19],"min":[0],"type":"SCALAR"},{"bufferView":20,"componentType":5126,"count":20,"max":[-0.3664814531803131,0.598198413848877,0.5],"min":[-0.3664814531803131,-0.40180158615112305,-0.5],"type":"VEC3"},{"bufferView":21,"componentType":5126,"count":20,"max":[1,0,0],"min":[1,0,0],"type":"VEC3"},{"bufferView":22,"componentType":5126,"count":20,"max":[1,0.5],"min":[0,0],"type":"VEC2"},{"bufferView":23,"componentType":5123,"count":30,"max":[19],"min":[0],"type":"SCALAR"}],"materials":[{"pbrMetallicRoughness":{"metallicFactor":0,"roughnessFactor":1,"baseColorTexture":{"index":0}},"alphaMode":"MASK","alphaCutoff":0.05,"doubleSided":true}],"textures":[{"sampler":0,"source":0,"name":"burned_bush"}],"samplers":[{"magFilter":9728,"minFilter":9728,"wrapS":33071,"wrapT":33071}],"images":[{"mimeType":"image/png","uri":"data:image/png;base64,"}],"meshes":[{"primitives":[{"mode":4,"attributes":{"POSITION":0,"NORMAL":1,"TEXCOORD_0":2},"indices":3,"material":0}]},{"primitives":[{"mode":4,"attributes":{"POSITION":4,"NORMAL":5,"TEXCOORD_0":6},"indices":7,"material":0}]},{"primitives":[{"mode":4,"attributes":{"POSITION":8,"NORMAL":9,"TEXCOORD_0":10},"indices":11,"material":0}]},{"primitives":[{"mode":4,"attributes":{"POSITION":12,"NORMAL":13,"TEXCOORD_0":14},"indices":15,"material":0}]},{"primitives":[{"mode":4,"attributes":{"POSITION":16,"NORMAL":17,"TEXCOORD_0":18},"indices":19,"material":0}]},{"primitives":[{"mode":4,"attributes":{"POSITION":20,"NORMAL":21,"TEXCOORD_0":22},"indices":23,"material":0}]}]}