{"asset":{"version":"2.0","generator":"Blockbench 4.12.5 glTF exporter"},"scenes":[{"nodes":[16],"name":"blockbench_export"}],"scene":0,"nodes":[{"translation":[0.03125,-1.5625000000000002,-0.06250000000000001],"name":"cube","mesh":0},{"rotation":[0.899282142205932,0.32650931854750226,0.06869870664621787,0.2827786790341386],"translation":[-0.6707332940510914,0.1541685740112564,-0.19211640594707247],"name":"cube","mesh":1},{"rotation":[0.367118474919981,-0.3102948244845347,0.5809009294875407,0.6568829860721391],"translation":[-0.33616747852752227,0.1325825214724774,0.0716529130879207],"name":"cube","mesh":2},{"rotation":[0,0,-0.08715574274765817,0.9961946980917455],"translation":[-0.09375000000000008,0.3124999999999998,0],"name":"bone3","children":[0,1,2]},{"translation":[-0.03125,-1.5625000000000002,-0.06250000000000001],"name":"cube","mesh":3},{"rotation":[0.2921075646796167,0.9143727919524234,-0.26987893564879056,0.07590077790872456],"translation":[0.31502121124710525,-0.03452972790460418,-0.007128528832391692],"name":"cube","mesh":4},{"rotation":[0.8535533905932737,0.3535533905932738,-0.14644660940672627,0.35355339059327384],"translation":[0.31502121124710525,-0.03452972790460418,-0.007128528832391692],"name":"cube","mesh":5},{"rotation":[0.0372346641402868,-0.3399872912725871,0.1833249359853017,0.9216366905703539],"translation":[0.09374999999999992,0.3124999999999998,0],"name":"bone4","children":[4,5,6]},{"translation":[-0.06250000000000008,-1.2500000000000004,-0.06250000000000001],"name":"cube","mesh":6},{"rotation":[0.2921075646796167,0.9143727919524234,-0.26987893564879056,0.07590077790872456],"translation":[0.40877121124710514,0.2779702720953956,-0.007128528832391692],"name":"cube","mesh":7},{"translation":[-0.06250000000000008,-1.2500000000000004,-0.06250000000000001],"name":"cube","mesh":8},{"rotation":[0,0,-0.13052619222005157,0.9914448613738104],"translation":[8.326672684688674e-17,0.6250000000000004,1.3877787807814457e-17],"name":"bone2","children":[3,7,8,9,10]},{"translation":[-0.0625,-0.625,-0.0625],"name":"cube","mesh":9},{"rotation":[0,0,0.06540312923014306,0.9978589232386035],"translation":[0,0.625,0],"name":"bone","children":[11,12]},{"translation":[-0.0625,0,-0.0625],"name":"cube","mesh":10},{"name":"root","children":[13,14]},{"children":[15]}],"bufferViews":[{"buffer":0,"byteOffset":0,"byteLength":288,"target":34962,"byteStride":12},{"buffer":0,"byteOffset":288,"byteLength":288,"target":34962,"byteStride":12},{"buffer":0,"byteOffset":576,"byteLength":192,"target":34962,"byteStride":8},{"buffer":0,"byteOffset":768,"byteLength":72,"target":34963},{"buffer":0,"byteOffset":840,"byteLength":240,"target":34962,"byteStride":12},{"buffer":0,"byteOffset":1080,"byteLength":240,"target":34962,"byteStride":12},{"buffer":0,"byteOffset":1320,"byteLength":160,"target":34962,"byteStride":8},{"buffer":0,"byteOffset":1480,"byteLength":60,"target":34963},{"buffer":0,"byteOffset":1540,"byteLength":240,"target":34962,"byteStride":12},{"buffer":0,"byteOffset":1780,"byteLength":240,"target":34962,"byteStride":12},{"buffer":0,"byteOffset":2020,"byteLength":160,"target":34962,"byteStride":8},{"buffer":0,"byteOffset":2180,"byteLength":60,"target":34963},{"buffer":0,"byteOffset":2240,"byteLength":288,"target":34962,"byteStride":12},{"buffer":0,"byteOffset":2528,"byteLength":288,"target":34962,"byteStride":12},{"buffer":0,"byteOffset":2816,"byteLength":192,"target":34962,"byteStride":8},{"buffer":0,"byteOffset":3008,"byteLength":72,"target":34963},{"buffer":0,"byteOffset":3080,"byteLength":240,"target":34962,"byteStride":12},{"buffer":0,"byteOffset":3320,"byteLength":240,"target":34962,"byteStride":12},{"buffer":0,"byteOffset":3560,"byteLength":160,"target":34962,"byteStride":8},{"buffer":0,"byteOffset":3720,"byteLength":60,"target":34963},{"buffer":0,"byteOffset":3780,"byteLength":240,"target":34962,"byteStride":12},{"buffer":0,"byteOffset":4020,"byteLength":240,"target":34962,"byteStride":12},{"buffer":0,"byteOffset":4260,"byteLength":160,"target":34962,"byteStride":8},{"buffer":0,"byteOffset":4420,"byteLength":60,"target":34963},{"buffer":0,"byteOffset":4480,"byteLength":288,"target":34962,"byteStride":12},{"buffer":0,"byteOffset":4768,"byteLength":288,"target":34962,"byteStride":12},{"buffer":0,"byteOffset":5056,"byteLength":192,"target":34962,"byteStride":8},{"buffer":0,"byteOffset":5248,"byteLength":72,"target":34963},{"buffer":0,"byteOffset":5320,"byteLength":240,"target":34962,"byteStride":12},{"buffer":0,"byteOffset":5560,"byteLength":240,"target":34962,"byteStride":12},{"buffer":0,"byteOffset":5800,"byteLength":160,"target":34962,"byteStride":8},{"buffer":0,"byteOffset":5960,"byteLength":60,"target":34963},{"buffer":0,"byteOffset":6020,"byteLength":288,"target":34962,"byteStride":12},{"buffer":0,"byteOffset":6308,"byteLength":288,"target":34962,"byteStride":12},{"buffer":0,"byteOffset":6596,"byteLength":192,"target":34962,"byteStride":8},{"buffer":0,"byteOffset":6788,"byteLength":72,"target":34963},{"buffer":0,"byteOffset":6860,"byteLength":288,"target":34962,"byteStride":12},{"buffer":0,"byteOffset":7148,"byteLength":288,"target":34962,"byteStride":12},{"buffer":0,"byteOffset":7436,"byteLength":192,"target":34962,"byteStride":8},{"buffer":0,"byteOffset":7628,"byteLength":72,"target":34963},{"buffer":0,"byteOffset":7700,"byteLength":288,"target":34962,"byteStride":12},{"buffer":0,"byteOffset":7988,"byteLength":288,"target":34962,"byteStride":12},{"buffer":0,"byteOffset":8276,"byteLength":192,"target":34962,"byteStride":8},{"buffer":0,"byteOffset":8468,"byteLength":72,"target":34963}],"buffers":[{"byteLength":8540,"uri":"data:application/octet-stream;base64,"}],"accessors":[{"bufferView":0,"componentType":5126,"count":24,"max":[0,1.625,0.125],"min":[-0.5,1.5,0],"type":"VEC3"},{"bufferView":1,"componentType":5126,"count":24,"max":[1,1,1],"min":[-1,-1,-1],"type":"VEC3"},{"bufferView":2,"componentType":5126,"count":24,"max":[0.702880859375,0.062255859375],"min":[0.390869140625,0.000244140625],"type":"VEC2"},{"bufferView":3,"componentType":5123,"count":36,"max":[23],"min":[0],"type":"SCALAR"},{"bufferView":4,"componentType":5126,"count":20,"max":[0.125,0.40625,0.015625],"min":[-0.375,-0.03125,0.015625],"type":"VEC3"},{"bufferView":5,"componentType":5126,"count":20,"max":[1,0,0],"min":[0,0,-1],"type":"VEC3"},{"bufferView":6,"componentType":5126,"count":20,"max":[0.125,0.640625],"min":[0,0],"type":"VEC2"},{"bufferView":7,"componentType":5123,"count":30,"max":[19],"min":[0],"type":"SCALAR"},{"bufferView":8,"componentType":5126,"count":20,"max":[0.421875,0.15625,0.09375],"min":[-0.078125,-0.28125,0.09375],"type":"VEC3"},{"bufferView":9,"componentType":5126,"count":20,"max":[1,0,0],"min":[0,0,-1],"type":"VEC3"},{"bufferView":10,"componentType":5126,"count":20,"max":[0.125,0.640625],"min":[0,0],"type":"VEC2"},{"bufferView":11,"componentType":5123,"count":30,"max":[19],"min":[0],"type":"SCALAR"},{"bufferView":12,"componentType":5126,"count":24,"max":[0.5,1.625,0.125],"min":[0,1.5,0],"type":"VEC3"},{"bufferView":13,"componentType":5126,"count":24,"max":[1,1,1],"min":[-1,-1,-1],"type":"VEC3"},{"bufferView":14,"componentType":5126,"count":24,"max":[0.702880859375,0.062255859375],"min":[0.390869140625,0.000244140625],"type":"VEC2"},{"bufferView":15,"componentType":5123,"count":36,"max":[23],"min":[0],"type":"SCALAR"},{"bufferView":16,"componentType":5126,"count":20,"max":[-0.07425109297037125,0.19608625769615173,-0.0051175011321902275],"min":[-0.574251115322113,-0.24141374230384827,-0.0051175011321902275],"type":"VEC3"},{"bufferView":17,"componentType":5126,"count":20,"max":[1,0,0],"min":[0,0,-1],"type":"VEC3"},{"bufferView":18,"componentType":5126,"count":20,"max":[0.125,0.640625],"min":[0,0],"type":"VEC2"},{"bufferView":19,"componentType":5123,"count":30,"max":[19],"min":[0],"type":"SCALAR"},{"bufferView":20,"componentType":5126,"count":20,"max":[0.5170058012008667,0.04414951428771019,-0.0624593123793602],"min":[0.01700582355260849,-0.3933504819869995,-0.0624593123793602],"type":"VEC3"},{"bufferView":21,"componentType":5126,"count":20,"max":[1,0,0],"min":[0,0,-1],"type":"VEC3"},{"bufferView":22,"componentType":5126,"count":20,"max":[0.125,0.640625],"min":[0,0],"type":"VEC2"},{"bufferView":23,"componentType":5123,"count":30,"max":[19],"min":[0],"type":"SCALAR"},{"bufferView":24,"componentType":5126,"count":24,"max":[0.1875,1.9375,0.1875],"min":[-0.0625,1.1875,-0.0625],"type":"VEC3"},{"bufferView":25,"componentType":5126,"count":24,"max":[1,1,1],"min":[-1,-1,-1],"type":"VEC3"},{"bufferView":26,"componentType":5126,"count":24,"max":[0.577880859375,0.515380859375],"min":[0.328369140625,0.265869140625],"type":"VEC2"},{"bufferView":27,"componentType":5123,"count":36,"max":[23],"min":[0],"type":"SCALAR"},{"bufferView":28,"componentType":5126,"count":20,"max":[0.12887391448020935,-0.17891374230384827,-0.0051175011321902275],"min":[-0.37112608551979065,-0.6164137125015259,-0.0051175011321902275],"type":"VEC3"},{"bufferView":29,"componentType":5126,"count":20,"max":[1,0,0],"min":[0,0,-1],"type":"VEC3"},{"bufferView":30,"componentType":5126,"count":20,"max":[0.125,0.640625],"min":[0,0],"type":"VEC2"},{"bufferView":31,"componentType":5123,"count":30,"max":[19],"min":[0],"type":"SCALAR"},{"bufferView":32,"componentType":5126,"count":24,"max":[0.1875,2.1875,0.1875],"min":[-0.0625,1.9375,-0.0625],"type":"VEC3"},{"bufferView":33,"componentType":5126,"count":24,"max":[1,1,1],"min":[-1,-1,-1],"type":"VEC3"},{"bufferView":34,"componentType":5126,"count":24,"max":[0.640380859375,0.202880859375],"min":[0.390869140625,0.078369140625],"type":"VEC2"},{"bufferView":35,"componentType":5123,"count":36,"max":[23],"min":[0],"type":"SCALAR"},{"bufferView":36,"componentType":5126,"count":24,"max":[0.21875,1.25,0.21875],"min":[-0.09375,0.5625,-0.09375],"type":"VEC3"},{"bufferView":37,"componentType":5126,"count":24,"max":[1,1,1],"min":[-1,-1,-1],"type":"VEC3"},{"bufferView":38,"componentType":5126,"count":24,"max":[0.312255859375,0.515380859375],"min":[0.000244140625,0.265869140625],"type":"VEC2"},{"bufferView":39,"componentType":5123,"count":36,"max":[23],"min":[0],"type":"SCALAR"},{"bufferView":40,"componentType":5126,"count":24,"max":[0.25,0.625,0.25],"min":[-0.125,0,-0.125],"type":"VEC3"},{"bufferView":41,"componentType":5126,"count":24,"max":[1,1,1],"min":[-1,-1,-1],"type":"VEC3"},{"bufferView":42,"componentType":5126,"count":24,"max":[0.374755859375,0.249755859375],"min":[0.000244140625,0.000244140625],"type":"VEC2"},{"bufferView":43,"componentType":5123,"count":36,"max":[23],"min":[0],"type":"SCALAR"}],"materials":[{"pbrMetallicRoughness":{"metallicFactor":0,"roughnessFactor":1,"baseColorTexture":{"index":0}},"alphaMode":"MASK","alphaCutoff":0.05,"doubleSided":true}],"textures":[{"sampler":0,"source":0,"name":"burnt_tree_small"}],"samplers":[{"magFilter":9728,"minFilter":9728,"wrapS":33071,"wrapT":33071}],"images":[{"mimeType":"image/png","uri":"data:image/png;base64,"}],"meshes":[{"primitives":[{"mode":4,"attributes":{"POSITION":0,"NORMAL":1,"TEXCOORD_0":2},"indices":3,"material":0}]},{"primitives":[{"mode":4,"attributes":{"POSITION":4,"NORMAL":5,"TEXCOORD_0":6},"indices":7,"material":0}]},{"primitives":[{"mode":4,"attributes":{"POSITION":8,"NORMAL":9,"TEXCOORD_0":10},"indices":11,"material":0}]},{"primitives":[{"mode":4,"attributes":{"POSITION":12,"NORMAL":13,"TEXCOORD_0":14},"indices":15,"material":0}]},{"primitives":[{"mode":4,"attributes":{"POSITION":16,"NORMAL":17,"TEXCOORD_0":18},"indices":19,"material":0}]},{"primitives":[{"mode":4,"attributes":{"POSITION":20,"NORMAL":21,"TEXCOORD_0":22},"indices":23,"material":0}]},{"primitives":[{"mode":4,"attributes":{"POSITION":24,"NORMAL":25,"TEXCOORD_0":26},"indices":27,"material":0}]},{"primitives":[{"mode":4,"attributes":{"POSITION":28,"NORMAL":29,"TEXCOORD_0":30},"indices":31,"material":0}]},{"primitives":[{"mode":4,"attributes":{"POSITION":32,"NORMAL":33,"TEXCOORD_0":34},"indices":35,"material":0}]},{"primitives":[{"mode":4,"attributes":{"POSITION":36,"NORMAL":37,"TEXCOORD_0":38},"indices":39,"material":0}]},{"primitives":[{"mode":4,"attributes":{"POSITION":40,"NORMAL":41,"TEXCOORD_0":42},"indices":43,"material":0}]}]}