{"asset":{"version":"2.0","generator":"Blockbench 4.12.5 glTF exporter"},"scenes":[{"nodes":[9],"name":"blockbench_export"}],"scene":0,"nodes":[{"translation":[-0.0625,0,-0.0625],"name":"cube","mesh":0},{"rotation":[0,0,-0.06540312923014306,0.9978589232386035],"translation":[0,0.46875,0.125],"name":"cube","mesh":1},{"rotation":[-0.3000619653049375,0.016927575454062392,0.06317457164351664,0.9516749695480299],"translation":[-0.017947351430257073,0.48007366843889887,-0.125],"name":"cube","mesh":2},{"rotation":[0,0,-0.06540312923014306,0.9978589232386035],"translation":[-0.43627376789249067,-0.4509227743871126,0.4375],"name":"pyramid","mesh":3},{"rotation":[-0.3000619653049374,0.016927575454062416,0.06317457164351672,0.9516749695480299],"translation":[-0.017947351430257073,0.48007366843889887,-0.125],"name":"pyramid","mesh":4},{"rotation":[0,0,0.06540312923014306,0.9978589232386035],"translation":[0.15578100449402527,-0.23569310709867297,0.125],"name":"pyramid","mesh":5},{"rotation":[0,0,0.06540312923014306,0.9978589232386035],"translation":[0,0.46875,0.125],"name":"cube","mesh":6},{"translation":[-0.0625,0,-0.0625],"name":"cube","mesh":7},{"translation":[0.0625,0,-0.0625],"name":"root","children":[0,1,2,3,4,5,6,7]},{"children":[8]}],"bufferViews":[{"buffer":0,"byteOffset":0,"byteLength":288,"target":34962,"byteStride":12},{"buffer":0,"byteOffset":288,"byteLength":288,"target":34962,"byteStride":12},{"buffer":0,"byteOffset":576,"byteLength":192,"target":34962,"byteStride":8},{"buffer":0,"byteOffset":768,"byteLength":72,"target":34963},{"buffer":0,"byteOffset":840,"byteLength":288,"target":34962,"byteStride":12},{"buffer":0,"byteOffset":1128,"byteLength":288,"target":34962,"byteStride":12},{"buffer":0,"byteOffset":1416,"byteLength":192,"target":34962,"byteStride":8},{"buffer":0,"byteOffset":1608,"byteLength":72,"target":34963},{"buffer":0,"byteOffset":1680,"byteLength":288,"target":34962,"byteStride":12},{"buffer":0,"byteOffset":1968,"byteLength":288,"target":34962,"byteStride":12},{"buffer":0,"byteOffset":2256,"byteLength":192,"target":34962,"byteStride":8},{"buffer":0,"byteOffset":2448,"byteLength":72,"target":34963},{"buffer":0,"byteOffset":2520,"byteLength":192,"target":34962,"byteStride":12},{"buffer":0,"byteOffset":2712,"byteLength":192,"target":34962,"byteStride":12},{"buffer":0,"byteOffset":2904,"byteLength":128,"target":34962,"byteStride":8},{"buffer":0,"byteOffset":3032,"byteLength":36,"target":34963},{"buffer":0,"byteOffset":3068,"byteLength":192,"target":34962,"byteStride":12},{"buffer":0,"byteOffset":3260,"byteLength":192,"target":34962,"byteStride":12},{"buffer":0,"byteOffset":3452,"byteLength":128,"target":34962,"byteStride":8},{"buffer":0,"byteOffset":3580,"byteLength":36,"target":34963},{"buffer":0,"byteOffset":3616,"byteLength":192,"target":34962,"byteStride":12},{"buffer":0,"byteOffset":3808,"byteLength":192,"target":34962,"byteStride":12},{"buffer":0,"byteOffset":4000,"byteLength":128,"target":34962,"byteStride":8},{"buffer":0,"byteOffset":4128,"byteLength":36,"target":34963},{"buffer":0,"byteOffset":4164,"byteLength":288,"target":34962,"byteStride":12},{"buffer":0,"byteOffset":4452,"byteLength":288,"target":34962,"byteStride":12},{"buffer":0,"byteOffset":4740,"byteLength":192,"target":34962,"byteStride":8},{"buffer":0,"byteOffset":4932,"byteLength":72,"target":34963},{"buffer":0,"byteOffset":5004,"byteLength":288,"target":34962,"byteStride":12},{"buffer":0,"byteOffset":5292,"byteLength":288,"target":34962,"byteStride":12},{"buffer":0,"byteOffset":5580,"byteLength":192,"target":34962,"byteStride":8},{"buffer":0,"byteOffset":5772,"byteLength":72,"target":34963}],"buffers":[{"byteLength":5844,"uri":"data:application/octet-stream;base64,"}],"accessors":[{"bufferView":0,"componentType":5126,"count":24,"max":[0.25,0.25,0.4375],"min":[-0.3125,0,-0.0625],"type":"VEC3"},{"bufferView":1,"componentType":5126,"count":24,"max":[1,1,1],"min":[-1,-1,-1],"type":"VEC3"},{"bufferView":2,"componentType":5126,"count":24,"max":[0.531005859375,0.187255859375],"min":[0.000244140625,0.000244140625],"type":"VEC2"},{"bufferView":3,"componentType":5123,"count":36,"max":[23],"min":[0],"type":"SCALAR"},{"bufferView":4,"componentType":5126,"count":24,"max":[0.1875,0.46875,0.1875],"min":[-0.1875,-0.34375,-0.1875],"type":"VEC3"},{"bufferView":5,"componentType":5126,"count":24,"max":[1,1,1],"min":[-1,-1,-1],"type":"VEC3"},{"bufferView":6,"componentType":5126,"count":24,"max":[0.374755859375,0.687255859375],"min":[0.000244140625,0.390869140625],"type":"VEC2"},{"bufferView":7,"componentType":5123,"count":36,"max":[23],"min":[0],"type":"SCALAR"},{"bufferView":8,"componentType":5126,"count":24,"max":[0.125,0.14374999701976776,0.125],"min":[-0.125,-0.48124998807907104,-0.125],"type":"VEC3"},{"bufferView":9,"componentType":5126,"count":24,"max":[1,1,1],"min":[-1,-1,-1],"type":"VEC3"},{"bufferView":10,"componentType":5126,"count":24,"max":[0.640380859375,0.609130859375],"min":[0.390869140625,0.390869140625],"type":"VEC2"},{"bufferView":11,"componentType":5123,"count":36,"max":[23],"min":[0],"type":"SCALAR"},{"bufferView":12,"componentType":5126,"count":16,"max":[0.5,1.6875,-0.125],"min":[0.125,1.4375,-0.5],"type":"VEC3"},{"bufferView":13,"componentType":5126,"count":16,"max":[0.800000011920929,0.6000000238418579,0.800000011920929],"min":[-0.800000011920929,-1,-0.800000011920929],"type":"VEC3"},{"bufferView":14,"componentType":5126,"count":16,"max":[0.7183129191398621,0.7028821706771851],"min":[0.39106208086013794,0.23472857475280762],"type":"VEC2"},{"bufferView":15,"componentType":5123,"count":18,"max":[15],"min":[0],"type":"SCALAR"},{"bufferView":16,"componentType":5126,"count":16,"max":[0.125,0.26875001192092896,0.125],"min":[-0.125,0.14374999701976776,-0.125],"type":"VEC3"},{"bufferView":17,"componentType":5126,"count":16,"max":[0.7071067690849304,0.7071067690849304,0.7071067690849304],"min":[-0.7071067690849304,-1,-0.7071067690849304],"type":"VEC3"},{"bufferView":18,"componentType":5126,"count":16,"max":[0.7183964252471924,0.7471071481704712],"min":[0.00045226491056382656,0.3441035747528076],"type":"VEC2"},{"bufferView":19,"componentType":5123,"count":18,"max":[15],"min":[0],"type":"SCALAR"},{"bufferView":20,"componentType":5126,"count":16,"max":[-0.1875,1.125,0.125],"min":[-0.4375,1,-0.125],"type":"VEC3"},{"bufferView":21,"componentType":5126,"count":16,"max":[0.7071067690849304,0.7071067690849304,0.7071067690849304],"min":[-0.7071067690849304,-1,-0.7071067690849304],"type":"VEC3"},{"bufferView":22,"componentType":5126,"count":16,"max":[0.7651727199554443,0.7471071481704712],"min":[0.15670226514339447,0.4222285747528076],"type":"VEC2"},{"bufferView":23,"componentType":5123,"count":18,"max":[15],"min":[0],"type":"SCALAR"},{"bufferView":24,"componentType":5126,"count":24,"max":[-0.125,0.28125,0.125],"min":[-0.375,-0.34375,-0.125],"type":"VEC3"},{"bufferView":25,"componentType":5126,"count":24,"max":[1,1,1],"min":[-1,-1,-1],"type":"VEC3"},{"bufferView":26,"componentType":5126,"count":24,"max":[0.796630859375,0.218505859375],"min":[0.547119140625,0.000244140625],"type":"VEC2"},{"bufferView":27,"componentType":5123,"count":36,"max":[23],"min":[0],"type":"SCALAR"},{"bufferView":28,"componentType":5126,"count":24,"max":[0.3125,0.1875,0.3125],"min":[-0.1875,0,-0.1875],"type":"VEC3"},{"bufferView":29,"componentType":5126,"count":24,"max":[1,1,1],"min":[-1,-1,-1],"type":"VEC3"},{"bufferView":30,"componentType":5126,"count":24,"max":[0.499755859375,0.374755859375],"min":[0.000244140625,0.203369140625],"type":"VEC2"},{"bufferView":31,"componentType":5123,"count":36,"max":[23],"min":[0],"type":"SCALAR"}],"materials":[{"pbrMetallicRoughness":{"metallicFactor":0,"roughnessFactor":1,"baseColorTexture":{"index":0}},"alphaMode":"MASK","alphaCutoff":0.05,"doubleSided":true}],"textures":[{"sampler":0,"source":0,"name":"lava-crystals"}],"samplers":[{"magFilter":9728,"minFilter":9728,"wrapS":33071,"wrapT":33071}],"images":[{"mimeType":"image/png","uri":"data:image/png;base64,"}],"meshes":[{"primitives":[{"mode":4,"attributes":{"POSITION":0,"NORMAL":1,"TEXCOORD_0":2},"indices":3,"material":0}]},{"primitives":[{"mode":4,"attributes":{"POSITION":4,"NORMAL":5,"TEXCOORD_0":6},"indices":7,"material":0}]},{"primitives":[{"mode":4,"attributes":{"POSITION":8,"NORMAL":9,"TEXCOORD_0":10},"indices":11,"material":0}]},{"primitives":[{"mode":4,"attributes":{"POSITION":12,"NORMAL":13,"TEXCOORD_0":14},"indices":15,"material":0}]},{"primitives":[{"mode":4,"attributes":{"POSITION":16,"NORMAL":17,"TEXCOORD_0":18},"indices":19,"material":0}]},{"primitives":[{"mode":4,"attributes":{"POSITION":20,"NORMAL":21,"TEXCOORD_0":22},"indices":23,"material":0}]},{"primitives":[{"mode":4,"attributes":{"POSITION":24,"NORMAL":25,"TEXCOORD_0":26},"indices":27,"material":0}]},{"primitives":[{"mode":4,"attributes":{"POSITION":28,"NORMAL":29,"TEXCOORD_0":30},"indices":31,"material":0}]}]}