{
  "asset": {
    "generator": "glTF-Transform v4.1.1",
    "version": "2.0"
  },
  "accessors": [
    {
      "type": "SCALAR",
      "componentType": 5123,
      "count": 36,
      "bufferView": 0,
      "byteOffset": 0
    },
    {
      "type": "SCALAR",
      "componentType": 5123,
      "count": 30,
      "bufferView": 0,
      "byteOffset": 72
    },
    {
      "type": "SCALAR",
      "componentType": 5123,
      "count": 30,
      "bufferView": 0,
      "byteOffset": 132
    },
    {
      "type": "SCALAR",
      "componentType": 5123,
      "count": 30,
      "bufferView": 0,
      "byteOffset": 192
    },
    {
      "type": "SCALAR",
      "componentType": 5123,
      "count": 30,
      "bufferView": 0,
      "byteOffset": 252
    },
    {
      "type": "VEC3",
      "componentType": 5126,
      "count": 24,
      "max": [
        0.21875,
        0.65625,
        0.28125
      ],
      "min": [
        -0.09375,
        0.34375,
        -0.15625
      ],
      "bufferView": 1,
      "byteOffset": 0
    },
    {
      "type": "VEC3",
      "componentType": 5126,
      "count": 24,
      "bufferView": 1,
      "byteOffset": 12
    },
    {
      "type": "VEC2",
      "componentType": 5126,
      "count": 24,
      "bufferView": 1,
      "byteOffset": 24
    },
    {
      "type": "VEC3",
      "componentType": 5126,
      "count": 14,
      "max": [
        -0.03125,
        0.65625,
        -0.15625
      ],
      "min": [
        -0.03125,
        0.59375,
        -0.28125
      ],
      "bufferView": 2,
      "byteOffset": 0
    },
    {
      "type": "VEC3",
      "componentType": 5126,
      "count": 14,
      "bufferView": 2,
      "byteOffset": 12
    },
    {
      "type": "VEC2",
      "componentType": 5126,
      "count": 14,
      "bufferView": 2,
      "byteOffset": 24
    },
    {
      "type": "VEC3",
      "componentType": 5126,
      "count": 14,
      "max": [
        0.03125,
        0.65625,
        -0.15625
      ],
      "min": [
        0.03125,
        0.59375,
        -0.28125
      ],
      "bufferView": 3,
      "byteOffset": 0
    },
    {
      "type": "VEC3",
      "componentType": 5126,
      "count": 14,
      "bufferView": 3,
      "byteOffset": 12
    },
    {
      "type": "VEC2",
      "componentType": 5126,
      "count": 14,
      "bufferView": 3,
      "byteOffset": 24
    },
    {
      "type": "VEC3",
      "componentType": 5126,
      "count": 14,
      "max": [
        0.0625,
        0.53125,
        0.40625
      ],
      "min": [
        0.0625,
        0.46875,
        0.28125
      ],
      "bufferView": 4,
      "byteOffset": 0
    },
    {
      "type": "VEC3",
      "componentType": 5126,
      "count": 14,
      "bufferView": 4,
      "byteOffset": 12
    },
    {
      "type": "VEC2",
      "componentType": 5126,
      "count": 14,
      "bufferView": 4,
      "byteOffset": 24
    },
    {
      "type": "VEC3",
      "componentType": 5126,
      "count": 15,
      "max": [
        0.15625,
        0,
        0.15625
      ],
      "min": [
        -0.21875,
        0,
        -0.21875
      ],
      "bufferView": 5,
      "byteOffset": 0
    },
    {
      "type": "VEC3",
      "componentType": 5126,
      "count": 15,
      "bufferView": 5,
      "byteOffset": 12
    },
    {
      "type": "VEC2",
      "componentType": 5126,
      "count": 15,
      "bufferView": 5,
      "byteOffset": 24
    },
    {
      "type": "VEC3",
      "componentType": 5126,
      "count": 15,
      "max": [
        0.21875,
        0,
        0.15625
      ],
      "min": [
        -0.15625,
        0,
        -0.21875
      ],
      "bufferView": 6,
      "byteOffset": 0
    },
    {
      "type": "VEC2",
      "componentType": 5126,
      "count": 15,
      "bufferView": 6,
      "byteOffset": 12
    },
    {
      "type": "SCALAR",
      "componentType": 5126,
      "count": 25,
      "max": [
        5.983333110809326
      ],
      "min": [
        0
      ],
      "bufferView": 7,
      "byteOffset": 0
    },
    {
      "type": "VEC4",
      "componentType": 5126,
      "count": 25,
      "bufferView": 7,
      "byteOffset": 100
    },
    {
      "type": "SCALAR",
      "componentType": 5126,
      "count": 193,
      "max": [
        5.983333110809326
      ],
      "min": [
        0
      ],
      "bufferView": 7,
      "byteOffset": 500
    },
    {
      "type": "VEC4",
      "componentType": 5126,
      "count": 193,
      "bufferView": 7,
      "byteOffset": 1272
    },
    {
      "type": "VEC4",
      "componentType": 5126,
      "count": 193,
      "bufferView": 7,
      "byteOffset": 4360
    },
    {
      "type": "SCALAR",
      "componentType": 5126,
      "count": 36,
      "max": [
        0.833329975605011
      ],
      "min": [
        0
      ],
      "bufferView": 7,
      "byteOffset": 7448
    },
    {
      "type": "VEC4",
      "componentType": 5126,
      "count": 36,
      "bufferView": 7,
      "byteOffset": 7592
    },
    {
      "type": "SCALAR",
      "componentType": 5126,
      "count": 10,
      "max": [
        0.541670024394989
      ],
      "min": [
        0
      ],
      "bufferView": 7,
      "byteOffset": 8168
    },
    {
      "type": "VEC3",
      "componentType": 5126,
      "count": 10,
      "bufferView": 7,
      "byteOffset": 8208
    },
    {
      "type": "SCALAR",
      "componentType": 5126,
      "count": 133,
      "max": [
        4.316666603088379
      ],
      "min": [
        0
      ],
      "bufferView": 7,
      "byteOffset": 8328
    },
    {
      "type": "VEC4",
      "componentType": 5126,
      "count": 133,
      "bufferView": 7,
      "byteOffset": 8860
    },
    {
      "type": "VEC4",
      "componentType": 5126,
      "count": 133,
      "bufferView": 7,
      "byteOffset": 10988
    }
  ],
  "bufferViews": [
    {
      "buffer": 0,
      "byteOffset": 0,
      "byteLength": 312,
      "target": 34963
    },
    {
      "buffer": 0,
      "byteOffset": 312,
      "byteLength": 768,
      "byteStride": 32,
      "target": 34962
    },
    {
      "buffer": 0,
      "byteOffset": 1080,
      "byteLength": 448,
      "byteStride": 32,
      "target": 34962
    },
    {
      "buffer": 0,
      "byteOffset": 1528,
      "byteLength": 448,
      "byteStride": 32,
      "target": 34962
    },
    {
      "buffer": 0,
      "byteOffset": 1976,
      "byteLength": 448,
      "byteStride": 32,
      "target": 34962
    },
    {
      "buffer": 0,
      "byteOffset": 2424,
      "byteLength": 480,
      "byteStride": 32,
      "target": 34962
    },
    {
      "buffer": 0,
      "byteOffset": 2904,
      "byteLength": 300,
      "byteStride": 20,
      "target": 34962
    },
    {
      "buffer": 0,
      "byteOffset": 3204,
      "byteLength": 13116
    }
  ],
  "samplers": [
    {
      "magFilter": 9728,
      "minFilter": 9728,
      "wrapS": 33071,
      "wrapT": 33071
    }
  ],
  "textures": [
    {
      "source": 0,
      "sampler": 0
    }
  ],
  "images": [
    {
      "mimeType": "image/png",
      "uri": "baseColor.png"
    }
  ],
  "buffers": [
    {
      "uri": "bee-adult-named-nodes.bin",
      "byteLength": 16320
    }
  ],
  "materials": [
    {
      "alphaMode": "MASK",
      "alphaCutoff": 0.05,
      "doubleSided": true,
      "pbrMetallicRoughness": {
        "metallicFactor": 0,
        "baseColorTexture": {
          "index": 0
        }
      }
    }
  ],
  "meshes": [
    {
      "primitives": [
        {
          "attributes": {
            "POSITION": 5,
            "NORMAL": 6,
            "TEXCOORD_0": 7
          },
          "mode": 4,
          "material": 0,
          "indices": 0
        }
      ]
    },
    {
      "primitives": [
        {
          "attributes": {
            "POSITION": 8,
            "NORMAL": 9,
            "TEXCOORD_0": 10
          },
          "mode": 4,
          "material": 0,
          "indices": 1
        }
      ]
    },
    {
      "primitives": [
        {
          "attributes": {
            "POSITION": 11,
            "NORMAL": 12,
            "TEXCOORD_0": 13
          },
          "mode": 4,
          "material": 0,
          "indices": 1
        }
      ]
    },
    {
      "primitives": [
        {
          "attributes": {
            "POSITION": 14,
            "NORMAL": 15,
            "TEXCOORD_0": 16
          },
          "mode": 4,
          "material": 0,
          "indices": 2
        }
      ]
    },
    {
      "primitives": [
        {
          "attributes": {
            "POSITION": 17,
            "NORMAL": 18,
            "TEXCOORD_0": 19
          },
          "mode": 4,
          "material": 0,
          "indices": 3
        }
      ]
    },
    {
      "primitives": [
        {
          "attributes": {
            "POSITION": 20,
            "TEXCOORD_0": 21,
            "NORMAL": 18
          },
          "mode": 4,
          "material": 0,
          "indices": 4
        }
      ]
    }
  ],
  "nodes": [
    {
      "name": "cube",
      "translation": [
        -0.0625,
        -0.5625,
        0.0078125
      ],
      "mesh": 0
    },
    {
      "name": "cube",
      "translation": [
        -0.0625,
        -0.5625,
        0.0078125
      ],
      "mesh": 1
    },
    {
      "name": "cube",
      "translation": [
        0.0625,
        -0.5625,
        0.0078125
      ],
      "mesh": 2
    },
    {
      "name": "cube",
      "translation": [
        -0.0625,
        -0.5625,
        0.0078125
      ],
      "mesh": 3
    },
    {
      "name": "cube",
      "translation": [
        -0.09375000000000003,
        0,
        0
      ],
      "mesh": 4
    },
    {
      "name": "left_wing",
      "translation": [
        -0.190275,
        0.025596249999999987,
        -0.05585062499999999
      ],
      "rotation": [
        0.026416002665204982,
        0.5108919427714479,
        -0.17162720808835447,
        0.8419238202225925
      ],
      "children": [
        4
      ]
    },
    {
      "name": "cube",
      "translation": [
        0.09375000000000003,
        0,
        0
      ],
      "mesh": 5
    },
    {
      "name": "right_wing",
      "translation": [
        0.190275,
        0.025596249999999987,
        -0.05585062499999999
      ],
      "rotation": [
        0.026416002665204982,
        -0.5108919427714479,
        0.17162720808835447,
        0.8419238202225925
      ],
      "children": [
        6
      ]
    },
    {
      "name": "bee",
      "translation": [
        0,
        0.5625,
        -0.0703125
      ],
      "children": [
        0,
        1,
        2,
        3,
        5,
        7
      ]
    },
    {
      "name": "root",
      "translation": [
        0,
        -0.3125,
        0
      ],
      "children": [
        8
      ]
    },
    {
      "children": [
        9
      ]
    }
  ],
  "animations": [
    {
      "name": "fly",
      "samplers": [
        {
          "input": 22,
          "output": 23,
          "interpolation": "LINEAR"
        },
        {
          "input": 24,
          "output": 25,
          "interpolation": "LINEAR"
        },
        {
          "input": 24,
          "output": 26,
          "interpolation": "LINEAR"
        }
      ],
      "channels": [
        {
          "sampler": 0,
          "target": {
            "node": 9,
            "path": "rotation"
          }
        },
        {
          "sampler": 1,
          "target": {
            "node": 5,
            "path": "rotation"
          }
        },
        {
          "sampler": 2,
          "target": {
            "node": 7,
            "path": "rotation"
          }
        }
      ]
    },
    {
      "name": "attack",
      "samplers": [
        {
          "input": 27,
          "output": 28,
          "interpolation": "LINEAR"
        },
        {
          "input": 29,
          "output": 30,
          "interpolation": "LINEAR"
        }
      ],
      "channels": [
        {
          "sampler": 0,
          "target": {
            "node": 8,
            "path": "rotation"
          }
        },
        {
          "sampler": 1,
          "target": {
            "node": 8,
            "path": "translation"
          }
        }
      ]
    },
    {
      "name": "idle",
      "samplers": [
        {
          "input": 31,
          "output": 32,
          "interpolation": "LINEAR"
        },
        {
          "input": 31,
          "output": 33,
          "interpolation": "LINEAR"
        }
      ],
      "channels": [
        {
          "sampler": 0,
          "target": {
            "node": 5,
            "path": "rotation"
          }
        },
        {
          "sampler": 1,
          "target": {
            "node": 7,
            "path": "rotation"
          }
        }
      ]
    }
  ],
  "scenes": [
    {
      "name": "blockbench_export",
      "nodes": [
        10
      ]
    }
  ],
  "scene": 0
}