{"asset":{"version":"2.0","generator":"Blockbench 4.12.5 glTF exporter"},"scenes":[{"nodes":[9],"name":"blockbench_export"}],"scene":0,"nodes":[{"translation":[0,-0.009375000000000022,0],"name":"cube_selection","mesh":0},{"translation":[0,-0.3125,0.015625],"name":"cape-2","children":[0]},{"translation":[0,-0.3125,0.03125],"name":"shinyarmor-cape","mesh":1},{"translation":[0,-0.1875,0],"name":"shinyarmor-cape","mesh":2},{"translation":[0,-0.1875,0],"name":"shinyarmor-cape","mesh":3},{"translation":[0,1,0.171875],"name":"cape","children":[1,2,3,4]},{"translation":[0,0.75,0.125],"name":"back-anchor","mesh":4},{"name":"back-cosmetic","children":[5,6]},{"name":"cosmetics","children":[7]},{"children":[8]}],"bufferViews":[{"buffer":0,"byteOffset":0,"byteLength":144,"target":34962,"byteStride":12},{"buffer":0,"byteOffset":144,"byteLength":144,"target":34962,"byteStride":12},{"buffer":0,"byteOffset":288,"byteLength":96,"target":34962,"byteStride":8},{"buffer":0,"byteOffset":384,"byteLength":36,"target":34963},{"buffer":0,"byteOffset":420,"byteLength":360,"target":34962,"byteStride":12},{"buffer":0,"byteOffset":780,"byteLength":360,"target":34962,"byteStride":12},{"buffer":0,"byteOffset":1140,"byteLength":240,"target":34962,"byteStride":8},{"buffer":0,"byteOffset":1380,"byteLength":84,"target":34963},{"buffer":0,"byteOffset":1464,"byteLength":288,"target":34962,"byteStride":12},{"buffer":0,"byteOffset":1752,"byteLength":288,"target":34962,"byteStride":12},{"buffer":0,"byteOffset":2040,"byteLength":192,"target":34962,"byteStride":8},{"buffer":0,"byteOffset":2232,"byteLength":72,"target":34963},{"buffer":0,"byteOffset":2304,"byteLength":288,"target":34962,"byteStride":12},{"buffer":0,"byteOffset":2592,"byteLength":288,"target":34962,"byteStride":12},{"buffer":0,"byteOffset":2880,"byteLength":192,"target":34962,"byteStride":8},{"buffer":0,"byteOffset":3072,"byteLength":72,"target":34963},{"buffer":0,"byteOffset":3144,"byteLength":288,"target":34962,"byteStride":12},{"buffer":0,"byteOffset":3432,"byteLength":288,"target":34962,"byteStride":12},{"buffer":0,"byteOffset":3720,"byteLength":192,"target":34962,"byteStride":8},{"buffer":0,"byteOffset":3912,"byteLength":72,"target":34963}],"buffers":[{"byteLength":3984,"uri":"data:application/octet-stream;base64,"}],"accessors":[{"bufferView":0,"componentType":5126,"count":12,"max":[0.21875,0.00937500037252903,0],"min":[-0.21875,-0.3031249940395355,0],"type":"VEC3"},{"bufferView":1,"componentType":5126,"count":12,"max":[0,0,1],"min":[0,0,-1],"type":"VEC3"},{"bufferView":2,"componentType":5126,"count":12,"max":[0.43707719445228577,0.46784377098083496],"min":[0.1462562531232834,0.31340622901916504],"type":"VEC2"},{"bufferView":3,"componentType":5123,"count":18,"max":[11],"min":[0],"type":"SCALAR"},{"bufferView":4,"componentType":5126,"count":30,"max":[0.21875,0.3125,-0.015625],"min":[-0.21875,0,-0.015625],"type":"VEC3"},{"bufferView":5,"componentType":5126,"count":30,"max":[1,0,1],"min":[0,0,0],"type":"VEC3"},{"bufferView":6,"componentType":5126,"count":30,"max":[0.6865809559822083,0.6240049600601196],"min":[0.00009937499999068677,0.0003940463066101074],"type":"VEC2"},{"bufferView":7,"componentType":5123,"count":42,"max":[29],"min":[0],"type":"SCALAR"},{"bufferView":8,"componentType":5126,"count":24,"max":[0.21875,0.18437500298023224,0.03125],"min":[0.09375,0.05937499925494194,-0.03125],"type":"VEC3"},{"bufferView":9,"componentType":5126,"count":24,"max":[1,1,1],"min":[-1,-1,-1],"type":"VEC3"},{"bufferView":10,"componentType":5126,"count":24,"max":[0.6209999918937683,0.4959999918937683],"min":[0.004000000189989805,0.0040000081062316895],"type":"VEC2"},{"bufferView":11,"componentType":5123,"count":36,"max":[23],"min":[0],"type":"SCALAR"},{"bufferView":12,"componentType":5126,"count":24,"max":[-0.09375,0.18437500298023224,0.03125],"min":[-0.21875,0.05937499925494194,-0.03125],"type":"VEC3"},{"bufferView":13,"componentType":5126,"count":24,"max":[1,1,1],"min":[-1,-1,-1],"type":"VEC3"},{"bufferView":14,"componentType":5126,"count":24,"max":[0.6209999918937683,0.4959999918937683],"min":[0.004000000189989805,0.0040000081062316895],"type":"VEC2"},{"bufferView":15,"componentType":5123,"count":36,"max":[23],"min":[0],"type":"SCALAR"},{"bufferView":16,"componentType":5126,"count":24,"max":[0.03125,0.0625,0.03125],"min":[-0.03125,0,-0.03125],"type":"VEC3"},{"bufferView":17,"componentType":5126,"count":24,"max":[1,1,1],"min":[-1,-1,-1],"type":"VEC3"},{"bufferView":18,"componentType":5126,"count":24,"max":[0.999875009059906,0.999875009059906],"min":[0.968874990940094,0.984499990940094],"type":"VEC2"},{"bufferView":19,"componentType":5123,"count":36,"max":[23],"min":[0],"type":"SCALAR"}],"materials":[{"pbrMetallicRoughness":{"metallicFactor":0,"roughnessFactor":1,"baseColorTexture":{"index":0}},"alphaMode":"MASK","alphaCutoff":0.05,"doubleSided":true},{"pbrMetallicRoughness":{"metallicFactor":0,"roughnessFactor":1,"baseColorTexture":{"index":1}},"alphaMode":"MASK","alphaCutoff":0.05,"doubleSided":true},{"pbrMetallicRoughness":{"metallicFactor":0,"roughnessFactor":1,"baseColorTexture":{"index":2}},"alphaMode":"MASK","alphaCutoff":0.05,"doubleSided":true}],"textures":[{"sampler":0,"source":0,"name":"cape"},{"sampler":1,"source":1,"name":"cape_2"},{"sampler":2,"source":2,"name":"player-texture-template.png"}],"samplers":[{"magFilter":9728,"minFilter":9728,"wrapS":33071,"wrapT":33071},{"magFilter":9728,"minFilter":9728,"wrapS":33071,"wrapT":33071},{"magFilter":9728,"minFilter":9728,"wrapS":33071,"wrapT":33071}],"images":[{"mimeType":"image/png","uri":"data:image/png;base64,"},{"mimeType":"image/png","uri":"data:image/png;base64,"},{"mimeType":"image/png","uri":"data:image/png;base64,"}],"meshes":[{"primitives":[{"mode":4,"attributes":{"POSITION":0,"NORMAL":1,"TEXCOORD_0":2},"indices":3,"material":0}]},{"primitives":[{"mode":4,"attributes":{"POSITION":4,"NORMAL":5,"TEXCOORD_0":6},"indices":7,"material":0}]},{"primitives":[{"mode":4,"attributes":{"POSITION":8,"NORMAL":9,"TEXCOORD_0":10},"indices":11,"material":1}]},{"primitives":[{"mode":4,"attributes":{"POSITION":12,"NORMAL":13,"TEXCOORD_0":14},"indices":15,"material":1}]},{"primitives":[{"mode":4,"attributes":{"POSITION":16,"NORMAL":17,"TEXCOORD_0":18},"indices":19,"material":2}]}]}