{
  "asset": {
    "generator": "glTF-Transform v4.1.1",
    "version": "2.0"
  },
  "accessors": [
    {
      "type": "SCALAR",
      "componentType": 5123,
      "count": 1356,
      "bufferView": 0,
      "byteOffset": 0
    },
    {
      "type": "VEC3",
      "componentType": 5126,
      "count": 794,
      "max": [
        1.7843610048294067,
        2.1921539306640625,
        1.6095694303512573
      ],
      "min": [
        -1.5423481464385986,
        -2.6677255630493164,
        -1.7653825283050537
      ],
      "bufferView": 1,
      "byteOffset": 0
    },
    {
      "type": "VEC3",
      "componentType": 5126,
      "count": 794,
      "bufferView": 1,
      "byteOffset": 12
    },
    {
      "type": "VEC2",
      "componentType": 5126,
      "count": 794,
      "bufferView": 1,
      "byteOffset": 24
    }
  ],
  "bufferViews": [
    {
      "buffer": 0,
      "byteOffset": 0,
      "byteLength": 2712,
      "target": 34963
    },
    {
      "buffer": 0,
      "byteOffset": 2712,
      "byteLength": 25408,
      "byteStride": 32,
      "target": 34962
    }
  ],
  "samplers": [
    {
      "magFilter": 9728,
      "minFilter": 9728,
      "wrapS": 33071,
      "wrapT": 33071
    }
  ],
  "textures": [
    {
      "source": 0,
      "sampler": 0
    }
  ],
  "images": [
    {
      "mimeType": "image/png",
      "uri": "baseColor.png"
    }
  ],
  "buffers": [
    {
      "uri": "burnt-tree-medium.bin",
      "byteLength": 28120
    }
  ],
  "materials": [
    {
      "alphaMode": "MASK",
      "alphaCutoff": 0.05,
      "doubleSided": true,
      "pbrMetallicRoughness": {
        "metallicFactor": 0,
        "baseColorTexture": {
          "index": 0
        }
      }
    }
  ],
  "meshes": [
    {
      "primitives": [
        {
          "attributes": {
            "POSITION": 1,
            "NORMAL": 2,
            "TEXCOORD_0": 3
          },
          "mode": 4,
          "material": 0,
          "indices": 0
        }
      ]
    }
  ],
  "nodes": [
    {
      "name": "cube",
      "translation": [
        -0.10740700264794822,
        2.7414494933343097,
        0.20043143114587142
      ],
      "rotation": [
        -0.021613792319287665,
        0.15773126203237992,
        -0.1549544212584914,
        0.9750091385682995
      ],
      "mesh": 0
    }
  ],
  "scenes": [
    {
      "name": "blockbench_export",
      "nodes": [
        0
      ]
    }
  ],
  "scene": 0
}