{
  "asset": {
    "generator": "glTF-Transform v4.2.1",
    "version": "2.0"
  },
  "accessors": [
    {
      "type": "SCALAR",
      "componentType": 5123,
      "count": 36,
      "bufferView": 0,
      "byteOffset": 0
    },
    {
      "type": "SCALAR",
      "componentType": 5123,
      "count": 36,
      "bufferView": 0,
      "byteOffset": 72
    },
    {
      "type": "SCALAR",
      "componentType": 5123,
      "count": 36,
      "bufferView": 0,
      "byteOffset": 144
    },
    {
      "type": "SCALAR",
      "componentType": 5123,
      "count": 30,
      "bufferView": 0,
      "byteOffset": 216
    },
    {
      "type": "SCALAR",
      "componentType": 5123,
      "count": 30,
      "bufferView": 0,
      "byteOffset": 276
    },
    {
      "type": "SCALAR",
      "componentType": 5123,
      "count": 36,
      "bufferView": 0,
      "byteOffset": 336
    },
    {
      "type": "VEC3",
      "componentType": 5126,
      "count": 24,
      "max": [
        0.4375,
        0.625,
        0.4375
      ],
      "min": [
        -0.3125,
        0,
        -0.3125
      ],
      "bufferView": 1,
      "byteOffset": 0
    },
    {
      "type": "VEC3",
      "componentType": 5126,
      "count": 24,
      "bufferView": 1,
      "byteOffset": 12
    },
    {
      "type": "VEC2",
      "componentType": 5126,
      "count": 24,
      "bufferView": 1,
      "byteOffset": 24
    },
    {
      "type": "VEC3",
      "componentType": 5126,
      "count": 24,
      "max": [
        0.25,
        0.5,
        0.4375
      ],
      "min": [
        -0.25,
        0,
        -0.0625
      ],
      "bufferView": 2,
      "byteOffset": 0
    },
    {
      "type": "VEC2",
      "componentType": 5126,
      "count": 24,
      "bufferView": 2,
      "byteOffset": 12
    },
    {
      "type": "VEC3",
      "componentType": 5126,
      "count": 24,
      "bufferView": 2,
      "byteOffset": 20
    },
    {
      "type": "VEC3",
      "componentType": 5126,
      "count": 24,
      "max": [
        0.375,
        0.4375,
        0.375
      ],
      "min": [
        -0.25,
        0,
        -0.25
      ],
      "bufferView": 3,
      "byteOffset": 0
    },
    {
      "type": "VEC2",
      "componentType": 5126,
      "count": 24,
      "bufferView": 3,
      "byteOffset": 12
    },
    {
      "type": "VEC3",
      "componentType": 5126,
      "count": 24,
      "bufferView": 3,
      "byteOffset": 20
    },
    {
      "type": "VEC3",
      "componentType": 5126,
      "count": 14,
      "max": [
        0.3125,
        0.625,
        0.0625
      ],
      "min": [
        -0.375,
        0,
        0.0625
      ],
      "bufferView": 4,
      "byteOffset": 0
    },
    {
      "type": "VEC3",
      "componentType": 5126,
      "count": 14,
      "bufferView": 4,
      "byteOffset": 12
    },
    {
      "type": "VEC2",
      "componentType": 5126,
      "count": 14,
      "bufferView": 4,
      "byteOffset": 24
    },
    {
      "type": "VEC3",
      "componentType": 5126,
      "count": 14,
      "max": [
        0.34375,
        0.3125,
        3.469446951953614e-17
      ],
      "min": [
        -0.34375,
        -0.3125,
        3.469446951953614e-17
      ],
      "bufferView": 5,
      "byteOffset": 0
    },
    {
      "type": "VEC2",
      "componentType": 5126,
      "count": 14,
      "bufferView": 5,
      "byteOffset": 12
    },
    {
      "type": "VEC3",
      "componentType": 5126,
      "count": 14,
      "bufferView": 5,
      "byteOffset": 20
    },
    {
      "type": "VEC3",
      "componentType": 5126,
      "count": 24,
      "max": [
        0.0625,
        0.3125,
        -0.0625
      ],
      "min": [
        -0.0625,
        0.1875,
        -0.3125
      ],
      "bufferView": 6,
      "byteOffset": 0
    },
    {
      "type": "VEC2",
      "componentType": 5126,
      "count": 24,
      "bufferView": 6,
      "byteOffset": 12
    },
    {
      "type": "VEC3",
      "componentType": 5126,
      "count": 24,
      "bufferView": 6,
      "byteOffset": 20
    }
  ],
  "bufferViews": [
    {
      "buffer": 0,
      "byteOffset": 0,
      "byteLength": 408,
      "target": 34963
    },
    {
      "buffer": 0,
      "byteOffset": 408,
      "byteLength": 768,
      "byteStride": 32,
      "target": 34962
    },
    {
      "buffer": 0,
      "byteOffset": 1176,
      "byteLength": 768,
      "byteStride": 32,
      "target": 34962
    },
    {
      "buffer": 0,
      "byteOffset": 1944,
      "byteLength": 768,
      "byteStride": 32,
      "target": 34962
    },
    {
      "buffer": 0,
      "byteOffset": 2712,
      "byteLength": 448,
      "byteStride": 32,
      "target": 34962
    },
    {
      "buffer": 0,
      "byteOffset": 3160,
      "byteLength": 448,
      "byteStride": 32,
      "target": 34962
    },
    {
      "buffer": 0,
      "byteOffset": 3608,
      "byteLength": 768,
      "byteStride": 32,
      "target": 34962
    }
  ],
  "samplers": [
    {
      "magFilter": 9728,
      "minFilter": 9728,
      "wrapS": 33071,
      "wrapT": 33071
    }
  ],
  "textures": [
    {
      "source": 0,
      "sampler": 0
    }
  ],
  "images": [
    {
      "mimeType": "image/png",
      "uri": "baseColor.png"
    }
  ],
  "buffers": [
    {
      "uri": "snowman-named-nodes.bin",
      "byteLength": 4376
    }
  ],
  "materials": [
    {
      "alphaMode": "MASK",
      "alphaCutoff": 0.05,
      "doubleSided": true,
      "pbrMetallicRoughness": {
        "metallicFactor": 0,
        "baseColorTexture": {
          "index": 0
        }
      }
    }
  ],
  "meshes": [
    {
      "primitives": [
        {
          "attributes": {
            "POSITION": 6,
            "NORMAL": 7,
            "TEXCOORD_0": 8
          },
          "mode": 4,
          "material": 0,
          "indices": 0
        }
      ]
    },
    {
      "primitives": [
        {
          "attributes": {
            "POSITION": 9,
            "TEXCOORD_0": 10,
            "NORMAL": 11
          },
          "mode": 4,
          "material": 0,
          "indices": 1
        }
      ]
    },
    {
      "primitives": [
        {
          "attributes": {
            "POSITION": 12,
            "TEXCOORD_0": 13,
            "NORMAL": 14
          },
          "mode": 4,
          "material": 0,
          "indices": 2
        }
      ]
    },
    {
      "primitives": [
        {
          "attributes": {
            "POSITION": 15,
            "NORMAL": 16,
            "TEXCOORD_0": 17
          },
          "mode": 4,
          "material": 0,
          "indices": 3
        }
      ]
    },
    {
      "primitives": [
        {
          "attributes": {
            "POSITION": 18,
            "TEXCOORD_0": 19,
            "NORMAL": 20
          },
          "mode": 4,
          "material": 0,
          "indices": 4
        }
      ]
    },
    {
      "primitives": [
        {
          "attributes": {
            "POSITION": 21,
            "TEXCOORD_0": 22,
            "NORMAL": 23
          },
          "mode": 4,
          "material": 0,
          "indices": 5
        }
      ]
    }
  ],
  "nodes": [
    {
      "name": "cube",
      "translation": [
        -0.0625,
        0,
        -0.0625
      ],
      "mesh": 0
    },
    {
      "name": "cube",
      "translation": [
        0,
        1.03125,
        -0.1875
      ],
      "rotation": [
        0,
        0,
        -0.043619387365336,
        0.9990482215818578
      ],
      "mesh": 1
    },
    {
      "name": "cube",
      "translation": [
        -0.0625,
        0.625,
        -0.0625
      ],
      "mesh": 2
    },
    {
      "name": "cube",
      "translation": [
        0.5625,
        0.625,
        -0.0625
      ],
      "mesh": 3
    },
    {
      "name": "cube",
      "translation": [
        -0.5729367061317363,
        0.8487579386826372,
        -3.469446951953614e-17
      ],
      "rotation": [
        0,
        0,
        0.25881904510252074,
        0.9659258262890683
      ],
      "mesh": 4
    },
    {
      "name": "cube",
      "translation": [
        0,
        1.03125,
        -0.1875
      ],
      "rotation": [
        0,
        0,
        -0.043619387365336,
        0.9990482215818578
      ],
      "mesh": 5
    }
  ],
  "scenes": [
    {
      "name": "blockbench_export",
      "nodes": [
        0,
        1,
        2,
        3,
        4,
        5
      ]
    }
  ],
  "scene": 0
}