{
  "asset": {
    "generator": "glTF-Transform v4.2.1",
    "version": "2.0"
  },
  "accessors": [
    {
      "type": "SCALAR",
      "componentType": 5126,
      "count": 2,
      "max": [
        0.0416666679084301
      ],
      "min": [
        0
      ],
      "bufferView": 0,
      "byteOffset": 0
    },
    {
      "type": "SCALAR",
      "componentType": 5126,
      "count": 2,
      "max": [
        0.125
      ],
      "min": [
        0
      ],
      "bufferView": 0,
      "byteOffset": 8
    },
    {
      "type": "VEC4",
      "componentType": 5126,
      "count": 2,
      "bufferView": 0,
      "byteOffset": 16
    },
    {
      "type": "VEC3",
      "componentType": 5126,
      "count": 2,
      "bufferView": 0,
      "byteOffset": 48
    },
    {
      "type": "VEC4",
      "componentType": 5126,
      "count": 2,
      "bufferView": 0,
      "byteOffset": 72
    },
    {
      "type": "VEC3",
      "componentType": 5126,
      "count": 2
    },
    {
      "type": "SCALAR",
      "componentType": 5123,
      "count": 36,
      "bufferView": 1,
      "byteOffset": 0
    },
    {
      "type": "SCALAR",
      "componentType": 5123,
      "count": 36,
      "bufferView": 1,
      "byteOffset": 72
    },
    {
      "type": "SCALAR",
      "componentType": 5123,
      "count": 36,
      "bufferView": 1,
      "byteOffset": 144
    },
    {
      "type": "SCALAR",
      "componentType": 5123,
      "count": 36,
      "bufferView": 1,
      "byteOffset": 216
    },
    {
      "type": "SCALAR",
      "componentType": 5123,
      "count": 36,
      "bufferView": 1,
      "byteOffset": 288
    },
    {
      "type": "SCALAR",
      "componentType": 5123,
      "count": 36,
      "bufferView": 1,
      "byteOffset": 360
    },
    {
      "type": "SCALAR",
      "componentType": 5123,
      "count": 36,
      "bufferView": 1,
      "byteOffset": 432
    },
    {
      "type": "SCALAR",
      "componentType": 5123,
      "count": 36,
      "bufferView": 1,
      "byteOffset": 504
    },
    {
      "type": "SCALAR",
      "componentType": 5123,
      "count": 36,
      "bufferView": 1,
      "byteOffset": 576
    },
    {
      "type": "SCALAR",
      "componentType": 5123,
      "count": 36,
      "bufferView": 1,
      "byteOffset": 648
    },
    {
      "type": "SCALAR",
      "componentType": 5123,
      "count": 36,
      "bufferView": 1,
      "byteOffset": 720
    },
    {
      "type": "SCALAR",
      "componentType": 5123,
      "count": 36,
      "bufferView": 1,
      "byteOffset": 792
    },
    {
      "type": "SCALAR",
      "componentType": 5123,
      "count": 36,
      "bufferView": 1,
      "byteOffset": 864
    },
    {
      "type": "SCALAR",
      "componentType": 5123,
      "count": 36,
      "bufferView": 1,
      "byteOffset": 936
    },
    {
      "type": "SCALAR",
      "componentType": 5123,
      "count": 36,
      "bufferView": 1,
      "byteOffset": 1008
    },
    {
      "type": "SCALAR",
      "componentType": 5123,
      "count": 36,
      "bufferView": 1,
      "byteOffset": 1080
    },
    {
      "type": "SCALAR",
      "componentType": 5123,
      "count": 36,
      "bufferView": 1,
      "byteOffset": 1152
    },
    {
      "type": "SCALAR",
      "componentType": 5123,
      "count": 36,
      "bufferView": 1,
      "byteOffset": 1224
    },
    {
      "type": "SCALAR",
      "componentType": 5123,
      "count": 36,
      "bufferView": 1,
      "byteOffset": 1296
    },
    {
      "type": "SCALAR",
      "componentType": 5123,
      "count": 36,
      "bufferView": 1,
      "byteOffset": 1368
    },
    {
      "type": "SCALAR",
      "componentType": 5123,
      "count": 36,
      "bufferView": 1,
      "byteOffset": 1440
    },
    {
      "type": "SCALAR",
      "componentType": 5123,
      "count": 36,
      "bufferView": 1,
      "byteOffset": 1512
    },
    {
      "type": "VEC3",
      "componentType": 5126,
      "count": 24,
      "max": [
        0.05000000074505806,
        0.10000000149011612,
        0.44999998807907104
      ],
      "min": [
        -0.05000000074505806,
        0,
        -0.3499999940395355
      ],
      "bufferView": 2,
      "byteOffset": 0
    },
    {
      "type": "VEC3",
      "componentType": 5126,
      "count": 24,
      "bufferView": 2,
      "byteOffset": 12
    },
    {
      "type": "VEC2",
      "componentType": 5126,
      "count": 24,
      "bufferView": 2,
      "byteOffset": 24
    },
    {
      "type": "VEC3",
      "componentType": 5126,
      "count": 24,
      "max": [
        0.05000000074505806,
        0.20000000298023224,
        -0.25
      ],
      "min": [
        -0.05000000074505806,
        -1.3877787807814457e-17,
        -0.3499999940395355
      ],
      "bufferView": 3,
      "byteOffset": 0
    },
    {
      "type": "VEC2",
      "componentType": 5126,
      "count": 24,
      "bufferView": 3,
      "byteOffset": 12
    },
    {
      "type": "VEC3",
      "componentType": 5126,
      "count": 24,
      "bufferView": 3,
      "byteOffset": 20
    },
    {
      "type": "VEC3",
      "componentType": 5126,
      "count": 24,
      "max": [
        0.05000000074505806,
        0.20000000298023224,
        0.3499999940395355
      ],
      "min": [
        -0.05000000074505806,
        -1.3877787807814457e-17,
        0.25
      ],
      "bufferView": 4,
      "byteOffset": 0
    },
    {
      "type": "VEC2",
      "componentType": 5126,
      "count": 24,
      "bufferView": 4,
      "byteOffset": 12
    },
    {
      "type": "VEC3",
      "componentType": 5126,
      "count": 24,
      "bufferView": 4,
      "byteOffset": 20
    },
    {
      "type": "VEC2",
      "componentType": 5126,
      "count": 24,
      "bufferView": 5,
      "byteOffset": 0
    },
    {
      "type": "VEC3",
      "componentType": 5126,
      "count": 24,
      "max": [
        0.05000000074505806,
        0.20000000298023224,
        -0.25
      ],
      "min": [
        -0.05000000074505806,
        -1.3877787807814457e-17,
        -0.3499999940395355
      ],
      "bufferView": 5,
      "byteOffset": 8
    },
    {
      "type": "VEC3",
      "componentType": 5126,
      "count": 24,
      "bufferView": 5,
      "byteOffset": 20
    },
    {
      "type": "VEC2",
      "componentType": 5126,
      "count": 24,
      "bufferView": 6,
      "byteOffset": 0
    },
    {
      "type": "VEC3",
      "componentType": 5126,
      "count": 24,
      "max": [
        0.05000000074505806,
        0.10000000149011612,
        0.44999998807907104
      ],
      "min": [
        -0.05000000074505806,
        0,
        -0.3499999940395355
      ],
      "bufferView": 6,
      "byteOffset": 8
    },
    {
      "type": "VEC3",
      "componentType": 5126,
      "count": 24,
      "bufferView": 6,
      "byteOffset": 20
    },
    {
      "type": "VEC2",
      "componentType": 5126,
      "count": 24,
      "bufferView": 7,
      "byteOffset": 0
    },
    {
      "type": "VEC3",
      "componentType": 5126,
      "count": 24,
      "max": [
        0.05000000074505806,
        0.20000000298023224,
        0.3499999940395355
      ],
      "min": [
        -0.05000000074505806,
        -1.3877787807814457e-17,
        0.25
      ],
      "bufferView": 7,
      "byteOffset": 8
    },
    {
      "type": "VEC3",
      "componentType": 5126,
      "count": 24,
      "bufferView": 7,
      "byteOffset": 20
    },
    {
      "type": "VEC3",
      "componentType": 5126,
      "count": 24,
      "max": [
        0.550000011920929,
        0.20000000298023224,
        0.3499999940395355
      ],
      "min": [
        -0.05000000074505806,
        -0.10000000149011612,
        -0.3499999940395355
      ],
      "bufferView": 8,
      "byteOffset": 0
    },
    {
      "type": "VEC2",
      "componentType": 5126,
      "count": 24,
      "bufferView": 8,
      "byteOffset": 12
    },
    {
      "type": "VEC3",
      "componentType": 5126,
      "count": 24,
      "bufferView": 8,
      "byteOffset": 20
    },
    {
      "type": "VEC3",
      "componentType": 5126,
      "count": 24,
      "max": [
        0.6499999761581421,
        0,
        0.4000000059604645
      ],
      "min": [
        -0.15000000596046448,
        -0.10000000149011612,
        -0.4000000059604645
      ],
      "bufferView": 9,
      "byteOffset": 0
    },
    {
      "type": "VEC2",
      "componentType": 5126,
      "count": 24,
      "bufferView": 9,
      "byteOffset": 12
    },
    {
      "type": "VEC3",
      "componentType": 5126,
      "count": 24,
      "bufferView": 9,
      "byteOffset": 20
    },
    {
      "type": "VEC3",
      "componentType": 5126,
      "count": 24,
      "max": [
        0.05000000074505806,
        0.30000001192092896,
        -0.25
      ],
      "min": [
        -0.05000000074505806,
        0,
        -0.3499999940395355
      ],
      "bufferView": 10,
      "byteOffset": 0
    },
    {
      "type": "VEC2",
      "componentType": 5126,
      "count": 24,
      "bufferView": 10,
      "byteOffset": 12
    },
    {
      "type": "VEC3",
      "componentType": 5126,
      "count": 24,
      "bufferView": 10,
      "byteOffset": 20
    },
    {
      "type": "VEC3",
      "componentType": 5126,
      "count": 24,
      "max": [
        0.05000000074505806,
        0.30000001192092896,
        0.25
      ],
      "min": [
        -0.05000000074505806,
        0.20000000298023224,
        -0.3499999940395355
      ],
      "bufferView": 11,
      "byteOffset": 0
    },
    {
      "type": "VEC2",
      "componentType": 5126,
      "count": 24,
      "bufferView": 11,
      "byteOffset": 12
    },
    {
      "type": "VEC3",
      "componentType": 5126,
      "count": 24,
      "bufferView": 11,
      "byteOffset": 20
    },
    {
      "type": "VEC3",
      "componentType": 5126,
      "count": 24,
      "max": [
        0.05000000074505806,
        0.30000001192092896,
        0.3499999940395355
      ],
      "min": [
        -0.05000000074505806,
        0,
        0.25
      ],
      "bufferView": 12,
      "byteOffset": 0
    },
    {
      "type": "VEC2",
      "componentType": 5126,
      "count": 24,
      "bufferView": 12,
      "byteOffset": 12
    },
    {
      "type": "VEC3",
      "componentType": 5126,
      "count": 24,
      "bufferView": 12,
      "byteOffset": 20
    },
    {
      "type": "VEC2",
      "componentType": 5126,
      "count": 24,
      "bufferView": 13,
      "byteOffset": 0
    },
    {
      "type": "VEC3",
      "componentType": 5126,
      "count": 24,
      "max": [
        0.05000000074505806,
        0.30000001192092896,
        -0.25
      ],
      "min": [
        -0.05000000074505806,
        0,
        -0.3499999940395355
      ],
      "bufferView": 13,
      "byteOffset": 8
    },
    {
      "type": "VEC3",
      "componentType": 5126,
      "count": 24,
      "bufferView": 13,
      "byteOffset": 20
    },
    {
      "type": "VEC2",
      "componentType": 5126,
      "count": 24,
      "bufferView": 14,
      "byteOffset": 0
    },
    {
      "type": "VEC3",
      "componentType": 5126,
      "count": 24,
      "max": [
        0.05000000074505806,
        0.30000001192092896,
        0.25
      ],
      "min": [
        -0.05000000074505806,
        0.20000000298023224,
        -0.3499999940395355
      ],
      "bufferView": 14,
      "byteOffset": 8
    },
    {
      "type": "VEC3",
      "componentType": 5126,
      "count": 24,
      "bufferView": 14,
      "byteOffset": 20
    },
    {
      "type": "VEC2",
      "componentType": 5126,
      "count": 24,
      "bufferView": 15,
      "byteOffset": 0
    },
    {
      "type": "VEC3",
      "componentType": 5126,
      "count": 24,
      "max": [
        0.05000000074505806,
        0.30000001192092896,
        0.3499999940395355
      ],
      "min": [
        -0.05000000074505806,
        0,
        0.25
      ],
      "bufferView": 15,
      "byteOffset": 8
    },
    {
      "type": "VEC3",
      "componentType": 5126,
      "count": 24,
      "bufferView": 15,
      "byteOffset": 20
    },
    {
      "type": "VEC3",
      "componentType": 5126,
      "count": 24,
      "max": [
        0.10000000149011612,
        0.30000001192092896,
        -0.25
      ],
      "min": [
        -0.10000000149011612,
        0,
        -0.3499999940395355
      ],
      "bufferView": 16,
      "byteOffset": 0
    },
    {
      "type": "VEC2",
      "componentType": 5126,
      "count": 24,
      "bufferView": 16,
      "byteOffset": 12
    },
    {
      "type": "VEC3",
      "componentType": 5126,
      "count": 24,
      "bufferView": 16,
      "byteOffset": 20
    },
    {
      "type": "VEC3",
      "componentType": 5126,
      "count": 24,
      "max": [
        0.10000000149011612,
        0.20000000298023224,
        -0.25
      ],
      "min": [
        -0.10000000149011612,
        -0.05000000074505806,
        -0.4000000059604645
      ],
      "bufferView": 17,
      "byteOffset": 0
    },
    {
      "type": "VEC2",
      "componentType": 5126,
      "count": 24,
      "bufferView": 17,
      "byteOffset": 12
    },
    {
      "type": "VEC3",
      "componentType": 5126,
      "count": 24,
      "bufferView": 17,
      "byteOffset": 20
    },
    {
      "type": "VEC3",
      "componentType": 5126,
      "count": 24,
      "max": [
        0.10000000149011612,
        0.30000001192092896,
        0.25
      ],
      "min": [
        -0.10000000149011612,
        0.20000000298023224,
        -0.3499999940395355
      ],
      "bufferView": 18,
      "byteOffset": 0
    },
    {
      "type": "VEC2",
      "componentType": 5126,
      "count": 24,
      "bufferView": 18,
      "byteOffset": 12
    },
    {
      "type": "VEC3",
      "componentType": 5126,
      "count": 24,
      "bufferView": 18,
      "byteOffset": 20
    },
    {
      "type": "VEC3",
      "componentType": 5126,
      "count": 24,
      "max": [
        0.10000000149011612,
        0.30000001192092896,
        0.3499999940395355
      ],
      "min": [
        -0.10000000149011612,
        0,
        0.25
      ],
      "bufferView": 19,
      "byteOffset": 0
    },
    {
      "type": "VEC2",
      "componentType": 5126,
      "count": 24,
      "bufferView": 19,
      "byteOffset": 12
    },
    {
      "type": "VEC3",
      "componentType": 5126,
      "count": 24,
      "bufferView": 19,
      "byteOffset": 20
    },
    {
      "type": "VEC3",
      "componentType": 5126,
      "count": 24,
      "max": [
        0.550000011920929,
        0.15000000596046448,
        0.3499999940395355
      ],
      "min": [
        -0.05000000074505806,
        -0.10000000149011612,
        -0.3499999940395355
      ],
      "bufferView": 20,
      "byteOffset": 0
    },
    {
      "type": "VEC2",
      "componentType": 5126,
      "count": 24,
      "bufferView": 20,
      "byteOffset": 12
    },
    {
      "type": "VEC3",
      "componentType": 5126,
      "count": 24,
      "bufferView": 20,
      "byteOffset": 20
    },
    {
      "type": "VEC2",
      "componentType": 5126,
      "count": 24,
      "bufferView": 21,
      "byteOffset": 0
    },
    {
      "type": "VEC3",
      "componentType": 5126,
      "count": 24,
      "max": [
        0.6499999761581421,
        0,
        0.4000000059604645
      ],
      "min": [
        -0.15000000596046448,
        -0.10000000149011612,
        -0.4000000059604645
      ],
      "bufferView": 21,
      "byteOffset": 8
    },
    {
      "type": "VEC3",
      "componentType": 5126,
      "count": 24,
      "bufferView": 21,
      "byteOffset": 20
    },
    {
      "type": "VEC3",
      "componentType": 5126,
      "count": 24,
      "max": [
        0.3499999940395355,
        0.05000000074505806,
        0.44999998807907104
      ],
      "min": [
        0.15000000596046448,
        -0.15000000596046448,
        0.3499999940395355
      ],
      "bufferView": 22,
      "byteOffset": 0
    },
    {
      "type": "VEC2",
      "componentType": 5126,
      "count": 24,
      "bufferView": 22,
      "byteOffset": 12
    },
    {
      "type": "VEC3",
      "componentType": 5126,
      "count": 24,
      "bufferView": 22,
      "byteOffset": 20
    },
    {
      "type": "VEC3",
      "componentType": 5126,
      "count": 24,
      "max": [
        -0.15000000596046448,
        0.05000000074505806,
        0.44999998807907104
      ],
      "min": [
        -0.3499999940395355,
        -0.15000000596046448,
        0.3499999940395355
      ],
      "bufferView": 23,
      "byteOffset": 0
    },
    {
      "type": "VEC2",
      "componentType": 5126,
      "count": 24,
      "bufferView": 23,
      "byteOffset": 12
    },
    {
      "type": "VEC3",
      "componentType": 5126,
      "count": 24,
      "bufferView": 23,
      "byteOffset": 20
    }
  ],
  "bufferViews": [
    {
      "buffer": 0,
      "byteOffset": 0,
      "byteLength": 104
    },
    {
      "buffer": 0,
      "byteOffset": 104,
      "byteLength": 1584,
      "target": 34963
    },
    {
      "buffer": 0,
      "byteOffset": 1688,
      "byteLength": 768,
      "byteStride": 32,
      "target": 34962
    },
    {
      "buffer": 0,
      "byteOffset": 2456,
      "byteLength": 768,
      "byteStride": 32,
      "target": 34962
    },
    {
      "buffer": 0,
      "byteOffset": 3224,
      "byteLength": 768,
      "byteStride": 32,
      "target": 34962
    },
    {
      "buffer": 0,
      "byteOffset": 3992,
      "byteLength": 768,
      "byteStride": 32,
      "target": 34962
    },
    {
      "buffer": 0,
      "byteOffset": 4760,
      "byteLength": 768,
      "byteStride": 32,
      "target": 34962
    },
    {
      "buffer": 0,
      "byteOffset": 5528,
      "byteLength": 768,
      "byteStride": 32,
      "target": 34962
    },
    {
      "buffer": 0,
      "byteOffset": 6296,
      "byteLength": 768,
      "byteStride": 32,
      "target": 34962
    },
    {
      "buffer": 0,
      "byteOffset": 7064,
      "byteLength": 768,
      "byteStride": 32,
      "target": 34962
    },
    {
      "buffer": 0,
      "byteOffset": 7832,
      "byteLength": 768,
      "byteStride": 32,
      "target": 34962
    },
    {
      "buffer": 0,
      "byteOffset": 8600,
      "byteLength": 768,
      "byteStride": 32,
      "target": 34962
    },
    {
      "buffer": 0,
      "byteOffset": 9368,
      "byteLength": 768,
      "byteStride": 32,
      "target": 34962
    },
    {
      "buffer": 0,
      "byteOffset": 10136,
      "byteLength": 768,
      "byteStride": 32,
      "target": 34962
    },
    {
      "buffer": 0,
      "byteOffset": 10904,
      "byteLength": 768,
      "byteStride": 32,
      "target": 34962
    },
    {
      "buffer": 0,
      "byteOffset": 11672,
      "byteLength": 768,
      "byteStride": 32,
      "target": 34962
    },
    {
      "buffer": 0,
      "byteOffset": 12440,
      "byteLength": 768,
      "byteStride": 32,
      "target": 34962
    },
    {
      "buffer": 0,
      "byteOffset": 13208,
      "byteLength": 768,
      "byteStride": 32,
      "target": 34962
    },
    {
      "buffer": 0,
      "byteOffset": 13976,
      "byteLength": 768,
      "byteStride": 32,
      "target": 34962
    },
    {
      "buffer": 0,
      "byteOffset": 14744,
      "byteLength": 768,
      "byteStride": 32,
      "target": 34962
    },
    {
      "buffer": 0,
      "byteOffset": 15512,
      "byteLength": 768,
      "byteStride": 32,
      "target": 34962
    },
    {
      "buffer": 0,
      "byteOffset": 16280,
      "byteLength": 768,
      "byteStride": 32,
      "target": 34962
    },
    {
      "buffer": 0,
      "byteOffset": 17048,
      "byteLength": 768,
      "byteStride": 32,
      "target": 34962
    },
    {
      "buffer": 0,
      "byteOffset": 17816,
      "byteLength": 768,
      "byteStride": 32,
      "target": 34962
    }
  ],
  "samplers": [
    {
      "magFilter": 9728,
      "minFilter": 9728,
      "wrapS": 33071,
      "wrapT": 33071
    }
  ],
  "textures": [
    {
      "source": 0,
      "sampler": 0
    }
  ],
  "images": [
    {
      "mimeType": "image/png",
      "uri": "baseColor.png"
    }
  ],
  "buffers": [
    {
      "uri": "chest-blocky-wood-named-nodes.bin",
      "byteLength": 18584
    }
  ],
  "materials": [
    {
      "alphaMode": "MASK",
      "alphaCutoff": 0.05,
      "doubleSided": true,
      "pbrMetallicRoughness": {
        "metallicFactor": 0,
        "baseColorTexture": {
          "index": 0
        }
      }
    }
  ],
  "meshes": [
    {
      "primitives": [
        {
          "attributes": {
            "POSITION": 28,
            "NORMAL": 29,
            "TEXCOORD_0": 30
          },
          "mode": 4,
          "material": 0,
          "indices": 6
        }
      ]
    },
    {
      "primitives": [
        {
          "attributes": {
            "POSITION": 31,
            "TEXCOORD_0": 32,
            "NORMAL": 33
          },
          "mode": 4,
          "material": 0,
          "indices": 7
        }
      ]
    },
    {
      "primitives": [
        {
          "attributes": {
            "POSITION": 34,
            "TEXCOORD_0": 35,
            "NORMAL": 36
          },
          "mode": 4,
          "material": 0,
          "indices": 8
        }
      ]
    },
    {
      "primitives": [
        {
          "attributes": {
            "TEXCOORD_0": 37,
            "POSITION": 38,
            "NORMAL": 39
          },
          "mode": 4,
          "material": 0,
          "indices": 9
        }
      ]
    },
    {
      "primitives": [
        {
          "attributes": {
            "TEXCOORD_0": 40,
            "POSITION": 41,
            "NORMAL": 42
          },
          "mode": 4,
          "material": 0,
          "indices": 10
        }
      ]
    },
    {
      "primitives": [
        {
          "attributes": {
            "TEXCOORD_0": 43,
            "POSITION": 44,
            "NORMAL": 45
          },
          "mode": 4,
          "material": 0,
          "indices": 11
        }
      ]
    },
    {
      "primitives": [
        {
          "attributes": {
            "POSITION": 46,
            "TEXCOORD_0": 47,
            "NORMAL": 48
          },
          "mode": 4,
          "material": 0,
          "indices": 12
        }
      ]
    },
    {
      "primitives": [
        {
          "attributes": {
            "POSITION": 49,
            "TEXCOORD_0": 50,
            "NORMAL": 51
          },
          "mode": 4,
          "material": 0,
          "indices": 13
        }
      ]
    },
    {
      "primitives": [
        {
          "attributes": {
            "POSITION": 52,
            "TEXCOORD_0": 53,
            "NORMAL": 54
          },
          "mode": 4,
          "material": 0,
          "indices": 14
        }
      ]
    },
    {
      "primitives": [
        {
          "attributes": {
            "POSITION": 55,
            "TEXCOORD_0": 56,
            "NORMAL": 57
          },
          "mode": 4,
          "material": 0,
          "indices": 15
        }
      ]
    },
    {
      "primitives": [
        {
          "attributes": {
            "POSITION": 58,
            "TEXCOORD_0": 59,
            "NORMAL": 60
          },
          "mode": 4,
          "material": 0,
          "indices": 16
        }
      ]
    },
    {
      "primitives": [
        {
          "attributes": {
            "TEXCOORD_0": 61,
            "POSITION": 62,
            "NORMAL": 63
          },
          "mode": 4,
          "material": 0,
          "indices": 17
        }
      ]
    },
    {
      "primitives": [
        {
          "attributes": {
            "TEXCOORD_0": 64,
            "POSITION": 65,
            "NORMAL": 66
          },
          "mode": 4,
          "material": 0,
          "indices": 18
        }
      ]
    },
    {
      "primitives": [
        {
          "attributes": {
            "TEXCOORD_0": 67,
            "POSITION": 68,
            "NORMAL": 69
          },
          "mode": 4,
          "material": 0,
          "indices": 19
        }
      ]
    },
    {
      "primitives": [
        {
          "attributes": {
            "POSITION": 70,
            "TEXCOORD_0": 71,
            "NORMAL": 72
          },
          "mode": 4,
          "material": 0,
          "indices": 20
        }
      ]
    },
    {
      "primitives": [
        {
          "attributes": {
            "POSITION": 73,
            "TEXCOORD_0": 74,
            "NORMAL": 75
          },
          "mode": 4,
          "material": 0,
          "indices": 21
        }
      ]
    },
    {
      "primitives": [
        {
          "attributes": {
            "POSITION": 76,
            "TEXCOORD_0": 77,
            "NORMAL": 78
          },
          "mode": 4,
          "material": 0,
          "indices": 22
        }
      ]
    },
    {
      "primitives": [
        {
          "attributes": {
            "POSITION": 79,
            "TEXCOORD_0": 80,
            "NORMAL": 81
          },
          "mode": 4,
          "material": 0,
          "indices": 23
        }
      ]
    },
    {
      "primitives": [
        {
          "attributes": {
            "POSITION": 82,
            "TEXCOORD_0": 83,
            "NORMAL": 84
          },
          "mode": 4,
          "material": 0,
          "indices": 24
        }
      ]
    },
    {
      "primitives": [
        {
          "attributes": {
            "TEXCOORD_0": 85,
            "POSITION": 86,
            "NORMAL": 87
          },
          "mode": 4,
          "material": 0,
          "indices": 25
        }
      ]
    },
    {
      "primitives": [
        {
          "attributes": {
            "POSITION": 88,
            "TEXCOORD_0": 89,
            "NORMAL": 90
          },
          "mode": 4,
          "material": 0,
          "indices": 26
        }
      ]
    },
    {
      "primitives": [
        {
          "attributes": {
            "POSITION": 91,
            "TEXCOORD_0": 92,
            "NORMAL": 93
          },
          "mode": 4,
          "material": 0,
          "indices": 27
        }
      ]
    }
  ],
  "nodes": [
    {
      "name": "cube",
      "translation": [
        0,
        -0.1,
        0
      ],
      "mesh": 0
    },
    {
      "name": "cube",
      "mesh": 1
    },
    {
      "name": "cube",
      "translation": [
        0,
        0,
        0.1
      ],
      "mesh": 2
    },
    {
      "name": "cube",
      "translation": [
        0.7000000000000001,
        0,
        0
      ],
      "mesh": 3
    },
    {
      "name": "cube",
      "translation": [
        0.7000000000000001,
        -0.1,
        0
      ],
      "mesh": 4
    },
    {
      "name": "cube",
      "translation": [
        0.7000000000000001,
        0,
        0.1
      ],
      "mesh": 5
    },
    {
      "name": "cube",
      "translation": [
        0.10000000000000003,
        0,
        0.05
      ],
      "mesh": 6
    },
    {
      "name": "cube",
      "translation": [
        0.10000000000000003,
        0.30000000000000004,
        0.05
      ],
      "mesh": 7
    },
    {
      "name": "bottom",
      "translation": [
        -0.35000000000000003,
        0.1,
        -0.05
      ],
      "children": [
        0,
        1,
        2,
        3,
        4,
        5,
        6,
        7
      ]
    },
    {
      "name": "cube",
      "translation": [
        -0.35000000000000003,
        0.09285714285714286,
        -0.45178571428571423
      ],
      "mesh": 8
    },
    {
      "name": "cube",
      "translation": [
        -0.35000000000000003,
        0.09285714285714286,
        -0.35178571428571426
      ],
      "mesh": 9
    },
    {
      "name": "cube",
      "translation": [
        -0.35000000000000003,
        0.09285714285714286,
        -0.35178571428571426
      ],
      "mesh": 10
    },
    {
      "name": "cube",
      "translation": [
        0.35000000000000003,
        0.09285714285714286,
        -0.45178571428571423
      ],
      "mesh": 11
    },
    {
      "name": "cube",
      "translation": [
        0.35000000000000003,
        0.09285714285714286,
        -0.35178571428571426
      ],
      "mesh": 12
    },
    {
      "name": "cube",
      "translation": [
        0.35000000000000003,
        0.09285714285714286,
        -0.35178571428571426
      ],
      "mesh": 13
    },
    {
      "name": "cube",
      "translation": [
        0,
        0.09285714285714286,
        -0.45178571428571423
      ],
      "mesh": 14
    },
    {
      "name": "cube",
      "translation": [
        0,
        -0.1071428571428571,
        -0.5017857142857143
      ],
      "mesh": 15
    },
    {
      "name": "cube",
      "translation": [
        0,
        0.09285714285714286,
        -0.35178571428571426
      ],
      "mesh": 16
    },
    {
      "name": "cube",
      "translation": [
        0,
        0.09285714285714286,
        -0.35178571428571426
      ],
      "mesh": 17
    },
    {
      "name": "cube",
      "translation": [
        -0.25,
        0.19285714285714295,
        -0.40178571428571425
      ],
      "mesh": 18
    },
    {
      "name": "cube",
      "translation": [
        -0.25,
        0.09285714285714286,
        -0.40178571428571425
      ],
      "mesh": 19
    },
    {
      "name": "cube",
      "translation": [
        -0.45,
        0.09285714285714286,
        -0.40178571428571425
      ],
      "mesh": 20
    },
    {
      "name": "cube",
      "translation": [
        0.45,
        0.09285714285714286,
        -0.40178571428571425
      ],
      "mesh": 21
    },
    {
      "name": "top",
      "translation": [
        0,
        0.40714285714285714,
        0.40178571428571425
      ],
      "children": [
        9,
        10,
        11,
        12,
        13,
        14,
        15,
        16,
        17,
        18,
        19,
        20,
        21,
        22
      ]
    },
    {
      "name": "root",
      "children": [
        8,
        23
      ]
    },
    {
      "children": [
        24
      ]
    }
  ],
  "animations": [
    {
      "name": "idle",
      "samplers": [
        {
          "input": 0,
          "output": 5,
          "interpolation": "LINEAR"
        }
      ],
      "channels": [
        {
          "sampler": 0,
          "target": {
            "node": 24,
            "path": "translation"
          }
        }
      ]
    },
    {
      "name": "interact",
      "samplers": [
        {
          "input": 1,
          "output": 2,
          "interpolation": "LINEAR"
        },
        {
          "input": 1,
          "output": 3,
          "interpolation": "LINEAR"
        }
      ],
      "channels": [
        {
          "sampler": 0,
          "target": {
            "node": 23,
            "path": "rotation"
          }
        },
        {
          "sampler": 1,
          "target": {
            "node": 23,
            "path": "translation"
          }
        }
      ]
    },
    {
      "name": "interact2",
      "samplers": [
        {
          "input": 1,
          "output": 4,
          "interpolation": "LINEAR"
        },
        {
          "input": 1,
          "output": 3,
          "interpolation": "LINEAR"
        }
      ],
      "channels": [
        {
          "sampler": 0,
          "target": {
            "node": 23,
            "path": "rotation"
          }
        },
        {
          "sampler": 1,
          "target": {
            "node": 23,
            "path": "translation"
          }
        }
      ]
    }
  ],
  "scenes": [
    {
      "name": "blockbench_export",
      "nodes": [
        25
      ]
    }
  ],
  "scene": 0
}