{
  "asset": {
    "generator": "glTF-Transform v4.1.3",
    "version": "2.0"
  },
  "accessors": [
    {
      "type": "SCALAR",
      "componentType": 5126,
      "count": 1,
      "max": [
        0
      ],
      "min": [
        0
      ]
    },
    {
      "type": "VEC3",
      "componentType": 5126,
      "count": 1
    },
    {
      "type": "SCALAR",
      "componentType": 5126,
      "count": 23,
      "max": [
        1.399999976158142
      ],
      "min": [
        0
      ],
      "bufferView": 0,
      "byteOffset": 0
    },
    {
      "type": "VEC3",
      "componentType": 5126,
      "count": 23,
      "bufferView": 0,
      "byteOffset": 92
    },
    {
      "type": "SCALAR",
      "componentType": 5126,
      "count": 8,
      "max": [
        0.44999998807907104
      ],
      "min": [
        0
      ],
      "bufferView": 0,
      "byteOffset": 368
    },
    {
      "type": "VEC4",
      "componentType": 5126,
      "count": 8,
      "bufferView": 0,
      "byteOffset": 400
    },
    {
      "type": "SCALAR",
      "componentType": 5126,
      "count": 12,
      "max": [
        0.75
      ],
      "min": [
        0
      ],
      "bufferView": 0,
      "byteOffset": 528
    },
    {
      "type": "VEC3",
      "componentType": 5126,
      "count": 12,
      "bufferView": 0,
      "byteOffset": 576
    },
    {
      "type": "SCALAR",
      "componentType": 5126,
      "count": 23,
      "max": [
        1.350000023841858
      ],
      "min": [
        0
      ],
      "bufferView": 0,
      "byteOffset": 720
    },
    {
      "type": "SCALAR",
      "componentType": 5126,
      "count": 10,
      "max": [
        0.6000000238418579
      ],
      "min": [
        0
      ],
      "bufferView": 0,
      "byteOffset": 812
    },
    {
      "type": "VEC4",
      "componentType": 5126,
      "count": 10,
      "bufferView": 0,
      "byteOffset": 852
    },
    {
      "type": "VEC3",
      "componentType": 5126,
      "count": 10,
      "bufferView": 0,
      "byteOffset": 1012
    },
    {
      "type": "SCALAR",
      "componentType": 5126,
      "count": 11,
      "max": [
        0.699999988079071
      ],
      "min": [
        0
      ],
      "bufferView": 0,
      "byteOffset": 1132
    },
    {
      "type": "VEC4",
      "componentType": 5126,
      "count": 11,
      "bufferView": 0,
      "byteOffset": 1176
    },
    {
      "type": "VEC3",
      "componentType": 5126,
      "count": 11,
      "bufferView": 0,
      "byteOffset": 1352
    },
    {
      "type": "VEC4",
      "componentType": 5126,
      "count": 12,
      "bufferView": 0,
      "byteOffset": 1484
    },
    {
      "type": "VEC3",
      "componentType": 5126,
      "count": 12,
      "bufferView": 0,
      "byteOffset": 1676
    },
    {
      "type": "SCALAR",
      "componentType": 5126,
      "count": 12,
      "max": [
        0.75
      ],
      "min": [
        0
      ],
      "bufferView": 0,
      "byteOffset": 1820
    },
    {
      "type": "VEC4",
      "componentType": 5126,
      "count": 12,
      "bufferView": 0,
      "byteOffset": 1868
    },
    {
      "type": "VEC3",
      "componentType": 5126,
      "count": 12,
      "bufferView": 0,
      "byteOffset": 2060
    },
    {
      "type": "SCALAR",
      "componentType": 5126,
      "count": 12,
      "max": [
        0.6000000238418579
      ],
      "min": [
        0
      ],
      "bufferView": 0,
      "byteOffset": 2204
    },
    {
      "type": "VEC4",
      "componentType": 5126,
      "count": 12,
      "bufferView": 0,
      "byteOffset": 2252
    },
    {
      "type": "SCALAR",
      "componentType": 5126,
      "count": 11,
      "max": [
        0.6000000238418579
      ],
      "min": [
        0
      ],
      "bufferView": 0,
      "byteOffset": 2444
    },
    {
      "type": "VEC3",
      "componentType": 5126,
      "count": 11,
      "bufferView": 0,
      "byteOffset": 2488
    },
    {
      "type": "SCALAR",
      "componentType": 5126,
      "count": 23,
      "max": [
        1.399999976158142
      ],
      "min": [
        0
      ],
      "bufferView": 0,
      "byteOffset": 2620
    },
    {
      "type": "VEC3",
      "componentType": 5126,
      "count": 23,
      "bufferView": 0,
      "byteOffset": 2712
    },
    {
      "type": "SCALAR",
      "componentType": 5123,
      "count": 36,
      "bufferView": 1,
      "byteOffset": 0
    },
    {
      "type": "SCALAR",
      "componentType": 5123,
      "count": 12,
      "bufferView": 1,
      "byteOffset": 72
    },
    {
      "type": "SCALAR",
      "componentType": 5123,
      "count": 24,
      "bufferView": 1,
      "byteOffset": 96
    },
    {
      "type": "SCALAR",
      "componentType": 5123,
      "count": 192,
      "bufferView": 1,
      "byteOffset": 144
    },
    {
      "type": "SCALAR",
      "componentType": 5123,
      "count": 96,
      "bufferView": 1,
      "byteOffset": 528
    },
    {
      "type": "VEC3",
      "componentType": 5126,
      "count": 24,
      "max": [
        0.3125,
        0.0625,
        0.3125
      ],
      "min": [
        -0.3125,
        -0.0625,
        -0.3125
      ],
      "bufferView": 2,
      "byteOffset": 0
    },
    {
      "type": "VEC3",
      "componentType": 5126,
      "count": 24,
      "bufferView": 2,
      "byteOffset": 12
    },
    {
      "type": "VEC2",
      "componentType": 5126,
      "count": 24,
      "bufferView": 2,
      "byteOffset": 24
    },
    {
      "type": "VEC3",
      "componentType": 5126,
      "count": 8,
      "max": [
        1.5,
        0.0000625000029685907,
        1.5
      ],
      "min": [
        -1.5,
        0,
        -1.5
      ],
      "bufferView": 3,
      "byteOffset": 0
    },
    {
      "type": "VEC2",
      "componentType": 5126,
      "count": 8,
      "bufferView": 3,
      "byteOffset": 12
    },
    {
      "type": "VEC3",
      "componentType": 5126,
      "count": 8,
      "bufferView": 3,
      "byteOffset": 20
    },
    {
      "type": "VEC3",
      "componentType": 5126,
      "count": 16,
      "max": [
        1.5,
        0.0000625000029685907,
        1.5
      ],
      "min": [
        -1.5,
        0,
        -1.5
      ],
      "bufferView": 4,
      "byteOffset": 0
    },
    {
      "type": "VEC3",
      "componentType": 5126,
      "count": 16,
      "bufferView": 4,
      "byteOffset": 12
    },
    {
      "type": "VEC3",
      "componentType": 5126,
      "count": 24,
      "max": [
        0.375,
        0.0625,
        0.375
      ],
      "min": [
        -0.375,
        -0.0625,
        -0.375
      ],
      "bufferView": 5,
      "byteOffset": 0
    },
    {
      "type": "VEC2",
      "componentType": 5126,
      "count": 24,
      "bufferView": 5,
      "byteOffset": 12
    },
    {
      "type": "VEC3",
      "componentType": 5126,
      "count": 24,
      "max": [
        0.28125,
        0.0625,
        0.28125
      ],
      "min": [
        -0.28125,
        -0.0625,
        -0.28125
      ],
      "bufferView": 6,
      "byteOffset": 0
    },
    {
      "type": "VEC3",
      "componentType": 5126,
      "count": 128,
      "max": [
        1.0563064813613892,
        0.6875,
        2.112454891204834
      ],
      "min": [
        -1.0562186241149902,
        -0.5,
        0
      ],
      "bufferView": 7,
      "byteOffset": 0
    },
    {
      "type": "VEC3",
      "componentType": 5126,
      "count": 128,
      "bufferView": 7,
      "byteOffset": 12
    },
    {
      "type": "VEC3",
      "componentType": 5126,
      "count": 64,
      "max": [
        1.0563064813613892,
        0.6875,
        2.112454891204834
      ],
      "min": [
        -1.0562186241149902,
        -0.5,
        0
      ],
      "bufferView": 8,
      "byteOffset": 0
    },
    {
      "type": "VEC2",
      "componentType": 5126,
      "count": 64,
      "bufferView": 8,
      "byteOffset": 12
    },
    {
      "type": "VEC3",
      "componentType": 5126,
      "count": 64,
      "bufferView": 8,
      "byteOffset": 20
    }
  ],
  "bufferViews": [
    {
      "buffer": 0,
      "byteOffset": 0,
      "byteLength": 2988
    },
    {
      "buffer": 0,
      "byteOffset": 2988,
      "byteLength": 720,
      "target": 34963
    },
    {
      "buffer": 0,
      "byteOffset": 3708,
      "byteLength": 768,
      "byteStride": 32,
      "target": 34962
    },
    {
      "buffer": 0,
      "byteOffset": 4476,
      "byteLength": 256,
      "byteStride": 32,
      "target": 34962
    },
    {
      "buffer": 0,
      "byteOffset": 4732,
      "byteLength": 384,
      "byteStride": 24,
      "target": 34962
    },
    {
      "buffer": 0,
      "byteOffset": 5116,
      "byteLength": 480,
      "byteStride": 20,
      "target": 34962
    },
    {
      "buffer": 0,
      "byteOffset": 5596,
      "byteLength": 288,
      "byteStride": 12,
      "target": 34962
    },
    {
      "buffer": 0,
      "byteOffset": 5884,
      "byteLength": 3072,
      "byteStride": 24,
      "target": 34962
    },
    {
      "buffer": 0,
      "byteOffset": 8956,
      "byteLength": 2048,
      "byteStride": 32,
      "target": 34962
    }
  ],
  "samplers": [
    {
      "magFilter": 9728,
      "minFilter": 9728,
      "wrapS": 33071,
      "wrapT": 33071
    }
  ],
  "textures": [
    {
      "source": 0,
      "sampler": 0
    }
  ],
  "images": [
    {
      "mimeType": "image/png",
      "uri": "baseColor.png"
    }
  ],
  "buffers": [
    {
      "uri": "ground-explode.bin",
      "byteLength": 11004
    }
  ],
  "materials": [
    {
      "alphaMode": "MASK",
      "alphaCutoff": 0.05,
      "doubleSided": true,
      "pbrMetallicRoughness": {
        "metallicFactor": 0,
        "baseColorTexture": {
          "index": 0
        }
      }
    },
    {
      "alphaMode": "MASK",
      "alphaCutoff": 0.05,
      "doubleSided": true,
      "pbrMetallicRoughness": {
        "metallicFactor": 0
      }
    }
  ],
  "meshes": [
    {
      "primitives": [
        {
          "attributes": {
            "POSITION": 31,
            "NORMAL": 32,
            "TEXCOORD_0": 33
          },
          "mode": 4,
          "material": 0,
          "indices": 26
        }
      ]
    },
    {
      "primitives": [
        {
          "attributes": {
            "POSITION": 34,
            "TEXCOORD_0": 35,
            "NORMAL": 36
          },
          "mode": 4,
          "material": 0,
          "indices": 27
        },
        {
          "attributes": {
            "POSITION": 37,
            "NORMAL": 38
          },
          "mode": 4,
          "material": 1,
          "indices": 28
        }
      ]
    },
    {
      "primitives": [
        {
          "attributes": {
            "POSITION": 39,
            "TEXCOORD_0": 40,
            "NORMAL": 32
          },
          "mode": 4,
          "material": 0,
          "indices": 26
        }
      ]
    },
    {
      "primitives": [
        {
          "attributes": {
            "POSITION": 41,
            "NORMAL": 32,
            "TEXCOORD_0": 33
          },
          "mode": 4,
          "material": 0,
          "indices": 26
        }
      ]
    },
    {
      "primitives": [
        {
          "attributes": {
            "POSITION": 42,
            "NORMAL": 43
          },
          "mode": 4,
          "material": 1,
          "indices": 29
        },
        {
          "attributes": {
            "POSITION": 44,
            "TEXCOORD_0": 45,
            "NORMAL": 46
          },
          "mode": 4,
          "material": 0,
          "indices": 30
        }
      ]
    }
  ],
  "nodes": [
    {
      "name": "cube",
      "mesh": 0
    },
    {
      "name": "ef_stone5",
      "translation": [
        -0.1875,
        0.078125,
        -1
      ],
      "children": [
        0
      ]
    },
    {
      "name": "cube",
      "mesh": 1
    },
    {
      "name": "ef_ground",
      "translation": [
        0,
        0.0203125,
        0
      ],
      "children": [
        2
      ]
    },
    {
      "name": "cube",
      "mesh": 2
    },
    {
      "name": "ef_stone",
      "translation": [
        -0.95,
        0.078125,
        -0.06875
      ],
      "rotation": [
        0,
        -0.19509032201612825,
        0,
        0.9807852804032304
      ],
      "children": [
        4
      ]
    },
    {
      "name": "cube",
      "mesh": 0
    },
    {
      "name": "ef_stone2",
      "translation": [
        0.921875,
        0.078125,
        0.625
      ],
      "children": [
        6
      ]
    },
    {
      "name": "cube",
      "mesh": 0
    },
    {
      "name": "ef_stone3",
      "translation": [
        -0.375,
        0.078125,
        0.875
      ],
      "rotation": [
        0,
        0.3826834323650898,
        0,
        0.9238795325112867
      ],
      "children": [
        8
      ]
    },
    {
      "name": "cube",
      "mesh": 3
    },
    {
      "name": "ef_stone4",
      "translation": [
        0.875,
        0.078125,
        -0.5
      ],
      "rotation": [
        0,
        -0.19509032201612825,
        0,
        0.9807852804032304
      ],
      "children": [
        10
      ]
    },
    {
      "name": "cube",
      "translation": [
        -0.000016875,
        0.5,
        -1.056201875
      ],
      "mesh": 4
    },
    {
      "name": "ef_end_slash",
      "translation": [
        0.000016875,
        0,
        0.000005625
      ],
      "children": [
        12
      ]
    },
    {
      "name": "bone",
      "children": [
        1,
        3,
        5,
        7,
        9,
        11,
        13
      ]
    },
    {
      "children": [
        14
      ]
    }
  ],
  "animations": [
    {
      "name": "idle",
      "samplers": [
        {
          "input": 0,
          "output": 1,
          "interpolation": "STEP"
        }
      ],
      "channels": [
        {
          "sampler": 0,
          "target": {
            "node": 14,
            "path": "scale"
          }
        }
      ]
    },
    {
      "name": "walk",
      "samplers": [
        {
          "input": 0,
          "output": 1,
          "interpolation": "STEP"
        }
      ],
      "channels": [
        {
          "sampler": 0,
          "target": {
            "node": 14,
            "path": "scale"
          }
        }
      ]
    },
    {
      "name": "spawn",
      "samplers": [
        {
          "input": 2,
          "output": 3,
          "interpolation": "LINEAR"
        },
        {
          "input": 4,
          "output": 5,
          "interpolation": "LINEAR"
        },
        {
          "input": 6,
          "output": 7,
          "interpolation": "LINEAR"
        },
        {
          "input": 8,
          "output": 3,
          "interpolation": "LINEAR"
        },
        {
          "input": 9,
          "output": 10,
          "interpolation": "LINEAR"
        },
        {
          "input": 9,
          "output": 11,
          "interpolation": "LINEAR"
        },
        {
          "input": 8,
          "output": 3,
          "interpolation": "LINEAR"
        },
        {
          "input": 12,
          "output": 13,
          "interpolation": "LINEAR"
        },
        {
          "input": 12,
          "output": 14,
          "interpolation": "LINEAR"
        },
        {
          "input": 8,
          "output": 3,
          "interpolation": "LINEAR"
        },
        {
          "input": 6,
          "output": 15,
          "interpolation": "LINEAR"
        },
        {
          "input": 6,
          "output": 16,
          "interpolation": "LINEAR"
        },
        {
          "input": 8,
          "output": 3,
          "interpolation": "LINEAR"
        },
        {
          "input": 17,
          "output": 18,
          "interpolation": "LINEAR"
        },
        {
          "input": 17,
          "output": 19,
          "interpolation": "LINEAR"
        },
        {
          "input": 8,
          "output": 3,
          "interpolation": "LINEAR"
        },
        {
          "input": 20,
          "output": 21,
          "interpolation": "LINEAR"
        },
        {
          "input": 22,
          "output": 23,
          "interpolation": "LINEAR"
        },
        {
          "input": 24,
          "output": 25,
          "interpolation": "LINEAR"
        }
      ],
      "channels": [
        {
          "sampler": 0,
          "target": {
            "node": 3,
            "path": "scale"
          }
        },
        {
          "sampler": 1,
          "target": {
            "node": 5,
            "path": "rotation"
          }
        },
        {
          "sampler": 2,
          "target": {
            "node": 5,
            "path": "translation"
          }
        },
        {
          "sampler": 3,
          "target": {
            "node": 5,
            "path": "scale"
          }
        },
        {
          "sampler": 4,
          "target": {
            "node": 7,
            "path": "rotation"
          }
        },
        {
          "sampler": 5,
          "target": {
            "node": 7,
            "path": "translation"
          }
        },
        {
          "sampler": 6,
          "target": {
            "node": 7,
            "path": "scale"
          }
        },
        {
          "sampler": 7,
          "target": {
            "node": 9,
            "path": "rotation"
          }
        },
        {
          "sampler": 8,
          "target": {
            "node": 9,
            "path": "translation"
          }
        },
        {
          "sampler": 9,
          "target": {
            "node": 9,
            "path": "scale"
          }
        },
        {
          "sampler": 10,
          "target": {
            "node": 11,
            "path": "rotation"
          }
        },
        {
          "sampler": 11,
          "target": {
            "node": 11,
            "path": "translation"
          }
        },
        {
          "sampler": 12,
          "target": {
            "node": 11,
            "path": "scale"
          }
        },
        {
          "sampler": 13,
          "target": {
            "node": 1,
            "path": "rotation"
          }
        },
        {
          "sampler": 14,
          "target": {
            "node": 1,
            "path": "translation"
          }
        },
        {
          "sampler": 15,
          "target": {
            "node": 1,
            "path": "scale"
          }
        },
        {
          "sampler": 16,
          "target": {
            "node": 13,
            "path": "rotation"
          }
        },
        {
          "sampler": 17,
          "target": {
            "node": 13,
            "path": "scale"
          }
        },
        {
          "sampler": 18,
          "target": {
            "node": 14,
            "path": "scale"
          }
        }
      ]
    }
  ],
  "scenes": [
    {
      "name": "blockbench_export",
      "nodes": [
        15
      ]
    }
  ],
  "scene": 0
}