{"asset":{"version":"2.0","generator":"Blockbench 4.12.5 glTF exporter"},"scenes":[{"nodes":[10],"name":"blockbench_export"}],"scene":0,"nodes":[{"translation":[0.53125,0.90625,0.03125],"name":"cube","mesh":0},{"translation":[0.53125,0.90625,0.03125],"name":"cube","mesh":1},{"translation":[0.53125,0.96875,0.59375],"name":"cube","mesh":2},{"translation":[0.53125,0.90625,0.03125],"name":"cube","mesh":3},{"translation":[0.53125,0.90625,0.03125],"name":"cube","mesh":4},{"translation":[0.53125,0.90625,0.03125],"name":"cube","mesh":5},{"translation":[0.53125,0.96875,-1.59375],"name":"cube","mesh":6},{"rotation":[0.19509032201612825,0,0,0.9807852804032304],"translation":[0.53125,0.828125,-0.732143125],"name":"cube","mesh":7},{"name":"weapon","children":[0,1,2,3,4,5,6,7]},{"rotation":[0.7071067811865475,0,0,0.7071067811865476],"name":"root","children":[8]},{"children":[9]}],"bufferViews":[{"buffer":0,"byteOffset":0,"byteLength":288,"target":34962,"byteStride":12},{"buffer":0,"byteOffset":288,"byteLength":288,"target":34962,"byteStride":12},{"buffer":0,"byteOffset":576,"byteLength":192,"target":34962,"byteStride":8},{"buffer":0,"byteOffset":768,"byteLength":72,"target":34963},{"buffer":0,"byteOffset":840,"byteLength":288,"target":34962,"byteStride":12},{"buffer":0,"byteOffset":1128,"byteLength":288,"target":34962,"byteStride":12},{"buffer":0,"byteOffset":1416,"byteLength":192,"target":34962,"byteStride":8},{"buffer":0,"byteOffset":1608,"byteLength":72,"target":34963},{"buffer":0,"byteOffset":1680,"byteLength":288,"target":34962,"byteStride":12},{"buffer":0,"byteOffset":1968,"byteLength":288,"target":34962,"byteStride":12},{"buffer":0,"byteOffset":2256,"byteLength":192,"target":34962,"byteStride":8},{"buffer":0,"byteOffset":2448,"byteLength":72,"target":34963},{"buffer":0,"byteOffset":2520,"byteLength":288,"target":34962,"byteStride":12},{"buffer":0,"byteOffset":2808,"byteLength":288,"target":34962,"byteStride":12},{"buffer":0,"byteOffset":3096,"byteLength":192,"target":34962,"byteStride":8},{"buffer":0,"byteOffset":3288,"byteLength":72,"target":34963},{"buffer":0,"byteOffset":3360,"byteLength":288,"target":34962,"byteStride":12},{"buffer":0,"byteOffset":3648,"byteLength":288,"target":34962,"byteStride":12},{"buffer":0,"byteOffset":3936,"byteLength":192,"target":34962,"byteStride":8},{"buffer":0,"byteOffset":4128,"byteLength":72,"target":34963},{"buffer":0,"byteOffset":4200,"byteLength":288,"target":34962,"byteStride":12},{"buffer":0,"byteOffset":4488,"byteLength":288,"target":34962,"byteStride":12},{"buffer":0,"byteOffset":4776,"byteLength":192,"target":34962,"byteStride":8},{"buffer":0,"byteOffset":4968,"byteLength":72,"target":34963},{"buffer":0,"byteOffset":5040,"byteLength":288,"target":34962,"byteStride":12},{"buffer":0,"byteOffset":5328,"byteLength":288,"target":34962,"byteStride":12},{"buffer":0,"byteOffset":5616,"byteLength":192,"target":34962,"byteStride":8},{"buffer":0,"byteOffset":5808,"byteLength":72,"target":34963},{"buffer":0,"byteOffset":5880,"byteLength":288,"target":34962,"byteStride":12},{"buffer":0,"byteOffset":6168,"byteLength":288,"target":34962,"byteStride":12},{"buffer":0,"byteOffset":6456,"byteLength":192,"target":34962,"byteStride":8},{"buffer":0,"byteOffset":6648,"byteLength":72,"target":34963},{"buffer":0,"byteOffset":6720,"byteLength":16},{"buffer":0,"byteOffset":6736,"byteLength":48},{"buffer":0,"byteOffset":6784,"byteLength":68},{"buffer":0,"byteOffset":6852,"byteLength":204},{"buffer":0,"byteOffset":7056,"byteLength":108},{"buffer":0,"byteOffset":7164,"byteLength":432},{"buffer":0,"byteOffset":7596,"byteLength":148},{"buffer":0,"byteOffset":7744,"byteLength":444}],"buffers":[{"byteLength":8188,"uri":"data:application/octet-stream;base64,"}],"accessors":[{"bufferView":0,"componentType":5126,"count":24,"max":[-0.46875,-0.84375,0.4375],"min":[-0.59375,-0.96875,-0.5],"type":"VEC3"},{"bufferView":1,"componentType":5126,"count":24,"max":[1,1,1],"min":[-1,-1,-1],"type":"VEC3"},{"bufferView":2,"componentType":5126,"count":24,"max":[0.8046875,0.8359375],"min":[0,0.265625],"type":"VEC2"},{"bufferView":3,"componentType":5123,"count":36,"max":[23],"min":[0],"type":"SCALAR"},{"bufferView":4,"componentType":5126,"count":24,"max":[-0.44999998807907104,-0.824999988079071,0.45625001192092896],"min":[-0.612500011920929,-0.987500011920929,-0.518750011920929],"type":"VEC3"},{"bufferView":5,"componentType":5126,"count":24,"max":[1,1,1],"min":[-1,-1,-1],"type":"VEC3"},{"bufferView":6,"componentType":5126,"count":24,"max":[0.84375,0.8359375],"min":[0.3125,0],"type":"VEC2"},{"bufferView":7,"componentType":5123,"count":36,"max":[23],"min":[0],"type":"SCALAR"},{"bufferView":8,"componentType":5126,"count":24,"max":[-0.5311874747276306,-0.8125,0.25],"min":[-0.53125,-1.125,-0.1875],"type":"VEC3"},{"bufferView":9,"componentType":5126,"count":24,"max":[1,1,1],"min":[-1,-1,-1],"type":"VEC3"},{"bufferView":10,"componentType":5126,"count":24,"max":[0.765625,0.6640625],"min":[0,0],"type":"VEC2"},{"bufferView":11,"componentType":5123,"count":36,"max":[23],"min":[0],"type":"SCALAR"},{"bufferView":12,"componentType":5126,"count":24,"max":[-0.46875,-0.6875,-0.5],"min":[-0.59375,-1.0625,-0.625],"type":"VEC3"},{"bufferView":13,"componentType":5126,"count":24,"max":[1,1,1],"min":[-1,-1,-1],"type":"VEC3"},{"bufferView":14,"componentType":5126,"count":24,"max":[0.640625,0.7890625],"min":[0.328125,0.234375],"type":"VEC2"},{"bufferView":15,"componentType":5123,"count":36,"max":[23],"min":[0],"type":"SCALAR"},{"bufferView":16,"componentType":5126,"count":24,"max":[-0.44999998807907104,-0.668749988079071,-0.48124998807907104],"min":[-0.612500011920929,-1.0812499523162842,-0.643750011920929],"type":"VEC3"},{"bufferView":17,"componentType":5126,"count":24,"max":[1,1,1],"min":[-1,-1,-1],"type":"VEC3"},{"bufferView":18,"componentType":5126,"count":24,"max":[0.625,0.8359375],"min":[0.1015625,0.78125],"type":"VEC2"},{"bufferView":19,"componentType":5123,"count":36,"max":[23],"min":[0],"type":"SCALAR"},{"bufferView":20,"componentType":5126,"count":24,"max":[-0.5311874747276306,-0.5625,-0.375],"min":[-0.53125,-1.1875,-0.625],"type":"VEC3"},{"bufferView":21,"componentType":5126,"count":24,"max":[1,1,1],"min":[-1,-1,-1],"type":"VEC3"},{"bufferView":22,"componentType":5126,"count":24,"max":[0.359375,0.234375],"min":[0,0],"type":"VEC2"},{"bufferView":23,"componentType":5123,"count":36,"max":[23],"min":[0],"type":"SCALAR"},{"bufferView":24,"componentType":5126,"count":24,"max":[-0.5311874747276306,-0.71875,1],"min":[-0.53125,-1.15625,-1],"type":"VEC3"},{"bufferView":25,"componentType":5126,"count":24,"max":[1,1,1],"min":[-1,-1,-1],"type":"VEC3"},{"bufferView":26,"componentType":5126,"count":24,"max":[0.25,0.25],"min":[0,0],"type":"VEC2"},{"bufferView":27,"componentType":5123,"count":36,"max":[23],"min":[0],"type":"SCALAR"},{"bufferView":28,"componentType":5126,"count":24,"max":[-0.46875,-0.578125,0.0000625000029685907],"min":[-0.59375,-0.890625,0],"type":"VEC3"},{"bufferView":29,"componentType":5126,"count":24,"max":[1,1,1],"min":[-1,-1,-1],"type":"VEC3"},{"bufferView":30,"componentType":5126,"count":24,"max":[0.7109375,0.828125],"min":[0,0],"type":"VEC2"},{"bufferView":31,"componentType":5123,"count":36,"max":[23],"min":[0],"type":"SCALAR"},{"bufferView":32,"componentType":5126,"count":4,"max":[0.8500000238418579],"min":[0],"type":"SCALAR"},{"bufferView":33,"componentType":5126,"count":4,"max":[0,0,0],"min":[0,-0.0625,0],"type":"VEC3"},{"bufferView":34,"componentType":5126,"count":17,"max":[1.75],"min":[0],"type":"SCALAR"},{"bufferView":35,"componentType":5126,"count":17,"max":[0,0.6550604701042175,0],"min":[0,0,0],"type":"VEC3"},{"bufferView":36,"componentType":5126,"count":27,"max":[1.5],"min":[0],"type":"SCALAR"},{"bufferView":37,"componentType":5126,"count":27,"max":[0.7071067690849304,0,0,1],"min":[0,0,0,0.7071067690849304],"type":"VEC4"},{"bufferView":38,"componentType":5126,"count":37,"max":[2],"min":[0],"type":"SCALAR"},{"bufferView":39,"componentType":5126,"count":37,"max":[0,0.13078702986240387,0.0091552734375],"min":[0,0,-0.5],"type":"VEC3"}],"materials":[{"pbrMetallicRoughness":{"metallicFactor":0,"roughnessFactor":1,"baseColorTexture":{"index":0}},"alphaMode":"MASK","alphaCutoff":0.05,"doubleSided":true}],"textures":[{"sampler":0,"source":0,"name":"am_goblin_boss.png"}],"samplers":[{"magFilter":9728,"minFilter":9728,"wrapS":33071,"wrapT":33071}],"images":[{"mimeType":"image/png","uri":"data:image/png;base64,"}],"meshes":[{"primitives":[{"mode":4,"attributes":{"POSITION":0,"NORMAL":1,"TEXCOORD_0":2},"indices":3,"material":0}]},{"primitives":[{"mode":4,"attributes":{"POSITION":4,"NORMAL":5,"TEXCOORD_0":6},"indices":7,"material":0}]},{"primitives":[{"mode":4,"attributes":{"POSITION":8,"NORMAL":9,"TEXCOORD_0":10},"indices":11,"material":0}]},{"primitives":[{"mode":4,"attributes":{"POSITION":12,"NORMAL":13,"TEXCOORD_0":14},"indices":15,"material":0}]},{"primitives":[{"mode":4,"attributes":{"POSITION":16,"NORMAL":17,"TEXCOORD_0":18},"indices":19,"material":0}]},{"primitives":[{"mode":4,"attributes":{"POSITION":20,"NORMAL":21,"TEXCOORD_0":22},"indices":23,"material":0}]},{"primitives":[{"mode":4,"attributes":{"POSITION":24,"NORMAL":25,"TEXCOORD_0":26},"indices":27,"material":0}]},{"primitives":[{"mode":4,"attributes":{"POSITION":28,"NORMAL":29,"TEXCOORD_0":30},"indices":31,"material":0}]}],"animations":[{"name":"atk2","samplers":[{"input":32,"output":33,"interpolation":"LINEAR"}],"channels":[{"sampler":0,"target":{"node":9,"path":"translation"}}]},{"name":"atk4","samplers":[{"input":34,"output":35,"interpolation":"LINEAR"}],"channels":[{"sampler":0,"target":{"node":9,"path":"translation"}}]},{"name":"death","samplers":[{"input":36,"output":37,"interpolation":"LINEAR"},{"input":38,"output":39,"interpolation":"LINEAR"}],"channels":[{"sampler":0,"target":{"node":9,"path":"rotation"}},{"sampler":1,"target":{"node":9,"path":"translation"}}]}]}