{
  "asset": {
    "generator": "glTF-Transform v4.1.3",
    "version": "2.0"
  },
  "accessors": [
    {
      "type": "SCALAR",
      "componentType": 5126,
      "count": 4,
      "max": [
        2.4000000953674316
      ],
      "min": [
        0
      ],
      "bufferView": 0,
      "byteOffset": 0
    },
    {
      "type": "VEC3",
      "componentType": 5126,
      "count": 4,
      "bufferView": 0,
      "byteOffset": 16
    },
    {
      "type": "VEC4",
      "componentType": 5126,
      "count": 1,
      "bufferView": 0,
      "byteOffset": 64
    },
    {
      "type": "VEC4",
      "componentType": 5126,
      "count": 1,
      "bufferView": 0,
      "byteOffset": 80
    },
    {
      "type": "SCALAR",
      "componentType": 5126,
      "count": 27,
      "max": [
        4.559999942779541
      ],
      "min": [
        0
      ],
      "bufferView": 0,
      "byteOffset": 96
    },
    {
      "type": "VEC4",
      "componentType": 5126,
      "count": 27,
      "bufferView": 0,
      "byteOffset": 204
    },
    {
      "type": "SCALAR",
      "componentType": 5126,
      "count": 22,
      "max": [
        4.559999942779541
      ],
      "min": [
        0
      ],
      "bufferView": 0,
      "byteOffset": 636
    },
    {
      "type": "VEC3",
      "componentType": 5126,
      "count": 22,
      "bufferView": 0,
      "byteOffset": 724
    },
    {
      "type": "SCALAR",
      "componentType": 5126,
      "count": 59,
      "max": [
        4.559999942779541
      ],
      "min": [
        0
      ],
      "bufferView": 0,
      "byteOffset": 988
    },
    {
      "type": "VEC4",
      "componentType": 5126,
      "count": 59,
      "bufferView": 0,
      "byteOffset": 1224
    },
    {
      "type": "SCALAR",
      "componentType": 5126,
      "count": 12,
      "max": [
        4.559999942779541
      ],
      "min": [
        0
      ],
      "bufferView": 0,
      "byteOffset": 2168
    },
    {
      "type": "VEC3",
      "componentType": 5126,
      "count": 12,
      "bufferView": 0,
      "byteOffset": 2216
    },
    {
      "type": "VEC4",
      "componentType": 5126,
      "count": 59,
      "bufferView": 0,
      "byteOffset": 2360
    },
    {
      "type": "VEC3",
      "componentType": 5126,
      "count": 12,
      "bufferView": 0,
      "byteOffset": 3304
    },
    {
      "type": "SCALAR",
      "componentType": 5126,
      "count": 47,
      "max": [
        4.559999942779541
      ],
      "min": [
        0
      ],
      "bufferView": 0,
      "byteOffset": 3448
    },
    {
      "type": "VEC4",
      "componentType": 5126,
      "count": 47,
      "bufferView": 0,
      "byteOffset": 3636
    },
    {
      "type": "SCALAR",
      "componentType": 5126,
      "count": 1,
      "max": [
        0
      ],
      "min": [
        0
      ]
    },
    {
      "type": "SCALAR",
      "componentType": 5123,
      "count": 174,
      "bufferView": 1,
      "byteOffset": 0
    },
    {
      "type": "SCALAR",
      "componentType": 5123,
      "count": 72,
      "bufferView": 1,
      "byteOffset": 348
    },
    {
      "type": "SCALAR",
      "componentType": 5123,
      "count": 6,
      "bufferView": 1,
      "byteOffset": 492
    },
    {
      "type": "SCALAR",
      "componentType": 5123,
      "count": 132,
      "bufferView": 1,
      "byteOffset": 504
    },
    {
      "type": "SCALAR",
      "componentType": 5123,
      "count": 36,
      "bufferView": 1,
      "byteOffset": 768
    },
    {
      "type": "VEC3",
      "componentType": 5126,
      "count": 116,
      "max": [
        -0.3125,
        1.5625,
        0.25
      ],
      "min": [
        -0.5956711173057556,
        0.59375,
        -0.75
      ],
      "bufferView": 2,
      "byteOffset": 0
    },
    {
      "type": "VEC3",
      "componentType": 5126,
      "count": 116,
      "bufferView": 2,
      "byteOffset": 12
    },
    {
      "type": "VEC2",
      "componentType": 5126,
      "count": 116,
      "bufferView": 2,
      "byteOffset": 24
    },
    {
      "type": "VEC3",
      "componentType": 5126,
      "count": 48,
      "max": [
        0.5956711769104004,
        1.5625,
        0.12562501430511475
      ],
      "min": [
        0.3125,
        0.8125,
        -0.12562499940395355
      ],
      "bufferView": 3,
      "byteOffset": 0
    },
    {
      "type": "VEC2",
      "componentType": 5126,
      "count": 48,
      "bufferView": 3,
      "byteOffset": 12
    },
    {
      "type": "VEC3",
      "componentType": 5126,
      "count": 48,
      "bufferView": 3,
      "byteOffset": 20
    },
    {
      "type": "VEC3",
      "componentType": 5126,
      "count": 4,
      "max": [
        -0.15625,
        0.0625,
        -0.3125
      ],
      "min": [
        -0.28125,
        -0.0625,
        -0.3125
      ],
      "bufferView": 4,
      "byteOffset": 0
    },
    {
      "type": "VEC2",
      "componentType": 5126,
      "count": 4,
      "bufferView": 4,
      "byteOffset": 12
    },
    {
      "type": "VEC3",
      "componentType": 5126,
      "count": 4,
      "bufferView": 4,
      "byteOffset": 20
    },
    {
      "type": "VEC3",
      "componentType": 5126,
      "count": 4,
      "max": [
        -0.09375,
        0.125,
        -0.3125
      ],
      "min": [
        -0.34375,
        -0.0625,
        -0.3125
      ],
      "bufferView": 5,
      "byteOffset": 0
    },
    {
      "type": "VEC2",
      "componentType": 5126,
      "count": 4,
      "bufferView": 5,
      "byteOffset": 12
    },
    {
      "type": "VEC3",
      "componentType": 5126,
      "count": 4,
      "max": [
        0.28125,
        0.0625,
        -0.3125
      ],
      "min": [
        0.15625,
        -0.0625,
        -0.3125
      ],
      "bufferView": 6,
      "byteOffset": 0
    },
    {
      "type": "VEC2",
      "componentType": 5126,
      "count": 4,
      "bufferView": 6,
      "byteOffset": 12
    },
    {
      "type": "VEC3",
      "componentType": 5126,
      "count": 4,
      "max": [
        0.34375,
        0.125,
        -0.3125
      ],
      "min": [
        0.09375,
        -0.0625,
        -0.3125
      ],
      "bufferView": 7,
      "byteOffset": 0
    },
    {
      "type": "VEC2",
      "componentType": 5126,
      "count": 4,
      "bufferView": 7,
      "byteOffset": 12
    },
    {
      "type": "VEC3",
      "componentType": 5126,
      "count": 116,
      "max": [
        0.46875,
        0.8461928963661194,
        0.5717513561248779
      ],
      "min": [
        -0.46875,
        -0.25,
        -0.4857273995876312
      ],
      "bufferView": 8,
      "byteOffset": 0
    },
    {
      "type": "VEC2",
      "componentType": 5126,
      "count": 116,
      "bufferView": 8,
      "byteOffset": 12
    },
    {
      "type": "VEC3",
      "componentType": 5126,
      "count": 116,
      "bufferView": 8,
      "byteOffset": 20
    },
    {
      "type": "VEC3",
      "componentType": 5126,
      "count": 88,
      "max": [
        0.31312501430511475,
        0.12562502920627594,
        0.15687499940395355
      ],
      "min": [
        -0.31312501430511475,
        -1.1643972396850586,
        -0.41282919049263
      ],
      "bufferView": 9,
      "byteOffset": 0
    },
    {
      "type": "VEC2",
      "componentType": 5126,
      "count": 88,
      "bufferView": 9,
      "byteOffset": 12
    },
    {
      "type": "VEC3",
      "componentType": 5126,
      "count": 88,
      "bufferView": 9,
      "byteOffset": 20
    },
    {
      "type": "VEC3",
      "componentType": 5126,
      "count": 48,
      "max": [
        0.03125,
        -0.32201504707336426,
        0.599672794342041
      ],
      "min": [
        -0.34375,
        -0.625,
        0.18812499940395355
      ],
      "bufferView": 10,
      "byteOffset": 0
    },
    {
      "type": "VEC2",
      "componentType": 5126,
      "count": 48,
      "bufferView": 10,
      "byteOffset": 12
    },
    {
      "type": "VEC3",
      "componentType": 5126,
      "count": 48,
      "bufferView": 10,
      "byteOffset": 20
    },
    {
      "type": "VEC3",
      "componentType": 5126,
      "count": 24,
      "max": [
        -0.0625,
        0.1875,
        0.15625
      ],
      "min": [
        -0.3125,
        -0.5,
        -0.09375
      ],
      "bufferView": 11,
      "byteOffset": 0
    },
    {
      "type": "VEC2",
      "componentType": 5126,
      "count": 24,
      "bufferView": 11,
      "byteOffset": 12
    },
    {
      "type": "VEC3",
      "componentType": 5126,
      "count": 24,
      "bufferView": 11,
      "byteOffset": 20
    },
    {
      "type": "VEC2",
      "componentType": 5126,
      "count": 48,
      "bufferView": 12,
      "byteOffset": 0
    },
    {
      "type": "VEC3",
      "componentType": 5126,
      "count": 48,
      "max": [
        0.1875,
        0.125,
        0.34891700744628906
      ],
      "min": [
        -0.1875,
        -0.20192867517471313,
        -0.06929096579551697
      ],
      "bufferView": 12,
      "byteOffset": 8
    },
    {
      "type": "VEC3",
      "componentType": 5126,
      "count": 48,
      "bufferView": 12,
      "byteOffset": 20
    },
    {
      "type": "VEC3",
      "componentType": 5126,
      "count": 24,
      "max": [
        0.3125,
        0.1875,
        0.15625
      ],
      "min": [
        0.0625,
        -0.5,
        -0.09375
      ],
      "bufferView": 13,
      "byteOffset": 0
    },
    {
      "type": "VEC2",
      "componentType": 5126,
      "count": 24,
      "bufferView": 13,
      "byteOffset": 12
    },
    {
      "type": "VEC3",
      "componentType": 5126,
      "count": 24,
      "max": [
        0.4375,
        2.125,
        0.3125
      ],
      "min": [
        -0.4375,
        0,
        -0.4375
      ],
      "bufferView": 14,
      "byteOffset": 0
    },
    {
      "type": "VEC2",
      "componentType": 5126,
      "count": 24,
      "bufferView": 14,
      "byteOffset": 12
    }
  ],
  "bufferViews": [
    {
      "buffer": 0,
      "byteOffset": 0,
      "byteLength": 4388
    },
    {
      "buffer": 0,
      "byteOffset": 4388,
      "byteLength": 840,
      "target": 34963
    },
    {
      "buffer": 0,
      "byteOffset": 5228,
      "byteLength": 3712,
      "byteStride": 32,
      "target": 34962
    },
    {
      "buffer": 0,
      "byteOffset": 8940,
      "byteLength": 1536,
      "byteStride": 32,
      "target": 34962
    },
    {
      "buffer": 0,
      "byteOffset": 10476,
      "byteLength": 128,
      "byteStride": 32,
      "target": 34962
    },
    {
      "buffer": 0,
      "byteOffset": 10604,
      "byteLength": 80,
      "byteStride": 20,
      "target": 34962
    },
    {
      "buffer": 0,
      "byteOffset": 10684,
      "byteLength": 80,
      "byteStride": 20,
      "target": 34962
    },
    {
      "buffer": 0,
      "byteOffset": 10764,
      "byteLength": 80,
      "byteStride": 20,
      "target": 34962
    },
    {
      "buffer": 0,
      "byteOffset": 10844,
      "byteLength": 3712,
      "byteStride": 32,
      "target": 34962
    },
    {
      "buffer": 0,
      "byteOffset": 14556,
      "byteLength": 2816,
      "byteStride": 32,
      "target": 34962
    },
    {
      "buffer": 0,
      "byteOffset": 17372,
      "byteLength": 1536,
      "byteStride": 32,
      "target": 34962
    },
    {
      "buffer": 0,
      "byteOffset": 18908,
      "byteLength": 768,
      "byteStride": 32,
      "target": 34962
    },
    {
      "buffer": 0,
      "byteOffset": 19676,
      "byteLength": 1536,
      "byteStride": 32,
      "target": 34962
    },
    {
      "buffer": 0,
      "byteOffset": 21212,
      "byteLength": 480,
      "byteStride": 20,
      "target": 34962
    },
    {
      "buffer": 0,
      "byteOffset": 21692,
      "byteLength": 480,
      "byteStride": 20,
      "target": 34962
    }
  ],
  "samplers": [
    {
      "magFilter": 9728,
      "minFilter": 9728,
      "wrapS": 33071,
      "wrapT": 33071
    }
  ],
  "textures": [
    {
      "source": 0,
      "sampler": 0
    }
  ],
  "images": [
    {
      "mimeType": "image/png",
      "uri": "baseColor.png"
    }
  ],
  "buffers": [
    {
      "uri": "cook.bin",
      "byteLength": 22172
    }
  ],
  "materials": [
    {
      "alphaMode": "MASK",
      "alphaCutoff": 0.05,
      "doubleSided": true,
      "pbrMetallicRoughness": {
        "metallicFactor": 0,
        "baseColorTexture": {
          "index": 0
        }
      }
    },
    {
      "alphaMode": "MASK",
      "alphaCutoff": 0.2,
      "pbrMetallicRoughness": {
        "baseColorFactor": [
          0.00030352698352941176,
          0,
          0.00030352698352941176,
          0
        ],
        "metallicFactor": 0
      }
    }
  ],
  "meshes": [
    {
      "primitives": [
        {
          "attributes": {
            "POSITION": 22,
            "NORMAL": 23,
            "TEXCOORD_0": 24
          },
          "mode": 4,
          "material": 0,
          "indices": 17
        }
      ]
    },
    {
      "primitives": [
        {
          "attributes": {
            "POSITION": 25,
            "TEXCOORD_0": 26,
            "NORMAL": 27
          },
          "mode": 4,
          "material": 0,
          "indices": 18
        }
      ]
    },
    {
      "primitives": [
        {
          "attributes": {
            "POSITION": 28,
            "TEXCOORD_0": 29,
            "NORMAL": 30
          },
          "mode": 4,
          "material": 0,
          "indices": 19
        }
      ]
    },
    {
      "primitives": [
        {
          "attributes": {
            "POSITION": 31,
            "TEXCOORD_0": 32,
            "NORMAL": 30
          },
          "mode": 4,
          "material": 0,
          "indices": 19
        }
      ]
    },
    {
      "primitives": [
        {
          "attributes": {
            "POSITION": 33,
            "TEXCOORD_0": 34,
            "NORMAL": 30
          },
          "mode": 4,
          "material": 0,
          "indices": 19
        }
      ]
    },
    {
      "primitives": [
        {
          "attributes": {
            "POSITION": 35,
            "TEXCOORD_0": 36,
            "NORMAL": 30
          },
          "mode": 4,
          "material": 0,
          "indices": 19
        }
      ]
    },
    {
      "primitives": [
        {
          "attributes": {
            "POSITION": 37,
            "TEXCOORD_0": 38,
            "NORMAL": 39
          },
          "mode": 4,
          "material": 0,
          "indices": 17
        }
      ]
    },
    {
      "primitives": [
        {
          "attributes": {
            "POSITION": 40,
            "TEXCOORD_0": 41,
            "NORMAL": 42
          },
          "mode": 4,
          "material": 0,
          "indices": 20
        }
      ]
    },
    {
      "primitives": [
        {
          "attributes": {
            "POSITION": 43,
            "TEXCOORD_0": 44,
            "NORMAL": 45
          },
          "mode": 4,
          "material": 0,
          "indices": 18
        }
      ]
    },
    {
      "primitives": [
        {
          "attributes": {
            "POSITION": 46,
            "TEXCOORD_0": 47,
            "NORMAL": 48
          },
          "mode": 4,
          "material": 0,
          "indices": 21
        }
      ]
    },
    {
      "primitives": [
        {
          "attributes": {
            "TEXCOORD_0": 49,
            "POSITION": 50,
            "NORMAL": 51
          },
          "mode": 4,
          "material": 0,
          "indices": 18
        }
      ]
    },
    {
      "primitives": [
        {
          "attributes": {
            "POSITION": 52,
            "TEXCOORD_0": 53,
            "NORMAL": 48
          },
          "mode": 4,
          "material": 0,
          "indices": 21
        }
      ]
    },
    {
      "primitives": [
        {
          "attributes": {
            "POSITION": 54,
            "TEXCOORD_0": 55,
            "NORMAL": 48
          },
          "mode": 4,
          "material": 1
        }
      ]
    }
  ],
  "nodes": [
    {
      "name": "cube",
      "translation": [
        0.34375,
        -1.5,
        0
      ],
      "mesh": 0
    },
    {
      "name": "l_leftArm",
      "translation": [
        -0.3125,
        0.625,
        0
      ],
      "children": [
        0
      ]
    },
    {
      "name": "cube",
      "translation": [
        -0.34375,
        -1.5,
        0
      ],
      "mesh": 1
    },
    {
      "name": "r_rightArm",
      "translation": [
        0.3125,
        0.625,
        0
      ],
      "children": [
        2
      ]
    },
    {
      "name": "cube",
      "translation": [
        0.21875,
        0,
        0.3125
      ],
      "mesh": 2
    },
    {
      "name": "h_leftPupil",
      "translation": [
        0.03125,
        -0.03125,
        -0.0006249999999999867
      ],
      "children": [
        4
      ]
    },
    {
      "name": "cube",
      "translation": [
        0.21875,
        -0.03125,
        0.3125
      ],
      "mesh": 3
    },
    {
      "name": "h_leftEye",
      "translation": [
        -0.21875,
        0.21875,
        -0.28375
      ],
      "children": [
        5,
        6
      ]
    },
    {
      "name": "cube",
      "translation": [
        -0.21875,
        0,
        0.3125
      ],
      "mesh": 4
    },
    {
      "name": "h_rightPupil",
      "translation": [
        -0.03125,
        -0.03125,
        -0.0006249999999999867
      ],
      "children": [
        8
      ]
    },
    {
      "name": "cube",
      "translation": [
        -0.21875,
        -0.03125,
        0.3125
      ],
      "mesh": 5
    },
    {
      "name": "h_rightEye",
      "translation": [
        0.21875,
        0.21875,
        -0.28375
      ],
      "children": [
        9,
        10
      ]
    },
    {
      "name": "cube",
      "translation": [
        0,
        0.25,
        0.03125
      ],
      "mesh": 6
    },
    {
      "name": "h_head",
      "translation": [
        0,
        0.6875,
        0
      ],
      "children": [
        7,
        11,
        12
      ]
    },
    {
      "name": "cube",
      "translation": [
        0,
        0.5625,
        0
      ],
      "mesh": 7
    },
    {
      "name": "body",
      "translation": [
        0,
        0.8125,
        0
      ],
      "children": [
        1,
        3,
        13,
        14
      ]
    },
    {
      "name": "cube",
      "translation": [
        0.15625,
        0.4375,
        -0.4375
      ],
      "mesh": 8
    },
    {
      "name": "l_leftLeg2",
      "translation": [
        0,
        -0.5625,
        0
      ],
      "children": [
        16
      ]
    },
    {
      "name": "cube",
      "translation": [
        0.1875,
        -0.125,
        -0.03125
      ],
      "mesh": 9
    },
    {
      "name": "l_leftLeg",
      "translation": [
        -0.15625,
        0.75,
        0
      ],
      "children": [
        17,
        18
      ]
    },
    {
      "name": "cube",
      "translation": [
        0,
        0,
        -0.174375
      ],
      "rotation": [
        0.19509032201612825,
        0,
        0,
        0.9807852804032304
      ],
      "mesh": 10
    },
    {
      "name": "r_rightLeg2",
      "translation": [
        0,
        -0.5625,
        0
      ],
      "children": [
        20
      ]
    },
    {
      "name": "cube",
      "translation": [
        -0.1875,
        -0.125,
        -0.03125
      ],
      "mesh": 11
    },
    {
      "name": "r_rightLeg",
      "translation": [
        0.15625,
        0.75,
        0
      ],
      "children": [
        21,
        22
      ]
    },
    {
      "name": "cook",
      "children": [
        15,
        19,
        23
      ]
    },
    {
      "name": "cube",
      "mesh": 12
    }
  ],
  "animations": [
    {
      "name": "idle",
      "samplers": [
        {
          "input": 4,
          "output": 5,
          "interpolation": "LINEAR"
        },
        {
          "input": 6,
          "output": 7,
          "interpolation": "LINEAR"
        },
        {
          "input": 8,
          "output": 9,
          "interpolation": "LINEAR"
        },
        {
          "input": 10,
          "output": 11,
          "interpolation": "LINEAR"
        },
        {
          "input": 8,
          "output": 12,
          "interpolation": "LINEAR"
        },
        {
          "input": 10,
          "output": 13,
          "interpolation": "LINEAR"
        },
        {
          "input": 14,
          "output": 15,
          "interpolation": "LINEAR"
        },
        {
          "input": 0,
          "output": 1,
          "interpolation": "LINEAR"
        },
        {
          "input": 0,
          "output": 1,
          "interpolation": "LINEAR"
        },
        {
          "input": 16,
          "output": 2,
          "interpolation": "LINEAR"
        },
        {
          "input": 16,
          "output": 3,
          "interpolation": "LINEAR"
        }
      ],
      "channels": [
        {
          "sampler": 0,
          "target": {
            "node": 15,
            "path": "rotation"
          }
        },
        {
          "sampler": 1,
          "target": {
            "node": 15,
            "path": "translation"
          }
        },
        {
          "sampler": 2,
          "target": {
            "node": 1,
            "path": "rotation"
          }
        },
        {
          "sampler": 3,
          "target": {
            "node": 1,
            "path": "translation"
          }
        },
        {
          "sampler": 4,
          "target": {
            "node": 3,
            "path": "rotation"
          }
        },
        {
          "sampler": 5,
          "target": {
            "node": 3,
            "path": "translation"
          }
        },
        {
          "sampler": 6,
          "target": {
            "node": 13,
            "path": "rotation"
          }
        },
        {
          "sampler": 7,
          "target": {
            "node": 7,
            "path": "scale"
          }
        },
        {
          "sampler": 8,
          "target": {
            "node": 11,
            "path": "scale"
          }
        },
        {
          "sampler": 9,
          "target": {
            "node": 19,
            "path": "rotation"
          }
        },
        {
          "sampler": 10,
          "target": {
            "node": 23,
            "path": "rotation"
          }
        }
      ]
    }
  ],
  "scenes": [
    {
      "name": "blockbench_export",
      "nodes": [
        24,
        25
      ]
    }
  ],
  "scene": 0
}