{
  "asset": {
    "generator": "glTF-Transform v4.1.3",
    "version": "2.0"
  },
  "accessors": [
    {
      "type": "SCALAR",
      "componentType": 5126,
      "count": 1,
      "max": [
        0
      ],
      "min": [
        0
      ]
    },
    {
      "type": "VEC3",
      "componentType": 5126,
      "count": 1
    },
    {
      "type": "SCALAR",
      "componentType": 5126,
      "count": 2,
      "max": [
        0.25
      ],
      "min": [
        0
      ],
      "bufferView": 0,
      "byteOffset": 0
    },
    {
      "type": "VEC4",
      "componentType": 5126,
      "count": 2,
      "bufferView": 0,
      "byteOffset": 8
    },
    {
      "type": "VEC3",
      "componentType": 5126,
      "count": 2,
      "bufferView": 0,
      "byteOffset": 40
    },
    {
      "type": "SCALAR",
      "componentType": 5126,
      "count": 4,
      "max": [
        0.25
      ],
      "min": [
        0
      ],
      "bufferView": 0,
      "byteOffset": 64
    },
    {
      "type": "VEC3",
      "componentType": 5126,
      "count": 4,
      "bufferView": 0,
      "byteOffset": 80
    },
    {
      "type": "VEC4",
      "componentType": 5126,
      "count": 2,
      "bufferView": 0,
      "byteOffset": 128
    },
    {
      "type": "VEC3",
      "componentType": 5126,
      "count": 2,
      "bufferView": 0,
      "byteOffset": 160
    },
    {
      "type": "SCALAR",
      "componentType": 5126,
      "count": 3,
      "max": [
        0.25
      ],
      "min": [
        0
      ],
      "bufferView": 0,
      "byteOffset": 184
    },
    {
      "type": "VEC3",
      "componentType": 5126,
      "count": 3,
      "bufferView": 0,
      "byteOffset": 196
    },
    {
      "type": "VEC4",
      "componentType": 5126,
      "count": 2,
      "bufferView": 0,
      "byteOffset": 232
    },
    {
      "type": "VEC3",
      "componentType": 5126,
      "count": 2,
      "bufferView": 0,
      "byteOffset": 264
    },
    {
      "type": "VEC3",
      "componentType": 5126,
      "count": 3,
      "bufferView": 0,
      "byteOffset": 288
    },
    {
      "type": "VEC3",
      "componentType": 5126,
      "count": 2,
      "bufferView": 0,
      "byteOffset": 324
    },
    {
      "type": "SCALAR",
      "componentType": 5126,
      "count": 3,
      "max": [
        0.25
      ],
      "min": [
        0
      ],
      "bufferView": 0,
      "byteOffset": 348
    },
    {
      "type": "VEC4",
      "componentType": 5126,
      "count": 2,
      "bufferView": 0,
      "byteOffset": 360
    },
    {
      "type": "VEC3",
      "componentType": 5126,
      "count": 2,
      "bufferView": 0,
      "byteOffset": 392
    },
    {
      "type": "SCALAR",
      "componentType": 5126,
      "count": 3,
      "max": [
        0.25
      ],
      "min": [
        0
      ],
      "bufferView": 0,
      "byteOffset": 416
    },
    {
      "type": "VEC3",
      "componentType": 5126,
      "count": 3,
      "bufferView": 0,
      "byteOffset": 428
    },
    {
      "type": "VEC3",
      "componentType": 5126,
      "count": 2,
      "bufferView": 0,
      "byteOffset": 464
    },
    {
      "type": "VEC4",
      "componentType": 5126,
      "count": 1,
      "bufferView": 0,
      "byteOffset": 488
    },
    {
      "type": "VEC3",
      "componentType": 5126,
      "count": 1,
      "bufferView": 0,
      "byteOffset": 504
    },
    {
      "type": "SCALAR",
      "componentType": 5126,
      "count": 3,
      "max": [
        0.30000001192092896
      ],
      "min": [
        0
      ],
      "bufferView": 0,
      "byteOffset": 516
    },
    {
      "type": "VEC3",
      "componentType": 5126,
      "count": 3,
      "bufferView": 0,
      "byteOffset": 528
    },
    {
      "type": "SCALAR",
      "componentType": 5126,
      "count": 2,
      "max": [
        0.30000001192092896
      ],
      "min": [
        0
      ],
      "bufferView": 0,
      "byteOffset": 564
    },
    {
      "type": "SCALAR",
      "componentType": 5126,
      "count": 3,
      "max": [
        0.30000001192092896
      ],
      "min": [
        0
      ],
      "bufferView": 0,
      "byteOffset": 572
    },
    {
      "type": "SCALAR",
      "componentType": 5126,
      "count": 3,
      "max": [
        0.25
      ],
      "min": [
        0
      ],
      "bufferView": 0,
      "byteOffset": 584
    },
    {
      "type": "SCALAR",
      "componentType": 5123,
      "count": 36,
      "bufferView": 1,
      "byteOffset": 0
    },
    {
      "type": "VEC3",
      "componentType": 5126,
      "count": 24,
      "max": [
        0.5625,
        0.625,
        2.625
      ],
      "min": [
        -0.0625,
        0,
        2
      ],
      "bufferView": 2,
      "byteOffset": 0
    },
    {
      "type": "VEC3",
      "componentType": 5126,
      "count": 24,
      "bufferView": 2,
      "byteOffset": 12
    },
    {
      "type": "VEC2",
      "componentType": 5126,
      "count": 24,
      "bufferView": 2,
      "byteOffset": 24
    },
    {
      "type": "VEC3",
      "componentType": 5126,
      "count": 24,
      "max": [
        2.625,
        0.625,
        0.0625
      ],
      "min": [
        2,
        0,
        -0.5625
      ],
      "bufferView": 3,
      "byteOffset": 0
    },
    {
      "type": "VEC2",
      "componentType": 5126,
      "count": 24,
      "bufferView": 3,
      "byteOffset": 12
    }
  ],
  "bufferViews": [
    {
      "buffer": 0,
      "byteOffset": 0,
      "byteLength": 596
    },
    {
      "buffer": 0,
      "byteOffset": 596,
      "byteLength": 72,
      "target": 34963
    },
    {
      "buffer": 0,
      "byteOffset": 668,
      "byteLength": 768,
      "byteStride": 32,
      "target": 34962
    },
    {
      "buffer": 0,
      "byteOffset": 1436,
      "byteLength": 480,
      "byteStride": 20,
      "target": 34962
    }
  ],
  "samplers": [
    {
      "magFilter": 9728,
      "minFilter": 9728,
      "wrapS": 33071,
      "wrapT": 33071
    }
  ],
  "textures": [
    {
      "source": 0,
      "sampler": 0
    }
  ],
  "images": [
    {
      "mimeType": "image/png",
      "uri": "baseColor.png"
    }
  ],
  "buffers": [
    {
      "uri": "smoke-puff-named-nodes.bin",
      "byteLength": 1916
    }
  ],
  "materials": [
    {
      "alphaMode": "MASK",
      "alphaCutoff": 0.05,
      "doubleSided": true,
      "pbrMetallicRoughness": {
        "metallicFactor": 0,
        "baseColorTexture": {
          "index": 0
        }
      }
    }
  ],
  "meshes": [
    {
      "primitives": [
        {
          "attributes": {
            "POSITION": 29,
            "NORMAL": 30,
            "TEXCOORD_0": 31
          },
          "mode": 4,
          "material": 0,
          "indices": 28
        }
      ]
    },
    {
      "primitives": [
        {
          "attributes": {
            "POSITION": 32,
            "TEXCOORD_0": 33,
            "NORMAL": 30
          },
          "mode": 4,
          "material": 0,
          "indices": 28
        }
      ]
    },
    {
      "primitives": [
        {
          "attributes": {
            "POSITION": 32,
            "NORMAL": 30,
            "TEXCOORD_0": 33
          },
          "mode": 4,
          "material": 0,
          "indices": 28
        }
      ]
    }
  ],
  "nodes": [
    {
      "name": "cube",
      "translation": [
        -0.25,
        -0.3125,
        -2.3125
      ],
      "mesh": 0
    },
    {
      "name": "ef_smoke",
      "translation": [
        0,
        0.3125,
        0
      ],
      "children": [
        0
      ]
    },
    {
      "name": "cube",
      "translation": [
        -0.25,
        -0.3125,
        -2.3125
      ],
      "mesh": 0
    },
    {
      "name": "ef_smoke2",
      "translation": [
        0,
        0.3125,
        0
      ],
      "children": [
        2
      ]
    },
    {
      "name": "cube",
      "translation": [
        -0.25,
        -0.3125,
        -2.3125
      ],
      "mesh": 0
    },
    {
      "name": "ef_smoke3",
      "translation": [
        0,
        0.3125,
        0
      ],
      "children": [
        4
      ]
    },
    {
      "name": "cube",
      "translation": [
        -0.25,
        -0.3125,
        -2.3125
      ],
      "mesh": 0
    },
    {
      "name": "ef_smoke4",
      "translation": [
        0,
        0.3125,
        0
      ],
      "children": [
        6
      ]
    },
    {
      "name": "cube",
      "translation": [
        -0.25,
        -0.3125,
        -2.3125
      ],
      "mesh": 0
    },
    {
      "name": "ef_smoke5",
      "translation": [
        0,
        0.3125,
        0
      ],
      "children": [
        8
      ]
    },
    {
      "name": "cube",
      "translation": [
        -0.25,
        -0.3125,
        -2.3125
      ],
      "mesh": 0
    },
    {
      "name": "ef_smoke6",
      "translation": [
        0,
        0.3125,
        0
      ],
      "children": [
        10
      ]
    },
    {
      "name": "ef_smokes",
      "children": [
        1,
        3,
        5,
        7,
        9,
        11
      ]
    },
    {
      "name": "cube",
      "translation": [
        -0.25,
        -0.3125,
        -2.3125
      ],
      "mesh": 0
    },
    {
      "name": "ef_smoke7",
      "translation": [
        0,
        0.3125,
        0
      ],
      "children": [
        13
      ]
    },
    {
      "name": "cube",
      "translation": [
        -2.3125,
        -0.3125,
        0.25
      ],
      "mesh": 1
    },
    {
      "name": "ef_smoke8",
      "translation": [
        0,
        0.3125,
        0
      ],
      "children": [
        15
      ]
    },
    {
      "name": "cube",
      "translation": [
        -2.3125,
        -0.3125,
        0.25
      ],
      "mesh": 2
    },
    {
      "name": "ef_smoke9",
      "translation": [
        0,
        0.3125,
        0
      ],
      "children": [
        17
      ]
    },
    {
      "name": "cube",
      "translation": [
        -2.3125,
        -0.3125,
        0.25
      ],
      "mesh": 2
    },
    {
      "name": "ef_smoke10",
      "translation": [
        0,
        0.3125,
        0
      ],
      "children": [
        19
      ]
    },
    {
      "name": "cube",
      "translation": [
        -2.3125,
        -0.3125,
        0.25
      ],
      "mesh": 2
    },
    {
      "name": "ef_smoke11",
      "translation": [
        0,
        0.3125,
        0
      ],
      "children": [
        21
      ]
    },
    {
      "name": "cube",
      "translation": [
        -2.3125,
        -0.3125,
        0.25
      ],
      "mesh": 2
    },
    {
      "name": "ef_smoke12",
      "translation": [
        0,
        0.3125,
        0
      ],
      "children": [
        23
      ]
    },
    {
      "name": "ef_smokes2",
      "children": [
        14,
        16,
        18,
        20,
        22,
        24
      ]
    },
    {
      "children": [
        12,
        25
      ]
    }
  ],
  "animations": [
    {
      "name": "idle",
      "samplers": [
        {
          "input": 0,
          "output": 1,
          "interpolation": "STEP"
        },
        {
          "input": 0,
          "output": 1,
          "interpolation": "STEP"
        }
      ],
      "channels": [
        {
          "sampler": 0,
          "target": {
            "node": 12,
            "path": "scale"
          }
        },
        {
          "sampler": 1,
          "target": {
            "node": 25,
            "path": "scale"
          }
        }
      ]
    },
    {
      "name": "walk",
      "samplers": [
        {
          "input": 0,
          "output": 1,
          "interpolation": "STEP"
        },
        {
          "input": 0,
          "output": 1,
          "interpolation": "STEP"
        }
      ],
      "channels": [
        {
          "sampler": 0,
          "target": {
            "node": 12,
            "path": "scale"
          }
        },
        {
          "sampler": 1,
          "target": {
            "node": 25,
            "path": "scale"
          }
        }
      ]
    },
    {
      "name": "spawn",
      "samplers": [
        {
          "input": 2,
          "output": 3,
          "interpolation": "LINEAR"
        },
        {
          "input": 2,
          "output": 4,
          "interpolation": "LINEAR"
        },
        {
          "input": 5,
          "output": 6,
          "interpolation": "LINEAR"
        },
        {
          "input": 2,
          "output": 7,
          "interpolation": "LINEAR"
        },
        {
          "input": 2,
          "output": 8,
          "interpolation": "LINEAR"
        },
        {
          "input": 9,
          "output": 10,
          "interpolation": "LINEAR"
        },
        {
          "input": 2,
          "output": 11,
          "interpolation": "LINEAR"
        },
        {
          "input": 2,
          "output": 12,
          "interpolation": "LINEAR"
        },
        {
          "input": 9,
          "output": 13,
          "interpolation": "LINEAR"
        },
        {
          "input": 2,
          "output": 11,
          "interpolation": "LINEAR"
        },
        {
          "input": 2,
          "output": 14,
          "interpolation": "LINEAR"
        },
        {
          "input": 15,
          "output": 10,
          "interpolation": "LINEAR"
        },
        {
          "input": 2,
          "output": 16,
          "interpolation": "LINEAR"
        },
        {
          "input": 2,
          "output": 17,
          "interpolation": "LINEAR"
        },
        {
          "input": 18,
          "output": 19,
          "interpolation": "LINEAR"
        },
        {
          "input": 2,
          "output": 7,
          "interpolation": "LINEAR"
        },
        {
          "input": 2,
          "output": 20,
          "interpolation": "LINEAR"
        },
        {
          "input": 15,
          "output": 13,
          "interpolation": "LINEAR"
        },
        {
          "input": 0,
          "output": 21,
          "interpolation": "LINEAR"
        },
        {
          "input": 0,
          "output": 22,
          "interpolation": "LINEAR"
        },
        {
          "input": 23,
          "output": 24,
          "interpolation": "LINEAR"
        },
        {
          "input": 25,
          "output": 7,
          "interpolation": "LINEAR"
        },
        {
          "input": 25,
          "output": 8,
          "interpolation": "LINEAR"
        },
        {
          "input": 26,
          "output": 10,
          "interpolation": "LINEAR"
        },
        {
          "input": 2,
          "output": 7,
          "interpolation": "LINEAR"
        },
        {
          "input": 2,
          "output": 8,
          "interpolation": "LINEAR"
        },
        {
          "input": 15,
          "output": 10,
          "interpolation": "LINEAR"
        },
        {
          "input": 2,
          "output": 11,
          "interpolation": "LINEAR"
        },
        {
          "input": 2,
          "output": 12,
          "interpolation": "LINEAR"
        },
        {
          "input": 18,
          "output": 13,
          "interpolation": "LINEAR"
        },
        {
          "input": 2,
          "output": 11,
          "interpolation": "LINEAR"
        },
        {
          "input": 2,
          "output": 14,
          "interpolation": "LINEAR"
        },
        {
          "input": 27,
          "output": 10,
          "interpolation": "LINEAR"
        },
        {
          "input": 2,
          "output": 16,
          "interpolation": "LINEAR"
        },
        {
          "input": 2,
          "output": 17,
          "interpolation": "LINEAR"
        },
        {
          "input": 18,
          "output": 19,
          "interpolation": "LINEAR"
        },
        {
          "input": 2,
          "output": 7,
          "interpolation": "LINEAR"
        },
        {
          "input": 2,
          "output": 20,
          "interpolation": "LINEAR"
        },
        {
          "input": 9,
          "output": 13,
          "interpolation": "LINEAR"
        },
        {
          "input": 23,
          "output": 24,
          "interpolation": "LINEAR"
        }
      ],
      "channels": [
        {
          "sampler": 0,
          "target": {
            "node": 1,
            "path": "rotation"
          }
        },
        {
          "sampler": 1,
          "target": {
            "node": 1,
            "path": "translation"
          }
        },
        {
          "sampler": 2,
          "target": {
            "node": 1,
            "path": "scale"
          }
        },
        {
          "sampler": 3,
          "target": {
            "node": 3,
            "path": "rotation"
          }
        },
        {
          "sampler": 4,
          "target": {
            "node": 3,
            "path": "translation"
          }
        },
        {
          "sampler": 5,
          "target": {
            "node": 3,
            "path": "scale"
          }
        },
        {
          "sampler": 6,
          "target": {
            "node": 5,
            "path": "rotation"
          }
        },
        {
          "sampler": 7,
          "target": {
            "node": 5,
            "path": "translation"
          }
        },
        {
          "sampler": 8,
          "target": {
            "node": 5,
            "path": "scale"
          }
        },
        {
          "sampler": 9,
          "target": {
            "node": 7,
            "path": "rotation"
          }
        },
        {
          "sampler": 10,
          "target": {
            "node": 7,
            "path": "translation"
          }
        },
        {
          "sampler": 11,
          "target": {
            "node": 7,
            "path": "scale"
          }
        },
        {
          "sampler": 12,
          "target": {
            "node": 9,
            "path": "rotation"
          }
        },
        {
          "sampler": 13,
          "target": {
            "node": 9,
            "path": "translation"
          }
        },
        {
          "sampler": 14,
          "target": {
            "node": 9,
            "path": "scale"
          }
        },
        {
          "sampler": 15,
          "target": {
            "node": 11,
            "path": "rotation"
          }
        },
        {
          "sampler": 16,
          "target": {
            "node": 11,
            "path": "translation"
          }
        },
        {
          "sampler": 17,
          "target": {
            "node": 11,
            "path": "scale"
          }
        },
        {
          "sampler": 18,
          "target": {
            "node": 25,
            "path": "rotation"
          }
        },
        {
          "sampler": 19,
          "target": {
            "node": 25,
            "path": "translation"
          }
        },
        {
          "sampler": 20,
          "target": {
            "node": 25,
            "path": "scale"
          }
        },
        {
          "sampler": 21,
          "target": {
            "node": 14,
            "path": "rotation"
          }
        },
        {
          "sampler": 22,
          "target": {
            "node": 14,
            "path": "translation"
          }
        },
        {
          "sampler": 23,
          "target": {
            "node": 14,
            "path": "scale"
          }
        },
        {
          "sampler": 24,
          "target": {
            "node": 16,
            "path": "rotation"
          }
        },
        {
          "sampler": 25,
          "target": {
            "node": 16,
            "path": "translation"
          }
        },
        {
          "sampler": 26,
          "target": {
            "node": 16,
            "path": "scale"
          }
        },
        {
          "sampler": 27,
          "target": {
            "node": 18,
            "path": "rotation"
          }
        },
        {
          "sampler": 28,
          "target": {
            "node": 18,
            "path": "translation"
          }
        },
        {
          "sampler": 29,
          "target": {
            "node": 18,
            "path": "scale"
          }
        },
        {
          "sampler": 30,
          "target": {
            "node": 20,
            "path": "rotation"
          }
        },
        {
          "sampler": 31,
          "target": {
            "node": 20,
            "path": "translation"
          }
        },
        {
          "sampler": 32,
          "target": {
            "node": 20,
            "path": "scale"
          }
        },
        {
          "sampler": 33,
          "target": {
            "node": 22,
            "path": "rotation"
          }
        },
        {
          "sampler": 34,
          "target": {
            "node": 22,
            "path": "translation"
          }
        },
        {
          "sampler": 35,
          "target": {
            "node": 22,
            "path": "scale"
          }
        },
        {
          "sampler": 36,
          "target": {
            "node": 24,
            "path": "rotation"
          }
        },
        {
          "sampler": 37,
          "target": {
            "node": 24,
            "path": "translation"
          }
        },
        {
          "sampler": 38,
          "target": {
            "node": 24,
            "path": "scale"
          }
        },
        {
          "sampler": 39,
          "target": {
            "node": 12,
            "path": "scale"
          }
        }
      ]
    }
  ],
  "scenes": [
    {
      "name": "blockbench_export",
      "nodes": [
        26
      ]
    }
  ],
  "scene": 0
}