{"asset":{"version":"2.0","generator":"Blockbench 4.12.5 glTF exporter"},"scenes":[{"nodes":[18],"name":"blockbench_export"}],"scene":0,"nodes":[{"translation":[0.03125,-0.373046875,-0.1328125],"name":"cube","mesh":0},{"translation":[0.03125,-0.373046875,-0.1328125],"name":"cube","mesh":1},{"rotation":[0,0.7071067811865475,0,0.7071067811865476],"translation":[0.09375,0.095703125,-0.0703125],"name":"cube","mesh":2},{"rotation":[0,-0.7071067811865475,0,0.7071067811865476],"translation":[-0.21875,0.033203125,-0.3046875],"name":"cube","mesh":3},{"translation":[0.03125,-0.373046875,-0.1328125],"name":"cube","mesh":4},{"translation":[0.03125,-0.373046875,-0.1328125],"name":"cube","mesh":5},{"translation":[-1.46875,-0.373046875,-0.1328125],"name":"cube","mesh":6},{"translation":[-1.46875,-0.373046875,-0.1328125],"name":"cube","mesh":7},{"rotation":[0,0.7071067811865475,0,0.7071067811865476],"translation":[0.34375,0.033203125,0.2578125],"name":"cube","mesh":8},{"translation":[-0.78125,-0.373046875,-0.1328125],"name":"cube","mesh":9},{"rotation":[0,0.7071067811865475,0,0.7071067811865476],"translation":[-0.21875,0.345703125,0.1171875],"name":"cube","mesh":10},{"translation":[-0.78125,-0.373046875,-0.1328125],"name":"cube","mesh":11},{"translation":[0.0625,0.189453125,-0.0234375],"name":"cube","mesh":12},{"translation":[0.0625,0.189453125,-0.0234375],"name":"cube","mesh":13},{"translation":[0.0625,0.189453125,-0.0234375],"name":"cube","mesh":14},{"translation":[0.0625,0.189453125,-0.0234375],"name":"cube","mesh":15},{"translation":[-0.03125,0.373046875,0.0078125],"name":"candles_2","children":[0,1,2,3,4,5,6,7,8,9,10,11,12,13,14,15]},{"name":"root","children":[16]},{"children":[17]}],"bufferViews":[{"buffer":0,"byteOffset":0,"byteLength":288,"target":34962,"byteStride":12},{"buffer":0,"byteOffset":288,"byteLength":288,"target":34962,"byteStride":12},{"buffer":0,"byteOffset":576,"byteLength":192,"target":34962,"byteStride":8},{"buffer":0,"byteOffset":768,"byteLength":72,"target":34963},{"buffer":0,"byteOffset":840,"byteLength":288,"target":34962,"byteStride":12},{"buffer":0,"byteOffset":1128,"byteLength":288,"target":34962,"byteStride":12},{"buffer":0,"byteOffset":1416,"byteLength":192,"target":34962,"byteStride":8},{"buffer":0,"byteOffset":1608,"byteLength":72,"target":34963},{"buffer":0,"byteOffset":1680,"byteLength":240,"target":34962,"byteStride":12},{"buffer":0,"byteOffset":1920,"byteLength":240,"target":34962,"byteStride":12},{"buffer":0,"byteOffset":2160,"byteLength":160,"target":34962,"byteStride":8},{"buffer":0,"byteOffset":2320,"byteLength":60,"target":34963},{"buffer":0,"byteOffset":2380,"byteLength":240,"target":34962,"byteStride":12},{"buffer":0,"byteOffset":2620,"byteLength":240,"target":34962,"byteStride":12},{"buffer":0,"byteOffset":2860,"byteLength":160,"target":34962,"byteStride":8},{"buffer":0,"byteOffset":3020,"byteLength":60,"target":34963},{"buffer":0,"byteOffset":3080,"byteLength":288,"target":34962,"byteStride":12},{"buffer":0,"byteOffset":3368,"byteLength":288,"target":34962,"byteStride":12},{"buffer":0,"byteOffset":3656,"byteLength":192,"target":34962,"byteStride":8},{"buffer":0,"byteOffset":3848,"byteLength":72,"target":34963},{"buffer":0,"byteOffset":3920,"byteLength":288,"target":34962,"byteStride":12},{"buffer":0,"byteOffset":4208,"byteLength":288,"target":34962,"byteStride":12},{"buffer":0,"byteOffset":4496,"byteLength":192,"target":34962,"byteStride":8},{"buffer":0,"byteOffset":4688,"byteLength":72,"target":34963},{"buffer":0,"byteOffset":4760,"byteLength":288,"target":34962,"byteStride":12},{"buffer":0,"byteOffset":5048,"byteLength":288,"target":34962,"byteStride":12},{"buffer":0,"byteOffset":5336,"byteLength":192,"target":34962,"byteStride":8},{"buffer":0,"byteOffset":5528,"byteLength":72,"target":34963},{"buffer":0,"byteOffset":5600,"byteLength":288,"target":34962,"byteStride":12},{"buffer":0,"byteOffset":5888,"byteLength":288,"target":34962,"byteStride":12},{"buffer":0,"byteOffset":6176,"byteLength":192,"target":34962,"byteStride":8},{"buffer":0,"byteOffset":6368,"byteLength":72,"target":34963},{"buffer":0,"byteOffset":6440,"byteLength":240,"target":34962,"byteStride":12},{"buffer":0,"byteOffset":6680,"byteLength":240,"target":34962,"byteStride":12},{"buffer":0,"byteOffset":6920,"byteLength":160,"target":34962,"byteStride":8},{"buffer":0,"byteOffset":7080,"byteLength":60,"target":34963},{"buffer":0,"byteOffset":7140,"byteLength":288,"target":34962,"byteStride":12},{"buffer":0,"byteOffset":7428,"byteLength":288,"target":34962,"byteStride":12},{"buffer":0,"byteOffset":7716,"byteLength":192,"target":34962,"byteStride":8},{"buffer":0,"byteOffset":7908,"byteLength":72,"target":34963},{"buffer":0,"byteOffset":7980,"byteLength":240,"target":34962,"byteStride":12},{"buffer":0,"byteOffset":8220,"byteLength":240,"target":34962,"byteStride":12},{"buffer":0,"byteOffset":8460,"byteLength":160,"target":34962,"byteStride":8},{"buffer":0,"byteOffset":8620,"byteLength":60,"target":34963},{"buffer":0,"byteOffset":8680,"byteLength":288,"target":34962,"byteStride":12},{"buffer":0,"byteOffset":8968,"byteLength":288,"target":34962,"byteStride":12},{"buffer":0,"byteOffset":9256,"byteLength":192,"target":34962,"byteStride":8},{"buffer":0,"byteOffset":9448,"byteLength":72,"target":34963},{"buffer":0,"byteOffset":9520,"byteLength":240,"target":34962,"byteStride":12},{"buffer":0,"byteOffset":9760,"byteLength":240,"target":34962,"byteStride":12},{"buffer":0,"byteOffset":10000,"byteLength":160,"target":34962,"byteStride":8},{"buffer":0,"byteOffset":10160,"byteLength":60,"target":34963},{"buffer":0,"byteOffset":10220,"byteLength":240,"target":34962,"byteStride":12},{"buffer":0,"byteOffset":10460,"byteLength":240,"target":34962,"byteStride":12},{"buffer":0,"byteOffset":10700,"byteLength":160,"target":34962,"byteStride":8},{"buffer":0,"byteOffset":10860,"byteLength":60,"target":34963},{"buffer":0,"byteOffset":10920,"byteLength":240,"target":34962,"byteStride":12},{"buffer":0,"byteOffset":11160,"byteLength":240,"target":34962,"byteStride":12},{"buffer":0,"byteOffset":11400,"byteLength":160,"target":34962,"byteStride":8},{"buffer":0,"byteOffset":11560,"byteLength":60,"target":34963},{"buffer":0,"byteOffset":11620,"byteLength":240,"target":34962,"byteStride":12},{"buffer":0,"byteOffset":11860,"byteLength":240,"target":34962,"byteStride":12},{"buffer":0,"byteOffset":12100,"byteLength":160,"target":34962,"byteStride":8},{"buffer":0,"byteOffset":12260,"byteLength":60,"target":34963}],"buffers":[{"byteLength":12320,"uri":"data:application/octet-stream;base64,"}],"accessors":[{"bufferView":0,"componentType":5126,"count":24,"max":[0.1875,0.4375,0.1875],"min":[-0.0625,0,-0.0625],"type":"VEC3"},{"bufferView":1,"componentType":5126,"count":24,"max":[1,1,1],"min":[-1,-1,-1],"type":"VEC3"},{"bufferView":2,"componentType":5126,"count":24,"max":[0.249755859375,0.406005859375],"min":[0.000244140625,0.234619140625],"type":"VEC2"},{"bufferView":3,"componentType":5123,"count":36,"max":[23],"min":[0],"type":"SCALAR"},{"bufferView":4,"componentType":5126,"count":24,"max":[0.21875,0.46875,0.21875],"min":[-0.09375,0.15625,-0.09375],"type":"VEC3"},{"bufferView":5,"componentType":5126,"count":24,"max":[1,1,1],"min":[-1,-1,-1],"type":"VEC3"},{"bufferView":6,"componentType":5126,"count":24,"max":[0.515380859375,0.124755859375],"min":[0.265869140625,0.000244140625],"type":"VEC2"},{"bufferView":7,"componentType":5123,"count":36,"max":[23],"min":[0],"type":"SCALAR"},{"bufferView":8,"componentType":5126,"count":20,"max":[0.03125,0.0625,0],"min":[-0.03125,-0.0625,0],"type":"VEC3"},{"bufferView":9,"componentType":5126,"count":20,"max":[1,0,0],"min":[0,0,-1],"type":"VEC3"},{"bufferView":10,"componentType":5126,"count":20,"max":[0.28125,0.3125],"min":[0,0],"type":"VEC2"},{"bufferView":11,"componentType":5123,"count":30,"max":[19],"min":[0],"type":"SCALAR"},{"bufferView":12,"componentType":5126,"count":20,"max":[0.03125,0.0625,0],"min":[-0.03125,-0.0625,0],"type":"VEC3"},{"bufferView":13,"componentType":5126,"count":20,"max":[1,0,0],"min":[0,0,-1],"type":"VEC3"},{"bufferView":14,"componentType":5126,"count":20,"max":[0.3125,0.3125],"min":[0,0],"type":"VEC2"},{"bufferView":15,"componentType":5123,"count":30,"max":[19],"min":[0],"type":"SCALAR"},{"bufferView":16,"componentType":5126,"count":24,"max":[-0.125,0.25,-0.046875],"min":[-0.375,0,-0.296875],"type":"VEC3"},{"bufferView":17,"componentType":5126,"count":24,"max":[1,1,1],"min":[-1,-1,-1],"type":"VEC3"},{"bufferView":18,"componentType":5126,"count":24,"max":[0.515380859375,0.265380859375],"min":[0.265869140625,0.140869140625],"type":"VEC2"},{"bufferView":19,"componentType":5123,"count":36,"max":[23],"min":[0],"type":"SCALAR"},{"bufferView":20,"componentType":5126,"count":24,"max":[-0.09375,0.34375,-0.015625],"min":[-0.40625,0.03125,-0.328125],"type":"VEC3"},{"bufferView":21,"componentType":5126,"count":24,"max":[1,1,1],"min":[-1,-1,-1],"type":"VEC3"},{"bufferView":22,"componentType":5126,"count":24,"max":[0.515380859375,0.124755859375],"min":[0.265869140625,0.000244140625],"type":"VEC2"},{"bufferView":23,"componentType":5123,"count":36,"max":[23],"min":[0],"type":"SCALAR"},{"bufferView":24,"componentType":5126,"count":24,"max":[1.9375,0.25,0.515625],"min":[1.6875,0,0.265625],"type":"VEC3"},{"bufferView":25,"componentType":5126,"count":24,"max":[1,1,1],"min":[-1,-1,-1],"type":"VEC3"},{"bufferView":26,"componentType":5126,"count":24,"max":[0.515380859375,0.265380859375],"min":[0.265869140625,0.140869140625],"type":"VEC2"},{"bufferView":27,"componentType":5123,"count":36,"max":[23],"min":[0],"type":"SCALAR"},{"bufferView":28,"componentType":5126,"count":24,"max":[1.96875,0.34375,0.546875],"min":[1.65625,0.03125,0.234375],"type":"VEC3"},{"bufferView":29,"componentType":5126,"count":24,"max":[1,1,1],"min":[-1,-1,-1],"type":"VEC3"},{"bufferView":30,"componentType":5126,"count":24,"max":[0.515380859375,0.124755859375],"min":[0.265869140625,0.000244140625],"type":"VEC2"},{"bufferView":31,"componentType":5123,"count":36,"max":[23],"min":[0],"type":"SCALAR"},{"bufferView":32,"componentType":5126,"count":20,"max":[0.03125,0.0625,0],"min":[-0.03125,-0.0625,0],"type":"VEC3"},{"bufferView":33,"componentType":5126,"count":20,"max":[1,0,0],"min":[0,0,-1],"type":"VEC3"},{"bufferView":34,"componentType":5126,"count":20,"max":[0.3125,0.3125],"min":[0,0],"type":"VEC2"},{"bufferView":35,"componentType":5123,"count":30,"max":[19],"min":[0],"type":"SCALAR"},{"bufferView":36,"componentType":5126,"count":24,"max":[0.6875,0.625,0.375],"min":[0.4375,0,0.125],"type":"VEC3"},{"bufferView":37,"componentType":5126,"count":24,"max":[1,1,1],"min":[-1,-1,-1],"type":"VEC3"},{"bufferView":38,"componentType":5126,"count":24,"max":[0.249755859375,0.218505859375],"min":[0.000244140625,0.000244140625],"type":"VEC2"},{"bufferView":39,"componentType":5123,"count":36,"max":[23],"min":[0],"type":"SCALAR"},{"bufferView":40,"componentType":5126,"count":20,"max":[0.03125,0.0625,0],"min":[-0.03125,-0.0625,0],"type":"VEC3"},{"bufferView":41,"componentType":5126,"count":20,"max":[1,0,0],"min":[0,0,-1],"type":"VEC3"},{"bufferView":42,"componentType":5126,"count":20,"max":[0.28125,0.3125],"min":[0,0],"type":"VEC2"},{"bufferView":43,"componentType":5123,"count":30,"max":[19],"min":[0],"type":"SCALAR"},{"bufferView":44,"componentType":5126,"count":24,"max":[0.71875,0.65625,0.40625],"min":[0.40625,0.34375,0.09375],"type":"VEC3"},{"bufferView":45,"componentType":5126,"count":24,"max":[1,1,1],"min":[-1,-1,-1],"type":"VEC3"},{"bufferView":46,"componentType":5126,"count":24,"max":[0.515380859375,0.124755859375],"min":[0.265869140625,0.000244140625],"type":"VEC2"},{"bufferView":47,"componentType":5123,"count":36,"max":[23],"min":[0],"type":"SCALAR"},{"bufferView":48,"componentType":5126,"count":20,"max":[-0.25,0.21875,0.140625],"min":[-0.3125,0.09375,0.140625],"type":"VEC3"},{"bufferView":49,"componentType":5126,"count":20,"max":[1,0,0],"min":[0,0,-1],"type":"VEC3"},{"bufferView":50,"componentType":5126,"count":20,"max":[0.28125,0.3125],"min":[0,0],"type":"VEC2"},{"bufferView":51,"componentType":5123,"count":30,"max":[19],"min":[0],"type":"SCALAR"},{"bufferView":52,"componentType":5126,"count":20,"max":[0.0625,-0.03125,-0.046875],"min":[0,-0.15625,-0.046875],"type":"VEC3"},{"bufferView":53,"componentType":5126,"count":20,"max":[1,0,0],"min":[0,0,-1],"type":"VEC3"},{"bufferView":54,"componentType":5126,"count":20,"max":[0.28125,0.3125],"min":[0,0],"type":"VEC2"},{"bufferView":55,"componentType":5123,"count":30,"max":[19],"min":[0],"type":"SCALAR"},{"bufferView":56,"componentType":5126,"count":20,"max":[0.3125,-0.09375,0.28125],"min":[0.25,-0.21875,0.28125],"type":"VEC3"},{"bufferView":57,"componentType":5126,"count":20,"max":[1,0,0],"min":[0,0,-1],"type":"VEC3"},{"bufferView":58,"componentType":5126,"count":20,"max":[0.3125,0.3125],"min":[0,0],"type":"VEC2"},{"bufferView":59,"componentType":5123,"count":30,"max":[19],"min":[0],"type":"SCALAR"},{"bufferView":60,"componentType":5126,"count":20,"max":[-0.25,-0.09375,-0.28125],"min":[-0.3125,-0.21875,-0.28125],"type":"VEC3"},{"bufferView":61,"componentType":5126,"count":20,"max":[1,0,0],"min":[0,0,-1],"type":"VEC3"},{"bufferView":62,"componentType":5126,"count":20,"max":[0.3125,0.3125],"min":[0,0],"type":"VEC2"},{"bufferView":63,"componentType":5123,"count":30,"max":[19],"min":[0],"type":"SCALAR"}],"materials":[{"pbrMetallicRoughness":{"metallicFactor":0,"roughnessFactor":1,"baseColorTexture":{"index":0}},"alphaMode":"MASK","alphaCutoff":0.05,"doubleSided":true}],"textures":[{"sampler":0,"source":0,"name":"candles"}],"samplers":[{"magFilter":9728,"minFilter":9728,"wrapS":33071,"wrapT":33071}],"images":[{"mimeType":"image/png","uri":"data:image/png;base64,"}],"meshes":[{"primitives":[{"mode":4,"attributes":{"POSITION":0,"NORMAL":1,"TEXCOORD_0":2},"indices":3,"material":0}]},{"primitives":[{"mode":4,"attributes":{"POSITION":4,"NORMAL":5,"TEXCOORD_0":6},"indices":7,"material":0}]},{"primitives":[{"mode":4,"attributes":{"POSITION":8,"NORMAL":9,"TEXCOORD_0":10},"indices":11,"material":0}]},{"primitives":[{"mode":4,"attributes":{"POSITION":12,"NORMAL":13,"TEXCOORD_0":14},"indices":15,"material":0}]},{"primitives":[{"mode":4,"attributes":{"POSITION":16,"NORMAL":17,"TEXCOORD_0":18},"indices":19,"material":0}]},{"primitives":[{"mode":4,"attributes":{"POSITION":20,"NORMAL":21,"TEXCOORD_0":22},"indices":23,"material":0}]},{"primitives":[{"mode":4,"attributes":{"POSITION":24,"NORMAL":25,"TEXCOORD_0":26},"indices":27,"material":0}]},{"primitives":[{"mode":4,"attributes":{"POSITION":28,"NORMAL":29,"TEXCOORD_0":30},"indices":31,"material":0}]},{"primitives":[{"mode":4,"attributes":{"POSITION":32,"NORMAL":33,"TEXCOORD_0":34},"indices":35,"material":0}]},{"primitives":[{"mode":4,"attributes":{"POSITION":36,"NORMAL":37,"TEXCOORD_0":38},"indices":39,"material":0}]},{"primitives":[{"mode":4,"attributes":{"POSITION":40,"NORMAL":41,"TEXCOORD_0":42},"indices":43,"material":0}]},{"primitives":[{"mode":4,"attributes":{"POSITION":44,"NORMAL":45,"TEXCOORD_0":46},"indices":47,"material":0}]},{"primitives":[{"mode":4,"attributes":{"POSITION":48,"NORMAL":49,"TEXCOORD_0":50},"indices":51,"material":0}]},{"primitives":[{"mode":4,"attributes":{"POSITION":52,"NORMAL":53,"TEXCOORD_0":54},"indices":55,"material":0}]},{"primitives":[{"mode":4,"attributes":{"POSITION":56,"NORMAL":57,"TEXCOORD_0":58},"indices":59,"material":0}]},{"primitives":[{"mode":4,"attributes":{"POSITION":60,"NORMAL":61,"TEXCOORD_0":62},"indices":63,"material":0}]}]}