{"asset":{"version":"2.0","generator":"Blockbench 4.12.5 glTF exporter"},"scenes":[{"nodes":[12],"name":"blockbench_export"}],"scene":0,"nodes":[{"translation":[-0.0625,-0.0625,-0.0625],"name":"cube","mesh":0},{"translation":[0,-0.05937500000000001,0],"name":"pyramid","mesh":1},{"translation":[0.3125,0.05937500000000001,-0.3125],"name":"spike","children":[1]},{"translation":[0,-0.05937500000000001,0],"name":"pyramid","mesh":2},{"translation":[0,0.05937500000000001,0],"name":"spike5","children":[3]},{"translation":[0,-0.05937500000000001,0],"name":"pyramid","mesh":3},{"translation":[-0.3125,0.05937500000000001,-0.3125],"name":"spike2","children":[5]},{"translation":[0,-0.05937500000000001,0],"name":"pyramid","mesh":4},{"translation":[-0.3125,0.05937500000000001,0.3125],"name":"spike3","children":[7]},{"translation":[0,-0.05937500000000001,0],"name":"pyramid","mesh":5},{"translation":[0.3125,0.05937500000000001,0.3125],"name":"spike4","children":[9]},{"translation":[0,0.0625,0],"name":"spike_trap_2","children":[0,2,4,6,8,10]},{"children":[11]}],"bufferViews":[{"buffer":0,"byteOffset":0,"byteLength":288,"target":34962,"byteStride":12},{"buffer":0,"byteOffset":288,"byteLength":288,"target":34962,"byteStride":12},{"buffer":0,"byteOffset":576,"byteLength":192,"target":34962,"byteStride":8},{"buffer":0,"byteOffset":768,"byteLength":72,"target":34963},{"buffer":0,"byteOffset":840,"byteLength":192,"target":34962,"byteStride":12},{"buffer":0,"byteOffset":1032,"byteLength":192,"target":34962,"byteStride":12},{"buffer":0,"byteOffset":1224,"byteLength":128,"target":34962,"byteStride":8},{"buffer":0,"byteOffset":1352,"byteLength":36,"target":34963},{"buffer":0,"byteOffset":1388,"byteLength":192,"target":34962,"byteStride":12},{"buffer":0,"byteOffset":1580,"byteLength":192,"target":34962,"byteStride":12},{"buffer":0,"byteOffset":1772,"byteLength":128,"target":34962,"byteStride":8},{"buffer":0,"byteOffset":1900,"byteLength":36,"target":34963},{"buffer":0,"byteOffset":1936,"byteLength":192,"target":34962,"byteStride":12},{"buffer":0,"byteOffset":2128,"byteLength":192,"target":34962,"byteStride":12},{"buffer":0,"byteOffset":2320,"byteLength":128,"target":34962,"byteStride":8},{"buffer":0,"byteOffset":2448,"byteLength":36,"target":34963},{"buffer":0,"byteOffset":2484,"byteLength":192,"target":34962,"byteStride":12},{"buffer":0,"byteOffset":2676,"byteLength":192,"target":34962,"byteStride":12},{"buffer":0,"byteOffset":2868,"byteLength":128,"target":34962,"byteStride":8},{"buffer":0,"byteOffset":2996,"byteLength":36,"target":34963},{"buffer":0,"byteOffset":3032,"byteLength":192,"target":34962,"byteStride":12},{"buffer":0,"byteOffset":3224,"byteLength":192,"target":34962,"byteStride":12},{"buffer":0,"byteOffset":3416,"byteLength":128,"target":34962,"byteStride":8},{"buffer":0,"byteOffset":3544,"byteLength":36,"target":34963},{"buffer":0,"byteOffset":3580,"byteLength":4},{"buffer":0,"byteOffset":3584,"byteLength":12},{"buffer":0,"byteOffset":3596,"byteLength":4},{"buffer":0,"byteOffset":3600,"byteLength":12},{"buffer":0,"byteOffset":3612,"byteLength":4},{"buffer":0,"byteOffset":3616,"byteLength":12},{"buffer":0,"byteOffset":3628,"byteLength":4},{"buffer":0,"byteOffset":3632,"byteLength":12},{"buffer":0,"byteOffset":3644,"byteLength":4},{"buffer":0,"byteOffset":3648,"byteLength":12},{"buffer":0,"byteOffset":3660,"byteLength":4},{"buffer":0,"byteOffset":3664,"byteLength":12},{"buffer":0,"byteOffset":3676,"byteLength":8},{"buffer":0,"byteOffset":3684,"byteLength":24},{"buffer":0,"byteOffset":3708,"byteLength":8},{"buffer":0,"byteOffset":3716,"byteLength":24},{"buffer":0,"byteOffset":3740,"byteLength":8},{"buffer":0,"byteOffset":3748,"byteLength":24},{"buffer":0,"byteOffset":3772,"byteLength":8},{"buffer":0,"byteOffset":3780,"byteLength":24},{"buffer":0,"byteOffset":3804,"byteLength":8},{"buffer":0,"byteOffset":3812,"byteLength":24},{"buffer":0,"byteOffset":3836,"byteLength":8},{"buffer":0,"byteOffset":3844,"byteLength":24},{"buffer":0,"byteOffset":3868,"byteLength":8},{"buffer":0,"byteOffset":3876,"byteLength":24},{"buffer":0,"byteOffset":3900,"byteLength":8},{"buffer":0,"byteOffset":3908,"byteLength":24},{"buffer":0,"byteOffset":3932,"byteLength":8},{"buffer":0,"byteOffset":3940,"byteLength":24},{"buffer":0,"byteOffset":3964,"byteLength":8},{"buffer":0,"byteOffset":3972,"byteLength":24}],"buffers":[{"byteLength":3996,"uri":"data:application/octet-stream;base64,"}],"accessors":[{"bufferView":0,"componentType":5126,"count":24,"max":[0.5625,0.125,0.5625],"min":[-0.4375,0,-0.4375],"type":"VEC3"},{"bufferView":1,"componentType":5126,"count":24,"max":[1,1,1],"min":[-1,-1,-1],"type":"VEC3"},{"bufferView":2,"componentType":5126,"count":24,"max":[0.999755859375,0.281005859375],"min":[0.000244140625,0.000244140625],"type":"VEC2"},{"bufferView":3,"componentType":5123,"count":36,"max":[23],"min":[0],"type":"SCALAR"},{"bufferView":4,"componentType":5126,"count":16,"max":[0.09375,0.625,0.09375],"min":[-0.09375,0,-0.09375],"type":"VEC3"},{"bufferView":5,"componentType":5126,"count":16,"max":[0.9889363646507263,0.14834044873714447,0.9889363646507263],"min":[-0.9889363646507263,-1,-0.9889363646507263],"type":"VEC3"},{"bufferView":6,"componentType":5126,"count":16,"max":[0.296875,0.39169424772262573],"min":[0.007592381443828344,0.29505985975265503],"type":"VEC2"},{"bufferView":7,"componentType":5123,"count":18,"max":[15],"min":[0],"type":"SCALAR"},{"bufferView":8,"componentType":5126,"count":16,"max":[0.09375,0.625,0.09375],"min":[-0.09375,0,-0.09375],"type":"VEC3"},{"bufferView":9,"componentType":5126,"count":16,"max":[0.9889363646507263,0.14834044873714447,0.9889363646507263],"min":[-0.9889363646507263,-1,-0.9889363646507263],"type":"VEC3"},{"bufferView":10,"componentType":5126,"count":16,"max":[0.296875,0.39169424772262573],"min":[0.007592381443828344,0.29505985975265503],"type":"VEC2"},{"bufferView":11,"componentType":5123,"count":18,"max":[15],"min":[0],"type":"SCALAR"},{"bufferView":12,"componentType":5126,"count":16,"max":[0.09375,0.625,0.09375],"min":[-0.09375,0,-0.09375],"type":"VEC3"},{"bufferView":13,"componentType":5126,"count":16,"max":[0.9889363646507263,0.14834044873714447,0.9889363646507263],"min":[-0.9889363646507263,-1,-0.9889363646507263],"type":"VEC3"},{"bufferView":14,"componentType":5126,"count":16,"max":[0.296875,0.39169424772262573],"min":[0.007592381443828344,0.29505985975265503],"type":"VEC2"},{"bufferView":15,"componentType":5123,"count":18,"max":[15],"min":[0],"type":"SCALAR"},{"bufferView":16,"componentType":5126,"count":16,"max":[0.09375,0.625,0.09375],"min":[-0.09375,0,-0.09375],"type":"VEC3"},{"bufferView":17,"componentType":5126,"count":16,"max":[0.9889363646507263,0.14834044873714447,0.9889363646507263],"min":[-0.9889363646507263,-1,-0.9889363646507263],"type":"VEC3"},{"bufferView":18,"componentType":5126,"count":16,"max":[0.296875,0.39169424772262573],"min":[0.007592381443828344,0.29505985975265503],"type":"VEC2"},{"bufferView":19,"componentType":5123,"count":18,"max":[15],"min":[0],"type":"SCALAR"},{"bufferView":20,"componentType":5126,"count":16,"max":[0.09375,0.625,0.09375],"min":[-0.09375,0,-0.09375],"type":"VEC3"},{"bufferView":21,"componentType":5126,"count":16,"max":[0.9889363646507263,0.14834044873714447,0.9889363646507263],"min":[-0.9889363646507263,-1,-0.9889363646507263],"type":"VEC3"},{"bufferView":22,"componentType":5126,"count":16,"max":[0.296875,0.39169424772262573],"min":[0.007592381443828344,0.29505985975265503],"type":"VEC2"},{"bufferView":23,"componentType":5123,"count":18,"max":[15],"min":[0],"type":"SCALAR"},{"bufferView":24,"componentType":5126,"count":1,"max":[0],"min":[0],"type":"SCALAR"},{"bufferView":25,"componentType":5126,"count":1,"max":[1,1,1],"min":[1,1,1],"type":"VEC3"},{"bufferView":26,"componentType":5126,"count":1,"max":[0],"min":[0],"type":"SCALAR"},{"bufferView":27,"componentType":5126,"count":1,"max":[1,0,1],"min":[1,0,1],"type":"VEC3"},{"bufferView":28,"componentType":5126,"count":1,"max":[0],"min":[0],"type":"SCALAR"},{"bufferView":29,"componentType":5126,"count":1,"max":[1,0,1],"min":[1,0,1],"type":"VEC3"},{"bufferView":30,"componentType":5126,"count":1,"max":[0],"min":[0],"type":"SCALAR"},{"bufferView":31,"componentType":5126,"count":1,"max":[1,0,1],"min":[1,0,1],"type":"VEC3"},{"bufferView":32,"componentType":5126,"count":1,"max":[0],"min":[0],"type":"SCALAR"},{"bufferView":33,"componentType":5126,"count":1,"max":[1,0,1],"min":[1,0,1],"type":"VEC3"},{"bufferView":34,"componentType":5126,"count":1,"max":[0],"min":[0],"type":"SCALAR"},{"bufferView":35,"componentType":5126,"count":1,"max":[1,0,1],"min":[1,0,1],"type":"VEC3"},{"bufferView":36,"componentType":5126,"count":2,"max":[0.0416666679084301],"min":[0],"type":"SCALAR"},{"bufferView":37,"componentType":5126,"count":2,"max":[1,1,1],"min":[1,0,1],"type":"VEC3"},{"bufferView":38,"componentType":5126,"count":2,"max":[0.0416666679084301],"min":[0],"type":"SCALAR"},{"bufferView":39,"componentType":5126,"count":2,"max":[1,1,1],"min":[1,0,1],"type":"VEC3"},{"bufferView":40,"componentType":5126,"count":2,"max":[0.0416666679084301],"min":[0],"type":"SCALAR"},{"bufferView":41,"componentType":5126,"count":2,"max":[1,1,1],"min":[1,0,1],"type":"VEC3"},{"bufferView":42,"componentType":5126,"count":2,"max":[0.0416666679084301],"min":[0],"type":"SCALAR"},{"bufferView":43,"componentType":5126,"count":2,"max":[1,1,1],"min":[1,0,1],"type":"VEC3"},{"bufferView":44,"componentType":5126,"count":2,"max":[0.0416666679084301],"min":[0],"type":"SCALAR"},{"bufferView":45,"componentType":5126,"count":2,"max":[1,1,1],"min":[1,0,1],"type":"VEC3"},{"bufferView":46,"componentType":5126,"count":2,"max":[0.0416666679084301],"min":[0],"type":"SCALAR"},{"bufferView":47,"componentType":5126,"count":2,"max":[1,1,1],"min":[1,0,1],"type":"VEC3"},{"bufferView":48,"componentType":5126,"count":2,"max":[0.0416666679084301],"min":[0],"type":"SCALAR"},{"bufferView":49,"componentType":5126,"count":2,"max":[1,1,1],"min":[1,0,1],"type":"VEC3"},{"bufferView":50,"componentType":5126,"count":2,"max":[0.0416666679084301],"min":[0],"type":"SCALAR"},{"bufferView":51,"componentType":5126,"count":2,"max":[1,1,1],"min":[1,0,1],"type":"VEC3"},{"bufferView":52,"componentType":5126,"count":2,"max":[0.0416666679084301],"min":[0],"type":"SCALAR"},{"bufferView":53,"componentType":5126,"count":2,"max":[1,1,1],"min":[1,0,1],"type":"VEC3"},{"bufferView":54,"componentType":5126,"count":2,"max":[0.0416666679084301],"min":[0],"type":"SCALAR"},{"bufferView":55,"componentType":5126,"count":2,"max":[1,1,1],"min":[1,0,1],"type":"VEC3"}],"materials":[{"pbrMetallicRoughness":{"metallicFactor":0,"roughnessFactor":1,"baseColorTexture":{"index":0}},"alphaMode":"MASK","alphaCutoff":0.05,"doubleSided":true}],"textures":[{"sampler":0,"source":0,"name":"spike_trap_2"}],"samplers":[{"magFilter":9728,"minFilter":9728,"wrapS":33071,"wrapT":33071}],"images":[{"mimeType":"image/png","uri":"data:image/png;base64,"}],"meshes":[{"primitives":[{"mode":4,"attributes":{"POSITION":0,"NORMAL":1,"TEXCOORD_0":2},"indices":3,"material":0}]},{"primitives":[{"mode":4,"attributes":{"POSITION":4,"NORMAL":5,"TEXCOORD_0":6},"indices":7,"material":0}]},{"primitives":[{"mode":4,"attributes":{"POSITION":8,"NORMAL":9,"TEXCOORD_0":10},"indices":11,"material":0}]},{"primitives":[{"mode":4,"attributes":{"POSITION":12,"NORMAL":13,"TEXCOORD_0":14},"indices":15,"material":0}]},{"primitives":[{"mode":4,"attributes":{"POSITION":16,"NORMAL":17,"TEXCOORD_0":18},"indices":19,"material":0}]},{"primitives":[{"mode":4,"attributes":{"POSITION":20,"NORMAL":21,"TEXCOORD_0":22},"indices":23,"material":0}]}],"animations":[{"name":"idle","samplers":[{"input":24,"output":25,"interpolation":"LINEAR"}],"channels":[{"sampler":0,"target":{"node":11,"path":"scale"}}]},{"name":"idle2","samplers":[{"input":26,"output":27,"interpolation":"LINEAR"},{"input":28,"output":29,"interpolation":"LINEAR"},{"input":30,"output":31,"interpolation":"LINEAR"},{"input":32,"output":33,"interpolation":"LINEAR"},{"input":34,"output":35,"interpolation":"LINEAR"}],"channels":[{"sampler":0,"target":{"node":2,"path":"scale"}},{"sampler":1,"target":{"node":4,"path":"scale"}},{"sampler":2,"target":{"node":6,"path":"scale"}},{"sampler":3,"target":{"node":8,"path":"scale"}},{"sampler":4,"target":{"node":10,"path":"scale"}}]},{"name":"interact","samplers":[{"input":36,"output":37,"interpolation":"LINEAR"},{"input":38,"output":39,"interpolation":"LINEAR"},{"input":40,"output":41,"interpolation":"LINEAR"},{"input":42,"output":43,"interpolation":"LINEAR"},{"input":44,"output":45,"interpolation":"LINEAR"}],"channels":[{"sampler":0,"target":{"node":2,"path":"scale"}},{"sampler":1,"target":{"node":4,"path":"scale"}},{"sampler":2,"target":{"node":6,"path":"scale"}},{"sampler":3,"target":{"node":8,"path":"scale"}},{"sampler":4,"target":{"node":10,"path":"scale"}}]},{"name":"interact2","samplers":[{"input":46,"output":47,"interpolation":"LINEAR"},{"input":48,"output":49,"interpolation":"LINEAR"},{"input":50,"output":51,"interpolation":"LINEAR"},{"input":52,"output":53,"interpolation":"LINEAR"},{"input":54,"output":55,"interpolation":"LINEAR"}],"channels":[{"sampler":0,"target":{"node":2,"path":"scale"}},{"sampler":1,"target":{"node":4,"path":"scale"}},{"sampler":2,"target":{"node":6,"path":"scale"}},{"sampler":3,"target":{"node":8,"path":"scale"}},{"sampler":4,"target":{"node":10,"path":"scale"}}]}]}