{"asset":{"version":"2.0","generator":"Blockbench 4.12.5 glTF exporter"},"scenes":[{"nodes":[17],"name":"blockbench_export"}],"scene":0,"nodes":[{"name":"cube","mesh":0},{"name":"cube","mesh":1},{"name":"cube","mesh":2},{"translation":[-0.0625,-0.6875,-0.0625],"name":"cube","mesh":3},{"translation":[0.203125,-1.0625,-0.0625],"name":"cube","mesh":4},{"translation":[0.203125,-1.0625,-0.0625],"name":"cube","mesh":5},{"translation":[0.203125,-1.0625,-0.0625],"name":"cube","mesh":6},{"rotation":[0.10863378251613316,0.007120234284824854,0.0650143951507972,0.9919279872970329],"translation":[-0.265625,0.375,0],"name":"left_arm","children":[4,5,6]},{"translation":[-0.203125,-1.0625,-0.0625],"name":"cube","mesh":7},{"translation":[-0.203125,-1.0625,-0.0625],"name":"cube","mesh":8},{"translation":[-0.203125,-1.0625,-0.0625],"name":"cube","mesh":9},{"rotation":[0.10863378251613316,-0.007120234284824854,-0.0650143951507972,0.9919279872970329],"translation":[0.265625,0.375,0],"name":"right_arm","children":[8,9,10]},{"translation":[-0.0625,-1.1875,-0.0625],"name":"cube","mesh":10},{"translation":[0,0.5,0],"name":"head","children":[12]},{"translation":[0.0625,0.5625,0.0625],"name":"body","children":[3,7,11,13]},{"translation":[-0.0625,0,-0.0625],"name":"training_dummy","children":[0,1,2,14]},{"name":"root","children":[15]},{"children":[16]}],"bufferViews":[{"buffer":0,"byteOffset":0,"byteLength":288,"target":34962,"byteStride":12},{"buffer":0,"byteOffset":288,"byteLength":288,"target":34962,"byteStride":12},{"buffer":0,"byteOffset":576,"byteLength":192,"target":34962,"byteStride":8},{"buffer":0,"byteOffset":768,"byteLength":72,"target":34963},{"buffer":0,"byteOffset":840,"byteLength":288,"target":34962,"byteStride":12},{"buffer":0,"byteOffset":1128,"byteLength":288,"target":34962,"byteStride":12},{"buffer":0,"byteOffset":1416,"byteLength":192,"target":34962,"byteStride":8},{"buffer":0,"byteOffset":1608,"byteLength":72,"target":34963},{"buffer":0,"byteOffset":1680,"byteLength":288,"target":34962,"byteStride":12},{"buffer":0,"byteOffset":1968,"byteLength":288,"target":34962,"byteStride":12},{"buffer":0,"byteOffset":2256,"byteLength":192,"target":34962,"byteStride":8},{"buffer":0,"byteOffset":2448,"byteLength":72,"target":34963},{"buffer":0,"byteOffset":2520,"byteLength":288,"target":34962,"byteStride":12},{"buffer":0,"byteOffset":2808,"byteLength":288,"target":34962,"byteStride":12},{"buffer":0,"byteOffset":3096,"byteLength":192,"target":34962,"byteStride":8},{"buffer":0,"byteOffset":3288,"byteLength":72,"target":34963},{"buffer":0,"byteOffset":3360,"byteLength":288,"target":34962,"byteStride":12},{"buffer":0,"byteOffset":3648,"byteLength":288,"target":34962,"byteStride":12},{"buffer":0,"byteOffset":3936,"byteLength":192,"target":34962,"byteStride":8},{"buffer":0,"byteOffset":4128,"byteLength":72,"target":34963},{"buffer":0,"byteOffset":4200,"byteLength":288,"target":34962,"byteStride":12},{"buffer":0,"byteOffset":4488,"byteLength":288,"target":34962,"byteStride":12},{"buffer":0,"byteOffset":4776,"byteLength":192,"target":34962,"byteStride":8},{"buffer":0,"byteOffset":4968,"byteLength":72,"target":34963},{"buffer":0,"byteOffset":5040,"byteLength":288,"target":34962,"byteStride":12},{"buffer":0,"byteOffset":5328,"byteLength":288,"target":34962,"byteStride":12},{"buffer":0,"byteOffset":5616,"byteLength":192,"target":34962,"byteStride":8},{"buffer":0,"byteOffset":5808,"byteLength":72,"target":34963},{"buffer":0,"byteOffset":5880,"byteLength":288,"target":34962,"byteStride":12},{"buffer":0,"byteOffset":6168,"byteLength":288,"target":34962,"byteStride":12},{"buffer":0,"byteOffset":6456,"byteLength":192,"target":34962,"byteStride":8},{"buffer":0,"byteOffset":6648,"byteLength":72,"target":34963},{"buffer":0,"byteOffset":6720,"byteLength":288,"target":34962,"byteStride":12},{"buffer":0,"byteOffset":7008,"byteLength":288,"target":34962,"byteStride":12},{"buffer":0,"byteOffset":7296,"byteLength":192,"target":34962,"byteStride":8},{"buffer":0,"byteOffset":7488,"byteLength":72,"target":34963},{"buffer":0,"byteOffset":7560,"byteLength":288,"target":34962,"byteStride":12},{"buffer":0,"byteOffset":7848,"byteLength":288,"target":34962,"byteStride":12},{"buffer":0,"byteOffset":8136,"byteLength":192,"target":34962,"byteStride":8},{"buffer":0,"byteOffset":8328,"byteLength":72,"target":34963},{"buffer":0,"byteOffset":8400,"byteLength":288,"target":34962,"byteStride":12},{"buffer":0,"byteOffset":8688,"byteLength":288,"target":34962,"byteStride":12},{"buffer":0,"byteOffset":8976,"byteLength":192,"target":34962,"byteStride":8},{"buffer":0,"byteOffset":9168,"byteLength":72,"target":34963},{"buffer":0,"byteOffset":9240,"byteLength":24},{"buffer":0,"byteOffset":9264,"byteLength":96},{"buffer":0,"byteOffset":9360,"byteLength":24},{"buffer":0,"byteOffset":9384,"byteLength":96},{"buffer":0,"byteOffset":9480,"byteLength":24},{"buffer":0,"byteOffset":9504,"byteLength":96},{"buffer":0,"byteOffset":9600,"byteLength":24},{"buffer":0,"byteOffset":9624,"byteLength":96},{"buffer":0,"byteOffset":9720,"byteLength":12},{"buffer":0,"byteOffset":9732,"byteLength":48},{"buffer":0,"byteOffset":9780,"byteLength":12},{"buffer":0,"byteOffset":9792,"byteLength":36},{"buffer":0,"byteOffset":9828,"byteLength":24},{"buffer":0,"byteOffset":9852,"byteLength":96},{"buffer":0,"byteOffset":9948,"byteLength":24},{"buffer":0,"byteOffset":9972,"byteLength":96},{"buffer":0,"byteOffset":10068,"byteLength":24},{"buffer":0,"byteOffset":10092,"byteLength":96},{"buffer":0,"byteOffset":10188,"byteLength":24},{"buffer":0,"byteOffset":10212,"byteLength":96},{"buffer":0,"byteOffset":10308,"byteLength":12},{"buffer":0,"byteOffset":10320,"byteLength":48},{"buffer":0,"byteOffset":10368,"byteLength":12},{"buffer":0,"byteOffset":10380,"byteLength":36},{"buffer":0,"byteOffset":10416,"byteLength":24},{"buffer":0,"byteOffset":10440,"byteLength":96},{"buffer":0,"byteOffset":10536,"byteLength":24},{"buffer":0,"byteOffset":10560,"byteLength":96},{"buffer":0,"byteOffset":10656,"byteLength":24},{"buffer":0,"byteOffset":10680,"byteLength":96},{"buffer":0,"byteOffset":10776,"byteLength":24},{"buffer":0,"byteOffset":10800,"byteLength":96},{"buffer":0,"byteOffset":10896,"byteLength":12},{"buffer":0,"byteOffset":10908,"byteLength":48},{"buffer":0,"byteOffset":10956,"byteLength":12},{"buffer":0,"byteOffset":10968,"byteLength":36},{"buffer":0,"byteOffset":11004,"byteLength":40},{"buffer":0,"byteOffset":11044,"byteLength":160},{"buffer":0,"byteOffset":11204,"byteLength":48},{"buffer":0,"byteOffset":11252,"byteLength":192},{"buffer":0,"byteOffset":11444,"byteLength":48},{"buffer":0,"byteOffset":11492,"byteLength":192},{"buffer":0,"byteOffset":11684,"byteLength":48},{"buffer":0,"byteOffset":11732,"byteLength":192},{"buffer":0,"byteOffset":11924,"byteLength":12},{"buffer":0,"byteOffset":11936,"byteLength":48},{"buffer":0,"byteOffset":11984,"byteLength":12},{"buffer":0,"byteOffset":11996,"byteLength":36},{"buffer":0,"byteOffset":12032,"byteLength":4},{"buffer":0,"byteOffset":12036,"byteLength":16}],"buffers":[{"byteLength":12052,"uri":"data:application/octet-stream;base64,"}],"accessors":[{"bufferView":0,"componentType":5126,"count":24,"max":[0.21875,0.125,0.21875],"min":[-0.09375,0,-0.09375],"type":"VEC3"},{"bufferView":1,"componentType":5126,"count":24,"max":[1,1,1],"min":[-1,-1,-1],"type":"VEC3"},{"bufferView":2,"componentType":5126,"count":24,"max":[0.796630859375,0.515380859375],"min":[0.484619140625,0.406494140625],"type":"VEC2"},{"bufferView":3,"componentType":5123,"count":36,"max":[23],"min":[0],"type":"SCALAR"},{"bufferView":4,"componentType":5126,"count":24,"max":[0.15625,0.375,0.15625],"min":[-0.03125,0.125,-0.03125],"type":"VEC3"},{"bufferView":5,"componentType":5126,"count":24,"max":[1,1,1],"min":[-1,-1,-1],"type":"VEC3"},{"bufferView":6,"componentType":5126,"count":24,"max":[0.421630859375,0.609130859375],"min":[0.234619140625,0.500244140625],"type":"VEC2"},{"bufferView":7,"componentType":5123,"count":36,"max":[23],"min":[0],"type":"SCALAR"},{"bufferView":8,"componentType":5126,"count":24,"max":[0.21875,0.5625,0.21875],"min":[-0.09375,0.375,-0.09375],"type":"VEC3"},{"bufferView":9,"componentType":5126,"count":24,"max":[1,1,1],"min":[-1,-1,-1],"type":"VEC3"},{"bufferView":10,"componentType":5126,"count":24,"max":[0.796630859375,0.390380859375],"min":[0.484619140625,0.265869140625],"type":"VEC2"},{"bufferView":11,"componentType":5123,"count":36,"max":[23],"min":[0],"type":"SCALAR"},{"bufferView":12,"componentType":5126,"count":24,"max":[0.34375,1.1875,0.25],"min":[-0.21875,0.6875,-0.125],"type":"VEC3"},{"bufferView":13,"componentType":5126,"count":24,"max":[1,1,1],"min":[-1,-1,-1],"type":"VEC3"},{"bufferView":14,"componentType":5126,"count":24,"max":[0.468505859375,0.484130859375],"min":[0.000244140625,0.265869140625],"type":"VEC2"},{"bufferView":15,"componentType":5123,"count":36,"max":[23],"min":[0],"type":"SCALAR"},{"bufferView":16,"componentType":5126,"count":24,"max":[-0.21875,1.1875,0.1875],"min":[-0.40625,0.9375,-0.0625],"type":"VEC3"},{"bufferView":17,"componentType":5126,"count":24,"max":[1,1,1],"min":[-1,-1,-1],"type":"VEC3"},{"bufferView":18,"componentType":5126,"count":24,"max":[0.218505859375,0.624755859375],"min":[0.000244140625,0.500244140625],"type":"VEC2"},{"bufferView":19,"componentType":5123,"count":36,"max":[23],"min":[0],"type":"SCALAR"},{"bufferView":20,"componentType":5126,"count":24,"max":[-0.40625,1.1875,0.1875],"min":[-0.46875,0.9375,-0.0625],"type":"VEC3"},{"bufferView":21,"componentType":5126,"count":24,"max":[1,1,1],"min":[-1,-1,-1],"type":"VEC3"},{"bufferView":22,"componentType":5126,"count":24,"max":[0.671630859375,0.202880859375],"min":[0.515869140625,0.078369140625],"type":"VEC2"},{"bufferView":23,"componentType":5123,"count":36,"max":[23],"min":[0],"type":"SCALAR"},{"bufferView":24,"componentType":5126,"count":24,"max":[-0.34375,1.125,0.125],"min":[-0.71875,1,0],"type":"VEC3"},{"bufferView":25,"componentType":5126,"count":24,"max":[1,1,1],"min":[-1,-1,-1],"type":"VEC3"},{"bufferView":26,"componentType":5126,"count":24,"max":[0.765380859375,0.062255859375],"min":[0.515869140625,0.000244140625],"type":"VEC2"},{"bufferView":27,"componentType":5123,"count":36,"max":[23],"min":[0],"type":"SCALAR"},{"bufferView":28,"componentType":5126,"count":24,"max":[0.40625,1.1875,0.1875],"min":[0.21875,0.9375,-0.0625],"type":"VEC3"},{"bufferView":29,"componentType":5126,"count":24,"max":[1,1,1],"min":[-1,-1,-1],"type":"VEC3"},{"bufferView":30,"componentType":5126,"count":24,"max":[0.218505859375,0.624755859375],"min":[0.000244140625,0.500244140625],"type":"VEC2"},{"bufferView":31,"componentType":5123,"count":36,"max":[23],"min":[0],"type":"SCALAR"},{"bufferView":32,"componentType":5126,"count":24,"max":[0.46875,1.1875,0.1875],"min":[0.40625,0.9375,-0.0625],"type":"VEC3"},{"bufferView":33,"componentType":5126,"count":24,"max":[1,1,1],"min":[-1,-1,-1],"type":"VEC3"},{"bufferView":34,"componentType":5126,"count":24,"max":[0.671630859375,0.202880859375],"min":[0.515869140625,0.078369140625],"type":"VEC2"},{"bufferView":35,"componentType":5123,"count":36,"max":[23],"min":[0],"type":"SCALAR"},{"bufferView":36,"componentType":5126,"count":24,"max":[0.71875,1.125,0.125],"min":[0.34375,1,0],"type":"VEC3"},{"bufferView":37,"componentType":5126,"count":24,"max":[1,1,1],"min":[-1,-1,-1],"type":"VEC3"},{"bufferView":38,"componentType":5126,"count":24,"max":[0.765380859375,0.062255859375],"min":[0.515869140625,0.000244140625],"type":"VEC2"},{"bufferView":39,"componentType":5123,"count":36,"max":[23],"min":[0],"type":"SCALAR"},{"bufferView":40,"componentType":5126,"count":24,"max":[0.3125,1.6875,0.3125],"min":[-0.1875,1.1875,-0.1875],"type":"VEC3"},{"bufferView":41,"componentType":5126,"count":24,"max":[1,1,1],"min":[-1,-1,-1],"type":"VEC3"},{"bufferView":42,"componentType":5126,"count":24,"max":[0.499755859375,0.249755859375],"min":[0.000244140625,0.000244140625],"type":"VEC2"},{"bufferView":43,"componentType":5123,"count":36,"max":[23],"min":[0],"type":"SCALAR"},{"bufferView":44,"componentType":5126,"count":6,"max":[0.25],"min":[0],"type":"SCALAR"},{"bufferView":45,"componentType":5126,"count":6,"max":[0.2164396196603775,0,0,1],"min":[0,0,0,0.9762960076332092],"type":"VEC4"},{"bufferView":46,"componentType":5126,"count":6,"max":[0.25],"min":[0],"type":"SCALAR"},{"bufferView":47,"componentType":5126,"count":6,"max":[0.10967789590358734,0.007120234426110983,0.06501439213752747,0.991927981376648],"min":[0.07969725877046585,-0.38702794909477234,0.014040433801710606,0.9185099601745605],"type":"VEC4"},{"bufferView":48,"componentType":5126,"count":6,"max":[0.25],"min":[0],"type":"SCALAR"},{"bufferView":49,"componentType":5126,"count":6,"max":[0.3214394748210907,0,0,1],"min":[0,0,0,0.9469301104545593],"type":"VEC4"},{"bufferView":50,"componentType":5126,"count":6,"max":[0.25],"min":[0],"type":"SCALAR"},{"bufferView":51,"componentType":5126,"count":6,"max":[0.1788409799337387,0.3569936156272888,0.20467880368232727,0.991927981376648],"min":[0.10863377898931503,-0.007120234426110983,-0.06501439213752747,0.8955246210098267],"type":"VEC4"},{"bufferView":52,"componentType":5126,"count":3,"max":[0.3333333432674408],"min":[0],"type":"SCALAR"},{"bufferView":53,"componentType":5126,"count":3,"max":[0.08715574443340302,0,0,1],"min":[0,0,0,0.9961947202682495],"type":"VEC4"},{"bufferView":54,"componentType":5126,"count":3,"max":[0.25],"min":[0],"type":"SCALAR"},{"bufferView":55,"componentType":5126,"count":3,"max":[0,0.0625,0],"min":[0,0,0],"type":"VEC3"},{"bufferView":56,"componentType":5126,"count":6,"max":[0.25],"min":[0],"type":"SCALAR"},{"bufferView":57,"componentType":5126,"count":6,"max":[0.18607425689697266,0.315205454826355,0.06474945694208145,1],"min":[0,0,0,0.9284479022026062],"type":"VEC4"},{"bufferView":58,"componentType":5126,"count":6,"max":[0.25],"min":[0],"type":"SCALAR"},{"bufferView":59,"componentType":5126,"count":6,"max":[0.35828983783721924,0.06649884581565857,0.06501439213752747,0.991927981376648],"min":[0.10863377898931503,0.007120234426110983,-0.22691591084003448,0.903226375579834],"type":"VEC4"},{"bufferView":60,"componentType":5126,"count":6,"max":[0.25],"min":[0],"type":"SCALAR"},{"bufferView":61,"componentType":5126,"count":6,"max":[0,0,0,1],"min":[-0.36243805289268494,0,0,0.9320078492164612],"type":"VEC4"},{"bufferView":62,"componentType":5126,"count":6,"max":[0.25],"min":[0],"type":"SCALAR"},{"bufferView":63,"componentType":5126,"count":6,"max":[0.35828983783721924,-0.007120234426110983,0.22691591084003448,0.991927981376648],"min":[0.10863377898931503,-0.06649884581565857,-0.06501439213752747,0.903226375579834],"type":"VEC4"},{"bufferView":64,"componentType":5126,"count":3,"max":[0.2083333283662796],"min":[0],"type":"SCALAR"},{"bufferView":65,"componentType":5126,"count":3,"max":[0.0858316496014595,0.17298738658428192,0.015134436078369617,1],"min":[0,0,0,0.981060266494751],"type":"VEC4"},{"bufferView":66,"componentType":5126,"count":3,"max":[0.25],"min":[0],"type":"SCALAR"},{"bufferView":67,"componentType":5126,"count":3,"max":[0,0.0625,0],"min":[0,0,0],"type":"VEC3"},{"bufferView":68,"componentType":5126,"count":6,"max":[0.25],"min":[0],"type":"SCALAR"},{"bufferView":69,"componentType":5126,"count":6,"max":[0.18872793018817902,0,0,1],"min":[0,-0.2743346393108368,-0.05553213879466057,0.9413344264030457],"type":"VEC4"},{"bufferView":70,"componentType":5126,"count":6,"max":[0.25],"min":[0],"type":"SCALAR"},{"bufferView":71,"componentType":5126,"count":6,"max":[0.10967789590358734,0.007120234426110983,0.06501439213752747,0.991927981376648],"min":[0.07969725877046585,-0.38702794909477234,0.014040433801710606,0.9185099601745605],"type":"VEC4"},{"bufferView":72,"componentType":5126,"count":6,"max":[0.25],"min":[0],"type":"SCALAR"},{"bufferView":73,"componentType":5126,"count":6,"max":[0.3214394748210907,0,0,1],"min":[0,0,0,0.9469301104545593],"type":"VEC4"},{"bufferView":74,"componentType":5126,"count":6,"max":[0.25],"min":[0],"type":"SCALAR"},{"bufferView":75,"componentType":5126,"count":6,"max":[0.1788409799337387,0.3569936156272888,0.20467880368232727,0.991927981376648],"min":[0.10863377898931503,-0.007120234426110983,-0.06501439213752747,0.8955246210098267],"type":"VEC4"},{"bufferView":76,"componentType":5126,"count":3,"max":[0.3333333432674408],"min":[0],"type":"SCALAR"},{"bufferView":77,"componentType":5126,"count":3,"max":[0.08715574443340302,0,0,1],"min":[0,0,0,0.9961947202682495],"type":"VEC4"},{"bufferView":78,"componentType":5126,"count":3,"max":[0.25],"min":[0],"type":"SCALAR"},{"bufferView":79,"componentType":5126,"count":3,"max":[0,0.0625,0],"min":[0,0,0],"type":"VEC3"},{"bufferView":80,"componentType":5126,"count":10,"max":[0.5416666865348816],"min":[0],"type":"SCALAR"},{"bufferView":81,"componentType":5126,"count":10,"max":[0,0.4427582323551178,0,1],"min":[0,-1,0,-1],"type":"VEC4"},{"bufferView":82,"componentType":5126,"count":12,"max":[0.5833333134651184],"min":[0],"type":"SCALAR"},{"bufferView":83,"componentType":5126,"count":12,"max":[0.1094873771071434,0.007120234426110983,0.06501439213752747,0.991927981376648],"min":[0.07969725877046585,-0.38702794909477234,0.014040433801710606,0.9185099601745605],"type":"VEC4"},{"bufferView":84,"componentType":5126,"count":12,"max":[0.5833333134651184],"min":[0],"type":"SCALAR"},{"bufferView":85,"componentType":5126,"count":12,"max":[0.3214394748210907,0,0,1],"min":[0,0,0,0.9469301104545593],"type":"VEC4"},{"bufferView":86,"componentType":5126,"count":12,"max":[0.5833333134651184],"min":[0],"type":"SCALAR"},{"bufferView":87,"componentType":5126,"count":12,"max":[0.10863377898931503,-0.007120234426110983,-0.06501439213752747,0.991927981376648],"min":[0.028498155996203423,-0.3941194713115692,-0.10596929490566254,0.9124846458435059],"type":"VEC4"},{"bufferView":88,"componentType":5126,"count":3,"max":[0.3333333432674408],"min":[0],"type":"SCALAR"},{"bufferView":89,"componentType":5126,"count":3,"max":[0.08715574443340302,0,0,1],"min":[0,0,0,0.9961947202682495],"type":"VEC4"},{"bufferView":90,"componentType":5126,"count":3,"max":[0.25],"min":[0],"type":"SCALAR"},{"bufferView":91,"componentType":5126,"count":3,"max":[0,0.0625,0],"min":[0,0,0],"type":"VEC3"},{"bufferView":92,"componentType":5126,"count":1,"max":[0],"min":[0],"type":"SCALAR"},{"bufferView":93,"componentType":5126,"count":1,"max":[0,0,0,1],"min":[0,0,0,1],"type":"VEC4"}],"materials":[{"pbrMetallicRoughness":{"metallicFactor":0,"roughnessFactor":1,"baseColorTexture":{"index":0}},"alphaMode":"MASK","alphaCutoff":0.05,"doubleSided":true}],"textures":[{"sampler":0,"source":0,"name":"training_dummy"}],"samplers":[{"magFilter":9728,"minFilter":9728,"wrapS":33071,"wrapT":33071}],"images":[{"mimeType":"image/png","uri":"data:image/png;base64,"}],"meshes":[{"primitives":[{"mode":4,"attributes":{"POSITION":0,"NORMAL":1,"TEXCOORD_0":2},"indices":3,"material":0}]},{"primitives":[{"mode":4,"attributes":{"POSITION":4,"NORMAL":5,"TEXCOORD_0":6},"indices":7,"material":0}]},{"primitives":[{"mode":4,"attributes":{"POSITION":8,"NORMAL":9,"TEXCOORD_0":10},"indices":11,"material":0}]},{"primitives":[{"mode":4,"attributes":{"POSITION":12,"NORMAL":13,"TEXCOORD_0":14},"indices":15,"material":0}]},{"primitives":[{"mode":4,"attributes":{"POSITION":16,"NORMAL":17,"TEXCOORD_0":18},"indices":19,"material":0}]},{"primitives":[{"mode":4,"attributes":{"POSITION":20,"NORMAL":21,"TEXCOORD_0":22},"indices":23,"material":0}]},{"primitives":[{"mode":4,"attributes":{"POSITION":24,"NORMAL":25,"TEXCOORD_0":26},"indices":27,"material":0}]},{"primitives":[{"mode":4,"attributes":{"POSITION":28,"NORMAL":29,"TEXCOORD_0":30},"indices":31,"material":0}]},{"primitives":[{"mode":4,"attributes":{"POSITION":32,"NORMAL":33,"TEXCOORD_0":34},"indices":35,"material":0}]},{"primitives":[{"mode":4,"attributes":{"POSITION":36,"NORMAL":37,"TEXCOORD_0":38},"indices":39,"material":0}]},{"primitives":[{"mode":4,"attributes":{"POSITION":40,"NORMAL":41,"TEXCOORD_0":42},"indices":43,"material":0}]}],"animations":[{"name":"hit","samplers":[{"input":44,"output":45,"interpolation":"LINEAR"},{"input":46,"output":47,"interpolation":"LINEAR"},{"input":48,"output":49,"interpolation":"LINEAR"},{"input":50,"output":51,"interpolation":"LINEAR"},{"input":52,"output":53,"interpolation":"LINEAR"},{"input":54,"output":55,"interpolation":"LINEAR"}],"channels":[{"sampler":0,"target":{"node":14,"path":"rotation"}},{"sampler":1,"target":{"node":7,"path":"rotation"}},{"sampler":2,"target":{"node":13,"path":"rotation"}},{"sampler":3,"target":{"node":11,"path":"rotation"}},{"sampler":4,"target":{"node":16,"path":"rotation"}},{"sampler":5,"target":{"node":16,"path":"translation"}}]},{"name":"hit2","samplers":[{"input":56,"output":57,"interpolation":"LINEAR"},{"input":58,"output":59,"interpolation":"LINEAR"},{"input":60,"output":61,"interpolation":"LINEAR"},{"input":62,"output":63,"interpolation":"LINEAR"},{"input":64,"output":65,"interpolation":"LINEAR"},{"input":66,"output":67,"interpolation":"LINEAR"}],"channels":[{"sampler":0,"target":{"node":14,"path":"rotation"}},{"sampler":1,"target":{"node":7,"path":"rotation"}},{"sampler":2,"target":{"node":13,"path":"rotation"}},{"sampler":3,"target":{"node":11,"path":"rotation"}},{"sampler":4,"target":{"node":16,"path":"rotation"}},{"sampler":5,"target":{"node":16,"path":"translation"}}]},{"name":"hit3","samplers":[{"input":68,"output":69,"interpolation":"LINEAR"},{"input":70,"output":71,"interpolation":"LINEAR"},{"input":72,"output":73,"interpolation":"LINEAR"},{"input":74,"output":75,"interpolation":"LINEAR"},{"input":76,"output":77,"interpolation":"LINEAR"},{"input":78,"output":79,"interpolation":"LINEAR"}],"channels":[{"sampler":0,"target":{"node":14,"path":"rotation"}},{"sampler":1,"target":{"node":7,"path":"rotation"}},{"sampler":2,"target":{"node":13,"path":"rotation"}},{"sampler":3,"target":{"node":11,"path":"rotation"}},{"sampler":4,"target":{"node":16,"path":"rotation"}},{"sampler":5,"target":{"node":16,"path":"translation"}}]},{"name":"hit4","samplers":[{"input":80,"output":81,"interpolation":"LINEAR"},{"input":82,"output":83,"interpolation":"LINEAR"},{"input":84,"output":85,"interpolation":"LINEAR"},{"input":86,"output":87,"interpolation":"LINEAR"},{"input":88,"output":89,"interpolation":"LINEAR"},{"input":90,"output":91,"interpolation":"LINEAR"}],"channels":[{"sampler":0,"target":{"node":14,"path":"rotation"}},{"sampler":1,"target":{"node":7,"path":"rotation"}},{"sampler":2,"target":{"node":13,"path":"rotation"}},{"sampler":3,"target":{"node":11,"path":"rotation"}},{"sampler":4,"target":{"node":16,"path":"rotation"}},{"sampler":5,"target":{"node":16,"path":"translation"}}]},{"name":"idle","samplers":[{"input":92,"output":93,"interpolation":"LINEAR"}],"channels":[{"sampler":0,"target":{"node":16,"path":"rotation"}}]}]}