{
  "asset": {
    "generator": "glTF-Transform v4.1.1",
    "version": "2.0"
  },
  "accessors": [
    {
      "type": "SCALAR",
      "componentType": 5123,
      "count": 216,
      "bufferView": 0,
      "byteOffset": 0
    },
    {
      "type": "SCALAR",
      "componentType": 5123,
      "count": 96,
      "bufferView": 0,
      "byteOffset": 432
    },
    {
      "type": "SCALAR",
      "componentType": 5123,
      "count": 90,
      "bufferView": 0,
      "byteOffset": 624
    },
    {
      "type": "SCALAR",
      "componentType": 5123,
      "count": 84,
      "bufferView": 0,
      "byteOffset": 804
    },
    {
      "type": "SCALAR",
      "componentType": 5123,
      "count": 96,
      "bufferView": 0,
      "byteOffset": 972
    },
    {
      "type": "SCALAR",
      "componentType": 5123,
      "count": 12,
      "bufferView": 0,
      "byteOffset": 1164
    },
    {
      "type": "VEC3",
      "componentType": 5126,
      "count": 144,
      "max": [
        0.8682323098182678,
        3.1845812797546387,
        0.295355886220932
      ],
      "min": [
        -0.3352639973163605,
        0,
        -0.7380667924880981
      ],
      "bufferView": 1,
      "byteOffset": 0
    },
    {
      "type": "VEC3",
      "componentType": 5126,
      "count": 144,
      "bufferView": 1,
      "byteOffset": 12
    },
    {
      "type": "VEC2",
      "componentType": 5126,
      "count": 144,
      "bufferView": 1,
      "byteOffset": 24
    },
    {
      "type": "VEC3",
      "componentType": 5126,
      "count": 64,
      "max": [
        0.715458869934082,
        0.15625,
        0.5
      ],
      "min": [
        -0.45900219678878784,
        -0.28125,
        -0.6547176837921143
      ],
      "bufferView": 2,
      "byteOffset": 0
    },
    {
      "type": "VEC2",
      "componentType": 5126,
      "count": 64,
      "bufferView": 2,
      "byteOffset": 12
    },
    {
      "type": "VEC3",
      "componentType": 5126,
      "count": 64,
      "bufferView": 2,
      "byteOffset": 20
    },
    {
      "type": "VEC3",
      "componentType": 5126,
      "count": 60,
      "max": [
        0.41997241973876953,
        0.75,
        0.6106554269790649
      ],
      "min": [
        -0.3192491829395294,
        -0.3834948241710663,
        -0.4880567491054535
      ],
      "bufferView": 3,
      "byteOffset": 0
    },
    {
      "type": "VEC3",
      "componentType": 5126,
      "count": 60,
      "bufferView": 3,
      "byteOffset": 12
    },
    {
      "type": "VEC2",
      "componentType": 5126,
      "count": 60,
      "bufferView": 3,
      "byteOffset": 24
    },
    {
      "type": "VEC3",
      "componentType": 5126,
      "count": 56,
      "max": [
        0.09375,
        0.75,
        0.4831967055797577
      ],
      "min": [
        -0.2190304547548294,
        -0.3296605944633484,
        -0.6091682314872742
      ],
      "bufferView": 4,
      "byteOffset": 0
    },
    {
      "type": "VEC2",
      "componentType": 5126,
      "count": 56,
      "bufferView": 4,
      "byteOffset": 12
    },
    {
      "type": "VEC3",
      "componentType": 5126,
      "count": 56,
      "bufferView": 4,
      "byteOffset": 20
    },
    {
      "type": "VEC3",
      "componentType": 5126,
      "count": 64,
      "max": [
        0.1608201414346695,
        0.7597660422325134,
        0.4831967055797577
      ],
      "min": [
        -0.2766798734664917,
        -0.3296605944633484,
        -0.6091682314872742
      ],
      "bufferView": 5,
      "byteOffset": 0
    },
    {
      "type": "VEC2",
      "componentType": 5126,
      "count": 64,
      "bufferView": 5,
      "byteOffset": 12
    },
    {
      "type": "VEC3",
      "componentType": 5126,
      "count": 64,
      "bufferView": 5,
      "byteOffset": 20
    },
    {
      "type": "VEC3",
      "componentType": 5126,
      "count": 60,
      "max": [
        0.09375,
        0.6972660422325134,
        0.6091682314872742
      ],
      "min": [
        -0.3260537385940552,
        -0.3296605944633484,
        -0.4831967055797577
      ],
      "bufferView": 6,
      "byteOffset": 0
    },
    {
      "type": "VEC2",
      "componentType": 5126,
      "count": 60,
      "bufferView": 6,
      "byteOffset": 12
    },
    {
      "type": "VEC3",
      "componentType": 5126,
      "count": 60,
      "bufferView": 6,
      "byteOffset": 20
    },
    {
      "type": "VEC3",
      "componentType": 5126,
      "count": 64,
      "max": [
        0.1404455006122589,
        0.75,
        0.6091682314872742
      ],
      "min": [
        -0.2970544993877411,
        -0.3296605944633484,
        -0.4831967055797577
      ],
      "bufferView": 7,
      "byteOffset": 0
    },
    {
      "type": "VEC2",
      "componentType": 5126,
      "count": 64,
      "bufferView": 7,
      "byteOffset": 12
    },
    {
      "type": "VEC3",
      "componentType": 5126,
      "count": 64,
      "bufferView": 7,
      "byteOffset": 20
    },
    {
      "type": "VEC3",
      "componentType": 5126,
      "count": 60,
      "max": [
        0.2815304696559906,
        0.75,
        0.4831967055797577
      ],
      "min": [
        -0.1559695452451706,
        -0.32917481660842896,
        -0.6081966757774353
      ],
      "bufferView": 8,
      "byteOffset": 0
    },
    {
      "type": "VEC2",
      "componentType": 5126,
      "count": 60,
      "bufferView": 8,
      "byteOffset": 12
    },
    {
      "type": "VEC3",
      "componentType": 5126,
      "count": 60,
      "bufferView": 8,
      "byteOffset": 20
    },
    {
      "type": "VEC3",
      "componentType": 5126,
      "count": 64,
      "max": [
        0.1716955006122589,
        0.75,
        0.4831967055797577
      ],
      "min": [
        -0.2658044993877411,
        -0.3296605944633484,
        -0.6091682314872742
      ],
      "bufferView": 9,
      "byteOffset": 0
    },
    {
      "type": "VEC3",
      "componentType": 5126,
      "count": 64,
      "bufferView": 9,
      "byteOffset": 12
    },
    {
      "type": "VEC2",
      "componentType": 5126,
      "count": 64,
      "bufferView": 9,
      "byteOffset": 24
    },
    {
      "type": "VEC3",
      "componentType": 5126,
      "count": 8,
      "max": [
        0.15656407177448273,
        0.14093907177448273,
        5.934453780040007e-17
      ],
      "min": [
        -0.15593592822551727,
        -0.17156092822551727,
        -1.25
      ],
      "bufferView": 10,
      "byteOffset": 0
    },
    {
      "type": "VEC2",
      "componentType": 5126,
      "count": 8,
      "bufferView": 10,
      "byteOffset": 12
    },
    {
      "type": "VEC3",
      "componentType": 5126,
      "count": 8,
      "bufferView": 10,
      "byteOffset": 20
    },
    {
      "type": "SCALAR",
      "componentType": 5126,
      "count": 31,
      "max": [
        6
      ],
      "min": [
        0
      ],
      "bufferView": 11,
      "byteOffset": 0
    },
    {
      "type": "VEC4",
      "componentType": 5126,
      "count": 31,
      "bufferView": 11,
      "byteOffset": 124
    },
    {
      "type": "SCALAR",
      "componentType": 5126,
      "count": 29,
      "max": [
        6
      ],
      "min": [
        0
      ],
      "bufferView": 11,
      "byteOffset": 620
    },
    {
      "type": "VEC4",
      "componentType": 5126,
      "count": 29,
      "bufferView": 11,
      "byteOffset": 736
    },
    {
      "type": "VEC4",
      "componentType": 5126,
      "count": 29,
      "bufferView": 11,
      "byteOffset": 1200
    },
    {
      "type": "SCALAR",
      "componentType": 5126,
      "count": 32,
      "max": [
        6
      ],
      "min": [
        0
      ],
      "bufferView": 11,
      "byteOffset": 1664
    },
    {
      "type": "VEC4",
      "componentType": 5126,
      "count": 32,
      "bufferView": 11,
      "byteOffset": 1792
    },
    {
      "type": "SCALAR",
      "componentType": 5126,
      "count": 38,
      "max": [
        6
      ],
      "min": [
        0
      ],
      "bufferView": 11,
      "byteOffset": 2304
    },
    {
      "type": "VEC4",
      "componentType": 5126,
      "count": 38,
      "bufferView": 11,
      "byteOffset": 2456
    },
    {
      "type": "SCALAR",
      "componentType": 5126,
      "count": 31,
      "max": [
        6
      ],
      "min": [
        0
      ],
      "bufferView": 11,
      "byteOffset": 3064
    },
    {
      "type": "VEC4",
      "componentType": 5126,
      "count": 31,
      "bufferView": 11,
      "byteOffset": 3188
    },
    {
      "type": "SCALAR",
      "componentType": 5126,
      "count": 31,
      "max": [
        6
      ],
      "min": [
        0
      ],
      "bufferView": 11,
      "byteOffset": 3684
    },
    {
      "type": "VEC4",
      "componentType": 5126,
      "count": 31,
      "bufferView": 11,
      "byteOffset": 3808
    },
    {
      "type": "SCALAR",
      "componentType": 5126,
      "count": 32,
      "max": [
        6
      ],
      "min": [
        0
      ],
      "bufferView": 11,
      "byteOffset": 4304
    },
    {
      "type": "VEC4",
      "componentType": 5126,
      "count": 32,
      "bufferView": 11,
      "byteOffset": 4432
    },
    {
      "type": "SCALAR",
      "componentType": 5126,
      "count": 38,
      "max": [
        6
      ],
      "min": [
        0
      ],
      "bufferView": 11,
      "byteOffset": 4944
    },
    {
      "type": "VEC4",
      "componentType": 5126,
      "count": 38,
      "bufferView": 11,
      "byteOffset": 5096
    }
  ],
  "bufferViews": [
    {
      "buffer": 0,
      "byteOffset": 0,
      "byteLength": 1188,
      "target": 34963
    },
    {
      "buffer": 0,
      "byteOffset": 1188,
      "byteLength": 4608,
      "byteStride": 32,
      "target": 34962
    },
    {
      "buffer": 0,
      "byteOffset": 5796,
      "byteLength": 2048,
      "byteStride": 32,
      "target": 34962
    },
    {
      "buffer": 0,
      "byteOffset": 7844,
      "byteLength": 1920,
      "byteStride": 32,
      "target": 34962
    },
    {
      "buffer": 0,
      "byteOffset": 9764,
      "byteLength": 1792,
      "byteStride": 32,
      "target": 34962
    },
    {
      "buffer": 0,
      "byteOffset": 11556,
      "byteLength": 2048,
      "byteStride": 32,
      "target": 34962
    },
    {
      "buffer": 0,
      "byteOffset": 13604,
      "byteLength": 1920,
      "byteStride": 32,
      "target": 34962
    },
    {
      "buffer": 0,
      "byteOffset": 15524,
      "byteLength": 2048,
      "byteStride": 32,
      "target": 34962
    },
    {
      "buffer": 0,
      "byteOffset": 17572,
      "byteLength": 1920,
      "byteStride": 32,
      "target": 34962
    },
    {
      "buffer": 0,
      "byteOffset": 19492,
      "byteLength": 2048,
      "byteStride": 32,
      "target": 34962
    },
    {
      "buffer": 0,
      "byteOffset": 21540,
      "byteLength": 256,
      "byteStride": 32,
      "target": 34962
    },
    {
      "buffer": 0,
      "byteOffset": 21796,
      "byteLength": 5704
    }
  ],
  "samplers": [
    {
      "magFilter": 9728,
      "minFilter": 9728,
      "wrapS": 33071,
      "wrapT": 33071
    }
  ],
  "textures": [
    {
      "source": 0,
      "sampler": 0
    }
  ],
  "images": [
    {
      "mimeType": "image/png",
      "uri": "baseColor.png"
    }
  ],
  "buffers": [
    {
      "uri": "snowy-fir-tree-small.bin",
      "byteLength": 27500
    }
  ],
  "materials": [
    {
      "alphaMode": "MASK",
      "alphaCutoff": 0.05,
      "doubleSided": true,
      "pbrMetallicRoughness": {
        "metallicFactor": 0,
        "baseColorTexture": {
          "index": 0
        }
      }
    }
  ],
  "meshes": [
    {
      "primitives": [
        {
          "attributes": {
            "POSITION": 6,
            "NORMAL": 7,
            "TEXCOORD_0": 8
          },
          "mode": 4,
          "material": 0,
          "indices": 0
        }
      ]
    },
    {
      "primitives": [
        {
          "attributes": {
            "POSITION": 9,
            "TEXCOORD_0": 10,
            "NORMAL": 11
          },
          "mode": 4,
          "material": 0,
          "indices": 1
        }
      ]
    },
    {
      "primitives": [
        {
          "attributes": {
            "POSITION": 12,
            "NORMAL": 13,
            "TEXCOORD_0": 14
          },
          "mode": 4,
          "material": 0,
          "indices": 2
        }
      ]
    },
    {
      "primitives": [
        {
          "attributes": {
            "POSITION": 15,
            "TEXCOORD_0": 16,
            "NORMAL": 17
          },
          "mode": 4,
          "material": 0,
          "indices": 3
        }
      ]
    },
    {
      "primitives": [
        {
          "attributes": {
            "POSITION": 18,
            "TEXCOORD_0": 19,
            "NORMAL": 20
          },
          "mode": 4,
          "material": 0,
          "indices": 4
        }
      ]
    },
    {
      "primitives": [
        {
          "attributes": {
            "POSITION": 21,
            "TEXCOORD_0": 22,
            "NORMAL": 23
          },
          "mode": 4,
          "material": 0,
          "indices": 2
        }
      ]
    },
    {
      "primitives": [
        {
          "attributes": {
            "POSITION": 24,
            "TEXCOORD_0": 25,
            "NORMAL": 26
          },
          "mode": 4,
          "material": 0,
          "indices": 4
        }
      ]
    },
    {
      "primitives": [
        {
          "attributes": {
            "POSITION": 27,
            "TEXCOORD_0": 28,
            "NORMAL": 29
          },
          "mode": 4,
          "material": 0,
          "indices": 2
        }
      ]
    },
    {
      "primitives": [
        {
          "attributes": {
            "POSITION": 30,
            "NORMAL": 31,
            "TEXCOORD_0": 32
          },
          "mode": 4,
          "material": 0,
          "indices": 4
        }
      ]
    },
    {
      "primitives": [
        {
          "attributes": {
            "POSITION": 33,
            "TEXCOORD_0": 34,
            "NORMAL": 35
          },
          "mode": 4,
          "material": 0,
          "indices": 5
        }
      ]
    }
  ],
  "nodes": [
    {
      "name": "cube",
      "translation": [
        -0.0625,
        0,
        -0.0625
      ],
      "mesh": 0
    },
    {
      "name": "cube",
      "translation": [
        -0.062219543868263956,
        -0.719235764269461,
        0.03222152853892299
      ],
      "rotation": [
        0.10756747795195015,
        -0.10756747795195,
        0.6988771263155316,
        0.6988771263155333
      ],
      "mesh": 1
    },
    {
      "name": "bone",
      "translation": [
        -0.054917478527522344,
        1.5388325214724774,
        -0.0625
      ],
      "rotation": [
        0.21028345606953677,
        -0.11622211955243963,
        -0.8285139911544198,
        0.5058041651583779
      ],
      "children": [
        1
      ]
    },
    {
      "name": "cube",
      "translation": [
        -0.06250000000000022,
        -0.7187499999999996,
        -0.062499999999999986
      ],
      "mesh": 2
    },
    {
      "name": "bone5",
      "translation": [
        0.012267530469779383,
        2.110710224587749,
        0.0048773334661351316
      ],
      "rotation": [
        0.4258232772795544,
        -0.22593588906139028,
        -0.7866136511754643,
        0.38583218417512033
      ],
      "children": [
        3
      ]
    },
    {
      "name": "cube",
      "translation": [
        0.06250000000000022,
        -0.7187499999999996,
        0.062499999999999986
      ],
      "mesh": 3
    },
    {
      "name": "bone7",
      "translation": [
        -0.012267530469779383,
        2.110710224587749,
        -0.0048773334661351316
      ],
      "rotation": [
        -0.4258232772795544,
        -0.22593588906139028,
        0.7866136511754643,
        0.38583218417512033
      ],
      "children": [
        5
      ]
    },
    {
      "name": "cube",
      "translation": [
        0.06250000000000024,
        -0.7187499999999996,
        0.06249999999999997
      ],
      "mesh": 4
    },
    {
      "name": "bone6",
      "translation": [
        0.03454284302983725,
        2.3410807131007365,
        -0.022651419427812333
      ],
      "rotation": [
        -0.8652307569702538,
        -0.304780527705443,
        0.3806969000384632,
        0.11642352608205002
      ],
      "children": [
        7
      ]
    },
    {
      "name": "cube",
      "translation": [
        0.06250000000000024,
        -0.7187499999999996,
        -0.06249999999999997
      ],
      "mesh": 5
    },
    {
      "name": "bone9",
      "translation": [
        0.03454284302983725,
        2.5285807131007365,
        0.022651419427812333
      ],
      "rotation": [
        0.9439061255239861,
        0.16639997959443426,
        -0.16716577517886688,
        0.23110144222422663
      ],
      "children": [
        9
      ]
    },
    {
      "name": "cube",
      "translation": [
        0.06250000000000022,
        -0.7187499999999998,
        -0.0625
      ],
      "mesh": 6
    },
    {
      "name": "bone3",
      "translation": [
        0.054917478527522344,
        1.6013325214724774,
        -0.0625
      ],
      "rotation": [
        0.38966599030729876,
        0.2432873880152407,
        0.8212778092750422,
        0.33834069046294346
      ],
      "children": [
        11
      ]
    },
    {
      "name": "cube",
      "translation": [
        -0.06250000000000022,
        -0.7187499999999998,
        0.0625
      ],
      "mesh": 7
    },
    {
      "name": "bone4",
      "translation": [
        -0.054917478527522344,
        1.6638325214724774,
        0.0625
      ],
      "rotation": [
        -0.3581077776793071,
        0.20486778295608046,
        -0.818797729965858,
        0.3991970546922986
      ],
      "children": [
        13
      ]
    },
    {
      "name": "cube",
      "translation": [
        0.06250000000000022,
        -0.7187499999999998,
        0.0625
      ],
      "mesh": 8
    },
    {
      "name": "bone2",
      "translation": [
        0.054917478527522344,
        1.5388325214724774,
        0.0625
      ],
      "rotation": [
        -0.22414386804201336,
        -0.1294095225512608,
        0.8365163037378078,
        0.48296291314453416
      ],
      "children": [
        15
      ]
    },
    {
      "name": "cube",
      "translation": [
        -0.015489294782594778,
        -0.00010923893640324422,
        -0.00043373099272637355
      ],
      "rotation": [
        0.2705980500730984,
        -0.6532814824381878,
        0.6532814824381886,
        0.2705980500730987
      ],
      "mesh": 9
    },
    {
      "name": "bone10",
      "translation": [
        0.0013972126617181335,
        2.809830713100737,
        -0.013175037116148232
      ],
      "children": [
        17
      ]
    },
    {
      "name": "root",
      "children": [
        2,
        4,
        6,
        8,
        10,
        12,
        14,
        16,
        18
      ]
    }
  ],
  "animations": [
    {
      "name": "idle",
      "samplers": [
        {
          "input": 36,
          "output": 37,
          "interpolation": "LINEAR"
        },
        {
          "input": 38,
          "output": 39,
          "interpolation": "LINEAR"
        },
        {
          "input": 38,
          "output": 40,
          "interpolation": "LINEAR"
        },
        {
          "input": 41,
          "output": 42,
          "interpolation": "LINEAR"
        },
        {
          "input": 43,
          "output": 44,
          "interpolation": "LINEAR"
        },
        {
          "input": 45,
          "output": 46,
          "interpolation": "LINEAR"
        },
        {
          "input": 47,
          "output": 48,
          "interpolation": "LINEAR"
        },
        {
          "input": 49,
          "output": 50,
          "interpolation": "LINEAR"
        },
        {
          "input": 51,
          "output": 52,
          "interpolation": "LINEAR"
        }
      ],
      "channels": [
        {
          "sampler": 0,
          "target": {
            "node": 2,
            "path": "rotation"
          }
        },
        {
          "sampler": 1,
          "target": {
            "node": 4,
            "path": "rotation"
          }
        },
        {
          "sampler": 2,
          "target": {
            "node": 6,
            "path": "rotation"
          }
        },
        {
          "sampler": 3,
          "target": {
            "node": 8,
            "path": "rotation"
          }
        },
        {
          "sampler": 4,
          "target": {
            "node": 10,
            "path": "rotation"
          }
        },
        {
          "sampler": 5,
          "target": {
            "node": 12,
            "path": "rotation"
          }
        },
        {
          "sampler": 6,
          "target": {
            "node": 14,
            "path": "rotation"
          }
        },
        {
          "sampler": 7,
          "target": {
            "node": 16,
            "path": "rotation"
          }
        },
        {
          "sampler": 8,
          "target": {
            "node": 18,
            "path": "rotation"
          }
        }
      ]
    }
  ],
  "scenes": [
    {
      "name": "blockbench_export",
      "nodes": [
        19,
        0
      ]
    }
  ],
  "scene": 0
}