{"asset":{"version":"2.0","generator":"Blockbench 4.12.5 glTF exporter"},"scenes":[{"nodes":[10],"name":"blockbench_export"}],"scene":0,"nodes":[{"name":"cube","mesh":0},{"name":"bullet","children":[0]},{"translation":[0,0,0.125],"name":"cube","mesh":1},{"translation":[0,0,-0.125],"name":"flame1","children":[2]},{"translation":[0,0,0.125],"name":"cube","mesh":2},{"translation":[0,0,-0.125],"name":"flame2","children":[4]},{"translation":[0,0,0.125],"name":"cube","mesh":3},{"translation":[0,0,-0.125],"name":"flame3","children":[6]},{"name":"vfx","children":[1,3,5,7]},{"name":"fire_bullet","children":[8]},{"children":[9]}],"bufferViews":[{"buffer":0,"byteOffset":0,"byteLength":288,"target":34962,"byteStride":12},{"buffer":0,"byteOffset":288,"byteLength":288,"target":34962,"byteStride":12},{"buffer":0,"byteOffset":576,"byteLength":192,"target":34962,"byteStride":8},{"buffer":0,"byteOffset":768,"byteLength":72,"target":34963},{"buffer":0,"byteOffset":840,"byteLength":288,"target":34962,"byteStride":12},{"buffer":0,"byteOffset":1128,"byteLength":288,"target":34962,"byteStride":12},{"buffer":0,"byteOffset":1416,"byteLength":192,"target":34962,"byteStride":8},{"buffer":0,"byteOffset":1608,"byteLength":72,"target":34963},{"buffer":0,"byteOffset":1680,"byteLength":288,"target":34962,"byteStride":12},{"buffer":0,"byteOffset":1968,"byteLength":288,"target":34962,"byteStride":12},{"buffer":0,"byteOffset":2256,"byteLength":192,"target":34962,"byteStride":8},{"buffer":0,"byteOffset":2448,"byteLength":72,"target":34963},{"buffer":0,"byteOffset":2520,"byteLength":288,"target":34962,"byteStride":12},{"buffer":0,"byteOffset":2808,"byteLength":288,"target":34962,"byteStride":12},{"buffer":0,"byteOffset":3096,"byteLength":192,"target":34962,"byteStride":8},{"buffer":0,"byteOffset":3288,"byteLength":72,"target":34963},{"buffer":0,"byteOffset":3360,"byteLength":48},{"buffer":0,"byteOffset":3408,"byteLength":192},{"buffer":0,"byteOffset":3600,"byteLength":40},{"buffer":0,"byteOffset":3640,"byteLength":160},{"buffer":0,"byteOffset":3800,"byteLength":116},{"buffer":0,"byteOffset":3916,"byteLength":348},{"buffer":0,"byteOffset":4264,"byteLength":116},{"buffer":0,"byteOffset":4380,"byteLength":348},{"buffer":0,"byteOffset":4728,"byteLength":32},{"buffer":0,"byteOffset":4760,"byteLength":128},{"buffer":0,"byteOffset":4888,"byteLength":112},{"buffer":0,"byteOffset":5000,"byteLength":336},{"buffer":0,"byteOffset":5336,"byteLength":116},{"buffer":0,"byteOffset":5452,"byteLength":348},{"buffer":0,"byteOffset":5800,"byteLength":120},{"buffer":0,"byteOffset":5920,"byteLength":360},{"buffer":0,"byteOffset":6280,"byteLength":128},{"buffer":0,"byteOffset":6408,"byteLength":384}],"buffers":[{"byteLength":6792,"uri":"data:application/octet-stream;base64,"}],"accessors":[{"bufferView":0,"componentType":5126,"count":24,"max":[0.09375,0.09375,0.15625],"min":[-0.09375,-0.09375,-0.15625],"type":"VEC3"},{"bufferView":1,"componentType":5126,"count":24,"max":[1,1,1],"min":[-1,-1,-1],"type":"VEC3"},{"bufferView":2,"componentType":5126,"count":24,"max":[0.9375,1],"min":[0,0],"type":"VEC2"},{"bufferView":3,"componentType":5123,"count":36,"max":[23],"min":[0],"type":"SCALAR"},{"bufferView":4,"componentType":5126,"count":24,"max":[0.125,0.125,0],"min":[-0.125,-0.125,-0.25],"type":"VEC3"},{"bufferView":5,"componentType":5126,"count":24,"max":[1,1,1],"min":[-1,-1,-1],"type":"VEC3"},{"bufferView":6,"componentType":5126,"count":24,"max":[0.75,0.75],"min":[0,0],"type":"VEC2"},{"bufferView":7,"componentType":5123,"count":36,"max":[23],"min":[0],"type":"SCALAR"},{"bufferView":8,"componentType":5126,"count":24,"max":[0.125,0.125,0],"min":[-0.125,-0.125,-0.25],"type":"VEC3"},{"bufferView":9,"componentType":5126,"count":24,"max":[1,1,1],"min":[-1,-1,-1],"type":"VEC3"},{"bufferView":10,"componentType":5126,"count":24,"max":[0.75,0.75],"min":[0,0],"type":"VEC2"},{"bufferView":11,"componentType":5123,"count":36,"max":[23],"min":[0],"type":"SCALAR"},{"bufferView":12,"componentType":5126,"count":24,"max":[0.125,0.125,0],"min":[-0.125,-0.125,-0.25],"type":"VEC3"},{"bufferView":13,"componentType":5126,"count":24,"max":[1,1,1],"min":[-1,-1,-1],"type":"VEC3"},{"bufferView":14,"componentType":5126,"count":24,"max":[0.75,0.75],"min":[0,0],"type":"VEC2"},{"bufferView":15,"componentType":5123,"count":36,"max":[23],"min":[0],"type":"SCALAR"},{"bufferView":16,"componentType":5126,"count":12,"max":[2],"min":[0],"type":"SCALAR"},{"bufferView":17,"componentType":5126,"count":12,"max":[0,0,0.9096319675445557,1],"min":[0,0,-0.9898214340209961,-1],"type":"VEC4"},{"bufferView":18,"componentType":5126,"count":10,"max":[2],"min":[0],"type":"SCALAR"},{"bufferView":19,"componentType":5126,"count":10,"max":[0.8528685569763184,0.1710100769996643,0.813797652721405,1],"min":[-0.8528685569763184,-0.8660253882408142,-0.15038372576236725,-1],"type":"VEC4"},{"bufferView":20,"componentType":5126,"count":29,"max":[2],"min":[0],"type":"SCALAR"},{"bufferView":21,"componentType":5126,"count":29,"max":[0.0625,0.0625,1.375],"min":[0,-0.0031647859141230583,-0.19272641837596893],"type":"VEC3"},{"bufferView":22,"componentType":5126,"count":29,"max":[2],"min":[0],"type":"SCALAR"},{"bufferView":23,"componentType":5126,"count":29,"max":[1,1,1],"min":[0,0,0],"type":"VEC3"},{"bufferView":24,"componentType":5126,"count":8,"max":[2],"min":[0],"type":"SCALAR"},{"bufferView":25,"componentType":5126,"count":8,"max":[0.9504844546318054,0.48746395111083984,0.48746395111083984,1],"min":[0,-0.48746395111083984,-0.48746395111083984,0.04951556771993637],"type":"VEC4"},{"bufferView":26,"componentType":5126,"count":28,"max":[2],"min":[0],"type":"SCALAR"},{"bufferView":27,"componentType":5126,"count":28,"max":[0.0031647859141230583,0.0625,4.6875],"min":[-0.0625,-0.0031647859141230583,-0.1439887136220932],"type":"VEC3"},{"bufferView":28,"componentType":5126,"count":29,"max":[2],"min":[0],"type":"SCALAR"},{"bufferView":29,"componentType":5126,"count":29,"max":[1,1,1],"min":[0,0,0],"type":"VEC3"},{"bufferView":30,"componentType":5126,"count":30,"max":[2],"min":[0],"type":"SCALAR"},{"bufferView":31,"componentType":5126,"count":30,"max":[0.0625,0.0625,2.9375],"min":[0,0,-0.125],"type":"VEC3"},{"bufferView":32,"componentType":5126,"count":32,"max":[2],"min":[0],"type":"SCALAR"},{"bufferView":33,"componentType":5126,"count":32,"max":[1,1,1],"min":[0,0,0],"type":"VEC3"}],"materials":[{"pbrMetallicRoughness":{"metallicFactor":0,"roughnessFactor":1,"baseColorTexture":{"index":0}},"alphaMode":"MASK","alphaCutoff":0.05,"doubleSided":true}],"textures":[{"sampler":0,"source":0,"name":"fire_bullet"}],"samplers":[{"magFilter":9728,"minFilter":9728,"wrapS":33071,"wrapT":33071}],"images":[{"mimeType":"image/png","uri":"data:image/png;base64,"}],"meshes":[{"primitives":[{"mode":4,"attributes":{"POSITION":0,"NORMAL":1,"TEXCOORD_0":2},"indices":3,"material":0}]},{"primitives":[{"mode":4,"attributes":{"POSITION":4,"NORMAL":5,"TEXCOORD_0":6},"indices":7,"material":0}]},{"primitives":[{"mode":4,"attributes":{"POSITION":8,"NORMAL":9,"TEXCOORD_0":10},"indices":11,"material":0}]},{"primitives":[{"mode":4,"attributes":{"POSITION":12,"NORMAL":13,"TEXCOORD_0":14},"indices":15,"material":0}]}],"animations":[{"name":"idle","samplers":[{"input":16,"output":17,"interpolation":"LINEAR"},{"input":18,"output":19,"interpolation":"LINEAR"},{"input":20,"output":21,"interpolation":"LINEAR"},{"input":22,"output":23,"interpolation":"LINEAR"},{"input":24,"output":25,"interpolation":"LINEAR"},{"input":26,"output":27,"interpolation":"LINEAR"},{"input":28,"output":29,"interpolation":"LINEAR"},{"input":30,"output":31,"interpolation":"LINEAR"},{"input":32,"output":33,"interpolation":"LINEAR"}],"channels":[{"sampler":0,"target":{"node":1,"path":"rotation"}},{"sampler":1,"target":{"node":3,"path":"rotation"}},{"sampler":2,"target":{"node":3,"path":"translation"}},{"sampler":3,"target":{"node":3,"path":"scale"}},{"sampler":4,"target":{"node":7,"path":"rotation"}},{"sampler":5,"target":{"node":7,"path":"translation"}},{"sampler":6,"target":{"node":7,"path":"scale"}},{"sampler":7,"target":{"node":5,"path":"translation"}},{"sampler":8,"target":{"node":5,"path":"scale"}}]}]}