{"asset":{"version":"2.0","generator":"Blockbench 4.12.5 glTF exporter"},"scenes":[{"nodes":[8],"name":"blockbench_export"}],"scene":0,"nodes":[{"translation":[0,-0.0625,0],"name":"cube","mesh":0},{"translation":[0,-0.0625,0],"name":"cube_outline","mesh":1},{"translation":[0,-0.062499999999999986,0.05000000000000001],"name":"cube","mesh":2},{"translation":[0,0.003124999999999989,0.05937499999999999],"name":"bone2","children":[2]},{"translation":[0,0.075,0],"name":"bone","children":[0,1,3]},{"translation":[0,-0.0125,0],"name":"root","children":[4]},{"translation":[0,-0.0625,0],"name":"cube","mesh":3},{"translation":[0,0.0625,0],"name":"hitbox","children":[6]},{"children":[5,7]}],"bufferViews":[{"buffer":0,"byteOffset":0,"byteLength":288,"target":34962,"byteStride":12},{"buffer":0,"byteOffset":288,"byteLength":288,"target":34962,"byteStride":12},{"buffer":0,"byteOffset":576,"byteLength":192,"target":34962,"byteStride":8},{"buffer":0,"byteOffset":768,"byteLength":72,"target":34963},{"buffer":0,"byteOffset":840,"byteLength":288,"target":34962,"byteStride":12},{"buffer":0,"byteOffset":1128,"byteLength":288,"target":34962,"byteStride":12},{"buffer":0,"byteOffset":1416,"byteLength":192,"target":34962,"byteStride":8},{"buffer":0,"byteOffset":1608,"byteLength":72,"target":34963},{"buffer":0,"byteOffset":1680,"byteLength":288,"target":34962,"byteStride":12},{"buffer":0,"byteOffset":1968,"byteLength":288,"target":34962,"byteStride":12},{"buffer":0,"byteOffset":2256,"byteLength":192,"target":34962,"byteStride":8},{"buffer":0,"byteOffset":2448,"byteLength":72,"target":34963},{"buffer":0,"byteOffset":2520,"byteLength":288,"target":34962,"byteStride":12},{"buffer":0,"byteOffset":2808,"byteLength":288,"target":34962,"byteStride":12},{"buffer":0,"byteOffset":3096,"byteLength":192,"target":34962,"byteStride":8},{"buffer":0,"byteOffset":3288,"byteLength":72,"target":34963},{"buffer":0,"byteOffset":3360,"byteLength":148},{"buffer":0,"byteOffset":3508,"byteLength":592},{"buffer":0,"byteOffset":4100,"byteLength":148},{"buffer":0,"byteOffset":4248,"byteLength":592}],"buffers":[{"byteLength":4840,"uri":"data:application/octet-stream;base64,"}],"accessors":[{"bufferView":0,"componentType":5126,"count":24,"max":[0.0625,0.125,0.0625],"min":[-0.0625,-1.734723475976807e-18,-0.0625],"type":"VEC3"},{"bufferView":1,"componentType":5126,"count":24,"max":[1,1,1],"min":[-1,-1,-1],"type":"VEC3"},{"bufferView":2,"componentType":5126,"count":24,"max":[0.625,0.5625],"min":[0.25,0],"type":"VEC2"},{"bufferView":3,"componentType":5123,"count":36,"max":[23],"min":[0],"type":"SCALAR"},{"bufferView":4,"componentType":5126,"count":24,"max":[0.06875000149011612,0.13124999403953552,0.06875000149011612],"min":[-0.06875000149011612,-0.0062500000931322575,-0.06875000149011612],"type":"VEC3"},{"bufferView":5,"componentType":5126,"count":24,"max":[1,1,1],"min":[-1,-1,-1],"type":"VEC3"},{"bufferView":6,"componentType":5126,"count":24,"max":[0.5,0.5625],"min":[0,0.3125],"type":"VEC2"},{"bufferView":7,"componentType":5123,"count":36,"max":[23],"min":[0],"type":"SCALAR"},{"bufferView":8,"componentType":5126,"count":24,"max":[0.125,0.0625625029206276,0.25],"min":[-0.125,0.0625,-0.0625],"type":"VEC3"},{"bufferView":9,"componentType":5126,"count":24,"max":[1,1,1],"min":[-1,-1,-1],"type":"VEC3"},{"bufferView":10,"componentType":5126,"count":24,"max":[0.5,0.3125],"min":[0,0],"type":"VEC2"},{"bufferView":11,"componentType":5123,"count":36,"max":[23],"min":[0],"type":"SCALAR"},{"bufferView":12,"componentType":5126,"count":24,"max":[0.0625,0.125,0.0625],"min":[-0.0625,0,-0.0625],"type":"VEC3"},{"bufferView":13,"componentType":5126,"count":24,"max":[1,1,1],"min":[-1,-1,-1],"type":"VEC3"},{"bufferView":14,"componentType":5126,"count":24,"max":[1,1],"min":[0.75,0.8125],"type":"VEC2"},{"bufferView":15,"componentType":5123,"count":36,"max":[23],"min":[0],"type":"SCALAR"},{"bufferView":16,"componentType":5126,"count":37,"max":[2],"min":[0],"type":"SCALAR"},{"bufferView":17,"componentType":5126,"count":37,"max":[0.08715574443340302,0,0,1],"min":[-0.08715574443340302,0,0,0.9961947202682495],"type":"VEC4"},{"bufferView":18,"componentType":5126,"count":37,"max":[2],"min":[0],"type":"SCALAR"},{"bufferView":19,"componentType":5126,"count":37,"max":[0.06540312618017197,0,0,1],"min":[-0.06540312618017197,0,0,0.9978589415550232],"type":"VEC4"}],"materials":[{"pbrMetallicRoughness":{"metallicFactor":0,"roughnessFactor":1,"baseColorTexture":{"index":0}},"alphaMode":"MASK","alphaCutoff":0.05,"doubleSided":true}],"textures":[{"sampler":0,"source":0,"name":"bl_tree_frog_toxic_projectile"}],"samplers":[{"magFilter":9728,"minFilter":9728,"wrapS":33071,"wrapT":33071}],"images":[{"mimeType":"image/png","uri":"data:image/png;base64,"}],"meshes":[{"primitives":[{"mode":4,"attributes":{"POSITION":0,"NORMAL":1,"TEXCOORD_0":2},"indices":3,"material":0}]},{"primitives":[{"mode":4,"attributes":{"POSITION":4,"NORMAL":5,"TEXCOORD_0":6},"indices":7,"material":0}]},{"primitives":[{"mode":4,"attributes":{"POSITION":8,"NORMAL":9,"TEXCOORD_0":10},"indices":11,"material":0}]},{"primitives":[{"mode":4,"attributes":{"POSITION":12,"NORMAL":13,"TEXCOORD_0":14},"indices":15,"material":0}]}],"animations":[{"name":"spawn","samplers":[{"input":16,"output":17,"interpolation":"LINEAR"},{"input":18,"output":19,"interpolation":"LINEAR"}],"channels":[{"sampler":0,"target":{"node":3,"path":"rotation"}},{"sampler":1,"target":{"node":4,"path":"rotation"}}]}]}